<svg xmlns="http://www.w3.org/2000/svg" viewBox="0 0 110 110"><path fill="#888" fill-rule="evenodd" d="m70.437 71.9-3.087-4.81 9.761-1.138-4.422-3.619 8.931-4.1-5.324-2.075 7.228-6.658-5.705-.329 4.817-8.566-5.527 1.45 1.933-9.635-4.808 3.087-1.14-9.76-3.618 4.421-4.1-8.931-2.075 5.324-6.658-7.228-.329 5.705-8.566-4.817 1.45 5.528-9.635-1.934 3.087 4.809-9.761 1.138 4.422 3.62-8.931 4.099 5.324 2.075-7.228 6.658 5.705.33-4.817 8.565 5.527-1.45-1.933 9.635 4.808-3.087 1.14 9.761 3.618-4.422 4.1 8.932 2.075-5.324 6.658 7.227.329-5.705 8.566 4.817-1.45-5.527zM48.388 52.101q.105.163.217.32t.231.308.247.296.26.285q.135.138.275.27.14.133.287.258t.3.243q.153.117.311.227.159.11.322.213.164.102.332.196.169.094.342.18.172.085.35.162.176.077.356.145.18.069.364.128.184.06.37.11t.375.091.378.073.382.054.384.035q.193.013.386.017.192.003.385-.003.193-.005.385-.02.193-.016.384-.041t.381-.059.378-.078.373-.096q.186-.052.369-.114.182-.062.362-.132t.355-.15.348-.167q.171-.088.339-.184.167-.096.33-.2.162-.105.319-.217t.308-.231.296-.247.285-.26.27-.275.258-.287.242-.3.228-.311.212-.322q.103-.164.197-.332.094-.169.18-.341t.162-.35.145-.357.128-.364.11-.37.09-.375q.042-.188.074-.378t.054-.382.035-.384.017-.385q.003-.193-.003-.386t-.02-.385-.041-.384-.06-.38q-.033-.19-.077-.379-.043-.188-.096-.373-.052-.186-.114-.368-.062-.183-.132-.363t-.15-.355-.167-.348-.184-.339-.2-.33q-.105-.161-.217-.318t-.231-.309-.247-.296-.26-.284q-.135-.14-.275-.271-.14-.133-.287-.258t-.3-.242-.311-.228-.322-.212-.332-.197-.342-.18q-.172-.085-.35-.162-.176-.077-.356-.145t-.364-.128-.37-.11-.375-.09-.378-.074-.382-.054q-.192-.022-.384-.035-.193-.013-.386-.017-.192-.003-.385.003t-.385.021-.384.04-.381.06-.378.077-.373.096-.369.114-.362.132-.355.15-.348.167q-.171.088-.339.184-.167.096-.33.2-.162.105-.319.217t-.308.231-.296.247-.285.26-.27.275-.258.288q-.125.146-.242.3-.118.152-.228.31-.11.159-.212.322-.103.164-.197.332-.094.169-.18.342t-.162.35-.145.357-.128.363q-.06.184-.11.37t-.09.375-.074.379-.054.381q-.022.192-.035.384-.013.193-.017.386-.003.193.003.385.006.193.02.385.016.193.041.384t.06.381q.033.19.077.378.043.188.096.373.052.186.114.369.062.182.132.362t.15.355.167.348.184.339.2.33"/><path fill="#6e6e6e" d="m69.235 72.671-3.087-4.808q-.076-.119-.128-.25-.051-.13-.076-.27-.025-.138-.023-.278t.033-.279.086-.266.137-.245.181-.213q.102-.097.22-.173.278-.179.606-.217l9.762-1.139.165 1.419-.905 1.106-4.422-3.62q-.109-.088-.198-.197t-.156-.233-.108-.258-.055-.275 0-.28.054-.275.107-.259q.066-.124.155-.233.21-.255.51-.393l8.932-4.1.595 1.299-.518 1.33-5.324-2.075q-.132-.05-.25-.126-.119-.076-.22-.173-.102-.098-.183-.213-.08-.115-.137-.244-.056-.13-.087-.266-.03-.138-.033-.279-.003-.14.022-.279.024-.138.075-.27.12-.307.363-.531l7.228-6.66.968 1.052-.082 1.426-5.705-.329q-.14-.008-.276-.043-.137-.035-.263-.097-.127-.06-.24-.146-.112-.084-.205-.19-.094-.104-.165-.226-.071-.121-.118-.254-.046-.133-.066-.272-.019-.14-.01-.28.018-.33.18-.618l4.816-8.566 1.246.7.362 1.382-5.527 1.45q-.136.036-.276.044t-.28-.01q-.14-.02-.273-.065-.133-.046-.254-.117-.122-.071-.227-.164t-.19-.206-.147-.238-.097-.263q-.084-.32-.02-.644l1.934-9.635 1.401.28.772 1.203-4.809 3.087q-.118.076-.249.128-.13.051-.27.076-.138.025-.279.023-.14-.003-.278-.033-.137-.03-.266-.086-.13-.056-.245-.137-.115-.08-.213-.181t-.174-.22q-.178-.278-.216-.606l-1.139-9.761 1.419-.166 1.105.905-3.619 4.422q-.089.109-.197.198t-.233.156-.258.108-.275.055-.28 0-.275-.054-.259-.107-.233-.155q-.256-.21-.393-.51l-4.1-8.932 1.299-.595 1.33.518-2.075 5.325q-.05.13-.127.25-.075.118-.173.22-.097.101-.212.182-.116.08-.244.137-.13.056-.267.087t-.278.033-.279-.022-.27-.075q-.307-.12-.531-.363L55.59 20.3l1.052-.968 1.426.082-.329 5.705q-.008.14-.043.277-.036.136-.097.262-.061.127-.146.24t-.19.205-.226.165-.254.118-.272.066-.28.01q-.33-.018-.618-.18l-8.566-4.816.7-1.246 1.382-.362 1.45 5.527q.036.136.044.276t-.01.28q-.02.14-.065.273-.046.133-.117.254-.071.122-.165.227-.093.105-.205.19t-.239.147-.262.097q-.32.084-.644.02l-9.635-1.934.28-1.4 1.203-.773 3.087 4.809q.076.118.128.249.051.131.076.27.025.138.023.279-.003.14-.033.278-.03.137-.086.266-.056.13-.137.245-.08.115-.181.213-.102.098-.22.174-.278.178-.606.216l-9.762 1.14-.165-1.42.905-1.105 4.422 3.619q.109.089.198.197t.156.233.108.259.055.274 0 .28-.054.275-.107.259-.155.233q-.21.256-.51.393l-8.932 4.1-.595-1.298.518-1.332 5.324 2.076q.132.05.25.127.119.075.22.173t.183.212q.08.116.137.245.056.128.087.266.03.137.033.278.003.14-.022.279t-.075.27q-.12.308-.363.531l-7.228 6.66-.968-1.052.082-1.426 5.705.329q.14.008.277.043.136.036.262.097.127.061.24.146t.205.19.165.226.118.254.066.272.01.28q-.018.33-.18.618L28.61 55.81l-1.246-.7-.362-1.381 5.527-1.45q.136-.037.276-.045t.28.01q.14.02.273.066.133.045.254.116.122.071.227.165.105.093.19.205t.147.239.097.262q.084.32.02.644l-1.934 9.635-1.401-.28-.772-1.203 4.809-3.087q.118-.076.249-.128.13-.051.27-.076.138-.025.279-.022.14.002.278.032.137.03.266.086.13.056.245.137.115.08.213.181.097.102.174.22.178.278.216.606l1.139 9.762-1.419.165-1.105-.905 3.619-4.422q.089-.109.197-.198t.233-.156.258-.108.275-.055.28 0 .275.054.259.107.233.155q.256.21.393.51l4.1 8.932-1.299.596-1.33-.52 2.075-5.323q.05-.131.127-.25.075-.119.173-.22t.212-.182q.116-.081.244-.138.13-.056.267-.086t.278-.034q.14-.003.279.022.138.024.27.076.307.12.531.363l6.66 7.227-1.052.968-1.426-.082.329-5.705q.008-.14.043-.276.036-.137.097-.263.061-.127.146-.24t.19-.205.226-.165.254-.118.272-.065.28-.012q.33.02.618.181l8.566 4.816-.7 1.246-1.382.362-1.45-5.527q-.036-.136-.044-.276t.01-.28q.02-.14.065-.273.046-.133.117-.254t.165-.227.205-.19.239-.147.262-.097q.32-.084.644-.019l9.635 1.933-.28 1.401zm2.404-1.544q.15.234.202.507.052.274-.003.546-.028.138-.082.268t-.132.247-.178.216-.217.177-.247.132-.268.08-.28.028-.278-.028l-9.635-1.934.28-1.4 1.383-.363 1.45 5.527q.07.269.035.545t-.171.518q-.07.123-.161.23-.092.106-.202.193t-.236.15-.261.102q-.136.038-.276.05-.14.01-.28-.007t-.274-.06-.256-.113l-8.566-4.816.7-1.246 1.426.083-.328 5.704q-.016.278-.135.53-.12.25-.324.439-.103.095-.223.169-.12.073-.252.121-.132.049-.272.07-.139.022-.279.017-.14-.006-.277-.04-.137-.032-.265-.091-.127-.06-.241-.142-.114-.083-.21-.187l-6.658-7.228 1.05-.967 1.332.518-2.076 5.324q-.1.26-.291.462t-.444.318q-.128.059-.265.091-.136.033-.277.038-.14.005-.28-.017-.138-.022-.27-.071t-.252-.123q-.12-.073-.223-.17-.103-.095-.186-.209-.082-.114-.141-.241l-4.1-8.932 1.299-.596 1.106.905-3.62 4.422q-.175.215-.42.348-.243.134-.52.166-.14.016-.28.005t-.275-.05-.26-.102-.236-.152q-.11-.087-.202-.194-.091-.107-.16-.23-.068-.123-.111-.257-.044-.134-.06-.273l-1.139-9.762 1.42-.165.771 1.202-4.808 3.087q-.234.15-.507.202t-.546-.003q-.138-.028-.268-.082t-.247-.132-.216-.178-.177-.217-.132-.247-.08-.268-.028-.28.028-.278l1.934-9.635 1.4.28.363 1.383-5.527 1.45q-.269.07-.545.035-.275-.035-.518-.171-.122-.07-.23-.16-.106-.092-.193-.203-.087-.11-.15-.236-.064-.126-.102-.261-.038-.136-.049-.276-.01-.14.006-.28.017-.14.06-.273.044-.134.113-.257l4.816-8.566 1.246.7-.082 1.426-5.705-.328q-.278-.016-.53-.135-.25-.119-.439-.323-.095-.104-.168-.224t-.122-.252-.07-.271q-.022-.14-.017-.28.006-.14.04-.277.032-.137.091-.265.06-.127.143-.241t.186-.21l7.228-6.658.968 1.05-.52 1.332-5.323-2.076q-.26-.1-.462-.291t-.318-.444q-.059-.127-.091-.264-.033-.137-.038-.278-.005-.14.017-.28.022-.138.071-.27t.123-.252.17-.223q.095-.103.209-.186.114-.082.242-.14l8.931-4.1.596 1.298-.905 1.106-4.422-3.62q-.215-.175-.348-.42-.134-.243-.166-.52-.016-.14-.005-.28t.05-.275.102-.26q.064-.126.152-.236.087-.11.194-.202.107-.09.23-.16.123-.068.257-.111.134-.044.273-.06l9.762-1.138.165 1.419-1.202.771-3.087-4.808q-.15-.234-.202-.507t.003-.546q.028-.138.082-.268t.132-.247.178-.216.217-.177.247-.132.268-.08.28-.028.278.028l9.635 1.934-.28 1.4-1.383.363-1.45-5.527q-.07-.269-.035-.545.035-.275.171-.518.07-.122.161-.23.092-.106.202-.193t.236-.15q.126-.064.261-.102.136-.038.276-.049.14-.01.28.006.14.017.274.06.133.044.256.113l8.566 4.817-.7 1.245-1.426-.082.328-5.705q.016-.278.135-.529t.324-.44q.103-.095.223-.168t.252-.122.272-.07.279-.016.277.038q.137.034.265.093.127.059.241.142t.21.186l6.658 7.228-1.05.968-1.332-.52 2.076-5.323q.1-.26.291-.461.191-.203.444-.319.128-.058.265-.091.136-.033.277-.038.14-.005.28.017.138.022.27.071.132.05.252.123.12.074.223.17.103.095.186.209.082.114.141.242l4.1 8.931-1.299.596-1.106-.904 3.62-4.423q.175-.215.42-.348.243-.134.52-.166.14-.016.28-.005t.275.05.26.102q.126.064.236.152.11.087.202.194.091.107.16.23.068.123.111.257.044.134.06.274l1.139 9.76-1.42.166-.771-1.202 4.808-3.087q.234-.15.507-.202.273-.051.546.003.138.028.268.082t.247.132.216.178.177.217.132.247.08.269.028.278-.028.279l-1.934 9.635-1.4-.28-.363-1.382 5.527-1.45q.269-.071.545-.036.275.035.518.172.122.069.23.16.106.092.193.202t.15.236.102.261q.038.136.049.276.01.14-.006.28-.017.14-.06.274-.044.133-.113.256l-4.816 8.566-1.246-.7.082-1.426 5.705.329q.278.015.53.134.25.12.439.324.095.103.168.223t.122.253.07.27.017.28-.04.278q-.032.136-.091.264-.06.128-.143.241-.082.114-.186.21l-7.228 6.658-.968-1.05.52-1.332 5.323 2.076q.26.1.462.291t.318.444q.059.128.091.265.033.136.038.277.005.14-.017.28-.022.139-.071.27-.049.132-.123.252-.073.12-.17.223-.095.103-.209.186-.114.082-.242.141l-8.931 4.1-.596-1.299.905-1.105 4.422 3.618q.215.177.348.42.134.244.166.52.016.14.005.28t-.05.276-.102.26q-.064.126-.152.236-.087.11-.194.202-.107.091-.23.16-.123.068-.257.111-.134.044-.273.06l-9.762 1.139-.165-1.42 1.202-.771zM49.591 51.33q1.438 2.241 4.04 2.808t4.842-.871q2.241-1.44 2.808-4.04.567-2.603-.872-4.843-1.438-2.24-4.04-2.808t-4.842.872q-2.241 1.438-2.808 4.04t.872 4.842m-2.405 1.544q-2.078-3.236-1.259-6.994.82-3.758 4.056-5.837t6.994-1.259 5.837 4.056 1.259 6.995-4.056 5.836-6.994 1.259-5.837-4.056"/><path fill="none" stroke="#000" stroke-linecap="round" stroke-linejoin="round" stroke-width="1.886" d="M23.268 83.255q.517 0 .855-.084.338-.088.541-.238.207-.15.284-.353.08-.207.08-.457 0-.537-.506-.89-.503-.353-1.726-.76-.534-.191-1.07-.433-.534-.245-.96-.614-.422-.368-.69-.894-.265-.525-.265-1.28 0-.757.28-1.359.284-.606.802-1.028.518-.426 1.258-.652.74-.23 1.665-.23 1.101 0 1.903.237.802.234 1.32.518l-.706 1.93q-.457-.234-1.017-.414-.556-.18-1.343-.18-.878 0-1.266.245-.383.242-.383.744 0 .3.142.503t.399.368q.26.165.598.3t.748.275q.848.315 1.474.622.629.303 1.047.714.418.406.621.959.204.548.204 1.335 0 1.523-1.07 2.363-1.067.84-3.22.84-.725 0-1.308-.088-.579-.084-1.028-.207-.445-.127-.767-.269t-.541-.268l.69-1.95q.488.27 1.201.484.714.211 1.754.211m9.17.234q.345 0 .66-.015.314-.016.502-.046v-1.776q-.142-.031-.426-.062-.28-.034-.518-.034-.33 0-.621.042-.288.038-.51.15-.22.107-.346.295-.123.188-.123.472 0 .548.369.763.368.211 1.012.211m-.189-6.852q1.036 0 1.727.238.694.234 1.109.675.418.438.59 1.067.173.629.173 1.4v4.873q-.502.107-1.4.257-.894.15-2.168.15-.802 0-1.454-.143-.652-.142-1.124-.464t-.725-.84q-.25-.518-.25-1.274 0-.721.292-1.224.292-.502.779-.802.487-.299 1.116-.43.63-.133 1.305-.133.452 0 .806.038.356.038.575.1v-.22q0-.598-.36-.958-.361-.36-1.26-.36-.594 0-1.177.087-.583.085-1.005.242l-.3-1.884q.204-.065.511-.134.307-.073.667-.126t.76-.093q.403-.042.813-.042m10.74 3.74q-.31 1.194-.667 2.376-.353 1.177-.744 2.37h-1.822q-.284-.66-.614-1.569-.33-.913-.683-1.987-.353-1.078-.725-2.279-.369-1.204-.714-2.428h2.467l.276 1.231q.15.668.315 1.378.165.706.345 1.42.18.713.368 1.376.204-.694.4-1.415.199-.725.38-1.424.18-.698.345-1.35t.291-1.216h1.696q.126.564.284 1.216t.33 1.35.36 1.424q.188.721.392 1.415.191-.663.38-1.377.187-.713.352-1.42.165-.71.315-1.377t.272-1.231h2.437q-.346 1.224-.714 2.428-.368 1.201-.725 2.28-.353 1.073-.69 1.986-.338.91-.622 1.57H44.45q-.39-1.194-.77-2.371-.377-1.182-.691-2.375m12.58.55q0-2.26-1.665-2.26-.36 0-.717.096-.353.092-.572.234v4.258q.173.03.438.054.268.023.583.023.96 0 1.446-.66.488-.66.488-1.746m2.39.065q0 .99-.29 1.791-.292.802-.845 1.37-.549.564-1.35.87-.798.304-1.823.304-.422 0-.886-.038-.464-.039-.913-.104-.445-.061-.855-.146-.407-.088-.722-.184V73.307l2.34-.376v4.117q.392-.173.818-.269t.913-.096q.878 0 1.554.307.675.307 1.131.875.457.564.69 1.358.239.794.239 1.769m5.1 4.289q-1.02-.016-1.657-.219-.637-.207-1.009-.575-.368-.369-.503-.894-.13-.53-.13-1.19v-9.096l2.34-.376v9.004q0 .311.046.564.05.254.18.426.135.173.384.284.253.108.68.138zm4.82-1.792q.346 0 .66-.015.315-.016.503-.046v-1.776q-.142-.031-.426-.062-.28-.034-.518-.034-.33 0-.621.042-.288.038-.51.15-.22.107-.346.295-.123.188-.123.472 0 .548.369.763.368.211 1.013.211m-.187-6.852q1.036 0 1.726.238.694.234 1.109.675.418.438.59 1.067.173.629.173 1.4v4.873q-.502.107-1.4.257-.894.15-2.168.15-.801 0-1.454-.143-.652-.142-1.124-.464t-.725-.84q-.25-.518-.25-1.274 0-.721.292-1.224.292-.502.78-.802.486-.299 1.115-.43.63-.133 1.305-.133.453 0 .806.038.356.038.575.1v-.22q0-.598-.36-.958-.361-.36-1.259-.36-.595 0-1.178.087-.583.085-1.005.242l-.3-1.884q.204-.065.511-.134.307-.073.668-.126.36-.054.76-.093.402-.042.813-.042m7.709 4.29q0 1.085.487 1.745t1.447.66q.314 0 .579-.023.269-.023.441-.054v-4.258q-.219-.142-.575-.234-.353-.096-.714-.096-1.665 0-1.665 2.26m5.294 3.928q-.314.096-.725.184-.406.085-.855.146-.445.065-.91.103-.464.039-.886.039-1.024 0-1.826-.295-.798-.3-1.35-.856-.549-.56-.84-1.354-.292-.794-.292-1.784 0-1.005.25-1.815.252-.81.724-1.373.472-.568 1.155-.867.687-.3 1.565-.3.488 0 .871.096.388.096.78.269v-3.74l2.34-.377zm1.8-3.802q0-1.101.338-1.926t.886-1.373q.553-.549 1.267-.833.717-.284 1.473-.284 1.757 0 2.777 1.078 1.025 1.075 1.025 3.165 0 .204-.016.45-.015.241-.034.429H84.9q.077.725.675 1.15.599.423 1.604.423.644 0 1.262-.115.622-.12 1.017-.292l.314 1.9q-.187.095-.502.191-.315.092-.702.161-.384.073-.825.12-.437.045-.879.045-1.116 0-1.94-.33-.826-.33-1.37-.901-.541-.576-.802-1.358-.257-.787-.257-1.7m5.502-.894q-.015-.3-.103-.583-.085-.284-.265-.503-.18-.218-.457-.36-.276-.142-.683-.142-.395 0-.679.134-.28.134-.468.353t-.291.51-.15.591z"/><path fill="#fff" d="M23.268 83.255q.517 0 .855-.084.338-.088.541-.238.207-.15.284-.353.08-.207.08-.457 0-.537-.506-.89-.503-.353-1.726-.76-.534-.191-1.07-.433-.534-.245-.96-.614-.422-.368-.69-.894-.265-.525-.265-1.28 0-.757.28-1.359.284-.606.802-1.028.518-.426 1.258-.652.74-.23 1.665-.23 1.101 0 1.903.237.802.234 1.32.518l-.706 1.93q-.457-.234-1.017-.414-.556-.18-1.343-.18-.878 0-1.266.245-.383.242-.383.744 0 .3.142.503t.399.368q.26.165.598.3t.748.275q.848.315 1.474.622.629.303 1.047.714.418.406.621.959.204.548.204 1.335 0 1.523-1.07 2.363-1.067.84-3.22.84-.725 0-1.308-.088-.579-.084-1.028-.207-.445-.127-.767-.269t-.541-.268l.69-1.95q.488.27 1.201.484.714.211 1.754.211m9.17.234q.345 0 .66-.015.314-.016.502-.046v-1.776q-.142-.031-.426-.062-.28-.034-.518-.034-.33 0-.621.042-.288.038-.51.15-.22.107-.346.295-.123.188-.123.472 0 .548.369.763.368.211 1.012.211m-.189-6.852q1.036 0 1.727.238.694.234 1.109.675.418.438.59 1.067.173.629.173 1.4v4.873q-.502.107-1.4.257-.894.15-2.168.15-.802 0-1.454-.143-.652-.142-1.124-.464t-.725-.84q-.25-.518-.25-1.274 0-.721.292-1.224.292-.502.779-.802.487-.299 1.116-.43.63-.133 1.305-.133.452 0 .806.038.356.038.575.1v-.22q0-.598-.36-.958-.361-.36-1.26-.36-.594 0-1.177.087-.583.085-1.005.242l-.3-1.884q.204-.065.511-.134.307-.073.667-.126t.76-.093q.403-.042.813-.042m10.74 3.74q-.31 1.194-.667 2.376-.353 1.177-.744 2.37h-1.822q-.284-.66-.614-1.569-.33-.913-.683-1.987-.353-1.078-.725-2.279-.369-1.204-.714-2.428h2.467l.276 1.231q.15.668.315 1.378.165.706.345 1.42.18.713.368 1.376.204-.694.4-1.415.199-.725.38-1.424.18-.698.345-1.35t.291-1.216h1.696q.126.564.284 1.216t.33 1.35.36 1.424q.188.721.392 1.415.191-.663.38-1.377.187-.713.352-1.42.165-.71.315-1.377t.272-1.231h2.437q-.346 1.224-.714 2.428-.368 1.201-.725 2.28-.353 1.073-.69 1.986-.338.91-.622 1.57H44.45q-.39-1.194-.77-2.371-.377-1.182-.691-2.375m12.58.55q0-2.26-1.665-2.26-.36 0-.717.096-.353.092-.572.234v4.258q.173.03.438.054.268.023.583.023.96 0 1.446-.66.488-.66.488-1.746m2.39.065q0 .99-.29 1.791-.292.802-.845 1.37-.549.564-1.35.87-.798.304-1.823.304-.422 0-.886-.038-.464-.039-.913-.104-.445-.061-.855-.146-.407-.088-.722-.184V73.307l2.34-.376v4.117q.392-.173.818-.269t.913-.096q.878 0 1.554.307.675.307 1.131.875.457.564.69 1.358.239.794.239 1.769m5.1 4.289q-1.02-.016-1.657-.219-.637-.207-1.009-.575-.368-.369-.503-.894-.13-.53-.13-1.19v-9.096l2.34-.376v9.004q0 .311.046.564.05.254.18.426.135.173.384.284.253.108.68.138zm4.82-1.792q.346 0 .66-.015.315-.016.503-.046v-1.776q-.142-.031-.426-.062-.28-.034-.518-.034-.33 0-.621.042-.288.038-.51.15-.22.107-.346.295-.123.188-.123.472 0 .548.369.763.368.211 1.013.211m-.187-6.852q1.036 0 1.726.238.694.234 1.109.675.418.438.59 1.067.173.629.173 1.4v4.873q-.502.107-1.4.257-.894.15-2.168.15-.801 0-1.454-.143-.652-.142-1.124-.464t-.725-.84q-.25-.518-.25-1.274 0-.721.292-1.224.292-.502.78-.802.486-.299 1.115-.43.63-.133 1.305-.133.453 0 .806.038.356.038.575.1v-.22q0-.598-.36-.958-.361-.36-1.259-.36-.595 0-1.178.087-.583.085-1.005.242l-.3-1.884q.204-.065.511-.134.307-.073.668-.126.36-.054.76-.093.402-.042.813-.042m7.709 4.29q0 1.085.487 1.745t1.447.66q.314 0 .579-.023.269-.023.441-.054v-4.258q-.219-.142-.575-.234-.353-.096-.714-.096-1.665 0-1.665 2.26m5.294 3.928q-.314.096-.725.184-.406.085-.855.146-.445.065-.91.103-.464.039-.886.039-1.024 0-1.826-.295-.798-.3-1.35-.856-.549-.56-.84-1.354-.292-.794-.292-1.784 0-1.005.25-1.815.252-.81.724-1.373.472-.568 1.155-.867.687-.3 1.565-.3.488 0 .871.096.388.096.78.269v-3.74l2.34-.377zm1.8-3.802q0-1.101.338-1.926t.886-1.373q.553-.549 1.267-.833.717-.284 1.473-.284 1.757 0 2.777 1.078 1.025 1.075 1.025 3.165 0 .204-.016.45-.015.241-.034.429H84.9q.077.725.675 1.15.599.423 1.604.423.644 0 1.262-.115.622-.12 1.017-.292l.314 1.9q-.187.095-.502.191-.315.092-.702.161-.384.073-.825.12-.437.045-.879.045-1.116 0-1.94-.33-.826-.33-1.37-.901-.541-.576-.802-1.358-.257-.787-.257-1.7m5.502-.894q-.015-.3-.103-.583-.085-.284-.265-.503-.18-.218-.457-.36-.276-.142-.683-.142-.395 0-.679.134-.28.134-.468.353t-.291.51-.15.591z"/></svg>