<svg xmlns="http://www.w3.org/2000/svg" viewBox="0 0 110 110"><path fill="#f5c842" d="M47.281 59.878c-14.425-9.262 1.012-33.304 15.438-24.042S61.707 69.14 47.28 59.878"/><path fill="#c6a235" d="M46.124 61.681q-5.976-3.837-6.676-10.547-.612-5.865 2.93-11.381t9.13-7.4q6.393-2.157 12.368 1.68t6.676 10.547q.612 5.866-2.93 11.382t-9.13 7.4q-6.393 2.156-12.368-1.68m2.315-3.606q4.242 2.724 8.684 1.226 4.163-1.404 6.893-5.655t2.273-8.62q-.486-4.663-4.728-7.387t-8.684-1.226q-4.163 1.404-6.893 5.655t-2.273 8.621q.486 4.662 4.728 7.386"/><path fill="none" stroke="#000" stroke-linecap="round" stroke-linejoin="round" stroke-width="2.4" d="M38.01 84.035v2.68h-9.258V72.854h3.12v11.182zm1.298-2.5q0-1.401.43-2.451t1.128-1.748q.703-.698 1.611-1.06.914-.361 1.875-.361 2.237 0 3.536 1.372 1.303 1.367 1.303 4.028 0 .26-.02.572-.019.307-.043.547H42.37q.098.922.86 1.464.761.537 2.04.537.82 0 1.607-.146.79-.151 1.294-.371l.4 2.417q-.24.122-.64.244-.4.117-.893.205-.488.093-1.05.151-.556.059-1.118.059-1.42 0-2.47-.42t-1.744-1.147q-.688-.733-1.02-1.729-.328-1-.328-2.163m7.002-1.138q-.02-.38-.132-.742-.107-.361-.336-.64-.23-.278-.581-.459-.352-.18-.87-.18-.503 0-.864.17-.356.172-.596.45-.239.278-.37.65-.133.37-.191.751zm5.181-3.842q.757-.22 1.958-.41 1.201-.191 2.52-.191 1.343 0 2.231.352.889.351 1.407.99.522.64.742 1.52.22.878.22 1.957v5.943H57.59v-5.581q0-1.44-.38-2.037-.382-.6-1.422-.6-.317 0-.678.03-.362.028-.64.068v8.12h-2.98zm11.678-2.979 2.983-.478v3.1h3.58v2.476h-3.58v3.7q0 .943.327 1.505.332.556 1.333.556.479 0 .987-.087.512-.093.932-.254l.42 2.324q-.542.22-1.201.376-.66.161-1.621.161-1.22 0-2.021-.327-.796-.332-1.28-.923-.478-.59-.669-1.43-.19-.84-.19-1.861zm11.96 13.14h-2.978V76.198h2.979zm.28-13.56q0 .82-.533 1.29-.527.468-1.245.468-.723 0-1.255-.469-.527-.469-.527-1.289t.527-1.289q.532-.474 1.255-.474.718 0 1.245.474.532.469.532 1.29m6.721 13.76q-1.298-.02-2.109-.278-.81-.264-1.284-.733-.469-.469-.64-1.137-.166-.674-.166-1.514V71.677l2.979-.479v11.46q0 .396.058.718.064.322.23.542.17.22.488.361.322.137.864.176z"/><path fill="#fff" d="M38.01 84.035v2.68h-9.258V72.854h3.12v11.182zm1.298-2.5q0-1.401.43-2.451t1.128-1.748q.703-.698 1.611-1.06.914-.361 1.875-.361 2.237 0 3.536 1.372 1.303 1.367 1.303 4.028 0 .26-.02.572-.019.307-.043.547H42.37q.098.922.86 1.464.761.537 2.04.537.82 0 1.607-.146.79-.151 1.294-.371l.4 2.417q-.24.122-.64.244-.4.117-.893.205-.488.093-1.05.151-.556.059-1.118.059-1.42 0-2.47-.42t-1.744-1.147q-.688-.733-1.02-1.729-.328-1-.328-2.163m7.002-1.138q-.02-.38-.132-.742-.107-.361-.336-.64-.23-.278-.581-.459-.352-.18-.87-.18-.503 0-.864.17-.356.172-.596.45-.239.278-.37.65-.133.37-.191.751zm5.181-3.842q.757-.22 1.958-.41 1.201-.191 2.52-.191 1.343 0 2.231.352.889.351 1.407.99.522.64.742 1.52.22.878.22 1.957v5.943H57.59v-5.581q0-1.44-.38-2.037-.382-.6-1.422-.6-.317 0-.678.03-.362.028-.64.068v8.12h-2.98zm11.678-2.979 2.983-.478v3.1h3.58v2.476h-3.58v3.7q0 .943.327 1.505.332.556 1.333.556.479 0 .987-.087.512-.093.932-.254l.42 2.324q-.542.22-1.201.376-.66.161-1.621.161-1.22 0-2.021-.327-.796-.332-1.28-.923-.478-.59-.669-1.43-.19-.84-.19-1.861zm11.96 13.14h-2.978V76.198h2.979zm.28-13.56q0 .82-.533 1.29-.527.468-1.245.468-.723 0-1.255-.469-.527-.469-.527-1.289t.527-1.289q.532-.474 1.255-.474.718 0 1.245.474.532.469.532 1.29m6.721 13.76q-1.298-.02-2.109-.278-.81-.264-1.284-.733-.469-.469-.64-1.137-.166-.674-.166-1.514V71.677l2.979-.479v11.46q0 .396.058.718.064.322.23.542.17.22.488.361.322.137.864.176z"/></svg>