<svg xmlns="http://www.w3.org/2000/svg" viewBox="0 0 110 110"><path fill="#ffe763" fill-rule="evenodd" d="m44.426 26.015 1.818 17.223 18.99 14.015-1.724 14.856q-1.787.884-3.693 1.473-.586.182-1.18.334-.595.153-1.196.276t-1.208.216-1.217.157-1.223.097-1.227.037q-.613.003-1.226-.024-.614-.027-1.225-.083-.61-.057-1.218-.144t-1.21-.203q-.603-.116-1.2-.262-.595-.146-1.184-.321-.588-.175-1.167-.379-.579-.203-1.147-.435t-1.124-.491q-.557-.26-1.1-.546-.542-.286-1.07-.599-.529-.312-1.04-.65-.513-.339-1.008-.702t-.971-.75q-.477-.386-.934-.796t-.893-.84q-.436-.432-.851-.885-.415-.452-.807-.925-.392-.472-.76-.963-.368-.49-.712-1-.344-.508-.662-1.032-.318-.525-.61-1.065-.293-.54-.558-1.093t-.504-1.119q-.238-.565-.448-1.142t-.39-1.163q-.18-.577-.33-1.161t-.272-1.176-.215-1.188-.158-1.196q-.064-.6-.1-1.203-.035-.602-.041-1.206-.006-.603.016-1.207.023-.603.075-1.204.052-.602.133-1.2t.191-1.191.248-1.182.305-1.167.36-1.152q.195-.572.416-1.133.222-.561.47-1.112.249-.55.523-1.087.275-.538.575-1.061.3-.524.626-1.032.325-.509.674-1.001t.723-.967.768-.931.812-.893q.416-.436.854-.853.437-.416.894-.81t.932-.766.969-.72q.492-.35 1.002-.674.509-.324 1.033-.623.524-.3 1.062-.573.538-.274 1.088-.522.55-.247 1.113-.468.562-.22 1.133-.413"/><path fill="none" stroke="#cfbb50" stroke-linecap="round" stroke-linejoin="round" stroke-width="3" d="m44.426 26.015 1.818 17.223 18.99 14.015-1.724 14.856q-1.787.884-3.693 1.473-.586.182-1.18.334-.595.153-1.196.276t-1.208.216-1.217.157-1.223.097-1.227.037q-.613.003-1.226-.024-.614-.027-1.225-.083-.61-.057-1.218-.144t-1.21-.203q-.603-.116-1.2-.262-.595-.146-1.184-.321-.588-.175-1.167-.379-.579-.203-1.147-.435t-1.124-.491q-.557-.26-1.1-.546-.542-.286-1.07-.599-.529-.312-1.04-.65-.513-.339-1.008-.702t-.971-.75q-.477-.386-.934-.796t-.893-.84q-.436-.432-.851-.885-.415-.452-.807-.925-.392-.472-.76-.963-.368-.49-.712-1-.344-.508-.662-1.032-.318-.525-.61-1.065-.293-.54-.558-1.093t-.504-1.119q-.238-.565-.448-1.142t-.39-1.163q-.18-.577-.33-1.161t-.272-1.176-.215-1.188-.158-1.196q-.064-.6-.1-1.203-.035-.602-.041-1.206-.006-.603.016-1.207.023-.603.075-1.204.052-.602.133-1.2t.191-1.191.248-1.182.305-1.167.36-1.152q.195-.572.416-1.133.222-.561.47-1.112.249-.55.523-1.087.275-.538.575-1.061.3-.524.626-1.032.325-.509.674-1.001t.723-.967.768-.931.812-.893q.416-.436.854-.853.437-.416.894-.81t.932-.766.969-.72q.492-.35 1.002-.674.509-.324 1.033-.623.524-.3 1.062-.573.538-.274 1.088-.522.55-.247 1.113-.468.562-.22 1.133-.413"/><clipPath id="a"><path d="M-42.134-8.976 38.115-33.8l8.129 77.038 18.99 14.014-8.565 73.829L5.08 147.039z"/></clipPath><g clip-path="url(#a)"><path fill="#111" d="M47.13 46.104q.088.282.16.567.073.284.131.569.058.284.1.567.043.282.07.558t.037.546.005.527q-.006.259-.028.504t-.06.475-.092.442q-.053.213-.122.405t-.152.364-.18.32q-.096.147-.206.27t-.23.222q-.121.098-.253.169-.131.07-.272.114t-.29.06-.303.003-.316-.052q-.16-.04-.323-.108t-.329-.162-.33-.214-.33-.266-.325-.313-.318-.358-.307-.4-.294-.438-.278-.471-.258-.5-.237-.525q-.113-.268-.214-.544t-.187-.557-.16-.567-.131-.569-.1-.567-.07-.558-.037-.546q-.01-.27-.004-.527.005-.259.027-.504t.06-.475.092-.442q.053-.213.122-.405t.152-.364.18-.32q.096-.147.206-.27t.23-.222q.122-.098.253-.169.132-.07.272-.114t.29-.06.304-.003.315.052q.16.04.323.108.164.068.329.162t.33.214.33.266.325.313.318.358.308.4.293.438q.144.228.278.471.134.244.258.5.125.258.238.525.113.268.213.544t.188.557"/><clipPath id="b"><path d="M47.13 46.104q.044.141.084.283.04.141.077.283.036.143.069.285.032.142.061.285.03.142.054.284.026.142.047.282.021.142.038.281.018.14.03.278.014.139.023.275.01.137.015.271t.006.266-.001.261q-.003.13-.01.255-.007.127-.018.249-.011.123-.026.242-.015.118-.034.233t-.042.226-.05.216-.057.208-.065.197-.072.188-.08.176-.086.166q-.045.08-.094.153-.048.074-.1.142-.051.068-.106.13-.054.062-.112.117t-.118.104-.124.09q-.063.043-.129.078t-.134.065q-.068.028-.138.05t-.143.037-.147.022-.15.01-.154-.006-.156-.02q-.079-.012-.159-.032t-.16-.047q-.081-.027-.163-.061t-.164-.074-.165-.088-.165-.1-.165-.114-.166-.127-.164-.139-.163-.15-.162-.163-.16-.174-.158-.184-.155-.195-.152-.205-.15-.215-.144-.223-.141-.232-.137-.24-.132-.246-.126-.254-.122-.26q-.06-.13-.115-.264-.057-.134-.11-.27-.054-.136-.104-.274t-.097-.277-.09-.28-.084-.283q-.04-.141-.076-.283-.037-.143-.07-.285-.032-.142-.061-.285-.03-.142-.054-.284-.026-.142-.047-.282-.021-.142-.038-.281t-.03-.279q-.014-.138-.023-.274-.01-.137-.015-.271t-.006-.266.002-.261.01-.255q.006-.127.017-.249.011-.123.026-.242.015-.118.034-.233t.042-.226.05-.216.057-.208.065-.197.072-.188.08-.176.086-.166q.045-.08.094-.153.048-.074.1-.142.051-.068.106-.13.055-.061.112-.117.058-.055.118-.104t.124-.09q.063-.043.13-.078.065-.036.133-.065.068-.028.138-.05t.143-.037.147-.022.15-.01.154.006.156.02q.079.012.159.032t.16.047q.081.027.163.061t.164.074.165.088.165.1.166.114.165.127.164.139.163.15.162.163.16.174.158.184.155.195.153.205.148.215.145.223.141.232.137.24.132.246.126.254.122.26q.06.13.116.264t.11.27q.053.136.103.274t.097.277.09.28"/></clipPath><g clip-path="url(#b)"><path fill="#eee" d="M47.13 46.104q.044.141.074.286.03.144.045.29.015.147.016.295 0 .147-.013.294-.014.146-.042.291t-.07.286-.098.278-.124.267-.15.253-.174.237-.196.22q-.104.104-.218.199-.113.094-.235.176-.122.083-.252.153t-.265.127-.277.101-.285.073-.291.045-.294.016q-.147 0-.294-.013-.147-.014-.292-.041-.144-.028-.286-.07-.14-.042-.277-.098t-.267-.125-.253-.15-.238-.174q-.114-.092-.22-.196-.104-.104-.198-.217-.094-.114-.177-.236t-.152-.251-.128-.266-.1-.276-.074-.286-.044-.29-.016-.295.012-.294q.014-.146.042-.291t.07-.286.098-.278.124-.267.15-.253.174-.237.197-.22q.103-.104.217-.199.113-.094.235-.176.122-.083.252-.153t.265-.127.277-.101.285-.073.291-.045.294-.016q.148 0 .294.013.147.014.292.041.144.028.286.07.141.042.277.098t.267.125.254.15.237.174q.114.092.22.196.104.104.198.217.094.114.177.236t.153.251.127.266.1.276"/></g><path fill="none" stroke="#111" stroke-linecap="round" stroke-linejoin="round" stroke-width=".5" d="M3 0q0 .147-.014.294t-.044.291-.071.286q-.043.14-.1.277-.056.136-.125.266-.07.13-.152.253-.081.122-.175.236t-.198.218-.218.198-.236.175-.253.152q-.13.07-.266.126t-.277.099-.286.071q-.144.03-.29.044Q.146 3 0 3t-.294-.014q-.147-.015-.291-.044-.145-.028-.286-.071t-.277-.1-.266-.125-.253-.152-.236-.175q-.114-.093-.218-.198-.105-.104-.198-.218t-.175-.236-.152-.253-.126-.266-.098-.277-.071-.286-.044-.29Q-3 .146-3 0t.014-.294q.015-.147.044-.291.028-.145.071-.286t.1-.277.125-.266.152-.253.175-.236q.093-.114.198-.218.104-.105.218-.198t.236-.175.253-.152.266-.126.277-.099.286-.071q.144-.03.29-.044Q-.146-3 0-3t.294.014q.147.015.291.044.145.028.286.071t.277.1.266.125.253.152.236.175q.114.093.218.198.105.104.198.218t.175.236.152.253.126.266.099.277.071.286q.03.144.044.29Q3-.146 3 0" transform="rotate(-17.189 177.593 -122.945)scale(1 2)"/><path fill="#111" d="M60.505 41.967q.087.282.16.566.073.285.131.57.058.284.1.566t.07.56.037.545.004.527-.027.504-.06.475-.092.442-.122.405q-.069.193-.152.364t-.18.32q-.097.147-.206.27-.11.124-.23.222-.122.097-.253.168-.132.071-.273.115-.14.043-.289.059t-.304.004-.315-.053-.323-.107q-.164-.068-.329-.162-.165-.095-.33-.215-.166-.12-.33-.265t-.325-.313-.318-.359-.308-.4q-.15-.21-.293-.437-.144-.228-.278-.472t-.259-.5-.237-.525q-.113-.267-.213-.543t-.188-.558-.16-.566q-.073-.284-.13-.569-.059-.285-.101-.567t-.07-.559q-.026-.277-.036-.545-.01-.27-.005-.528.006-.258.028-.503.022-.246.06-.476t.091-.442q.054-.212.123-.405.068-.192.152-.364.083-.17.18-.319.096-.148.206-.271t.23-.221.253-.169q.131-.07.272-.114t.29-.06.303-.003.315.052q.16.04.324.108.163.067.329.162.165.094.33.214.166.12.33.265t.325.314.318.358.307.4.294.438.278.471.258.5.237.525.214.544.187.557"/><clipPath id="c"><path d="M60.505 41.967q.044.14.084.282t.076.284.07.285.061.285.054.283.047.283l.038.281q.017.14.03.278.014.139.023.275.01.136.015.27.005.135.006.267t-.002.261q-.002.13-.01.255-.006.126-.017.249-.011.122-.026.241-.015.12-.034.234t-.042.225-.05.217-.057.208q-.03.1-.065.197-.035.096-.073.187-.037.092-.079.177-.041.086-.087.165-.044.08-.093.154-.048.074-.1.142-.051.068-.106.13-.055.061-.112.117-.058.055-.119.104t-.123.09q-.063.043-.13.078-.065.036-.133.064t-.139.05-.142.037-.147.023-.15.009-.154-.005q-.077-.007-.156-.02t-.159-.033-.16-.047-.163-.06-.164-.075-.165-.087-.165-.101-.166-.114-.165-.126-.164-.139-.164-.15q-.081-.08-.161-.163-.081-.084-.16-.174-.08-.09-.158-.185-.079-.095-.155-.195-.077-.1-.153-.205-.075-.105-.148-.214-.074-.11-.146-.223-.071-.114-.14-.232t-.137-.24-.132-.246q-.065-.126-.127-.254t-.121-.26q-.06-.13-.116-.264t-.11-.27q-.053-.136-.103-.274t-.097-.278-.09-.28-.084-.282-.077-.284-.069-.284-.062-.285-.054-.284-.046-.283-.039-.28-.03-.279-.023-.275-.014-.27-.007-.267q0-.132.002-.26.003-.13.01-.256t.018-.248q.01-.123.026-.242.015-.119.034-.233t.042-.226.05-.217.057-.207.065-.198.072-.187.08-.177.086-.165.093-.154.1-.142.107-.13q.054-.06.112-.116.058-.055.118-.104t.124-.091.129-.078.134-.064.138-.05.143-.037.147-.023.15-.008.153.005.157.02q.078.012.159.032.08.02.16.047.081.027.163.06.082.034.164.075t.164.088.166.1.165.114.165.127.165.138.163.151.162.163.16.173.158.185.155.195.152.205.149.214.145.224.141.232.137.24q.067.12.131.246.065.125.127.253.062.129.122.26.059.131.115.265t.11.27.104.274.097.277.09.28"/></clipPath><g clip-path="url(#c)"><path fill="#eee" d="M60.505 41.967q.044.14.073.285.03.145.045.291.015.147.016.294.001.148-.013.294-.013.147-.041.292t-.07.286-.098.278-.124.266-.15.254-.174.237-.197.22-.217.198q-.113.094-.235.177t-.252.153-.265.127-.277.1-.285.074-.291.045-.294.016-.294-.013-.292-.042-.286-.07-.278-.097-.266-.125-.254-.15-.237-.174-.22-.196q-.104-.104-.198-.217-.094-.114-.177-.236t-.153-.252-.127-.265-.1-.277q-.044-.14-.074-.285t-.045-.29q-.015-.147-.016-.295 0-.147.013-.294.014-.147.042-.291.028-.145.07-.286.042-.142.097-.278.056-.137.125-.267t.15-.253.174-.238.196-.219.217-.199.236-.177.252-.152.265-.128.277-.1.285-.073q.144-.03.29-.045.147-.015.295-.016.147-.001.294.013t.291.041.286.07.278.098.267.124.253.15.238.174.219.197.199.217.177.235.152.252.128.265.1.277"/></g><path fill="none" stroke="#111" stroke-linecap="round" stroke-linejoin="round" stroke-width=".5" d="M3 0q0 .147-.014.294t-.044.291-.071.286q-.043.14-.1.277-.056.136-.125.266-.07.13-.152.253-.081.122-.175.236t-.198.218-.218.198-.236.175-.253.152q-.13.07-.266.126t-.277.099-.286.071q-.144.03-.29.044Q.146 3 0 3t-.294-.014q-.147-.015-.291-.044-.145-.028-.286-.071t-.277-.1-.266-.125-.253-.152-.236-.175q-.114-.093-.218-.198-.105-.104-.198-.218t-.175-.236-.152-.253-.126-.266-.098-.277-.071-.286-.044-.29Q-3 .146-3 0t.014-.294q.015-.147.044-.291.028-.145.071-.286t.1-.277.125-.266.152-.253.175-.236q.093-.114.198-.218.104-.105.218-.198t.236-.175.253-.152.266-.126.277-.099.286-.071q.144-.03.29-.044Q-.146-3 0-3t.294.014q.147.015.291.044.145.028.286.071t.277.1.266.125.253.152.236.175q.114.093.218.198.105.104.198.218t.175.236.152.253.126.266.099.277.071.286q.03.144.044.29Q3-.146 3 0" transform="rotate(-17.189 170.592 -169.26)scale(1 2)"/><path fill="none" stroke="#111" stroke-linecap="round" stroke-linejoin="round" stroke-width="1.5" d="M49.653 61.026q4.55-5.595 11.464-3.547"/></g><path fill="#ffe763" fill-rule="evenodd" d="M68.651 68.426q.494-.245.978-.511.483-.266.954-.553.47-.287.928-.595.458-.307.902-.634.444-.328.873-.675.428-.346.842-.712.413-.365.81-.748.396-.383.776-.783t.74-.817q.362-.417.705-.849t.666-.879.626-.907.586-.934.544-.96.502-.982.457-1.003.413-1.022.367-1.04q.173-.524.322-1.055t.274-1.068.227-1.08q.101-.541.179-1.087t.131-1.095q.053-.55.083-1.1.029-.55.034-1.102.004-.552-.015-1.103-.02-.55-.063-1.1-.044-.55-.112-1.098-.068-.547-.16-1.09-.092-.545-.208-1.084t-.255-1.072-.303-1.06q-.181-.587-.391-1.164t-.448-1.142-.504-1.12-.557-1.092q-.293-.54-.61-1.065-.32-.524-.663-1.033t-.712-.999q-.368-.49-.76-.963-.392-.472-.807-.925-.415-.452-.85-.884-.437-.432-.894-.841-.457-.41-.934-.797-.476-.386-.971-.75-.495-.362-1.007-.7t-1.04-.651-1.071-.6q-.543-.285-1.1-.545-.556-.259-1.124-.49-.568-.233-1.147-.436-.58-.204-1.167-.379-.589-.175-1.185-.32t-1.199-.263q-.602-.116-1.21-.203-.607-.087-1.218-.143-.611-.057-1.225-.084-.613-.027-1.226-.023-.614.003-1.227.036-.613.034-1.223.097-.61.064-1.217.157-.607.094-1.208.217t-1.196.275-1.18.334q-.31.095-.616.199l1.818 17.224 18.99 14.014z"/><path fill="none" stroke="#cfbb50" stroke-linecap="round" stroke-linejoin="round" stroke-width="3" d="M68.651 68.426q.494-.245.978-.511.483-.266.954-.553.47-.287.928-.595.458-.307.902-.634.444-.328.873-.675.428-.346.842-.712.413-.365.81-.748.396-.383.776-.783t.74-.817q.362-.417.705-.849t.666-.879.626-.907.586-.934.544-.96.502-.982.457-1.003.413-1.022.367-1.04q.173-.524.322-1.055t.274-1.068.227-1.08q.101-.541.179-1.087t.131-1.095q.053-.55.083-1.1.029-.55.034-1.102.004-.552-.015-1.103-.02-.55-.063-1.1-.044-.55-.112-1.098-.068-.547-.16-1.09-.092-.545-.208-1.084t-.255-1.072-.303-1.06q-.181-.587-.391-1.164t-.448-1.142-.504-1.12-.557-1.092q-.293-.54-.61-1.065-.32-.524-.663-1.033t-.712-.999q-.368-.49-.76-.963-.392-.472-.807-.925-.415-.452-.85-.884-.437-.432-.894-.841-.457-.41-.934-.797-.476-.386-.971-.75-.495-.362-1.007-.7t-1.04-.651-1.071-.6q-.543-.285-1.1-.545-.556-.259-1.124-.49-.568-.233-1.147-.436-.58-.204-1.167-.379-.589-.175-1.185-.32t-1.199-.263q-.602-.116-1.21-.203-.607-.087-1.218-.143-.611-.057-1.225-.084-.613-.027-1.226-.023-.614.003-1.227.036-.613.034-1.223.097-.61.064-1.217.157-.607.094-1.208.217t-1.196.275-1.18.334q-.31.095-.616.199l1.818 17.224 18.99 14.014z"/><clipPath id="d"><path d="M132.102-64.967 43.256-37.484l8.129 77.039 18.99 14.014-8.565 73.828 119.417-36.94z"/></clipPath><g clip-path="url(#d)"><path fill="#111" d="M52.272 42.42q.087.282.16.567.072.284.13.569t.1.567.07.559q.026.276.037.545.01.27.005.528-.006.258-.028.503-.022.246-.06.475-.038.23-.092.443-.053.212-.122.405-.069.192-.152.363-.083.172-.18.32t-.206.271-.23.221-.253.169-.272.114-.29.06q-.148.015-.304.003-.155-.012-.315-.052t-.323-.108-.329-.162-.33-.214-.33-.265-.325-.314-.318-.358-.307-.4-.294-.438-.278-.471-.258-.5-.238-.525-.213-.544-.188-.557-.16-.566-.13-.57-.1-.566-.07-.56-.037-.545-.005-.527.028-.504.06-.475.092-.442.122-.405.152-.364.18-.32.206-.27.23-.222.253-.168.272-.115.29-.06.304-.003.315.053.323.107.329.162.33.215.33.265.325.313.318.359.307.4.294.437.278.472.258.5.238.524.213.544.188.558"/><clipPath id="e"><path d="M52.272 42.42q.043.141.083.283t.077.284.069.284.061.285q.03.142.055.284t.046.283q.021.14.038.28.018.14.03.279.014.138.023.274.01.137.015.271.005.135.006.267.002.132-.001.26-.003.13-.01.256t-.018.248-.026.242-.034.233-.042.226-.05.217q-.026.106-.057.207-.03.101-.065.198-.034.096-.072.187-.038.09-.08.176-.041.086-.086.166t-.094.154-.1.142-.106.129-.112.117-.118.104-.124.091-.129.078-.134.064-.138.05-.143.037-.147.023-.15.008-.154-.005-.156-.02q-.079-.012-.159-.032t-.16-.047q-.081-.027-.163-.06-.082-.035-.164-.075t-.165-.088-.165-.1-.165-.114-.166-.127-.164-.139q-.082-.072-.163-.15-.082-.079-.162-.163t-.16-.174-.158-.184-.155-.195-.152-.205q-.076-.105-.15-.215-.073-.109-.144-.223-.072-.114-.141-.232-.07-.117-.137-.24-.067-.12-.132-.246-.064-.125-.126-.254-.062-.128-.122-.259t-.115-.265-.11-.27-.104-.274-.097-.277-.09-.28-.084-.283-.077-.283-.069-.285-.061-.285-.054-.284q-.026-.141-.047-.282t-.038-.281-.03-.278q-.014-.139-.023-.275-.01-.137-.015-.271t-.006-.266.001-.261q.003-.13.01-.255.007-.126.018-.249.011-.122.026-.241.015-.12.034-.234t.042-.226q.023-.11.05-.216.026-.106.057-.208.03-.101.065-.197.034-.096.072-.187.038-.092.08-.177.041-.086.086-.165t.094-.154.1-.142.106-.13q.054-.061.112-.117.058-.055.118-.104t.124-.09q.063-.043.129-.078t.134-.064.138-.05q.07-.023.143-.037.073-.015.147-.023t.15-.009.154.005q.077.007.156.02t.159.033.16.047.163.06.164.075.165.087.165.1q.083.055.166.115.082.06.165.126.082.066.164.139.082.072.163.15.082.079.162.163t.16.174.158.184q.078.096.155.196t.152.205.15.214q.073.11.144.223.072.114.141.232.07.118.137.24.067.121.132.246.064.126.126.254.063.128.122.26.06.13.116.264t.11.27q.053.136.103.274t.097.277.09.28"/></clipPath><g clip-path="url(#e)"><path fill="#eee" d="M52.272 42.42q.043.141.073.286.03.144.044.29.016.147.016.295.001.147-.012.294t-.042.291-.07.286-.098.278-.124.267-.15.253-.174.238-.197.219-.217.199-.235.176-.252.153-.265.128-.277.1-.285.073-.291.045-.294.016-.294-.013-.292-.041-.286-.07q-.14-.042-.277-.098t-.267-.124q-.13-.07-.254-.15-.123-.082-.237-.174-.114-.093-.22-.197-.104-.104-.198-.217t-.177-.235-.152-.252-.128-.266q-.057-.135-.1-.276t-.074-.285q-.03-.145-.044-.291-.016-.147-.016-.294-.001-.148.012-.294.014-.147.042-.292t.07-.286.098-.278.124-.266.15-.254.174-.237.197-.22.217-.198.235-.177.252-.153.265-.127.277-.1q.14-.044.285-.074t.291-.045.294-.016.294.013.292.042q.144.028.286.07.14.042.277.097.137.056.267.125.13.068.254.15.123.08.237.174t.22.196q.104.104.198.217.094.114.177.236t.152.252.128.265.1.277"/></g><path fill="none" stroke="#111" stroke-linecap="round" stroke-linejoin="round" stroke-width=".5" d="M3 0q0 .147-.014.294t-.044.291-.071.286q-.043.14-.1.277-.056.136-.125.266-.07.13-.152.253-.081.122-.175.236t-.198.218-.218.198-.236.175-.253.152q-.13.07-.266.126t-.277.099-.286.071q-.144.03-.29.044Q.146 3 0 3t-.294-.014q-.147-.015-.291-.044-.145-.028-.286-.071t-.277-.1-.266-.125-.253-.152-.236-.175q-.114-.093-.218-.198-.105-.104-.198-.218t-.175-.236-.152-.253-.126-.266-.098-.277-.071-.286-.044-.29Q-3 .146-3 0t.014-.294q.015-.147.044-.291.028-.145.071-.286t.1-.277.125-.266.152-.253.175-.236q.093-.114.198-.218.104-.105.218-.198t.236-.175.253-.152.266-.126.277-.099.286-.071q.144-.03.29-.044Q-.146-3 0-3t.294.014q.147.015.291.044.145.028.286.071t.277.1.266.125.253.152.236.175q.114.093.218.198.105.104.198.218t.175.236.152.253.126.266.099.277.071.286q.03.144.044.29Q3-.146 3 0" transform="rotate(-17.189 167.976 -141.795)scale(1 2)"/><path fill="#111" d="M65.646 38.283q.087.282.16.566.073.285.131.57.058.284.1.566.043.283.07.56.026.276.037.545t.004.527q-.006.259-.027.504-.022.245-.06.475t-.092.442-.122.405-.152.364-.18.32q-.097.147-.206.27-.11.124-.23.222-.122.097-.253.168-.132.071-.273.115-.14.043-.29.06-.148.015-.303.003t-.315-.053-.323-.107q-.164-.068-.33-.162-.164-.094-.33-.215-.165-.12-.33-.265-.163-.145-.325-.313-.16-.168-.317-.358t-.308-.4-.294-.438-.277-.471q-.134-.244-.259-.5-.124-.258-.237-.525-.113-.268-.213-.544t-.188-.558-.16-.566-.13-.569-.101-.567-.07-.559q-.026-.276-.036-.545-.01-.27-.005-.527.006-.259.028-.504t.06-.475.091-.443.123-.405q.068-.192.151-.363.084-.172.18-.32.097-.148.206-.27.11-.124.231-.222t.253-.169.272-.114.29-.06q.148-.015.303-.003t.315.052.324.108.328.162q.166.094.331.214.166.12.33.266.164.145.325.313t.318.358.307.4.294.438.278.471.258.5.237.525.214.544.187.557"/><clipPath id="f"><path d="M65.646 38.283q.044.141.084.283.04.141.076.283.037.143.07.285.032.142.061.285.03.142.054.284.025.141.047.282l.038.281q.017.14.03.278.014.139.023.275.01.137.015.271t.006.266-.002.261-.01.255-.017.249q-.011.122-.026.241-.015.12-.034.234t-.042.226q-.023.11-.05.216-.027.107-.057.208t-.065.197-.072.188-.08.176-.086.165q-.045.08-.094.154-.048.074-.1.142-.051.068-.106.13-.055.061-.112.117-.058.055-.119.104t-.123.09q-.064.043-.13.078-.065.036-.133.065-.068.028-.139.05-.07.022-.142.036-.073.015-.147.023t-.15.009-.154-.005q-.077-.006-.156-.02-.079-.013-.159-.032t-.16-.047-.163-.061-.164-.074-.165-.088-.165-.1-.166-.114-.165-.127-.164-.139-.164-.15-.162-.163-.16-.174-.157-.184-.155-.195-.153-.205q-.075-.105-.148-.215-.074-.11-.145-.223-.072-.114-.142-.232t-.136-.24-.132-.246-.127-.254-.121-.26-.116-.264-.11-.27-.103-.274-.097-.277-.09-.28-.084-.283-.077-.284-.069-.284-.062-.285-.054-.284-.046-.283-.039-.28-.03-.279-.023-.274-.014-.271q-.005-.135-.007-.267 0-.131.002-.26.003-.13.01-.256.007-.125.018-.248t.026-.242.034-.233.042-.226.05-.217q.026-.106.057-.207.03-.101.065-.197.034-.097.072-.188.038-.09.08-.176.041-.086.086-.166t.093-.153q.049-.075.1-.142.052-.068.106-.13.055-.062.113-.117t.118-.104.124-.091.129-.078.134-.064.138-.05.143-.037.147-.022.15-.01.153.006.157.02q.079.012.158.032.08.02.161.047t.163.061.164.074.165.088.165.1.165.114.165.127.165.139.163.15.162.163.16.174.158.184.155.195.152.205.149.215.145.223.141.232.136.24.132.246.127.254.121.26q.06.13.116.264t.11.27q.053.136.104.274t.097.277.09.28"/></clipPath><g clip-path="url(#f)"><path fill="#eee" d="M65.646 38.283q.044.141.073.286.03.144.045.29.015.147.016.294.001.148-.013.295-.013.146-.041.291t-.07.286-.098.278-.124.267q-.07.13-.15.253-.082.123-.174.237-.093.115-.197.22-.104.104-.217.198t-.235.177q-.123.083-.252.153-.13.07-.266.127-.135.057-.276.1t-.285.074q-.145.03-.291.045-.147.015-.294.016-.148 0-.294-.013-.147-.014-.292-.042t-.286-.07-.278-.097-.266-.125q-.13-.068-.254-.15-.123-.08-.237-.174-.115-.093-.22-.196-.104-.104-.198-.217-.094-.114-.177-.236t-.153-.251-.127-.266-.1-.277-.074-.285-.045-.29q-.015-.147-.016-.295 0-.147.013-.294.014-.147.042-.291.028-.145.07-.286t.097-.278.125-.267.15-.253.174-.238.196-.219q.104-.105.217-.199.114-.094.236-.176.122-.083.252-.153t.265-.127.277-.101.285-.073.29-.045.295-.016.294.013.291.041.286.07.278.098.267.124q.13.07.253.15.123.082.238.174.114.093.219.197t.199.217.176.236.153.251.128.266.1.276"/></g><path fill="none" stroke="#111" stroke-linecap="round" stroke-linejoin="round" stroke-width=".5" d="M3 0q0 .147-.014.294t-.044.291-.071.286q-.043.14-.1.277-.056.136-.125.266-.07.13-.152.253-.081.122-.175.236t-.198.218-.218.198-.236.175-.253.152q-.13.07-.266.126t-.277.099-.286.071q-.144.03-.29.044Q.146 3 0 3t-.294-.014q-.147-.015-.291-.044-.145-.028-.286-.071t-.277-.1-.266-.125-.253-.152-.236-.175q-.114-.093-.218-.198-.105-.104-.198-.218t-.175-.236-.152-.253-.126-.266-.098-.277-.071-.286-.044-.29Q-3 .146-3 0t.014-.294q.015-.147.044-.291.028-.145.071-.286t.1-.277.125-.266.152-.253.175-.236q.093-.114.198-.218.104-.105.218-.198t.236-.175.253-.152.266-.126.277-.099.286-.071q.144-.03.29-.044Q-.146-3 0-3t.294.014q.147.015.291.044.145.028.286.071t.277.1.266.125.253.152.236.175q.114.093.218.198.105.104.198.218t.175.236.152.253.126.266.099.277.071.286q.03.144.044.29Q3-.146 3 0" transform="rotate(-17.189 160.976 -188.11)scale(1 2)"/><path fill="none" stroke="#111" stroke-linecap="round" stroke-linejoin="round" stroke-width="1.5" d="M54.794 57.342q4.55-5.595 11.464-3.547"/></g><path fill="none" stroke="#000" stroke-linecap="round" stroke-linejoin="round" stroke-width="2.4" d="M23.53 84.338q.66 0 1.09-.108.43-.112.688-.302.264-.19.361-.45.103-.263.103-.58 0-.684-.645-1.133-.64-.45-2.197-.967-.678-.244-1.362-.552-.679-.312-1.22-.781-.538-.469-.88-1.138-.337-.669-.337-1.63 0-.963.357-1.73.361-.77 1.02-1.308.66-.542 1.602-.83.942-.293 2.12-.293 1.4 0 2.421.303 1.02.298 1.68.659l-.899 2.456q-.58-.298-1.294-.527-.708-.23-1.709-.23-1.118 0-1.611.313-.488.307-.488.947 0 .38.18.64.181.258.508.468.332.21.762.381t.952.352q1.08.4 1.875.79.8.387 1.333.909.532.517.791 1.22.259.699.259 1.7 0 1.938-1.363 3.008-1.357 1.069-4.096 1.069-.923 0-1.665-.112-.737-.108-1.309-.264-.566-.161-.976-.342-.41-.18-.689-.341l.88-2.481q.62.342 1.527.615.909.269 2.232.269m14.4-2.803q0-1.377-.62-2.207t-1.841-.83q-.4 0-.742.03-.337.028-.557.068v5.38q.278.181.727.303.455.117.913.117 2.12 0 2.12-2.861m3.042-.078q0 1.22-.303 2.222-.298.996-.879 1.718-.581.718-1.44 1.118-.86.4-1.978.4-.62 0-1.162-.121-.542-.117-1.04-.337v3.96H31.19V76.555q.4-.118.918-.225.523-.112 1.09-.19.57-.084 1.161-.132.591-.054 1.128-.054 1.304 0 2.32.39 1.02.391 1.718 1.104.703.708 1.075 1.729.37 1.02.37 2.28m6.499 5.459q-1.3-.02-2.11-.278-.81-.264-1.284-.733-.469-.469-.64-1.137-.166-.674-.166-1.514V71.677l2.979-.479v11.46q0 .396.058.718.064.322.23.542.17.22.488.361.322.137.864.176zm5.099-.2H49.59V76.198h2.979zm.278-13.56q0 .82-.532 1.29-.527.468-1.245.468-.723 0-1.255-.469-.527-.469-.527-1.289t.527-1.289q.532-.474 1.255-.474.718 0 1.245.474.532.469.532 1.29m2.42.42 2.984-.478v3.1h3.58v2.476h-3.58v3.7q0 .943.327 1.505.332.556 1.333.556.479 0 .987-.087.512-.093.932-.254l.42 2.324q-.542.22-1.201.376-.66.161-1.621.161-1.22 0-2.022-.327-.795-.332-1.279-.923-.478-.59-.669-1.43-.19-.84-.19-1.861zm8.88 0 2.984-.478v3.1h3.58v2.476h-3.58v3.7q0 .943.327 1.505.332.556 1.333.556.479 0 .987-.087.512-.093.932-.254l.42 2.324q-.542.22-1.201.376-.66.161-1.621.161-1.22 0-2.021-.327-.796-.332-1.28-.923-.478-.59-.669-1.43-.19-.84-.19-1.861zm8.48 7.959q0-1.401.43-2.451t1.128-1.748q.703-.698 1.611-1.06.913-.361 1.875-.361 2.237 0 3.536 1.372 1.303 1.367 1.303 4.028 0 .26-.02.572-.019.307-.043.547H75.69q.098.922.86 1.464.761.537 2.04.537.82 0 1.607-.146.79-.151 1.294-.371l.4 2.417q-.24.122-.64.244-.4.117-.893.205-.488.093-1.05.151-.557.059-1.118.059-1.421 0-2.47-.42t-1.744-1.147q-.688-.733-1.02-1.729-.328-1-.328-2.163m7.002-1.138q-.02-.38-.131-.742-.108-.361-.337-.64-.23-.278-.582-.459-.351-.18-.869-.18-.502 0-.864.17-.356.172-.596.45-.239.278-.37.65-.132.37-.191.751zm11.52-1.562q-.401-.098-.943-.205-.537-.112-1.157-.112-.279 0-.67.048-.39.05-.59.108v8.042h-2.98v-9.961q.801-.279 1.89-.528 1.089-.254 2.427-.254.244 0 .58.035.343.029.68.078.341.049.678.122.342.068.586.166z"/><path fill="#fff" d="M23.53 84.338q.66 0 1.09-.108.43-.112.688-.302.264-.19.361-.45.103-.263.103-.58 0-.684-.645-1.133-.64-.45-2.197-.967-.678-.244-1.362-.552-.679-.312-1.22-.781-.538-.469-.88-1.138-.337-.669-.337-1.63 0-.963.357-1.73.361-.77 1.02-1.308.66-.542 1.602-.83.942-.293 2.12-.293 1.4 0 2.421.303 1.02.298 1.68.659l-.899 2.456q-.58-.298-1.294-.527-.708-.23-1.709-.23-1.118 0-1.611.313-.488.307-.488.947 0 .38.18.64.181.258.508.468.332.21.762.381t.952.352q1.08.4 1.875.79.8.387 1.333.909.532.517.791 1.22.259.699.259 1.7 0 1.938-1.363 3.008-1.357 1.069-4.096 1.069-.923 0-1.665-.112-.737-.108-1.309-.264-.566-.161-.976-.342-.41-.18-.689-.341l.88-2.481q.62.342 1.527.615.909.269 2.232.269m14.4-2.803q0-1.377-.62-2.207t-1.841-.83q-.4 0-.742.03-.337.028-.557.068v5.38q.278.181.727.303.455.117.913.117 2.12 0 2.12-2.861m3.042-.078q0 1.22-.303 2.222-.298.996-.879 1.718-.581.718-1.44 1.118-.86.4-1.978.4-.62 0-1.162-.121-.542-.117-1.04-.337v3.96H31.19V76.555q.4-.118.918-.225.523-.112 1.09-.19.57-.084 1.161-.132.591-.054 1.128-.054 1.304 0 2.32.39 1.02.391 1.718 1.104.703.708 1.075 1.729.37 1.02.37 2.28m6.499 5.459q-1.3-.02-2.11-.278-.81-.264-1.284-.733-.469-.469-.64-1.137-.166-.674-.166-1.514V71.677l2.979-.479v11.46q0 .396.058.718.064.322.23.542.17.22.488.361.322.137.864.176zm5.099-.2H49.59V76.198h2.979zm.278-13.56q0 .82-.532 1.29-.527.468-1.245.468-.723 0-1.255-.469-.527-.469-.527-1.289t.527-1.289q.532-.474 1.255-.474.718 0 1.245.474.532.469.532 1.29m2.42.42 2.984-.478v3.1h3.58v2.476h-3.58v3.7q0 .943.327 1.505.332.556 1.333.556.479 0 .987-.087.512-.093.932-.254l.42 2.324q-.542.22-1.201.376-.66.161-1.621.161-1.22 0-2.022-.327-.795-.332-1.279-.923-.478-.59-.669-1.43-.19-.84-.19-1.861zm8.88 0 2.984-.478v3.1h3.58v2.476h-3.58v3.7q0 .943.327 1.505.332.556 1.333.556.479 0 .987-.087.512-.093.932-.254l.42 2.324q-.542.22-1.201.376-.66.161-1.621.161-1.22 0-2.021-.327-.796-.332-1.28-.923-.478-.59-.669-1.43-.19-.84-.19-1.861zm8.48 7.959q0-1.401.43-2.451t1.128-1.748q.703-.698 1.611-1.06.913-.361 1.875-.361 2.237 0 3.536 1.372 1.303 1.367 1.303 4.028 0 .26-.02.572-.019.307-.043.547H75.69q.098.922.86 1.464.761.537 2.04.537.82 0 1.607-.146.79-.151 1.294-.371l.4 2.417q-.24.122-.64.244-.4.117-.893.205-.488.093-1.05.151-.557.059-1.118.059-1.421 0-2.47-.42t-1.744-1.147q-.688-.733-1.02-1.729-.328-1-.328-2.163m7.002-1.138q-.02-.38-.131-.742-.108-.361-.337-.64-.23-.278-.582-.459-.351-.18-.869-.18-.502 0-.864.17-.356.172-.596.45-.239.278-.37.65-.132.37-.191.751zm11.52-1.562q-.401-.098-.943-.205-.537-.112-1.157-.112-.279 0-.67.048-.39.05-.59.108v8.042h-2.98v-9.961q.801-.279 1.89-.528 1.089-.254 2.427-.254.244 0 .58.035.343.029.68.078.341.049.678.122.342.068.586.166z"/></svg>