<svg xmlns="http://www.w3.org/2000/svg" viewBox="0 0 110 110"><path fill="#f5d9b5" d="M47.756 60.98c-2.002-.157-3.84-.692-5.494-1.735-2.219-1.394-3.775-3.315-4.64-5.798a9.1 9.1 0 0 1-.467-2.79c-.014-.551-.016-1.11.053-1.664.157-1.289.534-2.499 1.36-3.539.754-.942 1.723-1.547 2.832-1.988 1.19-.475 2.437-.699 3.704-.816 1.119-.107 2.238-.215 3.345-.501 1.007-.256 1.937-.632 2.752-1.292.539-.43.984-.954 1.386-1.518.463-.654.878-1.328 1.294-2.002.677-1.114 1.483-2.107 2.52-2.925 1.313-1.047 2.79-1.656 4.483-1.742 1.33-.072 2.58.211 3.788.743 1.33.59 2.52 1.387 3.52 2.442 1.487 1.575 2.307 3.46 2.52 5.615q.115 1.173-.018 2.354a14.2 14.2 0 0 1-1.17 4.18c-.91 2.045-2.224 3.806-3.766 5.424a25 25 0 0 1-4.286 3.583c-2.369 1.572-4.921 2.753-7.695 3.43a19 19 0 0 1-4.199.574c-.614.021-1.22.003-1.782-.027z"/><path fill="#675633" fill-rule="evenodd" d="M43.787 42.818q.654-.108 1.317-.168c1.119-.107 2.238-.215 3.345-.501 1.007-.256 1.937-.632 2.752-1.292.539-.43.984-.954 1.386-1.518.463-.654.878-1.328 1.294-2.002.375-.617.789-1.196 1.26-1.73q.964.751 1.624 1.78.095.147.182.299.088.152.168.308t.151.316.137.323.12.33q.056.165.104.334t.087.34.07.343.054.347.037.348.02.35q.005.176.001.35-.003.176-.015.351-.011.175-.032.35-.02.173-.049.346t-.066.345q-.038.171-.083.34-.046.17-.1.336-.054.167-.116.331t-.132.325-.148.318-.163.31-.179.302-.193.293-.207.283-.22.272-.234.261-.246.25-.259.237-.27.224-.28.21-.29.197-.3.182-.308.167-.316.152-.323.136-.329.12q-.166.057-.335.105t-.34.087-.343.07-.346.054-.349.037-.35.019-.35.002-.35-.015q-.176-.012-.35-.032t-.347-.05q-.173-.028-.344-.065-.172-.038-.341-.083t-.336-.1-.33-.116q-.165-.062-.326-.132-.16-.07-.318-.148-.157-.078-.31-.164-.153-.085-.302-.178-.148-.093-.292-.193t-.283-.207-.273-.22q-.133-.114-.26-.234-.129-.12-.25-.247-.122-.126-.237-.258-.116-.132-.225-.27-.108-.137-.21-.28t-.197-.29q-.68-1.06-.957-2.287"/><path fill="#fff0e3" fill-rule="evenodd" d="M45.933 42.568c.842-.09 1.683-.204 2.516-.419 1.007-.256 1.937-.632 2.752-1.292.539-.43.984-.954 1.386-1.518a37 37 0 0 0 1.291-1.998q.64.513 1.084 1.203.133.207.245.425.111.22.201.448t.157.465q.067.236.11.478.044.242.064.486.02.245.015.49-.005.246-.033.49-.029.244-.08.484-.053.24-.129.474-.075.234-.174.459t-.217.44-.26.416-.3.389-.336.357-.37.323-.399.285q-.206.133-.425.244-.219.112-.447.202-.23.09-.465.157-.237.067-.478.11-.242.044-.487.064t-.49.015q-.246-.005-.49-.033-.244-.029-.484-.081t-.474-.128-.459-.174-.44-.218-.415-.26-.39-.299q-.186-.16-.357-.336t-.323-.37q-.152-.192-.285-.399-.412-.643-.614-1.38"/><path fill="#c6b093" d="M47.616 62.76q-3.571-.28-6.306-2.005-3.883-2.438-5.374-6.721-.53-1.55-.566-3.341-.03-1.153.066-1.92.322-2.653 1.734-4.43 1.31-1.639 3.571-2.536 1.781-.712 4.198-.935h-.006q2.098-.201 3.069-.452 1.312-.334 2.077-.952.518-.414 1.054-1.166.426-.602 1.228-1.903 1.255-2.064 2.933-3.389 2.471-1.97 5.5-2.123 2.29-.125 4.598.892 2.41 1.07 4.096 2.848 2.616 2.77 3 6.668.135 1.36-.02 2.729-.286 2.426-1.315 4.713-1.352 3.036-4.102 5.922-2.046 2.15-4.591 3.84-3.958 2.627-8.26 3.677-2.322.575-4.583.624-.824.029-1.915-.028-.145-.008-.287-.039l-.04-.008.381-1.745zm.28-3.56q.122.01.24.035l.04.009-.38 1.744.093-1.783q.936.05 1.65.025 1.865-.04 3.814-.523 3.694-.903 7.131-3.183 2.21-1.468 3.981-3.328 2.324-2.44 3.431-4.925.804-1.785 1.024-3.648.112-.992.014-1.978-.265-2.683-2.038-4.562-1.194-1.26-2.944-2.036-1.526-.672-2.977-.593-1.882.095-3.468 1.36-1.173.926-2.106 2.46-.861 1.397-1.36 2.102-.825 1.156-1.717 1.87-1.372 1.109-3.428 1.632-1.243.321-3.622.55h-.006q-1.902.176-3.209.698-1.38.548-2.093 1.44-.784.986-.986 2.648-.063.502-.04 1.407.025 1.234.369 2.239 1.08 3.1 3.905 4.874 1.99 1.254 4.682 1.466"/><path fill="none" stroke="#000" stroke-linecap="round" stroke-linejoin="round" stroke-width="2.4" d="M37.24 86.896q-1.142 0-2.27-.073-1.128-.068-2.348-.327V73.054q.957-.176 2.094-.264 1.143-.093 2.124-.093 1.319 0 2.427.19 1.113.191 1.914.65t1.25 1.21q.45.748.45 1.847 0 1.66-1.602 2.622 1.323.498 1.801 1.362.48.86.48 1.939 0 2.177-1.593 3.28-1.587 1.1-4.726 1.1m-1.581-6.22v3.579q.341.039.742.063.4.02.879.02 1.401 0 2.26-.4.86-.401.86-1.48 0-.962-.723-1.372-.718-.41-2.055-.41zm0-2.378h1.523q1.436 0 2.056-.371t.62-1.192q0-.84-.64-1.176-.64-.342-1.88-.342-.4 0-.859.01t-.82.048zm9.7 3.237q0-1.401.43-2.451.429-1.05 1.127-1.748.703-.698 1.611-1.06.913-.361 1.875-.361 2.237 0 3.535 1.372 1.304 1.367 1.304 4.028 0 .26-.02.572-.019.307-.043.547H48.42q.098.922.86 1.464.761.537 2.04.537.82 0 1.607-.146.79-.151 1.294-.371l.4 2.417q-.24.122-.64.244-.4.117-.893.205-.488.093-1.05.151-.556.059-1.118.059-1.421 0-2.47-.42t-1.744-1.147q-.688-.733-1.02-1.729-.328-1-.328-2.163m7.001-1.138q-.02-.38-.132-.742-.107-.361-.336-.64-.23-.278-.581-.459-.352-.18-.87-.18-.502 0-.864.17-.356.172-.596.45-.239.278-.37.65-.133.37-.191.751zm9.2 4.239q.44 0 .84-.02t.64-.058v-2.261q-.181-.04-.543-.078-.356-.044-.659-.044-.42 0-.79.053-.367.05-.65.19-.279.138-.44.377-.156.24-.156.6 0 .699.469.972.469.269 1.289.269m-.24-8.721q1.319 0 2.198.303.884.297 1.411.859.532.557.752 1.358.22.8.22 1.782v6.2q-.64.138-1.782.328-1.138.19-2.76.19-1.02 0-1.85-.18t-1.43-.591-.923-1.07q-.318-.659-.318-1.62 0-.918.371-1.558t.991-1.02q.62-.382 1.421-.547.801-.171 1.66-.171.577 0 1.026.048.454.05.732.127v-.278q0-.762-.459-1.22-.459-.46-1.601-.46-.757 0-1.5.113-.741.107-1.279.307l-.38-2.397q.258-.083.65-.171.39-.093.849-.161t.966-.117q.513-.054 1.036-.054m7.281.64q.757-.22 1.958-.41 1.201-.191 2.52-.191 1.343 0 2.231.352.889.351 1.407.99.522.64.742 1.52.22.878.22 1.957v5.943H74.7v-5.581q0-1.44-.38-2.037-.382-.6-1.422-.6-.317 0-.678.03-.362.028-.64.068v8.12H68.6z"/><path fill="#fff" d="M37.24 86.896q-1.142 0-2.27-.073-1.128-.068-2.348-.327V73.054q.957-.176 2.094-.264 1.143-.093 2.124-.093 1.319 0 2.427.19 1.113.191 1.914.65t1.25 1.21q.45.748.45 1.847 0 1.66-1.602 2.622 1.323.498 1.801 1.362.48.86.48 1.939 0 2.177-1.593 3.28-1.587 1.1-4.726 1.1m-1.581-6.22v3.579q.341.039.742.063.4.02.879.02 1.401 0 2.26-.4.86-.401.86-1.48 0-.962-.723-1.372-.718-.41-2.055-.41zm0-2.378h1.523q1.436 0 2.056-.371t.62-1.192q0-.84-.64-1.176-.64-.342-1.88-.342-.4 0-.859.01t-.82.048zm9.7 3.237q0-1.401.43-2.451.429-1.05 1.127-1.748.703-.698 1.611-1.06.913-.361 1.875-.361 2.237 0 3.535 1.372 1.304 1.367 1.304 4.028 0 .26-.02.572-.019.307-.043.547H48.42q.098.922.86 1.464.761.537 2.04.537.82 0 1.607-.146.79-.151 1.294-.371l.4 2.417q-.24.122-.64.244-.4.117-.893.205-.488.093-1.05.151-.556.059-1.118.059-1.421 0-2.47-.42t-1.744-1.147q-.688-.733-1.02-1.729-.328-1-.328-2.163m7.001-1.138q-.02-.38-.132-.742-.107-.361-.336-.64-.23-.278-.581-.459-.352-.18-.87-.18-.502 0-.864.17-.356.172-.596.45-.239.278-.37.65-.133.37-.191.751zm9.2 4.239q.44 0 .84-.02t.64-.058v-2.261q-.181-.04-.543-.078-.356-.044-.659-.044-.42 0-.79.053-.367.05-.65.19-.279.138-.44.377-.156.24-.156.6 0 .699.469.972.469.269 1.289.269m-.24-8.721q1.319 0 2.198.303.884.297 1.411.859.532.557.752 1.358.22.8.22 1.782v6.2q-.64.138-1.782.328-1.138.19-2.76.19-1.02 0-1.85-.18t-1.43-.591-.923-1.07q-.318-.659-.318-1.62 0-.918.371-1.558t.991-1.02q.62-.382 1.421-.547.801-.171 1.66-.171.577 0 1.026.048.454.05.732.127v-.278q0-.762-.459-1.22-.459-.46-1.601-.46-.757 0-1.5.113-.741.107-1.279.307l-.38-2.397q.258-.083.65-.171.39-.093.849-.161t.966-.117q.513-.054 1.036-.054m7.281.64q.757-.22 1.958-.41 1.201-.191 2.52-.191 1.343 0 2.231.352.889.351 1.407.99.522.64.742 1.52.22.878.22 1.957v5.943H74.7v-5.581q0-1.44-.38-2.037-.382-.6-1.422-.6-.317 0-.678.03-.362.028-.64.068v8.12H68.6z"/></svg>