<svg xmlns="http://www.w3.org/2000/svg" viewBox="0 0 110 110"><path fill-opacity=".2" d="M76.429 47.857q0 .526-.026 1.052-.026.525-.078 1.048-.051.524-.128 1.044t-.18 1.037-.23 1.026-.281 1.013-.33 1-.379.98-.426.962-.473.94q-.248.463-.518.915-.27.45-.563.888t-.605.86q-.314.423-.647.83-.334.406-.687.796t-.726.761-.761.726-.797.687-.829.647q-.423.313-.86.605-.437.293-.888.563-.452.27-.916.518t-.94.473-.96.427q-.487.2-.982.378-.495.177-.999.33-.503.153-1.013.28t-1.026.231-1.037.18-1.044.128-1.049.078-1.051.026-1.051-.026-1.05-.078-1.043-.128-1.037-.18-1.026-.23-1.013-.281-1-.33q-.494-.177-.98-.378-.486-.202-.962-.427-.475-.225-.94-.473-.463-.248-.915-.518-.45-.27-.888-.563-.437-.292-.86-.605-.423-.314-.83-.647-.406-.334-.796-.687t-.761-.726-.726-.761-.687-.797-.647-.829q-.313-.422-.605-.86-.292-.437-.563-.888-.27-.452-.518-.916-.248-.463-.473-.939t-.426-.962-.379-.98-.33-1-.28-1.013q-.128-.51-.23-1.026T33.803 51t-.13-1.044-.077-1.048-.026-1.052.026-1.051.078-1.05.128-1.043q.078-.52.18-1.036.103-.516.23-1.027.128-.51.281-1.013.153-.504.33-.999t.379-.981q.2-.486.426-.962.225-.475.473-.94.248-.463.518-.914.27-.452.563-.889t.605-.86q.314-.422.647-.829.334-.407.687-.796t.726-.762.761-.725q.39-.354.797-.687.406-.334.829-.647.423-.314.86-.606t.888-.563.916-.518.94-.473.96-.426q.487-.202.982-.379t.999-.33q.503-.152 1.013-.28t1.026-.23q.516-.103 1.037-.18.52-.078 1.044-.13.523-.05 1.049-.077.525-.025 1.051-.025t1.051.025q.526.026 1.05.078.523.051 1.043.128t1.037.18 1.026.23 1.013.281 1 .33q.494.177.98.379.486.2.962.426.475.225.94.473.463.248.915.518.45.27.888.563.437.292.86.606.423.313.83.647.406.333.796.687.39.353.761.725.372.372.726.762.353.39.687.796.333.407.647.83.313.422.605.859t.563.889.518.915.473.94.426.96.379.982.33.999q.153.503.28 1.013t.23 1.027.18 1.036q.078.52.13 1.044.05.523.077 1.049t.026 1.051"/><path fill="#ffdc06" d="m49.598 18.938-3.536 6.7-6.58-3.317 3.634 10.804c3.045-.688 7.552-.884 11.884-.884s8.84.196 11.884.884l3.634-10.804-6.58 3.316-3.536-6.699L55 24.973z"/><path fill="#ccb005" d="m50.293 19.305-3.536 6.699q-.035.067-.083.127t-.107.109-.126.086-.14.06-.148.032-.152.002-.15-.026-.142-.055l-6.58-3.316.353-.702.745-.25 3.634 10.804-.745.25-.173-.766q4-.904 12.057-.904t12.057.904l-.173.766-.745-.25 3.634-10.804.745.25.353.702-6.58 3.316q-.068.034-.142.055t-.15.026-.152-.002q-.076-.01-.149-.032-.072-.024-.14-.06-.066-.037-.125-.086-.059-.05-.107-.109-.048-.06-.083-.127l-3.536-6.7.695-.366.585.524-5.402 6.035q-.051.058-.113.104-.062.047-.132.08-.07.034-.144.053-.075.02-.153.024-.077.004-.154-.007-.076-.01-.15-.036-.072-.026-.139-.065-.066-.04-.124-.091-.032-.03-.061-.062l-5.402-6.035.585-.524zm-1.39-.734q.066-.124.171-.218.058-.052.124-.091.067-.04.14-.065t.15-.037q.076-.01.154-.006.077.004.152.023.075.02.145.053.07.034.131.08.062.046.114.104l5.401 6.035-.585.524-.585-.524 5.401-6.035q.094-.105.219-.17.068-.037.143-.059t.15-.03q.078-.006.155.002t.15.03q.075.023.143.06t.127.086.109.11.085.128l3.535 6.7-.695.366-.353-.702 6.58-3.315q.14-.071.298-.082t.306.039q.074.024.14.063.068.038.126.09.059.05.106.111.047.062.082.13.034.07.054.145t.026.152-.005.154-.034.15l-3.634 10.803q-.023.069-.059.132t-.08.12q-.047.055-.103.101t-.118.082-.132.059-.14.033q-.071.01-.143.008-.073-.003-.143-.019-3.83-.864-11.711-.864t-11.71.864q-.071.016-.144.02-.072.002-.143-.009-.072-.01-.14-.033-.069-.024-.132-.06t-.119-.08q-.055-.047-.101-.103t-.081-.119-.059-.132l-3.634-10.803q-.05-.15-.039-.306.012-.158.082-.298.035-.07.083-.13.048-.061.106-.112.059-.05.126-.088t.141-.063.15-.033.154-.004.152.026.144.056l6.58 3.315-.354.702-.694-.367z"/><path fill="red" d="M43.509 29.293q0 .077-.008.154-.007.077-.022.153-.015.075-.038.15-.022.073-.052.144-.03.072-.066.14t-.079.132-.092.124-.103.114-.115.104-.124.092-.132.079-.14.066q-.07.03-.144.052t-.15.037-.153.023-.154.007-.154-.007q-.076-.008-.152-.023t-.15-.037-.145-.052-.14-.066q-.067-.036-.132-.08-.064-.042-.123-.091-.06-.05-.115-.104-.054-.054-.103-.114-.05-.06-.092-.124-.043-.064-.08-.132-.036-.068-.065-.14-.03-.07-.052-.145-.023-.074-.038-.15-.015-.075-.022-.152-.008-.077-.008-.154t.008-.154.022-.153.038-.15q.022-.073.052-.144.03-.072.066-.14t.079-.132.092-.124.103-.114.115-.104.123-.091.133-.08.14-.066q.07-.03.144-.052t.15-.037.152-.023.154-.007.154.007q.077.008.153.023t.15.037.145.052.14.066q.067.037.131.08.065.042.124.091.06.05.115.104.054.055.103.114.05.06.092.124.043.064.08.132.036.068.065.14.03.071.052.145.023.074.038.15.015.075.022.152.008.077.008.154m8.521-1.417q0 .078-.008.154-.007.077-.022.153t-.038.15q-.022.073-.052.145-.03.071-.066.14-.036.067-.079.131-.043.065-.092.124-.049.06-.103.115-.055.054-.115.103-.06.05-.123.092-.065.043-.133.08-.068.036-.14.065-.07.03-.144.052-.074.023-.15.038t-.152.022-.154.008-.154-.008-.153-.022-.15-.038-.145-.052-.14-.066q-.067-.036-.131-.079-.065-.043-.124-.092-.06-.049-.115-.103-.054-.055-.103-.115-.05-.06-.092-.124-.043-.064-.08-.132-.036-.068-.065-.14-.03-.07-.052-.144-.023-.074-.038-.15t-.022-.153-.008-.154.008-.154.022-.152.038-.15.052-.145.066-.14q.036-.067.079-.132.043-.064.092-.123.049-.06.103-.115.055-.054.115-.103.06-.05.124-.092.064-.043.132-.08.068-.036.14-.065.07-.03.144-.052.074-.023.15-.038t.153-.022.154-.008.154.008.152.022.15.038.145.052.14.066q.067.036.132.079.064.043.123.092.06.049.115.103.054.055.103.115.05.06.092.123.043.065.08.133.036.068.065.139t.052.145.038.15.022.152.008.154m14.461 1.416q0 .078.008.154.007.077.022.153t.038.15q.022.073.052.145.03.07.066.14.036.067.079.131t.092.124.103.114q.055.055.115.104t.123.092.133.08.14.065q.07.03.144.052t.15.038q.076.015.152.022.077.008.154.008.078 0 .154-.008.077-.007.153-.022.076-.016.15-.038t.145-.052.14-.066.131-.08q.065-.042.124-.091.06-.049.115-.104.054-.054.103-.114.05-.06.092-.124.043-.064.08-.132.036-.068.065-.14.03-.07.052-.145.023-.073.038-.15.015-.075.022-.152.008-.076.008-.154 0-.077-.008-.154-.007-.077-.022-.152-.015-.076-.038-.15-.022-.074-.052-.145t-.066-.14-.079-.132-.092-.124-.103-.114-.115-.103-.124-.092-.132-.08-.14-.066q-.07-.03-.144-.051-.074-.023-.15-.038t-.153-.023q-.076-.007-.154-.007-.077 0-.154.007-.076.008-.152.023t-.15.038-.145.051q-.071.03-.14.066-.067.037-.132.08-.064.043-.123.092-.06.049-.115.103-.054.055-.103.114-.05.06-.092.124-.043.064-.08.133-.036.068-.065.139t-.052.145-.038.15-.022.152-.008.154m-8.521-1.416q0 .078.008.154.007.077.022.153t.038.15q.022.073.052.145.03.071.066.14.036.067.079.131.043.065.092.124.049.06.103.115.055.054.114.103.06.05.124.092.065.043.133.08.068.036.139.065t.145.052.15.038.152.022.154.008.154-.008.153-.022.15-.038.145-.052.14-.066q.067-.036.131-.079.065-.043.124-.092.06-.049.115-.103.054-.055.103-.115.05-.06.092-.124.043-.064.08-.132.036-.068.065-.14.03-.07.052-.144.023-.074.038-.15t.022-.153.008-.154-.008-.154-.022-.152-.038-.15-.052-.145-.066-.14q-.036-.067-.079-.132-.043-.064-.092-.123-.049-.06-.103-.115-.055-.054-.115-.103-.06-.05-.124-.092-.064-.043-.132-.08-.068-.036-.14-.065-.07-.03-.144-.052-.074-.023-.15-.038t-.153-.022-.154-.008-.154.008-.152.022-.15.038-.145.052-.14.066q-.067.036-.132.079-.064.043-.124.092t-.114.103-.103.115-.092.123-.08.133-.065.139-.052.145-.038.15-.022.152-.008.154"/><path fill="#c00" d="M44.033 29.293q0 .868-.614 1.482t-1.482.614-1.481-.614-.614-1.482q0-2.095 2.095-2.095t2.096 2.095q0 .052-.01.102-.01.051-.03.099-.02.047-.048.09-.029.043-.066.08-.036.036-.079.065t-.09.048-.099.03-.102.01-.102-.01-.099-.03-.09-.048q-.043-.029-.08-.065-.036-.037-.065-.08t-.048-.09-.03-.099-.01-.102q0-.434-.307-.74-.307-.307-.74-.307-.434 0-.741.306-.307.307-.307.741t.307.74.74.307.741-.306.307-.74q0-.053.01-.103t.03-.099q.02-.047.048-.09.029-.043.065-.08.037-.036.08-.065.043-.028.09-.048.048-.02.099-.03.05-.01.102-.01t.102.01.098.03.091.048.08.066.065.079.048.09.03.099.01.102m8.521-1.417q0 .868-.614 1.482-.613.614-1.481.614t-1.482-.614-.614-1.482q0-2.095 2.096-2.095t2.095 2.095q0 .052-.01.103t-.03.098-.048.09q-.029.044-.065.08t-.08.065-.09.049q-.048.02-.099.03-.05.01-.102.01t-.102-.01-.099-.03q-.047-.02-.09-.049-.043-.028-.08-.065-.036-.036-.065-.08-.028-.042-.048-.09t-.03-.098-.01-.103q0-.433-.307-.74t-.74-.307q-1.048 0-1.048 1.047 0 1.048 1.048 1.048 1.047 0 1.047-1.048 0-.051.01-.102t.03-.098.048-.09.065-.08.08-.065.09-.049.099-.03.102-.01.102.01.098.03.091.049.08.065.065.08q.028.042.048.09t.03.098.01.102m14.461 1.416q0 .434.307.74.307.308.74.308 1.048 0 1.048-1.048 0-.434-.307-.74-.307-.307-.74-.307-.434 0-.741.307-.307.306-.307.74 0 .052-.01.103t-.03.098-.048.09-.065.08-.08.065-.09.048-.099.03-.102.01-.102-.01-.099-.03-.09-.048q-.043-.029-.08-.065-.036-.037-.065-.08-.028-.043-.048-.09-.02-.048-.03-.098t-.01-.103q0-2.095 2.095-2.095.868 0 1.482.614.614.613.614 1.481t-.614 1.482-1.482.614-1.481-.614-.614-1.482q0-.051.01-.102t.03-.098.048-.09.065-.08.08-.065q.043-.03.09-.049.048-.02.099-.03.05-.01.102-.01t.102.01.099.03q.047.02.09.049.043.028.08.065.036.036.065.08.028.042.048.09t.03.098.01.102m-8.521-1.416q0 .434.307.741t.74.307q1.048 0 1.048-1.048 0-.433-.307-.74t-.74-.307-.741.307-.307.74q0 .052-.01.103t-.03.098-.048.09q-.029.044-.065.08t-.08.065-.09.049q-.048.02-.099.03-.05.01-.102.01t-.102-.01-.099-.03q-.047-.02-.09-.049-.043-.028-.08-.065-.036-.036-.065-.08-.028-.042-.048-.09t-.03-.098-.01-.103q0-2.095 2.095-2.095t2.096 2.095q0 .868-.614 1.482t-1.482.614-1.481-.614-.614-1.482q0-.051.01-.102t.03-.098.048-.09.065-.08.08-.065.09-.049.099-.03.102-.01.102.01.098.03.091.049.08.065.065.08q.028.042.048.09t.03.098.01.102"/><path fill="none" stroke="#000" stroke-linecap="round" stroke-linejoin="round" stroke-width="2.4" d="M32.42 86.994q-3.379 0-5.151-1.88-1.768-1.88-1.768-5.337 0-1.723.537-3.071.542-1.353 1.48-2.28.942-.928 2.24-1.407 1.3-.483 2.823-.483.879 0 1.597.132.722.127 1.26.298.541.17.903.351.361.18.517.279l-.898 2.52q-.64-.343-1.49-.582-.849-.24-1.928-.24-.723 0-1.411.24t-1.22.772-.855 1.372q-.318.84-.318 2.036 0 .962.21 1.792t.679 1.43q.474.601 1.23.953.762.346 1.841.346.684 0 1.22-.078.543-.083.963-.19.42-.113.737-.25.322-.14.581-.263l.86 2.5q-.66.4-1.86.723-1.197.317-2.78.317m12.78-8.16q-.401-.097-.943-.204-.537-.112-1.157-.112-.279 0-.67.048-.39.05-.59.108v8.042H38.86v-9.961q.801-.279 1.89-.528 1.089-.254 2.427-.254.244 0 .58.035.343.029.68.078.341.049.678.122.342.068.586.166zm11.94 2.603q0 1.24-.361 2.27-.361 1.026-1.04 1.759t-1.631 1.133q-.947.395-2.129.395-1.157 0-2.11-.395-.951-.4-1.63-1.133t-1.06-1.758q-.38-1.03-.38-2.27t.39-2.261q.39-1.02 1.08-1.739.693-.722 1.64-1.123.952-.4 2.07-.4 1.143 0 2.09.4.952.4 1.63 1.123.68.718 1.06 1.739.381 1.02.381 2.26m-3.042 0q0-1.381-.551-2.172-.547-.791-1.568-.791t-1.582.79q-.557.792-.557 2.173 0 1.377.557 2.188.562.81 1.582.81t1.568-.81q.551-.81.551-2.188m11.74-.761q-.396 1.518-.85 3.022-.449 1.5-.947 3.018h-2.32q-.36-.84-.78-1.997-.42-1.162-.87-2.53-.449-1.372-.923-2.9-.468-1.533-.908-3.09h3.14l.351 1.567q.19.85.4 1.752.21.899.44 1.807t.469 1.753q.259-.884.508-1.802.254-.923.483-1.811.23-.889.44-1.719t.37-1.548H67q.161.718.361 1.548t.42 1.719.46 1.811q.238.918.497 1.802.244-.845.484-1.753.239-.908.449-1.807.21-.903.4-1.752.19-.85.347-1.568h3.1q-.439 1.558-.908 3.09-.468 1.53-.923 2.901-.449 1.368-.878 2.53-.43 1.157-.791 1.997h-2.32q-.498-1.519-.981-3.018-.479-1.504-.88-3.022m9.283-4.121q.757-.22 1.958-.41 1.202-.191 2.52-.191 1.343 0 2.231.352.889.351 1.407.99.522.64.742 1.52.22.878.22 1.957v5.943H81.22v-5.581q0-1.44-.38-2.037-.382-.6-1.422-.6-.317 0-.679.03-.36.028-.64.068v8.12h-2.978z"/><path fill="#fff" d="M32.42 86.994q-3.379 0-5.151-1.88-1.768-1.88-1.768-5.337 0-1.723.537-3.071.542-1.353 1.48-2.28.942-.928 2.24-1.407 1.3-.483 2.823-.483.879 0 1.597.132.722.127 1.26.298.541.17.903.351.361.18.517.279l-.898 2.52q-.64-.343-1.49-.582-.849-.24-1.928-.24-.723 0-1.411.24t-1.22.772-.855 1.372q-.318.84-.318 2.036 0 .962.21 1.792t.679 1.43q.474.601 1.23.953.762.346 1.841.346.684 0 1.22-.078.543-.083.963-.19.42-.113.737-.25.322-.14.581-.263l.86 2.5q-.66.4-1.86.723-1.197.317-2.78.317m12.78-8.16q-.401-.097-.943-.204-.537-.112-1.157-.112-.279 0-.67.048-.39.05-.59.108v8.042H38.86v-9.961q.801-.279 1.89-.528 1.089-.254 2.427-.254.244 0 .58.035.343.029.68.078.341.049.678.122.342.068.586.166zm11.94 2.603q0 1.24-.361 2.27-.361 1.026-1.04 1.759t-1.631 1.133q-.947.395-2.129.395-1.157 0-2.11-.395-.951-.4-1.63-1.133t-1.06-1.758q-.38-1.03-.38-2.27t.39-2.261q.39-1.02 1.08-1.739.693-.722 1.64-1.123.952-.4 2.07-.4 1.143 0 2.09.4.952.4 1.63 1.123.68.718 1.06 1.739.381 1.02.381 2.26m-3.042 0q0-1.381-.551-2.172-.547-.791-1.568-.791t-1.582.79q-.557.792-.557 2.173 0 1.377.557 2.188.562.81 1.582.81t1.568-.81q.551-.81.551-2.188m11.74-.761q-.396 1.518-.85 3.022-.449 1.5-.947 3.018h-2.32q-.36-.84-.78-1.997-.42-1.162-.87-2.53-.449-1.372-.923-2.9-.468-1.533-.908-3.09h3.14l.351 1.567q.19.85.4 1.752.21.899.44 1.807t.469 1.753q.259-.884.508-1.802.254-.923.483-1.811.23-.889.44-1.719t.37-1.548H67q.161.718.361 1.548t.42 1.719.46 1.811q.238.918.497 1.802.244-.845.484-1.753.239-.908.449-1.807.21-.903.4-1.752.19-.85.347-1.568h3.1q-.439 1.558-.908 3.09-.468 1.53-.923 2.901-.449 1.368-.878 2.53-.43 1.157-.791 1.997h-2.32q-.498-1.519-.981-3.018-.479-1.504-.88-3.022m9.283-4.121q.757-.22 1.958-.41 1.202-.191 2.52-.191 1.343 0 2.231.352.889.351 1.407.99.522.64.742 1.52.22.878.22 1.957v5.943H81.22v-5.581q0-1.44-.38-2.037-.382-.6-1.422-.6-.317 0-.679.03-.36.028-.64.068v8.12h-2.978z"/></svg>