<svg xmlns="http://www.w3.org/2000/svg" viewBox="0 0 110 110"><path fill="#f7cf2f" d="M70.714 47.857q-1.425 8.25-7.857 13.61-7.857 2.89-15.714 0-6.432-5.36-7.857-13.61 1.425-8.25 7.857-13.609 7.857-2.89 15.714 0 6.432 5.36 7.857 13.61"/><path fill="#c8a826" d="M72.826 48.222q-1.56 9.027-8.597 14.89-.285.237-.632.365-8.597 3.163-17.194 0-.347-.128-.632-.365-7.038-5.863-8.597-14.89-.063-.365 0-.73 1.56-9.027 8.597-14.89.285-.237.632-.365 8.597-3.163 17.194 0 .347.128.632.365 7.038 5.863 8.597 14.89.063.365 0 .73m-4.223-.73 2.111.365-2.111.365q-1.291-7.473-7.117-12.328l1.371-1.646-.74 2.011q-7.117-2.619-14.234 0l-.74-2.01 1.371 1.645q-5.826 4.855-7.117 12.328l-2.111-.365 2.111-.365q1.291 7.473 7.117 12.328l-1.371 1.646.74-2.011q7.117 2.619 14.234 0l.74 2.011-1.371-1.646q5.826-4.855 7.117-12.328"/><path fill="none" stroke="#000" stroke-linecap="round" stroke-linejoin="round" stroke-width="2.4" d="M34.35 72.853h3.121v13.863h-3.12v-5.88h-5.24v5.88h-3.12V72.853h3.12v5.303h5.24zm15.96 8.584q0 1.24-.361 2.27-.361 1.026-1.04 1.759t-1.631 1.133q-.947.395-2.129.395-1.157 0-2.11-.395-.951-.4-1.63-1.133t-1.06-1.758q-.38-1.03-.38-2.27t.39-2.261q.39-1.02 1.08-1.739.693-.722 1.64-1.123.952-.4 2.07-.4 1.143 0 2.09.4.952.4 1.63 1.123.68.718 1.06 1.739.381 1.02.381 2.26m-3.042 0q0-1.381-.552-2.172-.546-.791-1.567-.791t-1.582.79q-.557.792-.557 2.173 0 1.377.557 2.188.562.81 1.582.81t1.567-.81q.552-.81.552-2.188m5.343-4.882q.757-.22 1.958-.41 1.201-.191 2.52-.191 1.343 0 2.231.352.889.351 1.407.99.522.64.742 1.52.22.878.22 1.957v5.943H58.71v-5.581q0-1.44-.38-2.037-.382-.6-1.422-.6-.317 0-.678.03-.362.028-.64.068v8.12h-2.98zm11.277 4.98q0-1.401.43-2.451t1.128-1.748q.703-.698 1.611-1.06.913-.361 1.875-.361 2.237 0 3.535 1.372 1.304 1.367 1.304 4.028 0 .26-.02.572-.019.307-.043.547H66.95q.098.922.86 1.464.761.537 2.04.537.82 0 1.607-.146.79-.151 1.294-.371l.4 2.417q-.24.122-.64.244-.4.117-.893.205-.488.093-1.05.151-.557.059-1.118.059-1.421 0-2.47-.42t-1.744-1.147q-.688-.733-1.02-1.729-.328-1-.328-2.163m7.002-1.138q-.02-.38-.132-.742-.107-.361-.336-.64-.23-.278-.582-.459-.351-.18-.869-.18-.502 0-.864.17-.356.172-.596.45-.239.278-.37.65-.133.37-.191.751zm14.522-4.199q-.903 3.037-1.885 5.698-.976 2.662-2.138 5.162-.42.898-.84 1.528t-.923 1.04q-.498.41-1.128.6t-1.47.19q-.698 0-1.289-.131-.59-.127-.971-.288l.522-2.383q.46.161.82.22.362.063.762.063.796 0 1.226-.43.434-.429.732-1.19-1.02-2.003-2.04-4.493t-1.92-5.586h3.16q.2.777.468 1.69.273.908.571 1.84.303.928.61 1.807.313.879.591 1.602.26-.723.538-1.602.283-.879.551-1.807.269-.932.518-1.84.254-.913.454-1.69z"/><path fill="#fff" d="M34.35 72.853h3.121v13.863h-3.12v-5.88h-5.24v5.88h-3.12V72.853h3.12v5.303h5.24zm15.96 8.584q0 1.24-.361 2.27-.361 1.026-1.04 1.759t-1.631 1.133q-.947.395-2.129.395-1.157 0-2.11-.395-.951-.4-1.63-1.133t-1.06-1.758q-.38-1.03-.38-2.27t.39-2.261q.39-1.02 1.08-1.739.693-.722 1.64-1.123.952-.4 2.07-.4 1.143 0 2.09.4.952.4 1.63 1.123.68.718 1.06 1.739.381 1.02.381 2.26m-3.042 0q0-1.381-.552-2.172-.546-.791-1.567-.791t-1.582.79q-.557.792-.557 2.173 0 1.377.557 2.188.562.81 1.582.81t1.567-.81q.552-.81.552-2.188m5.343-4.882q.757-.22 1.958-.41 1.201-.191 2.52-.191 1.343 0 2.231.352.889.351 1.407.99.522.64.742 1.52.22.878.22 1.957v5.943H58.71v-5.581q0-1.44-.38-2.037-.382-.6-1.422-.6-.317 0-.678.03-.362.028-.64.068v8.12h-2.98zm11.277 4.98q0-1.401.43-2.451t1.128-1.748q.703-.698 1.611-1.06.913-.361 1.875-.361 2.237 0 3.535 1.372 1.304 1.367 1.304 4.028 0 .26-.02.572-.019.307-.043.547H66.95q.098.922.86 1.464.761.537 2.04.537.82 0 1.607-.146.79-.151 1.294-.371l.4 2.417q-.24.122-.64.244-.4.117-.893.205-.488.093-1.05.151-.557.059-1.118.059-1.421 0-2.47-.42t-1.744-1.147q-.688-.733-1.02-1.729-.328-1-.328-2.163m7.002-1.138q-.02-.38-.132-.742-.107-.361-.336-.64-.23-.278-.582-.459-.351-.18-.869-.18-.502 0-.864.17-.356.172-.596.45-.239.278-.37.65-.133.37-.191.751zm14.522-4.199q-.903 3.037-1.885 5.698-.976 2.662-2.138 5.162-.42.898-.84 1.528t-.923 1.04q-.498.41-1.128.6t-1.47.19q-.698 0-1.289-.131-.59-.127-.971-.288l.522-2.383q.46.161.82.22.362.063.762.063.796 0 1.226-.43.434-.429.732-1.19-1.02-2.003-2.04-4.493t-1.92-5.586h3.16q.2.777.468 1.69.273.908.571 1.84.303.928.61 1.807.313.879.591 1.602.26-.723.538-1.602.283-.879.551-1.807.269-.932.518-1.84.254-.913.454-1.69z"/></svg>