<svg xmlns="http://www.w3.org/2000/svg" viewBox="0 0 110 110"><path fill="#74b53f" d="M65.806 31.028q-25.231 7.567-21.612 33.659 25.231-7.568 21.612-33.66"/><path fill="none" stroke="#5e9333" stroke-linecap="round" stroke-linejoin="round" stroke-width="4.286" d="M65.806 31.028q-25.231 7.567-21.612 33.659 25.231-7.568 21.612-33.66"/><path fill="none" stroke="#5e9333" stroke-linecap="round" stroke-linejoin="round" stroke-width="2.857" d="M65.806 31.028q-25.231 7.567-21.612 33.659 25.231-7.568 21.612-33.66m0 0q-14.412 14.515-21.612 33.66"/><path fill="none" stroke="#000" stroke-linecap="round" stroke-linejoin="round" stroke-width="2.4" d="M33.65 78.557q.84-1.421 1.596-2.842.762-1.421 1.402-2.862h3.442q-1.143 2.242-2.363 4.341-1.216 2.1-2.578 4.224v5.298h-3.12v-5.26q-1.358-2.118-2.588-4.237-1.23-2.124-2.373-4.366h3.623q.64 1.44 1.377 2.862.742 1.42 1.582 2.841m16.92 7.797q-.76.22-1.962.41-1.196.191-2.52.191-1.337 0-2.231-.356-.889-.362-1.411-1.011-.518-.654-.737-1.553-.22-.898-.22-1.977v-5.86h2.983v5.498q0 1.44.376 2.08.381.64 1.421.64.322 0 .679-.03.361-.029.644-.073v-8.115h2.979zm2.298-4.897q0-1.143.371-2.148.372-1.011 1.07-1.763.703-.752 1.7-1.192 1-.44 2.28-.44.84 0 1.537.152.703.152 1.363.43l-.62 2.378q-.42-.156-.923-.278-.498-.123-1.118-.123-1.319 0-1.968.82-.65.821-.65 2.164 0 1.42.61 2.202.611.776 2.13.776.542 0 1.162-.097.62-.103 1.138-.322l.42 2.44q-.518.22-1.3.377-.78.161-1.718.161-1.44 0-2.48-.43t-1.715-1.167q-.668-.742-.981-1.753-.308-1.01-.308-2.187m10 0q0-1.143.371-2.148.372-1.011 1.07-1.763.703-.752 1.699-1.192 1.001-.44 2.28-.44.84 0 1.538.152.704.152 1.363.43l-.62 2.378q-.42-.156-.923-.278-.498-.123-1.118-.123-1.319 0-1.968.82-.65.821-.65 2.164 0 1.42.61 2.202.611.776 2.13.776.542 0 1.162-.097.62-.103 1.137-.322l.42 2.44q-.517.22-1.299.377-.78.161-1.718.161-1.44 0-2.48-.43t-1.715-1.167q-.668-.742-.981-1.753-.308-1.01-.308-2.187m14.522 3.179q.44 0 .84-.02t.64-.058v-2.261q-.181-.04-.543-.078-.356-.044-.659-.044-.42 0-.79.053-.367.05-.65.19-.279.138-.44.377-.156.24-.156.6 0 .699.469.972.469.269 1.289.269m-.24-8.721q1.319 0 2.198.303.884.297 1.411.859.532.557.752 1.358.22.8.22 1.782v6.2q-.64.138-1.782.328-1.138.19-2.76.19-1.02 0-1.85-.18t-1.43-.591-.923-1.07q-.318-.659-.318-1.62 0-.918.371-1.558t.991-1.02q.62-.382 1.421-.547.801-.171 1.66-.171.577 0 1.026.048.454.05.732.127v-.278q0-.762-.459-1.22-.459-.46-1.601-.46-.757 0-1.5.113-.741.107-1.279.307l-.38-2.397q.258-.083.649-.171.39-.093.85-.161t.966-.117q.513-.054 1.036-.054"/><path fill="#fff" d="M33.65 78.557q.84-1.421 1.596-2.842.762-1.421 1.402-2.862h3.442q-1.143 2.242-2.363 4.341-1.216 2.1-2.578 4.224v5.298h-3.12v-5.26q-1.358-2.118-2.588-4.237-1.23-2.124-2.373-4.366h3.623q.64 1.44 1.377 2.862.742 1.42 1.582 2.841m16.92 7.797q-.76.22-1.962.41-1.196.191-2.52.191-1.337 0-2.231-.356-.889-.362-1.411-1.011-.518-.654-.737-1.553-.22-.898-.22-1.977v-5.86h2.983v5.498q0 1.44.376 2.08.381.64 1.421.64.322 0 .679-.03.361-.029.644-.073v-8.115h2.979zm2.298-4.897q0-1.143.371-2.148.372-1.011 1.07-1.763.703-.752 1.7-1.192 1-.44 2.28-.44.84 0 1.537.152.703.152 1.363.43l-.62 2.378q-.42-.156-.923-.278-.498-.123-1.118-.123-1.319 0-1.968.82-.65.821-.65 2.164 0 1.42.61 2.202.611.776 2.13.776.542 0 1.162-.097.62-.103 1.138-.322l.42 2.44q-.518.22-1.3.377-.78.161-1.718.161-1.44 0-2.48-.43t-1.715-1.167q-.668-.742-.981-1.753-.308-1.01-.308-2.187m10 0q0-1.143.371-2.148.372-1.011 1.07-1.763.703-.752 1.699-1.192 1.001-.44 2.28-.44.84 0 1.538.152.704.152 1.363.43l-.62 2.378q-.42-.156-.923-.278-.498-.123-1.118-.123-1.319 0-1.968.82-.65.821-.65 2.164 0 1.42.61 2.202.611.776 2.13.776.542 0 1.162-.097.62-.103 1.137-.322l.42 2.44q-.517.22-1.299.377-.78.161-1.718.161-1.44 0-2.48-.43t-1.715-1.167q-.668-.742-.981-1.753-.308-1.01-.308-2.187m14.522 3.179q.44 0 .84-.02t.64-.058v-2.261q-.181-.04-.543-.078-.356-.044-.659-.044-.42 0-.79.053-.367.05-.65.19-.279.138-.44.377-.156.24-.156.6 0 .699.469.972.469.269 1.289.269m-.24-8.721q1.319 0 2.198.303.884.297 1.411.859.532.557.752 1.358.22.8.22 1.782v6.2q-.64.138-1.782.328-1.138.19-2.76.19-1.02 0-1.85-.18t-1.43-.591-.923-1.07q-.318-.659-.318-1.62 0-.918.371-1.558t.991-1.02q.62-.382 1.421-.547.801-.171 1.66-.171.577 0 1.026.048.454.05.732.127v-.278q0-.762-.459-1.22-.459-.46-1.601-.46-.757 0-1.5.113-.741.107-1.279.307l-.38-2.397q.258-.083.649-.171.39-.093.85-.161t.966-.117q.513-.054 1.036-.054"/></svg>