<svg xmlns="http://www.w3.org/2000/svg" viewBox="0 0 110 110"><path fill="none" stroke="#fa9cff" stroke-linecap="round" stroke-linejoin="round" stroke-opacity=".698" stroke-width="4.286" d="M72.143 47.857q0 .42-.02.841-.021.42-.063.84-.041.418-.103.834-.061.417-.144.83-.082.412-.184.82-.102.409-.224.811t-.264.8q-.142.396-.303.784-.161.39-.341.77t-.378.751-.415.732-.45.711-.485.688-.517.663-.55.638-.58.609-.61.58-.637.55-.663.517-.688.485-.71.45-.733.415-.751.378-.77.341-.785.303-.799.264-.81.224-.822.185-.829.143-.835.103-.839.062T55 65q-.42 0-.841-.02-.42-.02-.84-.062-.418-.04-.834-.103-.417-.061-.83-.143-.412-.082-.82-.185-.409-.102-.811-.224t-.8-.264q-.395-.142-.784-.303-.39-.161-.77-.34t-.751-.38q-.371-.198-.732-.414t-.711-.45-.688-.485-.663-.517q-.326-.267-.637-.55-.312-.283-.61-.58-.297-.298-.58-.61-.283-.311-.55-.637-.267-.325-.517-.663t-.485-.688-.45-.71-.415-.733-.378-.751-.341-.77-.303-.785-.264-.799-.224-.81-.184-.822-.144-.829-.103-.835-.062-.839-.02-.84q0-.422.02-.842t.062-.84q.041-.418.103-.834.061-.417.144-.83.082-.412.184-.82t.224-.811.264-.8q.142-.395.303-.784t.341-.77.378-.751q.199-.371.415-.732t.45-.71.485-.689.517-.663.55-.637.58-.61.61-.58.637-.55.663-.517.688-.485.71-.45.733-.415.751-.378.77-.34q.389-.162.785-.304.396-.141.799-.264.402-.122.81-.224t.822-.184.829-.144.835-.103.839-.062q.42-.02.841-.02.42 0 .841.02.42.02.84.062.418.041.834.103.417.062.83.144.412.082.82.184.409.102.811.224t.8.264q.395.142.784.303.39.161.77.341t.751.378.732.415.711.45.688.485q.338.25.663.518.326.266.637.55.312.282.61.58.297.297.58.609.283.311.55.637.267.325.517.663t.485.688.45.71.415.733.378.752.341.769.303.785.264.799.224.81.184.822.144.829.103.835.062.839.02.841"/><path fill="#fa9cff" fill-opacity=".349" d="M70 47.857q0 .368-.018.736t-.054.734-.09.731-.126.725q-.072.362-.162.719-.089.357-.196.71-.107.352-.23.698-.125.347-.266.687-.14.34-.298.673t-.331.658q-.174.325-.363.64-.19.316-.394.623-.205.306-.424.602-.22.295-.453.58t-.48.557-.508.534q-.26.26-.534.507-.272.248-.557.481-.285.234-.58.453-.296.22-.602.424-.307.205-.622.394-.316.19-.641.363t-.658.33-.673.3-.687.264-.699.231-.71.197q-.356.09-.718.16-.36.073-.725.127-.364.054-.73.09-.367.036-.735.054t-.736.018-.736-.018-.734-.054-.731-.09-.725-.126-.719-.161q-.357-.09-.71-.197-.352-.107-.698-.23-.347-.125-.687-.266-.34-.14-.673-.298t-.658-.331-.64-.363q-.316-.19-.623-.394-.306-.204-.601-.424-.296-.22-.58-.453-.286-.233-.558-.48-.273-.248-.534-.508-.26-.26-.507-.534-.248-.272-.481-.557-.234-.285-.453-.58-.22-.296-.424-.602-.205-.307-.394-.622-.19-.316-.363-.64-.173-.326-.33-.659-.158-.332-.3-.673-.14-.34-.264-.687-.124-.346-.231-.699-.107-.352-.196-.71-.09-.356-.162-.718-.072-.36-.126-.725-.054-.364-.09-.73-.036-.367-.054-.735T40 47.857t.018-.736.054-.734.09-.73q.054-.365.126-.726t.162-.719.196-.71.23-.698.266-.687q.14-.34.298-.673t.331-.658.363-.64q.19-.316.394-.622.205-.307.424-.602.22-.296.453-.58.233-.285.48-.558.248-.273.508-.533t.534-.508q.272-.247.557-.481t.58-.453q.296-.22.602-.424.307-.205.622-.394.316-.19.641-.363t.658-.33.673-.3.687-.264.699-.231.71-.196q.356-.09.718-.162.36-.071.725-.126.364-.054.73-.09.367-.036.735-.054t.736-.018.736.018.734.054.731.09q.364.055.725.126.362.072.719.162t.71.196q.352.107.698.231.347.124.687.265.34.14.673.298t.658.331.64.363q.316.19.623.394.306.205.601.424.296.22.58.453.286.234.558.48.273.248.534.509.26.26.507.533.248.273.481.557.234.285.453.58.22.296.424.603.205.306.394.622.19.315.363.64t.33.658.3.673q.14.34.264.687.124.346.231.699.107.352.196.71.09.357.162.718.072.36.126.725.054.364.09.73.036.367.054.735t.018.736"/><path fill="#fa9cff" fill-opacity=".349" d="M51.429 42.857q0 .21-.021.42-.02.21-.062.416-.04.207-.102.408-.061.202-.142.396-.08.195-.18.38-.099.186-.216.361t-.25.338-.283.312-.311.282-.338.25q-.175.118-.36.217-.187.099-.381.18-.195.08-.396.141-.202.061-.408.102-.207.042-.416.062-.21.02-.42.02t-.42-.02-.416-.062q-.207-.04-.408-.102-.202-.06-.396-.141-.195-.081-.38-.18-.186-.1-.361-.216-.175-.117-.338-.251t-.312-.282q-.148-.15-.282-.312-.134-.163-.25-.338-.118-.175-.217-.36-.099-.186-.18-.38-.08-.195-.141-.397-.061-.201-.103-.408-.04-.206-.061-.416t-.02-.42.02-.42.061-.416.103-.408q.06-.201.141-.396.081-.194.18-.38.1-.186.216-.36.117-.176.251-.339.134-.162.282-.311.15-.15.312-.283.163-.133.338-.25t.36-.217.38-.18.397-.141.408-.102.416-.062.42-.02.42.02.416.062q.206.04.408.102t.396.142.38.18.36.216q.176.117.339.25.162.134.311.283.15.149.283.311.133.163.25.338t.217.36q.099.187.18.381.08.195.141.396.061.202.102.408.041.207.062.416.02.21.02.42"/><path fill="#fa9cff" fill-opacity=".349" d="M57.857 33.571q0 .14-.014.28-.013.14-.04.278-.028.137-.069.272-.04.134-.094.264t-.12.253-.144.24-.167.226q-.09.108-.189.208t-.207.188-.226.167-.24.144-.254.12q-.13.054-.264.095-.134.04-.272.068-.137.027-.277.04-.14.015-.28.015t-.28-.014-.277-.041q-.138-.028-.272-.068-.135-.041-.264-.095-.13-.054-.254-.12t-.24-.144-.226-.167-.207-.188-.189-.208-.167-.225-.144-.24q-.066-.125-.12-.254-.053-.13-.094-.264-.04-.135-.068-.272-.028-.138-.041-.278t-.014-.28"/><path fill="#fa9cff" fill-opacity=".349" d="M61.429 44.286q0 .14-.014.28t-.041.277-.068.272-.095.264-.12.254q-.066.123-.144.24t-.167.225q-.089.109-.188.208-.1.1-.208.188-.109.09-.225.167-.117.078-.24.144-.125.067-.254.12-.13.054-.264.095-.135.04-.272.068-.138.027-.278.041t-.28.014-.28-.014-.277-.041-.272-.068-.264-.095-.253-.12-.24-.144q-.118-.078-.226-.167t-.208-.188-.188-.208q-.09-.108-.167-.225t-.144-.24-.12-.254q-.054-.13-.095-.264-.04-.134-.068-.272-.027-.138-.041-.277-.014-.14-.014-.28t.014-.28.041-.278.068-.272.095-.264.12-.253.144-.24.167-.226.188-.208.208-.188.225-.167.24-.144.254-.12.264-.094.272-.069.277-.04.28-.014.28.013.278.041.272.069.264.094.253.12.24.144.226.167q.108.09.208.188.099.1.188.208.09.109.167.225.078.117.144.24.066.125.12.254.054.13.095.264.04.135.068.272.027.138.04.278.015.14.015.28"/><path fill="#fa9cff" fill-opacity=".349" d="M45.714 52.143q0 .105-.01.21t-.03.208-.052.204q-.03.1-.07.198-.041.097-.09.19-.05.093-.109.18-.058.088-.125.17-.067.08-.141.155-.075.074-.156.141-.082.067-.169.126t-.18.108-.19.09q-.098.04-.199.07-.1.031-.204.051-.103.021-.208.031-.104.01-.21.01-.105 0-.21-.01-.104-.01-.208-.03-.103-.021-.204-.052t-.198-.07-.19-.09-.18-.108-.169-.126-.156-.141-.141-.156-.125-.169q-.059-.087-.108-.18-.05-.093-.09-.19t-.071-.198-.051-.204-.031-.208-.01-.21.01-.21.03-.208.052-.204.07-.198.09-.19.109-.18.125-.17.141-.155.156-.142.169-.125.18-.108.19-.09.198-.07.204-.052.208-.03.21-.011.21.01.208.031.204.051.198.071.19.09.181.108.169.125.156.142.14.155q.068.082.126.17.059.087.108.18.05.093.09.19t.071.198.051.204.031.208.01.21"/><path fill="#fa9cff" fill-opacity=".349" d="M63.571 56.429q0 .28-.027.56-.028.279-.082.554-.055.276-.137.544-.081.269-.189.528-.107.26-.24.507-.132.248-.288.481-.156.234-.334.45-.178.218-.376.416-.199.199-.416.377t-.45.334-.481.288-.507.24-.528.189-.544.136-.555.082q-.28.028-.56.028t-.56-.028-.555-.082-.544-.136-.528-.19-.507-.239-.48-.288q-.234-.156-.451-.334t-.415-.377-.377-.415-.334-.45-.288-.482-.24-.507-.19-.528q-.08-.268-.135-.544-.055-.275-.083-.554-.027-.28-.027-.56 0-.281.027-.56.028-.28.083-.555.054-.276.136-.544.081-.269.189-.528.107-.26.24-.507.132-.248.288-.481.156-.234.334-.45.178-.218.377-.416.198-.199.415-.377t.45-.334.481-.288.507-.24q.26-.107.528-.189.269-.081.544-.136.276-.055.555-.082.28-.028.56-.028t.56.028.555.082.544.136.528.19.507.239.48.288.451.334.416.377q.198.198.376.415t.334.45.289.482.24.507.188.528.137.544.082.554q.027.28.027.56"/><path fill="none" stroke="#000" stroke-linecap="round" stroke-linejoin="round" stroke-width="2.4" d="M41.26 82.058q0 1.02-.23 1.918-.23.899-.8 1.573-.572.669-1.544 1.06-.966.385-2.446.385-1.362 0-2.344-.327-.976-.332-1.616-.772l1.04-2.421q.581.341 1.24.605.66.259 1.44.259 1.139 0 1.637-.562.503-.561.503-1.88v-9.043h3.12zm2.298-.523q0-1.401.43-2.451t1.128-1.748q.703-.698 1.611-1.06.914-.361 1.875-.361 2.237 0 3.536 1.372 1.303 1.367 1.303 4.028 0 .26-.02.572-.019.307-.043.547H46.62q.098.922.86 1.464.761.537 2.04.537.82 0 1.607-.146.79-.151 1.294-.371l.4 2.417q-.24.122-.64.244-.4.117-.893.205-.488.093-1.05.151-.556.059-1.118.059-1.421 0-2.47-.42t-1.744-1.147q-.688-.733-1.02-1.729-.328-1-.328-2.163m7.002-1.138q-.02-.38-.132-.742-.107-.361-.336-.64-.23-.278-.581-.459-.352-.18-.87-.18-.503 0-.864.17-.356.172-.596.45-.239.278-.37.65-.133.37-.191.751zm9.38 6.519q-1.298-.02-2.109-.278-.81-.264-1.284-.733-.469-.469-.64-1.137-.166-.674-.166-1.514V71.677l2.979-.479v11.46q0 .396.058.718.064.322.23.542.17.22.488.361.322.137.864.176zm6.32 0q-1.298-.02-2.109-.278-.81-.264-1.284-.733-.469-.469-.64-1.137-.166-.674-.166-1.514V71.677l2.979-.479v11.46q0 .396.058.718.064.322.23.542.17.22.488.361.322.137.864.176zm11.462-10.718q-.903 3.037-1.885 5.698-.976 2.662-2.138 5.162-.42.898-.84 1.528t-.923 1.04q-.498.41-1.128.6t-1.47.19q-.698 0-1.289-.131-.59-.127-.971-.288l.522-2.383q.46.161.82.22.362.063.762.063.796 0 1.226-.43.434-.429.732-1.19-1.02-2.003-2.04-4.493t-1.92-5.586h3.16q.2.777.468 1.69.273.908.571 1.84.303.928.61 1.807.313.879.591 1.602.26-.723.538-1.602.283-.879.551-1.807.269-.932.518-1.84.254-.913.454-1.69z"/><path fill="#fff" d="M41.26 82.058q0 1.02-.23 1.918-.23.899-.8 1.573-.572.669-1.544 1.06-.966.385-2.446.385-1.362 0-2.344-.327-.976-.332-1.616-.772l1.04-2.421q.581.341 1.24.605.66.259 1.44.259 1.139 0 1.637-.562.503-.561.503-1.88v-9.043h3.12zm2.298-.523q0-1.401.43-2.451t1.128-1.748q.703-.698 1.611-1.06.914-.361 1.875-.361 2.237 0 3.536 1.372 1.303 1.367 1.303 4.028 0 .26-.02.572-.019.307-.043.547H46.62q.098.922.86 1.464.761.537 2.04.537.82 0 1.607-.146.79-.151 1.294-.371l.4 2.417q-.24.122-.64.244-.4.117-.893.205-.488.093-1.05.151-.556.059-1.118.059-1.421 0-2.47-.42t-1.744-1.147q-.688-.733-1.02-1.729-.328-1-.328-2.163m7.002-1.138q-.02-.38-.132-.742-.107-.361-.336-.64-.23-.278-.581-.459-.352-.18-.87-.18-.503 0-.864.17-.356.172-.596.45-.239.278-.37.65-.133.37-.191.751zm9.38 6.519q-1.298-.02-2.109-.278-.81-.264-1.284-.733-.469-.469-.64-1.137-.166-.674-.166-1.514V71.677l2.979-.479v11.46q0 .396.058.718.064.322.23.542.17.22.488.361.322.137.864.176zm6.32 0q-1.298-.02-2.109-.278-.81-.264-1.284-.733-.469-.469-.64-1.137-.166-.674-.166-1.514V71.677l2.979-.479v11.46q0 .396.058.718.064.322.23.542.17.22.488.361.322.137.864.176zm11.462-10.718q-.903 3.037-1.885 5.698-.976 2.662-2.138 5.162-.42.898-.84 1.528t-.923 1.04q-.498.41-1.128.6t-1.47.19q-.698 0-1.289-.131-.59-.127-.971-.288l.522-2.383q.46.161.82.22.362.063.762.063.796 0 1.226-.43.434-.429.732-1.19-1.02-2.003-2.04-4.493t-1.92-5.586h3.16q.2.777.468 1.69.273.908.571 1.84.303.928.61 1.807.313.879.591 1.602.26-.723.538-1.602.283-.879.551-1.807.269-.932.518-1.84.254-.913.454-1.69z"/></svg>