<svg xmlns="http://www.w3.org/2000/svg" viewBox="0 0 110 110"><path fill="#ffe869" d="m59.563 26.92 16.374 25.5-25.5 16.374-16.374-25.5z"/><path fill="none" stroke="#cfbc55" stroke-linejoin="round" stroke-width="3.214" d="m59.563 26.92 16.374 25.5-25.5 16.374-16.374-25.5z"/><path fill="none" stroke="#000" stroke-linecap="round" stroke-linejoin="round" stroke-width="2.4" d="M27.04 84.338q.66 0 1.09-.108.43-.112.688-.302.264-.19.361-.45.103-.263.103-.58 0-.684-.645-1.133-.64-.45-2.197-.967-.678-.244-1.362-.552-.679-.312-1.22-.781-.538-.469-.88-1.138-.337-.669-.337-1.63 0-.963.357-1.73.361-.77 1.02-1.308.66-.542 1.602-.83.942-.293 2.12-.293 1.4 0 2.421.303 1.02.298 1.68.659l-.899 2.456q-.58-.298-1.294-.527-.708-.23-1.709-.23-1.118 0-1.611.313-.488.307-.488.947 0 .38.18.64.181.258.508.468.332.21.762.381t.952.352q1.08.4 1.875.79.8.387 1.333.909.532.517.791 1.22.259.699.259 1.7 0 1.938-1.363 3.008-1.357 1.069-4.096 1.069-.923 0-1.665-.112-.737-.108-1.309-.264-.566-.161-.976-.342-.41-.18-.689-.341l.88-2.481q.62.342 1.527.615.909.269 2.232.269m10.2-2.803q0 2.861 2.12 2.861.459 0 .908-.117.454-.122.732-.303v-5.38q-.22-.04-.561-.069-.337-.03-.738-.03-1.22 0-1.84.831-.62.83-.62 2.207m-3.042-.078q0-1.22.372-2.231.37-1.011 1.069-1.739.703-.732 1.719-1.133 1.02-.4 2.324-.4.537 0 1.128.054.59.049 1.157.132.571.078 1.089.19.522.107.923.225v13.862H41v-3.96q-.498.22-1.04.337-.542.122-1.162.122-2.236 0-3.418-1.47t-1.182-3.99m21.563 4.897q-.762.22-1.963.41-1.196.191-2.52.191-1.337 0-2.231-.356-.889-.362-1.411-1.011-.518-.654-.738-1.553t-.22-1.977v-5.86h2.984v5.498q0 1.44.376 2.08.381.64 1.421.64.322 0 .679-.03.361-.029.644-.073v-8.115h2.979zm6.819-1.718q.44 0 .84-.02t.64-.058v-2.261q-.181-.04-.543-.078-.356-.044-.659-.044-.42 0-.79.053-.367.05-.65.19-.279.138-.44.377-.156.24-.156.6 0 .699.469.972.469.269 1.289.269m-.24-8.721q1.319 0 2.198.303.884.297 1.411.859.532.557.752 1.358.22.8.22 1.782v6.2q-.64.138-1.783.328-1.137.19-2.758.19-1.02 0-1.85-.18t-1.432-.591-.922-1.07q-.318-.659-.318-1.62 0-.918.371-1.558t.992-1.02q.62-.382 1.42-.547.801-.171 1.66-.171.577 0 1.026.048.454.05.732.127v-.278q0-.762-.459-1.22-.459-.46-1.601-.46-.757 0-1.5.113-.741.107-1.279.307l-.38-2.397q.258-.083.65-.171.39-.093.849-.161t.966-.117q.513-.054 1.036-.054m13.62 2.92q-.401-.098-.943-.205-.537-.112-1.157-.112-.279 0-.67.048-.39.05-.59.108v8.042H69.62v-9.961q.801-.279 1.89-.528 1.089-.254 2.427-.254.244 0 .58.035.343.029.68.078.341.049.678.122.342.068.586.166zm1.598 2.7q0-1.401.43-2.451t1.128-1.748q.703-.698 1.611-1.06.913-.361 1.875-.361 2.237 0 3.535 1.372 1.304 1.367 1.304 4.028 0 .26-.02.572-.019.307-.043.547H80.62q.097.922.86 1.464.761.537 2.04.537.82 0 1.607-.146.79-.151 1.294-.371l.4 2.417q-.24.122-.64.244-.4.117-.893.205-.488.093-1.05.151-.557.059-1.118.059-1.421 0-2.47-.42t-1.744-1.147q-.689-.733-1.02-1.729-.328-1-.328-2.163m7.002-1.138q-.02-.38-.132-.742-.107-.361-.336-.64-.23-.278-.582-.459-.351-.18-.869-.18-.503 0-.864.17-.356.172-.596.45-.239.278-.37.65-.133.37-.191.751z"/><path fill="#fff" d="M27.04 84.338q.66 0 1.09-.108.43-.112.688-.302.264-.19.361-.45.103-.263.103-.58 0-.684-.645-1.133-.64-.45-2.197-.967-.678-.244-1.362-.552-.679-.312-1.22-.781-.538-.469-.88-1.138-.337-.669-.337-1.63 0-.963.357-1.73.361-.77 1.02-1.308.66-.542 1.602-.83.942-.293 2.12-.293 1.4 0 2.421.303 1.02.298 1.68.659l-.899 2.456q-.58-.298-1.294-.527-.708-.23-1.709-.23-1.118 0-1.611.313-.488.307-.488.947 0 .38.18.64.181.258.508.468.332.21.762.381t.952.352q1.08.4 1.875.79.8.387 1.333.909.532.517.791 1.22.259.699.259 1.7 0 1.938-1.363 3.008-1.357 1.069-4.096 1.069-.923 0-1.665-.112-.737-.108-1.309-.264-.566-.161-.976-.342-.41-.18-.689-.341l.88-2.481q.62.342 1.527.615.909.269 2.232.269m10.2-2.803q0 2.861 2.12 2.861.459 0 .908-.117.454-.122.732-.303v-5.38q-.22-.04-.561-.069-.337-.03-.738-.03-1.22 0-1.84.831-.62.83-.62 2.207m-3.042-.078q0-1.22.372-2.231.37-1.011 1.069-1.739.703-.732 1.719-1.133 1.02-.4 2.324-.4.537 0 1.128.054.59.049 1.157.132.571.078 1.089.19.522.107.923.225v13.862H41v-3.96q-.498.22-1.04.337-.542.122-1.162.122-2.236 0-3.418-1.47t-1.182-3.99m21.563 4.897q-.762.22-1.963.41-1.196.191-2.52.191-1.337 0-2.231-.356-.889-.362-1.411-1.011-.518-.654-.738-1.553t-.22-1.977v-5.86h2.984v5.498q0 1.44.376 2.08.381.64 1.421.64.322 0 .679-.03.361-.029.644-.073v-8.115h2.979zm6.819-1.718q.44 0 .84-.02t.64-.058v-2.261q-.181-.04-.543-.078-.356-.044-.659-.044-.42 0-.79.053-.367.05-.65.19-.279.138-.44.377-.156.24-.156.6 0 .699.469.972.469.269 1.289.269m-.24-8.721q1.319 0 2.198.303.884.297 1.411.859.532.557.752 1.358.22.8.22 1.782v6.2q-.64.138-1.783.328-1.137.19-2.758.19-1.02 0-1.85-.18t-1.432-.591-.922-1.07q-.318-.659-.318-1.62 0-.918.371-1.558t.992-1.02q.62-.382 1.42-.547.801-.171 1.66-.171.577 0 1.026.048.454.05.732.127v-.278q0-.762-.459-1.22-.459-.46-1.601-.46-.757 0-1.5.113-.741.107-1.279.307l-.38-2.397q.258-.083.65-.171.39-.093.849-.161t.966-.117q.513-.054 1.036-.054m13.62 2.92q-.401-.098-.943-.205-.537-.112-1.157-.112-.279 0-.67.048-.39.05-.59.108v8.042H69.62v-9.961q.801-.279 1.89-.528 1.089-.254 2.427-.254.244 0 .58.035.343.029.68.078.341.049.678.122.342.068.586.166zm1.598 2.7q0-1.401.43-2.451t1.128-1.748q.703-.698 1.611-1.06.913-.361 1.875-.361 2.237 0 3.535 1.372 1.304 1.367 1.304 4.028 0 .26-.02.572-.019.307-.043.547H80.62q.097.922.86 1.464.761.537 2.04.537.82 0 1.607-.146.79-.151 1.294-.371l.4 2.417q-.24.122-.64.244-.4.117-.893.205-.488.093-1.05.151-.557.059-1.118.059-1.421 0-2.47-.42t-1.744-1.147q-.689-.733-1.02-1.729-.328-1-.328-2.163m7.002-1.138q-.02-.38-.132-.742-.107-.361-.336-.64-.23-.278-.582-.459-.351-.18-.869-.18-.503 0-.864.17-.356.172-.596.45-.239.278-.37.65-.133.37-.191.751z"/></svg>