<svg xmlns="http://www.w3.org/2000/svg" viewBox="0 0 110 110"><path fill="#9c1010" d="M65.034 63.484 52.87 57.628q-.24-.053-.476-.117-.237-.064-.471-.14-.234-.075-.463-.162-.23-.086-.455-.184-.225-.099-.445-.208t-.434-.228-.423-.25-.41-.27-.396-.29q-.194-.15-.381-.309t-.366-.327-.349-.345-.332-.362-.314-.377-.294-.392-.276-.407q-.132-.206-.255-.42-.122-.212-.234-.43-.112-.22-.212-.443-.101-.224-.191-.452-.09-.229-.168-.461-.079-.233-.146-.47-.067-.235-.122-.475-.055-.239-.099-.48-.043-.242-.075-.485-.031-.244-.051-.489-.02-.244-.027-.49-.008-.245-.003-.49.004-.246.02-.49.017-.246.046-.49.028-.243.069-.485.04-.243.092-.482l-.263-13.498 12.164 5.856q.24.053.476.117.237.064.471.14.234.075.463.162.23.087.455.185t.445.207.434.228.423.25.41.27.396.29.381.31q.187.158.366.326.179.169.349.345.17.177.332.362.161.185.314.377.152.193.294.393.143.2.276.406.132.207.255.42.122.212.234.43.112.22.212.443.101.224.191.453.09.228.168.46.079.233.146.47t.122.475.099.48.075.486.051.488.027.49q.008.245.003.49-.004.246-.02.491-.017.245-.046.489t-.069.486-.092.482z"/><path fill="#7e0d0d" d="M64.105 65.415 51.94 59.558l.93-1.93-.457 2.093q-4.914-1.07-7.632-5.303t-1.646-9.147l2.093.457-2.142.041-.264-13.497q-.002-.106.007-.21.008-.106.026-.21.019-.103.048-.204.028-.101.066-.2.039-.097.087-.191t.104-.183.122-.171.138-.159.153-.144q.08-.068.167-.128.086-.06.178-.112.092-.051.188-.094.097-.042.197-.074.1-.033.203-.055.103-.023.207-.035.105-.013.21-.015.511-.01.971.212l12.164 5.857-.93 1.93.457-2.093q4.914 1.07 7.632 5.303t1.646 9.147l-2.093-.456 2.142-.042.264 13.498q.002.105-.007.21-.008.105-.026.208-.019.104-.048.205-.028.102-.066.2t-.087.191-.104.183q-.057.089-.122.171t-.138.159-.153.144-.167.129-.178.111-.188.094-.197.074-.203.056-.207.034-.21.015q-.511.01-.971-.212m1.859-3.861-.93 1.93-2.142.042-.264-13.497q-.005-.252.049-.499.693-3.18-1.065-5.918t-4.939-3.432q-.246-.053-.473-.163l-12.164-5.856.93-1.931 2.142-.042.264 13.498q.005.252-.049.498-.693 3.18 1.065 5.918t4.939 3.432q.246.054.473.163z"/><path fill="none" stroke="#000" stroke-linecap="round" stroke-linejoin="round" stroke-width="2.4" d="M33.502 86.716V72.853h9.277v2.623h-6.157v2.9H42.1v2.622h-5.478v5.718zm15.298-2.08q.44 0 .84-.02t.64-.058v-2.261q-.181-.04-.543-.078-.356-.044-.659-.044-.42 0-.79.053-.367.05-.65.19-.279.138-.44.377-.156.24-.156.6 0 .699.469.972.469.269 1.289.269m-.24-8.721q1.319 0 2.198.303.884.297 1.411.859.532.557.752 1.358.22.8.22 1.782v6.2q-.64.138-1.782.328-1.138.19-2.76.19-1.02 0-1.85-.18t-1.43-.591-.923-1.07q-.318-.659-.318-1.62 0-.918.371-1.558t.992-1.02q.62-.382 1.42-.547.801-.171 1.66-.171.577 0 1.026.048.454.05.732.127v-.278q0-.762-.459-1.22-.459-.46-1.601-.46-.757 0-1.5.113-.741.107-1.279.307l-.38-2.397q.258-.083.65-.171.39-.093.849-.161t.966-.117q.513-.054 1.036-.054m7.281.64q.757-.22 1.958-.41 1.202-.191 2.52-.191 1.343 0 2.231.352.889.351 1.407.99.522.64.742 1.52.22.878.22 1.957v5.943h-2.98v-5.581q0-1.44-.38-2.037-.382-.6-1.422-.6-.317 0-.678.03-.362.028-.64.068v8.12h-2.98zm14.32 4.56q0 2.5 2.02 2.5.46 0 .86-.117.4-.122.679-.283v-4.761q-.22-.04-.523-.068-.297-.03-.698-.03-1.181 0-1.762.782-.577.776-.577 1.977m6.537 4.282q0 2.579-1.308 3.829t-4.048 1.25q-.962 0-1.924-.171-.957-.171-1.777-.45l.517-2.5q.704.279 1.47.44.772.16 1.753.16 1.28 0 1.807-.56.532-.557.532-1.441v-.376q-.479.22-.991.332-.508.108-1.109.108-2.182 0-3.344-1.29-1.158-1.293-1.158-3.613 0-1.157.362-2.11.361-.951 1.05-1.63.688-.679 1.689-1.05t2.26-.371q.543 0 1.11.054.57.049 1.127.132.562.078 1.07.19.512.107.912.225z"/><path fill="#fff" d="M33.502 86.716V72.853h9.277v2.623h-6.157v2.9H42.1v2.622h-5.478v5.718zm15.298-2.08q.44 0 .84-.02t.64-.058v-2.261q-.181-.04-.543-.078-.356-.044-.659-.044-.42 0-.79.053-.367.05-.65.19-.279.138-.44.377-.156.24-.156.6 0 .699.469.972.469.269 1.289.269m-.24-8.721q1.319 0 2.198.303.884.297 1.411.859.532.557.752 1.358.22.8.22 1.782v6.2q-.64.138-1.782.328-1.138.19-2.76.19-1.02 0-1.85-.18t-1.43-.591-.923-1.07q-.318-.659-.318-1.62 0-.918.371-1.558t.992-1.02q.62-.382 1.42-.547.801-.171 1.66-.171.577 0 1.026.048.454.05.732.127v-.278q0-.762-.459-1.22-.459-.46-1.601-.46-.757 0-1.5.113-.741.107-1.279.307l-.38-2.397q.258-.083.65-.171.39-.093.849-.161t.966-.117q.513-.054 1.036-.054m7.281.64q.757-.22 1.958-.41 1.202-.191 2.52-.191 1.343 0 2.231.352.889.351 1.407.99.522.64.742 1.52.22.878.22 1.957v5.943h-2.98v-5.581q0-1.44-.38-2.037-.382-.6-1.422-.6-.317 0-.678.03-.362.028-.64.068v8.12h-2.98zm14.32 4.56q0 2.5 2.02 2.5.46 0 .86-.117.4-.122.679-.283v-4.761q-.22-.04-.523-.068-.297-.03-.698-.03-1.181 0-1.762.782-.577.776-.577 1.977m6.537 4.282q0 2.579-1.308 3.829t-4.048 1.25q-.962 0-1.924-.171-.957-.171-1.777-.45l.517-2.5q.704.279 1.47.44.772.16 1.753.16 1.28 0 1.807-.56.532-.557.532-1.441v-.376q-.479.22-.991.332-.508.108-1.109.108-2.182 0-3.344-1.29-1.158-1.293-1.158-3.613 0-1.157.362-2.11.361-.951 1.05-1.63.688-.679 1.689-1.05t2.26-.371q.543 0 1.11.054.57.049 1.127.132.562.078 1.07.19.512.107.912.225z"/></svg>