<svg xmlns="http://www.w3.org/2000/svg" viewBox="0 0 110 110"><path fill="#f0bd48" d="M86.429 47.857q0 .42-.021.841-.02.42-.062.84-.041.418-.103.834-.062.417-.144.83-.082.412-.184.82-.102.409-.225.811-.122.403-.264.8-.141.396-.302.784-.161.39-.341.77t-.379.751q-.198.371-.414.732-.217.361-.45.711-.234.35-.485.688-.25.338-.518.663-.267.326-.55.638-.282.311-.58.609-.297.297-.609.58t-.637.55-.663.517-.688.485-.711.45-.732.415-.752.378-.769.341-.785.303-.799.264-.81.224q-.41.103-.822.185-.413.082-.829.143-.416.062-.835.103-.419.042-.84.062-.42.02-.84.02-.421 0-.841-.02t-.84-.062q-.418-.04-.835-.103-.416-.061-.829-.143-.412-.082-.82-.185-.409-.102-.812-.224-.402-.122-.799-.264-.396-.142-.785-.303-.388-.161-.769-.34-.38-.18-.751-.38-.372-.198-.732-.414-.361-.216-.711-.45t-.688-.485-.664-.517-.637-.55-.61-.58-.58-.61-.549-.637-.518-.663-.484-.688-.45-.71-.415-.733-.378-.751-.341-.77q-.161-.388-.303-.785-.142-.396-.264-.799-.122-.402-.224-.81t-.185-.822-.144-.829-.103-.835q-.04-.418-.061-.839-.021-.42-.021-.84 0-.422.02-.842.021-.42.062-.84.042-.418.103-.834.062-.417.144-.83.082-.412.185-.82.102-.408.224-.811t.264-.8q.142-.395.303-.784.16-.389.34-.77.18-.38.379-.751.198-.371.415-.732t.45-.71.484-.689.518-.663.55-.637q.282-.312.58-.61.297-.297.61-.58.311-.283.636-.55.326-.266.664-.517.338-.25.688-.485.35-.233.71-.45.361-.216.733-.415.37-.198.751-.378.38-.18.77-.34.388-.162.784-.304.397-.141.8-.264.402-.122.81-.224t.821-.184.83-.144.834-.103q.42-.041.84-.062t.84-.02.842.02.839.062q.419.041.835.103t.83.144.82.184.811.224q.403.123.799.264t.785.303.77.341.75.378.733.415q.36.217.71.45.35.234.689.485.338.25.663.518.325.266.637.55.312.282.61.58.297.297.58.609.282.311.55.637.266.325.517.663.25.338.484.688t.45.71q.217.362.415.733.199.371.379.752.18.38.34.769.162.389.303.785.142.396.264.799t.225.81q.102.409.184.822.082.412.144.829.062.416.103.835t.062.839.02.841"/><path fill="none" stroke="#c2993a" stroke-linecap="round" stroke-linejoin="round" stroke-width="5.714" d="M86.429 47.857q0 .42-.021.841-.02.42-.062.84-.041.418-.103.834-.062.417-.144.83-.082.412-.184.82-.102.409-.225.811-.122.403-.264.8-.141.396-.302.784-.161.39-.341.77t-.379.751q-.198.371-.414.732-.217.361-.45.711-.234.35-.485.688-.25.338-.518.663-.267.326-.55.638-.282.311-.58.609-.297.297-.609.58t-.637.55-.663.517-.688.485-.711.45-.732.415-.752.378-.769.341-.785.303-.799.264-.81.224q-.41.103-.822.185-.413.082-.829.143-.416.062-.835.103-.419.042-.84.062-.42.02-.84.02-.421 0-.841-.02t-.84-.062q-.418-.04-.835-.103-.416-.061-.829-.143-.412-.082-.82-.185-.409-.102-.812-.224-.402-.122-.799-.264-.396-.142-.785-.303-.388-.161-.769-.34-.38-.18-.751-.38-.372-.198-.732-.414-.361-.216-.711-.45t-.688-.485-.664-.517-.637-.55-.61-.58-.58-.61-.549-.637-.518-.663-.484-.688-.45-.71-.415-.733-.378-.751-.341-.77q-.161-.388-.303-.785-.142-.396-.264-.799-.122-.402-.224-.81t-.185-.822-.144-.829-.103-.835q-.04-.418-.061-.839-.021-.42-.021-.84 0-.422.02-.842.021-.42.062-.84.042-.418.103-.834.062-.417.144-.83.082-.412.185-.82.102-.408.224-.811t.264-.8q.142-.395.303-.784.16-.389.34-.77.18-.38.379-.751.198-.371.415-.732t.45-.71.484-.689.518-.663.55-.637q.282-.312.58-.61.297-.297.61-.58.311-.283.636-.55.326-.266.664-.517.338-.25.688-.485.35-.233.71-.45.361-.216.733-.415.37-.198.751-.378.38-.18.77-.34.388-.162.784-.304.397-.141.8-.264.402-.122.81-.224t.821-.184.83-.144.834-.103q.42-.041.84-.062t.84-.02.842.02.839.062q.419.041.835.103t.83.144.82.184.811.224q.403.123.799.264t.785.303.77.341.75.378.733.415q.36.217.71.45.35.234.689.485.338.25.663.518.325.266.637.55.312.282.61.58.297.297.58.609.282.311.55.637.266.325.517.663.25.338.484.688t.45.71q.217.362.415.733.199.371.379.752.18.38.34.769.162.389.303.785.142.396.264.799t.225.81q.102.409.184.822.082.412.144.829.062.416.103.835t.062.839.02.841"/><path fill="#39b54a" d="M77.857 39.286c11.502-.928 10.383 9.94 13.211 15.302-6.141-1.9-17.791-7.747-13.21-15.302"/><path fill="#2e933c" d="M77.685 37.15q6.81-.55 10.29 3.763 1.924 2.382 3.49 8.214.887 3.302 1.498 4.46.05.094.09.191.04.098.069.199.03.1.05.204t.03.208.009.21q0 .106-.012.21-.01.105-.032.208-.02.103-.052.204-.03.1-.072.197-.04.097-.09.19t-.11.18-.126.168-.142.155-.157.14-.17.125q-.087.058-.18.107-.187.098-.39.159-.201.06-.412.08-.21.019-.42-.003t-.411-.084q-6.903-2.136-11.382-5.945-7.003-5.958-3.028-12.515.132-.218.31-.398.18-.18.396-.315.217-.133.458-.213t.496-.1m.344 4.272-.172-2.136 1.833 1.11q-2.083 3.436 2.14 7.03 3.809 3.239 9.871 5.114l-.633 2.048-1.895 1q-.835-1.584-1.847-5.35-1.331-4.956-2.685-6.633-2.059-2.55-6.612-2.183"/><path fill="#f0bd48" d="M39.286 75.075q-.365-.21-.718-.438-.354-.228-.696-.474t-.672-.506-.646-.54-.619-.57-.59-.6q-.288-.306-.56-.627t-.528-.655-.496-.68-.462-.703-.426-.726-.39-.745-.354-.764-.316-.78-.277-.794-.238-.807-.197-.818q-.09-.411-.158-.827-.068-.415-.116-.833-.049-.418-.076-.838-.028-.42-.034-.84-.007-.421.006-.842.014-.42.049-.84.034-.42.089-.837t.13-.83.171-.825.211-.814.251-.803q.135-.399.29-.79.155-.392.328-.775t.366-.758.403-.739.438-.718q.228-.353.474-.695t.506-.672q.262-.33.54-.646.277-.317.57-.619t.6-.59.627-.56.655-.528.68-.496.703-.462.726-.426.745-.391.764-.354.78-.315.794-.277.807-.238.818-.198q.411-.088.827-.157.415-.069.833-.117t.838-.075.84-.035.842.007.84.048.837.09.83.13q.415.075.825.17t.814.212.803.25q.399.136.79.29.392.155.775.33.383.173.758.365.374.192.739.403.364.21.718.438.353.228.695.473.342.246.672.507.33.262.646.54.317.277.619.57t.59.6.56.627.528.655.496.68.462.703.426.726.391.745.354.763.315.78.277.795.238.807.198.818q.088.411.157.826.069.416.117.834t.075.838.035.84-.007.842q-.014.42-.048.84-.035.42-.09.837t-.13.83q-.075.415-.17.825t-.212.814-.25.803q-.136.399-.29.79-.155.392-.33.775-.173.383-.365.758-.192.374-.403.738-.21.365-.438.718-.228.354-.473.696-.246.342-.507.672-.262.33-.54.646-.277.316-.57.619-.292.302-.6.59-.306.288-.627.56t-.655.528-.68.496-.703.462-.726.426-.745.39-.763.354-.78.316-.795.277-.807.238-.818.197q-.411.09-.826.158-.416.068-.834.116-.418.049-.838.076-.42.028-.84.034-.421.007-.842-.006-.42-.014-.84-.049-.42-.034-.837-.089t-.83-.13-.825-.171-.814-.211-.803-.251q-.399-.135-.79-.29-.392-.155-.775-.328t-.758-.366-.738-.403"/><path fill="none" stroke="#c2993a" stroke-linecap="round" stroke-linejoin="round" stroke-width="5.714" d="M39.286 75.075q-.365-.21-.718-.438-.354-.228-.696-.474t-.672-.506-.646-.54-.619-.57-.59-.6q-.288-.306-.56-.627t-.528-.655-.496-.68-.462-.703-.426-.726-.39-.745-.354-.764-.316-.78-.277-.794-.238-.807-.197-.818q-.09-.411-.158-.827-.068-.415-.116-.833-.049-.418-.076-.838-.028-.42-.034-.84-.007-.421.006-.842.014-.42.049-.84.034-.42.089-.837t.13-.83.171-.825.211-.814.251-.803q.135-.399.29-.79.155-.392.328-.775t.366-.758.403-.739.438-.718q.228-.353.474-.695t.506-.672q.262-.33.54-.646.277-.317.57-.619t.6-.59.627-.56.655-.528.68-.496.703-.462.726-.426.745-.391.764-.354.78-.315.794-.277.807-.238.818-.198q.411-.088.827-.157.415-.069.833-.117t.838-.075.84-.035.842.007.84.048.837.09.83.13q.415.075.825.17t.814.212.803.25q.399.136.79.29.392.155.775.33.383.173.758.365.374.192.739.403.364.21.718.438.353.228.695.473.342.246.672.507.33.262.646.54.317.277.619.57t.59.6.56.627.528.655.496.68.462.703.426.726.391.745.354.763.315.78.277.795.238.807.198.818q.088.411.157.826.069.416.117.834t.075.838.035.84-.007.842q-.014.42-.048.84-.035.42-.09.837t-.13.83q-.075.415-.17.825t-.212.814-.25.803q-.136.399-.29.79-.155.392-.33.775-.173.383-.365.758-.192.374-.403.738-.21.365-.438.718-.228.354-.473.696-.246.342-.507.672-.262.33-.54.646-.277.316-.57.619-.292.302-.6.59-.306.288-.627.56t-.655.528-.68.496-.703.462-.726.426-.745.39-.763.354-.78.316-.795.277-.807.238-.818.197q-.411.09-.826.158-.416.068-.834.116-.418.049-.838.076-.42.028-.84.034-.421.007-.842-.006-.42-.014-.84-.049-.42-.034-.837-.089t-.83-.13-.825-.171-.814-.211-.803-.251q-.399-.135-.79-.29-.392-.155-.775-.328t-.758-.366-.738-.403"/><path fill="#39b54a" d="M50.995 71.938c-4.948 10.425-13.801 4.021-19.858 3.79 4.716-4.369 15.604-11.534 19.858-3.79"/><path fill="#2e933c" d="M52.93 72.856q-2.929 6.173-8.404 7.031-3.025.474-8.858-1.085-3.303-.883-4.613-.933-.105-.004-.209-.018t-.207-.039-.202-.059-.195-.078-.186-.097-.176-.115-.164-.132q-.08-.07-.15-.147-.072-.077-.136-.161-.063-.084-.119-.174t-.1-.184q-.047-.095-.083-.193-.037-.1-.064-.2-.026-.103-.043-.207t-.023-.209-.002-.21q.008-.21.057-.416.05-.205.137-.397.089-.192.212-.363.124-.17.28-.314 5.3-4.91 10.838-6.884 8.662-3.087 12.353 3.634.122.223.19.469.066.245.073.5.008.254-.044.503-.053.249-.162.478m-3.87-1.836 1.936.919-1.879 1.031q-1.934-3.521-7.157-1.66-4.71 1.678-9.365 5.99l-1.457-1.571.082-2.142q1.789.069 5.556 1.076 4.958 1.325 7.087.991 3.238-.507 5.197-4.634"/><path fill="#f0bd48" d="M39.286 20.64q.364-.211.738-.403.375-.193.758-.366.383-.174.775-.329.391-.154.79-.29.398-.135.803-.25.405-.116.814-.212.41-.095.824-.17t.831-.13q.418-.056.837-.09.42-.034.84-.048t.842-.007q.42.007.84.034t.838.076.834.117.826.157q.412.089.818.198t.807.237q.4.129.795.277.394.149.78.316t.763.353.745.391.726.427.703.461q.346.24.68.496t.655.529.628.56.6.59q.292.302.57.618.277.317.539.646.261.33.507.672.245.342.473.696t.438.718.403.739.366.757.328.775.29.79.251.803.211.815.171.824.13.83.09.837.048.84.007.842q-.007.42-.035.84-.027.42-.075.839-.048.418-.117.833t-.157.826q-.09.412-.198.818-.11.407-.238.807-.129.401-.277.795t-.315.78-.354.763-.39.746-.427.725-.462.703-.496.68-.528.655-.56.628-.59.6-.619.57-.646.54q-.33.26-.672.506-.342.245-.695.473-.354.228-.718.439-.365.21-.74.402-.374.193-.757.366-.383.174-.775.329-.391.154-.79.29-.398.135-.803.25-.404.116-.814.211-.41.096-.824.171t-.831.13-.837.09-.84.048-.841.007-.841-.034-.838-.076-.833-.117-.827-.157-.818-.198-.807-.238q-.4-.128-.794-.276t-.78-.316-.764-.354-.745-.39-.726-.427-.703-.462-.68-.495-.655-.529q-.32-.272-.628-.56-.307-.287-.6-.59-.292-.302-.57-.619-.277-.316-.539-.646-.261-.33-.506-.671-.246-.342-.474-.696t-.438-.718q-.21-.365-.403-.739-.192-.374-.366-.758-.173-.383-.328-.774-.155-.392-.29-.79-.135-.399-.25-.803-.116-.405-.212-.815t-.17-.824-.131-.831-.09-.837-.048-.84-.006-.841q.006-.42.034-.84.027-.42.076-.839.048-.418.116-.833.069-.415.158-.827.088-.411.197-.818t.238-.807.277-.794.316-.78.353-.764q.186-.377.39-.745t.427-.725.462-.704.496-.68.528-.654.56-.628.59-.6.619-.57.646-.54q.33-.26.672-.506.342-.245.696-.473t.718-.439"/><path fill="none" stroke="#c2993a" stroke-linecap="round" stroke-linejoin="round" stroke-width="5.714" d="M39.286 20.64q.364-.211.738-.403.375-.193.758-.366.383-.174.775-.329.391-.154.79-.29.398-.135.803-.25.405-.116.814-.212.41-.095.824-.17t.831-.13q.418-.056.837-.09.42-.034.84-.048t.842-.007q.42.007.84.034t.838.076.834.117.826.157q.412.089.818.198t.807.237q.4.129.795.277.394.149.78.316t.763.353.745.391.726.427.703.461q.346.24.68.496t.655.529.628.56.6.59q.292.302.57.618.277.317.539.646.261.33.507.672.245.342.473.696t.438.718.403.739.366.757.328.775.29.79.251.803.211.815.171.824.13.83.09.837.048.84.007.842q-.007.42-.035.84-.027.42-.075.839-.048.418-.117.833t-.157.826q-.09.412-.198.818-.11.407-.238.807-.129.401-.277.795t-.315.78-.354.763-.39.746-.427.725-.462.703-.496.68-.528.655-.56.628-.59.6-.619.57-.646.54q-.33.26-.672.506-.342.245-.695.473-.354.228-.718.439-.365.21-.74.402-.374.193-.757.366-.383.174-.775.329-.391.154-.79.29-.398.135-.803.25-.404.116-.814.211-.41.096-.824.171t-.831.13-.837.09-.84.048-.841.007-.841-.034-.838-.076-.833-.117-.827-.157-.818-.198-.807-.238q-.4-.128-.794-.276t-.78-.316-.764-.354-.745-.39-.726-.427-.703-.462-.68-.495-.655-.529q-.32-.272-.628-.56-.307-.287-.6-.59-.292-.302-.57-.619-.277-.316-.539-.646-.261-.33-.506-.671-.246-.342-.474-.696t-.438-.718q-.21-.365-.403-.739-.192-.374-.366-.758-.173-.383-.328-.774-.155-.392-.29-.79-.135-.399-.25-.803-.116-.405-.212-.815t-.17-.824-.131-.831-.09-.837-.048-.84-.006-.841q.006-.42.034-.84.027-.42.076-.839.048-.418.116-.833.069-.415.158-.827.088-.411.197-.818t.238-.807.277-.794.316-.78.353-.764q.186-.377.39-.745t.427-.725.462-.704.496-.68.528-.654.56-.628.59-.6.619-.57.646-.54q.33-.26.672-.506.342-.245.696-.473t.718-.439"/><path fill="#39b54a" d="M36.148 32.348c-6.554-9.497 3.418-13.963 6.647-19.092 1.425 6.269 2.187 19.28-6.647 19.092"/><path fill="#2e933c" d="M34.385 33.565q-3.881-5.623-1.887-10.794 1.102-2.856 5.37-7.129 2.415-2.419 3.113-3.527.056-.09.12-.173.065-.083.138-.16.072-.076.152-.145t.165-.13.177-.113.188-.095.196-.076.203-.056q.102-.024.207-.037.104-.013.21-.016.105-.003.21.005.105.007.208.025.104.018.206.045.101.028.2.066.098.037.192.084t.183.104q.179.112.332.257t.275.318.208.364.133.399q1.602 7.046.542 12.829-1.658 9.044-9.323 8.88-.255-.005-.5-.07-.247-.065-.47-.185-.225-.121-.414-.29-.19-.17-.334-.38m3.527-2.434-1.764 1.217.046-2.142q4.017.086 5.017-5.369.901-4.918-.506-11.106l2.09-.475 1.813 1.142q-.953 1.515-3.709 4.273-3.626 3.631-4.402 5.643-1.18 3.057 1.415 6.817"/><path fill="none" stroke="#000" stroke-linecap="round" stroke-linejoin="round" stroke-width="2.4" d="M23.899 79.777q0 1.02.249 1.841.254.816.722 1.406.47.591 1.148.913.683.318 1.562.318.86 0 1.548-.318.694-.322 1.162-.913.47-.59.718-1.406.254-.82.254-1.84t-.254-1.851q-.249-.83-.718-1.421t-1.162-.908q-.688-.323-1.548-.323-.878 0-1.562.332-.679.328-1.148.918t-.722 1.421q-.25.83-.25 1.831m10.58 0q0 1.778-.531 3.13-.528 1.348-1.45 2.26-.919.91-2.188 1.368t-2.73.459q-1.42 0-2.68-.459t-2.202-1.367q-.938-.913-1.48-2.26-.537-1.353-.537-3.13 0-1.783.557-3.13.561-1.353 1.508-2.271.953-.923 2.203-1.382t2.631-.459q1.421 0 2.681.459t2.197 1.382q.943.918 1.48 2.27.542 1.348.542 3.13m8.74-.942q-.4-.098-.942-.205-.537-.112-1.157-.112-.279 0-.67.048-.39.05-.59.108v8.042h-2.98v-9.961q.801-.279 1.89-.528 1.089-.254 2.427-.254.244 0 .58.035.343.029.68.078.341.049.678.122.342.068.586.166zm6.12 5.8q.44 0 .84-.019.401-.02.64-.058v-2.261q-.18-.04-.542-.078-.356-.044-.659-.044-.42 0-.79.053-.367.05-.65.19-.279.138-.44.377-.156.24-.156.6 0 .699.469.972.469.269 1.289.269m-.238-8.72q1.318 0 2.197.303.884.297 1.411.859.532.557.752 1.358.22.8.22 1.782v6.2q-.64.138-1.782.328-1.138.19-2.76.19-1.02 0-1.85-.18t-1.43-.591-.923-1.07q-.318-.659-.318-1.62 0-.918.371-1.558t.992-1.02q.62-.382 1.42-.547.801-.171 1.66-.171.577 0 1.026.048.454.05.732.127v-.278q0-.762-.459-1.22-.459-.46-1.601-.46-.757 0-1.5.113-.741.107-1.279.307l-.38-2.397q.258-.083.65-.171.39-.093.849-.161t.967-.117q.512-.054 1.035-.054m7.28.64q.757-.22 1.958-.41 1.202-.191 2.52-.191 1.343 0 2.231.352.889.351 1.407.99.522.64.742 1.52.22.878.22 1.957v5.943h-2.98v-5.581q0-1.44-.38-2.037-.382-.6-1.422-.6-.317 0-.678.03-.362.028-.64.068v8.12h-2.98zm14.32 4.56q0 2.5 2.02 2.5.46 0 .86-.117.4-.122.679-.283v-4.761q-.22-.04-.523-.068-.297-.03-.698-.03-1.181 0-1.763.782-.576.776-.576 1.977m6.538 4.282q0 2.579-1.31 3.829-1.308 1.25-4.047 1.25-.962 0-1.924-.171-.957-.171-1.777-.45l.517-2.5q.704.279 1.47.44.772.16 1.753.16 1.28 0 1.807-.56.532-.557.532-1.441v-.376q-.479.22-.991.332-.508.108-1.109.108-2.182 0-3.344-1.29-1.158-1.293-1.158-3.613 0-1.157.362-2.11.361-.951 1.05-1.63.688-.679 1.689-1.05 1-.371 2.26-.371.543 0 1.11.054.57.049 1.127.132.562.078 1.07.19.512.107.913.225zm2.3-3.862q0-1.401.43-2.451.429-1.05 1.127-1.748.703-.698 1.611-1.06.913-.361 1.875-.361 2.237 0 3.536 1.372 1.303 1.367 1.303 4.028 0 .26-.02.572-.019.307-.043.547H82.6q.097.922.86 1.464.761.537 2.04.537.82 0 1.607-.146.79-.151 1.294-.371l.4 2.417q-.24.122-.64.244-.4.117-.893.205-.488.093-1.05.151-.557.059-1.118.059-1.421 0-2.47-.42t-1.744-1.147q-.689-.733-1.02-1.729-.328-1-.328-2.163m7.001-1.138q-.02-.38-.132-.742-.107-.361-.336-.64-.23-.278-.582-.459-.351-.18-.869-.18-.503 0-.864.17-.356.172-.596.45-.239.278-.37.65-.132.37-.191.751z"/><path fill="#fff" d="M23.899 79.777q0 1.02.249 1.841.254.816.722 1.406.47.591 1.148.913.683.318 1.562.318.86 0 1.548-.318.694-.322 1.162-.913.47-.59.718-1.406.254-.82.254-1.84t-.254-1.851q-.249-.83-.718-1.421t-1.162-.908q-.688-.323-1.548-.323-.878 0-1.562.332-.679.328-1.148.918t-.722 1.421q-.25.83-.25 1.831m10.58 0q0 1.778-.531 3.13-.528 1.348-1.45 2.26-.919.91-2.188 1.368t-2.73.459q-1.42 0-2.68-.459t-2.202-1.367q-.938-.913-1.48-2.26-.537-1.353-.537-3.13 0-1.783.557-3.13.561-1.353 1.508-2.271.953-.923 2.203-1.382t2.631-.459q1.421 0 2.681.459t2.197 1.382q.943.918 1.48 2.27.542 1.348.542 3.13m8.74-.942q-.4-.098-.942-.205-.537-.112-1.157-.112-.279 0-.67.048-.39.05-.59.108v8.042h-2.98v-9.961q.801-.279 1.89-.528 1.089-.254 2.427-.254.244 0 .58.035.343.029.68.078.341.049.678.122.342.068.586.166zm6.12 5.8q.44 0 .84-.019.401-.02.64-.058v-2.261q-.18-.04-.542-.078-.356-.044-.659-.044-.42 0-.79.053-.367.05-.65.19-.279.138-.44.377-.156.24-.156.6 0 .699.469.972.469.269 1.289.269m-.238-8.72q1.318 0 2.197.303.884.297 1.411.859.532.557.752 1.358.22.8.22 1.782v6.2q-.64.138-1.782.328-1.138.19-2.76.19-1.02 0-1.85-.18t-1.43-.591-.923-1.07q-.318-.659-.318-1.62 0-.918.371-1.558t.992-1.02q.62-.382 1.42-.547.801-.171 1.66-.171.577 0 1.026.048.454.05.732.127v-.278q0-.762-.459-1.22-.459-.46-1.601-.46-.757 0-1.5.113-.741.107-1.279.307l-.38-2.397q.258-.083.65-.171.39-.093.849-.161t.967-.117q.512-.054 1.035-.054m7.28.64q.757-.22 1.958-.41 1.202-.191 2.52-.191 1.343 0 2.231.352.889.351 1.407.99.522.64.742 1.52.22.878.22 1.957v5.943h-2.98v-5.581q0-1.44-.38-2.037-.382-.6-1.422-.6-.317 0-.678.03-.362.028-.64.068v8.12h-2.98zm14.32 4.56q0 2.5 2.02 2.5.46 0 .86-.117.4-.122.679-.283v-4.761q-.22-.04-.523-.068-.297-.03-.698-.03-1.181 0-1.763.782-.576.776-.576 1.977m6.538 4.282q0 2.579-1.31 3.829-1.308 1.25-4.047 1.25-.962 0-1.924-.171-.957-.171-1.777-.45l.517-2.5q.704.279 1.47.44.772.16 1.753.16 1.28 0 1.807-.56.532-.557.532-1.441v-.376q-.479.22-.991.332-.508.108-1.109.108-2.182 0-3.344-1.29-1.158-1.293-1.158-3.613 0-1.157.362-2.11.361-.951 1.05-1.63.688-.679 1.689-1.05 1-.371 2.26-.371.543 0 1.11.054.57.049 1.127.132.562.078 1.07.19.512.107.913.225zm2.3-3.862q0-1.401.43-2.451.429-1.05 1.127-1.748.703-.698 1.611-1.06.913-.361 1.875-.361 2.237 0 3.536 1.372 1.303 1.367 1.303 4.028 0 .26-.02.572-.019.307-.043.547H82.6q.097.922.86 1.464.761.537 2.04.537.82 0 1.607-.146.79-.151 1.294-.371l.4 2.417q-.24.122-.64.244-.4.117-.893.205-.488.093-1.05.151-.557.059-1.118.059-1.421 0-2.47-.42t-1.744-1.147q-.689-.733-1.02-1.729-.328-1-.328-2.163m7.001-1.138q-.02-.38-.132-.742-.107-.361-.336-.64-.23-.278-.582-.459-.351-.18-.869-.18-.503 0-.864.17-.356.172-.596.45-.239.278-.37.65-.132.37-.191.751z"/></svg>