<svg xmlns="http://www.w3.org/2000/svg" viewBox="0 0 110 110"><path fill="#cfcfcf" d="M55.597 32.073q2.64 13.706 14.004 21.81l-2.074 2.908.061-3.571q5.346.092 7.888 3.568 2.356 3.223 1.098 7.216-1.24 3.934-4.886 5.23-4.115 1.463-8.123-1.766l2.241-2.782 3.461-.88q1.269 4.989-1.773 8.121-2.696 2.776-6.79 2.267-4.154-.518-6.104-4.002-2.103-3.758.038-8.657l3.272 1.43-3.507.676q-2.64-13.706-14.004-21.81l2.074-2.907-.061 3.57q-5.346-.092-7.888-3.568-2.356-3.223-1.098-7.216 1.24-3.934 4.886-5.23 4.115-1.463 8.123 1.767l-2.241 2.78-3.461.88q-1.269-4.988 1.773-8.12 2.696-2.776 6.79-2.266 4.154.517 6.104 4 2.103 3.759-.038 8.658l-3.272-1.43zm-7.014 1.351q-.103-.532-.043-1.07.06-.539.277-1.035.72-1.647.35-2.309-.185-.33-.755-.401-.563-.07-.782.154-.259.267.025 1.384.103.403.11.82.007.415-.082.821-.088.407-.268.782t-.44.699q-.11.136-.233.261t-.258.238-.28.211q-.144.1-.298.183-.154.084-.316.153-.161.069-.329.12-.167.053-.339.09-.172.035-.346.054-.175.018-.35.02t-.35-.014-.347-.048q-.173-.033-.341-.083-.168-.049-.331-.115-.163-.065-.318-.147-.156-.08-.303-.177-.146-.096-.283-.206-.898-.724-1.248-.599-.295.105-.466.647-.172.547.051.853.448.612 2.244.643.542.009 1.057.179t.956.484q13.69 9.763 16.87 26.274.103.532.043 1.07-.06.54-.277 1.036-.72 1.647-.35 2.308.185.33.755.401.563.07.782-.154.259-.267-.025-1.384-.103-.403-.11-.819t.082-.822.268-.781q.18-.376.44-.7.11-.136.233-.261t.258-.238.28-.211.298-.183.316-.153.329-.12q.167-.053.339-.089t.346-.054.35-.02.35.013.347.049q.173.032.341.082t.331.115.318.147q.156.081.303.177.146.096.283.206.898.724 1.248.6.295-.106.466-.648.172-.547-.051-.853-.448-.612-2.244-.642-.542-.01-1.057-.18t-.956-.484q-13.69-9.763-16.87-26.274"/><path fill="#fff" d="M52.09 32.749Q55 47.857 67.527 56.79c10.3.177 5.314 13.564-1.721 7.895 2.227 8.757-12.021 7.72-7.896-1.72Q55 47.857 42.473 38.924c-10.3-.178-5.314-13.565 1.721-7.896-2.227-8.757 12.021-7.719 7.896 1.72"/><path fill="none" stroke="#000" stroke-linecap="round" stroke-linejoin="round" stroke-width="2.4" d="M36.7 86.896q-1.142 0-2.27-.073-1.128-.068-2.348-.327V73.054q.957-.176 2.094-.264 1.143-.093 2.124-.093 1.319 0 2.427.19 1.113.191 1.914.65t1.25 1.21q.45.748.45 1.847 0 1.66-1.602 2.622 1.323.498 1.802 1.362.478.86.478 1.939 0 2.177-1.592 3.28-1.587 1.1-4.726 1.1m-1.581-6.22v3.579q.341.039.742.063.4.02.879.02 1.401 0 2.26-.4.86-.401.86-1.48 0-.962-.723-1.372-.718-.41-2.055-.41zm0-2.378h1.523q1.436 0 2.056-.371t.62-1.192q0-.84-.64-1.176-.64-.342-1.88-.342-.4 0-.859.01t-.82.048zm20.041 3.14q0 1.24-.361 2.27-.361 1.025-1.04 1.758-.679.732-1.631 1.133-.947.395-2.129.395-1.157 0-2.11-.395-.951-.4-1.63-1.133t-1.06-1.758q-.38-1.03-.38-2.27t.39-2.261q.39-1.02 1.08-1.739.692-.722 1.64-1.123.952-.4 2.07-.4 1.143 0 2.09.4.952.4 1.63 1.123.68.718 1.06 1.739.381 1.02.381 2.26m-3.042 0q0-1.382-.551-2.174-.547-.79-1.568-.79t-1.582.79q-.557.792-.557 2.173 0 1.377.557 2.188.562.81 1.582.81t1.568-.81q.551-.81.551-2.188m5.343-4.883q.757-.22 1.958-.41 1.202-.191 2.52-.191 1.343 0 2.231.352.889.351 1.407.99.522.64.742 1.52.22.878.22 1.957v5.943h-2.98v-5.581q0-1.44-.38-2.037-.382-.6-1.422-.6-.317 0-.679.03-.36.028-.64.068v8.12h-2.978zm11.277 4.98q0-1.401.43-2.451t1.128-1.748q.703-.698 1.611-1.06.913-.361 1.875-.361 2.237 0 3.535 1.372 1.304 1.367 1.304 4.028 0 .26-.02.572-.019.307-.043.547H71.8q.098.922.86 1.464.761.537 2.04.537.82 0 1.607-.146.79-.151 1.294-.371l.4 2.417q-.24.122-.64.244-.4.117-.893.205-.488.093-1.05.151-.557.059-1.118.059-1.421 0-2.47-.42t-1.744-1.147q-.688-.733-1.02-1.729-.328-1-.328-2.163m7.002-1.138q-.02-.38-.131-.742-.108-.361-.337-.64-.23-.278-.582-.459-.351-.18-.869-.18-.502 0-.864.17-.356.172-.596.45-.239.278-.37.65-.132.37-.191.751z"/><path fill="#fff" d="M36.7 86.896q-1.142 0-2.27-.073-1.128-.068-2.348-.327V73.054q.957-.176 2.094-.264 1.143-.093 2.124-.093 1.319 0 2.427.19 1.113.191 1.914.65t1.25 1.21q.45.748.45 1.847 0 1.66-1.602 2.622 1.323.498 1.802 1.362.478.86.478 1.939 0 2.177-1.592 3.28-1.587 1.1-4.726 1.1m-1.581-6.22v3.579q.341.039.742.063.4.02.879.02 1.401 0 2.26-.4.86-.401.86-1.48 0-.962-.723-1.372-.718-.41-2.055-.41zm0-2.378h1.523q1.436 0 2.056-.371t.62-1.192q0-.84-.64-1.176-.64-.342-1.88-.342-.4 0-.859.01t-.82.048zm20.041 3.14q0 1.24-.361 2.27-.361 1.025-1.04 1.758-.679.732-1.631 1.133-.947.395-2.129.395-1.157 0-2.11-.395-.951-.4-1.63-1.133t-1.06-1.758q-.38-1.03-.38-2.27t.39-2.261q.39-1.02 1.08-1.739.692-.722 1.64-1.123.952-.4 2.07-.4 1.143 0 2.09.4.952.4 1.63 1.123.68.718 1.06 1.739.381 1.02.381 2.26m-3.042 0q0-1.382-.551-2.174-.547-.79-1.568-.79t-1.582.79q-.557.792-.557 2.173 0 1.377.557 2.188.562.81 1.582.81t1.568-.81q.551-.81.551-2.188m5.343-4.883q.757-.22 1.958-.41 1.202-.191 2.52-.191 1.343 0 2.231.352.889.351 1.407.99.522.64.742 1.52.22.878.22 1.957v5.943h-2.98v-5.581q0-1.44-.38-2.037-.382-.6-1.422-.6-.317 0-.679.03-.36.028-.64.068v8.12h-2.978zm11.277 4.98q0-1.401.43-2.451t1.128-1.748q.703-.698 1.611-1.06.913-.361 1.875-.361 2.237 0 3.535 1.372 1.304 1.367 1.304 4.028 0 .26-.02.572-.019.307-.043.547H71.8q.098.922.86 1.464.761.537 2.04.537.82 0 1.607-.146.79-.151 1.294-.371l.4 2.417q-.24.122-.64.244-.4.117-.893.205-.488.093-1.05.151-.557.059-1.118.059-1.421 0-2.47-.42t-1.744-1.147q-.688-.733-1.02-1.729-.328-1-.328-2.163m7.002-1.138q-.02-.38-.131-.742-.108-.361-.337-.64-.23-.278-.582-.459-.351-.18-.869-.18-.502 0-.864.17-.356.172-.596.45-.239.278-.37.65-.132.37-.191.751z"/></svg>