<svg xmlns="http://www.w3.org/2000/svg" viewBox="0 0 110 110"><path fill="#eee" d="M37.234 51.73q2.227-8.757 13.894-21.639 13.995 7.289 21.638 13.894-6.087 14.767-13.894 21.638-13.565-5.315-21.638-13.894"/><path fill="#c1c1c1" d="M35.158 51.201q2.358-9.272 14.382-22.548.118-.13.256-.24.139-.11.293-.196.154-.085.32-.145.167-.059.34-.09.175-.031.351-.033.177-.003.351.024t.342.082.325.136q14.217 7.404 22.049 14.173.127.11.235.237.108.128.195.272.087.143.15.298.065.155.103.318.04.163.052.33.013.167 0 .334t-.052.33q-.04.164-.103.318-6.277 15.23-14.46 22.43-.11.097-.232.179-.122.08-.255.144-.132.064-.272.109t-.285.07-.291.031-.293-.009-.289-.049-.28-.088q-14.013-5.49-22.416-14.42-.072-.077-.137-.16-.064-.084-.12-.173-.055-.09-.102-.184t-.084-.192-.065-.2-.045-.206-.025-.209-.003-.21q.003-.105.016-.21.014-.104.037-.206.024-.103.058-.203.033-.1.076-.196.044-.096.096-.187t.114-.177q.06-.085.13-.165t.146-.151.16-.137q.083-.064.172-.12.09-.056.184-.102.094-.047.193-.084.098-.038.2-.065t.205-.045.21-.025q.104-.007.21-.004.105.004.21.017.103.014.206.037.103.024.202.058.1.033.196.076.096.044.187.096.092.052.177.114.086.06.165.13t.152.146q7.743 8.228 20.859 13.367l-.782 1.995-1.416-1.609q7.433-6.54 13.328-20.846l1.982.817-1.402 1.621q-7.453-6.441-21.226-13.614l.99-1.9 1.588 1.438q-11.31 12.487-13.405 20.727-.026.102-.062.201-.035.1-.08.194-.046.095-.1.186-.055.09-.118.174t-.134.162-.15.148-.162.133-.176.116-.185.099-.195.08q-.1.035-.201.06-.103.025-.207.04t-.21.02q-.104.005-.21 0-.105-.006-.209-.022t-.206-.042-.2-.062-.195-.081q-.095-.045-.185-.1-.09-.054-.174-.117-.085-.063-.162-.134-.078-.071-.149-.15-.07-.078-.132-.163-.063-.084-.117-.175-.053-.09-.098-.186-.045-.095-.08-.194-.035-.1-.06-.202t-.04-.206-.02-.21 0-.21.022-.209.042-.206"/><path fill="none" stroke="#000" stroke-linecap="round" stroke-linejoin="round" stroke-width="2.4" d="M25.96 72.697q3.12 0 4.78 1.109t1.66 3.452q0 1.46-.67 2.368-.668.908-1.928 1.43.42.518.879 1.192.459.669.908 1.401.45.728.87 1.519.42.786.78 1.548h-3.5l-.772-1.377q-.386-.703-.796-1.363-.41-.659-.81-1.25-.4-.59-.801-1.069h-1.538v5.059h-3.12V73.054q1.02-.2 2.109-.279 1.089-.078 1.948-.078m.18 2.656q-.342 0-.61.025l-.508.039v3.76h.879q1.757 0 2.52-.44.76-.44.76-1.504 0-1.015-.77-1.445-.772-.435-2.271-.435m17.88 11.001q-.76.22-1.962.41-1.196.191-2.52.191-1.337 0-2.231-.356-.889-.362-1.411-1.011-.518-.654-.737-1.553-.22-.898-.22-1.977v-5.86h2.983v5.498q0 1.44.376 2.08.381.64 1.421.64.322 0 .679-.03.361-.029.644-.073v-8.115h2.979zm9.54-4.98q0-2.876-2.12-2.876-.459 0-.913.122-.449.117-.727.298v5.42q.22.039.556.068.342.03.743.03 1.22 0 1.84-.84t.62-2.222m3.042.083q0 1.26-.371 2.28-.372 1.02-1.075 1.743-.698.718-1.718 1.109-1.016.386-2.32.386-.537 0-1.128-.05-.59-.048-1.162-.131-.566-.078-1.089-.186-.517-.112-.918-.234V71.677l2.979-.479v5.24q.498-.22 1.04-.342T52 75.973q1.118 0 1.977.391.86.39 1.441 1.113.581.718.879 1.729.303 1.01.303 2.25m9.038-.083q0-2.876-2.12-2.876-.459 0-.913.122-.449.117-.727.298v5.42q.22.039.556.068.342.03.743.03 1.22 0 1.84-.84t.62-2.222m3.042.083q0 1.26-.371 2.28-.372 1.02-1.075 1.743-.698.718-1.719 1.109-1.015.386-2.319.386-.537 0-1.128-.05-.59-.048-1.162-.131-.566-.078-1.089-.186-.517-.112-.918-.234V71.677l2.979-.479v5.24q.498-.22 1.04-.342t1.162-.123q1.118 0 1.978.391.859.39 1.44 1.113.581.718.879 1.729.303 1.01.303 2.25m1.796.078q0-1.401.43-2.451t1.128-1.748q.703-.698 1.611-1.06.913-.361 1.875-.361 2.237 0 3.535 1.372 1.304 1.367 1.304 4.028 0 .26-.02.572-.019.307-.043.547H73.54q.098.922.86 1.464.761.537 2.04.537.82 0 1.607-.146.79-.151 1.294-.371l.4 2.417q-.24.122-.64.244-.4.117-.893.205-.488.093-1.05.151-.557.059-1.118.059-1.421 0-2.47-.42t-1.744-1.147q-.688-.733-1.02-1.729-.328-1-.328-2.163m7.002-1.138q-.02-.38-.132-.742-.107-.361-.336-.64-.23-.278-.582-.459-.351-.18-.869-.18-.503 0-.864.17-.356.172-.596.45-.239.278-.37.65-.132.37-.191.751zM89 78.835q-.401-.098-.943-.205-.537-.112-1.157-.112-.279 0-.67.048-.39.05-.59.108v8.042h-2.98v-9.961q.801-.279 1.89-.528 1.089-.254 2.427-.254.244 0 .58.035.343.029.68.078.341.049.678.122.342.068.586.166z"/><path fill="#fff" d="M25.96 72.697q3.12 0 4.78 1.109t1.66 3.452q0 1.46-.67 2.368-.668.908-1.928 1.43.42.518.879 1.192.459.669.908 1.401.45.728.87 1.519.42.786.78 1.548h-3.5l-.772-1.377q-.386-.703-.796-1.363-.41-.659-.81-1.25-.4-.59-.801-1.069h-1.538v5.059h-3.12V73.054q1.02-.2 2.109-.279 1.089-.078 1.948-.078m.18 2.656q-.342 0-.61.025l-.508.039v3.76h.879q1.757 0 2.52-.44.76-.44.76-1.504 0-1.015-.77-1.445-.772-.435-2.271-.435m17.88 11.001q-.76.22-1.962.41-1.196.191-2.52.191-1.337 0-2.231-.356-.889-.362-1.411-1.011-.518-.654-.737-1.553-.22-.898-.22-1.977v-5.86h2.983v5.498q0 1.44.376 2.08.381.64 1.421.64.322 0 .679-.03.361-.029.644-.073v-8.115h2.979zm9.54-4.98q0-2.876-2.12-2.876-.459 0-.913.122-.449.117-.727.298v5.42q.22.039.556.068.342.03.743.03 1.22 0 1.84-.84t.62-2.222m3.042.083q0 1.26-.371 2.28-.372 1.02-1.075 1.743-.698.718-1.718 1.109-1.016.386-2.32.386-.537 0-1.128-.05-.59-.048-1.162-.131-.566-.078-1.089-.186-.517-.112-.918-.234V71.677l2.979-.479v5.24q.498-.22 1.04-.342T52 75.973q1.118 0 1.977.391.86.39 1.441 1.113.581.718.879 1.729.303 1.01.303 2.25m9.038-.083q0-2.876-2.12-2.876-.459 0-.913.122-.449.117-.727.298v5.42q.22.039.556.068.342.03.743.03 1.22 0 1.84-.84t.62-2.222m3.042.083q0 1.26-.371 2.28-.372 1.02-1.075 1.743-.698.718-1.719 1.109-1.015.386-2.319.386-.537 0-1.128-.05-.59-.048-1.162-.131-.566-.078-1.089-.186-.517-.112-.918-.234V71.677l2.979-.479v5.24q.498-.22 1.04-.342t1.162-.123q1.118 0 1.978.391.859.39 1.44 1.113.581.718.879 1.729.303 1.01.303 2.25m1.796.078q0-1.401.43-2.451t1.128-1.748q.703-.698 1.611-1.06.913-.361 1.875-.361 2.237 0 3.535 1.372 1.304 1.367 1.304 4.028 0 .26-.02.572-.019.307-.043.547H73.54q.098.922.86 1.464.761.537 2.04.537.82 0 1.607-.146.79-.151 1.294-.371l.4 2.417q-.24.122-.64.244-.4.117-.893.205-.488.093-1.05.151-.557.059-1.118.059-1.421 0-2.47-.42t-1.744-1.147q-.688-.733-1.02-1.729-.328-1-.328-2.163m7.002-1.138q-.02-.38-.132-.742-.107-.361-.336-.64-.23-.278-.582-.459-.351-.18-.869-.18-.503 0-.864.17-.356.172-.596.45-.239.278-.37.65-.132.37-.191.751zM89 78.835q-.401-.098-.943-.205-.537-.112-1.157-.112-.279 0-.67.048-.39.05-.59.108v8.042h-2.98v-9.961q.801-.279 1.89-.528 1.089-.254 2.427-.254.244 0 .58.035.343.029.68.078.341.049.678.122.342.068.586.166z"/></svg>