<svg xmlns="http://www.w3.org/2000/svg" viewBox="0 0 110 110"><path fill="#7e0d0d" d="M67.857 47.857q.158.042.311.1t.3.13.285.159.269.185.249.212q.119.111.227.234t.203.256.177.275q.081.141.149.29t.12.304.09.314.058.321.027.326q.005.163-.006.326t-.037.324q-.027.162-.069.32t-.1.31-.13.3-.158.286-.186.268-.211.25-.235.226-.256.203-.274.177-.29.15-.304.12-.314.09-.322.058q-.162.02-.325.026-.164.006-.327-.005t-.324-.037q-.161-.027-.32-.07.116.116.22.243.104.126.194.262t.168.28.14.295.11.308.08.316.047.324.016.326-.016.326-.048.323-.079.317-.11.307-.14.295q-.077.145-.168.28-.09.136-.194.263-.104.126-.22.242-.115.115-.241.219-.127.104-.263.195-.136.09-.28.167t-.295.14-.307.11q-.157.048-.317.08-.16.031-.323.047t-.326.016-.327-.016q-.162-.016-.323-.048-.16-.031-.316-.079-.157-.047-.308-.11-.15-.063-.295-.14-.144-.077-.28-.167t-.262-.195-.242-.22q.042.159.069.32.026.161.037.324t.005.327-.027.325-.058.322-.09.314q-.052.154-.12.303-.067.15-.149.29-.082.142-.177.275t-.203.256-.227.235-.249.21-.268.187q-.14.086-.286.159-.147.072-.3.13-.153.057-.31.1-.158.042-.32.068-.16.027-.324.038-.163.01-.327.005-.163-.005-.325-.027t-.321-.058q-.16-.037-.314-.09-.155-.052-.304-.12-.149-.067-.29-.15-.142-.08-.275-.176t-.256-.203-.234-.227-.212-.25-.186-.268-.158-.285-.13-.3-.1-.31q-.042.157-.1.31-.057.153-.13.3-.072.146-.158.285t-.186.269-.212.249q-.111.12-.234.227t-.256.203-.274.177-.29.15q-.15.067-.305.12-.154.052-.314.089-.159.037-.32.058-.163.022-.326.027-.164.005-.327-.005t-.324-.038-.32-.069-.31-.1-.3-.13-.286-.158-.268-.186-.25-.211-.226-.235-.203-.256-.177-.274-.15-.29q-.067-.15-.12-.304-.052-.155-.089-.314-.037-.16-.058-.322t-.027-.325.005-.327.037-.324q.027-.161.07-.32-.116.116-.243.22-.126.104-.262.195-.136.09-.28.167t-.295.14-.308.11q-.156.048-.316.08-.16.031-.323.047t-.327.016-.326-.016-.323-.048q-.16-.031-.317-.079-.156-.047-.307-.11t-.295-.14-.28-.167-.263-.195-.242-.22-.219-.241q-.104-.127-.194-.263-.091-.135-.168-.28-.077-.144-.14-.295-.063-.15-.11-.307t-.08-.317q-.031-.16-.047-.323t-.016-.326.016-.326.048-.324.079-.316.11-.308.14-.295.168-.28q.09-.136.194-.262.104-.127.22-.242-.159.042-.32.069-.161.026-.324.037t-.327.005-.325-.026q-.162-.022-.322-.059-.159-.037-.314-.09-.154-.052-.303-.12-.15-.067-.29-.149-.142-.082-.275-.177t-.256-.203-.235-.227-.21-.249-.187-.268q-.086-.14-.158-.286t-.13-.3q-.058-.152-.1-.31t-.07-.32q-.026-.16-.036-.324-.011-.163-.006-.327.006-.163.027-.325t.058-.321q.037-.16.09-.314.053-.155.12-.304.068-.149.15-.29.081-.142.176-.275t.203-.256.227-.234.25-.212.268-.185.285-.16q.147-.071.3-.129t.31-.1q-.157-.042-.31-.1-.153-.057-.3-.13-.146-.072-.285-.158t-.269-.186-.249-.211-.227-.235-.203-.256-.177-.274-.149-.29q-.067-.15-.12-.305-.053-.154-.09-.314-.037-.159-.058-.32-.021-.163-.027-.326-.005-.164.006-.327t.037-.324.069-.32.1-.31.13-.3.158-.285.186-.269.211-.249.235-.227.256-.203.274-.177.29-.15q.15-.067.304-.12.155-.052.314-.089.16-.037.322-.058t.325-.027.327.005.324.038q.161.026.32.069-.116-.116-.22-.242-.104-.127-.194-.263t-.168-.28-.14-.295-.11-.308q-.047-.156-.08-.316-.031-.16-.047-.323t-.016-.326.016-.327q.016-.162.048-.323.032-.16.079-.316.047-.157.11-.308t.14-.295.168-.28.194-.263.22-.242q.115-.115.241-.219.127-.104.263-.194t.28-.168.295-.14.307-.11.317-.08.323-.047.326-.016q.164 0 .327.016.162.016.323.048.16.032.316.08.157.047.308.11.15.062.295.139.144.077.28.168.136.09.262.194.127.104.242.22-.042-.158-.069-.32-.026-.161-.037-.324t-.005-.327.027-.325.058-.321.09-.314q.052-.155.12-.304.067-.149.149-.29.082-.142.177-.275t.203-.256.227-.234.249-.212.268-.186q.14-.086.286-.158.147-.073.3-.13t.31-.1.32-.069q.16-.027.324-.037.163-.011.327-.006.163.006.325.027t.321.059q.16.037.314.09.155.052.304.12.149.067.29.148.142.082.275.177.133.096.256.203t.234.227.212.25.186.268q.086.139.158.285.073.147.13.3T55 35q.042-.158.1-.31.057-.154.13-.3.072-.147.158-.286t.186-.269.212-.249q.111-.119.234-.227.123-.107.256-.203.133-.095.274-.177t.29-.149.305-.12.314-.09.32-.058.326-.027q.164-.005.327.006t.324.037.32.069.31.1.3.13.286.158q.138.087.268.186.13.1.25.212.118.111.226.234t.203.256.177.274.15.29.12.305.089.314.058.32q.022.163.027.326.006.164-.005.327t-.037.324q-.027.162-.07.32.116-.116.243-.22.126-.104.262-.194t.28-.168.295-.14.308-.11.316-.08.323-.047.327-.016.326.016.323.048.317.08.307.11.295.139.28.168.263.194q.126.104.242.22.115.115.219.241.104.127.194.263t.168.28.14.295.11.308q.047.156.08.316.031.16.047.323t.016.327-.016.326-.048.323-.079.316q-.047.157-.11.308t-.14.295-.168.28q-.09.136-.194.263-.104.126-.22.242.159-.043.32-.07.161-.026.324-.037t.327-.005.325.027.322.058.314.09q.154.052.303.12.15.067.29.149.142.082.275.177t.256.203.235.227.21.25.187.268.158.285.13.3q.058.153.1.31.042.158.07.32.026.161.036.324.011.163.006.327-.006.163-.027.325t-.058.321q-.037.16-.09.314-.053.155-.12.304-.068.15-.15.29-.081.142-.176.275t-.203.256-.227.235-.25.21-.268.187-.285.158-.3.13-.31.1"/><path fill="#9c1010" d="M63.571 47.857q0 .21-.01.42t-.03.42-.052.418-.072.414-.092.41q-.052.205-.113.406-.06.202-.132.4-.07.198-.151.392-.08.195-.17.385t-.19.376-.207.366-.225.355-.242.344q-.126.17-.26.332-.133.162-.274.318t-.29.305-.305.29-.318.275-.332.259-.344.242-.355.225-.366.207q-.186.1-.376.19t-.385.17-.392.151-.4.132q-.201.062-.405.113-.204.05-.41.092-.207.04-.415.072-.208.03-.418.051t-.42.031-.42.01-.42-.01-.42-.03-.418-.052-.414-.072-.41-.092q-.205-.051-.406-.113-.202-.06-.4-.132-.198-.07-.392-.15-.195-.081-.385-.171t-.376-.19q-.185-.099-.366-.207-.18-.108-.355-.225t-.344-.242-.332-.26q-.162-.133-.318-.274t-.305-.29-.29-.305-.275-.318-.259-.332-.242-.344-.225-.355-.207-.366q-.1-.186-.19-.376t-.17-.385-.151-.392-.132-.4-.113-.405q-.05-.204-.092-.41-.04-.207-.072-.415-.03-.208-.051-.418t-.031-.42-.01-.42.01-.42.03-.42.052-.418.072-.414.092-.41q.052-.205.113-.406.06-.201.132-.4.07-.198.151-.392t.17-.385.19-.375q.099-.186.207-.366.108-.181.225-.356t.242-.344.26-.332.274-.318.29-.305.305-.29.318-.275.332-.259.344-.242.355-.225.366-.207q.186-.1.376-.19t.385-.17.392-.151.4-.132.405-.112.41-.093q.207-.04.415-.072.208-.03.418-.051t.42-.031.42-.01.42.01.42.031.418.051.414.072.41.093q.205.05.406.112.202.06.4.132.198.07.392.151.195.08.385.17t.376.19.366.207.355.225.344.242.332.26q.162.133.318.274t.305.29.29.305.275.318.259.332.242.344.225.356.207.366q.1.185.19.375t.17.385.151.392q.071.199.132.4t.113.405q.05.205.092.41.04.207.072.415.03.209.051.418.02.21.031.42t.01.42"/><path fill="none" stroke="#000" stroke-linecap="round" stroke-linejoin="round" stroke-width="2.4" d="M44.39 86.896q-1.142 0-2.27-.073-1.128-.068-2.348-.327V73.054q.957-.176 2.094-.264 1.143-.093 2.124-.093 1.319 0 2.427.19 1.113.191 1.914.65t1.25 1.21q.45.748.45 1.847 0 1.66-1.602 2.622 1.323.498 1.802 1.362.478.86.478 1.939 0 2.177-1.592 3.28-1.587 1.1-4.726 1.1m-1.581-6.22v3.579q.341.039.742.063.4.02.879.02 1.401 0 2.26-.4.86-.401.86-1.48 0-.962-.723-1.372-.717-.41-2.055-.41zm0-2.378h1.523q1.436 0 2.056-.371t.62-1.192q0-.84-.64-1.176-.64-.342-1.88-.342-.4 0-.859.01t-.82.048zm19.182 8.056q-.762.22-1.963.41-1.196.191-2.52.191-1.337 0-2.231-.356-.889-.362-1.411-1.011-.518-.654-.737-1.553-.22-.898-.22-1.977v-5.86h2.983v5.498q0 1.44.376 2.08.381.64 1.421.64.322 0 .679-.03.361-.029.644-.073v-8.115h2.979zm9.138-7.52q-.4-.097-.942-.204-.537-.112-1.157-.112-.279 0-.67.048-.39.05-.59.108v8.042H64.79v-9.961q.801-.279 1.89-.528 1.089-.254 2.427-.254.244 0 .58.035.343.029.68.078.341.049.678.122.342.068.586.166z"/><path fill="#fff" d="M44.39 86.896q-1.142 0-2.27-.073-1.128-.068-2.348-.327V73.054q.957-.176 2.094-.264 1.143-.093 2.124-.093 1.319 0 2.427.19 1.113.191 1.914.65t1.25 1.21q.45.748.45 1.847 0 1.66-1.602 2.622 1.323.498 1.802 1.362.478.86.478 1.939 0 2.177-1.592 3.28-1.587 1.1-4.726 1.1m-1.581-6.22v3.579q.341.039.742.063.4.02.879.02 1.401 0 2.26-.4.86-.401.86-1.48 0-.962-.723-1.372-.717-.41-2.055-.41zm0-2.378h1.523q1.436 0 2.056-.371t.62-1.192q0-.84-.64-1.176-.64-.342-1.88-.342-.4 0-.859.01t-.82.048zm19.182 8.056q-.762.22-1.963.41-1.196.191-2.52.191-1.337 0-2.231-.356-.889-.362-1.411-1.011-.518-.654-.737-1.553-.22-.898-.22-1.977v-5.86h2.983v5.498q0 1.44.376 2.08.381.64 1.421.64.322 0 .679-.03.361-.029.644-.073v-8.115h2.979zm9.138-7.52q-.4-.097-.942-.204-.537-.112-1.157-.112-.279 0-.67.048-.39.05-.59.108v8.042H64.79v-9.961q.801-.279 1.89-.528 1.089-.254 2.427-.254.244 0 .58.035.343.029.68.078.341.049.678.122.342.068.586.166z"/></svg>