<svg xmlns="http://www.w3.org/2000/svg" viewBox="0 0 110 110"><path fill="#333" d="m61.7 38.462 11.578 18.031-18.031 11.578L43.669 50.04z"/><path fill="#292929" d="m42.51 48.237 18.032-11.578q.089-.057.183-.105.093-.048.191-.087t.2-.067.205-.047.208-.027.21-.007q.106.002.21.014.105.013.208.035.102.023.203.055.1.032.196.074.097.042.189.094.092.051.178.111t.167.128q.08.069.153.145t.138.158.122.171l11.578 18.032q.057.088.105.182t.086.192.068.199.047.205.027.208.007.21q-.002.106-.015.21-.012.105-.034.208t-.055.203-.074.196-.094.189-.111.178-.129.167-.144.153q-.075.073-.158.138t-.171.123L56.404 69.874q-.088.057-.182.105t-.192.087-.199.067-.205.047-.208.027-.21.007q-.106-.002-.21-.014-.105-.013-.208-.035t-.203-.055q-.1-.032-.196-.074-.097-.042-.189-.094-.092-.051-.178-.111-.087-.06-.167-.128-.08-.069-.153-.144-.073-.076-.138-.159-.066-.082-.123-.171L41.866 51.198q-.057-.089-.105-.183t-.087-.191-.067-.2-.047-.205q-.019-.103-.027-.208t-.007-.21.014-.21.035-.208q.022-.102.055-.203.032-.1.074-.196.042-.097.094-.189.05-.092.111-.178.06-.087.128-.167.069-.08.144-.153.076-.073.159-.138.082-.066.17-.122m18.545-6.814L46.63 50.685l9.262 14.425 14.425-9.262z"/><path fill="#aaa" d="m46.813 28.497 3.86 6.01-6.01 3.86-3.86-6.01z"/><path fill="#aaa" d="m39.645 30.553 6.01-3.86q.09-.056.183-.104t.192-.086q.097-.039.199-.068.101-.028.205-.047t.208-.027.21-.006.21.014.208.034q.102.023.203.055.1.033.196.075.097.042.189.093t.178.111.167.129.153.144.138.158.122.171l3.86 6.01q.057.09.105.183.047.094.086.192t.067.199q.029.101.048.205.018.103.027.208.008.105.006.21-.002.106-.014.21-.012.105-.035.208-.022.103-.055.203-.032.1-.074.197-.042.096-.093.188-.052.092-.112.178-.06.087-.128.167t-.144.153-.158.138q-.083.066-.172.123l-6.01 3.859q-.089.057-.182.105-.094.048-.192.086-.098.039-.2.067-.1.03-.204.048t-.209.027-.21.006-.21-.014-.207-.034-.203-.055-.197-.075-.188-.093-.179-.111-.166-.129-.154-.144-.138-.158-.122-.171l-3.86-6.01q-.056-.09-.104-.183-.048-.094-.087-.192t-.067-.2q-.028-.1-.047-.204t-.027-.209-.007-.21.014-.21q.013-.104.035-.207t.055-.203q.032-.1.074-.197.042-.096.094-.188.051-.092.111-.179.06-.086.128-.166.069-.08.144-.153.076-.073.159-.139.082-.065.171-.122m6.523.905-2.404 1.544 1.543 2.404 2.405-1.544z"/><path fill="#c88a5a" d="M54.753 27.643 61.7 38.462 43.67 50.04l-6.947-10.82z"/><path fill="#a27049" d="M35.564 37.418 53.596 25.84q.088-.057.182-.105t.192-.086.199-.068.205-.047.208-.027.21-.007q.106.002.21.015.105.012.208.034t.203.055.196.074q.097.043.189.094t.178.111q.087.06.167.129.08.068.153.144t.138.158.123.171l6.946 10.82q.057.088.105.181.048.094.087.192t.067.2q.028.1.047.204t.027.209.007.21-.014.21q-.013.104-.035.207t-.055.203q-.032.1-.074.197-.042.096-.094.188-.051.092-.111.179-.06.086-.128.166-.069.08-.145.153-.075.074-.158.139-.082.065-.171.122L44.826 51.843q-.088.057-.182.105t-.192.086-.199.067q-.101.03-.205.048t-.208.027-.21.006-.21-.014-.208-.035q-.103-.022-.203-.054-.1-.033-.196-.075-.097-.042-.189-.093t-.178-.112-.167-.128-.153-.144-.138-.158q-.066-.083-.122-.171l-6.947-10.82q-.057-.088-.105-.182-.048-.093-.086-.191-.039-.098-.068-.2-.028-.1-.047-.204t-.027-.21-.007-.21.015-.21q.012-.104.034-.207.023-.102.055-.202t.074-.197.094-.189.111-.178q.06-.086.129-.167.068-.08.144-.153t.158-.138.171-.122m18.544-6.814-14.425 9.262 4.631 7.213 14.425-9.263z"/><path fill="none" stroke="#000" stroke-linecap="round" stroke-linejoin="round" stroke-width="2.4" d="M24.56 86.896q-1.142 0-2.27-.073-1.128-.068-2.348-.327V73.054q.957-.176 2.094-.264 1.143-.093 2.124-.093 1.319 0 2.427.19 1.113.191 1.914.65t1.25 1.21q.45.748.45 1.847 0 1.66-1.602 2.622 1.323.498 1.802 1.362.478.86.478 1.939 0 2.177-1.592 3.28-1.587 1.1-4.726 1.1m-1.581-6.22v3.579q.341.039.742.063.4.02.879.02 1.401 0 2.26-.4.86-.401.86-1.48 0-.962-.723-1.372-.718-.41-2.055-.41zm0-2.378h1.523q1.436 0 2.056-.371t.62-1.192q0-.84-.64-1.176-.64-.342-1.88-.342-.4 0-.859.01t-.82.048zm14.22 6.338q.44 0 .84-.02.401-.02.64-.058v-2.261q-.18-.04-.542-.078-.356-.044-.659-.044-.42 0-.79.053-.367.05-.65.19-.278.138-.44.377-.156.24-.156.6 0 .699.469.972.469.269 1.289.269m-.238-8.721q1.318 0 2.197.303.884.297 1.411.859.532.557.752 1.358.22.8.22 1.782v6.2q-.64.138-1.782.328-1.138.19-2.76.19-1.02 0-1.85-.18t-1.43-.591-.923-1.07q-.318-.659-.318-1.62 0-.918.371-1.558t.992-1.02q.62-.382 1.42-.547.801-.171 1.66-.171.577 0 1.026.048.454.05.732.127v-.278q0-.762-.459-1.22-.459-.46-1.601-.46-.757 0-1.5.113-.741.107-1.279.307l-.38-2.397q.258-.083.65-.171.39-.093.849-.161t.966-.117q.513-.054 1.036-.054m7.178-2.339 2.983-.478v3.1h3.58v2.476h-3.58v3.7q0 .943.327 1.505.332.556 1.333.556.479 0 .987-.087.512-.093.932-.254l.42 2.324q-.542.22-1.201.376-.66.161-1.621.161-1.22 0-2.021-.327-.796-.332-1.28-.923-.478-.59-.669-1.43-.19-.84-.19-1.861zm8.88 0 2.983-.478v3.1h3.58v2.476h-3.58v3.7q0 .943.327 1.505.332.556 1.333.556.479 0 .987-.087.512-.093.932-.254l.42 2.324q-.542.22-1.201.376-.66.161-1.621.161-1.22 0-2.022-.327-.795-.332-1.279-.923-.478-.59-.669-1.43-.19-.84-.19-1.861zm8.48 7.959q0-1.401.43-2.451.429-1.05 1.127-1.748.703-.698 1.611-1.06.913-.361 1.875-.361 2.237 0 3.535 1.372 1.304 1.367 1.304 4.028 0 .26-.02.572-.019.307-.043.547h-6.76q.098.922.86 1.464.761.537 2.04.537.82 0 1.607-.146.79-.151 1.294-.371l.4 2.417q-.24.122-.64.244-.4.117-.893.205-.488.093-1.05.151-.557.059-1.118.059-1.421 0-2.47-.42t-1.744-1.147q-.688-.733-1.02-1.729-.328-1-.328-2.163m7.001-1.138q-.02-.38-.132-.742-.107-.361-.336-.64-.23-.278-.581-.459-.352-.18-.87-.18-.502 0-.864.17-.356.172-.596.45-.239.278-.37.65-.133.37-.191.751zm11.52-1.562q-.401-.098-.943-.205-.537-.112-1.157-.112-.279 0-.67.048-.39.05-.59.108v8.042H73.68v-9.961q.801-.279 1.89-.528 1.089-.254 2.427-.254.244 0 .58.035.343.029.68.078.341.049.678.122.342.068.586.166zm11.442-2.637q-.903 3.037-1.885 5.698-.976 2.662-2.138 5.162-.42.898-.84 1.528t-.923 1.04q-.498.41-1.128.6t-1.47.19q-.698 0-1.289-.131-.59-.127-.971-.288l.522-2.383q.459.161.82.22.362.063.762.063.796 0 1.226-.43.434-.429.732-1.19-1.02-2.003-2.04-4.493t-1.92-5.586h3.16q.2.777.468 1.69.273.908.571 1.84.303.928.61 1.807.313.879.592 1.602.258-.723.537-1.602.283-.879.551-1.807.269-.932.518-1.84.254-.913.454-1.69z"/><path fill="#fff" d="M24.56 86.896q-1.142 0-2.27-.073-1.128-.068-2.348-.327V73.054q.957-.176 2.094-.264 1.143-.093 2.124-.093 1.319 0 2.427.19 1.113.191 1.914.65t1.25 1.21q.45.748.45 1.847 0 1.66-1.602 2.622 1.323.498 1.802 1.362.478.86.478 1.939 0 2.177-1.592 3.28-1.587 1.1-4.726 1.1m-1.581-6.22v3.579q.341.039.742.063.4.02.879.02 1.401 0 2.26-.4.86-.401.86-1.48 0-.962-.723-1.372-.718-.41-2.055-.41zm0-2.378h1.523q1.436 0 2.056-.371t.62-1.192q0-.84-.64-1.176-.64-.342-1.88-.342-.4 0-.859.01t-.82.048zm14.22 6.338q.44 0 .84-.02.401-.02.64-.058v-2.261q-.18-.04-.542-.078-.356-.044-.659-.044-.42 0-.79.053-.367.05-.65.19-.278.138-.44.377-.156.24-.156.6 0 .699.469.972.469.269 1.289.269m-.238-8.721q1.318 0 2.197.303.884.297 1.411.859.532.557.752 1.358.22.8.22 1.782v6.2q-.64.138-1.782.328-1.138.19-2.76.19-1.02 0-1.85-.18t-1.43-.591-.923-1.07q-.318-.659-.318-1.62 0-.918.371-1.558t.992-1.02q.62-.382 1.42-.547.801-.171 1.66-.171.577 0 1.026.048.454.05.732.127v-.278q0-.762-.459-1.22-.459-.46-1.601-.46-.757 0-1.5.113-.741.107-1.279.307l-.38-2.397q.258-.083.65-.171.39-.093.849-.161t.966-.117q.513-.054 1.036-.054m7.178-2.339 2.983-.478v3.1h3.58v2.476h-3.58v3.7q0 .943.327 1.505.332.556 1.333.556.479 0 .987-.087.512-.093.932-.254l.42 2.324q-.542.22-1.201.376-.66.161-1.621.161-1.22 0-2.021-.327-.796-.332-1.28-.923-.478-.59-.669-1.43-.19-.84-.19-1.861zm8.88 0 2.983-.478v3.1h3.58v2.476h-3.58v3.7q0 .943.327 1.505.332.556 1.333.556.479 0 .987-.087.512-.093.932-.254l.42 2.324q-.542.22-1.201.376-.66.161-1.621.161-1.22 0-2.022-.327-.795-.332-1.279-.923-.478-.59-.669-1.43-.19-.84-.19-1.861zm8.48 7.959q0-1.401.43-2.451.429-1.05 1.127-1.748.703-.698 1.611-1.06.913-.361 1.875-.361 2.237 0 3.535 1.372 1.304 1.367 1.304 4.028 0 .26-.02.572-.019.307-.043.547h-6.76q.098.922.86 1.464.761.537 2.04.537.82 0 1.607-.146.79-.151 1.294-.371l.4 2.417q-.24.122-.64.244-.4.117-.893.205-.488.093-1.05.151-.557.059-1.118.059-1.421 0-2.47-.42t-1.744-1.147q-.688-.733-1.02-1.729-.328-1-.328-2.163m7.001-1.138q-.02-.38-.132-.742-.107-.361-.336-.64-.23-.278-.581-.459-.352-.18-.87-.18-.502 0-.864.17-.356.172-.596.45-.239.278-.37.65-.133.37-.191.751zm11.52-1.562q-.401-.098-.943-.205-.537-.112-1.157-.112-.279 0-.67.048-.39.05-.59.108v8.042H73.68v-9.961q.801-.279 1.89-.528 1.089-.254 2.427-.254.244 0 .58.035.343.029.68.078.341.049.678.122.342.068.586.166zm11.442-2.637q-.903 3.037-1.885 5.698-.976 2.662-2.138 5.162-.42.898-.84 1.528t-.923 1.04q-.498.41-1.128.6t-1.47.19q-.698 0-1.289-.131-.59-.127-.971-.288l.522-2.383q.459.161.82.22.362.063.762.063.796 0 1.226-.43.434-.429.732-1.19-1.02-2.003-2.04-4.493t-1.92-5.586h3.16q.2.777.468 1.69.273.908.571 1.84.303.928.61 1.807.313.879.592 1.602.258-.723.537-1.602.283-.879.551-1.807.269-.932.518-1.84.254-.913.454-1.69z"/></svg>