<svg xmlns="http://www.w3.org/2000/svg" viewBox="0 0 110 110"><path fill="#a760b1" d="M65.714 47.857q0 .263-.013.526t-.038.524-.065.522-.09.518q-.05.258-.115.513-.064.256-.14.507-.076.252-.165.5-.089.247-.19.49-.1.243-.212.481-.113.238-.237.47t-.26.457q-.134.226-.28.445-.147.218-.303.43-.157.21-.324.414t-.343.398-.363.381-.38.363-.399.343-.415.324-.43.303q-.218.146-.444.281-.225.135-.457.26-.232.123-.47.236t-.48.213-.491.19q-.248.088-.5.164t-.507.14-.513.116q-.258.05-.518.09-.26.038-.522.064t-.524.038-.526.013-.526-.013q-.262-.012-.524-.038t-.522-.065-.518-.09q-.258-.05-.513-.115-.255-.064-.507-.14t-.5-.165-.49-.19-.48-.212q-.239-.113-.47-.237-.233-.124-.458-.259-.226-.135-.445-.281-.218-.146-.43-.303-.21-.157-.414-.324t-.398-.343-.381-.363-.363-.38-.343-.399-.324-.414-.303-.43q-.146-.22-.28-.445-.136-.225-.26-.457t-.237-.47q-.112-.238-.213-.48-.1-.244-.189-.491-.089-.248-.165-.5-.076-.251-.14-.507-.064-.255-.115-.513t-.09-.518-.065-.522-.038-.524-.013-.526.013-.526.038-.524.065-.522.09-.518.115-.513q.064-.255.14-.507t.165-.5.19-.49.212-.48q.113-.239.237-.47.124-.233.26-.458.134-.226.28-.444.147-.22.303-.43.157-.212.324-.415t.343-.398.363-.381.38-.363q.196-.176.399-.343t.415-.324q.21-.156.43-.302.218-.147.444-.282.225-.135.457-.259t.47-.236.48-.214.491-.189.5-.165.507-.14.513-.115.518-.09.522-.065q.262-.025.524-.038.263-.013.526-.013t.526.013.524.038.522.065.518.09.513.115.507.14.5.165.49.19.48.213.47.236q.233.124.458.26.226.134.445.28.218.147.43.303.21.157.414.324t.398.343.381.363.363.38.343.399.324.415.303.43q.146.218.28.444.136.225.26.457t.237.47.213.48q.1.244.189.492.089.247.165.499t.14.507.115.513q.052.258.09.518.039.26.065.522.025.262.038.524.013.263.013.526"/><path fill="#ce76db" d="M61.429 47.857q0 .158-.008.316-.008.157-.023.314-.016.157-.039.313t-.054.311-.07.308q-.037.153-.083.304t-.1.3-.113.294q-.06.146-.128.289-.067.142-.142.282t-.155.274-.169.267q-.088.13-.182.258-.094.126-.194.248t-.206.24-.217.228q-.112.111-.229.217t-.239.206-.249.195-.257.181-.267.17q-.135.08-.275.155-.139.074-.281.141-.143.068-.289.128t-.294.114-.3.099-.304.084-.308.07-.31.053-.314.039-.315.023-.315.008-.315-.008-.315-.023-.313-.039-.311-.054q-.155-.03-.308-.069-.153-.038-.304-.084t-.3-.1-.294-.113-.289-.128-.281-.141-.275-.156-.267-.169q-.13-.087-.257-.181t-.25-.195-.238-.206q-.117-.106-.229-.217-.111-.112-.217-.229t-.206-.239-.194-.248-.182-.258-.169-.267-.155-.274-.142-.282-.128-.289-.114-.294-.099-.3-.084-.304-.069-.308-.054-.31-.039-.314-.023-.314-.008-.316.008-.315.023-.315.039-.313.054-.311q.03-.155.07-.308.037-.153.083-.304t.1-.3.113-.294q.06-.146.128-.288.067-.143.142-.282.074-.14.155-.275t.169-.266.182-.258.194-.25q.1-.121.206-.238t.217-.229.229-.217.239-.206.249-.194.257-.182q.132-.088.267-.169t.275-.155.281-.142q.143-.068.289-.128t.294-.114.3-.099.304-.084.308-.069.31-.054.314-.039.315-.023q.157-.007.315-.007t.315.007q.158.008.315.023.157.016.313.04.156.022.311.053.155.03.308.07.153.038.304.083t.3.1.294.113.289.128.281.142.275.155.267.169q.13.088.257.182t.25.194.238.206q.117.106.229.217.111.112.217.229t.206.239.194.249.182.258.169.266.155.275.142.282.128.288.114.294q.053.149.099.3t.084.304.069.308.054.31.039.314.023.315.008.315"/><path fill="none" stroke="#000" stroke-linecap="round" stroke-linejoin="round" stroke-width="2.4" d="M41.482 72.853h3.12v13.863h-3.12zm12.457 5.982q-.4-.098-.942-.205-.537-.112-1.157-.112-.279 0-.67.048-.39.05-.59.108v8.042H47.6v-9.961q.801-.279 1.89-.528 1.089-.254 2.427-.254.244 0 .58.035.343.029.68.078.341.049.678.122.342.068.586.166zm5.08 7.88h-2.978V76.199h2.979zm.28-13.559q0 .82-.533 1.29-.527.468-1.245.468-.723 0-1.255-.469-.527-.469-.527-1.289t.527-1.289q.532-.474 1.255-.474.718 0 1.245.474.532.469.532 1.29m5.54 11.421q.82 0 1.157-.161.342-.161.342-.62 0-.361-.44-.63-.439-.269-1.337-.61-.699-.26-1.27-.538-.571-.283-.972-.673-.4-.391-.62-.928-.22-.542-.22-1.299 0-1.484 1.1-2.344 1.103-.86 3.022-.86.957 0 1.836.172.883.17 1.4.37l-.517 2.32q-.522-.18-1.132-.317-.606-.142-1.368-.142-1.401 0-1.401.777 0 .18.059.322.063.142.244.273.18.127.488.279.308.146.791.327.977.361 1.616.713.645.346 1.011.757.371.41.522.913.152.498.152 1.157 0 1.562-1.172 2.363-1.172.796-3.31.796-1.402 0-2.335-.24-.927-.239-1.284-.4l.498-2.417q.762.298 1.558.47.8.17 1.582.17"/><path fill="#fff" d="M41.482 72.853h3.12v13.863h-3.12zm12.457 5.982q-.4-.098-.942-.205-.537-.112-1.157-.112-.279 0-.67.048-.39.05-.59.108v8.042H47.6v-9.961q.801-.279 1.89-.528 1.089-.254 2.427-.254.244 0 .58.035.343.029.68.078.341.049.678.122.342.068.586.166zm5.08 7.88h-2.978V76.199h2.979zm.28-13.559q0 .82-.533 1.29-.527.468-1.245.468-.723 0-1.255-.469-.527-.469-.527-1.289t.527-1.289q.532-.474 1.255-.474.718 0 1.245.474.532.469.532 1.29m5.54 11.421q.82 0 1.157-.161.342-.161.342-.62 0-.361-.44-.63-.439-.269-1.337-.61-.699-.26-1.27-.538-.571-.283-.972-.673-.4-.391-.62-.928-.22-.542-.22-1.299 0-1.484 1.1-2.344 1.103-.86 3.022-.86.957 0 1.836.172.883.17 1.4.37l-.517 2.32q-.522-.18-1.132-.317-.606-.142-1.368-.142-1.401 0-1.401.777 0 .18.059.322.063.142.244.273.18.127.488.279.308.146.791.327.977.361 1.616.713.645.346 1.011.757.371.41.522.913.152.498.152 1.157 0 1.562-1.172 2.363-1.172.796-3.31.796-1.402 0-2.335-.24-.927-.239-1.284-.4l.498-2.417q.762.298 1.558.47.8.17 1.582.17"/></svg>