<svg xmlns="http://www.w3.org/2000/svg" viewBox="0 0 110 110"><path fill="#ff94c9" d="m62.719 35.836 6.55 12.695-7.718 12.021-14.27-.674-6.55-12.695 7.718-12.02z"/><path fill="#cf78a3" d="m64.623 34.853 6.551 12.695q.13.251.19.527.06.275.046.557t-.099.55q-.086.27-.238.507l-7.719 12.02q-.152.238-.36.428-.21.19-.46.32-.25.129-.526.189t-.558.047l-14.27-.674q-.282-.014-.55-.1-.269-.085-.506-.238-.238-.152-.428-.36-.19-.21-.319-.46l-6.551-12.695q-.13-.25-.19-.527-.06-.275-.046-.557t.099-.55q.086-.27.238-.507l7.719-12.02q.152-.238.36-.428.21-.19.46-.32.25-.129.526-.189t.558-.046l14.27.674q.282.013.55.099t.506.238.428.361.319.46m-3.809 1.966 1.905-.983-.102 2.14-14.27-.673.102-2.14 1.803 1.157-7.719 12.02-1.803-1.157 1.904-.983 6.552 12.695-1.905.983.102-2.14 14.27.674-.102 2.14-1.803-1.158 7.719-12.02 1.803 1.157-1.904.983z"/><path fill="#cf78a3" d="m58.087 43.049 2.44 6.259-5.198 4.254-5.653-3.63 1.705-6.497z"/><path fill="#cf78a3" d="m60.084 42.27 2.44 6.26q.06.156.097.321.036.165.045.333.01.169-.007.337-.016.167-.06.33-.042.164-.11.318t-.159.296-.203.268-.243.233l-5.198 4.254q-.13.107-.276.192t-.303.146-.322.098-.333.045q-.169.01-.336-.007-.168-.017-.331-.06-.164-.042-.318-.11t-.296-.159l-5.653-3.63q-.142-.09-.268-.203-.126-.112-.232-.242-.107-.131-.192-.277-.085-.145-.147-.302-.06-.157-.097-.322-.036-.165-.045-.333-.01-.169.007-.337.016-.167.06-.33l1.704-6.498q.043-.163.11-.318.069-.154.16-.296t.203-.268.243-.232q.13-.107.276-.192t.303-.147q.157-.06.322-.097.164-.036.333-.045l6.706-.387q.169-.01.336.007.168.017.331.06t.318.11.296.16.268.203.233.243.192.276.146.302m-3.993 1.557 1.996-.778.124 2.139-6.707.386-.123-2.14 2.073.545-1.705 6.497-2.073-.544 1.158-1.803 5.652 3.63-1.157 1.803-1.358-1.658 5.199-4.255 1.357 1.659-1.996.778z"/><path fill="none" stroke="#000" stroke-linecap="round" stroke-linejoin="round" stroke-width="2.4" d="M30.719 86.716q-.22-.718-.488-1.48-.269-.761-.533-1.518h-5.4q-.259.757-.527 1.518-.269.762-.489 1.48H20.04q.781-2.241 1.48-4.14.698-1.9 1.367-3.58.674-1.68 1.323-3.188.65-1.514 1.348-2.955h2.983q.679 1.44 1.338 2.955.66 1.508 1.328 3.188.674 1.68 1.372 3.58.703 1.899 1.48 4.14zm-3.74-10.718q-.098.298-.298.82l-.464 1.201-.571 1.5q-.308.815-.625 1.718h3.94q-.322-.903-.625-1.719-.298-.82-.566-1.499-.269-.683-.47-1.2-.2-.523-.321-.821m14.459 5.137q0-1.44-.371-2.037-.367-.6-1.265-.6-.283 0-.586.03-.298.028-.576.068v8.12h-2.98V76.555q.381-.098.889-.206.508-.112 1.08-.2.57-.093 1.171-.141.6-.054 1.177-.054 1.142 0 1.85.293.713.288 1.172.688.64-.459 1.47-.717.83-.264 1.528-.264 1.26 0 2.07.352.811.351 1.29.99.483.64.664 1.52.18.878.18 1.957v5.943H47.22v-5.581q0-1.44-.371-2.037-.366-.6-1.27-.6-.239 0-.669.122-.43.117-.708.298.137.459.176.971.044.508.044 1.085v5.742h-2.983zm20.443 5.22q-.762.22-1.963.41-1.196.19-2.52.19-1.337 0-2.231-.356-.889-.362-1.411-1.011-.518-.654-.737-1.553-.22-.898-.22-1.977v-5.86h2.983v5.498q0 1.44.376 2.08.381.64 1.421.64.322 0 .679-.03.361-.029.644-.073v-8.115h2.979zm7 .56q-1.3-.019-2.11-.277-.81-.264-1.284-.733-.469-.469-.64-1.137-.166-.674-.166-1.514V71.677l2.979-.479v11.46q0 .396.058.718.064.322.23.542.17.22.488.361.322.137.864.176zm1.617-5.38q0-1.401.43-2.451t1.128-1.748q.703-.698 1.611-1.06.913-.361 1.875-.361 2.237 0 3.535 1.372 1.304 1.367 1.304 4.028 0 .26-.02.572-.019.307-.043.547H73.56q.098.922.86 1.464.761.537 2.04.537.82 0 1.607-.146.79-.151 1.294-.371l.4 2.417q-.24.122-.64.244-.4.117-.893.205-.488.093-1.05.151-.557.059-1.118.059-1.421 0-2.47-.42t-1.744-1.147q-.688-.733-1.02-1.729-.328-1-.328-2.163m7.002-1.138q-.02-.38-.132-.742-.107-.361-.336-.64-.23-.278-.581-.459-.352-.18-.87-.18-.502 0-.864.17-.356.172-.596.45-.239.278-.37.65-.133.37-.191.751zm5.079-6.82 2.983-.48v3.101h3.58v2.476h-3.58v3.7q0 .943.327 1.505.332.556 1.333.556.479 0 .987-.087.512-.093.932-.254l.42 2.324q-.542.22-1.201.376-.66.161-1.621.161-1.22 0-2.022-.327-.795-.332-1.279-.923-.478-.59-.669-1.43-.19-.84-.19-1.861z"/><path fill="#fff" d="M30.719 86.716q-.22-.718-.488-1.48-.269-.761-.533-1.518h-5.4q-.259.757-.527 1.518-.269.762-.489 1.48H20.04q.781-2.241 1.48-4.14.698-1.9 1.367-3.58.674-1.68 1.323-3.188.65-1.514 1.348-2.955h2.983q.679 1.44 1.338 2.955.66 1.508 1.328 3.188.674 1.68 1.372 3.58.703 1.899 1.48 4.14zm-3.74-10.718q-.098.298-.298.82l-.464 1.201-.571 1.5q-.308.815-.625 1.718h3.94q-.322-.903-.625-1.719-.298-.82-.566-1.499-.269-.683-.47-1.2-.2-.523-.321-.821m14.459 5.137q0-1.44-.371-2.037-.367-.6-1.265-.6-.283 0-.586.03-.298.028-.576.068v8.12h-2.98V76.555q.381-.098.889-.206.508-.112 1.08-.2.57-.093 1.171-.141.6-.054 1.177-.054 1.142 0 1.85.293.713.288 1.172.688.64-.459 1.47-.717.83-.264 1.528-.264 1.26 0 2.07.352.811.351 1.29.99.483.64.664 1.52.18.878.18 1.957v5.943H47.22v-5.581q0-1.44-.371-2.037-.366-.6-1.27-.6-.239 0-.669.122-.43.117-.708.298.137.459.176.971.044.508.044 1.085v5.742h-2.983zm20.443 5.22q-.762.22-1.963.41-1.196.19-2.52.19-1.337 0-2.231-.356-.889-.362-1.411-1.011-.518-.654-.737-1.553-.22-.898-.22-1.977v-5.86h2.983v5.498q0 1.44.376 2.08.381.64 1.421.64.322 0 .679-.03.361-.029.644-.073v-8.115h2.979zm7 .56q-1.3-.019-2.11-.277-.81-.264-1.284-.733-.469-.469-.64-1.137-.166-.674-.166-1.514V71.677l2.979-.479v11.46q0 .396.058.718.064.322.23.542.17.22.488.361.322.137.864.176zm1.617-5.38q0-1.401.43-2.451t1.128-1.748q.703-.698 1.611-1.06.913-.361 1.875-.361 2.237 0 3.535 1.372 1.304 1.367 1.304 4.028 0 .26-.02.572-.019.307-.043.547H73.56q.098.922.86 1.464.761.537 2.04.537.82 0 1.607-.146.79-.151 1.294-.371l.4 2.417q-.24.122-.64.244-.4.117-.893.205-.488.093-1.05.151-.557.059-1.118.059-1.421 0-2.47-.42t-1.744-1.147q-.688-.733-1.02-1.729-.328-1-.328-2.163m7.002-1.138q-.02-.38-.132-.742-.107-.361-.336-.64-.23-.278-.581-.459-.352-.18-.87-.18-.502 0-.864.17-.356.172-.596.45-.239.278-.37.65-.133.37-.191.751zm5.079-6.82 2.983-.48v3.101h3.58v2.476h-3.58v3.7q0 .943.327 1.505.332.556 1.333.556.479 0 .987-.087.512-.093.932-.254l.42 2.324q-.542.22-1.201.376-.66.161-1.621.161-1.22 0-2.022-.327-.795-.332-1.279-.923-.478-.59-.669-1.43-.19-.84-.19-1.861z"/></svg>