<svg xmlns="http://www.w3.org/2000/svg" viewBox="0 0 110 110"><path fill="#111" d="M76.429 47.857q0 .526-.026 1.052-.026.525-.078 1.048-.051.524-.128 1.044t-.18 1.037q-.103.516-.23 1.026-.128.51-.281 1.013-.153.504-.33 1-.177.494-.379.98-.2.486-.426.962t-.473.94q-.248.463-.518.915-.27.45-.563.888t-.605.86q-.314.423-.647.83-.334.406-.687.796t-.726.761-.761.726-.797.687-.829.647-.86.605q-.437.293-.889.563-.45.27-.915.518-.464.248-.94.473t-.96.427q-.487.2-.982.378-.495.177-.999.33-.503.153-1.013.28t-1.027.23q-.515.104-1.036.18-.52.078-1.044.13-.523.051-1.049.077T55 69.286t-1.051-.026-1.05-.077-1.043-.13-1.036-.18-1.027-.23-1.013-.28q-.504-.153-1-.33-.494-.177-.98-.378-.486-.202-.962-.427-.475-.225-.94-.473-.463-.248-.914-.518-.452-.27-.89-.563-.436-.292-.859-.605-.422-.314-.83-.647-.406-.334-.796-.687t-.761-.726-.726-.761-.687-.797-.647-.829-.605-.86-.563-.888q-.27-.452-.518-.916-.248-.463-.473-.939t-.426-.962-.379-.98-.33-1-.28-1.013q-.128-.51-.23-1.026T33.803 51t-.13-1.044-.077-1.048-.026-1.052.026-1.051.078-1.05.128-1.043.18-1.036.23-1.027.281-1.013.33-.999.379-.981.426-.962.473-.94q.248-.463.518-.914.27-.452.563-.889t.605-.86q.314-.422.647-.829.334-.407.687-.796t.726-.762.761-.725q.39-.354.797-.687t.829-.647.86-.606.889-.563q.45-.27.915-.518.464-.248.94-.473t.96-.426.982-.379.999-.33 1.013-.28 1.027-.23q.515-.103 1.036-.18.52-.078 1.044-.13.523-.05 1.049-.077.525-.025 1.051-.025t1.051.025q.526.026 1.05.078.523.051 1.043.129.52.077 1.036.18.516.102 1.027.23t1.013.28 1 .33q.494.177.98.379.486.201.962.426.475.225.94.473.463.248.914.518.452.27.89.563.436.292.859.606.422.313.83.647.406.333.796.687.39.353.761.725.372.372.726.762.353.39.687.796.333.407.647.83.313.422.605.859t.563.889.518.915.473.94.426.96.379.982.33.999.28 1.013.23 1.027.18 1.036q.078.52.13 1.044.051.523.077 1.049t.026 1.051m0 0h-4.286q0-.42-.02-.841-.021-.42-.063-.84-.041-.418-.103-.834-.061-.417-.144-.83-.082-.412-.184-.82t-.224-.811-.264-.8q-.142-.395-.303-.784t-.341-.77-.378-.751q-.199-.371-.415-.732t-.45-.71-.485-.689-.517-.663-.55-.637-.58-.61-.61-.58-.637-.55-.663-.517-.688-.485-.71-.45-.733-.415-.751-.378-.77-.34q-.389-.162-.785-.304-.396-.141-.799-.264-.402-.122-.81-.224t-.822-.184-.829-.144-.835-.103-.839-.062q-.42-.02-.841-.02-.42 0-.841.02-.42.02-.84.062-.418.041-.834.103-.417.062-.83.144-.412.082-.82.184-.409.102-.811.224t-.8.264q-.395.142-.784.303-.39.161-.77.341t-.751.378-.732.415-.711.45-.688.485q-.338.25-.663.518-.326.266-.637.55-.312.282-.61.58-.297.297-.58.609-.283.311-.55.637-.267.325-.517.663t-.485.688-.45.71-.415.733-.378.752-.341.769-.303.785-.264.799-.224.81-.184.822-.144.829-.103.835-.062.839-.02.841.02.841q.02.42.062.84.041.418.103.834.061.417.144.83.082.412.184.82.102.409.224.811t.264.8q.142.396.303.784.161.39.341.77t.378.751.415.732.45.711.485.688.517.663.55.638.58.609.61.58.637.55.663.517.688.485.71.45.733.415.751.378.77.341.785.303.799.264.81.224.822.185.829.143.835.103.839.062T55 65q.42 0 .841-.02.42-.02.84-.062.418-.04.834-.103.417-.061.83-.143.412-.082.82-.185.409-.102.811-.224t.8-.264q.395-.142.784-.303.39-.161.77-.34t.751-.38q.371-.198.732-.414t.711-.45.688-.485.663-.517q.326-.267.637-.55.312-.283.61-.58.297-.298.58-.61.283-.311.55-.637.267-.325.517-.663t.485-.688.45-.71.415-.733.378-.751.341-.77.303-.785.264-.799.224-.81.184-.822.144-.829.103-.835.062-.839.02-.84z"/><path fill="none" stroke="#000" stroke-linecap="round" stroke-linejoin="round" stroke-width="2.4" d="M39.612 84.177q.22.02.507.029.289.01.689.01 2.344 0 3.472-1.177 1.128-1.182 1.128-3.262 0-2.182-1.08-3.3-1.079-1.124-3.418-1.124-.322 0-.664.015-.336.01-.634.049zm9.018-4.4q0 1.797-.561 3.14-.557 1.338-1.587 2.222-1.03.879-2.515 1.318-1.48.44-3.315.44-.84 0-1.963-.074-1.118-.068-2.197-.288v-13.5q1.079-.201 2.246-.27 1.172-.068 2.011-.068 1.783 0 3.233.4t2.49 1.26 1.597 2.203q.561 1.337.561 3.217m5.38 6.939h-2.98V76.198h2.979zm.278-13.56q0 .82-.532 1.29-.527.468-1.245.468-.723 0-1.255-.469-.527-.469-.527-1.289t.527-1.289q.532-.474 1.255-.474.718 0 1.245.474.532.469.532 1.29m5.54 11.421q.821 0 1.158-.161.342-.161.342-.62 0-.361-.44-.63-.439-.269-1.337-.61-.699-.26-1.27-.538-.571-.283-.972-.673-.4-.391-.62-.928-.22-.542-.22-1.299 0-1.484 1.1-2.344 1.103-.86 3.022-.86.957 0 1.836.172.883.17 1.401.37l-.518 2.32q-.522-.18-1.132-.317-.606-.142-1.368-.142-1.401 0-1.401.777 0 .18.059.322.063.142.244.273.18.127.488.279.308.146.791.327.977.361 1.616.713.645.346 1.011.757.371.41.523.913.15.498.15 1.157 0 1.562-1.171 2.363-1.172.796-3.31.796-1.402 0-2.335-.24-.927-.239-1.284-.4l.498-2.417q.762.298 1.558.47.8.17 1.582.17m6.18-3.12q0-1.143.372-2.148.37-1.011 1.069-1.763.703-.752 1.7-1.192 1-.44 2.28-.44.84 0 1.537.152.704.152 1.363.43l-.62 2.378q-.42-.156-.923-.278-.498-.123-1.118-.123-1.319 0-1.968.82-.65.821-.65 2.164 0 1.42.61 2.202.611.776 2.13.776.542 0 1.162-.097.62-.103 1.138-.322l.42 2.44q-.518.22-1.3.377-.78.161-1.718.161-1.44 0-2.48-.43t-1.715-1.167q-.668-.742-.981-1.753-.308-1.01-.308-2.187"/><path fill="#fff" d="M39.612 84.177q.22.02.507.029.289.01.689.01 2.344 0 3.472-1.177 1.128-1.182 1.128-3.262 0-2.182-1.08-3.3-1.079-1.124-3.418-1.124-.322 0-.664.015-.336.01-.634.049zm9.018-4.4q0 1.797-.561 3.14-.557 1.338-1.587 2.222-1.03.879-2.515 1.318-1.48.44-3.315.44-.84 0-1.963-.074-1.118-.068-2.197-.288v-13.5q1.079-.201 2.246-.27 1.172-.068 2.011-.068 1.783 0 3.233.4t2.49 1.26 1.597 2.203q.561 1.337.561 3.217m5.38 6.939h-2.98V76.198h2.979zm.278-13.56q0 .82-.532 1.29-.527.468-1.245.468-.723 0-1.255-.469-.527-.469-.527-1.289t.527-1.289q.532-.474 1.255-.474.718 0 1.245.474.532.469.532 1.29m5.54 11.421q.821 0 1.158-.161.342-.161.342-.62 0-.361-.44-.63-.439-.269-1.337-.61-.699-.26-1.27-.538-.571-.283-.972-.673-.4-.391-.62-.928-.22-.542-.22-1.299 0-1.484 1.1-2.344 1.103-.86 3.022-.86.957 0 1.836.172.883.17 1.401.37l-.518 2.32q-.522-.18-1.132-.317-.606-.142-1.368-.142-1.401 0-1.401.777 0 .18.059.322.063.142.244.273.18.127.488.279.308.146.791.327.977.361 1.616.713.645.346 1.011.757.371.41.523.913.15.498.15 1.157 0 1.562-1.171 2.363-1.172.796-3.31.796-1.402 0-2.335-.24-.927-.239-1.284-.4l.498-2.417q.762.298 1.558.47.8.17 1.582.17m6.18-3.12q0-1.143.372-2.148.37-1.011 1.069-1.763.703-.752 1.7-1.192 1-.44 2.28-.44.84 0 1.537.152.704.152 1.363.43l-.62 2.378q-.42-.156-.923-.278-.498-.123-1.118-.123-1.319 0-1.968.82-.65.821-.65 2.164 0 1.42.61 2.202.611.776 2.13.776.542 0 1.162-.097.62-.103 1.138-.322l.42 2.44q-.518.22-1.3.377-.78.161-1.718.161-1.44 0-2.48-.43t-1.715-1.167q-.668-.742-.981-1.753-.308-1.01-.308-2.187"/></svg>