<svg xmlns="http://www.w3.org/2000/svg" viewBox="0 0 110 110"><path fill="#35b8c6" d="M70 47.857q0 .368-.018.736t-.054.734-.09.731-.126.725q-.072.362-.162.719-.089.357-.196.71-.107.352-.23.698-.125.347-.266.687-.14.34-.298.673t-.331.658q-.174.325-.363.64-.19.316-.394.623-.205.306-.424.602-.22.295-.453.58t-.48.557-.508.534q-.26.26-.534.507-.272.248-.557.481-.285.234-.58.453-.296.22-.602.424-.307.205-.622.394-.316.19-.641.363t-.658.33-.673.3-.687.264-.699.231-.71.197q-.356.09-.718.16-.36.073-.725.127-.364.054-.73.09-.367.036-.735.054t-.736.018-.736-.018-.734-.054-.731-.09-.725-.126-.719-.161q-.357-.09-.71-.197-.352-.107-.698-.23-.347-.125-.687-.266-.34-.14-.673-.298t-.658-.331-.64-.363q-.316-.19-.623-.394-.306-.204-.601-.424-.296-.22-.58-.453-.286-.233-.558-.48-.273-.248-.534-.508-.26-.26-.507-.534-.248-.272-.481-.557-.234-.285-.453-.58-.22-.296-.424-.602-.205-.307-.394-.622-.19-.316-.363-.64-.173-.326-.33-.659-.158-.332-.3-.673-.14-.34-.264-.687-.124-.346-.231-.699-.107-.352-.196-.71-.09-.356-.162-.718-.072-.36-.126-.725-.054-.364-.09-.73-.036-.367-.054-.735T40 47.857t.018-.736.054-.734.09-.73q.054-.365.126-.726t.162-.719.196-.71.23-.698.266-.687q.14-.34.298-.673t.331-.658.363-.64q.19-.316.394-.622.205-.307.424-.602.22-.296.453-.58.233-.285.48-.558.248-.273.508-.533t.534-.508q.272-.247.557-.481t.58-.453q.296-.22.602-.424.307-.205.622-.394.316-.19.641-.363t.658-.33.673-.3.687-.264.699-.231.71-.196q.356-.09.718-.162.36-.071.725-.126.364-.054.73-.09.367-.036.735-.054t.736-.018.736.018.734.054.731.09q.364.055.725.126.362.072.719.162t.71.196q.352.107.698.231.347.124.687.265.34.14.673.298t.658.331.64.363q.316.19.623.394.306.205.601.424.296.22.58.453.286.234.558.48.273.248.534.509.26.26.507.533.248.273.481.557.234.285.453.58.22.296.424.603.205.306.394.622.19.315.363.64t.33.658.3.673q.14.34.264.687.124.346.231.699.107.352.196.71.09.357.162.718.072.36.126.725.054.364.09.73.036.367.054.735t.018.736"/><path fill="#42e3f5" d="M65.714 47.857q0 .263-.013.526t-.038.524-.065.522-.09.518q-.05.258-.115.513-.064.256-.14.507-.076.252-.165.5-.089.247-.19.49-.1.243-.212.481-.113.238-.237.47t-.26.457q-.134.226-.28.445-.147.218-.303.43-.157.21-.324.414t-.343.398-.363.381-.38.363-.399.343-.415.324-.43.303q-.218.146-.444.281-.225.135-.457.26-.232.123-.47.236t-.48.213-.491.19q-.248.088-.5.164t-.507.14-.513.116q-.258.05-.518.09-.26.038-.522.064t-.524.038-.526.013-.526-.013q-.262-.012-.524-.038t-.522-.065-.518-.09q-.258-.05-.513-.115-.255-.064-.507-.14t-.5-.165-.49-.19-.48-.212q-.239-.113-.47-.237-.233-.124-.458-.259-.226-.135-.445-.281-.218-.146-.43-.303-.21-.157-.414-.324t-.398-.343-.381-.363-.363-.38-.343-.399-.324-.414-.303-.43q-.146-.22-.28-.445-.136-.225-.26-.457t-.237-.47q-.112-.238-.213-.48-.1-.244-.189-.491-.089-.248-.165-.5-.076-.251-.14-.507-.064-.255-.115-.513t-.09-.518-.065-.522-.038-.524-.013-.526.013-.526.038-.524.065-.522.09-.518.115-.513q.064-.255.14-.507t.165-.5.19-.49.212-.48q.113-.239.237-.47.124-.233.26-.458.134-.226.28-.444.147-.22.303-.43.157-.212.324-.415t.343-.398.363-.381.38-.363q.196-.176.399-.343t.415-.324q.21-.156.43-.302.218-.147.444-.282.225-.135.457-.259t.47-.236.48-.214.491-.189.5-.165.507-.14.513-.115.518-.09.522-.065q.262-.025.524-.038.263-.013.526-.013t.526.013.524.038.522.065.518.09.513.115.507.14.5.165.49.19.48.213.47.236q.233.124.458.26.226.134.445.28.218.147.43.303.21.157.414.324t.398.343.381.363.363.38.343.399.324.415.303.43q.146.218.28.444.136.225.26.457t.237.47.213.48q.1.244.189.492.089.247.165.499t.14.507.115.513q.052.258.09.518.039.26.065.522.025.262.038.524.013.263.013.526"/><path fill="none" stroke="#000" stroke-linecap="round" stroke-linejoin="round" stroke-width="2.4" d="M41.059 79.777q0 1.02.249 1.841.254.816.722 1.406.47.591 1.148.913.684.318 1.562.318.86 0 1.548-.318.694-.322 1.162-.913.47-.59.718-1.406.254-.82.254-1.84t-.254-1.851q-.249-.83-.718-1.421t-1.162-.908q-.688-.323-1.548-.323-.878 0-1.562.332-.679.328-1.148.918t-.722 1.421q-.25.83-.25 1.831m10.58 0q0 1.778-.531 3.13-.528 1.348-1.45 2.26-.919.91-2.188 1.368t-2.73.459q-1.42 0-2.68-.459t-2.202-1.367q-.938-.913-1.48-2.26-.537-1.353-.537-3.13 0-1.783.557-3.13.561-1.353 1.508-2.271.953-.923 2.203-1.382t2.631-.459q1.421 0 2.681.459t2.197 1.382q.943.918 1.48 2.27.542 1.348.542 3.13m8.74-.942q-.4-.098-.942-.205-.537-.112-1.157-.112-.279 0-.67.048-.39.05-.59.108v8.042h-2.98v-9.961q.801-.279 1.89-.528 1.089-.254 2.427-.254.244 0 .58.035.343.029.68.078.341.049.678.122.342.068.586.166zm8.84 2.539q0-2.876-2.118-2.876-.46 0-.914.122-.449.117-.727.298v5.42q.22.039.557.068.341.03.742.03 1.22 0 1.84-.84t.62-2.222m3.043.083q0 1.26-.371 2.28-.372 1.02-1.075 1.743-.698.718-1.718 1.109-1.016.386-2.32.386-.537 0-1.128-.05-.59-.048-1.162-.131-.566-.078-1.089-.186-.517-.112-.918-.234V71.677l2.979-.479v5.24q.498-.22 1.04-.342t1.162-.123q1.118 0 1.977.391.86.39 1.441 1.113.581.718.879 1.729.303 1.01.303 2.25"/><path fill="#fff" d="M41.059 79.777q0 1.02.249 1.841.254.816.722 1.406.47.591 1.148.913.684.318 1.562.318.86 0 1.548-.318.694-.322 1.162-.913.47-.59.718-1.406.254-.82.254-1.84t-.254-1.851q-.249-.83-.718-1.421t-1.162-.908q-.688-.323-1.548-.323-.878 0-1.562.332-.679.328-1.148.918t-.722 1.421q-.25.83-.25 1.831m10.58 0q0 1.778-.531 3.13-.528 1.348-1.45 2.26-.919.91-2.188 1.368t-2.73.459q-1.42 0-2.68-.459t-2.202-1.367q-.938-.913-1.48-2.26-.537-1.353-.537-3.13 0-1.783.557-3.13.561-1.353 1.508-2.271.953-.923 2.203-1.382t2.631-.459q1.421 0 2.681.459t2.197 1.382q.943.918 1.48 2.27.542 1.348.542 3.13m8.74-.942q-.4-.098-.942-.205-.537-.112-1.157-.112-.279 0-.67.048-.39.05-.59.108v8.042h-2.98v-9.961q.801-.279 1.89-.528 1.089-.254 2.427-.254.244 0 .58.035.343.029.68.078.341.049.678.122.342.068.586.166zm8.84 2.539q0-2.876-2.118-2.876-.46 0-.914.122-.449.117-.727.298v5.42q.22.039.557.068.341.03.742.03 1.22 0 1.84-.84t.62-2.222m3.043.083q0 1.26-.371 2.28-.372 1.02-1.075 1.743-.698.718-1.718 1.109-1.016.386-2.32.386-.537 0-1.128-.05-.59-.048-1.162-.131-.566-.078-1.089-.186-.517-.112-.918-.234V71.677l2.979-.479v5.24q.498-.22 1.04-.342t1.162-.123q1.118 0 1.977.391.86.39 1.441 1.113.581.718.879 1.729.303 1.01.303 2.25"/></svg>