<svg xmlns="http://www.w3.org/2000/svg" viewBox="0 0 110 110"><path fill="#42e3f5" d="M76.429 47.857q-6.797 6.061-6.277 15.152-9.091-.52-15.152 6.277-6.06-6.797-15.152-6.277.52-9.091-6.277-15.152 6.797-6.06 6.277-15.152 9.091.52 15.152-6.276 6.06 6.796 15.152 6.276-.52 9.091 6.277 15.152"/><path fill="#35b8c6" d="M77.855 49.456q-6.024 5.373-5.563 13.431.006.105.001.21-.004.106-.019.21t-.039.206-.06.202q-.034.1-.078.195-.045.096-.098.186t-.115.176-.132.164-.148.15q-.077.07-.161.134t-.174.119-.185.1-.194.082-.2.063q-.102.026-.206.042t-.21.023q-.122.007-.244 0-8.058-.461-13.43 5.563-.07.079-.148.15t-.162.135-.174.118-.184.1-.194.082q-.099.037-.2.063-.103.026-.207.043t-.209.022q-.105.006-.21.002-.105-.005-.21-.02-.104-.014-.206-.039-.102-.024-.202-.06-.1-.034-.195-.078t-.186-.097q-.09-.054-.176-.116t-.163-.132q-.092-.082-.173-.173-5.373-6.024-13.431-5.563-.105.006-.21.001-.105-.004-.21-.018-.104-.015-.206-.04-.103-.025-.202-.06t-.195-.078q-.095-.044-.186-.098-.09-.053-.176-.115t-.164-.132-.15-.148q-.07-.077-.134-.161t-.118-.174-.101-.185-.082-.193q-.036-.1-.063-.201-.026-.102-.042-.206t-.023-.21q-.007-.122 0-.244.461-8.058-5.563-13.43-.078-.07-.15-.148-.071-.078-.134-.162t-.119-.174-.1-.184-.082-.194q-.037-.099-.063-.2t-.043-.206-.022-.21-.002-.21q.005-.105.02-.21.014-.104.039-.206.024-.102.06-.202.034-.099.078-.194.044-.096.098-.187.053-.09.115-.176t.132-.163q.082-.092.173-.173 6.024-5.372 5.563-13.43-.006-.106-.001-.211.004-.105.019-.21.014-.104.039-.206t.06-.202.078-.195.098-.186.115-.176.132-.163.148-.15.161-.135.174-.118.185-.1q.095-.047.194-.083.098-.036.2-.063.102-.026.206-.042t.21-.023q.122-.007.244 0 8.058.461 13.43-5.563.07-.078.148-.15.078-.07.162-.134t.174-.118q.09-.055.184-.101.095-.046.194-.082t.2-.063.207-.042q.104-.017.209-.023t.21-.001.21.018.206.04.202.06.195.078.186.098.176.115.163.132q.092.082.173.173 5.373 6.024 13.431 5.563.105-.006.21-.001.105.004.21.019.104.014.206.04.103.024.202.059t.195.078q.095.045.186.098.09.053.176.115t.164.133.15.147q.07.078.134.162t.118.173q.055.09.101.185t.082.194.063.2.042.206.023.21q.007.122 0 .244-.461 8.059 5.563 13.43.078.07.15.148.071.078.134.162t.119.174.1.184.082.194q.037.099.063.2.026.103.043.207t.022.209q.006.105.002.21-.005.105-.02.21-.014.104-.039.206-.024.102-.06.202-.034.1-.078.195t-.098.186q-.053.09-.115.176t-.132.163q-.082.092-.173.173m-2.853-3.198 1.427 1.6-1.427 1.598q-7.568-6.75-6.99-16.874l2.14.123.123 2.14q-10.125.578-16.874-6.99L55 26.429l1.6 1.426q-6.75 7.568-16.875 6.99l.123-2.14 2.14-.122q.578 10.124-6.99 16.873l-1.427-1.599 1.427-1.6q7.568 6.75 6.99 16.875l-2.14-.123-.123-2.139q10.125-.579 16.874 6.99L55 69.285l-1.6-1.427q6.75-7.568 16.875-6.989l-.123 2.14-2.14.122q-.578-10.125 6.99-16.874"/><path fill="#6be5f2" d="M66.429 47.857q0 .28-.014.56-.014.281-.041.56-.028.28-.07.557-.04.278-.095.553t-.123.547-.15.54q-.081.27-.176.533-.094.264-.201.524-.108.259-.228.512-.12.254-.252.501-.132.248-.276.489-.145.24-.3.473-.156.234-.323.46-.168.224-.346.441t-.366.425-.387.406-.406.387-.425.366-.442.346-.459.323-.474.3-.488.276-.5.252-.513.228-.524.202-.532.176-.541.15q-.272.067-.547.122-.276.055-.553.096-.278.041-.557.069-.279.027-.56.04-.28.015-.56.015t-.56-.014-.56-.041q-.28-.028-.557-.069t-.553-.096-.547-.123-.54-.15q-.269-.08-.533-.175t-.524-.202-.512-.228q-.254-.12-.501-.252-.248-.132-.488-.276-.241-.145-.474-.3-.234-.156-.459-.323-.225-.168-.442-.346t-.425-.366-.406-.387-.387-.406-.366-.425-.346-.442-.323-.459q-.155-.233-.3-.473-.144-.241-.276-.489-.132-.247-.252-.5-.12-.254-.228-.513-.107-.26-.201-.524t-.176-.532-.15-.541-.123-.547-.096-.553q-.041-.278-.069-.557-.027-.279-.04-.56-.015-.28-.015-.56t.014-.56.041-.56.07-.557q.04-.277.095-.552.055-.276.123-.548t.15-.54.176-.533.201-.523.228-.513q.12-.254.252-.501.132-.248.276-.488.145-.241.3-.474.156-.234.323-.459.168-.225.346-.442t.366-.425.387-.406.406-.387.425-.366.442-.345.459-.323q.233-.156.474-.3.24-.145.488-.277.247-.132.5-.252.254-.12.513-.228.26-.107.524-.201t.532-.176.541-.15.547-.123.553-.096.557-.068.56-.042.56-.013q.28 0 .56.013.281.014.56.042.28.027.557.068t.553.096.547.123.54.15.533.176.524.201.512.228q.254.12.501.252.248.132.488.276.241.145.474.3.234.156.459.324.225.167.442.345t.425.366.406.387.387.406.366.425.346.442.323.459q.155.233.3.474.144.24.276.488.132.247.252.5.12.254.228.514.107.259.201.523t.176.533.15.54.123.548.096.552.069.557q.027.28.04.56.015.28.015.56"/><path fill="none" stroke="#000" stroke-linecap="round" stroke-linejoin="round" stroke-width="2.4" d="M30.73 86.994q-3.379 0-5.151-1.88-1.768-1.88-1.768-5.337 0-1.723.537-3.071.542-1.353 1.48-2.28.942-.928 2.24-1.407 1.3-.483 2.823-.483.879 0 1.597.132.722.127 1.26.298.541.17.903.351.361.18.517.279l-.898 2.52q-.64-.343-1.49-.582-.849-.24-1.928-.24-.723 0-1.411.24t-1.22.772-.855 1.372q-.318.84-.318 2.036 0 .962.21 1.792t.679 1.43q.474.601 1.23.953.762.346 1.841.346.684 0 1.22-.078.543-.083.963-.19.42-.113.737-.25.322-.14.581-.263l.86 2.5q-.66.4-1.86.723-1.197.317-2.78.317m10.46-2.358q.44 0 .84-.02t.64-.058v-2.261q-.181-.04-.543-.078-.356-.044-.659-.044-.42 0-.79.053-.367.05-.65.19-.279.138-.44.377-.156.24-.156.6 0 .699.469.972.469.269 1.289.269m-.24-8.721q1.319 0 2.198.303.884.297 1.411.859.532.557.752 1.358.22.8.22 1.782v6.2q-.64.138-1.782.328-1.138.19-2.76.19-1.02 0-1.85-.18t-1.43-.591-.923-1.07q-.318-.659-.318-1.62 0-.918.371-1.558t.992-1.02q.62-.382 1.42-.547.801-.171 1.66-.171.577 0 1.026.048.454.05.732.127v-.278q0-.762-.459-1.22-.459-.46-1.601-.46-.757 0-1.5.113-.741.107-1.279.307l-.38-2.397q.258-.083.65-.171.39-.093.849-.161t.966-.117q.513-.054 1.036-.054m6.778 5.542q0-1.143.371-2.148.372-1.011 1.07-1.763.703-.752 1.7-1.192 1-.44 2.28-.44.84 0 1.537.152.703.152 1.363.43l-.62 2.378q-.42-.156-.923-.278-.498-.123-1.118-.123-1.319 0-1.968.82-.65.821-.65 2.164 0 1.42.61 2.202.611.776 2.13.776.542 0 1.162-.097.62-.103 1.138-.322l.42 2.44q-.518.22-1.3.377-.78.161-1.718.161-1.44 0-2.48-.43t-1.715-1.167q-.669-.742-.981-1.753-.308-1.01-.308-2.187m10.4-7.88 2.984-.48v3.101h3.58v2.476h-3.58v3.7q0 .943.327 1.505.332.556 1.333.556.479 0 .987-.087.512-.093.932-.254l.42 2.324q-.542.22-1.201.376-.66.161-1.621.161-1.22 0-2.022-.327-.795-.332-1.279-.923-.478-.59-.669-1.43-.19-.84-.19-1.861zm17.963 12.777q-.762.22-1.963.41-1.196.191-2.52.191-1.338 0-2.231-.356-.889-.362-1.411-1.011-.518-.654-.737-1.553-.22-.898-.22-1.977v-5.86h2.983v5.498q0 1.44.376 2.08.381.64 1.421.64.322 0 .679-.03.361-.029.644-.073v-8.115h2.979zm5.818-1.777q.82 0 1.157-.161.342-.161.342-.62 0-.361-.44-.63-.439-.269-1.337-.61-.699-.26-1.27-.538-.571-.283-.972-.673-.4-.391-.62-.928-.22-.542-.22-1.299 0-1.484 1.1-2.344 1.103-.86 3.022-.86.957 0 1.835.172.884.17 1.402.37l-.518 2.32q-.522-.18-1.132-.317-.606-.142-1.368-.142-1.401 0-1.401.777 0 .18.058.322.064.142.245.273.18.127.488.279.308.146.791.327.977.361 1.616.713.645.346 1.01.757.372.41.523.913.152.498.152 1.157 0 1.562-1.172 2.363-1.172.796-3.31.796-1.402 0-2.335-.24-.927-.239-1.284-.4l.498-2.417q.762.298 1.558.47.8.17 1.582.17"/><path fill="#fff" d="M30.73 86.994q-3.379 0-5.151-1.88-1.768-1.88-1.768-5.337 0-1.723.537-3.071.542-1.353 1.48-2.28.942-.928 2.24-1.407 1.3-.483 2.823-.483.879 0 1.597.132.722.127 1.26.298.541.17.903.351.361.18.517.279l-.898 2.52q-.64-.343-1.49-.582-.849-.24-1.928-.24-.723 0-1.411.24t-1.22.772-.855 1.372q-.318.84-.318 2.036 0 .962.21 1.792t.679 1.43q.474.601 1.23.953.762.346 1.841.346.684 0 1.22-.078.543-.083.963-.19.42-.113.737-.25.322-.14.581-.263l.86 2.5q-.66.4-1.86.723-1.197.317-2.78.317m10.46-2.358q.44 0 .84-.02t.64-.058v-2.261q-.181-.04-.543-.078-.356-.044-.659-.044-.42 0-.79.053-.367.05-.65.19-.279.138-.44.377-.156.24-.156.6 0 .699.469.972.469.269 1.289.269m-.24-8.721q1.319 0 2.198.303.884.297 1.411.859.532.557.752 1.358.22.8.22 1.782v6.2q-.64.138-1.782.328-1.138.19-2.76.19-1.02 0-1.85-.18t-1.43-.591-.923-1.07q-.318-.659-.318-1.62 0-.918.371-1.558t.992-1.02q.62-.382 1.42-.547.801-.171 1.66-.171.577 0 1.026.048.454.05.732.127v-.278q0-.762-.459-1.22-.459-.46-1.601-.46-.757 0-1.5.113-.741.107-1.279.307l-.38-2.397q.258-.083.65-.171.39-.093.849-.161t.966-.117q.513-.054 1.036-.054m6.778 5.542q0-1.143.371-2.148.372-1.011 1.07-1.763.703-.752 1.7-1.192 1-.44 2.28-.44.84 0 1.537.152.703.152 1.363.43l-.62 2.378q-.42-.156-.923-.278-.498-.123-1.118-.123-1.319 0-1.968.82-.65.821-.65 2.164 0 1.42.61 2.202.611.776 2.13.776.542 0 1.162-.097.62-.103 1.138-.322l.42 2.44q-.518.22-1.3.377-.78.161-1.718.161-1.44 0-2.48-.43t-1.715-1.167q-.669-.742-.981-1.753-.308-1.01-.308-2.187m10.4-7.88 2.984-.48v3.101h3.58v2.476h-3.58v3.7q0 .943.327 1.505.332.556 1.333.556.479 0 .987-.087.512-.093.932-.254l.42 2.324q-.542.22-1.201.376-.66.161-1.621.161-1.22 0-2.022-.327-.795-.332-1.279-.923-.478-.59-.669-1.43-.19-.84-.19-1.861zm17.963 12.777q-.762.22-1.963.41-1.196.191-2.52.191-1.338 0-2.231-.356-.889-.362-1.411-1.011-.518-.654-.737-1.553-.22-.898-.22-1.977v-5.86h2.983v5.498q0 1.44.376 2.08.381.64 1.421.64.322 0 .679-.03.361-.029.644-.073v-8.115h2.979zm5.818-1.777q.82 0 1.157-.161.342-.161.342-.62 0-.361-.44-.63-.439-.269-1.337-.61-.699-.26-1.27-.538-.571-.283-.972-.673-.4-.391-.62-.928-.22-.542-.22-1.299 0-1.484 1.1-2.344 1.103-.86 3.022-.86.957 0 1.835.172.884.17 1.402.37l-.518 2.32q-.522-.18-1.132-.317-.606-.142-1.368-.142-1.401 0-1.401.777 0 .18.058.322.064.142.245.273.18.127.488.279.308.146.791.327.977.361 1.616.713.645.346 1.01.757.372.41.523.913.152.498.152 1.157 0 1.562-1.172 2.363-1.172.796-3.31.796-1.402 0-2.335-.24-.927-.239-1.284-.4l.498-2.417q.762.298 1.558.47.8.17 1.582.17"/></svg>