<svg xmlns="http://www.w3.org/2000/svg" width="110" height="110">
				<path fill="#333" stroke="#333" stroke-linecap="round" stroke-linejoin="round" stroke-width="3.25" d="M19.48 54.236c-3.59-.148-8.381.1-16.617.764 8.236.664 13.027.912 16.617.764s4.503-.498 4.902-.764c-.399-.266-1.311-.616-4.902-.764" />
				<path stroke="#333" stroke-linecap="round" stroke-linejoin="round" stroke-width="3.25" d="M25.913 58.863Q15.67 64.841 9.038 70.352q6.042-10.09 16.875-11.489m0-7.726Q15.67 45.159 9.038 39.648q6.042 10.09 16.875 11.489" />
				<path fill="#716a6e" stroke="#5a5558" stroke-linecap="round" stroke-linejoin="round" stroke-width="4.5" d="M52.661 76.147C70.461 77.415 81.715 67.51 81.715 55S70.46 32.585 52.661 33.853C31.737 35.345 17.713 45.07 17.713 55s14.024 19.655 34.948 21.147" />
				<path stroke="#333" stroke-linecap="round" stroke-linejoin="round" stroke-width="3.25" d="M77.24 60.536q17.938 5.548 29.896 11.095Q95.178 60.536 77.24 60.536m0-11.072q17.938-5.548 29.896-11.095Q95.178 49.464 77.24 49.464" />
				<path fill="none" stroke="#5a5558" stroke-linecap="round" stroke-linejoin="round" stroke-width="4.5" d="M34.068 63.873s1.103-1.857 1.44-3.006c.336-1.15.393-3.686.393-5.867s-.057-4.717-.394-5.867c-.336-1.15-1.44-3.006-1.44-3.006m33.846 20.27s-.98-1.766-1.453-3.496-.712-5.177-.712-7.901.24-6.171.712-7.901c.473-1.73 1.453-3.496 1.453-3.496M52.77 41.478s-.811 2.115-1.074 3.863c-.264 1.748-.36 6.31-.36 9.659s.096 7.911.36 9.659c.263 1.748 1.074 3.863 1.074 3.863" />
			</svg>