<svg xmlns="http://www.w3.org/2000/svg" width="110" height="110">
				<path fill="#54802c" stroke="#436623" stroke-linecap="round" stroke-linejoin="round" stroke-width="2" d="M77.478 58.67v-6.69l-2.399-1.313v-6.968c0-2.32-.984-3.334-3.12-3.334H38.04c-2.136 0-3.12 1.014-3.12 3.334v6.968l-2.399 1.313v6.692H55Z"/>
				<path fill="#111" stroke="#0e0e0e" stroke-linejoin="round" d="M62.804 37.548h6v2h-6z" paint-order="stroke fill markers"/>
				<path fill="#111" stroke="#111" stroke-linecap="round" stroke-linejoin="round" d="M80.043 46.346q.504 1.449.838 2.968c-1.859.086-3.64.137-5.131.137v-3c1.24 0 2.725-.04 4.293-.105m-50.086 0a26 26 0 0 0-.838 2.968c1.859.086 3.64.137 5.131.137v-3c-1.24 0-2.725-.04-4.293-.105M53.5 28.44v11.243h3V28.44Z"/>
				<path fill="#b1cd29" stroke="#111" stroke-linecap="round" stroke-linejoin="round" stroke-width="3.5" d="M59 50a3 3 0 0 0 3 3 3 3 0 0 0 3-3 3 3 0 0 0-3-3 3 3 0 0 0-3 3m-8 0a3 3 0 0 1-3 3 3 3 0 0 1-3-3 3 3 0 0 1 3-3 3 3 0 0 1 3 3" paint-order="stroke fill markers"/>
				<path fill="#999" d="M71.2 54.802a1.15 1.15 0 0 0 1.15 1.15 1.15 1.15 0 0 0 1.15-1.15 1.15 1.15 0 0 0-1.15-1.15 1.15 1.15 0 0 0-1.15 1.15m-.805-10.761a1.15 1.15 0 0 0 1.15 1.15 1.15 1.15 0 0 0 1.15-1.15 1.15 1.15 0 0 0-1.15-1.15 1.15 1.15 0 0 0-1.15 1.15m-31.594 10.76a1.15 1.15 0 0 1-1.15 1.15 1.15 1.15 0 0 1-1.15-1.15 1.15 1.15 0 0 1 1.15-1.15 1.15 1.15 0 0 1 1.15 1.15m.804-10.76a1.15 1.15 0 0 1-1.15 1.15 1.15 1.15 0 0 1-1.15-1.15 1.15 1.15 0 0 1 1.15-1.15 1.15 1.15 0 0 1 1.15 1.15"/>
			</svg>