<svg viewBox="0 0 300 300">
	<circle cx="150" cy="150" r="102"/>
	<path fill="#19afb2" d="M143.752 15.407 130.29 27.112l1.469 31.766 10.326 5.113 7.75-3.75 9.969 3.871 3.043-5.412 7.988 6.29 10.285-2.687 2.92-11.662 4.795 16.6 6.5 4 7.195-3.483 2.805 9.586L203 80.606l10.086 13.135 10.293-.295.328 5.43 9.428 4.642.168 2.979-1.485-.104-6.244 14.42 12.207 18.465 7.149 2.611.11 6.819-1.755.705 1.191 11.324-4.39-3.496-11.5 13 2.873 25.38-5.678-7.675-16.172 12.904-.058 17.867-10.604-13.843-14.16 17.873-.344 8.695-8.926 12.7 4.16-14.167-14.14-15.2-12.19 12.74.344 4.052-12.02-15.379-15.38 13.611.178 13.436-5.383-5.12-1.274 2.352-2.427-26.257-14.104-6.573-4.672 8.668-3.607-9.84-11.666-2.83-5.908 8.291-5.592-18.935-9.25-6-2.813-13.735 4.291-1.83 8.256-28.437-9.187-10.23-6.623 4.328.818-12.227 8.008-4.37.23-2.73 4.27 1.73 13.5-17-3.512-11.316 4.082-21.082-.17 7.565 7.975 5.334 9.875-5.25 1.14-5.094 3.86 3.219 8.375-4.375 3.281-6.881 8.684.656 4.834-6.388-3.924-26.217-13.801-7.465-8.668 12.943 6.39 14.082-4.92 2.059.766-3.418-11.25-10.397-11.959 7.977-.32 14.2L71.043 53l-9.776 14.111 3.457 16.248-11.888-5.37-10.31 15.183 4.655 20.187-4.595-3.37-11.25 17.25 10.062 24.71-4.123-1.356-4.771 23.352 9.322 14.033-2.486-.17-.635 12.56 9.447 10.956 9.055.52 6.853 19.017 12.924.363 5.291 12.54 8.131 3.534 7.428-5.292 5.502 15.734h10.531l5.094 10 8.125 2.125 5.924-5.418 6.894 2.297 7.955-6.363 5.04-24.897-1.305 23.148 9.252 6.948 9.64-4.315 4.422-15.052.152 10.296 8.047 7.428 9.516-4.418.871-7.676 4.861 4.149 8.534-6.662 2.75-15.992 8.681 6.164 10.752-9.094 4.264-15.041 5.129 4.459 17.103-10.264-2.5-17.75-4.697 1.836 1.295-6.375 7.67-1.533 10.375-30.875-6.313-12.711 6.438-14.914-8.25-14.25-7.692 3.973-1.384-2.114 7.45-23.101-11.286-12.678-1.764 1.424 4.676-15.504-11.5-10.75-16.258 13.578 2.008-22.078-13-10.5-5.13 5.603-11.62-9.353-7.317 8.25 2.067-8.25-8-13.5-18 11.5.13 13.55-9.648 2.598 1.692-16.568z"/>
	<path fill="#1fdbde" d="m48.508 142.317 8.846 9.217 14.966-8.545-9.187-10.23zm177.066-21.504 12.794-.262 6.82-13.216-13.37-.942zm-72.226 106.7 12.677 11.081 13.653-8.618-14.142-15.203zm45.599-22.64-1.591 19.27 4.825 5.572 9.494-8.224zm10.662-4.022 12.814 10.076 9.857-14.195-6.498-8.786zm18.977-30.61 12.75 7.25 12.25-9.5-13.5-10.75zm14.698-20.829 9.302 9.329 15.125-3.875-6.312-12.71zm1.302-28.671 9.162 13.245 14.088-6.745-8.25-14.25zm2.087-41.67-4.062 19.03 15.35-6.353zm-8.587-24.83-2.016 17.874 10.527 2.787 2.989-9.911zm-40.75-4.25 9.566 6.92 16.934-11.17-13-10.5zm-15-5.25 10.777 2.448 9.645-8.718-8.672-6.98zm-19.5-15.25 8.357 8.682 17.643-6.682-8-13.5zm-32.546-2.38 8.296 11.255 16.424-9.295-11.259-13.665zM105.368 38.14l12.343 3.227 10.126-8.706-13.802-7.463zM84.394 48.442l-.225 9.994 8.962-.062 6.858-13.18-3.635-4.728zm-23.126 18.67 11.46 6.24 12.461-9.886L71.043 53ZM46.35 87.541l8.986 10.325 13-12.875-15.5-7zm-15.014 39.7 11.582 3.054 14.668-9.304-15-11zm5.94 23.354 7.035 16.062 14.431 1.567-2.322-11.339zm16.035 50.439 8.87 3.824 9.655-11.867-10.297-6.292zm30.024 2.602-.72 20.037 15.994-7.368-3.607-9.84zm9.352 23.657 11.154 5.512 13.543-18.594-14.104-6.574zm33.605 2.506 7.919 7.317 6-2.125 4.597-14.79-3.136-4.013z"/>
	<path fill="none" stroke="#148c8e" stroke-linecap="round" stroke-linejoin="round" stroke-width="2.5" d="m112.21 254.49 12.25 4.376 8-8.625 1.75-13.125 6-2.125 13.482-3.424m-29.231 27.299 2.625 11m17.722-49.665-4.597 14.79 7.648 25.39M126.292 229.8l7.919 7.317 6-2.125 13.481-3.424m-20.683 32.88 6.895 2.299 7.955-6.364 5.833-28.815-12.02-15.379-15.38 13.611.185 14.063m-5.391-5.746 11.375 12.125.548 14.207-5.923 5.418-8.125-2.125-6.75-13.25zm44.94.478-5.18 26.987m-7.498-38.068 12.677 11.081 13.653-8.618m-26.566 1.739.236-4.202 12.188-12.74 14.142 15.203-9.192 31.29-9.64 4.315-9.253-6.947 1.306-23.149m49.282-5.77 9.494-8.224m-26.888 1.255 12.569 1.396m1.591-19.268-1.591 19.268 4.825 5.573-3.825 26.278m-13.914-24.55.345-8.697 14.16-17.872 12.728 16.617-4.786 27.84-8.533 6.662-4.862-4.148m-6.784-2.64-3.603 14.734m-7.59-19.797 11.193 5.064 7.939-7.532m-10.207-10.232-8.925 12.7-.456 12.368 8.046 7.429 9.515-4.42 2.027-17.845zm-80.6 1.363 9.757 19.125m-20.912-24.637 11.154 5.512 13.543-18.594m2.427 26.256-2.427-26.256-14.104-6.574-10.593 19.656 10.649 30.448h10.53m-30.531-54.105-.72 20.037 7.791 23.627m-17.678-26.163 9.887 2.536 15.994-7.368m0 0-3.607-9.84-11.667-2.829-10.607 17.501 9.546 22.628 8.132 3.535 7.427-5.294m-34.985-27.92 11.604 3.673M62.18 204.858l1.88 26.004m-10.75-29.828 8.87 3.824 9.655-11.867m4.341 38.211-12.116-.34-10.75-29.828 8.228-14.335 10.297 6.292 5.881 19.914m-29.56-12.274 9.05 11.214m-18.502-11.474 9.451.26 4.65-11.897m2.069 8.535-2.069-8.535-13.465-.925-.636 12.562 9.448 10.954 9.054.52m-21.722-33.41 8.826-11.778 14.431 1.567m-21.466-17.629 7.035 16.062 4.366 21.793m-6.85-.47-9.324-14.034 4.773-23.35 19.144 6.29 6.166 30.105m-14.078-44.674 8.846 9.217-.473 7.598m2.892 14.124 4.291-1.83 8.255-28.438-9.187-10.23-14.624 9.559.48 11.922m23.331-11.25-14.965 8.545m-14.436-21.239 7.966 10.469M31.336 127.24l11.582 3.054 14.668-9.304m-16.188 30.958L31.336 127.24l11.25-17.25 15 11-1.077 16.096m16.396-35.274-3.07 17.678m-2.246-25.65 5.317 7.973 10.43.678M46.35 87.54l8.986 10.325m-3.196 19.131 3.196-19.131 13-12.875m-.748 8.849 11.248-5.85 4.5 14.5-13.5 17-4.27-1.729m-18.385-4.4-4.656-20.188 10.31-15.182 15.5 7-3 35.5-8.008 4.368m15.401-51.507-1.758 18.73m-9.702-24.97 11.46 6.24 12.461-9.886M64.723 83.36l-3.455-16.248 9.775-14.11 14.146 10.464-5.365 27.71m24.673-26.437L93.13 58.374l-1.42 24.617m-7.542-24.555 8.962-.062 6.858-13.18M83.906 70.093l-.17 7.565 7.975 5.334 9.875-5.25 6.018-26.879-11.25-10.396-11.96 7.976-.32 14.199m26.137-.275-3.625 13.5m-3.86-3.219 3.86 3.219 8.375-4.375 5.125-10.75-3-10.75-10.248 4.29 3.373 8.085 9.875-1.625m-2.375-19.375 9.216 23.9M105.368 38.14l12.343 3.227 10.126-8.706m-16.08 19.561-6.389-14.082 8.667-12.942 13.802 7.463 3.922 26.218-4.832 6.388-8.686-.656m20.345-26.244 3.5 25.625M130.29 27.11l8.296 11.255 16.424-9.295m-1.69 16.57 1.691-16.569-11.259-13.665-13.46 11.705 1.468 31.767 10.327 5.113 7.75-3.75m7-7.5 2.969 11.37m-8.72-17.87 5.75 6.5 9.5-.25m-16.5 7.75 9.97 3.87 6.53-11.62-2.25-9.75-13 3.5zm17.414-12.88 13.872 14.943m-9.928-24.13-5.308 12.364m-3.05-21.047 8.358 8.682 17.643-6.682m-25.87 11.551-.13-13.551 18-11.5 8 13.5-2.066 8.25m-2.73 10.901-2.92 11.662-10.284 2.687-7.99-6.292m81.472 146.365 8.75-13.25m-16.411 6.41 7.661 6.84 2.3 9.87m-13.283.433 5.13 4.46 17.103-10.263-2.5-17.75-16.411 6.41-1.042 3.017m-3.335-4.51-9.857 14.196-4.104 28.575m-8.71-38.651 12.814 10.076 10.499 5.9m-23.284 16.511 8.681 6.164 10.753-9.094 7.79-27.482-11.08-14.98-16.173 12.905-.059 17.866m43.387-47.534 7.886 4.18m-8.237-16.622-.336 8.186m-8.966-17.515 9.302 9.329 15.125-3.875m-23.235 5.87-1.192-11.324 18.115-7.256 6.312 12.71-10.375 30.875-7.67 1.534m-8.33-9.784-1.779 19.6m-10.971-26.85 12.75 7.25 12.25-9.5m-22.127 27.63-2.873-25.38 11.5-13 13.5 10.75-5.215 25.658m5.377-59.663-.847 11.574m-8.315-24.82 9.162 13.246 14.088-6.745m-29.468-6.69 6.45 14.483m-19.245-14.22 12.795-.263 7.238-13.187m-.676 34.525-7.15-2.61-12.207-18.465 6.245-14.421 13.788.971 6.289 9.6m-6.854 31.744-.455-27.967 15-7.75 8.25 14.25-6.437 14.915m-68.286-94.967 9.645-8.718m-20.422 6.27 10.777 2.448 2.223 24.052m7.196-3.482-7.196 3.482-6.5-4-6.5-22.5 11.75-13.25 11.621 9.354m40.966 38.226-4.062 19.03 2.577 9.234m-12.914-19.06 10.337 9.826 15.35-6.353m-29.345 9.545 7.454-29.178m0 0 10.527 2.787m-24.077 4.347 13.55-7.134 2.016-17.874m-23.23 26.89-9.175 2.967m10.85-15.038-1.674 12.07 8.299 8.634m-16.254-32.852 6.178 15.093m-15.744-22.014 9.566 6.92 16.934-11.17m21.074 34.755 4.676-15.505-11.5-10.75L221.83 67.82l1.878 31.055 9.428 4.644M205.633 78.36l-8.297-28.37 13.5-14.75 13 10.5-2.007 22.08m.506 8.372-5.805-7.132L203 80.607l10.086 13.134 10.293-.294m27.131 21.403 7.45-23.102-11.287-12.677-14.399 9.204 1.029 18.222"/>
</svg>