<svg xmlns="http://www.w3.org/2000/svg">
					<path fill="#a88642" stroke="#886d35" stroke-width="4.667" d="M88.85 61.565c0-13.98-2.715-23.554-7.144-29.99C78.915 11.502 68.519 6.45 55 6.45s-23.915 5.052-26.706 25.125c-4.43 6.436-7.144 16.01-7.144 29.99 0 34.01 16.039 41.985 33.85 41.985s33.85-7.975 33.85-41.985z"/>
					<path fill="#655027" stroke="#886d35" stroke-width="4.667" d="M74.885 35.465c3.946 5.541 6.569 13.069 6.569 25.105 0 29.282-12.72 35.62-26.454 35.62-13.733 0-26.454-6.338-26.454-35.62 0-12.036 2.624-19.564 6.57-25.105C37.268 18.183 44.576 13.65 55 13.65s17.733 4.533 19.885 21.815z"/>
				</svg>