<svg xmlns="http://www.w3.org/2000/svg" width="110" height="110">
						<path fill="none" stroke="#192049" stroke-linejoin="round" stroke-width="3" d="M70.04 48.76c-.839-1.926-2.27-3.842-3.728-4.885-1.72-1.231-7.124-3.364-6.78-2.085.54 2.014 1.156 8.78 1.156 13.21s-.616 11.196-1.157 13.21c-.343 1.279 5.06-.854 6.782-2.085 1.457-1.043 2.888-2.96 3.727-4.885-.507-1.227-1.415-2.802-1.415-6.24s.908-5.013 1.415-6.24z" paint-order="stroke fill markers"/>
						<path fill="#fff" fill-opacity=".5" d="M61.23 43.197c.175.052.237.046.426.112 1.4.484 3.194 1.365 3.783 1.787 1.02.73 2.18 2.26 2.946 3.79-.505 1.165-1.26 2.948-1.26 6.114s.755 4.949 1.26 6.113c-.766 1.531-1.926 3.062-2.946 3.791-.589.422-2.384 1.303-3.783 1.787-.189.066-.25.06-.426.112.208-1.227.42-2.389.577-4.158.224-2.535.38-5.36.38-7.645s-.156-5.11-.38-7.645c-.157-1.77-.37-2.931-.577-4.158" paint-order="stroke fill markers"/>
						<path fill="#313f8f" stroke="#273272" stroke-linejoin="round" stroke-width="2.334" d="m65.257 37.163-.844 2.88 4.253 1.246c.98.287 2.263 1.795 2.523 2.988l1.475 6.764 2.932-.639-1.475-6.763c-.507-2.326-2.168-4.513-4.611-5.229Z"/>
						<path fill="#ebeb34" stroke="#bcbc2a" stroke-linejoin="round" stroke-width="2.334" d="m65.39 37.202-3.234-.948-.844 2.879 3.235.948z"/>
						<path fill="#313f8f" stroke="#273272" stroke-linecap="round" stroke-linejoin="round" stroke-width="2.5" d="M75.97 58.204h-3.503v5.701h3.503z"/>
						<path fill="#313f8f" stroke="#273272" stroke-linejoin="round" stroke-width="2.334" d="m70.839 49.73 2.335 1.024 4.332.125v8.241l-4.332.126-2.335 1.024c-.88-1.181-1.62-2.038-1.62-5.27s.74-4.089 1.62-5.27z"/>
						<path fill="#ebeb34" stroke="#bcbc2a" stroke-linecap="round" stroke-linejoin="round" stroke-width="2.334" d="M77.163 66.568V62.7h-5.64v3.868z"/>
					</svg>