<svg xmlns="http://www.w3.org/2000/svg">
					<path fill="#a88642" d="M21.15 61.565c0-13.98 2.715-23.554 7.144-29.99C31.085 11.502 41.481 6.45 55 6.45s23.915 5.052 26.706 25.125c4.43 6.436 7.144 16.01 7.144 29.99 0 34.01-16.039 41.985-33.85 41.985s-33.85-7.975-33.85-41.985z"/>
					<path fill="#884826" d="M60 17.498a5 5 0 1 1-10 0 5 5 0 0 1 10 0zM22.289 47.381c-.43 2.406-.74 5.016-.928 7.826h13.907c.712-3.06 1.761-5.67 3.152-7.826zm-1.127 15.041a90.2 90.2 0 0 0 .381 7.826h12.719a63.037 63.037 0 0 1 0-7.826zm1.465 15.043c.61 2.902 1.4 5.499 2.344 7.826H38.42c-1.39-2.156-2.44-4.766-3.152-7.826Zm65.084-30.084c.43 2.406.74 5.016.928 7.826H74.732c-.712-3.06-1.761-5.67-3.152-7.826Zm1.127 15.041a90.2 90.2 0 0 1-.381 7.826H75.738a63.037 63.037 0 0 0 0-7.826zm-1.465 15.043c-.61 2.902-1.4 5.499-2.344 7.826H71.58c1.39-2.156 2.44-4.766 3.152-7.826z" paint-order="stroke fill markers"/>
					<path fill="none" stroke="#886d35" stroke-width="4.667" d="M88.85 61.565c0-13.98-2.715-23.554-7.144-29.99C78.915 11.502 68.519 6.45 55 6.45s-23.915 5.052-26.706 25.125c-4.43 6.436-7.144 16.01-7.144 29.99 0 34.01 16.039 41.985 33.85 41.985s33.85-7.975 33.85-41.985z"/>
					<path fill="#886d35" stroke="#886d35" stroke-linejoin="round" stroke-width="4.667" d="M65.084 49.596c6.263-11.343 5.904-21.337-1.077-29.981 2.54 8.803.679 18.876-5.585 30.22zm-20.168 0c-6.263-11.343-5.904-21.337 1.077-29.981-2.54 8.803-.679 18.876 5.585 30.22z"/>
					<path fill="#a88642" stroke="#886d35" stroke-width="4.667" d="M55 39.669c13.333 0 20 8.89 20 26.667 0 17.778-6.667 26.666-20 26.666s-20-8.888-20-26.666 6.667-26.667 20-26.667z"/>
					<path fill="#a88642" stroke="#886d35" stroke-linecap="round" stroke-linejoin="round" stroke-width="6.667" d="M50.113 58.463c.018 3.216 1.849 5.523 2.718 7.344-2.915-.12-5.896-.537-9.123-1.26l.029 4.952c3.442-.814 6.65-1.268 9.808-1.382.87 4.49-.532 9.686-1.96 14.742l6.83.042c-1.428-5.056-2.83-10.254-1.96-14.743 3.159.114 6.366.57 9.808 1.383l.029-4.954c-3.227.723-6.208 1.14-9.123 1.26.87-1.82 2.7-4.128 2.718-7.344.027-4.8-2.277-8.717-4.887-8.733-2.61.016-4.914 3.893-4.887 8.693zm4.888-5.592c1.334.007 2.599 2.441 2.582 5.411-.017 2.97-1.248 5.35-2.583 5.342-1.335.008-2.566-2.413-2.583-5.383-.016-2.97 1.249-5.362 2.584-5.37z" paint-order="stroke fill markers"/>
				</svg>