<svg xmlns="http://www.w3.org/2000/svg" width="110" height="110">
				<path fill="#333" stroke="#292929" stroke-linecap="round" stroke-linejoin="round" stroke-width="3" d="m39.775 35.732-11.022 14.73-1.992 22.625 11.07 10.905L55 85.229l17.17-1.237 11.07-10.905-1.993-22.624-11.022-14.731L55 29.722Z" />
				<path fill="none" stroke="#292929" stroke-linecap="round" stroke-linejoin="round" stroke-width="3" d="M54.61 37.087c1.373.655 2.17 1.59 2.58 3.812m-2.571-3.861c2.296-1.065 4.615.029 6.284 2.582m-7.827-2.244c-2.22.04-5.002.676-5.714 2.635" />
				<path fill="#333" stroke="#292929" stroke-linejoin="round" stroke-width="3" d="m46.735 25.328 2.564 2.28 1.092-2.837 2.758.056s1.67 2.07 3.545 3.133c1.375-1.75 4.757-2.321 4.757-2.321-2.62 5.686-4.058 8.139-4.788 11.03-.414 1.642-1.213 2.031-2.716 2.031s-2.536-.532-2.878-1.781c-.578-2.11-2.144-5.165-4.334-11.59z" />
			</svg>