<svg viewBox="0 0 110 110">
	<path fill="#ffdc06" stroke="#ccb005" stroke-linecap="round" stroke-linejoin="round" stroke-width="2" d="m48.125 18.194-4.5 8.526-8.375-4.22 4.625 13.75c3.875-.875 9.612-1.125 15.125-1.125s11.25.25 15.125 1.125L74.75 22.5l-8.375 4.22-4.5-8.526L55 25.875Z"/>
	<path fill="red" stroke="#c00" stroke-linecap="round" stroke-linejoin="round" stroke-width="1.334" d="M40.375 31.373a2 2 0 1 1-4 0 2 2 0 0 1 4 0M51.22 29.57a2 2 0 1 1-4 0 2 2 0 0 1 4 0m18.405 1.802a2 2 0 1 0 4 0 2 2 0 0 0-4 0M58.78 29.57a2 2 0 1 0 4 0 2 2 0 0 0-4 0"/>
</svg>