<svg xmlns="http://www.w3.org/2000/svg" viewBox="0 0 110 110"><path fill="#fff" fill-rule="evenodd" d="M71.364 50.584q1.608 0 2.719.498-.084-.408-.185-.812-.102-.404-.22-.803-.118-.4-.253-.794-.136-.394-.288-.781-.152-.388-.32-.77-.169-.38-.353-.754-.185-.373-.385-.738t-.416-.722-.447-.703-.476-.683-.505-.662-.533-.64-.56-.617q-.286-.303-.586-.593-.299-.29-.61-.566-.311-.277-.634-.54-.323-.264-.657-.513-.333-.25-.677-.484-.345-.235-.698-.455-.354-.22-.717-.424t-.734-.393-.75-.362q-.38-.172-.766-.329-.386-.156-.778-.296-.393-.14-.79-.262-.399-.123-.802-.229t-.81-.194-.817-.16q-.41-.07-.824-.124-.413-.053-.828-.088-.415-.036-.831-.054-.416-.017-.833-.017-.478 0-.956.023t-.953.07-.95.117q-.472.07-.941.164-.47.093-.933.21-.464.115-.922.254-.458.14-.908.3-.45.161-.892.344t-.874.388-.854.43-.832.471-.808.512-.782.55-.753.588-.724.625-.693.66q-.338.337-.66.692-.32.354-.624.724-.303.37-.588.753-.285.385-.55.782-.266.398-.512.808t-.471.832-.43.854-.388.874-.344.892-.3.908-.255.922-.21.933q-.092.469-.163.942-.07.473-.117.949-.047.475-.07.953T35.52 55q0 .421.018.842.018.42.054.84t.091.838.127.833.163.826.198.819.234.809.269.798.302.786.336.772.37.757.402.74.433.723.464.703.494.682.524.66.55.637.58.612.603.587.63.56.652.533.675.503.696.475.716.443.735.412.751.38.768.348.781.313.795.28.806.245.815.21.824.175q-.792-1.225-.792-2.777V63.57q0-5.194 5.195-5.194h2.598v-2.598q0-5.195 5.194-5.195zm0 3.247q.095 0 .19.01.096.009.19.028.094.018.185.046.092.028.18.064.089.037.173.082t.164.098.153.114.142.129.128.141q.061.074.114.154t.099.164.081.173.065.18.046.185.028.19.01.19v5.844h5.844q.096 0 .19.01.096.01.19.028t.185.046.18.065.173.081q.085.046.164.099.08.053.154.114.074.06.141.128.068.068.129.142.06.074.114.153.053.08.098.164.045.085.082.173.036.088.064.18t.046.185q.02.094.029.19.009.095.009.19v7.793q0 .095-.01.19-.009.096-.028.19-.018.094-.046.185-.028.092-.064.18-.037.089-.082.173t-.098.164-.114.153-.129.142q-.067.068-.141.128-.074.061-.154.114t-.164.099-.173.081-.18.065-.185.046-.19.028q-.094.01-.19.01h-5.844v5.844q0 .096-.01.19-.009.096-.028.19-.018.094-.046.185-.028.092-.065.18-.036.089-.081.173-.046.085-.099.164-.053.08-.114.154-.06.074-.128.141-.068.068-.142.129-.074.06-.153.114-.08.053-.164.098t-.173.082-.18.064-.185.046-.19.029q-.095.009-.19.009H63.57q-.095 0-.19-.01-.096-.009-.19-.028-.093-.018-.185-.046t-.18-.064q-.088-.037-.173-.082t-.164-.098-.153-.114-.142-.129q-.068-.067-.128-.141-.061-.074-.114-.154t-.099-.164-.081-.173-.065-.18-.046-.185-.028-.19q-.01-.094-.01-.19v-5.844H55.78q-.095 0-.19-.01-.096-.009-.19-.028-.094-.018-.185-.046-.092-.028-.18-.065-.089-.036-.173-.081t-.164-.099-.154-.114-.141-.128q-.068-.068-.129-.142-.06-.074-.114-.153-.053-.08-.098-.164t-.082-.173-.064-.18-.046-.185q-.02-.094-.028-.19-.01-.095-.01-.19V63.57q0-.095.01-.19.009-.096.028-.19.018-.093.046-.185t.064-.18.082-.173.098-.164.114-.153.129-.142.141-.128q.074-.061.154-.114t.164-.099.173-.081.18-.065.185-.046.19-.028.19-.01h5.844V55.78q0-.095.01-.19.01-.096.028-.19t.046-.185.065-.18.081-.173.099-.164.114-.154.128-.141q.068-.068.142-.129.074-.06.153-.114.08-.053.164-.098.085-.045.173-.082.088-.036.18-.064t.185-.046q.094-.02.19-.028.095-.01.19-.01z"/></svg>