<svg xmlns="http://www.w3.org/2000/svg" viewBox="0 0 110 110"><path fill="#fff" fill-rule="evenodd" d="M64.74 35.52q0-.16-.015-.319-.016-.159-.047-.315t-.078-.309-.107-.3-.136-.288-.164-.273-.19-.256q-.1-.123-.214-.236-.112-.113-.236-.214t-.256-.19-.273-.164-.288-.136-.3-.107-.31-.078q-.156-.031-.314-.047-.159-.015-.319-.015H48.507q-.16 0-.319.015-.158.016-.315.047-.156.031-.309.078-.153.046-.3.107-.147.06-.288.136-.14.075-.273.164t-.256.19q-.124.1-.236.214-.113.113-.214.236t-.19.256-.164.273-.136.288-.107.3-.078.31q-.031.155-.047.314-.015.159-.015.319v9.74h-9.74q-.16 0-.319.015-.159.016-.315.047t-.309.078-.3.107-.288.136-.273.164-.256.19q-.123.1-.236.214-.113.112-.214.236t-.19.256-.164.273-.136.288-.107.3-.078.31q-.031.156-.047.314-.015.159-.015.319v12.987q0 .159.015.318.016.158.047.315.031.156.078.309.046.153.107.3.06.147.136.288.075.14.164.273t.19.256q.1.124.214.236.113.113.236.214t.256.19.273.164.288.136.3.107.31.078q.155.031.314.047.159.015.319.015h9.74v9.74q0 .16.015.319.016.159.047.315t.078.309.107.3.136.288.164.273.19.256q.1.123.214.236.112.113.236.214t.256.19.273.164.288.136.3.107.31.078q.156.031.314.047.159.015.319.015h12.987q.159 0 .318-.015.158-.016.315-.047.156-.031.309-.078.153-.046.3-.107.147-.06.288-.136.14-.075.273-.164t.256-.19q.124-.1.236-.214.113-.113.214-.236t.19-.256.164-.273.136-.288.107-.3.078-.31q.031-.155.047-.314.015-.159.015-.319v-9.74h9.74q.16 0 .319-.015.159-.016.315-.047t.309-.078.3-.107.288-.136.273-.164.256-.19q.123-.1.236-.214.113-.112.214-.236t.19-.256.164-.273.136-.288.107-.3.078-.31q.031-.156.047-.314.015-.159.015-.319V48.507q0-.16-.015-.319-.016-.158-.047-.315-.031-.156-.078-.309-.046-.153-.107-.3-.06-.147-.136-.288-.075-.14-.164-.273t-.19-.256q-.1-.124-.214-.236-.113-.113-.236-.214t-.256-.19-.273-.164-.288-.136-.3-.107-.31-.078q-.155-.031-.314-.047-.159-.015-.319-.015h-9.74z"/></svg>