<svg xmlns="http://www.w3.org/2000/svg" viewBox="0 0 110 110"><path fill="#fff" d="m34.566 31.652-1.34 1.242 6.342 6.826c.385-.697.66-1.21.923-1.696zm39.225.026-4.728 5.513c.243.442.547 1.008.933 1.725l5.174-6.049zm-27.69.236-1.683.718 4.271 9.97c.65.213 1.38.385 2.212.527zm14.51.108-3.247 11.32c.73-.06 1.4-.152 2.009-.264l3.003-10.555zm-4.9 1.804-.741 9.607H55c.64 0 1.238-.02 1.806-.05l.73-9.417zm-13.566 4.988a161 161 0 0 1-3.222 5.796 189 189 0 0 1-3.406 5.692 7.63 7.63 0 0 1 4.558.355c2.313.914 4.87 3.095 7.447 7.55 2.577 4.463 3.176 7.771 2.81 10.226a7.57 7.57 0 0 1-1.968 4.13c1.35-.04 3.257-.102 6.636-.102 3.369 0 5.276.061 6.625.102a7.65 7.65 0 0 1-1.968-4.13c-.365-2.455.244-5.763 2.82-10.227 2.578-4.454 5.135-6.625 7.448-7.549a7.6 7.6 0 0 1 4.556-.355c-.71-1.146-1.715-2.77-3.4-5.692s-2.587-4.606-3.226-5.791c-.365 1.144-1.075 2.575-2.597 3.772C63.32 44.134 60.154 45.26 55 45.26s-8.32-1.137-10.258-2.669a7.7 7.7 0 0 1-2.597-3.777m31.808.825-2.567 1.816c.274.487.578 1.025.913 1.603l2.71-1.918zM32.58 46.02l-.615 1.725 2.435.872c.281-.456.61-.994.977-1.603zM55 48.912q.125 0 .249.006t.248.019.247.03.246.042.243.055.24.066.236.078q.118.042.233.09t.227.1.223.113.216.122.21.134q.104.069.205.143t.196.153.188.163.18.172q.089.088.173.18t.162.189.153.196q.075.1.144.204t.133.21.123.217.112.222.1.228q.048.115.09.232t.078.237.066.24.055.243.042.245q.019.123.03.247.013.124.02.248.005.125.005.25 0 .124-.006.248-.006.125-.018.249t-.03.247-.043.245-.055.243-.066.24-.078.237-.09.232-.1.228-.112.222q-.06.11-.123.217-.064.107-.133.21-.07.104-.144.204t-.153.196-.162.189q-.084.092-.172.18t-.18.172-.19.163q-.095.079-.195.153t-.204.143-.21.133-.217.123-.223.112-.227.1-.233.09-.236.078q-.12.037-.24.067-.121.03-.243.054-.122.025-.246.043-.123.018-.247.03t-.248.018-.249.006-.249-.006-.248-.018-.248-.03-.245-.043-.243-.054-.24-.067-.236-.078-.233-.09-.227-.1-.223-.112-.217-.123-.21-.133-.204-.143-.196-.153q-.096-.08-.188-.163-.093-.084-.18-.172-.089-.088-.173-.18t-.162-.189-.153-.196q-.075-.1-.144-.204t-.133-.21-.123-.217-.112-.222q-.053-.113-.1-.228t-.09-.232-.078-.237-.066-.24-.055-.243q-.024-.122-.042-.245t-.03-.247-.019-.249-.006-.249.006-.249.018-.248.03-.247q.019-.123.043-.245.024-.123.055-.243.03-.121.066-.24.036-.12.078-.237t.09-.232.1-.228q.054-.113.112-.222.06-.11.123-.217.064-.107.133-.21.07-.104.144-.204t.153-.196.162-.19q.084-.091.172-.18.088-.087.18-.171.093-.084.19-.163.095-.079.195-.153t.204-.143.21-.134q.107-.063.217-.122t.223-.112.227-.101.233-.09.236-.078q.12-.036.24-.066.121-.03.243-.055.122-.024.245-.042.124-.018.248-.03t.248-.019.249-.006m12.064 6.027a18 18 0 0 0-1.43 1.745l12.032.853.122-1.827zm-23.458.761-11.462 1.644.258 1.806 12.452-1.776a18 18 0 0 0-1.248-1.674m1.897 2.679-11.99 5.53.766 1.663 12.137-5.6c-.152-.274-.304-.558-.476-.853-.153-.253-.295-.507-.437-.74m18.395 1.024a37 37 0 0 0-.852 1.624l12.581 7.741.954-1.562zM47.015 61.16 31.652 75.434l1.242 1.34 14.882-13.82a18 18 0 0 0-.761-1.795m15.067 2.191a13.3 13.3 0 0 0-.578 2.314l8.99 12.59 1.48-1.054zM51.794 74.318c-.71.01-1.32.02-1.877.04l-.68 3.177 1.786.385zm7.822.02.995 3.633 1.765-.487-.852-3.085c-.548-.02-1.126-.04-1.908-.06"/></svg>