<svg xmlns="http://www.w3.org/2000/svg" viewBox="0 0 110 110"><path fill="#fff" d="M49.156 40.065h27.273v9.09H49.156z"/><path fill="none" stroke="#fff" stroke-linecap="round" stroke-linejoin="round" stroke-width="4.545" d="M49.156 40.065h27.273v9.09H49.156z"/><path fill="#fff" d="M58.247 30.974h9.09v27.273h-9.09z"/><path fill="none" stroke="#fff" stroke-linecap="round" stroke-linejoin="round" stroke-width="4.545" d="M58.247 30.974h9.09v27.273h-9.09z"/><path fill="#fff" d="M27.727 58.896h15.585v5.195H27.727z"/><path fill="none" stroke="#fff" stroke-linecap="round" stroke-linejoin="round" stroke-width="2.597" d="M27.727 58.896h15.585v5.195H27.727z"/><path fill="#fff" d="M32.922 53.701h5.195v15.585h-5.195z"/><path fill="none" stroke="#fff" stroke-linecap="round" stroke-linejoin="round" stroke-width="2.597" d="M32.922 53.701h5.195v15.585h-5.195z"/><path fill="#fff" d="M50.13 79.35h9.74v3.247h-9.74z"/><path fill="none" stroke="#fff" stroke-linecap="round" stroke-linejoin="round" stroke-width="1.623" d="M50.13 79.35h9.74v3.247h-9.74z"/><path fill="#fff" d="M53.377 76.104h3.246v9.74h-3.246z"/><path fill="none" stroke="#fff" stroke-linecap="round" stroke-linejoin="round" stroke-width="1.623" d="M53.377 76.104h3.246v9.74h-3.246z"/></svg>