<svg xmlns="http://www.w3.org/2000/svg" viewBox="0 0 110 110"><path fill="#fff" d="M55 24.07c-6.873 6.874-8.59 12.029-8.59 15.465S51.564 44.69 55 44.69s8.59-1.718 8.59-5.155c0-3.436-1.717-8.59-8.59-15.464M41.241 44.056c-1.028-.012-2.338.163-4.098.635 1.258 4.695 2.746 5.555 4.234 6.414 1.488.86 3.835.23 4.694-1.259.86-1.488.23-3.835-1.258-4.694-.93-.537-1.86-1.075-3.572-1.096m27.518 0c-1.713.02-2.641.559-3.572 1.096-1.487.859-2.118 3.206-1.258 4.694s3.206 2.118 4.694 1.259 2.976-1.72 4.234-6.414c-1.76-.471-3.07-.647-4.098-.635M55 48.125a6.875 6.875 0 1 0 .001 13.751A6.875 6.875 0 0 0 55 48.126m-16.075 6.722a3.3 3.3 0 0 0-1.615.446c-2.976 1.718-6.58 5.783-9.096 15.171 9.39 2.516 14.714 1.426 17.69-.292 2.976-1.719 1.886-7.041.167-10.017-1.423-2.465-4.455-5.362-7.146-5.309m31.996 0c-2.651.055-5.596 2.89-6.992 5.308-1.719 2.976-2.81 8.298.167 10.017s8.3 2.808 17.69.292c-2.516-9.389-6.12-13.453-9.096-15.171a3.34 3.34 0 0 0-1.769-.447M55 65.31c-1.718 0-3.435 1.717-3.435 3.435s-.002 3.438 3.435 6.874c3.437-3.436 3.435-5.156 3.435-6.874S56.718 65.31 55 65.31"/></svg>