<svg xmlns="http://www.w3.org/2000/svg" viewBox="0 0 110 110"><path fill="#fff" d="M54.908 31.55c-1.697.952-3.497 4.266-4.23 6.034a28 28 0 0 0-4.318-.38 22 22 0 0 0-3.351.224c-1.658-.84-3.528-2.949-4.325-5.073-.946 1.594-.97 4.293-.587 6.554-1.972.986-3.562 2.398-4.62 4.23a10.3 10.3 0 0 0-1.315 4.147c1.349-2.628 3.55-4.764 6.661-5.514-3.55 3.225-6.072 8.846-5.225 13.13-.122 2.32-.962 3.82-2.511 4.524 1.657.466 3.601.34 5.016-.13 2.53 3.533 6.17 6.888 10.66 9.572-.706 1.787-1.692 4.993-1.671 6.7 1.1-1.337 3.798-4.118 6.262-4.34a35.6 35.6 0 0 0 7.134 2.263c1.26 1.75 1.308 3.944.748 5.438 1.664-.934 3.431-3.367 4.052-4.87 4.779.144 8.933-1.069 11.64-3.609 1.779.56 3.119 1.594 4.039 3.095.025-1.986-.817-4.5-1.826-6.12 1.361-2.867 1.297-6.27.05-9.755l.042.047c1.012-1.197 1.857-3.367 1.832-5.368-.866 1.053-2.103 1.536-3.728 1.44-1.376-2.293-3.228-4.547-5.483-6.633 1.072-1.955 3.085-3.696 4.48-4.867-1.926-.542-6.878.527-8.195 1.804l.599.862c.572 1.217.964 2.478 1.125 3.76-2.67-3.781-7.175-7.58-11.658-9.701-1.613-2.58-1.96-5.694-1.297-7.464M46.5 41.398q.171-.002.345 0c3.202.02 6.99.897 10.856 2.603-.893 2.039-1.495 4.513-1.014 6.224 1.352-1.89 3.786-3.472 5.621-3.805 5.672 3.482 9.762 7.987 11.33 12.046l.009.022c1.632 3.843 1.355 8.643-2.695 11.902.486-1.157.81-2.417.964-3.697-1.429 1.016-3.402 1.553-5.714 1.62-.198-1.749-.925-5.364-2.26-6.667.158 1.635-.823 4.695-2.66 6.195-3.24-.659-6.778-1.996-10.251-4.001a39 39 0 0 1-2.772-1.76c-.35-2.396.796-5.434 2.087-6.496-1.925-.024-4.74 2.247-6.018 3.322-4.158-3.903-6.508-8.23-6.215-11.668 1.651-.173 3.667.094 5.248.812-.398-1.56-1.883-3.22-3.491-4.5 1.497-1.402 3.825-2.115 6.63-2.152"/></svg>