<svg xmlns="http://www.w3.org/2000/svg" viewBox="0 0 110 110"><path fill="#fff" d="M42.575 27.816a16.55 16.55 0 0 0-4.03 10.831c0 2.986.79 5.792 2.171 8.216-2.793.014-5.62.733-8.208 2.228a16.55 16.55 0 0 0-7.368 8.905c1.203-1.964 2.919-3.622 5.054-4.855a14.22 14.22 0 0 1 9.361-1.74 16 16 0 0 0-.496 3.96c0 7.284 4.885 13.447 11.55 15.393a14.22 14.22 0 0 1-6.14 7.118c-2.135 1.233-4.47 1.815-6.773 1.875 3.775.72 7.85.218 11.438-1.855a16.54 16.54 0 0 0 6.012-5.965 16.53 16.53 0 0 0 6.013 5.969c3.588 2.073 7.663 2.57 11.438 1.85-2.304-.058-4.639-.637-6.773-1.87a14.22 14.22 0 0 1-6.152-7.146c6.618-1.975 11.454-8.118 11.454-15.37 0-1.358-.172-2.678-.491-3.939a14.2 14.2 0 0 1 9.464 1.724c2.135 1.234 3.851 2.89 5.054 4.855a16.54 16.54 0 0 0-7.368-8.905 16.53 16.53 0 0 0-8.16-2.228 16.55 16.55 0 0 0 2.175-8.22c0-4.144-1.608-7.921-4.118-10.831 1.1 2.024 1.764 4.335 1.764 6.8 0 3.477-1.24 6.661-3.301 9.136a15.98 15.98 0 0 0-11.05-4.427 15.98 15.98 0 0 0-10.967 4.348 14.22 14.22 0 0 1-3.234-9.056c0-2.466.581-4.777 1.68-6.801m12.52 13.88c3.646 0 6.954 1.418 9.401 3.737a14.2 14.2 0 0 1-8.065 3.408v2.513a3.86 3.86 0 0 1 2.826 3.737q-.001.455-.1.88l2.212 1.205a14.2 14.2 0 0 1 6.972-5.18 13.8 13.8 0 0 1 .416 3.365c0 6.204-4.11 11.424-9.762 13.098a14.22 14.22 0 0 1 1.157-9.246l-2.211-1.205c-.683.6-1.58.963-2.568.963a3.87 3.87 0 0 1-2.636-1.022l-2.54 1.367a14.22 14.22 0 0 1 1.097 9.175 13.65 13.65 0 0 1-9.864-13.13c0-1.173.147-2.312.424-3.397a14.2 14.2 0 0 1 7.138 5.31l2.58-1.39a4 4 0 0 1-.08-.793 3.86 3.86 0 0 1 2.569-3.658v-2.58a14.2 14.2 0 0 1-8.291-3.488 13.62 13.62 0 0 1 9.325-3.67"/></svg>