<svg xmlns="http://www.w3.org/2000/svg" viewBox="0 0 110 110"><path fill="#fff" d="M38.427 30.973v4.21h33.657v-4.21zm2.724 6.106v35.933h2.26V37.08zm4.727 0c.326 4.396 1.35 8.322 2.819 11.253 1.794 3.582 4.144 5.555 6.5 5.555s4.702-1.973 6.496-5.555c1.468-2.93 2.493-6.857 2.819-11.253zm21.221 0v35.933h2.26V37.08zM55.197 55.872c-2.356 0-4.706 1.97-6.5 5.552-1.505 3.004-2.547 7.057-2.844 11.588h18.684c-.297-4.53-1.339-8.584-2.844-11.588-1.794-3.582-4.14-5.552-6.496-5.552m-16.77 19.036v4.208h33.657v-4.207z"/></svg>