<svg xmlns="http://www.w3.org/2000/svg" viewBox="0 0 110 110"><path fill="#fff" fill-rule="evenodd" d="M44.99 79.116q.058.173.142.336.084.162.192.31.109.147.239.275.13.13.278.236.148.107.311.19.164.082.338.138t.354.085.364.028q.115 0 .229-.011t.227-.034.222-.055.216-.078.208-.098.197-.118.184-.136.17-.154.154-.17q.073-.09.136-.185t.118-.196.099-.208q.043-.106.077-.216.033-.11.056-.222.022-.113.033-.227.011-.115.011-.23 0-24.344-16.269-40.613-.129-.13-.277-.237-.148-.108-.31-.191-.163-.084-.337-.14-.174-.058-.354-.087-.18-.03-.364-.03-.182 0-.363.027-.18.027-.355.083-.175.055-.338.137-.103.051-.2.112t-.188.132q-.09.07-.174.15-.083.078-.159.165-.075.087-.141.18-.067.094-.123.194-.057.1-.104.205t-.083.213-.062.221-.04.226-.017.229.005.23.027.227.05.224.071.218.093.21Q37.25 55.897 44.99 79.116"/><path fill="#fff" fill-rule="evenodd" d="M65.01 79.116q-.058.173-.142.336-.084.162-.192.31-.109.147-.239.275-.13.13-.278.236-.148.107-.311.19-.164.082-.338.138t-.354.085-.364.028q-.115 0-.229-.011t-.227-.034-.222-.055-.216-.078-.208-.098-.197-.118-.184-.136-.17-.154-.154-.17q-.073-.09-.136-.185t-.118-.196-.099-.208q-.043-.106-.077-.216-.033-.11-.056-.222-.022-.113-.033-.227-.011-.115-.011-.23 0-24.344 16.269-40.613.129-.13.277-.237.148-.108.31-.191.163-.084.337-.14.174-.058.354-.087.18-.03.364-.03.182 0 .363.027.18.027.355.083.175.055.338.137.103.051.2.112t.188.132.174.15.159.165q.075.087.141.18.067.094.123.194.057.1.104.205t.083.213.062.221.04.226.017.229-.005.23-.027.227-.05.224-.071.218-.093.21Q72.75 55.897 65.01 79.116"/></svg>