<svg xmlns="http://www.w3.org/2000/svg" viewBox="0 0 110 110"><path fill="#fff" d="M80.974 55q0 .638-.031 1.274-.032.637-.094 1.272-.063.634-.156 1.265-.094.63-.218 1.256-.125.626-.28 1.244-.154.619-.34 1.229-.185.61-.4 1.21-.214.6-.458 1.19-.244.589-.517 1.165-.272.577-.573 1.14-.3.561-.628 1.108t-.682 1.077q-.355.53-.734 1.043-.38.512-.785 1.005-.404.493-.833.965-.428.473-.879.923-.45.451-.923.88-.472.428-.965.832-.493.405-1.005.784-.512.38-1.043.735-.53.354-1.077.682-.547.327-1.109.628-.562.3-1.139.573-.576.273-1.165.517t-1.19.459q-.6.214-1.21.4-.61.185-1.229.34-.618.154-1.244.279-.625.124-1.256.218-.63.093-1.265.156-.635.062-1.272.094-.636.031-1.274.031t-1.274-.031-1.272-.094q-.634-.063-1.265-.156-.63-.094-1.256-.218-.626-.125-1.244-.28-.619-.154-1.229-.34-.61-.185-1.21-.4-.6-.214-1.19-.458-.589-.244-1.165-.517-.577-.272-1.14-.573-.561-.3-1.108-.628t-1.077-.682q-.53-.355-1.043-.734-.512-.38-1.005-.785-.493-.404-.965-.833-.473-.428-.923-.879-.451-.45-.88-.923-.428-.472-.832-.965-.405-.493-.784-1.005-.38-.512-.735-1.043-.354-.53-.682-1.077-.327-.547-.628-1.109-.3-.562-.573-1.139-.273-.576-.517-1.165t-.459-1.19q-.214-.6-.4-1.21-.185-.61-.34-1.229-.154-.618-.279-1.244-.124-.625-.218-1.256-.093-.63-.156-1.265-.062-.635-.094-1.272-.031-.636-.031-1.274t.031-1.274.094-1.272q.063-.634.156-1.265.094-.63.218-1.256.125-.626.28-1.244.154-.619.34-1.229.185-.61.4-1.21.214-.6.458-1.19.244-.589.517-1.165.272-.577.573-1.14.3-.561.628-1.108t.682-1.077.734-1.043.785-1.005.833-.965.879-.923.923-.88q.472-.428.965-.832.493-.405 1.005-.784.512-.38 1.043-.735.53-.354 1.077-.682.547-.327 1.109-.628.562-.3 1.139-.573.576-.273 1.165-.517t1.19-.459q.6-.214 1.21-.4.61-.185 1.229-.34.618-.154 1.244-.279.625-.124 1.256-.218.63-.093 1.265-.156.635-.062 1.272-.094.636-.031 1.274-.031t1.274.031 1.272.094q.634.063 1.265.156.63.094 1.256.218.626.125 1.244.28.619.154 1.229.34.61.185 1.21.4.6.214 1.19.458.589.244 1.165.517.577.272 1.14.573.561.3 1.108.628t1.077.682 1.043.734q.512.38 1.005.785.493.404.965.833.473.428.923.879.451.45.88.923.428.472.832.965.405.493.784 1.005.38.512.735 1.043.354.53.682 1.077.327.547.628 1.109.3.562.573 1.139.273.576.517 1.165t.459 1.19q.214.6.4 1.21.185.61.34 1.229.154.618.279 1.244.124.625.218 1.256.093.63.156 1.265.062.635.094 1.272.031.636.031 1.274h-5.195q0-.51-.025-1.02t-.075-1.017-.125-1.012-.174-1.005-.224-.995q-.123-.495-.272-.983-.148-.488-.32-.968-.171-.48-.366-.952-.196-.471-.414-.932t-.458-.911-.503-.888q-.262-.437-.546-.861-.283-.424-.587-.834t-.627-.804-.667-.772q-.342-.378-.703-.74-.36-.36-.739-.702-.378-.343-.772-.667-.394-.323-.804-.627t-.834-.587-.861-.546q-.438-.262-.888-.503-.45-.24-.91-.458-.462-.218-.933-.414T62 35.435t-.968-.32-.983-.271-.995-.224-1.005-.174-1.012-.125-1.017-.075T55 34.22t-1.02.025-1.017.075-1.012.125-1.005.174-.995.224q-.495.123-.983.272-.488.148-.968.32-.48.171-.952.366-.471.196-.932.414t-.911.458-.888.503q-.437.262-.861.546-.424.283-.834.587t-.804.627-.772.667q-.378.342-.74.703-.36.36-.702.739-.343.378-.667.772-.323.394-.627.804t-.587.834-.546.861q-.262.438-.503.888-.24.45-.458.91-.218.462-.414.933t-.367.952q-.171.48-.32.968-.148.488-.271.983t-.224.995-.174 1.005-.125 1.012-.075 1.017T34.22 55t.025 1.02.075 1.017.125 1.012.174 1.005.224.995q.123.495.272.983.148.488.32.968.171.48.366.952.196.471.414.932t.458.911.503.888q.262.437.546.861.283.424.587.834t.627.804.667.772q.342.378.703.74.36.36.739.702.378.343.772.667.394.323.804.627t.834.587q.424.284.861.546.438.262.888.503.45.24.91.458.462.218.933.414t.952.367q.48.171.968.32.488.148.983.271t.995.224 1.005.174 1.012.125 1.017.075 1.02.025 1.02-.025 1.017-.075 1.012-.125 1.005-.174.995-.224q.495-.123.983-.272.488-.148.968-.32.48-.171.952-.366.471-.196.932-.414t.911-.458.888-.503q.437-.262.861-.546.424-.283.834-.587t.804-.627.772-.667q.378-.342.74-.703.36-.36.702-.739.343-.378.667-.772.323-.394.627-.804t.587-.834q.284-.424.546-.861.262-.438.503-.888.24-.45.458-.91.218-.462.414-.933t.367-.952q.171-.48.32-.968.148-.488.271-.983t.224-.995.174-1.005.125-1.012.075-1.017.025-1.02"/></svg>