<svg xmlns="http://www.w3.org/2000/svg" viewBox="0 0 110 110"><path fill="#fff" d="M65.936 31.415c-.993.006-1.683.31-2.105 1.037-1.777 3.062-3.9 6.254-4.926 9.866q.432.128.85.29c.746.29 1.458.658 2.084 1.102 2.793-2.592 5.901-4.588 8.872-6.642 1.153-.797 1.246-1.379 1.034-2.114s-1.002-1.66-2.083-2.351-2.422-1.15-3.524-1.185zm-7 .076c-1.017-.019-1.806.648-2.428 2.053-.907 2.05-1.036 5.422-.147 8.44q.024 0 .047-.003a7 7 0 0 1 .61.003c.957-3.533 2.837-6.566 4.465-9.286-1.046-.862-1.915-1.196-2.548-1.207m-9.871 5.906-1.066 1.57c1.504 1.018 2.948 2 4.04 3.182.397.43.747.885 1.046 1.381a3.86 3.86 0 0 1 1.389-1.095q.062-.029.124-.054a10.4 10.4 0 0 0-1.167-1.519c-1.296-1.403-2.866-2.449-4.366-3.465m22.703 1.244c-2.968 2.053-5.943 3.973-8.558 6.37q.066.089.128.179c2.098-.685 5.021-1.556 7.5-1.97 1.165-.194 1.589-.664 1.783-1.342.194-.677.045-1.695-.54-2.737a6 6 0 0 0-.312-.5m-22.72 4.857c-1.517.02-3.017.437-4.46 1.296l.97 1.626c2.197-1.308 4.325-1.434 6.618-.463q.08-.85.379-1.543a4 4 0 0 1 .114-.239c-1.205-.459-2.418-.693-3.621-.677m7.69.4c-.566-.009-1.075.075-1.464.256a1.84 1.84 0 0 0-.978 1.011q-.137.312-.202.76l.139-.003a13.7 13.7 0 0 1 5.003.933c.783.3 1.528.756 2.237 1.337.326-.248.506-.478.586-.663.122-.283.11-.526-.065-.894-.35-.739-1.543-1.72-2.927-2.26a7 7 0 0 0-2.083-.468 5 5 0 0 0-.246-.01m-2.512 3.901c-2.331.008-4.537.75-6.595 2.008-3.291 2.012-6.145 5.39-8.151 9.134s-3.16 7.854-3.165 11.215c-.005 3.354 1.041 5.81 3.33 6.877l.012.006h.004c2.523 1.168 6.657 1.962 10.999 2.039 4.341.077 8.907-.554 12.365-2.048 2.228-.963 3.505-2.887 4.11-5.495.603-2.608.458-5.85-.242-9.062s-1.948-6.398-3.459-8.916c-1.511-2.517-3.31-4.328-4.877-4.93-1.487-.571-2.932-.832-4.33-.828"/></svg>