<svg xmlns="http://www.w3.org/2000/svg" viewBox="0 0 110 110"><path fill="#fff" d="M51.512 76.805c-.095-.297-.256-.534-.293-.79-.16-1.083-.27-2.173-.428-3.256a6 6 0 0 0-.31-1.124c-.582-1.602-1.138-3.216-1.784-4.792-.508-1.24-1.187-2.41-1.694-3.651-.721-1.768-1.974-3.182-3.065-4.692-1.144-1.58-2.472-3.03-3.75-4.512a85 85 0 0 0-2.787-3.059c-.297-.312-.679-.549-1.042-.79-1.841-1.224-3.32-2.766-4.274-4.783-.238-.504-.526-.985-.746-1.496-.824-1.906-1.017-3.934-.821-5.954.237-2.439 1.18-4.63 2.699-6.605 1.383-1.8 3.09-3.138 5.14-4.015a15.6 15.6 0 0 1 3.57-1.04c.927-.153 1.91.072 2.867.056 1.107-.017 2.14.296 3.14.68 1.795.689 3.424 1.652 4.795 3.053.974.995 1.757 2.12 2.39 3.325.717 1.37 1.243 2.826 1.334 4.417.043.737.224 1.485.46 2.19.53 1.574 1.046 3.163 1.726 4.675.988 2.196 2.005 4.394 3.22 6.468.983 1.677 2.27 3.177 3.436 4.746.646.869 1.286 1.746 1.991 2.566a70 70 0 0 0 2.96 3.223c.312.32.79.47 1.156.744 1.835 1.372 3.165 3.126 4.13 5.212 1.014 2.187 1.219 4.426 1 6.793-.158 1.704-.67 3.296-1.519 4.694-.706 1.165-1.527 2.306-2.628 3.24-1.142.967-2.333 1.79-3.693 2.367-1.414.601-2.877.95-4.441.98-1.664.034-3.285-.123-4.825-.716-1.616-.622-3.095-1.453-4.402-2.673-1.459-1.359-2.483-2.942-3.28-4.72-.102-.226-.161-.473-.232-.76M40.13 52.031c.558.488 1.099.999 1.684 1.451.165.128.53.192.678.095.172-.114.332-.478.272-.66-.094-.283-.334-.65-.588-.725-.678-.201-1.397-.266-2.173-.407l-.137.027c.066.045.132.09.264.22M56.6 40.99l-.1-.186a4 4 0 0 0-.106.288c-.057.3-.127.599-.167.901-.146 1.101-.607 2.085-1.098 3.062-.056.111-.021.362.066.438.747.642 1.413 1.416 2.572 1.651.068-.265.235-.561.194-.825a22 22 0 0 0-.514-2.347c-.27-.982-.594-1.949-.847-2.982m10.647 18.662c-.262-.294-.528-.584-.785-.883-.96-1.115-1.925-2.227-2.872-3.353a.925.925 0 0 0-1.27-.115c.092.315.122.67.286.944.565.945 1.186 1.856 1.766 2.791.286.462.508.935 1.155 1.028.713.102 1.41.309 2.117.46.126.027.261.008.447.011a25 25 0 0 1-.844-.883m-19.725-5.965c.27.19.52.436.819.556.275.111.607.12.908.098.06-.004.186-.389.128-.537a36 36 0 0 0-1.018-2.293c-.043-.09-.277-.17-.385-.135-.552.177-1.092.393-1.726.629.406.532.812 1.062 1.274 1.682m9.736-5.027-1.25-1.304c.682 1.22 1.242 2.495 1.888 3.725.14.264.597.513.895.498.304-.014.672-.311.85-.588.076-.12-.203-.565-.417-.751-.608-.528-1.266-.999-1.966-1.58m-6.613 18.034c-.547-.024-.694.358-.594.753.24.944.561 1.868.904 2.974.337-.992.614-1.78.869-2.575.08-.251.2-.715.13-.752-.373-.195-.802-.286-1.31-.4m2.199-.75c-.121-.153-.214-.348-.369-.452-.501-.337-.922-.726-1.149-1.305-.076-.196-.225-.363-.334-.532l-.882.488c.323.502.554 1.005.917 1.38.273.283.787.332 1.063.614.371.379.482.087.754-.193m1.292-17.1.733.373c.087-.237.288-.502.24-.707-.177-.737-.439-1.454-.687-2.238l-1.098 1.579c.238.285.497.594.812.992m-4.215 2.803-.596-.724-.128.096c.79 1.333 1.21 2.901 2.568 3.897.042-.27.048-.536-.072-.72a50 50 0 0 0-1.772-2.55m4.2 10.611c-.184.582-.051 1.1.276 1.59.38-.342.723-.67 1.088-.973.424-.35.408-.792-.084-1.063-.516-.284-.937-.134-1.28.446m-10.503-9.985c-.074.087-.227.225-.209.253.404.63.8 1.267 1.263 1.853.112.142.448.108.682.154.022-.25.124-.532.046-.747-.106-.293-.294-.642-.548-.777-.419-.22-.591-.787-1.234-.736m.51 4.54-1.552-1.938c.38 1.457 1.644 2.37 2.393 3.61.024.04.204-.016.433-.039-.452-.574-.835-1.059-1.275-1.633m16.212 3.232c.103.086.226.261.307.244.536-.115 1.063-.271 1.594-.414l.085-.138c-.353-.168-.708-.473-1.057-.466-.36.007-.845.145-.929.774m.532-3.718-.48-.2c-.372.738.293.97.551 1.367.074.114.303.127.46.186.019-.185.103-.398.04-.55-.113-.274-.313-.512-.57-.803m-2.312-8.698.705 1.374.215-.125c-.219-.47.085-1.245-.92-1.249m-1.121 9.794-.263-.113c-.02.15-.114.353-.05.443.352.493.742.958 1.12 1.432l.1-.049c-.31-.54-.62-1.079-.907-1.713m.253 4.024.805-.516-.08-.17c-.259.033-.524.04-.773.105-.27.07-.285.353.048.581"/></svg>