<svg xmlns="http://www.w3.org/2000/svg" width="110" height="110"><path fill="#fff" d="M69.716 24.602c-2.391 0-4.78.978-6.242 2.933-3.185-3.102-9.993-1.739-9.993 4.09 0 .847.144 1.6.4 2.259h16.095l5.578 23.094H65.97l-1.334 11.468c4.557.114 9.202-2.817 9.202-8.796v-.021c1.918.152 3.912-.535 5.136-2.06 1.659 1.508 5.055.79 5.055-2.158 0-2.403-2.258-3.323-3.991-2.764-.426-2.158-1.914-3.524-3.685-4.097.652-.888 1.053-2.038 1.053-3.451 0-2.774-1.543-4.536-3.503-5.287q.06-.288.06-.618 0-.327-.06-.614c2.02-1.189 3.48-3.333 3.48-6.435 0-5.029-3.834-7.543-7.668-7.543M35.05 27.567c-2.439-.018-4.85 1.357-5.533 4.493-1.617 7.434 9.718 9.9 11.336 2.466q.09-.422.126-.821c1.49.404 3.262-.204 3.693-2.183.738-3.395-3.794-4.767-5.376-2.33-1.135-1.04-2.696-1.614-4.246-1.625m7.878 8.687-4.433 18.354h8.683l2.635 22.656h11.413l2.634-22.656h8.683L68.11 36.254zm39.168 1.432c-1.37 0-2.74.898-2.74 2.696 0 3.594 5.48 3.594 5.48 0 0-1.798-1.37-2.696-2.74-2.696M43.98 43.773l8.534 5.99-10.027.897zm23.051 0 1.493 6.887-10.027-.897zm14.146 1.195c-.943 0-1.885.618-1.885 1.854 0 2.473 3.77 2.473 3.77 0 0-1.236-.943-1.854-1.885-1.854m-52.541 1.608c-1.994 0-3.988 1.308-3.988 3.923 0 3.545 3.665 4.687 6.026 3.425.163 8 10.827 9.017 13.663 3.054h-8.853l2.487-10.297c-2.092-.032-4.198.737-5.607 2.306-.603-1.607-2.165-2.41-3.728-2.41m26.87 5.207 4.043 5.34-1.89 1.43-2.153-2.844-2.154 2.844-1.89-1.431zm-27.852 5.34c-.943 0-1.885.618-1.885 1.854 0 2.473 3.77 2.473 3.77 0 0-1.236-.943-1.854-1.885-1.854m17.91 4.13c-1.926.083-3.79 1.389-3.79 3.918 0 .983.281 1.78.739 2.394-1.034.95-1.718 2.347-1.718 4.193 0 3.032 1.842 4.854 4.059 5.47-.297.441-.477 1-.477 1.678 0 3.639 5.178 3.881 5.869.728h-2.544zm18.675 10.62-.903 7.761H56.71c1.444 3.354 5.868 4.126 8.683 2.315.67 4.53 7.926 4.299 7.926-.69 0-3.289-3.153-4.51-5.494-3.662q.011-.198.012-.401c0-2.82-1.593-4.592-3.597-5.322m19.471.83c-.905.012-1.823.76-1.515 1.912.52 1.94 3.48 1.148 2.96-.793-.211-.79-.825-1.126-1.445-1.119M30.308 75.4c-1.665 0-3.331 1.092-3.331 3.277s1.666 3.278 3.332 3.278a3 3 0 0 0-.051.555c0 3.362 5.125 3.362 5.125 0 0-1.433-.933-2.254-2.002-2.464.165-.395.259-.851.259-1.369 0-2.185-1.666-3.277-3.332-3.277m50.945 1.893c-.708.008-1.42.39-1.736 1.036-1.7-1.11-4.612.256-3.928 2.808.766 2.86 4.7 2.17 5.03-.256 1.224.352 2.817-.606 2.38-2.237-.255-.953-.997-1.36-1.746-1.351m-42.218.235c-.942 0-1.885.618-1.885 1.855 0 2.472 3.77 2.472 3.77 0 0-1.237-.942-1.855-1.885-1.855"/></svg>