<svg xmlns="http://www.w3.org/2000/svg" width="110" height="110"><path fill="#fff" d="M42.436 45.007q-.513.506-.978 1.058-.465.551-.878 1.143-.134-.247-.255-.502-.12-.254-.226-.515-.106-.26-.197-.526-.092-.267-.168-.537-.076-.271-.137-.546t-.107-.552-.075-.558-.044-.56-.013-.563.018-.562.05-.56.08-.557q.05-.277.113-.551t.142-.544.173-.536q.094-.265.202-.525t.232-.512q.122-.253.26-.5.136-.245.286-.483t.314-.467q.163-.23.34-.449.175-.22.363-.429.188-.21.387-.408.2-.199.41-.386t.43-.362.449-.338q.23-.163.468-.313t.484-.285.5-.258.514-.23.525-.201.536-.171.544-.141q.275-.063.552-.11.277-.048.557-.08t.56-.048.563-.017.562.015.56.045.558.078.552.108.545.139.536.169.527.198.514.228.5.256q.248.135.487.284t.469.31q.23.162.45.336.222.175.432.361.211.186.411.384t.389.407.365.428.341.447.316.466.289.482q.138.246.261.498.124.253.234.512.11.26.204.524.095.265.175.535t.145.543.114.551.083.557.052.56q-.349-.148-.705-.279-.355-.13-.717-.244t-.729-.208q-.367-.096-.738-.173-.37-.078-.745-.137t-.751-.1q-.377-.041-.756-.064-.378-.023-.757-.027h-.201q-.19 0-.38.004t-.379.013-.378.022q-.19.014-.378.032-.19.018-.377.04-.189.024-.376.051-.188.027-.375.06-.187.031-.373.068-.186.036-.372.077-.185.041-.369.087t-.367.095-.365.105-.362.113q-.18.06-.359.123-.178.063-.356.13-.177.068-.352.14-.176.072-.35.149-.173.076-.345.156-.172.081-.341.166-.17.084-.338.173-.167.089-.333.182-.165.093-.328.19t-.324.197-.319.206-.313.213q-.156.11-.309.221-.152.113-.302.229t-.297.236q-.148.12-.292.243t-.285.25-.28.257-.272.264m10.752 26.686q-.308-.004-.615-.02-.307-.017-.614-.045-.306-.028-.611-.069-.305-.04-.608-.092-.304-.053-.605-.117-.3-.064-.599-.14-.298-.076-.593-.164t-.586-.187-.578-.21-.57-.233-.56-.255-.55-.276-.538-.299-.526-.319-.513-.34-.499-.36-.485-.378q-.238-.194-.47-.398-.23-.204-.453-.416-.222-.213-.436-.434-.214-.22-.42-.45-.205-.23-.4-.467-.197-.237-.383-.482t-.363-.496-.343-.511q-.167-.259-.323-.524-.157-.265-.302-.536-.146-.27-.28-.548-.136-.276-.26-.558-.124-.281-.236-.568-.113-.286-.215-.577-.1-.29-.19-.584-.19.198-.37.407-.179.21-.346.428t-.322.445-.298.463-.272.478-.245.492q-.116.25-.219.505-.102.255-.19.516-.088.26-.162.526-.073.265-.133.533-.059.269-.103.54-.045.272-.074.546-.03.273-.044.548-.015.275-.014.55t.015.55.046.547.076.545.105.54.135.533.164.525.192.516.22.504q.116.25.247.492.13.242.273.477t.3.461.323.445.348.426.37.407.392.385.413.364q.21.177.431.341.22.164.45.317.229.152.466.291.237.14.482.266.244.127.495.24.25.112.508.211.256.099.518.184t.528.155.535.126.542.097.545.067.55.037q.274.01.55.007.274-.004.549-.023.274-.019.547-.053t.544-.083.538-.112.532-.141.523-.17q.259-.093.513-.199t.501-.226.488-.254.474-.28q.233-.145.458-.304.224-.159.44-.33.216-.17.422-.353t.402-.375q.195-.193.38-.397t.359-.417.335-.436.311-.454q.15-.231.286-.47t.26-.485.232-.498q-.795.08-1.595.081h-.2zm12.693-23.464h-.111q-.21 0-.419.012-.21.01-.418.032t-.415.053-.412.072q-.206.042-.409.093t-.403.113q-.2.06-.398.132-.197.07-.39.151t-.383.17q-.189.09-.374.189-.184.099-.364.207t-.354.224-.342.24q-.168.126-.33.258-.162.133-.317.274-.156.14-.304.288t-.29.303q-.14.155-.273.317t-.259.33-.241.341-.225.354q-.109.179-.208.363-.1.185-.19.374t-.17.382-.153.39-.133.397q-.061.2-.113.403t-.094.409-.074.412q-.031.207-.053.415-.022.209-.033.418t-.013.418.008.419q.008.21.028.418.019.208.048.416.03.207.069.413t.088.41.109.404q.059.2.128.399.069.197.147.391.079.195.166.385t.185.376q.097.185.203.366.106.18.22.356.115.175.238.345t.254.333.27.32q.14.156.286.306t.3.292q.153.143.314.278.16.134.327.261t.34.246.35.228.362.211q.183.102.371.194t.38.175q.193.082.39.156.196.073.395.137.2.063.402.117t.407.098.412.078.415.058.417.037.418.017h.111q.21 0 .42-.012.208-.01.417-.032.208-.021.415-.052.207-.032.413-.073.205-.042.408-.093t.403-.113q.2-.06.398-.132.197-.07.39-.151.194-.08.383-.17t.374-.189q.184-.099.364-.207t.354-.224.342-.24q.168-.126.33-.258.162-.133.318-.274.155-.14.303-.288t.29-.303.273-.317q.133-.161.259-.33.125-.167.242-.341t.224-.353q.109-.18.208-.364.1-.185.19-.374t.17-.382.153-.39.133-.397q.061-.2.113-.403t.094-.409.074-.412q.031-.207.053-.415t.033-.418q.012-.209.013-.418.001-.21-.008-.419-.009-.21-.028-.418t-.048-.416-.068-.413-.09-.41q-.048-.203-.108-.404-.059-.2-.128-.398t-.147-.392q-.078-.195-.166-.385t-.185-.376q-.097-.185-.203-.366-.106-.18-.22-.356-.115-.175-.238-.345t-.255-.333q-.13-.163-.27-.32-.138-.156-.285-.306t-.3-.292q-.153-.143-.314-.278-.16-.134-.327-.261-.166-.127-.34-.245-.172-.12-.35-.23t-.362-.21q-.183-.101-.371-.194-.188-.092-.38-.174-.193-.083-.39-.157-.196-.073-.395-.137-.2-.063-.402-.117t-.407-.098-.412-.078-.414-.058-.418-.037-.418-.017m-10.633 8.453q.003-.215.014-.43.012-.216.032-.43.021-.215.05-.429.03-.213.067-.425.038-.213.085-.423.046-.21.102-.42.055-.207.118-.413.064-.206.136-.41t.152-.403.169-.397.184-.39.2-.38q.105-.19.217-.374t.23-.364.247-.354.26-.344q.133-.17.273-.333t.288-.321.3-.31.312-.296q.16-.146.325-.284.165-.139.335-.27.171-.132.347-.257t.357-.242q.18-.117.366-.227t.375-.212.384-.197.392-.18.398-.165q.2-.078.405-.148.204-.07.41-.131.207-.061.416-.114-.117-.121-.237-.24-.12-.118-.242-.233-.123-.115-.249-.227-.125-.112-.253-.221-.129-.109-.26-.215-.13-.106-.264-.208-.133-.102-.27-.202-.136-.099-.274-.194-.138-.096-.279-.188-.14-.093-.284-.182-.143-.088-.288-.173-.145-.086-.292-.167t-.297-.16-.3-.152q-.15-.074-.304-.145-.152-.07-.307-.137-.154-.067-.31-.13-.157-.062-.314-.121-.158-.059-.317-.114t-.32-.106-.321-.098-.325-.09q-.162-.044-.326-.083t-.328-.074q-.165-.035-.33-.066-.166-.03-.332-.057t-.333-.05q-.166-.023-.334-.041-.167-.019-.335-.033-.167-.015-.335-.025t-.336-.016q-.169-.006-.337-.008h-.177q-.332.002-.664.02-.333.018-.663.052-.331.035-.66.085t-.654.117q-.326.066-.649.148-.322.082-.64.18t-.63.21q-.313.114-.62.242t-.607.271-.594.3q-.293.158-.578.33-.284.17-.56.356t-.544.383q-.267.199-.524.41t-.503.434-.482.46-.458.48-.435.504-.41.524q-.198.266-.383.543-.186.276-.357.56-.172.286-.33.579-.157.292-.3.593-.143.3-.271.607t-.241.62-.211.63-.18.64-.149.648-.117.655-.085.66q-.034.33-.052.662-.019.332-.02.665-.003.333.011.665t.045.663.076.66q.047.33.11.657.061.327.14.65.078.323.172.642.094.32.203.633.11.314.233.623.125.308.264.61.14.302.293.597.154.295.322.582t.35.565.377.548.403.53.428.508.453.487.476.464.498.441.519.416.538.39.557.364.574.336q.29.16.59.308.298.146.603.278t.616.25q.312.116.629.218.316.101.637.187.322.086.647.157.325.07.653.125t.658.093.662.06.665.029h.177q.293 0 .585-.012.293-.013.585-.038.293-.024.583-.062.29-.037.58-.087.289-.05.575-.112.286-.063.57-.137.283-.075.563-.162t.556-.185.548-.21.537-.232.528-.256q.26-.134.516-.278.255-.145.503-.3.249-.156.49-.322.242-.166.476-.342t.46-.363q-.188-.071-.373-.15-.184-.078-.366-.164-.182-.085-.36-.177-.179-.093-.354-.192t-.345-.204-.338-.218-.33-.23q-.162-.118-.32-.243-.157-.124-.31-.254t-.3-.267q-.148-.136-.29-.277-.143-.142-.28-.289t-.269-.299-.256-.309q-.126-.157-.245-.318-.12-.162-.233-.328t-.22-.336q-.106-.17-.207-.344t-.193-.352q-.094-.178-.18-.36-.087-.18-.167-.365-.08-.184-.152-.372-.072-.187-.138-.377-.065-.19-.123-.382t-.109-.387-.094-.39-.08-.394-.063-.397-.049-.398-.034-.4-.018-.402q-.005-.2-.003-.402"/></svg>