<svg xmlns="http://www.w3.org/2000/svg" width="110" height="110"><path fill="#fff" d="m46.937 31.001-.162.003-.174.01c-1.552.105-3.212 1.013-4.594 3.221-2.788 4.453-2.895 9.911-.593 13.828 1.531 2.606 4.1 4.584 7.8 5.19.09-.665.279-1.3.554-1.887-1.157-1.25-1.827-2.662-2.054-4.166-.482-3.184.89-6.526 2.945-9.642.862-1.307.959-2.487.644-3.516s-1.089-1.92-2.112-2.46a4.9 4.9 0 0 0-2.254-.58m20.096 3.019c-3.761.005-7.29 1.477-9.591 3.988-2.16 2.357-3.312 5.617-2.575 9.627a6.6 6.6 0 0 1 1.522-.023c.88-1.814 2.16-3.082 3.722-3.833 2.903-1.394 6.502-1.06 10.083-.01 1.502.441 2.66.188 3.551-.415s1.515-1.606 1.731-2.742c.433-2.274-.616-5.013-4.642-6.091a14.6 14.6 0 0 0-3.801-.501m-11.456 2.9c-.879 0-1.744.071-2.587.2a7 7 0 0 1-.745 1.481c-1.92 2.911-3.026 5.876-2.657 8.314a5.9 5.9 0 0 0 1.246 2.847 6.6 6.6 0 0 1 2.222-1.617c-.845-4.521.36-8.428 2.813-11.22l-.292-.004m9.056 7.845q-.156 0-.308.003c-1.269.025-2.42.253-3.393.72-1.09.523-2.018 1.339-2.704 2.594a6.6 6.6 0 0 1 1.946 1.255c2.372-1.358 4.8-1.94 7.112-1.867a12.2 12.2 0 0 1 4.29.926 17 17 0 0 0-1.148-2.626 7 7 0 0 1-.767-.18c-1.764-.518-3.478-.816-5.029-.825M39.52 48.564a17 17 0 0 0-.685 2.996c.39.298.764.65 1.11 1.062 2.245 2.667 4.775 4.569 7.216 4.908.91.127 1.837.061 2.784-.27a6.5 6.5 0 0 1-.717-2.108c-4.379-.656-7.606-2.987-9.451-6.129q-.134-.226-.257-.46m27.087.767q-.138.002-.276.01c-1.615.071-3.291.532-4.972 1.464.35.588.607 1.238.758 1.925 1.623.263 2.985.93 4.074 1.927 2.376 2.174 3.407 5.639 3.767 9.354.151 1.558.818 2.537 1.71 3.139.89.602 2.054.806 3.19.583 2.27-.445 4.42-2.44 3.921-6.579-.63-5.215-3.977-9.529-8.228-11.129a10.6 10.6 0 0 0-3.944-.694m-10.895.142a4.654 4.654 0 0 0-4.667 4.668 4.653 4.653 0 0 0 4.667 4.667 4.65 4.65 0 0 0 4.664-4.667 4.65 4.65 0 0 0-4.664-4.668m-20.406 2.753c-1.076.01-2.15.501-2.958 1.328-1.618 1.655-2.257 4.517.501 7.642 3.476 3.938 8.68 5.592 13.088 4.499 2.82-.7 5.358-2.48 7.001-5.612a6.6 6.6 0 0 1-1.836-1.284c-1.404.614-2.819.803-4.2.611-3.19-.443-6.006-2.712-8.41-5.567-1.007-1.198-2.11-1.627-3.186-1.617m26.944 2.416a6.5 6.5 0 0 1-.612 2.308c3.177 2.906 4.556 6.54 4.398 10.108v.01a17 17 0 0 0 2.166-2.046 7 7 0 0 1-.13-.83c-.337-3.47-1.343-6.472-3.161-8.136a5.9 5.9 0 0 0-2.66-1.414m-1.664 3.88a6.6 6.6 0 0 1-1.624 1.313c.244 1.61.028 3.098-.577 4.433-1.329 2.933-4.301 4.991-7.72 6.487-1.434.628-2.156 1.562-2.451 2.597-.296 1.034-.133 2.205.431 3.215 1.128 2.02 3.695 3.447 7.473 1.687 4.762-2.218 7.82-6.74 8.022-11.278.132-2.961-.9-5.96-3.554-8.453m-3.409 2.014a6.5 6.5 0 0 1-1.465.168c-.326 0-.646-.027-.96-.073-1.894 3.764-4.946 6.06-8.358 6.906q-.248.061-.498.114a17 17 0 0 0 3.228 1.769q.368-.22.783-.403c3.194-1.397 5.736-3.284 6.753-5.53a5.86 5.86 0 0 0 .517-2.951"/></svg>