<svg xmlns="http://www.w3.org/2000/svg" width="110" height="110"><path fill="#fff" d="M55.63 36.712c-1.055-.001-2.12.09-3.184.277a18.3 18.3 0 0 0-14.835 14.836 18.3 18.3 0 0 0 8.867 19.014 18.26 18.26 0 0 0 9.363 2.446 18.28 18.28 0 0 0 11.537-4.275l-2.74-3.264a14.01 14.01 0 0 1-16.03 1.403 14.01 14.01 0 0 1-6.8-14.584 14.01 14.01 0 0 1 11.378-11.379 14.01 14.01 0 0 1 12.356 3.894l-4.239 4.238h11.364V37.955l-4.114 4.114a18.33 18.33 0 0 0-12.924-5.357"/><path fill="#fff" d="M55.627 41.15q-1.212 0-2.41.211-4.295.757-7.386 3.848t-3.849 7.386q-.757 4.296 1.09 8.257 1.848 3.962 5.625 6.143 3.288 1.898 7.09 1.851 2.377-.029 4.605-.844 2.274-.832 4.133-2.392l2.853 3.4-3.4 2.854-2.74-3.264 3.4-2.854 2.854 3.4q-4.465 3.747-10.26 4.254-5.796.507-10.843-2.407t-7.506-8.187-1.447-11.012 5.126-9.854 9.854-5.125q4.491-.792 8.825.592 4.273 1.364 7.441 4.536.077.077.15.158.073.08.142.165.07.084.134.171.065.088.125.178.061.091.117.185.056.093.107.19.052.095.098.194.047.098.088.199.042.1.079.203.036.103.068.207.031.104.058.21.026.106.047.212.022.107.038.215t.026.216.016.217q.006.11.006.218 0 .11-.006.218-.005.109-.016.217-.01.109-.027.216-.016.108-.037.215t-.048.212-.058.21-.068.207-.079.203-.088.2-.098.194-.107.19-.117.183-.125.179-.134.171-.143.165q-.073.08-.15.158l-4.238 4.238-3.139-3.139V44.88h11.364v4.44h-4.439V37.954h4.439l3.139 3.138-4.114 4.114q-.077.077-.158.15-.08.074-.165.143-.084.069-.172.134t-.178.125-.184.117-.19.107-.194.098-.199.088-.203.079-.207.068-.21.058-.212.048-.215.037-.216.027-.217.016-.218.006-.218-.006q-.108-.005-.217-.016-.108-.01-.216-.026t-.215-.037q-.107-.022-.212-.048-.106-.026-.21-.058t-.207-.068-.203-.079q-.101-.041-.2-.088-.098-.046-.194-.098-.096-.051-.19-.107-.093-.056-.184-.116-.09-.06-.178-.126-.087-.065-.172-.134t-.165-.142-.157-.15q-1.942-1.94-4.485-2.996-2.552-1.061-5.304-1.062m.005-8.877q4.52.002 8.706 1.741 4.166 1.732 7.352 4.914l-3.137 3.14-3.139-3.138 4.114-4.114q.077-.077.158-.15.08-.074.165-.143.084-.069.172-.134t.178-.125.184-.117.19-.107q.095-.052.194-.098.098-.047.2-.088.1-.042.202-.079t.207-.068q.105-.032.21-.058.106-.027.213-.048t.215-.037q.107-.016.216-.027.108-.01.217-.016.109-.005.218-.005t.218.005.217.016.216.027.215.037.212.048.21.058q.105.031.207.068.103.037.204.078.1.042.199.089.098.046.194.098.096.051.19.107.093.056.184.117.09.06.178.125t.172.134q.084.07.165.142.08.074.158.15.077.078.15.159.073.08.142.164.07.085.134.172.065.088.126.178.06.091.116.184.056.094.108.19.051.096.098.195.046.098.088.199.042.1.078.203.037.103.069.207.031.104.058.21.026.106.047.213.022.106.038.214t.026.216q.011.109.016.218t.006.218v11.363q0 .11-.006.218-.005.109-.016.217-.01.109-.026.217-.016.107-.038.214-.02.107-.047.213-.027.105-.058.21-.032.104-.069.207-.036.102-.078.203-.042.1-.088.2-.047.098-.098.194t-.108.19-.116.183q-.06.09-.126.178-.065.088-.134.172t-.142.165q-.073.08-.15.158-.077.077-.158.15-.08.073-.165.143-.084.069-.172.133-.087.065-.178.126-.09.06-.184.117-.094.056-.19.107t-.194.098-.2.088-.203.079q-.102.036-.207.068-.104.032-.21.058-.105.027-.212.048t-.215.037-.216.027-.217.016q-.11.005-.218.005H61.303q-.109 0-.218-.005-.108-.006-.217-.016-.108-.011-.216-.027t-.215-.037-.212-.048-.21-.058q-.105-.032-.207-.068-.103-.037-.204-.079t-.199-.088-.194-.098-.19-.107-.184-.117-.178-.126q-.088-.064-.172-.134-.084-.069-.165-.142-.08-.073-.158-.15-.077-.077-.15-.158-.073-.08-.142-.165-.07-.084-.134-.172-.065-.087-.126-.178-.06-.09-.116-.184-.056-.093-.108-.19-.05-.096-.098-.194-.046-.099-.088-.2-.042-.1-.078-.203-.037-.102-.069-.206-.031-.105-.058-.21-.026-.106-.047-.213t-.038-.215q-.016-.107-.026-.216-.011-.108-.016-.217t-.006-.218.006-.218.016-.217.026-.216.038-.215q.02-.107.047-.213.027-.105.058-.21.032-.104.069-.206.037-.103.078-.204.042-.1.089-.199.046-.098.098-.194.05-.097.107-.19t.116-.184q.061-.09.126-.178t.134-.172.142-.165q.074-.08.15-.158l4.239-4.238 3.139 3.139-3.14 3.137q-1.644-1.645-3.862-2.353-2.248-.718-4.583-.306-2.983.525-5.117 2.66t-2.661 5.117q-.526 2.983.75 5.719t3.899 4.25 5.63 1.252 5.327-2.21q.084-.07.17-.136t.178-.128.182-.118.189-.11q.095-.052.193-.1.098-.047.198-.09t.203-.08q.102-.039.206-.071.104-.033.21-.06.105-.028.211-.05.107-.023.214-.04.108-.018.216-.03.109-.011.217-.018.11-.006.218-.008.11 0 .218.003.109.005.217.014.109.01.217.024t.215.035.213.046.21.056.208.066.204.076q.102.04.2.086.1.045.196.096.097.05.19.105.095.055.186.115.092.06.18.123.088.064.173.132t.166.14.16.15q.078.075.152.155t.144.164l2.74 3.264q.07.083.135.17.066.087.128.177.061.09.118.183t.11.188.1.194q.047.098.09.198t.08.202q.039.103.071.206.033.104.06.21.028.105.05.212.023.106.04.214t.03.216q.011.108.018.217t.008.218-.003.218q-.005.109-.014.217-.01.109-.024.217t-.035.215-.046.213-.055.21-.067.208-.076.204q-.04.101-.086.2-.045.1-.096.196-.05.097-.105.19-.055.095-.115.186t-.123.18q-.064.088-.132.173t-.14.166-.15.16q-.075.078-.155.152t-.164.144q-3.051 2.56-6.787 3.928-3.654 1.337-7.55 1.385-6.237.076-11.636-3.04-3.066-1.77-5.444-4.386-2.325-2.557-3.787-5.694-1.463-3.137-1.927-6.56-.475-3.504.14-6.99.614-3.487 2.258-6.616 1.608-3.059 4.055-5.506 2.448-2.448 5.507-4.055 3.129-1.644 6.616-2.259 1.965-.346 3.956-.345"/><path fill="#fff" d="M55.63 36.712c-1.055-.001-2.12.09-3.184.277a18.3 18.3 0 0 0-14.835 14.836 18.3 18.3 0 0 0 8.867 19.014 18.26 18.26 0 0 0 9.363 2.446 18.28 18.28 0 0 0 11.537-4.275l-2.74-3.264a14.01 14.01 0 0 1-16.03 1.403 14.01 14.01 0 0 1-6.8-14.584 14.01 14.01 0 0 1 11.378-11.379 14.01 14.01 0 0 1 12.356 3.894l-4.239 4.238h11.364V37.955l-4.114 4.114a18.33 18.33 0 0 0-12.924-5.357"/><path fill="#fff" d="M55.628 38.931q-1.407 0-2.797.244-4.984.88-8.57 4.465-3.585 3.586-4.464 8.57t1.264 9.58q2.143 4.596 6.526 7.127 3.816 2.203 8.226 2.149 2.757-.034 5.342-.98 2.64-.966 4.796-2.776l1.427 1.7-1.7 1.427-2.74-3.264 1.7-1.427 1.427 1.7q-3.928 3.297-9.027 3.743t-9.54-2.118-6.604-7.203-1.272-9.689 4.51-8.67Q47.75 39.892 52.8 39q3.952-.697 7.764.521 3.76 1.2 6.547 3.99.038.039.075.08.036.04.071.082t.067.086.063.089.058.092.053.095.05.097q.023.05.043.1.021.05.04.101.018.051.034.103.016.053.029.106.013.052.024.106.01.053.018.107t.013.108q.006.054.008.109.003.054.003.109 0 .054-.003.109-.002.054-.008.108-.005.054-.013.108t-.019.107-.024.107-.029.105-.034.103-.039.102-.044.1q-.023.048-.05.097-.025.048-.053.094-.028.047-.058.092-.03.046-.063.09-.032.043-.067.085-.034.042-.071.083-.037.04-.075.078l-4.238 4.239-1.57-1.57v-2.22h11.364v2.22h-2.22V37.955h2.22l1.57 1.569-4.115 4.114q-.038.039-.079.075-.04.037-.082.071-.042.035-.086.067-.044.033-.089.063t-.092.058-.095.054-.097.049l-.1.044q-.05.021-.101.04-.051.018-.103.033l-.105.03q-.053.013-.107.023-.053.011-.107.02l-.108.012q-.054.006-.109.008-.054.003-.109.003-.054 0-.108-.003-.055-.002-.109-.008-.054-.005-.108-.013t-.107-.018-.107-.024-.105-.03-.103-.033l-.102-.04q-.05-.02-.1-.044-.049-.023-.097-.048t-.094-.054-.092-.058-.09-.063-.085-.067-.083-.071l-.079-.075q-2.252-2.25-5.201-3.476-2.96-1.23-6.155-1.232m.003-4.439q4.078.002 7.855 1.572 3.76 1.563 6.636 4.435l-1.57 1.57-1.569-1.57 4.114-4.114q.039-.038.08-.075.04-.037.082-.071.042-.035.086-.067.043-.033.089-.063.045-.03.092-.058t.095-.054.097-.049l.1-.044.101-.04q.051-.018.104-.033.052-.016.105-.03.052-.013.106-.023l.107-.019q.054-.008.108-.013.055-.006.109-.008.054-.003.109-.003.054 0 .109.003.054.002.108.008.055.005.109.013.053.008.107.019.053.01.106.024.053.013.105.029.052.015.104.034.05.018.101.039.05.02.1.044t.097.05.095.053.092.058.089.063q.044.032.086.067.042.034.082.071l.08.075q.038.039.074.079.037.04.072.083l.067.085q.032.044.062.09l.059.091q.028.047.053.095.026.048.05.098.023.049.043.1l.04.1.034.104q.016.052.029.105t.024.107.018.107l.014.108q.005.054.008.109.002.054.002.109v11.363l-.002.11-.008.108-.014.108q-.008.054-.018.107-.01.054-.024.106-.013.053-.03.105-.015.053-.033.104t-.04.101q-.02.05-.044.1t-.049.097-.053.095-.059.092q-.03.046-.062.09l-.067.085q-.035.042-.072.083-.036.04-.075.079-.038.038-.079.075-.04.036-.082.07t-.086.068l-.09.063q-.044.03-.091.058t-.095.054l-.097.049-.1.044-.101.039-.104.034q-.052.016-.105.03l-.106.023-.107.019q-.054.008-.109.013l-.108.008q-.055.003-.11.003H61.304q-.054 0-.109-.003l-.108-.008q-.055-.005-.108-.013-.054-.008-.108-.019-.053-.01-.106-.024-.053-.013-.105-.029l-.104-.034q-.05-.018-.101-.04-.05-.02-.1-.043-.049-.024-.097-.05-.048-.025-.095-.053t-.092-.058-.089-.063-.086-.067q-.042-.035-.082-.071l-.08-.076q-.038-.038-.074-.078-.037-.04-.071-.083-.035-.042-.068-.086-.032-.044-.062-.089l-.059-.092-.053-.095q-.026-.048-.05-.097-.023-.05-.043-.1-.021-.05-.04-.101-.018-.051-.034-.104-.016-.052-.029-.105l-.024-.106q-.01-.053-.018-.107l-.014-.108-.008-.109q-.002-.054-.002-.109l.002-.109.008-.108q.006-.055.014-.109l.018-.107.024-.106q.014-.053.03-.105.015-.052.034-.104.018-.05.039-.101.02-.05.044-.1t.049-.097q.026-.048.054-.095t.058-.092.063-.089.067-.086.07-.082l.076-.08 4.238-4.237 1.57 1.569-1.57 1.569q-2.025-2.027-4.757-2.9-2.77-.884-5.643-.377-3.672.647-6.302 3.277t-3.277 6.301.924 7.042 4.801 5.234q3.23 1.865 6.933 1.54 3.705-.323 6.561-2.72.042-.035.085-.068t.089-.064l.091-.059q.046-.029.094-.055t.097-.05.099-.045.101-.04.103-.036.105-.03.106-.025.107-.02l.108-.014q.054-.006.109-.01.054-.003.108-.003l.11.001q.054.002.108.007l.108.012.108.018.106.022.106.028.103.033q.052.018.103.038t.1.044.097.047l.096.053.092.057q.046.03.09.062t.087.066.083.07l.08.075q.039.038.076.078t.072.081l2.74 3.265q.034.041.067.085.033.043.064.088l.059.092q.029.046.055.094t.05.097.045.099l.04.1q.02.052.036.104t.03.105q.014.052.025.106.011.053.02.107l.014.108.01.108q.003.055.003.11l-.001.108q-.002.054-.007.109l-.012.108-.018.108-.022.106q-.013.053-.028.105l-.033.104q-.018.052-.038.102t-.043.1-.048.098q-.026.049-.053.095-.028.048-.057.093-.03.046-.062.09t-.066.087-.07.083l-.075.08q-.038.038-.078.075l-.081.073q-2.754 2.31-6.124 3.543-3.297 1.207-6.813 1.25-5.63.07-10.5-2.743-2.766-1.597-4.912-3.956-2.098-2.307-3.418-5.139-1.32-2.831-1.74-5.921-.427-3.16.127-6.306.555-3.146 2.038-5.968 1.45-2.76 3.66-4.97t4.969-3.66q2.823-1.482 5.969-2.037 1.773-.313 3.57-.312"/></svg>