<svg xmlns="http://www.w3.org/2000/svg" width="110" height="110"><path fill="#fff" d="m57.29 31.123-2.865 4.41c-3.699-2.991-8.923-3.919-12.983-3.087-5.526 1.131-10.163 6.123-9.933 13.338.243 7.605 5.551 13.16 10.642 17.738 2.546 2.288 5.159 4.371 7.095 6.243 3.824 3.456 5.676 9.372 5.676 9.372s2.49-6.037 5.676-9.088c1.998-1.898 4.634-4.02 7.237-6.385 5.204-4.733 10.593-10.556 10.358-18.022 0-12.41-12.297-12.278-17.033-7.964 1.96-1.037 4.07-1.258 5.965-.833 3.48.78 6.361 3.646 6.528 8.94.158 5.064-3.967 9.951-8.94 14.473-2.487 2.26-5.048 4.307-7.237 6.385-1.162 1.104-1.698 2.081-2.554 3.226-.856-1.216-1.386-2.239-2.554-3.368-5.615-6.387-14.537-13.28-14.893-20.859-.073-6.313 7.315-7.975 11.287-5.178l-4.66 2.562c6.838 1.131 12.657 3.791 18.831 7.67z"/></svg>