<svg xmlns="http://www.w3.org/2000/svg" width="110" height="110"><path fill="#fff" d="M71.558 55q0 .55-.02 1.1-.02.549-.06 1.096t-.099 1.091-.139 1.084-.178 1.072-.217 1.06-.254 1.044-.293 1.026-.33 1.005-.365.982-.4.957-.435.93q-.226.456-.468.898t-.5.867q-.258.425-.531.833-.273.407-.56.796t-.589.758q-.301.37-.615.718-.315.35-.641.677-.327.328-.665.633-.338.306-.686.588-.349.283-.707.542-.359.26-.726.495-.368.235-.743.445-.376.21-.759.396-.382.185-.771.345-.39.16-.784.293-.394.134-.793.241-.398.107-.8.188-.402.08-.807.135-.405.054-.81.08-.407.028-.813.028t-.812-.027-.811-.081q-.405-.054-.807-.135-.402-.08-.8-.188-.4-.107-.793-.24-.395-.134-.784-.294t-.771-.345-.759-.396-.743-.445q-.367-.235-.726-.495-.358-.259-.707-.542-.348-.282-.686-.588-.338-.305-.665-.633-.326-.328-.64-.677-.315-.348-.616-.718t-.589-.758q-.287-.389-.56-.796t-.53-.833q-.259-.425-.5-.867-.243-.442-.469-.899t-.435-.929q-.209-.471-.4-.957-.192-.485-.366-.982-.173-.497-.329-1.005-.155-.508-.293-1.026-.136-.518-.254-1.044t-.217-1.06q-.099-.533-.178-1.072-.08-.54-.14-1.084-.059-.544-.099-1.091t-.06-1.097-.02-1.099.02-1.1.06-1.096.1-1.091.139-1.084q.08-.539.178-1.072.099-.534.217-1.06t.254-1.044.293-1.026.33-1.005q.173-.497.365-.982.191-.486.4-.957.21-.472.435-.93.226-.456.468-.898t.5-.867q.258-.425.531-.833.273-.407.56-.796t.589-.758q.301-.37.615-.718.315-.35.641-.677.327-.328.665-.633.338-.306.686-.588.349-.283.707-.542.359-.26.726-.495.368-.235.743-.445.376-.21.759-.396.382-.185.771-.345.39-.16.784-.293.394-.134.793-.241.398-.107.8-.188.402-.08.807-.135.405-.054.81-.08.407-.028.813-.028t.812.027.811.081q.405.054.807.135.402.08.8.188.4.107.793.24.395.134.784.294t.771.345.759.396.743.445q.367.235.726.495.358.259.707.542.348.282.686.588.338.305.665.633.326.328.64.677.315.348.616.718t.589.758q.287.389.56.796t.53.833q.259.425.5.867.243.442.469.899t.435.929q.209.471.4.957.192.485.366.982.173.497.329 1.005.155.508.293 1.026.136.518.254 1.044t.217 1.06q.099.533.178 1.072.08.54.14 1.084.059.544.099 1.091t.06 1.097.02 1.099"/></svg>