<svg xmlns="http://www.w3.org/2000/svg" width="110" height="110"><path fill="none" stroke="#000" stroke-linejoin="round" stroke-width="2.4" d="M51.559 86.716q-.22-.718-.488-1.48-.269-.762-.533-1.518h-5.4q-.259.756-.527 1.518-.269.762-.489 1.48H40.88q.782-2.242 1.48-4.14.698-1.9 1.367-3.58.674-1.68 1.323-3.188.65-1.514 1.348-2.955h2.983q.679 1.44 1.338 2.955.66 1.508 1.328 3.188.674 1.68 1.372 3.58.703 1.898 1.48 4.14zm-3.74-10.718q-.098.298-.298.82l-.464 1.201-.571 1.5q-.308.815-.625 1.718h3.94q-.322-.903-.625-1.719-.298-.82-.566-1.499-.269-.683-.469-1.2-.2-.523-.322-.821Zm11.66 10.718h-2.978V76.198h2.979zm.28-13.56q0 .82-.533 1.29-.527.468-1.245.468-.723 0-1.255-.469-.527-.469-.527-1.289t.527-1.289q.532-.474 1.255-.474.718 0 1.245.474.532.469.532 1.29Zm8.86 5.679q-.4-.098-.942-.205-.537-.113-1.157-.113-.279 0-.67.05-.39.048-.59.107v8.042H62.28v-9.961q.801-.279 1.89-.528 1.089-.253 2.427-.253.244 0 .58.034.343.029.68.078.341.049.678.122.342.068.586.166z"/><path fill="#fff" d="M51.559 86.716q-.22-.718-.488-1.48-.269-.762-.533-1.518h-5.4q-.259.756-.527 1.518-.269.762-.489 1.48H40.88q.782-2.242 1.48-4.14.698-1.9 1.367-3.58.674-1.68 1.323-3.188.65-1.514 1.348-2.955h2.983q.679 1.44 1.338 2.955.66 1.508 1.328 3.188.674 1.68 1.372 3.58.703 1.898 1.48 4.14zm-3.74-10.718q-.098.298-.298.82l-.464 1.201-.571 1.5q-.308.815-.625 1.718h3.94q-.322-.903-.625-1.719-.298-.82-.566-1.499-.269-.683-.469-1.2-.2-.523-.322-.821m11.66 10.718h-2.978V76.198h2.979zm.28-13.56q0 .82-.533 1.29-.527.468-1.245.468-.723 0-1.255-.469-.527-.469-.527-1.289t.527-1.289q.532-.474 1.255-.474.718 0 1.245.474.532.469.532 1.29m8.86 5.679q-.4-.098-.942-.205-.537-.113-1.157-.113-.279 0-.67.05-.39.048-.59.107v8.042H62.28v-9.961q.801-.279 1.89-.528 1.089-.253 2.427-.253.244 0 .58.034.343.029.68.078.341.049.678.122.342.068.586.166z"/></svg>