<svg xmlns="http://www.w3.org/2000/svg" width="110" height="110"><path fill="#886d35" d="M40.318 33.272q-.204.003-.263.025.143-.053.287-.199.122-.123.183-.257l.016-.04q-.007.025-.013.073-.07.539.2 1.464.37 1.264 1.248 2.66.982 1.564 2.411 2.977 1.04 1.028 2.635 1.717 1.109.48 3.5 1.127 1.65.447 2.45.723.116.04.23.086.113.046.225.097.111.051.22.108.11.057.215.119.106.062.209.129t.202.139.195.149.188.158.18.167.17.176.163.184.153.192.143.2q.07.1.134.205t.123.212q.059.108.113.219.053.11.101.223t.091.228q.043.115.08.232t.068.236q.03.118.056.239.025.12.045.241t.032.243.02.245.01.245q0 .123-.004.245-.005.123-.015.245-.011.123-.028.244-.016.122-.039.242-.023.121-.051.24-.029.12-.063.238t-.075.234q-.05.145-.11.287-.058.143-.126.281t-.144.272q-.077.134-.161.263-.084.13-.177.253t-.192.241-.206.229-.22.216Q49.7 56.58 43.113 60.79l-2.693-4.213 3.514-3.556 5.156 5.096-3.515 3.556-4.243-2.644q4.405-7.072 9.491-12.532.075-.081.154-.158.079-.078.16-.151.083-.074.168-.144t.173-.137q.088-.066.18-.128.09-.062.184-.12.094-.059.19-.113t.194-.104.2-.095.202-.086.207-.077q.104-.037.21-.068.105-.032.212-.06.107-.026.215-.049.108-.022.217-.04.109-.017.218-.03.11-.012.22-.02t.22-.01q.11-.004.22-.002t.22.009.22.018.22.028.217.038q.108.02.215.047.107.026.213.057.106.03.21.065.105.036.208.076t.204.084q.1.044.2.093.098.049.195.102t.191.11.186.119q4.49 3.009 8.583 8.802 2.415 3.417 6.2 10.255l-4.376 2.42-3.556-3.514 7.157-7.24 3.556 3.514-2.37 4.403q-3.443-1.854-5.228-2.876-2.955-1.692-5.16-3.2-5.865-4.01-8.892-8.465-.062-.09-.12-.184t-.111-.19-.103-.194q-.05-.098-.094-.199-.045-.1-.086-.202t-.076-.206-.068-.21q-.03-.105-.058-.212-.026-.106-.048-.214t-.04-.216-.03-.218l-.02-.22q-.007-.109-.01-.219-.002-.11 0-.22t.009-.22.018-.218q.012-.11.029-.218.016-.11.037-.217.022-.108.048-.215t.056-.212q.03-.106.066-.21.035-.104.075-.206.04-.103.084-.204t.093-.199q.049-.098.102-.195.053-.096.11-.19t.118-.185q.061-.092.127-.18.065-.089.134-.175t.142-.168.149-.161q.076-.08.155-.155 5.363-5.102 12.36-9.576l2.693 4.213-3.515 3.556-5.155-5.096 3.515-3.556 4.243 2.644q-4.103 6.586-8.63 11.626-.082.091-.168.179-.087.087-.177.17-.09.082-.185.16-.095.079-.193.153-.098.073-.2.142t-.207.132-.213.122-.219.111-.224.1-.228.09-.233.078-.236.067-.24.054-.24.044q-.122.018-.244.03t-.245.02-.245.007q-.123 0-.246-.005-.122-.005-.244-.017-.123-.011-.244-.029-.122-.017-.242-.04-.12-.024-.24-.053-.119-.03-.237-.065t-.233-.076q-.116-.04-.23-.087-.113-.046-.224-.098t-.22-.11-.214-.12q-.105-.062-.208-.13-.102-.068-.201-.14t-.194-.15q-.096-.078-.187-.16-.117-.105-.227-.217t-.212-.23q-.103-.12-.198-.244-.095-.125-.182-.256-.088-.13-.166-.267-.079-.136-.15-.276-.069-.14-.13-.285t-.113-.293q-.262-.747-.699-2.285-.683-2.403-1.183-3.52-.723-1.616-1.792-2.673-1.952-1.93-4.088-2.973-1.713-.837-2.86-.818-.122.002-.245-.002t-.245-.014-.244-.026-.243-.038-.24-.05-.237-.061-.235-.074-.23-.084-.226-.096-.221-.107q-.11-.056-.216-.117t-.209-.128-.203-.138q-.1-.071-.196-.148-.096-.076-.188-.157-.093-.08-.18-.166-.089-.086-.173-.175-.084-.09-.163-.183-.08-.094-.154-.191-.075-.098-.145-.199-.07-.1-.135-.205-.064-.104-.124-.211-.06-.108-.114-.218t-.103-.222-.092-.228-.08-.232q-.038-.116-.07-.235t-.058-.239-.046-.24-.034-.244-.022-.244-.01-.245q-.002-.15.004-.3.007-.15.022-.3.016-.149.04-.297.025-.148.058-.294t.075-.29.093-.286.11-.28q.058-.137.125-.271l4.472 2.236zm-.164-9.999q.15-.002.3.004.15.007.3.022.149.016.297.04.148.025.294.058.147.033.29.075.145.042.286.093t.28.11q.137.058.272.125.11.055.216.116.107.06.211.125.104.066.205.136t.197.146.19.155.182.164.174.173.166.182q.08.092.156.189.076.096.147.197.07.1.137.203.065.104.126.21.061.107.117.217.055.11.105.221.05.112.095.227.044.114.083.23.039.117.072.235t.06.238.048.24.037.243.025.244q.01.123.013.246.003.122 0 .245-.002.123-.011.245-.009.123-.024.244-.014.122-.035.243-.02.121-.047.241t-.06.238-.07.235-.082.232-.093.227-.104.222l-4.473-2.236zq3.546-.058 7.414 1.832 3.61 1.764 6.728 4.846 2.402 2.374 3.89 5.701.794 1.774 1.674 4.87.356 1.25.518 1.715L55.66 43.89l-3.72-3.341q3.943-4.39 7.583-10.232.147-.236.32-.454.172-.219.367-.417.087-.087.177-.17t.185-.161q.094-.079.193-.152.098-.074.2-.143.101-.069.206-.132.105-.064.213-.123t.218-.111.224-.101.229-.09.232-.078.236-.067q.12-.03.24-.055t.241-.043q.121-.02.243-.032.123-.013.245-.02.123-.006.245-.007.123 0 .246.005.122.005.245.016.122.012.243.029.122.017.242.04.12.024.24.053.12.03.237.064.118.035.233.076t.23.087.225.098.22.109.214.12.208.13.202.14.194.15.187.159.178.168l5.156 5.096q.198.195.373.412t.325.45q.066.104.127.21.06.107.117.216.055.11.105.222t.095.226.084.23q.039.117.072.235t.06.238.05.24.037.243.025.244q.01.123.013.245.004.123.001.246-.002.122-.01.245-.01.122-.024.244t-.035.243q-.02.121-.047.241-.026.12-.058.238-.032.119-.07.235-.038.117-.082.232t-.093.227-.104.222-.115.217-.125.211-.135.205q-.07.1-.146.198-.075.097-.155.19t-.164.183-.172.174-.182.166-.189.156-.196.147-.204.137q-6.187 3.956-10.852 8.395l-3.447-3.622 4.135-2.81q1.964 2.889 6.267 5.83 2.885 1.973 9.483 5.525.315.17.603.383t.542.464q.087.086.17.177.083.09.162.185.078.094.152.192t.142.2q.07.102.133.207.064.105.122.213.059.107.112.218.053.11.1.224.048.113.09.228.042.116.078.233.037.117.067.236t.055.24.044.24.031.244.02.245.007.245q0 .123-.004.245-.006.123-.017.245t-.029.244q-.017.122-.04.242t-.053.24-.064.237-.075.233-.087.23-.098.225q-.052.11-.11.22-.057.108-.12.214-.062.105-.13.208-.067.102-.14.201-.072.1-.15.195-.077.095-.158.186-.082.092-.169.18l-7.156 7.24q-.252.254-.537.47t-.599.39q-.107.059-.217.113t-.223.103-.228.091-.232.08q-.116.038-.235.07-.119.031-.239.057-.12.025-.24.045-.122.02-.244.034t-.244.021-.246.01-.245-.002-.245-.015-.244-.026-.242-.039q-.121-.022-.24-.05-.12-.028-.238-.062t-.234-.074-.23-.085-.226-.096-.221-.107-.215-.118-.21-.128-.202-.138-.196-.148-.188-.158-.18-.167-.172-.175-.163-.183q-.08-.094-.154-.192-.074-.097-.144-.198t-.134-.206-.124-.211q-3.518-6.358-5.616-9.326-3.029-4.285-5.985-6.266l2.784-4.154 3.659 3.408q-4.427 4.754-8.322 11.005-.147.236-.32.454-.172.219-.368.417-.086.087-.176.17t-.185.161-.193.152-.2.143-.206.132-.213.122-.219.112-.223.1-.229.09-.232.079-.236.067-.24.055-.241.043-.244.032-.244.02q-.123.006-.245.007-.123 0-.246-.005-.122-.005-.245-.017-.122-.01-.243-.028-.122-.017-.242-.04-.121-.024-.24-.053-.12-.03-.237-.064-.118-.035-.234-.076-.115-.04-.229-.087t-.225-.098-.22-.109q-.108-.057-.214-.12-.106-.062-.208-.13-.103-.067-.202-.14-.099-.072-.194-.15-.095-.077-.187-.159-.091-.082-.178-.168l-5.156-5.096q-.198-.195-.373-.412t-.325-.45q-.066-.104-.127-.21-.061-.107-.117-.217-.056-.109-.106-.221t-.095-.226q-.044-.115-.083-.231t-.073-.235-.06-.237q-.028-.12-.05-.24-.02-.122-.036-.243-.016-.122-.025-.245-.01-.122-.013-.245-.004-.122-.001-.245.002-.123.01-.245.009-.123.024-.245.014-.121.034-.242t.047-.241q.027-.12.059-.239.032-.118.07-.235t.082-.231.093-.227.104-.223.114-.217.126-.21q.065-.105.135-.205.07-.101.146-.198t.154-.19.164-.183.173-.174.181-.166.19-.156.196-.147.203-.138q5.843-3.735 10.222-7.773l3.39 3.676-1.634 4.725q-.477-.165-1.796-.522-3.085-.835-4.852-1.6-3.32-1.434-5.699-3.784-2.252-2.226-3.85-4.77-1.615-2.573-2.375-5.17-.86-2.935-.522-5.55.426-3.308 2.62-5.529 2.695-2.725 6.924-2.795m1.602 3.94q2.545.05 5.337 1.555 2.408 1.297 4.56 3.425 3.095 3.058 4.378 6.448.778 2.057.714 3.939-.097 2.865-1.987 4.777T50.004 49.4q-1.88.085-3.947-.67-3.406-1.243-6.5-4.301t-4.378-6.448q-.779-2.058-.716-3.939.096-2.867 1.987-4.78 2.089-2.113 5.306-2.049m-.199 9.998q.346.007.756-.13.703-.237 1.25-.789.86-.87.895-1.915.004-.138-.007-.195.019.094.08.257.512 1.352 2.056 2.878 1.543 1.525 2.9 2.02.163.06.257.077-.058-.01-.195-.004-1.044.048-1.903.917-.86.87-.895 1.913-.005.138.007.196-.019-.094-.08-.256-.511-1.35-2.054-2.875-1.13-1.118-2.273-1.733-.424-.228-.748-.33-.09-.028-.141-.037.027.005.096.006"/><path fill="#a88642" d="M40.236 28.273c-1.397.023-2.595.446-3.45 1.31-2.734 2.767-.91 9.01 4.086 13.948 3.348 3.309 7.665 3.769 10.466 4.737-3.197 2.947-6.77 5.658-10.918 8.31l5.155 5.096c2.785-4.47 5.697-8.322 8.907-11.769 5.564 3.73 9.463 10.587 13.191 17.325l7.157-7.24c-6.88-3.705-13.776-7.447-17.515-12.949 3.45-3.282 7.259-6.206 11.606-8.985l-5.155-5.096c-2.55 4.094-5.184 7.675-8.107 10.929-.98-2.799-1.528-7.071-4.878-10.382-3.435-3.395-7.47-5.285-10.545-5.234m1.42 3.94c1.754.034 4.26 1.34 6.483 3.536 3.091 3.055 4.462 6.678 3.063 8.093s-5.039.087-8.13-2.969-4.464-6.68-3.066-8.096c.394-.398.965-.579 1.65-.565"/><path fill="none" stroke="#000" stroke-linejoin="round" stroke-width="2.4" d="M41.099 86.716q-.22-.718-.488-1.48-.269-.762-.533-1.518h-5.4q-.259.756-.527 1.518-.269.762-.489 1.48H30.42q.781-2.242 1.48-4.14.698-1.9 1.367-3.58.674-1.68 1.323-3.188.65-1.514 1.348-2.955h2.983q.679 1.44 1.338 2.955.66 1.508 1.328 3.188.674 1.68 1.372 3.58.703 1.898 1.48 4.14zm-3.74-10.718q-.098.298-.298.82l-.464 1.201-.571 1.5q-.308.815-.625 1.718h3.94q-.322-.903-.625-1.719-.298-.82-.566-1.499-.269-.683-.469-1.2-.2-.523-.322-.821Zm8.682.557q.757-.22 1.958-.41 1.202-.191 2.52-.191 1.343 0 2.231.352.889.351 1.407.99.522.64.742 1.52.22.878.22 1.957v5.943H52.14v-5.581q0-1.44-.38-2.036-.382-.601-1.422-.601-.317 0-.678.03t-.64.068v8.12H46.04zM60.8 79.997q.44-.483.908-1.001.474-.522.913-1.03t.83-.967q.39-.464.67-.8h3.54q-1.06 1.215-2.071 2.328-1.01 1.109-2.212 2.29.6.537 1.24 1.29.64.746 1.24 1.547.601.801 1.1 1.602.502.8.844 1.46h-3.423q-.317-.518-.728-1.148-.41-.635-.874-1.264-.459-.63-.971-1.206-.508-.582-1.006-.982v4.6H57.82v-15.04l2.979-.478zm8.601 6.719v-15.04l2.979-.478v5.04q.298-.103.767-.191.473-.093.913-.093 1.279 0 2.129.352.85.351 1.357.99.513.64.722 1.52.21.878.21 1.957v5.943H75.5v-5.581q0-1.44-.371-2.036-.371-.601-1.367-.601-.4 0-.752.068-.352.069-.63.152v7.998z"/><path fill="#fff" d="M41.099 86.716q-.22-.718-.488-1.48-.269-.762-.533-1.518h-5.4q-.259.756-.527 1.518-.269.762-.489 1.48H30.42q.781-2.242 1.48-4.14.698-1.9 1.367-3.58.674-1.68 1.323-3.188.65-1.514 1.348-2.955h2.983q.679 1.44 1.338 2.955.66 1.508 1.328 3.188.674 1.68 1.372 3.58.703 1.898 1.48 4.14zm-3.74-10.718q-.098.298-.298.82l-.464 1.201-.571 1.5q-.308.815-.625 1.718h3.94q-.322-.903-.625-1.719-.298-.82-.566-1.499-.269-.683-.469-1.2-.2-.523-.322-.821m8.682.557q.757-.22 1.958-.41 1.202-.191 2.52-.191 1.343 0 2.231.352.889.351 1.407.99.522.64.742 1.52.22.878.22 1.957v5.943H52.14v-5.581q0-1.44-.38-2.036-.382-.601-1.422-.601-.317 0-.678.03t-.64.068v8.12H46.04zM60.8 79.997q.44-.483.908-1.001.474-.522.913-1.03t.83-.967q.39-.464.67-.8h3.54q-1.06 1.215-2.071 2.328-1.01 1.109-2.212 2.29.6.537 1.24 1.29.64.746 1.24 1.547.601.801 1.1 1.602.502.8.844 1.46h-3.423q-.317-.518-.728-1.148-.41-.635-.874-1.264-.459-.63-.971-1.206-.508-.582-1.006-.982v4.6H57.82v-15.04l2.979-.478zm8.601 6.719v-15.04l2.979-.478v5.04q.298-.103.767-.191.473-.093.913-.093 1.279 0 2.129.352.85.351 1.357.99.513.64.722 1.52.21.878.21 1.957v5.943H75.5v-5.581q0-1.44-.371-2.036-.371-.601-1.367-.601-.4 0-.752.068-.352.069-.63.152v7.998z"/></svg>