<svg xmlns="http://www.w3.org/2000/svg" width="110" height="110"><path fill="#fff0b8" d="M74.429 47.857q0 .645-.024 1.29-.023.644-.07 1.287t-.117 1.28-.163 1.271-.209 1.259-.254 1.243-.3 1.225-.342 1.204-.387 1.18-.429 1.152q-.224.57-.47 1.123t-.51 1.09q-.265.536-.549 1.055t-.587 1.017-.622.977-.658.934-.69.89-.723.842q-.368.41-.751.794-.384.384-.78.743-.397.358-.806.69t-.83.636q-.42.304-.851.58t-.872.523-.89.464-.905.405q-.457.187-.92.344-.462.157-.93.283-.467.126-.94.22-.471.095-.946.158-.474.064-.95.095-.477.032-.954.032t-.953-.032-.951-.095-.947-.158-.94-.22-.93-.283q-.462-.157-.919-.344-.456-.187-.905-.405-.45-.217-.89-.464t-.872-.523q-.43-.276-.852-.58-.42-.304-.83-.636-.408-.332-.805-.69-.396-.359-.78-.743-.383-.384-.751-.794-.369-.41-.722-.842-.354-.434-.691-.89t-.658-.934-.622-.977q-.303-.5-.587-1.017-.284-.519-.55-1.055-.264-.537-.51-1.09-.245-.554-.47-1.123t-.428-1.152-.387-1.18-.343-1.204q-.16-.607-.299-1.225-.138-.617-.254-1.243t-.21-1.259-.162-1.271-.117-1.28q-.047-.643-.07-1.287-.024-.645-.024-1.29t.024-1.29q.023-.644.07-1.286.047-.643.117-1.28.07-.64.163-1.272.093-.633.209-1.259t.254-1.243.3-1.225.342-1.204.387-1.18.429-1.152.47-1.122.51-1.09.549-1.055.587-1.017q.302-.5.622-.977.32-.478.658-.935.337-.456.69-.89.354-.433.723-.842.368-.41.751-.794.384-.384.78-.743.397-.358.806-.69t.83-.636q.42-.304.851-.58t.872-.523.89-.464.905-.405q.457-.187.92-.344.462-.157.93-.282.467-.126.94-.221.471-.095.946-.158.474-.063.95-.095.477-.032.954-.032t.953.032.951.095.947.158.94.22.93.283q.462.157.919.344.456.188.905.405.45.217.89.464t.872.523q.43.276.852.58.42.304.83.636.408.332.805.69.396.359.78.743.383.385.751.794.369.41.722.843.354.433.691.89.337.456.658.934.32.478.622.977.303.498.587 1.017t.55 1.055q.264.536.51 1.09.245.553.47 1.122t.428 1.153.387 1.179.343 1.204.299 1.225.254 1.243.21 1.259q.092.633.162 1.271t.117 1.28q.047.643.07 1.287.024.645.024 1.29"/><path fill="none" stroke="#cfc295" stroke-linejoin="round" stroke-width="4.28571" d="M74.429 47.857q0 .645-.024 1.29-.023.644-.07 1.287t-.117 1.28-.163 1.271-.209 1.259-.254 1.243-.3 1.225-.342 1.204-.387 1.18-.429 1.152q-.224.57-.47 1.123t-.51 1.09q-.265.536-.549 1.055t-.587 1.017-.622.977-.658.934-.69.89-.723.842q-.368.41-.751.794-.384.384-.78.743-.397.358-.806.69t-.83.636q-.42.304-.851.58t-.872.523-.89.464-.905.405q-.457.187-.92.344-.462.157-.93.283-.467.126-.94.22-.471.095-.946.158-.474.064-.95.095-.477.032-.954.032t-.953-.032-.951-.095-.947-.158-.94-.22-.93-.283q-.462-.157-.919-.344-.456-.187-.905-.405-.45-.217-.89-.464t-.872-.523q-.43-.276-.852-.58-.42-.304-.83-.636-.408-.332-.805-.69-.396-.359-.78-.743-.383-.384-.751-.794-.369-.41-.722-.842-.354-.434-.691-.89t-.658-.934-.622-.977q-.303-.5-.587-1.017-.284-.519-.55-1.055-.264-.537-.51-1.09-.245-.554-.47-1.123t-.428-1.152-.387-1.18-.343-1.204q-.16-.607-.299-1.225-.138-.617-.254-1.243t-.21-1.259-.162-1.271-.117-1.28q-.047-.643-.07-1.287-.024-.645-.024-1.29t.024-1.29q.023-.644.07-1.286.047-.643.117-1.28.07-.64.163-1.272.093-.633.209-1.259t.254-1.243.3-1.225.342-1.204.387-1.18.429-1.152.47-1.122.51-1.09.549-1.055.587-1.017q.302-.5.622-.977.32-.478.658-.935.337-.456.69-.89.354-.433.723-.842.368-.41.751-.794.384-.384.78-.743.397-.358.806-.69t.83-.636q.42-.304.851-.58t.872-.523.89-.464.905-.405q.457-.187.92-.344.462-.157.93-.282.467-.126.94-.221.471-.095.946-.158.474-.063.95-.095.477-.032.954-.032t.953.032.951.095.947.158.94.22.93.283q.462.157.919.344.456.188.905.405.45.217.89.464t.872.523q.43.276.852.58.42.304.83.636.408.332.805.69.396.359.78.743.383.385.751.794.369.41.722.843.354.433.691.89.337.456.658.934.32.478.622.977.303.498.587 1.017t.55 1.055q.264.536.51 1.09.245.553.47 1.122t.428 1.153.387 1.179.343 1.204.299 1.225.254 1.243.21 1.259q.092.633.162 1.271t.117 1.28q.047.643.07 1.287.024.645.024 1.29"/><path fill="none" stroke="#000" stroke-linejoin="round" stroke-width="2.4" d="M38.662 86.716V72.853h9.36v2.622h-6.24v2.72h5.537v2.559h-5.537v3.34h6.699v2.622zm14.458-5.6q0 2.5 2.022 2.5.459 0 .86-.118.4-.122.678-.283v-4.761q-.22-.04-.522-.068-.298-.03-.699-.03-1.181 0-1.762.782-.577.776-.577 1.977Zm6.539 4.281q0 2.578-1.31 3.828-1.308 1.25-4.047 1.25-.962 0-1.924-.17-.957-.171-1.777-.45l.517-2.5q.704.279 1.47.44.772.16 1.753.16 1.28 0 1.807-.56.532-.557.532-1.441v-.376q-.479.22-.991.332-.508.107-1.109.107-2.182 0-3.344-1.289-1.158-1.294-1.158-3.613 0-1.157.362-2.11.361-.951 1.05-1.63.688-.679 1.689-1.05t2.26-.371q.543 0 1.11.054.57.049 1.127.132.562.078 1.07.19.512.107.913.225zM65 81.115q0 2.5 2.022 2.5.459 0 .86-.117.4-.122.678-.283v-4.761q-.22-.04-.523-.068-.297-.03-.698-.03-1.181 0-1.762.782-.577.776-.577 1.977Zm6.538 4.282q0 2.578-1.308 3.828t-4.048 1.25q-.962 0-1.924-.17-.957-.171-1.777-.45l.517-2.5q.704.279 1.47.44.772.16 1.753.16 1.28 0 1.807-.56.532-.557.532-1.441v-.376q-.478.22-.991.332-.508.107-1.109.107-2.182 0-3.344-1.289-1.158-1.294-1.158-3.613 0-1.157.362-2.11.361-.951 1.05-1.63.688-.679 1.689-1.05t2.26-.371q.543 0 1.11.054.57.049 1.127.132.562.078 1.07.19.512.107.912.225z"/><path fill="#fff" d="M38.662 86.716V72.853h9.36v2.622h-6.24v2.72h5.537v2.559h-5.537v3.34h6.699v2.622zm14.458-5.6q0 2.5 2.022 2.5.459 0 .86-.118.4-.122.678-.283v-4.761q-.22-.04-.522-.068-.298-.03-.699-.03-1.181 0-1.762.782-.577.776-.577 1.977m6.539 4.281q0 2.578-1.31 3.828-1.308 1.25-4.047 1.25-.962 0-1.924-.17-.957-.171-1.777-.45l.517-2.5q.704.279 1.47.44.772.16 1.753.16 1.28 0 1.807-.56.532-.557.532-1.441v-.376q-.479.22-.991.332-.508.107-1.109.107-2.182 0-3.344-1.289-1.158-1.294-1.158-3.613 0-1.157.362-2.11.361-.951 1.05-1.63.688-.679 1.689-1.05t2.26-.371q.543 0 1.11.054.57.049 1.127.132.562.078 1.07.19.512.107.913.225zM65 81.115q0 2.5 2.022 2.5.459 0 .86-.117.4-.122.678-.283v-4.761q-.22-.04-.523-.068-.297-.03-.698-.03-1.181 0-1.762.782-.577.776-.577 1.977m6.538 4.282q0 2.578-1.308 3.828t-4.048 1.25q-.962 0-1.924-.17-.957-.171-1.777-.45l.517-2.5q.704.279 1.47.44.772.16 1.753.16 1.28 0 1.807-.56.532-.557.532-1.441v-.376q-.478.22-.991.332-.508.107-1.109.107-2.182 0-3.344-1.289-1.158-1.294-1.158-3.613 0-1.157.362-2.11.361-.951 1.05-1.63.688-.679 1.689-1.05t2.26-.371q.543 0 1.11.054.57.049 1.127.132.562.078 1.07.19.512.107.912.225z"/></svg>