<svg xmlns="http://www.w3.org/2000/svg" width="110" height="110"><path fill="#fff0b8" d="M72.607 47.857q0 .585-.021 1.169t-.064 1.166-.105 1.16-.148 1.152-.19 1.141-.23 1.127-.271 1.11-.311 1.091-.35 1.07-.389 1.043-.426 1.018-.462.988-.498.955-.532.922-.564.886-.596.846-.626.807-.654.763-.681.72-.707.673-.73.625q-.37.301-.752.577-.381.275-.772.525-.39.25-.79.474t-.806.42q-.407.198-.82.368-.415.17-.834.312-.42.142-.843.256-.424.114-.852.2-.427.086-.857.143t-.862.086-.864.029-.864-.03-.862-.085-.857-.143-.852-.2-.843-.256q-.42-.142-.833-.312-.414-.17-.82-.367-.408-.197-.807-.42-.4-.225-.79-.475t-.772-.525-.752-.577-.73-.625-.707-.673q-.347-.349-.68-.72-.335-.37-.655-.763t-.626-.807-.596-.846-.564-.886-.532-.922q-.258-.47-.498-.955-.24-.487-.462-.988-.222-.502-.426-1.018-.204-.515-.389-1.044-.184-.529-.35-1.069t-.31-1.09q-.147-.551-.272-1.11-.125-.56-.23-1.128t-.19-1.14-.148-1.153-.105-1.16-.064-1.166-.021-1.169.021-1.169.064-1.166.105-1.16.148-1.152.19-1.141.23-1.127.271-1.11.311-1.091.35-1.069.389-1.044.426-1.018.462-.987.498-.956.532-.922.564-.885q.29-.434.596-.847.306-.414.626-.806t.654-.764.681-.72q.348-.348.707-.673.36-.325.73-.625t.752-.576.772-.526.79-.474.806-.42q.407-.198.82-.368.415-.17.834-.311.42-.142.843-.257.424-.114.852-.2.427-.085.857-.143t.862-.086.864-.028.864.028.862.086q.43.058.857.144.428.085.852.2.424.114.843.256.42.142.833.311.414.17.82.367.408.197.807.421t.79.474q.39.25.772.526.381.275.752.576.37.3.73.625t.707.674.68.719q.335.37.655.764.32.392.626.806.306.413.596.847.29.433.564.885.275.452.532.922.258.47.498.956t.462.987.426 1.018.389 1.044q.184.529.35 1.069t.31 1.09q.147.552.272 1.111.125.56.23 1.127t.19 1.14.148 1.153.105 1.16.064 1.166.021 1.17"/><path fill="none" stroke="#cfc295" stroke-linejoin="round" stroke-width="4.28571" d="M72.607 47.857q0 .585-.021 1.169t-.064 1.166-.105 1.16-.148 1.152-.19 1.141-.23 1.127-.271 1.11-.311 1.091-.35 1.07-.389 1.043-.426 1.018-.462.988-.498.955-.532.922-.564.886-.596.846-.626.807-.654.763-.681.72-.707.673-.73.625q-.37.301-.752.577-.381.275-.772.525-.39.25-.79.474t-.806.42q-.407.198-.82.368-.415.17-.834.312-.42.142-.843.256-.424.114-.852.2-.427.086-.857.143t-.862.086-.864.029-.864-.03-.862-.085-.857-.143-.852-.2-.843-.256q-.42-.142-.833-.312-.414-.17-.82-.367-.408-.197-.807-.42-.4-.225-.79-.475t-.772-.525-.752-.577-.73-.625-.707-.673q-.347-.349-.68-.72-.335-.37-.655-.763t-.626-.807-.596-.846-.564-.886-.532-.922q-.258-.47-.498-.955-.24-.487-.462-.988-.222-.502-.426-1.018-.204-.515-.389-1.044-.184-.529-.35-1.069t-.31-1.09q-.147-.551-.272-1.11-.125-.56-.23-1.128t-.19-1.14-.148-1.153-.105-1.16-.064-1.166-.021-1.169.021-1.169.064-1.166.105-1.16.148-1.152.19-1.141.23-1.127.271-1.11.311-1.091.35-1.069.389-1.044.426-1.018.462-.987.498-.956.532-.922.564-.885q.29-.434.596-.847.306-.414.626-.806t.654-.764.681-.72q.348-.348.707-.673.36-.325.73-.625t.752-.576.772-.526.79-.474.806-.42q.407-.198.82-.368.415-.17.834-.311.42-.142.843-.257.424-.114.852-.2.427-.085.857-.143t.862-.086.864-.028.864.028.862.086q.43.058.857.144.428.085.852.2.424.114.843.256.42.142.833.311.414.17.82.367.408.197.807.421t.79.474q.39.25.772.526.381.275.752.576.37.3.73.625t.707.674.68.719q.335.37.655.764.32.392.626.806.306.413.596.847.29.433.564.885.275.452.532.922.258.47.498.956t.462.987.426 1.018.389 1.044q.184.529.35 1.069t.31 1.09q.147.552.272 1.111.125.56.23 1.127t.19 1.14.148 1.153.105 1.16.064 1.166.021 1.17"/><path fill="none" stroke="#000" stroke-linejoin="round" stroke-width="2.4" d="M38.662 86.716V72.853h9.36v2.622h-6.24v2.72h5.537v2.559h-5.537v3.34h6.699v2.622zm14.458-5.6q0 2.5 2.022 2.5.459 0 .86-.118.4-.122.678-.283v-4.761q-.22-.04-.522-.068-.298-.03-.699-.03-1.181 0-1.762.782-.577.776-.577 1.977Zm6.539 4.281q0 2.578-1.31 3.828-1.308 1.25-4.047 1.25-.962 0-1.924-.17-.957-.171-1.777-.45l.517-2.5q.704.279 1.47.44.772.16 1.753.16 1.28 0 1.807-.56.532-.557.532-1.441v-.376q-.479.22-.991.332-.508.107-1.109.107-2.182 0-3.344-1.289-1.158-1.294-1.158-3.613 0-1.157.362-2.11.361-.951 1.05-1.63.688-.679 1.689-1.05t2.26-.371q.543 0 1.11.054.57.049 1.127.132.562.078 1.07.19.512.107.913.225zM65 81.115q0 2.5 2.022 2.5.459 0 .86-.117.4-.122.678-.283v-4.761q-.22-.04-.523-.068-.297-.03-.698-.03-1.181 0-1.762.782-.577.776-.577 1.977Zm6.538 4.282q0 2.578-1.308 3.828t-4.048 1.25q-.962 0-1.924-.17-.957-.171-1.777-.45l.517-2.5q.704.279 1.47.44.772.16 1.753.16 1.28 0 1.807-.56.532-.557.532-1.441v-.376q-.478.22-.991.332-.508.107-1.109.107-2.182 0-3.344-1.289-1.158-1.294-1.158-3.613 0-1.157.362-2.11.361-.951 1.05-1.63.688-.679 1.689-1.05t2.26-.371q.543 0 1.11.054.57.049 1.127.132.562.078 1.07.19.512.107.912.225z"/><path fill="#fff" d="M38.662 86.716V72.853h9.36v2.622h-6.24v2.72h5.537v2.559h-5.537v3.34h6.699v2.622zm14.458-5.6q0 2.5 2.022 2.5.459 0 .86-.118.4-.122.678-.283v-4.761q-.22-.04-.522-.068-.298-.03-.699-.03-1.181 0-1.762.782-.577.776-.577 1.977m6.539 4.281q0 2.578-1.31 3.828-1.308 1.25-4.047 1.25-.962 0-1.924-.17-.957-.171-1.777-.45l.517-2.5q.704.279 1.47.44.772.16 1.753.16 1.28 0 1.807-.56.532-.557.532-1.441v-.376q-.479.22-.991.332-.508.107-1.109.107-2.182 0-3.344-1.289-1.158-1.294-1.158-3.613 0-1.157.362-2.11.361-.951 1.05-1.63.688-.679 1.689-1.05t2.26-.371q.543 0 1.11.054.57.049 1.127.132.562.078 1.07.19.512.107.913.225zM65 81.115q0 2.5 2.022 2.5.459 0 .86-.117.4-.122.678-.283v-4.761q-.22-.04-.523-.068-.297-.03-.698-.03-1.181 0-1.762.782-.577.776-.577 1.977m6.538 4.282q0 2.578-1.308 3.828t-4.048 1.25q-.962 0-1.924-.17-.957-.171-1.777-.45l.517-2.5q.704.279 1.47.44.772.16 1.753.16 1.28 0 1.807-.56.532-.557.532-1.441v-.376q-.478.22-.991.332-.508.107-1.109.107-2.182 0-3.344-1.289-1.158-1.294-1.158-3.613 0-1.157.362-2.11.361-.951 1.05-1.63.688-.679 1.689-1.05t2.26-.371q.543 0 1.11.054.57.049 1.127.132.562.078 1.07.19.512.107.912.225z"/></svg>