<svg xmlns="http://www.w3.org/2000/svg" width="110" height="110"><path fill="#fff0b8" d="M73.214 47.857q0 .605-.022 1.21-.022.603-.065 1.206-.044.602-.11 1.2-.065.598-.153 1.192-.087.593-.196 1.18-.108.587-.238 1.166-.13.578-.28 1.148t-.322 1.129-.362 1.105q-.192.547-.402 1.08-.211.534-.441 1.053t-.478 1.022-.515.989-.55.953-.584.916q-.3.449-.617.876-.316.428-.647.834-.331.407-.677.79t-.705.744q-.359.36-.73.697-.372.336-.756.647-.384.31-.778.596-.394.285-.798.544-.405.259-.818.49-.413.232-.834.435-.42.204-.849.38-.428.175-.861.322-.434.147-.873.265-.438.119-.88.207-.443.089-.888.148-.445.06-.891.09-.447.029-.894.029t-.894-.03q-.446-.03-.891-.089-.445-.06-.888-.148-.442-.088-.88-.207-.439-.118-.873-.265-.433-.147-.861-.322t-.85-.38-.833-.435-.818-.49-.798-.544q-.394-.285-.778-.596t-.755-.647-.731-.697-.705-.744-.677-.79-.647-.834q-.317-.427-.617-.876-.3-.448-.584-.916-.283-.467-.55-.953-.266-.486-.515-.99-.248-.502-.478-1.021t-.44-1.052q-.211-.534-.403-1.08-.19-.548-.362-1.106-.17-.56-.322-1.129-.15-.57-.28-1.148-.13-.58-.238-1.166-.11-.587-.196-1.18-.088-.594-.153-1.192-.066-.598-.11-1.2-.043-.603-.065-1.207t-.022-1.209.022-1.21.065-1.205q.044-.602.11-1.2.065-.6.153-1.192.087-.594.196-1.18.108-.587.238-1.166.13-.58.28-1.149t.322-1.128.362-1.106q.192-.547.402-1.08.211-.534.441-1.053t.478-1.022.515-.989.55-.953.584-.916.617-.876.647-.834.677-.79.705-.744.73-.697.756-.647.778-.596.798-.544q.405-.258.818-.49t.834-.435q.42-.204.849-.38.428-.175.861-.322.434-.147.873-.265.438-.118.88-.207.443-.089.888-.148.445-.06.891-.089.447-.03.894-.03t.894.03q.446.03.891.089.445.06.888.148.442.089.88.207.439.118.873.265.433.147.861.322t.85.38.833.435.818.49.798.544q.394.285.778.596t.755.647.731.697.705.744.677.79.647.834q.317.428.617.876t.584.916q.283.468.55.953.266.486.515.99.248.502.478 1.021t.44 1.053.403 1.08q.19.547.362 1.106.17.559.322 1.128.15.57.28 1.149t.238 1.165q.11.587.196 1.18.088.594.153 1.192.066.599.11 1.2.043.603.065 1.207t.022 1.21"/><path fill="none" stroke="#cfc295" stroke-linejoin="round" stroke-width="4.28571" d="M73.214 47.857q0 .605-.022 1.21-.022.603-.065 1.206-.044.602-.11 1.2-.065.598-.153 1.192-.087.593-.196 1.18-.108.587-.238 1.166-.13.578-.28 1.148t-.322 1.129-.362 1.105q-.192.547-.402 1.08-.211.534-.441 1.053t-.478 1.022-.515.989-.55.953-.584.916q-.3.449-.617.876-.316.428-.647.834-.331.407-.677.79t-.705.744q-.359.36-.73.697-.372.336-.756.647-.384.31-.778.596-.394.285-.798.544-.405.259-.818.49-.413.232-.834.435-.42.204-.849.38-.428.175-.861.322-.434.147-.873.265-.438.119-.88.207-.443.089-.888.148-.445.06-.891.09-.447.029-.894.029t-.894-.03q-.446-.03-.891-.089-.445-.06-.888-.148-.442-.088-.88-.207-.439-.118-.873-.265-.433-.147-.861-.322t-.85-.38-.833-.435-.818-.49-.798-.544q-.394-.285-.778-.596t-.755-.647-.731-.697-.705-.744-.677-.79-.647-.834q-.317-.427-.617-.876-.3-.448-.584-.916-.283-.467-.55-.953-.266-.486-.515-.99-.248-.502-.478-1.021t-.44-1.052q-.211-.534-.403-1.08-.19-.548-.362-1.106-.17-.56-.322-1.129-.15-.57-.28-1.148-.13-.58-.238-1.166-.11-.587-.196-1.18-.088-.594-.153-1.192-.066-.598-.11-1.2-.043-.603-.065-1.207t-.022-1.209.022-1.21.065-1.205q.044-.602.11-1.2.065-.6.153-1.192.087-.594.196-1.18.108-.587.238-1.166.13-.58.28-1.149t.322-1.128.362-1.106q.192-.547.402-1.08.211-.534.441-1.053t.478-1.022.515-.989.55-.953.584-.916.617-.876.647-.834.677-.79.705-.744.73-.697.756-.647.778-.596.798-.544q.405-.258.818-.49t.834-.435q.42-.204.849-.38.428-.175.861-.322.434-.147.873-.265.438-.118.88-.207.443-.089.888-.148.445-.06.891-.089.447-.03.894-.03t.894.03q.446.03.891.089.445.06.888.148.442.089.88.207.439.118.873.265.433.147.861.322t.85.38.833.435.818.49.798.544q.394.285.778.596t.755.647.731.697.705.744.677.79.647.834q.317.428.617.876t.584.916q.283.468.55.953.266.486.515.99.248.502.478 1.021t.44 1.053.403 1.08q.19.547.362 1.106.17.559.322 1.128.15.57.28 1.149t.238 1.165q.11.587.196 1.18.088.594.153 1.192.066.599.11 1.2.043.603.065 1.207t.022 1.21"/><path fill="none" stroke="#000" stroke-linejoin="round" stroke-width="2.4" d="M38.662 86.716V72.853h9.36v2.622h-6.24v2.72h5.537v2.559h-5.537v3.34h6.699v2.622zm14.458-5.6q0 2.5 2.022 2.5.459 0 .86-.118.4-.122.678-.283v-4.761q-.22-.04-.522-.068-.298-.03-.699-.03-1.181 0-1.762.782-.577.776-.577 1.977Zm6.539 4.281q0 2.578-1.31 3.828-1.308 1.25-4.047 1.25-.962 0-1.924-.17-.957-.171-1.777-.45l.517-2.5q.704.279 1.47.44.772.16 1.753.16 1.28 0 1.807-.56.532-.557.532-1.441v-.376q-.479.22-.991.332-.508.107-1.109.107-2.182 0-3.344-1.289-1.158-1.294-1.158-3.613 0-1.157.362-2.11.361-.951 1.05-1.63.688-.679 1.689-1.05t2.26-.371q.543 0 1.11.054.57.049 1.127.132.562.078 1.07.19.512.107.913.225zM65 81.115q0 2.5 2.022 2.5.459 0 .86-.117.4-.122.678-.283v-4.761q-.22-.04-.523-.068-.297-.03-.698-.03-1.181 0-1.762.782-.577.776-.577 1.977Zm6.538 4.282q0 2.578-1.308 3.828t-4.048 1.25q-.962 0-1.924-.17-.957-.171-1.777-.45l.517-2.5q.704.279 1.47.44.772.16 1.753.16 1.28 0 1.807-.56.532-.557.532-1.441v-.376q-.478.22-.991.332-.508.107-1.109.107-2.182 0-3.344-1.289-1.158-1.294-1.158-3.613 0-1.157.362-2.11.361-.951 1.05-1.63.688-.679 1.689-1.05t2.26-.371q.543 0 1.11.054.57.049 1.127.132.562.078 1.07.19.512.107.912.225z"/><path fill="#fff" d="M38.662 86.716V72.853h9.36v2.622h-6.24v2.72h5.537v2.559h-5.537v3.34h6.699v2.622zm14.458-5.6q0 2.5 2.022 2.5.459 0 .86-.118.4-.122.678-.283v-4.761q-.22-.04-.522-.068-.298-.03-.699-.03-1.181 0-1.762.782-.577.776-.577 1.977m6.539 4.281q0 2.578-1.31 3.828-1.308 1.25-4.047 1.25-.962 0-1.924-.17-.957-.171-1.777-.45l.517-2.5q.704.279 1.47.44.772.16 1.753.16 1.28 0 1.807-.56.532-.557.532-1.441v-.376q-.479.22-.991.332-.508.107-1.109.107-2.182 0-3.344-1.289-1.158-1.294-1.158-3.613 0-1.157.362-2.11.361-.951 1.05-1.63.688-.679 1.689-1.05t2.26-.371q.543 0 1.11.054.57.049 1.127.132.562.078 1.07.19.512.107.913.225zM65 81.115q0 2.5 2.022 2.5.459 0 .86-.117.4-.122.678-.283v-4.761q-.22-.04-.523-.068-.297-.03-.698-.03-1.181 0-1.762.782-.577.776-.577 1.977m6.538 4.282q0 2.578-1.308 3.828t-4.048 1.25q-.962 0-1.924-.17-.957-.171-1.777-.45l.517-2.5q.704.279 1.47.44.772.16 1.753.16 1.28 0 1.807-.56.532-.557.532-1.441v-.376q-.478.22-.991.332-.508.107-1.109.107-2.182 0-3.344-1.289-1.158-1.294-1.158-3.613 0-1.157.362-2.11.361-.951 1.05-1.63.688-.679 1.689-1.05t2.26-.371q.543 0 1.11.054.57.049 1.127.132.562.078 1.07.19.512.107.912.225z"/></svg>