<svg xmlns="http://www.w3.org/2000/svg" width="110" height="110"><path fill="#fff0b8" d="M75.643 47.857q0 .686-.025 1.37-.025.685-.075 1.368-.05.682-.124 1.36t-.173 1.35-.222 1.338-.27 1.321-.318 1.302-.364 1.279-.411 1.253-.456 1.225-.499 1.192-.542 1.158-.584 1.121-.623 1.08-.662 1.039-.698.993-.734.945-.767.895-.8.844-.827.789-.856.733-.882.676-.905.616-.926.556-.946.493-.962.43q-.485.2-.976.366-.492.166-.989.3t-.998.234-1.006.168-1.01.101q-.506.034-1.013.034t-1.013-.034-1.01-.1-1.006-.169-.998-.234-.989-.3-.976-.366-.962-.43-.946-.493-.926-.556-.905-.616-.882-.676-.856-.733q-.42-.381-.828-.79-.407-.408-.799-.843-.391-.435-.767-.895-.375-.46-.734-.945-.358-.485-.698-.993t-.662-1.038-.623-1.08q-.302-.552-.584-1.122t-.542-1.158q-.26-.588-.5-1.192-.238-.605-.455-1.225t-.41-1.253-.365-1.28q-.17-.645-.318-1.3-.147-.657-.27-1.322t-.222-1.337q-.1-.673-.173-1.35-.075-.68-.124-1.361-.05-.683-.075-1.368-.025-.684-.025-1.37t.025-1.37q.025-.685.075-1.367.05-.683.124-1.36.074-.68.173-1.351.099-.673.222-1.338t.27-1.321.318-1.302.364-1.279q.194-.633.411-1.253t.456-1.224.499-1.193.542-1.158.584-1.12.623-1.082.662-1.038.698-.992q.359-.485.734-.946.376-.46.767-.895.392-.435.8-.843.406-.409.827-.79.422-.38.856-.733.435-.352.882-.676.447-.323.905-.616t.926-.555.946-.494q.477-.23.962-.43t.976-.365q.492-.167.989-.3.497-.135.998-.235t1.006-.168q.504-.067 1.01-.1.506-.034 1.013-.034t1.013.033 1.01.101 1.006.168.998.234.989.3.976.366.962.43.946.494.926.555.905.616.882.676.856.733q.42.381.828.79.407.408.799.843.391.435.767.895.375.46.734.946.358.484.698.992t.662 1.038.623 1.081q.302.55.584 1.12t.542 1.159.5 1.193q.238.604.455 1.224t.41 1.253q.194.634.365 1.28.17.645.318 1.3.147.657.27 1.322t.222 1.338q.1.672.173 1.35.075.678.124 1.36.05.683.075 1.368.025.684.025 1.37"/><path fill="none" stroke="#cfc295" stroke-linejoin="round" stroke-width="4.28571" d="M75.643 47.857q0 .686-.025 1.37-.025.685-.075 1.368-.05.682-.124 1.36t-.173 1.35-.222 1.338-.27 1.321-.318 1.302-.364 1.279-.411 1.253-.456 1.225-.499 1.192-.542 1.158-.584 1.121-.623 1.08-.662 1.039-.698.993-.734.945-.767.895-.8.844-.827.789-.856.733-.882.676-.905.616-.926.556-.946.493-.962.43q-.485.2-.976.366-.492.166-.989.3t-.998.234-1.006.168-1.01.101q-.506.034-1.013.034t-1.013-.034-1.01-.1-1.006-.169-.998-.234-.989-.3-.976-.366-.962-.43-.946-.493-.926-.556-.905-.616-.882-.676-.856-.733q-.42-.381-.828-.79-.407-.408-.799-.843-.391-.435-.767-.895-.375-.46-.734-.945-.358-.485-.698-.993t-.662-1.038-.623-1.08q-.302-.552-.584-1.122t-.542-1.158q-.26-.588-.5-1.192-.238-.605-.455-1.225t-.41-1.253-.365-1.28q-.17-.645-.318-1.3-.147-.657-.27-1.322t-.222-1.337q-.1-.673-.173-1.35-.075-.68-.124-1.361-.05-.683-.075-1.368-.025-.684-.025-1.37t.025-1.37q.025-.685.075-1.367.05-.683.124-1.36.074-.68.173-1.351.099-.673.222-1.338t.27-1.321.318-1.302.364-1.279q.194-.633.411-1.253t.456-1.224.499-1.193.542-1.158.584-1.12.623-1.082.662-1.038.698-.992q.359-.485.734-.946.376-.46.767-.895.392-.435.8-.843.406-.409.827-.79.422-.38.856-.733.435-.352.882-.676.447-.323.905-.616t.926-.555.946-.494q.477-.23.962-.43t.976-.365q.492-.167.989-.3.497-.135.998-.235t1.006-.168q.504-.067 1.01-.1.506-.034 1.013-.034t1.013.033 1.01.101 1.006.168.998.234.989.3.976.366.962.43.946.494.926.555.905.616.882.676.856.733q.42.381.828.79.407.408.799.843.391.435.767.895.375.46.734.946.358.484.698.992t.662 1.038.623 1.081q.302.55.584 1.12t.542 1.159.5 1.193q.238.604.455 1.224t.41 1.253q.194.634.365 1.28.17.645.318 1.3.147.657.27 1.322t.222 1.338q.1.672.173 1.35.075.678.124 1.36.05.683.075 1.368.025.684.025 1.37"/><path fill="none" stroke="#000" stroke-linejoin="round" stroke-width="2.4" d="M38.662 86.716V72.853h9.36v2.622h-6.24v2.72h5.537v2.559h-5.537v3.34h6.699v2.622zm14.458-5.6q0 2.5 2.022 2.5.459 0 .86-.118.4-.122.678-.283v-4.761q-.22-.04-.522-.068-.298-.03-.699-.03-1.181 0-1.762.782-.577.776-.577 1.977Zm6.539 4.281q0 2.578-1.31 3.828-1.308 1.25-4.047 1.25-.962 0-1.924-.17-.957-.171-1.777-.45l.517-2.5q.704.279 1.47.44.772.16 1.753.16 1.28 0 1.807-.56.532-.557.532-1.441v-.376q-.479.22-.991.332-.508.107-1.109.107-2.182 0-3.344-1.289-1.158-1.294-1.158-3.613 0-1.157.362-2.11.361-.951 1.05-1.63.688-.679 1.689-1.05t2.26-.371q.543 0 1.11.054.57.049 1.127.132.562.078 1.07.19.512.107.913.225zM65 81.115q0 2.5 2.022 2.5.459 0 .86-.117.4-.122.678-.283v-4.761q-.22-.04-.523-.068-.297-.03-.698-.03-1.181 0-1.762.782-.577.776-.577 1.977Zm6.538 4.282q0 2.578-1.308 3.828t-4.048 1.25q-.962 0-1.924-.17-.957-.171-1.777-.45l.517-2.5q.704.279 1.47.44.772.16 1.753.16 1.28 0 1.807-.56.532-.557.532-1.441v-.376q-.478.22-.991.332-.508.107-1.109.107-2.182 0-3.344-1.289-1.158-1.294-1.158-3.613 0-1.157.362-2.11.361-.951 1.05-1.63.688-.679 1.689-1.05t2.26-.371q.543 0 1.11.054.57.049 1.127.132.562.078 1.07.19.512.107.912.225z"/><path fill="#fff" d="M38.662 86.716V72.853h9.36v2.622h-6.24v2.72h5.537v2.559h-5.537v3.34h6.699v2.622zm14.458-5.6q0 2.5 2.022 2.5.459 0 .86-.118.4-.122.678-.283v-4.761q-.22-.04-.522-.068-.298-.03-.699-.03-1.181 0-1.762.782-.577.776-.577 1.977m6.539 4.281q0 2.578-1.31 3.828-1.308 1.25-4.047 1.25-.962 0-1.924-.17-.957-.171-1.777-.45l.517-2.5q.704.279 1.47.44.772.16 1.753.16 1.28 0 1.807-.56.532-.557.532-1.441v-.376q-.479.22-.991.332-.508.107-1.109.107-2.182 0-3.344-1.289-1.158-1.294-1.158-3.613 0-1.157.362-2.11.361-.951 1.05-1.63.688-.679 1.689-1.05t2.26-.371q.543 0 1.11.054.57.049 1.127.132.562.078 1.07.19.512.107.913.225zM65 81.115q0 2.5 2.022 2.5.459 0 .86-.117.4-.122.678-.283v-4.761q-.22-.04-.523-.068-.297-.03-.698-.03-1.181 0-1.762.782-.577.776-.577 1.977m6.538 4.282q0 2.578-1.308 3.828t-4.048 1.25q-.962 0-1.924-.17-.957-.171-1.777-.45l.517-2.5q.704.279 1.47.44.772.16 1.753.16 1.28 0 1.807-.56.532-.557.532-1.441v-.376q-.478.22-.991.332-.508.107-1.109.107-2.182 0-3.344-1.289-1.158-1.294-1.158-3.613 0-1.157.362-2.11.361-.951 1.05-1.63.688-.679 1.689-1.05t2.26-.371q.543 0 1.11.054.57.049 1.127.132.562.078 1.07.19.512.107.912.225z"/></svg>