<svg xmlns="http://www.w3.org/2000/svg" width="110" height="110"><path fill="#fff0b8" d="M73.821 47.857q0 .625-.022 1.25-.023.624-.068 1.246t-.113 1.24q-.068.619-.158 1.232t-.203 1.22q-.112.606-.246 1.204t-.29 1.187-.332 1.166-.375 1.142q-.197.566-.415 1.117t-.455 1.087q-.238.537-.495 1.056-.256.52-.531 1.022-.276.502-.569.986-.293.483-.603.946t-.637.905-.67.862-.699.816-.728.77-.755.719-.78.669q-.397.32-.805.616-.407.294-.825.562-.417.267-.844.506-.427.24-.862.45t-.877.392q-.443.181-.89.333-.449.152-.902.274t-.91.214-.917.153q-.46.061-.921.092-.462.03-.924.03t-.924-.03q-.461-.03-.92-.092-.46-.061-.918-.153-.457-.092-.91-.214t-.901-.274-.89-.333-.878-.392-.862-.45q-.427-.24-.844-.506-.418-.268-.825-.562-.408-.295-.804-.616-.396-.322-.78-.67-.385-.346-.756-.719-.371-.372-.728-.769-.357-.396-.7-.816t-.669-.862-.637-.905-.603-.946q-.293-.484-.569-.986t-.531-1.022-.495-1.056-.455-1.087-.415-1.117-.375-1.142-.332-1.166q-.156-.589-.29-1.187t-.246-1.205-.203-1.22-.158-1.23-.113-1.241-.068-1.246q-.022-.625-.022-1.25t.022-1.25.068-1.246.113-1.24.158-1.232.203-1.22q.112-.606.246-1.204t.29-1.187.332-1.166.375-1.142.415-1.117.455-1.087.495-1.056q.256-.52.531-1.022.276-.502.569-.985t.603-.947.637-.905.67-.862q.342-.42.699-.816.357-.397.728-.769t.755-.72.78-.668.805-.616.825-.562.844-.507.862-.45.877-.392q.443-.181.89-.333.449-.152.902-.274t.91-.214.917-.153q.46-.06.921-.091.462-.031.924-.031t.924.03q.461.031.92.092.46.062.918.153.457.092.91.214t.901.274.89.333.878.392.862.45q.427.24.844.507.418.267.825.562.408.294.804.616.396.321.78.668.385.348.756.72t.728.769.7.816q.342.42.669.862.326.442.637.905.31.464.603.947t.569.985q.275.502.531 1.022.257.52.495 1.056.237.536.455 1.087.218.552.415 1.117.198.565.375 1.142.177.578.332 1.166.156.589.29 1.187t.246 1.205.203 1.22.158 1.23q.068.62.113 1.241t.068 1.247q.022.624.022 1.25"/><path fill="none" stroke="#cfc295" stroke-linejoin="round" stroke-width="4.28571" d="M73.821 47.857q0 .625-.022 1.25-.023.624-.068 1.246t-.113 1.24q-.068.619-.158 1.232t-.203 1.22q-.112.606-.246 1.204t-.29 1.187-.332 1.166-.375 1.142q-.197.566-.415 1.117t-.455 1.087q-.238.537-.495 1.056-.256.52-.531 1.022-.276.502-.569.986-.293.483-.603.946t-.637.905-.67.862-.699.816-.728.77-.755.719-.78.669q-.397.32-.805.616-.407.294-.825.562-.417.267-.844.506-.427.24-.862.45t-.877.392q-.443.181-.89.333-.449.152-.902.274t-.91.214-.917.153q-.46.061-.921.092-.462.03-.924.03t-.924-.03q-.461-.03-.92-.092-.46-.061-.918-.153-.457-.092-.91-.214t-.901-.274-.89-.333-.878-.392-.862-.45q-.427-.24-.844-.506-.418-.268-.825-.562-.408-.295-.804-.616-.396-.322-.78-.67-.385-.346-.756-.719-.371-.372-.728-.769-.357-.396-.7-.816t-.669-.862-.637-.905-.603-.946q-.293-.484-.569-.986t-.531-1.022-.495-1.056-.455-1.087-.415-1.117-.375-1.142-.332-1.166q-.156-.589-.29-1.187t-.246-1.205-.203-1.22-.158-1.23-.113-1.241-.068-1.246q-.022-.625-.022-1.25t.022-1.25.068-1.246.113-1.24.158-1.232.203-1.22q.112-.606.246-1.204t.29-1.187.332-1.166.375-1.142.415-1.117.455-1.087.495-1.056q.256-.52.531-1.022.276-.502.569-.985t.603-.947.637-.905.67-.862q.342-.42.699-.816.357-.397.728-.769t.755-.72.78-.668.805-.616.825-.562.844-.507.862-.45.877-.392q.443-.181.89-.333.449-.152.902-.274t.91-.214.917-.153q.46-.06.921-.091.462-.031.924-.031t.924.03q.461.031.92.092.46.062.918.153.457.092.91.214t.901.274.89.333.878.392.862.45q.427.24.844.507.418.267.825.562.408.294.804.616.396.321.78.668.385.348.756.72t.728.769.7.816q.342.42.669.862.326.442.637.905.31.464.603.947t.569.985q.275.502.531 1.022.257.52.495 1.056.237.536.455 1.087.218.552.415 1.117.198.565.375 1.142.177.578.332 1.166.156.589.29 1.187t.246 1.205.203 1.22.158 1.23q.068.62.113 1.241t.068 1.247q.022.624.022 1.25"/><path fill="none" stroke="#000" stroke-linejoin="round" stroke-width="2.4" d="M38.662 86.716V72.853h9.36v2.622h-6.24v2.72h5.537v2.559h-5.537v3.34h6.699v2.622zm14.458-5.6q0 2.5 2.022 2.5.459 0 .86-.118.4-.122.678-.283v-4.761q-.22-.04-.522-.068-.298-.03-.699-.03-1.181 0-1.762.782-.577.776-.577 1.977Zm6.539 4.281q0 2.578-1.31 3.828-1.308 1.25-4.047 1.25-.962 0-1.924-.17-.957-.171-1.777-.45l.517-2.5q.704.279 1.47.44.772.16 1.753.16 1.28 0 1.807-.56.532-.557.532-1.441v-.376q-.479.22-.991.332-.508.107-1.109.107-2.182 0-3.344-1.289-1.158-1.294-1.158-3.613 0-1.157.362-2.11.361-.951 1.05-1.63.688-.679 1.689-1.05t2.26-.371q.543 0 1.11.054.57.049 1.127.132.562.078 1.07.19.512.107.913.225zM65 81.115q0 2.5 2.022 2.5.459 0 .86-.117.4-.122.678-.283v-4.761q-.22-.04-.523-.068-.297-.03-.698-.03-1.181 0-1.762.782-.577.776-.577 1.977Zm6.538 4.282q0 2.578-1.308 3.828t-4.048 1.25q-.962 0-1.924-.17-.957-.171-1.777-.45l.517-2.5q.704.279 1.47.44.772.16 1.753.16 1.28 0 1.807-.56.532-.557.532-1.441v-.376q-.478.22-.991.332-.508.107-1.109.107-2.182 0-3.344-1.289-1.158-1.294-1.158-3.613 0-1.157.362-2.11.361-.951 1.05-1.63.688-.679 1.689-1.05t2.26-.371q.543 0 1.11.054.57.049 1.127.132.562.078 1.07.19.512.107.912.225z"/><path fill="#fff" d="M38.662 86.716V72.853h9.36v2.622h-6.24v2.72h5.537v2.559h-5.537v3.34h6.699v2.622zm14.458-5.6q0 2.5 2.022 2.5.459 0 .86-.118.4-.122.678-.283v-4.761q-.22-.04-.522-.068-.298-.03-.699-.03-1.181 0-1.762.782-.577.776-.577 1.977m6.539 4.281q0 2.578-1.31 3.828-1.308 1.25-4.047 1.25-.962 0-1.924-.17-.957-.171-1.777-.45l.517-2.5q.704.279 1.47.44.772.16 1.753.16 1.28 0 1.807-.56.532-.557.532-1.441v-.376q-.479.22-.991.332-.508.107-1.109.107-2.182 0-3.344-1.289-1.158-1.294-1.158-3.613 0-1.157.362-2.11.361-.951 1.05-1.63.688-.679 1.689-1.05t2.26-.371q.543 0 1.11.054.57.049 1.127.132.562.078 1.07.19.512.107.913.225zM65 81.115q0 2.5 2.022 2.5.459 0 .86-.117.4-.122.678-.283v-4.761q-.22-.04-.523-.068-.297-.03-.698-.03-1.181 0-1.762.782-.577.776-.577 1.977m6.538 4.282q0 2.578-1.308 3.828t-4.048 1.25q-.962 0-1.924-.17-.957-.171-1.777-.45l.517-2.5q.704.279 1.47.44.772.16 1.753.16 1.28 0 1.807-.56.532-.557.532-1.441v-.376q-.478.22-.991.332-.508.107-1.109.107-2.182 0-3.344-1.289-1.158-1.294-1.158-3.613 0-1.157.362-2.11.361-.951 1.05-1.63.688-.679 1.689-1.05t2.26-.371q.543 0 1.11.054.57.049 1.127.132.562.078 1.07.19.512.107.912.225z"/></svg>