<svg xmlns="http://www.w3.org/2000/svg" width="110" height="110"><path fill="#fff0b8" d="M75.036 47.857q0 .666-.024 1.33-.025.665-.073 1.327t-.12 1.32q-.072.659-.168 1.311-.096.653-.216 1.299t-.262 1.282-.308 1.263-.354 1.242q-.189.614-.399 1.216-.21.601-.442 1.188t-.485 1.158-.526 1.124-.566 1.088-.605 1.049-.643 1.007-.678.964q-.347.47-.712.917-.364.447-.744.87-.38.421-.776.818-.395.396-.804.766t-.83.712-.856.656-.879.598-.899.539-.917.479-.934.417-.948.355-.96.291-.968.228-.976.163-.98.098-.984.032-.983-.032-.98-.098-.977-.163-.969-.228-.96-.291q-.476-.162-.947-.355-.47-.193-.934-.417-.463-.224-.917-.48-.455-.254-.9-.538-.444-.285-.878-.598-.434-.314-.855-.656-.422-.342-.831-.712-.41-.37-.804-.766-.395-.397-.776-.819-.38-.422-.744-.869-.365-.447-.712-.917-.348-.47-.678-.964-.33-.493-.643-1.007-.312-.515-.605-1.05-.293-.534-.566-1.087t-.526-1.124-.485-1.158-.442-1.188q-.21-.602-.399-1.216-.188-.615-.354-1.242-.165-.626-.308-1.263t-.262-1.282q-.12-.646-.216-1.299t-.168-1.31-.12-1.32q-.048-.663-.073-1.328-.024-.664-.024-1.33 0-.665.024-1.33.025-.665.073-1.327t.12-1.32q.072-.659.168-1.311.096-.653.216-1.298.12-.646.262-1.283t.308-1.263.354-1.241q.189-.615.399-1.217.21-.601.442-1.188t.485-1.158.526-1.124.566-1.088.605-1.048.643-1.008.678-.964q.347-.47.712-.917.364-.447.744-.869t.776-.819.804-.766.83-.711.856-.656.879-.598.899-.54.917-.478.934-.418q.47-.193.948-.355.477-.161.96-.291.482-.13.968-.228.487-.097.976-.162.49-.066.98-.098.492-.033.984-.033t.983.033.98.098q.49.065.977.162.486.098.969.228.482.13.96.291.476.162.947.355.47.193.934.418.463.224.917.478.455.255.9.54.444.284.878.598.434.313.855.656.422.342.831.711.41.37.804.766.395.397.776.819.38.422.744.87.365.446.712.916.348.471.678.964t.643 1.008.605 1.048.566 1.088.526 1.124.485 1.158.442 1.188.399 1.217q.188.614.354 1.241t.308 1.263q.143.637.262 1.283t.216 1.298.168 1.31.12 1.321.073 1.327.024 1.33"/><path fill="none" stroke="#cfc295" stroke-linejoin="round" stroke-width="4.28571" d="M75.036 47.857q0 .666-.024 1.33-.025.665-.073 1.327t-.12 1.32q-.072.659-.168 1.311-.096.653-.216 1.299t-.262 1.282-.308 1.263-.354 1.242q-.189.614-.399 1.216-.21.601-.442 1.188t-.485 1.158-.526 1.124-.566 1.088-.605 1.049-.643 1.007-.678.964q-.347.47-.712.917-.364.447-.744.87-.38.421-.776.818-.395.396-.804.766t-.83.712-.856.656-.879.598-.899.539-.917.479-.934.417-.948.355-.96.291-.968.228-.976.163-.98.098-.984.032-.983-.032-.98-.098-.977-.163-.969-.228-.96-.291q-.476-.162-.947-.355-.47-.193-.934-.417-.463-.224-.917-.48-.455-.254-.9-.538-.444-.285-.878-.598-.434-.314-.855-.656-.422-.342-.831-.712-.41-.37-.804-.766-.395-.397-.776-.819-.38-.422-.744-.869-.365-.447-.712-.917-.348-.47-.678-.964-.33-.493-.643-1.007-.312-.515-.605-1.05-.293-.534-.566-1.087t-.526-1.124-.485-1.158-.442-1.188q-.21-.602-.399-1.216-.188-.615-.354-1.242-.165-.626-.308-1.263t-.262-1.282q-.12-.646-.216-1.299t-.168-1.31-.12-1.32q-.048-.663-.073-1.328-.024-.664-.024-1.33 0-.665.024-1.33.025-.665.073-1.327t.12-1.32q.072-.659.168-1.311.096-.653.216-1.298.12-.646.262-1.283t.308-1.263.354-1.241q.189-.615.399-1.217.21-.601.442-1.188t.485-1.158.526-1.124.566-1.088.605-1.048.643-1.008.678-.964q.347-.47.712-.917.364-.447.744-.869t.776-.819.804-.766.83-.711.856-.656.879-.598.899-.54.917-.478.934-.418q.47-.193.948-.355.477-.161.96-.291.482-.13.968-.228.487-.097.976-.162.49-.066.98-.098.492-.033.984-.033t.983.033.98.098q.49.065.977.162.486.098.969.228.482.13.96.291.476.162.947.355.47.193.934.418.463.224.917.478.455.255.9.54.444.284.878.598.434.313.855.656.422.342.831.711.41.37.804.766.395.397.776.819.38.422.744.87.365.446.712.916.348.471.678.964t.643 1.008.605 1.048.566 1.088.526 1.124.485 1.158.442 1.188.399 1.217q.188.614.354 1.241t.308 1.263q.143.637.262 1.283t.216 1.298.168 1.31.12 1.321.073 1.327.024 1.33"/><path fill="none" stroke="#000" stroke-linejoin="round" stroke-width="2.4" d="M38.662 86.716V72.853h9.36v2.622h-6.24v2.72h5.537v2.559h-5.537v3.34h6.699v2.622zm14.458-5.6q0 2.5 2.022 2.5.459 0 .86-.118.4-.122.678-.283v-4.761q-.22-.04-.522-.068-.298-.03-.699-.03-1.181 0-1.762.782-.577.776-.577 1.977Zm6.539 4.281q0 2.578-1.31 3.828-1.308 1.25-4.047 1.25-.962 0-1.924-.17-.957-.171-1.777-.45l.517-2.5q.704.279 1.47.44.772.16 1.753.16 1.28 0 1.807-.56.532-.557.532-1.441v-.376q-.479.22-.991.332-.508.107-1.109.107-2.182 0-3.344-1.289-1.158-1.294-1.158-3.613 0-1.157.362-2.11.361-.951 1.05-1.63.688-.679 1.689-1.05t2.26-.371q.543 0 1.11.054.57.049 1.127.132.562.078 1.07.19.512.107.913.225zM65 81.115q0 2.5 2.022 2.5.459 0 .86-.117.4-.122.678-.283v-4.761q-.22-.04-.523-.068-.297-.03-.698-.03-1.181 0-1.762.782-.577.776-.577 1.977Zm6.538 4.282q0 2.578-1.308 3.828t-4.048 1.25q-.962 0-1.924-.17-.957-.171-1.777-.45l.517-2.5q.704.279 1.47.44.772.16 1.753.16 1.28 0 1.807-.56.532-.557.532-1.441v-.376q-.478.22-.991.332-.508.107-1.109.107-2.182 0-3.344-1.289-1.158-1.294-1.158-3.613 0-1.157.362-2.11.361-.951 1.05-1.63.688-.679 1.689-1.05t2.26-.371q.543 0 1.11.054.57.049 1.127.132.562.078 1.07.19.512.107.912.225z"/><path fill="#fff" d="M38.662 86.716V72.853h9.36v2.622h-6.24v2.72h5.537v2.559h-5.537v3.34h6.699v2.622zm14.458-5.6q0 2.5 2.022 2.5.459 0 .86-.118.4-.122.678-.283v-4.761q-.22-.04-.522-.068-.298-.03-.699-.03-1.181 0-1.762.782-.577.776-.577 1.977m6.539 4.281q0 2.578-1.31 3.828-1.308 1.25-4.047 1.25-.962 0-1.924-.17-.957-.171-1.777-.45l.517-2.5q.704.279 1.47.44.772.16 1.753.16 1.28 0 1.807-.56.532-.557.532-1.441v-.376q-.479.22-.991.332-.508.107-1.109.107-2.182 0-3.344-1.289-1.158-1.294-1.158-3.613 0-1.157.362-2.11.361-.951 1.05-1.63.688-.679 1.689-1.05t2.26-.371q.543 0 1.11.054.57.049 1.127.132.562.078 1.07.19.512.107.913.225zM65 81.115q0 2.5 2.022 2.5.459 0 .86-.117.4-.122.678-.283v-4.761q-.22-.04-.523-.068-.297-.03-.698-.03-1.181 0-1.762.782-.577.776-.577 1.977m6.538 4.282q0 2.578-1.308 3.828t-4.048 1.25q-.962 0-1.924-.17-.957-.171-1.777-.45l.517-2.5q.704.279 1.47.44.772.16 1.753.16 1.28 0 1.807-.56.532-.557.532-1.441v-.376q-.478.22-.991.332-.508.107-1.109.107-2.182 0-3.344-1.289-1.158-1.294-1.158-3.613 0-1.157.362-2.11.361-.951 1.05-1.63.688-.679 1.689-1.05t2.26-.371q.543 0 1.11.054.57.049 1.127.132.562.078 1.07.19.512.107.912.225z"/></svg>