<svg xmlns="http://www.w3.org/2000/svg" width="110" height="110"><path fill="#fff" d="m42.782 26.53 28.429 2.853-3.993 39.8-28.429-2.852z"/><path fill="#cfcfcf" d="m36.657 66.117 3.993-39.8q.01-.105.031-.208t.052-.204.071-.198.09-.19q.05-.092.109-.18.059-.087.125-.169.067-.08.142-.155.074-.074.156-.141.081-.067.17-.125.087-.058.18-.108t.19-.09.198-.07q.1-.03.204-.05t.208-.031.21-.01.21.01l28.429 2.853q.105.01.208.031t.204.052.198.071.19.09q.092.05.18.109.087.058.168.125t.156.142.141.156q.067.081.125.169t.108.18.09.19.07.199.05.204.03.208.01.21-.01.21l-3.993 39.8q-.01.105-.031.208t-.052.204-.071.198-.09.19-.109.18-.125.169-.142.155q-.074.075-.156.141-.081.067-.17.125-.087.059-.18.108-.093.05-.19.09t-.198.07-.204.05q-.103.021-.208.031t-.21.01q-.106 0-.21-.01l-28.429-2.853q-.105-.01-.208-.031t-.204-.052-.198-.07-.19-.091q-.092-.05-.18-.109-.087-.058-.168-.125t-.156-.142-.141-.156q-.067-.081-.125-.169t-.108-.18-.09-.19-.07-.199-.05-.204-.03-.208-.01-.21.01-.21m8.044-37.24-3.566 35.536L65.3 66.837l3.566-35.536z"/><path d="M61.357 43.346c.335.551.577 1.19.737 1.826.149.592.22 1.182.193 1.716-.112 1.028-.339 1.238-.989 1.92l-.3-.658c-.517-.768-1.404-2.787-2.328-2.621-.387.295-.56.674-.672 1.07.11.492.143 1.022.088 1.568a4.77 4.77 0 0 1-.766 2.188c1.2.368 3.03 1.36 2.925 2.438a.96.96 0 0 1-.293.54c-.65.62-2.023.023-2.501.3.005.38.146.787.126 1.116-.016.237-.153.563-.429.722-.329.19-.726.176-1.019.064-.573-.173-.934-.897-1.786-1.127-.752.115-1.289.629-1.975.75-.309.051-.702-.013-.986-.265-.238-.211-.308-.558-.277-.793.036-.387.298-.725.346-1.069-.81-.507-1.842-.077-2.393-.79a.96.96 0 0 1-.18-.589c.482-1.446 2.104-1.685 3.352-1.808a4.77 4.77 0 0 1-.316-2.296c.063-.622.233-1.201.487-1.709-.085-.442-.1-.884-.39-1.266-.468-.098-.799.297-1.034.587-.738.992-1.18 1.555-2.03 2.322-.772-1.357-.779-2.773-.327-3.915.438-1.067 1.248-1.996 2.313-2.388 1.202-.413 2.213-.326 3.187.33.35-.678.702-1.331 1.173-1.861.593-.669 1.428-1.259 2.503-1.132 2.097.246 3.728 3.17 3.561 4.83m-8.146 3.074a4 4 0 0 0-.322 1.225c-.086.858.101 1.653.447 2.225.345.571.823.91 1.365.965s1.078-.183 1.53-.675.794-1.233.88-2.091a4 4 0 0 0-.072-1.265zm.36 2.606 2.598.26s-.51.715-1.375.628c-.867-.087-1.224-.888-1.224-.888"/><path fill-rule="evenodd" d="m48.806 31.769-.552-2.535-1.044 2.375-2.582-.26 1.937 1.728-1.045 2.375 2.241-1.308 1.937 1.728-.552-2.536 2.241-1.308zM61.194 63.945l.552 2.536 1.044-2.376 2.582.26-1.937-1.728 1.045-2.375-2.241 1.308-1.937-1.727.552 2.535-2.241 1.308z"/><path fill="none" stroke="#000" stroke-linejoin="round" stroke-width="2.4" d="M40.65 86.994q-3.379 0-5.151-1.88-1.768-1.88-1.768-5.337 0-1.723.537-3.071.542-1.353 1.48-2.28.942-.928 2.24-1.407 1.3-.483 2.823-.483.879 0 1.597.132.722.127 1.26.298.541.17.903.351.361.18.517.279l-.898 2.52q-.64-.343-1.49-.582-.849-.24-1.928-.24-.723 0-1.411.24t-1.22.772-.855 1.372q-.318.84-.318 2.036 0 .962.21 1.792t.679 1.43q.474.601 1.23.953.762.346 1.841.346.684 0 1.221-.078.542-.083.962-.19.42-.113.737-.25.323-.14.581-.263l.86 2.5q-.66.4-1.86.723-1.197.317-2.78.317Zm10.46-2.358q.44 0 .84-.02t.64-.058v-2.261q-.181-.04-.543-.078-.356-.044-.659-.044-.42 0-.79.053-.367.05-.65.19-.278.138-.44.377-.156.24-.156.6 0 .699.469.972.469.269 1.289.269Zm-.24-8.721q1.319 0 2.198.303.884.297 1.411.859.532.557.752 1.357.22.801.22 1.783v6.2q-.64.138-1.782.328-1.138.19-2.76.19-1.02 0-1.85-.18t-1.43-.591-.923-1.07q-.318-.659-.318-1.62 0-.918.371-1.558t.992-1.02 1.42-.547q.801-.171 1.66-.171.577 0 1.026.048.454.05.732.127v-.278q0-.762-.459-1.22-.459-.46-1.601-.46-.757 0-1.5.113-.741.107-1.278.307l-.381-2.397q.258-.083.65-.171.39-.093.849-.161.459-.069.967-.117.512-.054 1.035-.054Zm13.62 2.92q-.401-.098-.943-.205-.537-.113-1.157-.113-.279 0-.67.05-.39.048-.59.107v8.042H58.15v-9.961q.801-.279 1.89-.528 1.089-.253 2.427-.253.244 0 .58.034.343.029.68.078.341.049.678.122.342.068.586.166zm4.64 2.539q0 1.382.62 2.222t1.841.84q.4 0 .738-.03.342-.03.561-.068v-5.42q-.278-.18-.732-.298-.45-.122-.908-.122-2.12 0-2.12 2.876Zm6.739 5q-.4.122-.923.234-.518.108-1.089.186-.566.083-1.157.132-.591.048-1.128.048-1.304 0-2.324-.375-1.016-.381-1.72-1.09-.697-.712-1.069-1.723-.37-1.01-.37-2.27 0-1.28.317-2.31.322-1.03.923-1.748.6-.723 1.47-1.104.873-.38 1.992-.38.62 0 1.108.122.493.122.991.341v-4.76l2.979-.479z"/><path fill="#fff" d="M40.65 86.994q-3.379 0-5.151-1.88-1.768-1.88-1.768-5.337 0-1.723.537-3.071.542-1.353 1.48-2.28.942-.928 2.24-1.407 1.3-.483 2.823-.483.879 0 1.597.132.722.127 1.26.298.541.17.903.351.361.18.517.279l-.898 2.52q-.64-.343-1.49-.582-.849-.24-1.928-.24-.723 0-1.411.24t-1.22.772-.855 1.372q-.318.84-.318 2.036 0 .962.21 1.792t.679 1.43q.474.601 1.23.953.762.346 1.841.346.684 0 1.221-.078.542-.083.962-.19.42-.113.737-.25.323-.14.581-.263l.86 2.5q-.66.4-1.86.723-1.197.317-2.78.317m10.46-2.358q.44 0 .84-.02t.64-.058v-2.261q-.181-.04-.543-.078-.356-.044-.659-.044-.42 0-.79.053-.367.05-.65.19-.278.138-.44.377-.156.24-.156.6 0 .699.469.972.469.269 1.289.269m-.24-8.721q1.319 0 2.198.303.884.297 1.411.859.532.557.752 1.357.22.801.22 1.783v6.2q-.64.138-1.782.328-1.138.19-2.76.19-1.02 0-1.85-.18t-1.43-.591-.923-1.07q-.318-.659-.318-1.62 0-.918.371-1.558t.992-1.02 1.42-.547q.801-.171 1.66-.171.577 0 1.026.048.454.05.732.127v-.278q0-.762-.459-1.22-.459-.46-1.601-.46-.757 0-1.5.113-.741.107-1.278.307l-.381-2.397q.258-.083.65-.171.39-.093.849-.161.459-.069.967-.117.512-.054 1.035-.054m13.62 2.92q-.401-.098-.943-.205-.537-.113-1.157-.113-.279 0-.67.05-.39.048-.59.107v8.042H58.15v-9.961q.801-.279 1.89-.528 1.089-.253 2.427-.253.244 0 .58.034.343.029.68.078.341.049.678.122.342.068.586.166zm4.64 2.539q0 1.382.62 2.222t1.841.84q.4 0 .738-.03.342-.03.561-.068v-5.42q-.278-.18-.732-.298-.45-.122-.908-.122-2.12 0-2.12 2.876m6.739 5q-.4.122-.923.234-.518.108-1.089.186-.566.083-1.157.132-.591.048-1.128.048-1.304 0-2.324-.375-1.016-.381-1.72-1.09-.697-.712-1.069-1.723-.37-1.01-.37-2.27 0-1.28.317-2.31.322-1.03.923-1.748.6-.723 1.47-1.104.873-.38 1.992-.38.62 0 1.108.122.493.122.991.341v-4.76l2.979-.479z"/></svg>