<svg xmlns="http://www.w3.org/2000/svg" width="110" height="110"><path fill="#333" d="m65.078 50.559-12.35-19.234q-.132-.207-.244-.425-.112-.22-.202-.448t-.156-.465q-.067-.236-.111-.478-.043-.241-.063-.486t-.015-.49q.004-.246.033-.49.028-.244.08-.484t.129-.474.173-.459.218-.44.26-.416.3-.388.336-.358q.176-.17.37-.323.192-.152.398-.285t.426-.244.447-.202.465-.157.478-.11.487-.064.49-.015.49.033.484.081.473.128.46.174.439.218q.215.12.416.26.202.14.389.299.187.16.357.336t.323.37q.153.192.285.399l12.35 19.234q.133.206.245.425t.201.447q.09.229.157.465t.11.478.064.487.015.49-.033.49-.081.484-.128.474-.174.458-.217.44-.26.416-.3.39-.336.357-.37.322q-.192.153-.399.285-.206.133-.425.245t-.448.202-.464.156-.479.111-.486.063-.49.015q-.246-.004-.49-.033-.244-.028-.484-.08t-.474-.128-.459-.174-.44-.218-.416-.26-.388-.3-.358-.335-.323-.37-.285-.4"/><path fill="#cfcfcf" d="M77.39 60.48q-.31.198-.629.382-.32.183-.647.35-.328.168-.663.32-.336.151-.679.286t-.692.252q-.348.118-.703.218-.354.1-.713.184t-.72.148-.729.112-.732.077q-.367.03-.735.041t-.736.005-.736-.032-.733-.067-.729-.104q-.363-.06-.723-.139-.36-.078-.715-.174t-.706-.21-.695-.243-.682-.278-.667-.31-.651-.343-.634-.375-.615-.405-.594-.435-.572-.463q-.28-.24-.549-.491-.268-.253-.524-.518-.255-.265-.498-.542-.242-.277-.47-.566-.229-.29-.443-.589-.213-.3-.412-.61-.2-.31-.383-.628-.183-.32-.35-.648-.169-.327-.32-.663t-.286-.679-.252-.691q-.118-.35-.219-.703-.1-.355-.183-.713-.083-.36-.148-.722t-.113-.727q-.047-.365-.076-.732-.03-.367-.041-.735-.012-.369-.005-.737t.032-.735.067-.733q.043-.366.104-.73.06-.362.139-.722.078-.36.174-.716.096-.355.21-.705t.243-.695q.13-.345.278-.682.147-.338.31-.668.164-.33.343-.651.18-.322.375-.634t.405-.615.435-.594.463-.572.491-.548q.252-.269.517-.524.266-.256.543-.498t.566-.47q.289-.23.589-.443.3-.214.61-.413.309-.199.628-.382.32-.184.647-.352.328-.167.664-.319.336-.15.678-.285.343-.135.692-.253t.703-.218.713-.183.721-.149.728-.112q.365-.048.732-.077.367-.03.735-.04.368-.012.736-.005.369.006.736.031t.733.068.73.103q.362.06.722.14.36.078.715.174.356.096.706.209t.695.244.682.277.667.31.652.344.634.374.614.405q.303.21.595.435.291.225.572.464.28.238.548.49.269.253.524.518.256.265.498.542.242.278.47.566.229.29.443.589.214.3.413.61t.382.629.351.647.32.663q.15.336.285.679.135.342.253.691.117.35.218.704t.183.713q.083.358.148.72.066.363.113.728t.077.733.04.735q.012.368.005.736t-.031.735-.068.734-.103.728-.14.723q-.078.36-.174.716-.096.355-.21.706-.112.35-.243.694-.13.345-.277.682t-.31.668-.344.651q-.18.322-.374.634-.195.312-.405.615-.21.302-.435.594t-.464.572-.49.549-.518.523-.542.498-.567.47q-.288.23-.588.443-.3.214-.61.413"/><path fill="#fff" d="M75.075 56.873q-.222.142-.45.273t-.462.25-.474.229-.484.204-.494.18q-.25.084-.503.156t-.51.131q-.255.06-.514.106-.26.047-.52.08-.26.034-.523.055-.262.021-.525.03-.263.007-.526.003-.263-.005-.525-.023-.263-.018-.524-.048t-.52-.074-.517-.1-.51-.124-.505-.15-.496-.173-.487-.199q-.242-.105-.477-.222-.236-.116-.466-.245-.23-.128-.452-.267-.223-.14-.44-.29-.215-.15-.424-.31-.208-.16-.408-.331-.2-.17-.392-.35-.192-.181-.374-.37-.183-.19-.356-.388t-.336-.404-.316-.42q-.153-.215-.295-.436t-.273-.45q-.131-.227-.251-.462-.12-.234-.228-.473-.108-.24-.204-.485t-.18-.494q-.085-.25-.156-.502-.072-.253-.131-.51-.06-.256-.106-.515-.047-.259-.08-.52-.034-.26-.055-.523-.021-.262-.03-.525-.008-.262-.003-.525t.023-.526.048-.524q.03-.26.074-.52.043-.26.1-.517.055-.257.124-.51.068-.254.15-.505.08-.25.173-.496t.198-.487q.106-.241.222-.477.117-.236.245-.465.129-.23.268-.453.14-.223.29-.439t.31-.424q.16-.209.33-.409.171-.2.352-.392.18-.191.37-.374.188-.183.387-.356.198-.173.404-.336t.42-.316.436-.295.45-.273q.227-.13.461-.25t.474-.228q.24-.109.485-.205t.494-.18.502-.156q.253-.072.51-.13.256-.06.515-.107.258-.046.52-.08.26-.034.522-.055t.525-.03q.263-.007.526-.002.263.004.526.022.262.018.523.048.262.03.521.074.26.044.516.1.257.056.511.124.254.069.504.15t.497.174.487.198.477.222.465.245.453.267.439.29.424.31q.209.16.409.331.2.17.392.351.191.18.374.37.182.189.355.387.174.198.337.404t.316.42q.152.215.294.436.143.221.274.45.13.228.25.462t.228.474.205.484q.096.245.18.494.084.25.156.503.071.253.13.509t.107.515.08.52.055.523.029.525.003.526-.022.525q-.018.262-.049.524-.03.26-.073.52-.044.26-.1.517t-.124.51-.15.505-.174.496-.198.487-.222.477-.245.465-.267.453-.29.44-.31.424q-.16.208-.331.408t-.351.392-.37.374-.387.356-.405.336-.42.316-.435.295"/><path fill="#333" d="m44.922 45.156 12.35 19.233q.132.207.244.426.112.218.202.447t.156.465.111.478.063.487.015.49-.033.49-.08.484-.129.473-.173.459-.218.44-.26.416-.3.389-.336.357q-.176.17-.37.323-.192.152-.398.285t-.426.245-.447.201-.465.157-.478.11-.487.064-.49.015-.49-.033-.484-.081-.473-.128q-.234-.075-.46-.174-.225-.098-.439-.217-.215-.12-.416-.26-.202-.14-.389-.3t-.357-.336-.323-.37q-.153-.192-.285-.399L36.507 50.56q-.133-.207-.245-.426t-.201-.447-.157-.465-.11-.478-.064-.487-.015-.49.033-.49.081-.484.128-.473.174-.46q.098-.224.217-.439.12-.214.26-.416t.3-.389.336-.357.37-.323q.192-.153.399-.285.206-.133.425-.245t.448-.201.464-.157.479-.11.486-.064.49-.015q.246.004.49.033.244.028.484.08t.474.129.459.173.44.218.416.26.388.3.358.336.323.37.285.399"/><path fill="#cfcfcf" d="M32.61 35.235q.31-.199.629-.382.32-.184.647-.352.328-.167.663-.319.336-.15.679-.285t.692-.253q.348-.118.703-.218.354-.1.713-.183t.72-.149.729-.112.732-.077q.367-.03.735-.04.368-.012.736-.005.368.006.736.031.367.025.733.068.365.042.729.103.363.06.723.14.36.078.715.174t.706.209.695.244.682.277.667.31.651.344.634.374.615.405.594.435.572.464.549.49.524.518.498.542.47.566q.229.29.443.589.213.3.412.61.2.31.383.629t.35.647.32.663.286.679q.135.342.252.691.118.35.219.704.1.354.183.713.083.358.148.72.065.363.113.728.047.365.076.733.03.367.041.735t.005.736-.032.735q-.024.368-.067.734-.043.365-.104.728-.06.364-.139.723-.078.36-.174.716-.096.355-.21.706-.113.35-.243.694-.13.345-.278.682-.147.338-.31.668-.164.33-.343.651-.18.322-.375.634t-.405.615-.435.594-.463.572-.491.549-.517.523-.543.498q-.277.243-.566.47-.289.23-.589.443-.3.214-.61.413-.309.2-.628.383-.32.183-.647.35-.328.168-.664.32-.336.151-.678.286-.343.134-.692.252t-.703.218-.713.184-.721.148-.728.112-.732.077q-.367.03-.735.041t-.736.005-.736-.032-.733-.067-.73-.104q-.362-.06-.722-.139-.36-.078-.715-.174-.356-.096-.706-.21t-.695-.243-.682-.278-.667-.31-.652-.343-.634-.375-.614-.405q-.303-.21-.595-.435-.291-.225-.572-.463-.28-.24-.548-.491-.269-.253-.524-.518-.256-.265-.498-.542t-.47-.566q-.229-.29-.443-.589-.214-.3-.413-.61t-.382-.628-.351-.648-.32-.663q-.15-.336-.285-.679-.135-.342-.253-.691-.117-.35-.218-.703-.1-.355-.183-.713-.083-.36-.148-.722-.066-.362-.113-.727t-.077-.732-.04-.735q-.012-.369-.005-.737t.031-.735.068-.733q.043-.366.103-.73.061-.362.14-.722.078-.36.174-.716.096-.355.21-.705.112-.35.243-.695.13-.345.277-.682t.31-.668.344-.651q.18-.322.374-.634.195-.312.405-.615.21-.302.435-.594.225-.291.464-.572t.49-.548q.253-.269.518-.524.265-.256.542-.498.278-.242.567-.47.288-.23.588-.443.3-.214.61-.413"/><path fill="#fff" d="M34.925 38.841q.222-.142.45-.273.228-.13.462-.25t.474-.228q.24-.109.484-.205.245-.096.494-.18.25-.084.503-.156t.51-.13q.255-.06.514-.107.26-.046.52-.08t.523-.055q.262-.021.525-.03.263-.007.526-.002.263.004.525.022.263.018.524.048t.52.074.517.1.51.124.505.15.496.174.487.198q.242.105.477.222.236.117.466.245t.452.267.44.29.424.31.408.331.392.351.374.37.356.387.336.404.316.42.295.436.273.45.251.462.228.474.204.484.18.494.156.503.131.509.106.515.08.52q.034.26.055.523.021.262.03.525t.003.526-.023.525-.048.524q-.03.26-.074.52-.043.26-.1.517-.055.257-.124.51-.068.255-.15.505-.08.25-.173.496t-.198.487q-.106.241-.222.477-.117.236-.245.465-.129.23-.268.453-.14.223-.29.44-.15.215-.31.424-.16.208-.33.408-.171.2-.352.392t-.37.374q-.188.183-.387.356-.198.173-.404.336t-.42.316-.436.295-.45.273-.461.25-.474.229-.485.204-.494.18-.502.156-.51.131-.515.106-.52.08-.522.055-.525.03q-.263.007-.526.003-.263-.005-.526-.023-.262-.018-.523-.048-.262-.03-.521-.074-.26-.043-.516-.1-.257-.055-.511-.124t-.504-.15-.497-.173-.487-.199-.477-.222q-.235-.116-.465-.245-.23-.128-.453-.267-.223-.14-.439-.29t-.424-.31q-.209-.16-.409-.331-.2-.17-.392-.35-.191-.181-.374-.37-.182-.19-.355-.388-.174-.198-.337-.404t-.316-.42q-.152-.215-.294-.436-.143-.221-.274-.45-.13-.227-.25-.462-.12-.234-.228-.473-.108-.24-.205-.485t-.18-.494-.156-.502-.13-.51-.107-.515-.08-.52q-.034-.26-.055-.523-.02-.262-.029-.525-.008-.262-.003-.525t.022-.526.049-.524q.03-.26.073-.52.044-.26.1-.517t.124-.51.15-.505.174-.496.198-.487.222-.477.245-.465.267-.453.29-.439.31-.424q.16-.209.331-.409t.351-.392q.18-.191.37-.374.189-.183.387-.356t.405-.336.42-.316.435-.295"/><path fill="none" stroke="#000" stroke-linejoin="round" stroke-width="1.886" d="M20.488 83.129q.173.015.4.023.226.007.54.007 1.842 0 2.728-.924.886-.929.886-2.563 0-1.715-.848-2.594-.848-.882-2.685-.882-.253 0-.522.012-.265.007-.499.038zm7.086-3.457q0 1.412-.44 2.467-.438 1.051-1.248 1.745-.81.69-1.976 1.036-1.162.346-2.604.346-.66 0-1.543-.058-.878-.054-1.726-.226V74.374q.848-.158 1.765-.211.92-.054 1.58-.054 1.4 0 2.54.315 1.14.314 1.957.99t1.254 1.73q.441 1.05.441 2.528Zm5.036 3.817q.345 0 .66-.015t.503-.046v-1.776q-.142-.031-.426-.062-.28-.034-.518-.034-.33 0-.622.042-.287.038-.51.15-.219.107-.345.295-.123.188-.123.472 0 .548.368.763.369.211 1.013.211Zm-.188-6.852q1.036 0 1.727.238.694.234 1.108.675.419.438.591 1.067.173.629.173 1.4v4.873q-.503.107-1.4.257-.894.15-2.168.15-.802 0-1.454-.143-.652-.142-1.124-.464t-.725-.84q-.25-.518-.25-1.274 0-.721.292-1.224.291-.502.779-.802.487-.299 1.116-.43.63-.134 1.305-.134.452 0 .805.039.357.038.576.1v-.22q0-.598-.361-.958-.36-.36-1.258-.36-.595 0-1.178.087-.583.085-1.005.242l-.3-1.884q.204-.065.51-.134.308-.073.668-.126t.76-.093q.403-.042.813-.042Zm5.715.503q.594-.173 1.538-.322t1.98-.15q1.055 0 1.753.276t1.105.779q.41.503.583 1.193t.173 1.539v4.669h-2.34v-4.386q0-1.131-.3-1.6-.3-.471-1.116-.471-.25 0-.534.023t-.502.053v6.38h-2.34zm11.244 3.786q0 1.086.487 1.746t1.446.66q.315 0 .58-.023.268-.023.44-.054v-4.258q-.218-.142-.575-.234-.353-.096-.713-.096-1.665 0-1.665 2.26Zm5.294 3.929q-.314.096-.725.184-.407.085-.856.146-.445.065-.909.104t-.886.038q-1.024 0-1.826-.296-.798-.299-1.35-.855-.55-.56-.84-1.354-.292-.794-.292-1.784 0-1.005.249-1.815.253-.81.725-1.373.472-.568 1.155-.867.687-.3 1.565-.3.487 0 .871.096.388.096.779.269v-3.74l2.34-.377zm1.8-3.802q0-1.101.338-1.926t.886-1.373q.553-.549 1.266-.833.718-.284 1.473-.284 1.758 0 2.778 1.078 1.024 1.075 1.024 3.165 0 .204-.015.45-.015.241-.034.429h-5.31q.077.725.675 1.15.599.423 1.604.423.644 0 1.262-.115.621-.12 1.017-.292l.314 1.9q-.188.095-.502.191-.315.092-.702.161-.384.073-.825.12-.438.045-.879.045-1.116 0-1.941-.33t-1.37-.901q-.54-.576-.802-1.358-.257-.787-.257-1.7Zm5.502-.894q-.015-.3-.104-.583-.084-.284-.264-.503-.18-.218-.457-.36-.276-.142-.683-.142-.395 0-.679.134-.28.134-.468.353t-.292.51-.15.591zm7.364 5.122q-1.02-.015-1.658-.219-.637-.207-1.009-.575-.368-.369-.502-.894-.13-.53-.13-1.19v-9.096l2.34-.376v9.004q0 .311.045.564.05.254.18.426.135.173.385.284.253.108.678.138zm4.003-.157h-2.34V76.86h2.34zm.218-10.654q0 .644-.418 1.012-.414.369-.978.369-.568 0-.986-.369-.414-.368-.414-1.012 0-.645.414-1.013.418-.372.986-.372.564 0 .978.372.418.368.418 1.013Zm9.71 6.506q0 .975-.284 1.784-.284.806-.817 1.381-.533.576-1.281.89-.745.311-1.673.311-.91 0-1.657-.31-.749-.315-1.282-.89-.533-.576-.832-1.382-.3-.81-.3-1.784t.307-1.776.848-1.366q.545-.568 1.29-.882.747-.315 1.626-.315.898 0 1.642.315.748.314 1.281.882.534.564.833 1.366.3.802.3 1.776Zm-2.39 0q0-1.085-.434-1.707-.43-.621-1.231-.621t-1.243.621q-.437.622-.437 1.707 0 1.082.437 1.72.441.636 1.243.636t1.231-.637q.434-.637.434-1.719Zm4.191-3.836q.595-.173 1.539-.322t1.98-.15q1.055 0 1.753.276t1.105.779q.41.503.583 1.193.172.69.172 1.539v4.669h-2.34v-4.386q0-1.131-.299-1.6-.3-.471-1.116-.471-.25 0-.534.023t-.502.053v6.38h-2.34z"/><path fill="#fff" d="M20.488 83.129q.173.015.4.023.226.007.54.007 1.842 0 2.728-.924.886-.929.886-2.563 0-1.715-.848-2.594-.848-.882-2.685-.882-.253 0-.522.012-.265.007-.499.038zm7.086-3.457q0 1.412-.44 2.467-.438 1.051-1.248 1.745-.81.69-1.976 1.036-1.162.346-2.604.346-.66 0-1.543-.058-.878-.054-1.726-.226V74.374q.848-.158 1.765-.211.92-.054 1.58-.054 1.4 0 2.54.315 1.14.314 1.957.99t1.254 1.73q.441 1.05.441 2.528m5.036 3.817q.345 0 .66-.015t.503-.046v-1.776q-.142-.031-.426-.062-.28-.034-.518-.034-.33 0-.622.042-.287.038-.51.15-.219.107-.345.295-.123.188-.123.472 0 .548.368.763.369.211 1.013.211m-.188-6.852q1.036 0 1.727.238.694.234 1.108.675.419.438.591 1.067.173.629.173 1.4v4.873q-.503.107-1.4.257-.894.15-2.168.15-.802 0-1.454-.143-.652-.142-1.124-.464t-.725-.84q-.25-.518-.25-1.274 0-.721.292-1.224.291-.502.779-.802.487-.299 1.116-.43.63-.134 1.305-.134.452 0 .805.039.357.038.576.1v-.22q0-.598-.361-.958-.36-.36-1.258-.36-.595 0-1.178.087-.583.085-1.005.242l-.3-1.884q.204-.065.51-.134.308-.073.668-.126t.76-.093q.403-.042.813-.042m5.715.503q.594-.173 1.538-.322t1.98-.15q1.055 0 1.753.276t1.105.779q.41.503.583 1.193t.173 1.539v4.669h-2.34v-4.386q0-1.131-.3-1.6-.3-.471-1.116-.471-.25 0-.534.023t-.502.053v6.38h-2.34zm11.244 3.786q0 1.086.487 1.746t1.446.66q.315 0 .58-.023.268-.023.44-.054v-4.258q-.218-.142-.575-.234-.353-.096-.713-.096-1.665 0-1.665 2.26m5.294 3.929q-.314.096-.725.184-.407.085-.856.146-.445.065-.909.104t-.886.038q-1.024 0-1.826-.296-.798-.299-1.35-.855-.55-.56-.84-1.354-.292-.794-.292-1.784 0-1.005.249-1.815.253-.81.725-1.373.472-.568 1.155-.867.687-.3 1.565-.3.487 0 .871.096.388.096.779.269v-3.74l2.34-.377zm1.8-3.802q0-1.101.338-1.926t.886-1.373q.553-.549 1.266-.833.718-.284 1.473-.284 1.758 0 2.778 1.078 1.024 1.075 1.024 3.165 0 .204-.015.45-.015.241-.034.429h-5.31q.077.725.675 1.15.599.423 1.604.423.644 0 1.262-.115.621-.12 1.017-.292l.314 1.9q-.188.095-.502.191-.315.092-.702.161-.384.073-.825.12-.438.045-.879.045-1.116 0-1.941-.33t-1.37-.901q-.54-.576-.802-1.358-.257-.787-.257-1.7m5.502-.894q-.015-.3-.104-.583-.084-.284-.264-.503-.18-.218-.457-.36-.276-.142-.683-.142-.395 0-.679.134-.28.134-.468.353t-.292.51-.15.591zm7.364 5.122q-1.02-.015-1.658-.219-.637-.207-1.009-.575-.368-.369-.502-.894-.13-.53-.13-1.19v-9.096l2.34-.376v9.004q0 .311.045.564.05.254.18.426.135.173.385.284.253.108.678.138zm4.003-.157h-2.34V76.86h2.34zm.218-10.654q0 .644-.418 1.012-.414.369-.978.369-.568 0-.986-.369-.414-.368-.414-1.012 0-.645.414-1.013.418-.372.986-.372.564 0 .978.372.418.368.418 1.013m9.71 6.506q0 .975-.284 1.784-.284.806-.817 1.381-.533.576-1.281.89-.745.311-1.673.311-.91 0-1.657-.31-.749-.315-1.282-.89-.533-.576-.832-1.382-.3-.81-.3-1.784t.307-1.776.848-1.366q.545-.568 1.29-.882.747-.315 1.626-.315.898 0 1.642.315.748.314 1.281.882.534.564.833 1.366.3.802.3 1.776m-2.39 0q0-1.085-.434-1.707-.43-.621-1.231-.621t-1.243.621q-.437.622-.437 1.707 0 1.082.437 1.72.441.636 1.243.636t1.231-.637q.434-.637.434-1.719m4.191-3.836q.595-.173 1.539-.322t1.98-.15q1.055 0 1.753.276t1.105.779q.41.503.583 1.193.172.69.172 1.539v4.669h-2.34v-4.386q0-1.131-.299-1.6-.3-.471-1.116-.471-.25 0-.534.023t-.502.053v6.38h-2.34z"/></svg>