<svg xmlns="http://www.w3.org/2000/svg" width="110" height="110"><path fill="#333" d="M64.286 47.857V25q0-.246.024-.49.024-.245.072-.485.048-.241.119-.476t.165-.462.21-.444.252-.42.293-.395.33-.364.363-.329.394-.292.42-.253.444-.21q.227-.093.462-.165.235-.071.476-.119t.486-.072.49-.024.49.024.485.072.476.12q.235.07.462.165.227.094.444.21.216.115.42.252.205.136.395.292t.363.33.33.363.292.394.252.421.21.444.165.462q.072.235.12.476.048.24.072.485.024.244.024.49v22.857q0 .246-.024.49-.024.245-.072.486-.048.24-.12.476-.07.235-.165.462-.094.226-.21.443t-.252.421-.292.394-.33.364-.363.33q-.19.155-.394.291-.205.137-.421.253-.217.115-.444.21-.227.093-.462.165-.235.071-.476.119-.24.048-.485.072t-.49.024q-.246 0-.49-.024-.245-.024-.486-.072-.24-.048-.476-.12-.235-.07-.462-.165-.227-.094-.443-.21-.217-.115-.421-.252-.204-.136-.394-.292t-.364-.33-.33-.363q-.155-.19-.292-.394t-.252-.42q-.116-.218-.21-.444-.094-.227-.165-.462t-.12-.476-.071-.486-.024-.49"/><path fill="#cfcfcf" d="M69.286 62.857q-.369 0-.736-.018-.368-.018-.735-.054-.366-.036-.73-.09t-.726-.126-.718-.161-.71-.197-.699-.23q-.346-.125-.687-.266-.34-.14-.673-.298-.332-.158-.657-.331t-.64-.363q-.317-.19-.623-.394t-.602-.424-.58-.453q-.285-.233-.558-.48-.273-.248-.533-.508t-.508-.534q-.247-.272-.48-.557-.234-.285-.453-.58-.22-.296-.424-.602-.205-.307-.394-.622-.19-.316-.363-.64-.174-.326-.331-.659-.158-.332-.298-.673-.141-.34-.265-.687-.125-.346-.231-.699-.107-.352-.197-.71-.09-.356-.161-.718-.072-.36-.126-.725-.054-.364-.09-.73-.036-.367-.054-.735t-.018-.736.018-.736.054-.734.09-.73q.054-.365.126-.726t.161-.719.197-.71.23-.698q.125-.347.266-.687.14-.34.298-.673t.33-.658q.174-.325.364-.64.19-.316.394-.622.204-.307.424-.602.219-.296.453-.58.233-.285.48-.558.248-.273.508-.533t.533-.508.558-.481.58-.453.602-.424.622-.394.64-.363q.326-.173.658-.33.333-.158.673-.3.34-.14.687-.264t.7-.231.709-.196.718-.162q.362-.071.726-.126.364-.054.73-.09.367-.036.735-.054.367-.018.736-.018.368 0 .736.018.367.018.734.054.366.036.73.09.365.055.726.126t.718.162.71.196q.352.107.699.231t.687.265.673.298.658.331.64.363.622.394.602.424.58.453.558.48.533.509.508.533.48.557.454.58.424.603.394.622.363.64.33.658.299.673.265.687.23.699q.108.352.197.71.09.357.161.718.072.36.126.725.054.364.09.73.037.367.055.735t.018.736-.018.736-.055.734-.09.731-.126.725-.16.719-.197.71-.231.698-.265.687-.298.673-.331.658-.363.64-.394.623-.424.602-.453.58-.481.557-.508.534-.533.507q-.273.248-.557.481-.285.234-.58.453-.297.22-.603.424-.306.205-.622.394t-.64.363q-.325.173-.658.33t-.673.3-.687.264-.699.231-.71.197-.718.16q-.361.073-.725.127-.365.054-.731.09-.367.036-.734.054-.368.018-.736.018"/><path fill="#fff" d="M69.286 58.571q-.263 0-.526-.013t-.524-.038-.522-.065-.519-.09q-.258-.05-.513-.115-.255-.064-.506-.14-.252-.076-.5-.165-.247-.089-.49-.19-.243-.1-.481-.212-.238-.113-.47-.237t-.458-.259-.444-.281-.43-.303-.414-.324-.399-.343q-.194-.177-.38-.363t-.363-.38q-.177-.196-.344-.399t-.323-.414-.303-.43q-.146-.22-.281-.445t-.26-.457q-.123-.232-.236-.47t-.213-.48-.19-.491q-.088-.248-.164-.5-.077-.251-.14-.507-.064-.255-.116-.513-.051-.258-.09-.518-.038-.26-.064-.522-.026-.261-.039-.524t-.013-.526.013-.526q.013-.262.039-.524t.064-.522.09-.518.116-.513q.063-.255.14-.507.076-.252.165-.5.088-.247.189-.49.1-.243.213-.48.113-.239.237-.47.124-.233.259-.458.135-.226.281-.444.146-.22.303-.43.157-.212.323-.415.167-.203.344-.398t.363-.381.38-.363.399-.343.414-.324.43-.302q.219-.147.444-.282.226-.135.458-.259t.47-.236.48-.214q.244-.1.491-.189.248-.088.5-.165.251-.076.506-.14t.513-.115q.258-.052.519-.09.26-.039.522-.065.261-.025.524-.038t.526-.013.525.013.525.038q.262.026.522.065.26.038.518.09.258.051.513.115t.507.14.5.165.49.19.48.213.47.236.458.26q.226.134.444.28.219.147.43.303.211.157.415.324t.398.343.38.363.363.38.344.399.323.415q.157.21.303.43.146.218.282.444.135.225.259.457t.236.47.213.48.19.492.165.499.14.507.115.513.09.518.064.522.04.524.012.526-.013.526-.039.524-.064.522-.09.518-.115.513q-.064.256-.14.507-.077.252-.165.5-.089.247-.19.49-.1.243-.213.481t-.236.47-.26.457-.28.445q-.147.218-.304.43-.156.21-.323.414t-.344.398q-.176.195-.362.381t-.381.363-.398.343-.415.324-.43.303q-.218.146-.444.281t-.458.26-.47.236q-.237.112-.48.213t-.49.19q-.248.088-.5.164t-.507.14-.513.116q-.258.05-.518.09-.26.038-.522.064t-.525.038-.525.013"/><path fill="#333" d="m50.357 55.899 19.795 11.428q.213.123.412.266.2.143.385.305.184.162.352.342.168.179.318.374t.279.403.238.429.196.45.15.467.103.48.056.487.008.491-.04.49-.088.482q-.055.24-.134.472t-.18.456q-.102.224-.225.436-.123.213-.266.413t-.305.384-.341.353-.374.317-.404.28-.429.238-.45.195-.467.15-.48.104-.487.056-.49.008-.49-.04-.482-.088-.472-.135-.457-.18-.436-.224L45.357 64.559q-.213-.123-.412-.266-.2-.143-.385-.305-.184-.162-.352-.341t-.318-.374q-.15-.195-.279-.404-.13-.208-.238-.429-.109-.22-.195-.45t-.15-.467-.104-.48-.056-.487-.008-.49.04-.49.088-.482q.055-.24.134-.472.08-.233.18-.457.102-.223.225-.436t.266-.412q.143-.2.305-.385t.341-.352.374-.318.404-.28q.208-.129.429-.237.22-.11.45-.196t.467-.15q.237-.063.48-.103.242-.04.487-.056t.49-.008.49.04.482.088q.24.055.472.134.233.08.457.18.223.102.436.225"/><path fill="#cfcfcf" d="M34.867 52.729q.184-.319.383-.629.2-.309.414-.608.215-.3.444-.588t.472-.565q.242-.277.498-.542.256-.264.525-.516t.55-.49.573-.462.595-.434q.302-.21.615-.404t.635-.373.652-.342q.33-.163.668-.31.338-.146.682-.276t.696-.242.706-.208.715-.173.724-.138.729-.102.733-.066.736-.03.736.006.735.042.732.078.727.114.721.15.713.184.703.22.69.254.679.287.663.32.646.353.629.383.608.414q.3.215.588.444t.565.471.542.5.516.524.49.55.462.572.434.595q.21.303.404.616t.373.634.342.653.31.668.276.682.242.695.208.707.173.715.138.723.102.73q.042.365.066.733.024.367.03.735.006.369-.006.737t-.042.735-.078.732-.114.727q-.066.362-.15.721t-.184.713-.22.702-.254.692-.287.677-.32.663-.353.647-.383.628-.414.609-.444.588-.471.565-.5.542-.524.516-.55.49-.572.462-.595.434-.616.404-.634.373q-.322.18-.653.342-.33.163-.668.31-.338.146-.682.275t-.695.243-.707.208-.715.173-.723.138-.73.102-.733.066-.735.03-.737-.006-.735-.042-.732-.078-.727-.114-.721-.15-.713-.185q-.354-.1-.702-.22-.35-.118-.692-.253t-.677-.287-.663-.32q-.328-.169-.647-.353t-.628-.383-.609-.414q-.3-.215-.588-.444t-.565-.472q-.277-.242-.542-.498-.264-.256-.516-.525t-.49-.55-.462-.573-.434-.595q-.21-.302-.404-.615t-.373-.635-.342-.652q-.163-.33-.31-.668-.146-.338-.275-.682t-.243-.696-.208-.706-.173-.715-.138-.724-.102-.729-.066-.733-.03-.736.006-.736.042-.735.078-.732.114-.727.15-.721.185-.713q.1-.354.22-.703.118-.348.253-.69.135-.343.287-.679.152-.335.32-.663.169-.327.353-.646"/><path fill="#fff" d="M38.578 54.872q.132-.228.274-.45.143-.22.296-.434t.317-.42q.163-.206.337-.404.173-.197.356-.386.183-.19.375-.37.192-.179.392-.349.201-.17.41-.33t.425-.31.44-.289.452-.266.466-.244.477-.221.488-.198.497-.173.504-.148.511-.124.517-.098.52-.073.524-.047.526-.022.526.004.525.03.523.056.52.082q.258.047.514.107t.51.131.501.157.494.181.484.206.474.228.461.252.45.274.434.296.42.317.404.336q.197.174.386.357.19.183.37.375.179.192.349.392t.33.41.31.424.289.44.266.453.244.466q.117.236.221.477.105.242.198.488.092.246.173.496t.148.505.124.511q.055.257.098.517t.073.52.047.524.022.526-.004.525-.03.525-.056.523q-.035.261-.082.52t-.107.515-.131.509q-.073.253-.157.502-.085.249-.181.494-.097.244-.206.484t-.228.473-.252.462-.274.449-.296.435-.317.42-.336.403-.357.387q-.183.19-.375.369-.192.18-.392.35t-.41.33-.424.31-.44.289q-.223.138-.453.266t-.466.244q-.236.117-.477.221-.242.105-.488.197t-.496.174q-.25.08-.505.148-.254.068-.511.124t-.517.098-.52.073-.524.047-.526.022-.525-.005-.525-.03-.523-.055-.52-.082-.515-.107-.509-.132-.502-.156-.494-.182-.484-.205-.473-.229-.462-.251-.449-.274q-.22-.143-.435-.296-.214-.153-.42-.317-.206-.163-.403-.337-.198-.173-.387-.356-.19-.183-.369-.375-.18-.192-.35-.392-.17-.201-.33-.41t-.31-.425-.289-.44q-.138-.223-.266-.452-.128-.23-.244-.466-.117-.236-.221-.477-.105-.242-.197-.488t-.174-.497q-.08-.25-.148-.504t-.124-.511-.098-.517-.073-.52q-.03-.262-.047-.524-.017-.263-.022-.526t.005-.526.03-.525.055-.523q.035-.26.082-.52.047-.258.107-.514t.132-.51.156-.501.182-.494.205-.484.229-.474.251-.461"/><path fill="#333" d="M50.357 39.816 30.562 51.244q-.212.123-.436.224t-.457.18-.471.135-.483.088q-.244.032-.49.04-.245.008-.49-.008t-.487-.056q-.243-.04-.48-.103-.237-.064-.467-.15-.23-.087-.45-.196-.22-.108-.43-.238-.208-.13-.403-.28-.194-.149-.374-.317-.179-.168-.34-.352-.163-.185-.306-.385t-.266-.412-.224-.437-.18-.456-.135-.472q-.056-.239-.088-.482-.032-.244-.04-.49-.008-.245.008-.49t.056-.488.104-.48q.063-.236.15-.466.086-.23.195-.45t.238-.43.28-.403q.149-.195.317-.374.168-.18.353-.341t.384-.305.412-.266l19.795-11.429q.213-.123.437-.224.223-.101.456-.18.233-.08.472-.135t.482-.088q.244-.032.49-.04.245-.008.49.008t.488.056.48.104q.236.063.466.15.23.086.45.195t.43.238.403.28.374.317.341.353q.162.184.305.384t.266.412.224.437.18.456q.08.233.135.472.056.24.088.483t.04.489q.008.245-.008.49-.016.246-.056.488t-.103.48q-.064.237-.15.467-.087.23-.196.45-.108.22-.238.429-.13.208-.28.403-.149.195-.317.374-.167.18-.352.342t-.385.305q-.2.143-.412.266"/><path fill="#cfcfcf" d="M60.847 27.985q.185.32.353.647t.32.663q.152.335.287.678.136.342.254.69.118.35.22.704.1.354.184.712.084.359.15.721t.114.728.078.732.042.735.006.736-.03.735-.066.734-.102.729-.138.723-.173.716q-.095.355-.208.706-.113.35-.242.695-.13.345-.276.683-.147.337-.31.668-.163.33-.342.652-.178.322-.373.634-.194.313-.404.616t-.434.595-.462.573-.49.55q-.252.268-.516.524-.265.256-.542.499t-.565.472-.588.443-.608.414-.629.384-.646.352-.663.32-.678.288-.691.253q-.349.119-.703.22t-.713.185q-.358.083-.72.15-.363.065-.728.113t-.732.078-.735.042-.736.006-.736-.03-.733-.066-.73-.102-.723-.138q-.36-.077-.715-.173-.356-.095-.706-.208-.351-.112-.696-.242-.344-.13-.682-.276t-.668-.31q-.33-.162-.652-.341t-.635-.374-.615-.404-.595-.433-.573-.463q-.281-.238-.55-.49-.269-.251-.525-.516t-.498-.541-.472-.566q-.23-.288-.444-.587-.214-.3-.414-.61-.2-.309-.383-.628-.184-.318-.353-.646t-.32-.663-.287-.678q-.135-.342-.254-.691-.118-.349-.22-.703-.1-.354-.184-.712-.084-.36-.15-.721-.066-.363-.114-.728t-.078-.732-.042-.735-.006-.736.03-.736.066-.733.102-.729.138-.723.173-.716.208-.706q.113-.35.243-.695t.276-.683.309-.668.342-.652.373-.635q.195-.312.404-.615t.434-.595.462-.573q.238-.28.49-.55.252-.268.516-.524.265-.256.542-.5.277-.242.565-.471.289-.229.588-.443.3-.215.609-.414.31-.2.628-.384.319-.184.647-.352.327-.169.663-.32.335-.153.677-.288.343-.135.692-.254.348-.118.702-.219t.713-.185q.359-.083.72-.15.363-.065.728-.113t.732-.078.735-.043.737-.006.735.03q.368.025.733.067.366.042.73.102.363.06.723.137t.715.174.707.207.695.243.682.276.668.31.653.341q.321.179.634.373.313.195.616.404.302.21.595.434.292.224.572.462.281.239.55.49.269.252.525.517.256.264.499.541.242.277.471.565.23.289.444.588.214.3.414.609.2.31.383.628"/><path fill="#fff" d="M57.136 30.128q.131.228.252.462.12.234.228.474t.206.484.18.493.158.502.131.51.107.514q.047.26.082.52.034.26.056.523.021.262.03.525t.004.526-.022.525-.047.524-.073.52-.098.517-.124.511-.148.505-.173.497-.198.487q-.104.241-.22.477-.117.236-.245.466-.127.23-.266.453-.14.224-.289.44-.15.216-.31.425t-.33.41-.35.392-.369.374-.386.357-.404.337-.42.316-.435.296-.449.274-.461.252-.474.229-.484.205-.494.181-.502.157-.509.132-.515.107-.52.081-.522.056-.525.03-.526.004-.526-.021-.523-.048-.521-.072-.517-.099-.511-.123-.504-.149-.497-.173-.488-.197q-.24-.105-.477-.221-.236-.117-.466-.244-.23-.128-.453-.267t-.44-.289-.424-.31-.41-.33-.392-.35-.375-.368-.356-.387-.337-.404-.317-.42-.296-.435q-.142-.22-.274-.448-.131-.228-.251-.462t-.23-.474-.204-.484-.182-.494-.156-.502-.132-.509-.107-.515-.082-.52-.055-.522-.03-.525q-.01-.263-.005-.526t.022-.525q.017-.263.047-.524t.073-.52.098-.518.124-.51.148-.505.174-.497.197-.487q.104-.242.22-.477.117-.236.245-.466t.266-.453.29-.44.309-.425.33-.41.35-.392.369-.375.387-.356q.197-.173.403-.337.206-.163.42-.317.214-.153.435-.295.221-.143.449-.274t.462-.252.473-.229.484-.205.494-.181.502-.157.51-.132q.255-.06.514-.107t.52-.081.523-.056q.262-.022.525-.03.262-.009.525-.004t.526.021.524.047q.26.03.52.073t.517.099q.257.055.511.123t.505.149.496.173q.246.092.488.197.241.105.477.221t.466.244.453.267.44.288.425.31.409.33.392.35.375.37q.183.188.357.386.173.198.336.404t.317.42q.153.213.296.434.142.221.274.45"/><path fill="none" stroke="#000" stroke-linejoin="round" stroke-width="1.886" d="M20.488 83.129q.173.015.4.023.226.007.54.007 1.842 0 2.728-.924.886-.929.886-2.563 0-1.715-.848-2.594-.848-.882-2.685-.882-.253 0-.522.012-.265.007-.499.038zm7.086-3.457q0 1.412-.44 2.467-.438 1.051-1.248 1.745-.81.69-1.976 1.036-1.162.346-2.604.346-.66 0-1.543-.058-.878-.054-1.726-.226V74.374q.848-.158 1.765-.211.92-.054 1.58-.054 1.4 0 2.54.315 1.14.314 1.957.99t1.254 1.73q.441 1.05.441 2.528Zm5.036 3.817q.345 0 .66-.015t.503-.046v-1.776q-.142-.031-.426-.062-.28-.034-.518-.034-.33 0-.622.042-.287.038-.51.15-.219.107-.345.295-.123.188-.123.472 0 .548.368.763.369.211 1.013.211Zm-.188-6.852q1.036 0 1.727.238.694.234 1.108.675.419.438.591 1.067.173.629.173 1.4v4.873q-.503.107-1.4.257-.894.15-2.168.15-.802 0-1.454-.143-.652-.142-1.124-.464t-.725-.84q-.25-.518-.25-1.274 0-.721.292-1.224.291-.502.779-.802.487-.299 1.116-.43.63-.134 1.305-.134.452 0 .805.039.357.038.576.1v-.22q0-.598-.361-.958-.36-.36-1.258-.36-.595 0-1.178.087-.583.085-1.005.242l-.3-1.884q.204-.065.51-.134.308-.073.668-.126t.76-.093q.403-.042.813-.042Zm5.715.503q.594-.173 1.538-.322t1.98-.15q1.055 0 1.753.276t1.105.779q.41.503.583 1.193t.173 1.539v4.669h-2.34v-4.386q0-1.131-.3-1.6-.3-.471-1.116-.471-.25 0-.534.023t-.502.053v6.38h-2.34zm11.244 3.786q0 1.086.487 1.746t1.446.66q.315 0 .58-.023.268-.023.44-.054v-4.258q-.218-.142-.575-.234-.353-.096-.713-.096-1.665 0-1.665 2.26Zm5.294 3.929q-.314.096-.725.184-.407.085-.856.146-.445.065-.909.104t-.886.038q-1.024 0-1.826-.296-.798-.299-1.35-.855-.55-.56-.84-1.354-.292-.794-.292-1.784 0-1.005.249-1.815.253-.81.725-1.373.472-.568 1.155-.867.687-.3 1.565-.3.487 0 .871.096.388.096.779.269v-3.74l2.34-.377zm1.8-3.802q0-1.101.338-1.926t.886-1.373q.553-.549 1.266-.833.718-.284 1.473-.284 1.758 0 2.778 1.078 1.024 1.075 1.024 3.165 0 .204-.015.45-.015.241-.034.429h-5.31q.077.725.675 1.15.599.423 1.604.423.644 0 1.262-.115.621-.12 1.017-.292l.314 1.9q-.188.095-.502.191-.315.092-.702.161-.384.073-.825.12-.438.045-.879.045-1.116 0-1.941-.33t-1.37-.901q-.54-.576-.802-1.358-.257-.787-.257-1.7Zm5.502-.894q-.015-.3-.104-.583-.084-.284-.264-.503-.18-.218-.457-.36-.276-.142-.683-.142-.395 0-.679.134-.28.134-.468.353t-.292.51-.15.591zm7.364 5.122q-1.02-.015-1.658-.219-.637-.207-1.009-.575-.368-.369-.502-.894-.13-.53-.13-1.19v-9.096l2.34-.376v9.004q0 .311.045.564.05.254.18.426.135.173.385.284.253.108.678.138zm4.003-.157h-2.34V76.86h2.34zm.218-10.654q0 .644-.418 1.012-.414.369-.978.369-.568 0-.986-.369-.414-.368-.414-1.012 0-.645.414-1.013.418-.372.986-.372.564 0 .978.372.418.368.418 1.013Zm9.71 6.506q0 .975-.284 1.784-.284.806-.817 1.381-.533.576-1.281.89-.745.311-1.673.311-.91 0-1.657-.31-.749-.315-1.282-.89-.533-.576-.832-1.382-.3-.81-.3-1.784t.307-1.776.848-1.366q.545-.568 1.29-.882.747-.315 1.626-.315.898 0 1.642.315.748.314 1.281.882.534.564.833 1.366.3.802.3 1.776Zm-2.39 0q0-1.085-.434-1.707-.43-.621-1.231-.621t-1.243.621q-.437.622-.437 1.707 0 1.082.437 1.72.441.636 1.243.636t1.231-.637q.434-.637.434-1.719Zm4.191-3.836q.595-.173 1.539-.322t1.98-.15q1.055 0 1.753.276t1.105.779q.41.503.583 1.193.172.69.172 1.539v4.669h-2.34v-4.386q0-1.131-.299-1.6-.3-.471-1.116-.471-.25 0-.534.023t-.502.053v6.38h-2.34z"/><path fill="#fff" d="M20.488 83.129q.173.015.4.023.226.007.54.007 1.842 0 2.728-.924.886-.929.886-2.563 0-1.715-.848-2.594-.848-.882-2.685-.882-.253 0-.522.012-.265.007-.499.038zm7.086-3.457q0 1.412-.44 2.467-.438 1.051-1.248 1.745-.81.69-1.976 1.036-1.162.346-2.604.346-.66 0-1.543-.058-.878-.054-1.726-.226V74.374q.848-.158 1.765-.211.92-.054 1.58-.054 1.4 0 2.54.315 1.14.314 1.957.99t1.254 1.73q.441 1.05.441 2.528m5.036 3.817q.345 0 .66-.015t.503-.046v-1.776q-.142-.031-.426-.062-.28-.034-.518-.034-.33 0-.622.042-.287.038-.51.15-.219.107-.345.295-.123.188-.123.472 0 .548.368.763.369.211 1.013.211m-.188-6.852q1.036 0 1.727.238.694.234 1.108.675.419.438.591 1.067.173.629.173 1.4v4.873q-.503.107-1.4.257-.894.15-2.168.15-.802 0-1.454-.143-.652-.142-1.124-.464t-.725-.84q-.25-.518-.25-1.274 0-.721.292-1.224.291-.502.779-.802.487-.299 1.116-.43.63-.134 1.305-.134.452 0 .805.039.357.038.576.1v-.22q0-.598-.361-.958-.36-.36-1.258-.36-.595 0-1.178.087-.583.085-1.005.242l-.3-1.884q.204-.065.51-.134.308-.073.668-.126t.76-.093q.403-.042.813-.042m5.715.503q.594-.173 1.538-.322t1.98-.15q1.055 0 1.753.276t1.105.779q.41.503.583 1.193t.173 1.539v4.669h-2.34v-4.386q0-1.131-.3-1.6-.3-.471-1.116-.471-.25 0-.534.023t-.502.053v6.38h-2.34zm11.244 3.786q0 1.086.487 1.746t1.446.66q.315 0 .58-.023.268-.023.44-.054v-4.258q-.218-.142-.575-.234-.353-.096-.713-.096-1.665 0-1.665 2.26m5.294 3.929q-.314.096-.725.184-.407.085-.856.146-.445.065-.909.104t-.886.038q-1.024 0-1.826-.296-.798-.299-1.35-.855-.55-.56-.84-1.354-.292-.794-.292-1.784 0-1.005.249-1.815.253-.81.725-1.373.472-.568 1.155-.867.687-.3 1.565-.3.487 0 .871.096.388.096.779.269v-3.74l2.34-.377zm1.8-3.802q0-1.101.338-1.926t.886-1.373q.553-.549 1.266-.833.718-.284 1.473-.284 1.758 0 2.778 1.078 1.024 1.075 1.024 3.165 0 .204-.015.45-.015.241-.034.429h-5.31q.077.725.675 1.15.599.423 1.604.423.644 0 1.262-.115.621-.12 1.017-.292l.314 1.9q-.188.095-.502.191-.315.092-.702.161-.384.073-.825.12-.438.045-.879.045-1.116 0-1.941-.33t-1.37-.901q-.54-.576-.802-1.358-.257-.787-.257-1.7m5.502-.894q-.015-.3-.104-.583-.084-.284-.264-.503-.18-.218-.457-.36-.276-.142-.683-.142-.395 0-.679.134-.28.134-.468.353t-.292.51-.15.591zm7.364 5.122q-1.02-.015-1.658-.219-.637-.207-1.009-.575-.368-.369-.502-.894-.13-.53-.13-1.19v-9.096l2.34-.376v9.004q0 .311.045.564.05.254.18.426.135.173.385.284.253.108.678.138zm4.003-.157h-2.34V76.86h2.34zm.218-10.654q0 .644-.418 1.012-.414.369-.978.369-.568 0-.986-.369-.414-.368-.414-1.012 0-.645.414-1.013.418-.372.986-.372.564 0 .978.372.418.368.418 1.013m9.71 6.506q0 .975-.284 1.784-.284.806-.817 1.381-.533.576-1.281.89-.745.311-1.673.311-.91 0-1.657-.31-.749-.315-1.282-.89-.533-.576-.832-1.382-.3-.81-.3-1.784t.307-1.776.848-1.366q.545-.568 1.29-.882.747-.315 1.626-.315.898 0 1.642.315.748.314 1.281.882.534.564.833 1.366.3.802.3 1.776m-2.39 0q0-1.085-.434-1.707-.43-.621-1.231-.621t-1.243.621q-.437.622-.437 1.707 0 1.082.437 1.72.441.636 1.243.636t1.231-.637q.434-.637.434-1.719m4.191-3.836q.595-.173 1.539-.322t1.98-.15q1.055 0 1.753.276t1.105.779q.41.503.583 1.193.172.69.172 1.539v4.669h-2.34v-4.386q0-1.131-.299-1.6-.3-.471-1.116-.471-.25 0-.534.023t-.502.053v6.38h-2.34z"/></svg>