<svg xmlns="http://www.w3.org/2000/svg" width="110" height="110"><path fill="#cfcfcf" d="M81.429 47.857q0 .298-.015.596t-.044.594-.073.592-.102.587-.13.582-.16.574-.186.566-.215.556-.241.545-.268.532-.294.519-.319.503-.343.488-.367.47-.39.45q-.2.222-.41.432-.21.211-.432.411-.22.2-.451.39-.23.189-.47.366-.24.178-.487.344-.248.165-.504.318-.255.154-.518.294t-.533.268-.544.242-.557.214q-.28.1-.565.187-.286.087-.575.159t-.581.13-.588.103-.591.072-.594.044q-.298.015-.596.015t-.596-.015-.595-.044-.591-.072-.587-.102-.582-.131-.574-.159-.566-.187-.556-.214-.545-.242-.532-.268-.519-.294-.504-.318-.487-.344-.47-.366-.45-.39-.433-.41-.41-.432-.39-.452-.367-.47-.343-.487-.319-.503-.293-.519-.268-.532-.242-.545-.214-.556-.187-.566-.16-.574q-.072-.29-.13-.582t-.102-.587-.073-.592-.044-.594-.014-.596.014-.596q.015-.297.044-.594.03-.297.073-.592.044-.294.102-.587.058-.292.13-.581.073-.29.16-.575.086-.285.187-.566.1-.28.214-.556.114-.275.242-.545.127-.27.268-.532.14-.263.293-.519.154-.255.32-.503.165-.248.342-.487.178-.24.367-.47.19-.23.39-.452.2-.22.41-.431.211-.211.432-.411.22-.2.451-.39.23-.189.47-.366.24-.178.487-.343.248-.166.504-.32.256-.152.519-.293.262-.14.532-.268.27-.127.545-.241.275-.115.556-.215.28-.1.566-.187.285-.086.574-.159.29-.072.582-.13t.587-.102.591-.073q.297-.03.595-.044.298-.015.596-.015t.596.015q.297.015.594.044t.591.073q.295.043.588.102.292.058.581.13.29.073.575.16.285.086.565.186.281.1.557.215.275.114.544.241.27.128.533.268t.518.294.504.319.487.343q.24.177.47.367.23.189.451.389t.432.41q.21.212.41.432.201.221.39.452.19.23.367.47t.343.487.319.503.294.519q.14.263.268.532.127.27.241.545.114.276.215.556.1.281.187.566.086.285.159.575.072.289.13.581.058.293.102.587.044.295.073.592.03.297.044.594.015.298.015.596"/><path fill="#fff" d="M77.143 47.857q0 .193-.01.386-.01.192-.028.384t-.047.383-.066.38-.085.376q-.046.187-.102.372-.056.184-.121.366t-.14.36-.156.352-.173.345-.19.335-.206.326-.222.316-.238.304-.252.292-.265.279-.28.266-.292.252-.304.237-.315.222-.326.206-.335.19-.345.174-.353.156-.36.139q-.18.065-.365.12-.185.057-.372.104t-.376.084-.38.066-.383.047-.385.029q-.192.01-.385.01t-.386-.01q-.192-.01-.384-.029t-.383-.047-.38-.066-.376-.084q-.188-.047-.372-.103-.185-.056-.366-.121-.182-.065-.36-.139t-.353-.156-.344-.174-.336-.19-.325-.206-.316-.222-.304-.237-.292-.252-.28-.266-.265-.28-.252-.291-.237-.304-.222-.316-.207-.326-.19-.335-.173-.345-.156-.352-.14-.36q-.064-.182-.12-.366-.056-.185-.103-.372t-.084-.376-.066-.38-.048-.383-.028-.384-.01-.386.01-.385.028-.385q.02-.192.048-.383.028-.19.066-.38.037-.189.084-.376t.103-.372.12-.366.14-.36.156-.352q.082-.175.173-.345t.19-.335q.1-.166.207-.326t.222-.315.237-.304q.122-.15.252-.292.13-.143.266-.28.136-.136.28-.266.142-.13.291-.252.15-.122.304-.237.155-.115.316-.222.16-.107.325-.206.166-.1.336-.19.17-.091.344-.174.175-.082.353-.156t.36-.139q.181-.065.366-.12.184-.057.372-.104.187-.046.376-.084t.38-.066.383-.047.384-.029.386-.009.385.01q.193.009.385.028t.383.047q.19.028.38.066.189.038.376.084t.372.103.366.121.36.14q.178.073.352.155.174.083.345.174t.335.19.326.206.315.222.304.237q.15.123.292.252.143.13.28.266.136.137.265.28.13.142.252.292.123.149.238.304t.222.315.206.326q.1.165.19.335.091.17.173.345.083.174.157.352.074.179.139.36.065.182.12.366.057.185.103.372.047.187.085.376.037.19.066.38.028.191.047.383t.028.385.01.385"/><path fill="#cfcfcf" d="M63.167 72.992q-.284.092-.571.17-.288.079-.58.142-.29.064-.584.114t-.59.084q-.296.035-.594.056-.297.02-.595.026t-.596-.003-.595-.032-.593-.061-.59-.09q-.293-.053-.583-.12-.29-.066-.578-.147-.286-.081-.569-.176t-.56-.204q-.278-.108-.55-.23t-.537-.258-.524-.283q-.26-.149-.51-.31-.251-.16-.494-.333t-.477-.357q-.234-.185-.459-.38-.225-.196-.44-.403-.214-.207-.419-.424-.204-.216-.398-.443t-.376-.463-.352-.48-.33-.497q-.157-.253-.303-.513t-.278-.527q-.133-.267-.253-.54t-.225-.552-.198-.562-.17-.571-.142-.579-.114-.585-.084-.59-.056-.593-.026-.596.003-.596.032-.595.061-.593.09-.589.12-.584.148-.577q.08-.287.175-.57.095-.282.204-.56t.23-.55.258-.537.284-.524.309-.51.333-.494.358-.477.38-.459.402-.44q.207-.214.424-.419.217-.204.443-.398.227-.193.463-.376.236-.182.48-.352.245-.17.498-.329.252-.158.512-.304t.527-.278.54-.252.552-.226.562-.198.571-.17.58-.142q.29-.064.584-.113.294-.05.59-.085t.594-.055.595-.027.596.003.595.032.593.062.59.09.583.12.578.147q.286.08.569.176.283.094.56.203t.55.23q.272.123.537.258.266.136.524.284.26.148.51.309.251.16.494.333t.477.358.459.38.44.402q.214.207.419.424.204.217.398.444.194.226.376.462t.352.48q.17.245.33.498.157.252.303.512t.278.527q.133.267.253.54.12.274.225.552.106.279.198.562t.17.572q.078.287.142.578.064.292.114.585.05.294.084.59.035.296.056.594.02.297.026.595t-.003.596-.032.595-.061.593-.09.59q-.053.293-.12.583t-.148.578q-.08.287-.175.57-.095.282-.204.56-.109.277-.23.549-.123.272-.258.537-.135.266-.284.525-.148.258-.309.51-.16.25-.333.493t-.358.477-.38.46q-.196.224-.402.439t-.424.42-.443.397-.463.376-.48.353q-.245.17-.498.328-.252.159-.512.304-.26.146-.527.279-.267.132-.54.252t-.552.225-.562.198"/><path fill="#fff" d="M61.842 68.916q-.183.06-.37.11-.185.05-.374.092-.188.042-.378.074t-.382.054-.384.036q-.192.014-.385.017t-.386-.002-.385-.02-.384-.04q-.19-.025-.38-.059t-.379-.077q-.188-.043-.373-.095-.186-.053-.369-.114t-.362-.132-.356-.149-.348-.167q-.171-.087-.339-.183-.167-.096-.33-.2-.162-.104-.32-.216-.156-.112-.308-.231-.151-.12-.297-.246-.145-.127-.284-.26-.14-.134-.272-.274t-.257-.287q-.125-.147-.243-.3-.118-.152-.228-.31-.11-.159-.213-.322-.103-.164-.197-.332t-.18-.341-.163-.35-.146-.357q-.068-.18-.128-.363-.06-.184-.11-.37t-.092-.374-.073-.379-.055-.382q-.023-.191-.036-.384-.013-.192-.017-.385t.002-.386.02-.385q.016-.192.04-.383.025-.192.059-.382t.077-.377.095-.374q.053-.186.114-.369.062-.182.132-.362t.15-.356q.078-.176.166-.347.087-.172.183-.34.096-.167.2-.33.104-.162.216-.319t.231-.309.246-.297.26-.284.275-.271.287-.258.299-.243.31-.228q.16-.11.323-.213.163-.102.331-.197.169-.094.341-.18t.35-.163q.176-.077.357-.146.18-.068.364-.128.183-.06.37-.11.185-.05.374-.092.188-.041.378-.073t.382-.055.384-.036.385-.017.386.002.385.02.384.04q.19.025.38.059t.379.077q.188.043.373.096.186.052.369.113t.362.132.356.15q.176.078.348.166t.339.183q.167.096.33.2.162.104.32.216.156.112.308.231.151.12.297.246.145.127.284.26.14.135.272.275t.257.287q.125.147.243.3.118.152.228.31t.213.322.197.332.18.34.163.35.146.357.128.364q.06.183.11.37.05.185.092.374.041.188.073.378t.055.382.036.384.017.385-.002.386-.02.385-.04.384-.059.38-.077.379-.095.373-.114.369-.132.362-.15.356-.166.348-.183.339-.2.33-.216.32-.231.308-.246.297-.26.284q-.134.14-.275.272-.14.132-.287.257-.146.126-.299.243-.153.118-.31.229-.16.11-.323.212-.163.103-.331.197-.169.094-.341.18t-.35.163q-.176.078-.357.146-.18.069-.364.128"/><path fill="#cfcfcf" d="M33.619 63.391q-.175-.24-.339-.49-.163-.25-.313-.507-.151-.257-.29-.521-.137-.264-.262-.535-.125-.27-.236-.547t-.21-.559-.18-.567-.154-.576-.125-.583-.096-.588q-.04-.295-.067-.592-.026-.297-.038-.595t-.009-.596.02-.596.05-.594.08-.59.107-.587q.06-.291.136-.58.075-.288.165-.573.09-.284.192-.564t.22-.554.247-.542.273-.53.3-.516.323-.5.348-.484q.18-.237.371-.466t.394-.447q.202-.22.415-.428.213-.209.436-.407t.455-.385q.232-.186.473-.362.241-.175.49-.338.25-.163.507-.314.258-.15.522-.289t.535-.262q.27-.125.547-.237.277-.11.558-.209.282-.097.568-.18.286-.085.576-.154.29-.07.583-.125t.588-.096.592-.067q.297-.027.595-.038.298-.012.596-.01.298.004.595.021.298.018.594.05.297.032.591.079.295.046.586.107.292.061.58.137.289.075.573.164.285.09.564.193.28.103.554.22.275.116.543.247.268.13.53.273.261.143.515.299.254.155.5.323.247.168.485.348.237.18.466.372.228.191.447.393.22.203.428.416t.406.435.385.455q.187.233.362.474.176.24.339.49t.314.507q.15.257.288.521.138.265.263.535.125.271.236.548.112.276.21.558.097.281.18.567.084.287.154.576.07.29.125.583t.096.588q.04.296.067.593.026.297.038.594.012.298.009.596t-.02.596-.05.594-.079.59-.108.587q-.06.292-.136.58-.075.289-.165.573-.089.284-.192.564t-.22.554-.247.542-.273.53-.299.516-.324.5-.348.484-.37.466-.395.448-.415.427-.435.407-.456.385-.473.362-.49.338-.507.314q-.257.15-.522.289-.264.138-.535.263-.27.124-.547.236-.276.111-.558.209t-.568.181-.576.153-.582.125q-.293.056-.589.096-.295.041-.592.068-.297.026-.595.038-.298.011-.596.008t-.595-.02-.594-.05-.591-.079q-.294-.046-.586-.107t-.58-.136q-.289-.076-.573-.165-.285-.09-.564-.193-.28-.103-.554-.22-.274-.116-.543-.246-.268-.13-.53-.274-.26-.143-.515-.298-.254-.156-.5-.324-.247-.168-.484-.348-.238-.18-.467-.371-.228-.192-.447-.394t-.428-.415-.406-.436-.385-.455-.362-.474"/><path fill="#fff" d="M37.086 60.872q-.113-.156-.219-.317t-.203-.328-.187-.337-.17-.346-.153-.355-.135-.36-.117-.368-.1-.373-.08-.377-.062-.38-.044-.384-.024-.384-.006-.386.013-.385.032-.385.051-.382.07-.38.088-.375.107-.37.124-.365.142-.359.16-.35.177-.344.193-.333.21-.324.225-.313.24-.302.255-.29q.13-.141.269-.276.137-.135.281-.263t.295-.25.306-.233.318-.22.328-.203q.166-.097.337-.186.171-.09.346-.17t.354-.153q.18-.072.361-.135.183-.064.368-.118t.372-.099.377-.08q.19-.037.381-.063t.383-.043q.192-.017.385-.025t.386-.006.385.014q.193.01.384.032.192.02.383.05.19.03.379.07t.375.089.371.106.365.125.359.142.35.16.343.176.334.194.324.21.313.224.302.24q.147.124.289.255t.277.27.263.281q.128.144.249.294.12.15.234.307.114.156.22.317.105.162.202.328t.187.337q.09.171.17.347t.153.354.135.36.117.368.1.373.08.377.063.38.043.384.025.385.005.385-.013.386q-.011.192-.032.384-.02.192-.051.382t-.07.38q-.04.188-.088.375-.049.187-.106.37-.058.185-.125.366-.067.18-.142.358-.076.177-.16.351t-.177.343q-.092.169-.193.333-.1.165-.21.324-.108.16-.225.313-.116.154-.24.302t-.255.29-.268.276-.282.263-.295.25-.306.234-.318.219-.327.203q-.167.097-.338.187-.17.089-.346.17-.175.08-.354.152t-.361.136-.368.117-.372.1-.377.08-.38.062q-.192.027-.384.044t-.385.024-.386.006-.385-.013q-.193-.012-.384-.033-.192-.02-.383-.05-.19-.03-.379-.07t-.375-.088-.37-.107-.366-.124-.358-.143-.351-.16-.343-.176-.334-.194-.324-.21-.313-.224-.301-.24-.29-.255-.277-.269-.263-.282-.249-.294q-.12-.15-.234-.307"/><path fill="#cfcfcf" d="M33.619 32.323q.175-.241.362-.474t.385-.455.406-.435q.21-.213.428-.416.219-.202.447-.393.229-.192.467-.372.237-.18.484-.347.246-.169.5-.324.254-.156.516-.3.261-.142.53-.272.268-.13.542-.247t.554-.22.564-.193.573-.164.58-.137q.292-.06.586-.107t.59-.079.595-.05q.297-.017.595-.02t.596.009q.298.011.595.038.297.026.592.067.296.04.589.096.292.055.582.125t.576.153.568.182.558.209q.277.11.547.236.271.125.535.262.265.138.522.29.257.15.506.313.25.163.491.338t.473.362.456.385.435.407.415.428q.203.218.394.447t.371.466q.18.238.348.484t.324.5.299.516.273.53.247.542q.117.275.22.554.103.28.192.564.09.285.165.573.075.289.136.58.061.292.108.587.047.294.079.59.032.297.05.594.017.298.02.596t-.009.596-.038.595-.067.592q-.04.295-.096.588-.055.293-.125.583t-.153.576-.182.568-.209.558-.236.547-.263.535-.288.521-.314.507-.339.49-.362.474-.385.455-.406.436-.428.415-.447.394-.466.371-.484.348q-.247.168-.5.324-.255.155-.516.299-.262.143-.53.273t-.543.247-.554.22-.564.192-.572.165q-.289.075-.58.136-.292.06-.587.108-.294.046-.59.078-.297.032-.595.05-.297.018-.595.02t-.596-.008-.595-.038-.592-.067-.588-.097-.583-.124-.576-.154q-.286-.083-.568-.181t-.558-.21-.547-.235-.535-.263-.522-.289q-.257-.15-.506-.314-.25-.163-.49-.338-.242-.175-.474-.362t-.455-.385-.436-.407q-.213-.208-.415-.427-.203-.22-.394-.448t-.371-.466-.348-.484-.324-.5q-.156-.254-.299-.516-.143-.261-.273-.53-.13-.268-.247-.542t-.22-.554-.192-.564-.165-.573-.136-.58-.108-.586-.079-.591-.05-.594-.02-.596.01-.596q.01-.297.037-.594t.067-.593q.041-.295.096-.588.056-.293.125-.582.07-.29.154-.576.083-.287.18-.568.099-.282.21-.558t.236-.548q.125-.27.263-.534.138-.265.289-.522t.313-.507q.164-.249.339-.49"/><path fill="#fff" d="M37.086 34.842q.113-.156.234-.306t.25-.295.262-.282.277-.268.29-.255.301-.24.313-.226.324-.21.334-.192.343-.177.35-.16.36-.142.364-.125.37-.106q.187-.05.376-.089t.38-.07q.19-.03.382-.05.191-.021.384-.032.193-.012.385-.014.193-.001.386.006.193.008.385.025t.383.043.38.062.378.081.372.1q.186.054.368.117t.361.135.354.153.346.17.338.187.327.203.318.219.306.234q.15.12.295.249.144.128.282.263t.268.277.255.29q.124.147.24.301.117.154.225.313.11.16.21.324t.193.334.177.342q.084.174.16.351.075.178.142.359.067.18.125.365.057.184.106.37.049.187.088.376.04.189.07.38.03.19.051.381.02.192.032.385.011.192.013.385t-.005.386-.025.385-.043.383-.063.38-.08.377q-.045.188-.1.373-.054.185-.117.367-.063.183-.135.362t-.153.354-.17.346-.187.337-.203.328-.219.318-.234.306-.25.294-.262.282q-.135.138-.277.269-.142.13-.29.255-.147.123-.301.24t-.313.225q-.16.109-.324.21-.165.1-.334.193-.169.092-.342.177t-.351.16-.359.142q-.18.066-.365.124-.184.058-.37.107-.187.048-.376.088t-.38.07-.382.05-.384.033-.385.013-.386-.006q-.193-.007-.385-.024t-.383-.044-.38-.062-.378-.08q-.187-.046-.372-.1t-.368-.117-.36-.136-.355-.152-.346-.17q-.171-.09-.337-.187-.167-.098-.328-.203-.162-.106-.318-.22-.156-.113-.306-.234-.15-.12-.295-.249-.144-.128-.281-.263t-.27-.276-.254-.29-.24-.302-.225-.313-.21-.323-.193-.334-.177-.343-.16-.35-.142-.36-.124-.364-.107-.37q-.049-.188-.088-.376-.04-.19-.07-.38t-.05-.382-.033-.384q-.011-.193-.013-.386t.006-.385.024-.385.044-.383.062-.38.08-.378.1-.373.117-.367.135-.361q.072-.18.153-.354.08-.175.17-.346t.187-.338.203-.328.219-.317"/><path fill="#cfcfcf" d="M63.167 22.722q.283.092.562.198t.552.225.54.253.527.278.512.304.498.329.48.352.463.376.443.398.424.42.402.44.38.458.358.477.333.494.31.51.283.524.257.537.231.55.204.56.175.57.148.577.12.584.09.59.06.592q.024.297.033.595t.003.596-.026.595q-.02.298-.056.594-.035.296-.084.59-.05.294-.114.585t-.142.579-.17.571-.198.562-.225.552q-.12.273-.253.54-.132.267-.278.527t-.304.513-.329.497q-.17.244-.352.48t-.376.463-.398.443-.42.424-.44.402q-.224.196-.458.38-.234.185-.477.358t-.494.334q-.25.16-.51.308-.258.149-.524.284-.265.135-.537.257-.272.123-.55.231-.277.109-.56.204t-.57.176q-.286.08-.577.147-.29.067-.584.12-.293.052-.589.09t-.593.061-.595.032-.596.003-.595-.026-.594-.056-.59-.084-.585-.114-.579-.142q-.287-.078-.57-.17-.284-.092-.563-.198t-.552-.225-.54-.252-.527-.279-.512-.304-.498-.328q-.244-.17-.48-.353t-.463-.376-.443-.398-.424-.42-.402-.439-.38-.459-.358-.477-.333-.494-.31-.51q-.148-.258-.283-.524-.135-.265-.257-.537t-.231-.55-.204-.56q-.095-.282-.175-.57-.081-.286-.148-.577-.067-.29-.12-.584-.052-.293-.09-.589t-.06-.593q-.024-.297-.033-.595t-.003-.596.026-.595q.02-.298.056-.594.035-.296.084-.59.05-.294.114-.585.064-.29.142-.579.078-.287.17-.57.092-.284.198-.563t.225-.552.253-.54.278-.527.304-.512.329-.498q.17-.244.352-.48t.376-.463.398-.443.42-.424.44-.402q.224-.196.458-.38.234-.185.477-.358t.494-.333.51-.31.524-.283.537-.257.55-.231.56-.204.57-.175.577-.148.584-.12.589-.09.593-.06.595-.033.596-.003.595.026.594.056.59.084.585.114.579.142.57.17"/><path fill="#fff" d="M61.842 26.798q.184.06.364.128.18.069.357.146t.35.163.34.18q.169.095.332.197.164.102.322.213.158.11.311.228t.3.243.286.258.274.27q.134.14.26.285.127.146.247.297.12.152.231.309t.216.32.2.33.183.339q.088.171.167.347t.15.356q.07.18.13.362.062.183.115.369.052.186.095.373.043.188.077.378t.059.382q.024.19.04.383.015.192.02.385t.002.386-.017.385-.036.384-.055.382-.073.378-.092.375-.11.37-.128.363-.146.357-.163.35q-.086.172-.18.34-.094.17-.197.333-.102.163-.213.321-.11.158-.228.311t-.243.3-.257.286-.272.274-.284.26q-.146.128-.297.247-.152.12-.309.231t-.32.216-.33.2-.338.183-.348.167-.356.15-.362.131-.369.114q-.185.052-.373.095t-.378.077-.381.059-.384.04-.385.02-.386.002-.385-.017q-.192-.013-.384-.036-.192-.022-.382-.054t-.378-.074-.375-.092q-.186-.05-.37-.11-.183-.06-.363-.128t-.357-.146-.35-.163q-.172-.086-.34-.18t-.332-.197q-.164-.102-.322-.212t-.311-.229-.3-.243-.286-.257q-.14-.133-.274-.272t-.26-.284-.247-.297q-.12-.152-.231-.309t-.216-.32-.2-.33-.183-.338-.167-.348-.15-.356-.13-.362q-.062-.183-.115-.369-.052-.185-.095-.373t-.077-.378-.059-.381-.04-.384-.02-.385-.002-.386.017-.385q.013-.192.036-.384.023-.191.055-.382.032-.19.073-.378.041-.189.092-.375t.11-.37q.06-.183.128-.363.069-.18.146-.357t.163-.35.18-.34.197-.332.213-.322.228-.31q.118-.154.243-.3.125-.147.257-.287.133-.14.272-.274t.284-.26.297-.247q.152-.12.309-.231t.32-.216.33-.2.338-.183.348-.167.356-.15.362-.13q.183-.062.369-.115.185-.052.373-.095t.378-.077.381-.059.384-.04.385-.02.386-.002.385.017q.192.013.384.036t.382.055.378.073.375.092.37.11"/><path fill="none" stroke="#000" stroke-linejoin="round" stroke-width="2.4" d="M41.07 84.035v2.68h-9.258V72.854h3.12v11.182zm4.78 2.68H42.87V76.199h2.979zm.278-13.559q0 .82-.532 1.29-.527.468-1.245.468-.723 0-1.255-.469-.527-.469-.527-1.289t.527-1.289q.532-.474 1.255-.474.718 0 1.245.474.532.469.532 1.29Zm5.062 7.96q0 2.5 2.022 2.5.459 0 .86-.118.4-.122.678-.283v-4.761q-.22-.04-.522-.068-.298-.03-.699-.03-1.181 0-1.762.782-.577.776-.577 1.977Zm6.539 4.281q0 2.578-1.31 3.828-1.308 1.25-4.047 1.25-.962 0-1.924-.17-.957-.171-1.777-.45l.517-2.5q.704.279 1.47.44.772.16 1.753.16 1.28 0 1.807-.56.532-.557.532-1.441v-.376q-.478.22-.991.332-.508.107-1.109.107-2.182 0-3.344-1.289-1.158-1.294-1.158-3.613 0-1.157.362-2.11.361-.951 1.05-1.63.688-.679 1.689-1.05t2.26-.371q.543 0 1.11.054.57.049 1.127.132.562.078 1.07.19.512.107.913.225zm2.802 1.319v-15.04l2.979-.478v5.04q.298-.103.766-.191.474-.093.914-.093 1.279 0 2.129.352.85.351 1.357.99.513.64.723 1.52.21.878.21 1.957v5.943H66.63v-5.581q0-1.44-.371-2.036-.371-.601-1.367-.601-.4 0-.752.068-.352.069-.63.152v7.998zm11.678-13.14 2.983-.478v3.1h3.58v2.476h-3.58v3.7q0 .943.327 1.505.332.556 1.333.556.479 0 .987-.087.512-.093.932-.254l.42 2.324q-.542.22-1.2.376-.66.161-1.622.161-1.22 0-2.022-.327-.795-.332-1.279-.923-.478-.59-.669-1.43-.19-.84-.19-1.861z"/><path fill="#fff" d="M41.07 84.035v2.68h-9.258V72.854h3.12v11.182zm4.78 2.68H42.87V76.199h2.979zm.278-13.559q0 .82-.532 1.29-.527.468-1.245.468-.723 0-1.255-.469-.527-.469-.527-1.289t.527-1.289q.532-.474 1.255-.474.718 0 1.245.474.532.469.532 1.29m5.062 7.96q0 2.5 2.022 2.5.459 0 .86-.118.4-.122.678-.283v-4.761q-.22-.04-.522-.068-.298-.03-.699-.03-1.181 0-1.762.782-.577.776-.577 1.977m6.539 4.281q0 2.578-1.31 3.828-1.308 1.25-4.047 1.25-.962 0-1.924-.17-.957-.171-1.777-.45l.517-2.5q.704.279 1.47.44.772.16 1.753.16 1.28 0 1.807-.56.532-.557.532-1.441v-.376q-.478.22-.991.332-.508.107-1.109.107-2.182 0-3.344-1.289-1.158-1.294-1.158-3.613 0-1.157.362-2.11.361-.951 1.05-1.63.688-.679 1.689-1.05t2.26-.371q.543 0 1.11.054.57.049 1.127.132.562.078 1.07.19.512.107.913.225zm2.802 1.319v-15.04l2.979-.478v5.04q.298-.103.766-.191.474-.093.914-.093 1.279 0 2.129.352.85.351 1.357.99.513.64.723 1.52.21.878.21 1.957v5.943H66.63v-5.581q0-1.44-.371-2.036-.371-.601-1.367-.601-.4 0-.752.068-.352.069-.63.152v7.998zm11.678-13.14 2.983-.478v3.1h3.58v2.476h-3.58v3.7q0 .943.327 1.505.332.556 1.333.556.479 0 .987-.087.512-.093.932-.254l.42 2.324q-.542.22-1.2.376-.66.161-1.622.161-1.22 0-2.022-.327-.795-.332-1.279-.923-.478-.59-.669-1.43-.19-.84-.19-1.861z"/></svg>