<svg xmlns="http://www.w3.org/2000/svg" width="110" height="110"><path fill="#7d5b1f" d="M47.857 36.429h14.286l-1.429 54.285H49.286z"/><path fill="#654a19" d="M47.857 34.286h14.286q.105 0 .21.01t.208.03.204.052q.1.03.198.07.097.041.19.09.093.05.18.109.088.058.17.125.08.067.155.141.075.075.141.156.067.082.126.169t.108.18.09.19q.04.098.07.199.031.1.052.204t.03.208.01.21v.056l-1.429 54.286q-.002.103-.015.206t-.035.204q-.023.1-.055.199-.032.098-.074.193t-.091.185-.11.176-.126.164q-.066.08-.14.151-.075.073-.155.137-.081.065-.168.122-.086.056-.178.104t-.188.087q-.096.04-.195.069t-.2.05q-.102.02-.205.03t-.207.01H49.286q-.104 0-.207-.01t-.204-.03-.201-.05q-.1-.03-.195-.069-.096-.039-.188-.087t-.178-.104-.168-.122-.154-.137-.141-.151q-.067-.08-.126-.164-.06-.085-.11-.176t-.091-.185-.074-.193-.055-.2q-.022-.1-.035-.203t-.015-.206l-1.429-54.286q-.003-.105.005-.21.007-.105.025-.209t.046-.205.066-.2q.037-.098.084-.193.048-.094.104-.183t.12-.172.138-.16.152-.145.165-.13.178-.112q.091-.052.187-.095t.196-.076.203-.056.207-.037q.105-.013.21-.016zm0 4.285V36.43L50 36.372l1.429 54.286-2.142.056v-2.143h11.428v2.143l-2.142-.056 1.429-54.286 2.142.057v2.142z"/><path fill="#888" d="M27.857 49.286Q25 33.57 26.43 22.143q28.571-1.429 57.142 0Q85 33.57 82.143 49.286z"/><path fill="#6e6e6e" d="M25.749 49.669q-2.916-16.037-1.447-27.792.024-.186.079-.365.055-.18.14-.346.086-.167.2-.317.112-.15.25-.277.137-.127.295-.229t.33-.175.355-.114.37-.051q28.679-1.434 57.357 0 .188.009.37.05.183.043.356.115t.33.175.295.23.25.276.2.317q.085.167.14.346t.079.365q1.469 11.755-1.447 27.792-.033.184-.098.359t-.159.337q-.094.16-.214.304-.12.142-.264.262-.143.12-.305.213t-.338.156-.36.096q-.183.033-.37.033H27.857q-.187 0-.37-.033-.185-.032-.36-.096-.176-.063-.338-.156t-.305-.213-.264-.262-.214-.304q-.094-.162-.159-.337t-.098-.359m4.216-.767-2.108.384v-2.143h54.286v2.143l-2.108-.384q2.798-15.39 1.41-26.493l2.126-.266-.107 2.14q-28.464-1.423-56.928 0l-.107-2.14 2.126.266q-1.388 11.102 1.41 26.493"/><path fill="#6e6e6e" d="M69.286 35q0 .35-.017.701-.018.35-.052.7-.034.348-.086.695t-.12.691q-.068.344-.153.684-.086.34-.187.676t-.22.666-.253.654-.284.64q-.15.318-.315.627-.165.31-.346.61-.18.301-.375.593-.195.291-.404.573t-.431.553-.458.53-.483.509-.508.483-.531.458-.553.431-.573.404-.593.375-.61.346-.626.315-.641.284-.654.253-.666.22-.676.187-.684.153q-.344.069-.69.12-.348.052-.697.086t-.699.052q-.35.017-.701.017-.35 0-.701-.018-.35-.017-.7-.051-.348-.034-.695-.086t-.691-.12q-.344-.068-.684-.153-.34-.086-.676-.187t-.666-.22-.654-.253-.64-.284q-.318-.15-.627-.315-.31-.165-.61-.346-.301-.18-.593-.375-.291-.195-.573-.404t-.553-.431-.53-.458-.509-.483-.483-.508-.458-.531-.431-.553-.404-.573-.375-.593-.346-.61-.315-.626-.284-.641-.253-.654-.22-.666-.187-.676-.153-.684q-.069-.344-.12-.69-.052-.348-.086-.697t-.052-.699q-.017-.35-.017-.701 0-.35.017-.701.018-.35.052-.7.034-.348.086-.695t.12-.691q.068-.344.153-.684.086-.34.187-.676t.22-.666.253-.654.284-.64q.15-.318.315-.627.165-.31.346-.61.18-.301.375-.593.195-.291.404-.573t.431-.553.458-.53.483-.509.508-.483.531-.458.553-.431.573-.404.593-.375.61-.346.626-.315.641-.284.654-.253.666-.22.676-.187.684-.153q.344-.069.69-.12.348-.052.697-.086t.699-.052q.35-.017.701-.017.35 0 .701.018.35.017.7.051.348.034.695.086t.691.12q.344.068.684.153.34.086.676.187t.666.22.654.253.64.284q.318.15.627.315.31.165.61.346.301.18.593.375.291.195.573.404t.553.431.53.458.509.483.483.508.458.531.431.553.404.573.375.593.346.61.315.626.284.641.253.654.22.666.187.676.153.684q.069.344.12.69.052.348.086.697t.052.699q.017.35.017.701"/><path fill="#29f2e5" d="m60 35 4.51 3.09-5.465-.151 1.833 5.151-4.333-3.335L55 45l-1.545-5.245-4.333 3.335 1.833-5.151-5.466.151L50 35l-4.51-3.09 5.465.151-1.833-5.151 4.333 3.335L55 25l1.545 5.245 4.333-3.335-1.833 5.151 5.466-.151z"/><path fill="#21c4b9" d="m60.283 34.588 5.91 4.049-7.162-.198.014-.5.471-.168 2.402 6.75-5.678-4.37.305-.396.48.142L55 46.769l-2.025-6.872.48-.142.305.397-5.678 4.37 2.402-6.75.47.167.015.5-7.162.198 5.91-4.05L50 35l-.283.412-5.91-4.049 7.162.198-.014.5-.471.168-2.402-6.75 5.678 4.37-.305.396-.48-.142L55 23.231l2.025 6.872-.48.142-.305-.397 5.678-4.37-2.402 6.75-.47-.167-.015-.5 7.162-.198-5.91 4.05L60 35zM59.115 35l5.113-3.503.283.413.013.5-6.195.171 2.078-5.839.47.168.306.396-4.911 3.78-1.752-5.945L55 25l.48.141-1.752 5.945-4.91-3.78.304-.396.471-.168 2.078 5.84-6.195-.172.013-.5.283-.413L50.885 35l-5.113 3.503-.283-.413-.013-.5 6.195-.171-2.078 5.839-.47-.168-.306-.396 4.911-3.78 1.752 5.945L55 45l-.48-.141 1.752-5.945 4.91 3.78-.304.396-.471.168-2.078-5.84 6.195.172-.013.5-.283.413-4.51-3.09z"/><path fill="none" stroke="#000" stroke-linejoin="round" stroke-width="2.4" d="M26.188 72.853q.362.664.83 1.636.474.967.982 2.1.508 1.128 1.006 2.31.503 1.176.942 2.216.444-1.04.942-2.217.498-1.181 1.006-2.31.513-1.132.982-2.099.473-.972.83-1.636h2.842q.2 1.382.37 3.096.172 1.71.299 3.56.131 1.845.239 3.706.112 1.86.19 3.5h-3.037q-.063-2.02-.16-4.399-.099-2.383-.299-4.8l-.8 1.86q-.44 1.021-.875 2.042-.43 1.015-.83 1.948l-.678 1.592H28.79q-.283-.664-.684-1.592l-.825-1.948q-.43-1.02-.874-2.041-.44-1.02-.796-1.86-.2 2.416-.303 4.8-.097 2.377-.16 4.399H22.11q.078-1.64.186-3.501.112-1.86.239-3.706.132-1.85.303-3.56.17-1.714.37-3.096zM39.27 90.417q-.278 0-.83-.064-.552-.058-1.03-.22l.4-2.416q.298.097.552.136.249.044.63.044.698 0 .976-.42.283-.42.283-1.22V76.198h2.979v10.137q0 2.08-1.02 3.08-1.021 1.002-2.94 1.002Zm4.238-17.26q0 .82-.532 1.288-.527.469-1.245.469-.723 0-1.255-.469-.527-.469-.527-1.289t.527-1.289q.532-.474 1.255-.474.718 0 1.245.474.532.469.532 1.29Zm12.362 8.28q0 1.24-.361 2.27-.361 1.026-1.04 1.759t-1.631 1.133q-.947.395-2.129.395-1.157 0-2.11-.395-.951-.4-1.63-1.133t-1.06-1.758q-.38-1.03-.38-2.27t.39-2.261q.39-1.02 1.08-1.739.693-.722 1.64-1.123.952-.4 2.07-.4 1.143 0 2.09.4.952.4 1.63 1.123.68.718 1.06 1.739.381 1.02.381 2.26Zm-3.042 0q0-1.381-.552-2.172-.546-.791-1.567-.791t-1.582.79q-.557.792-.557 2.173 0 1.377.557 2.188.562.81 1.582.81t1.567-.81q.552-.81.552-2.188Zm-4.36-6.762q-.62 0-1.08-.41-.458-.41-.458-1.109 0-.698.459-1.108t1.079-.41 1.079.41.459 1.108-.459 1.109-1.08.41Zm4.458 0q-.62 0-1.08-.41-.458-.41-.458-1.109 0-.698.459-1.108t1.079-.41 1.079.41q.464.41.464 1.108t-.464 1.109q-.459.41-1.08.41Zm9.445 12.24q-1.3-.019-2.11-.277-.81-.264-1.284-.733-.469-.469-.64-1.138-.166-.673-.166-1.513V71.677l2.979-.479v11.46q0 .396.058.718.064.322.23.542.17.22.488.361.323.137.865.176zm2.12-10.36q.757-.22 1.958-.41 1.201-.191 2.52-.191 1.343 0 2.231.352.889.351 1.407.99.522.64.742 1.52.22.878.22 1.957v5.943H70.59v-5.581q0-1.44-.38-2.036-.382-.601-1.422-.601-.317 0-.678.03t-.64.068v8.12H64.49zm14.759 10.16H76.27V76.199h2.979zm.278-13.559q0 .82-.532 1.29-.527.468-1.245.468-.723 0-1.255-.469-.527-.469-.527-1.289t.527-1.289q.532-.474 1.255-.474.718 0 1.245.474.532.469.532 1.29Zm8.861 5.679q-.4-.098-.942-.205-.537-.113-1.157-.113-.279 0-.67.05-.39.048-.59.107v8.042H82.05v-9.961q.801-.279 1.89-.528 1.089-.253 2.427-.253.244 0 .58.034.343.029.68.078.341.049.678.122.342.068.586.166z"/><path fill="#fff" d="M26.188 72.853q.362.664.83 1.636.474.967.982 2.1.508 1.128 1.006 2.31.503 1.176.942 2.216.444-1.04.942-2.217.498-1.181 1.006-2.31.513-1.132.982-2.099.473-.972.83-1.636h2.842q.2 1.382.37 3.096.172 1.71.299 3.56.131 1.845.239 3.706.112 1.86.19 3.5h-3.037q-.063-2.02-.16-4.399-.099-2.383-.299-4.8l-.8 1.86q-.44 1.021-.875 2.042-.43 1.015-.83 1.948l-.678 1.592H28.79q-.283-.664-.684-1.592l-.825-1.948q-.43-1.02-.874-2.041-.44-1.02-.796-1.86-.2 2.416-.303 4.8-.097 2.377-.16 4.399H22.11q.078-1.64.186-3.501.112-1.86.239-3.706.132-1.85.303-3.56.17-1.714.37-3.096zM39.27 90.417q-.278 0-.83-.064-.552-.058-1.03-.22l.4-2.416q.298.097.552.136.249.044.63.044.698 0 .976-.42.283-.42.283-1.22V76.198h2.979v10.137q0 2.08-1.02 3.08-1.021 1.002-2.94 1.002m4.238-17.26q0 .82-.532 1.288-.527.469-1.245.469-.723 0-1.255-.469-.527-.469-.527-1.289t.527-1.289q.532-.474 1.255-.474.718 0 1.245.474.532.469.532 1.29m12.362 8.28q0 1.24-.361 2.27-.361 1.026-1.04 1.759t-1.631 1.133q-.947.395-2.129.395-1.157 0-2.11-.395-.951-.4-1.63-1.133t-1.06-1.758q-.38-1.03-.38-2.27t.39-2.261q.39-1.02 1.08-1.739.693-.722 1.64-1.123.952-.4 2.07-.4 1.143 0 2.09.4.952.4 1.63 1.123.68.718 1.06 1.739.381 1.02.381 2.26m-3.042 0q0-1.381-.552-2.172-.546-.791-1.567-.791t-1.582.79q-.557.792-.557 2.173 0 1.377.557 2.188.562.81 1.582.81t1.567-.81q.552-.81.552-2.188m-4.36-6.762q-.62 0-1.08-.41-.458-.41-.458-1.109 0-.698.459-1.108t1.079-.41 1.079.41.459 1.108-.459 1.109-1.08.41m4.458 0q-.62 0-1.08-.41-.458-.41-.458-1.109 0-.698.459-1.108t1.079-.41 1.079.41q.464.41.464 1.108t-.464 1.109q-.459.41-1.08.41m9.445 12.24q-1.3-.019-2.11-.277-.81-.264-1.284-.733-.469-.469-.64-1.138-.166-.673-.166-1.513V71.677l2.979-.479v11.46q0 .396.058.718.064.322.23.542.17.22.488.361.323.137.865.176zm2.12-10.36q.757-.22 1.958-.41 1.201-.191 2.52-.191 1.343 0 2.231.352.889.351 1.407.99.522.64.742 1.52.22.878.22 1.957v5.943H70.59v-5.581q0-1.44-.38-2.036-.382-.601-1.422-.601-.317 0-.678.03t-.64.068v8.12H64.49zm14.759 10.16H76.27V76.199h2.979zm.278-13.559q0 .82-.532 1.29-.527.468-1.245.468-.723 0-1.255-.469-.527-.469-.527-1.289t.527-1.289q.532-.474 1.255-.474.718 0 1.245.474.532.469.532 1.29m8.861 5.679q-.4-.098-.942-.205-.537-.113-1.157-.113-.279 0-.67.05-.39.048-.59.107v8.042H82.05v-9.961q.801-.279 1.89-.528 1.089-.253 2.427-.253.244 0 .58.034.343.029.68.078.341.049.678.122.342.068.586.166z"/></svg>