<svg xmlns="http://www.w3.org/2000/svg" width="110" height="110"><path fill="#6d6d6d" d="M76.321 49.996q-.052.524-.13 1.044t-.182 1.036-.232 1.026-.283 1.013-.331.998-.38.98q-.203.486-.429.961t-.474.939-.52.914q-.272.45-.565.888-.293.436-.607.858t-.648.828-.689.796q-.354.389-.726.76-.373.371-.763.724-.39.352-.798.685-.407.333-.83.646-.424.313-.861.604-.438.291-.89.561t-.916.517-.94.471-.963.424-.982.377-1 .328-1.013.279-1.027.228-1.036.178-1.045.127-1.049.076-1.051.024-1.052-.028-1.048-.08-1.044-.13-1.036-.182-1.026-.232-1.013-.282-.998-.332-.98-.38-.961-.428-.939-.475-.914-.52-.888-.564q-.436-.294-.858-.608t-.828-.648-.796-.689q-.389-.354-.76-.726-.371-.373-.724-.763-.352-.39-.685-.798-.333-.407-.646-.83-.312-.423-.604-.861-.291-.438-.56-.89t-.518-.916-.47-.94-.425-.963-.377-.982-.328-.999-.279-1.014-.228-1.027-.178-1.036-.127-1.044-.076-1.05-.024-1.051.028-1.051.08-1.05.13-1.043.182-1.036.232-1.026.283-1.013.331-.998.38-.98.429-.961.474-.939.52-.914q.272-.45.565-.887t.607-.86.648-.827q.335-.406.689-.795.354-.39.726-.76.373-.372.763-.725.39-.352.798-.685.407-.333.83-.646.424-.312.861-.604.438-.291.89-.56t.916-.518.94-.47.963-.425.982-.377 1-.328 1.013-.279 1.027-.228 1.036-.178 1.045-.127 1.049-.075 1.051-.024q.526 0 1.052.027.525.027 1.048.08.524.052 1.044.13t1.036.182 1.026.232 1.013.283.998.331.98.38q.486.203.961.429t.939.474.914.52q.45.272.888.565.436.293.858.607t.828.648.796.689q.389.354.76.727.371.372.724.763.352.39.685.797t.646.83q.312.424.604.862.291.437.56.89.27.45.518.915.247.465.47.94.225.477.425.963t.377.982q.176.495.328 1 .152.503.279 1.013t.228 1.027.178 1.037q.077.52.127 1.044.05.523.076 1.049t.024 1.051-.028 1.052-.08 1.048"/><path fill="#878787" d="M75.855 49.95q-.051.512-.128 1.02-.076.51-.177 1.014-.102.504-.228 1.003t-.276.991-.324.976q-.175.484-.372.96-.198.474-.419.94-.22.464-.464.917-.244.454-.509.894-.265.441-.552.869-.286.427-.594.84-.307.412-.634.81-.327.397-.674.777-.346.38-.71.744-.365.363-.747.708-.381.345-.78.67-.398.326-.812.632t-.842.59-.87.55-.896.505q-.455.242-.92.46-.466.22-.941.416-.476.196-.96.369-.486.172-.978.32-.493.149-.992.273-.5.124-1.004.224-.505.1-1.014.174-.51.074-1.022.124t-1.026.074-1.028.023q-.515-.001-1.029-.027t-1.025-.078-1.021-.128q-.51-.076-1.014-.177-.504-.102-1.003-.228t-.99-.276q-.493-.15-.977-.324t-.96-.372q-.474-.198-.939-.419t-.918-.464-.894-.509-.868-.552q-.428-.286-.84-.594-.413-.307-.81-.634t-.778-.673q-.38-.347-.744-.711-.363-.365-.708-.747-.345-.381-.67-.78-.326-.398-.632-.812t-.59-.842-.55-.87-.505-.896q-.242-.455-.46-.92-.22-.466-.416-.941-.196-.476-.368-.96-.173-.486-.321-.978-.149-.493-.273-.992-.124-.5-.224-1.004-.099-.505-.174-1.014-.074-.51-.124-1.022t-.073-1.026q-.025-.514-.024-1.028.001-.515.027-1.029.027-.513.078-1.025t.128-1.021q.076-.509.177-1.013.102-.505.228-1.004t.276-.99.324-.977q.175-.484.372-.96.198-.474.419-.939t.464-.918.509-.894.552-.868q.286-.428.594-.84.307-.413.634-.81t.674-.778.71-.744.747-.708.78-.67.812-.632.842-.59.87-.55.896-.505.92-.46.941-.416.96-.368q.486-.173.978-.321.493-.149.992-.273.5-.124 1.004-.223.505-.1 1.014-.174.51-.075 1.022-.125.512-.049 1.026-.073.514-.025 1.028-.024.515.001 1.029.027.514.027 1.025.078.512.051 1.021.128.51.076 1.014.178.504.1 1.003.227.499.126.99.276.493.15.977.324t.96.372q.474.198.939.42.465.22.918.463t.894.509.868.552.84.594.81.634q.397.327.778.674.38.346.744.71.363.365.708.747t.67.78.632.812.59.842.55.87.505.896.46.92.416.941.368.961.321.977.273.992.224 1.005q.099.504.174 1.014.074.509.124 1.02.05.513.073 1.027.025.514.024 1.028-.001.515-.027 1.029-.027.514-.078 1.026"/><path fill="#7c7c7c" fill-rule="evenodd" d="M75.432 52.533q.292-1.278.423-2.583.098-.975.104-1.954.007-.98-.078-1.955-.263-.071-.535-.098-.08-.008-.162-.013-.081-.004-.163-.004-.08 0-.162.004t-.163.012-.161.02q-.08.01-.16.027-.08.015-.16.035-.079.02-.157.043-.078.024-.154.051-.077.027-.152.058t-.15.066-.145.073-.141.08-.138.087-.133.093-.129.1-.123.106-.118.112-.113.118-.106.123-.1.128q-.05.065-.095.133t-.087.137q-.042.07-.08.142-.04.072-.074.145-.035.074-.066.149-.032.075-.06.152-.027.076-.05.154t-.044.157-.036.159-.028.16-.02.162q-.009.08-.013.162-.004.081-.004.163 0 .081.004.162.003.082.011.163.008.08.02.161.012.08.027.16.016.08.036.16.02.079.043.157t.05.154.059.152.066.15.073.145.08.142q.041.07.086.137.046.068.094.133.048.066.1.129.051.063.106.123.054.06.112.119.057.057.118.112t.123.107.128.1.133.094.137.087.142.08q.071.04.145.074.073.035.149.066.075.032.151.06.077.027.155.05t.157.044.158.036.16.028q.081.013.162.02.374.038.748-.009M69.928 62.57q-.057-.08-.117-.16l-.121-.156q-.062-.077-.126-.153-.064-.075-.13-.149-.065-.074-.133-.146-.067-.072-.137-.142l-.141-.139q-.071-.068-.145-.135-.073-.066-.148-.13-.075-.065-.151-.128l-.155-.123-.158-.118q-.08-.059-.162-.115-.081-.056-.164-.11t-.167-.106-.17-.101-.172-.097-.175-.092-.177-.088l-.18-.083q-.09-.04-.182-.077-.091-.038-.183-.074l-.186-.068q-.093-.033-.187-.063t-.19-.058-.19-.054-.192-.048-.193-.043q-.096-.02-.194-.038-.097-.017-.195-.032-.097-.016-.195-.028l-.197-.022q-.172-.018-.345-.027t-.346-.01-.346.005-.345.022-.344.038q-.171.022-.342.053-.17.03-.339.07-.168.038-.335.085-.167.046-.331.1t-.326.116-.32.13-.314.146-.307.16-.299.174-.29.188q-.144.097-.282.201-.107.02-.213.045t-.211.051-.21.057q-.105.03-.208.064-.104.033-.206.07-.102.036-.204.076-.101.039-.201.081l-.2.088q-.098.046-.195.094-.098.048-.194.1-.096.05-.19.105-.095.054-.187.11-.093.057-.184.117l-.18.121q-.09.063-.177.127-.087.065-.172.133-.086.067-.169.137t-.165.142l-.16.147q-.079.075-.155.152-.077.077-.152.156-.074.08-.146.161-.072.082-.142.165-.07.084-.136.17-.067.085-.132.172-.064.088-.126.177-.062.09-.121.181-.06.091-.116.184t-.11.188-.104.19l-.1.194q-.047.098-.092.197-.115-.44-.287-.861l.103-.045.1-.049.1-.052q.05-.026.098-.055.048-.028.095-.058.048-.03.094-.062l.091-.065.09-.067.087-.071.084-.074q.042-.037.082-.076l.08-.08.076-.08q.038-.042.074-.085l.071-.087q.035-.044.068-.089.034-.045.065-.09l.062-.094.06-.096.055-.097q.027-.049.052-.099l.05-.1.045-.103.042-.104q.02-.052.038-.105.019-.053.035-.107.017-.053.032-.107t.028-.109.024-.11q.011-.054.02-.11.01-.055.017-.11.008-.056.013-.112.008-.081.013-.163t.004-.164-.004-.164-.012-.164-.02-.162-.027-.162-.036-.16-.043-.158-.051-.156-.06-.153q-.03-.076-.065-.15-.035-.075-.074-.147t-.08-.143q-.042-.07-.088-.139-.045-.068-.094-.134t-.1-.13q-.053-.063-.108-.124-.055-.06-.113-.119-.057-.058-.118-.113t-.124-.107-.13-.102q-.065-.049-.133-.094-.068-.046-.139-.088-.07-.043-.142-.081-.072-.04-.147-.074-.074-.036-.15-.067-.075-.032-.152-.06t-.156-.051-.158-.044-.16-.036-.161-.029-.163-.02q-.072-.007-.144-.011-.073-.005-.145-.006-.073 0-.145.002t-.144.007q-.073.005-.145.014-.071.008-.143.02-.071.011-.142.026t-.141.032-.14.039q-.07.02-.138.044t-.135.05q-.068.027-.134.056t-.13.062-.129.068-.125.073q-.061.037-.122.078-.06.04-.118.083t-.114.089-.11.093-.107.098-.102.103-.098.107-.093.11l-.088.116q-.042.058-.082.119t-.078.122q-.038.062-.072.125-.035.064-.067.129-.032.064-.061.13-.03.067-.056.135-.026.067-.05.135-.023.069-.043.138-.579-.162-1.177-.222-.129-.013-.258-.021-.13-.009-.26-.012-.129-.003-.259-.001-.13.001-.259.008-.13.007-.259.018-.129.012-.257.028-.129.016-.257.038-.128.02-.255.047-.127.026-.253.056t-.25.067-.249.075-.245.085-.241.095-.238.103-.234.112-.23.12-.224.13-.22.138q-.108.07-.214.146t-.209.154q-.103.079-.202.162-.1.082-.197.169-.097.086-.19.176t-.183.184-.176.19-.169.197-.161.203-.154.21q-.074.105-.145.214t-.137.22q-.067.111-.13.225-.062.114-.12.23.303.26.616.508.313.249.634.485.322.236.653.46.33.224.67.435.338.21.685.409.346.198.7.383.354.184.715.355.36.171.728.329.367.157.74.3.372.143.75.272t.76.243q.383.114.77.214.386.1.776.185t.783.154.789.125q.395.055.793.095.29.03.582.05t.584.034.584.018q.292.005.585.002.292-.004.584-.015.292-.012.584-.032t.583-.047.581-.064.58-.08.576-.096.574-.112.57-.128.567-.144.562-.16.558-.175q.278-.091.553-.19.275-.1.547-.207t.541-.221q.27-.114.535-.236.266-.122.528-.252.262-.129.52-.265.26-.137.514-.28.255-.144.505-.295.25-.15.497-.308.246-.158.488-.322.242-.165.479-.336t.469-.349q.232-.177.46-.362.226-.184.448-.374t.439-.387.427-.399q.211-.202.416-.41M42.527 31.013q.539-.4 1.102-.763.563-.364 1.148-.69.586-.328 1.19-.617.606-.289 1.228-.538.042.051.081.105.04.053.076.108.037.056.07.113t.065.115l.06.12q.028.06.053.12.025.062.047.124.022.063.041.126.019.064.035.128.016.065.029.13l.022.13q.01.066.016.132t.01.133l.002.132q0 .066-.004.133-.003.066-.01.132-.006.066-.016.132t-.023.131-.03.13-.035.128q-.02.064-.042.127t-.048.124-.055.122-.06.119q-.031.058-.066.115-.034.058-.071.113t-.077.109q-.04.053-.082.104-.043.052-.087.101-.045.05-.092.097-.048.047-.097.091-.05.045-.101.087t-.105.082-.11.076-.112.071-.116.066-.12.06-.121.053q-.062.026-.124.048-.063.022-.127.042-.064.019-.128.035-.065.016-.13.029-.066.013-.132.022-.066.01-.132.016-.066.007-.133.01-.066.003-.133.003t-.133-.004-.133-.01q-.048-.004-.095-.01-.048-.007-.095-.016-.048-.008-.095-.018l-.094-.02-.093-.026-.092-.028-.09-.03-.09-.035q-.045-.018-.089-.038l-.087-.04-.086-.044-.084-.047-.082-.05-.08-.052-.08-.055-.076-.058-.074-.061q-.037-.031-.072-.064-.036-.032-.07-.065-.035-.034-.068-.069l-.065-.07-.063-.073-.06-.076q-.03-.038-.057-.077l-.055-.079-.051-.081-.049-.083-.046-.084-.043-.087-.04-.087-.036-.089zm-5.896 6.75q.221-.402.46-.794.238-.392.493-.773.255-.382.527-.751.271-.37.559-.727.287-.358.59-.702.303-.345.62-.675.319-.331.65-.648.332-.317.678-.618.078.025.155.055.076.029.152.061l.15.068.146.074.143.08.14.087q.069.045.136.092.067.048.132.098t.128.103.123.109.119.113.113.119.109.123.103.128.098.132.092.136.087.14q.041.07.08.143t.074.146q.036.074.068.15.033.075.062.152.03.077.055.155t.05.157q.022.079.041.158.02.08.035.16.016.081.029.163.012.08.021.162t.015.164q.006.082.008.164t0 .164-.005.165-.013.163q-.01.096-.024.19-.014.095-.033.188-.019.094-.042.187t-.051.184-.06.181-.07.179-.078.174-.086.17-.094.167-.103.161-.11.157-.118.15-.125.145-.133.138-.138.131-.145.125-.151.117-.157.11-.161.102q-.083.05-.167.094-.084.045-.17.086t-.176.077-.178.068-.182.06-.184.05q-.093.024-.187.042t-.188.032-.19.024-.19.013-.192.005q-.095 0-.191-.005t-.19-.015l-.114-.013-.112-.016-.112-.02q-.056-.01-.111-.023-.056-.012-.111-.026t-.11-.029-.109-.032l-.108-.036-.107-.039q-.053-.02-.105-.042-.053-.021-.105-.045t-.103-.048-.101-.05l-.1-.054-.099-.057-.097-.06q-.048-.03-.095-.062l-.093-.065-.091-.068-.09-.07-.086-.074q-.043-.037-.085-.076-.042-.038-.083-.078l-.08-.08q-.04-.04-.078-.083l-.076-.085-.073-.087-.07-.089q-.035-.045-.068-.091l-.065-.093-.062-.096zm18.15 7.685q-.013.134-.033.268-.02.133-.046.266-.027.132-.06.263-.033.13-.072.26-.04.13-.085.256-.046.127-.098.252-.052.124-.11.246t-.122.241-.133.235q-.07.115-.145.227-.075.113-.156.22-.08.11-.166.213-.086.104-.177.204-.09.1-.186.195-.096.096-.196.186t-.205.176-.213.166-.22.155-.23.144-.234.132-.241.121q-.123.058-.247.11-.125.05-.252.096-.128.045-.257.084-.13.039-.26.072-.131.032-.264.058-.132.026-.266.046-.133.02-.267.032-.135.013-.27.02-.134.006-.27.006-.134 0-.27-.007-.134-.007-.268-.02-.135-.014-.268-.034-.134-.02-.266-.047-.132-.026-.263-.06-.131-.032-.26-.072-.13-.04-.256-.085-.127-.046-.252-.097t-.247-.11-.24-.122q-.12-.064-.235-.134-.116-.07-.228-.144-.112-.076-.22-.156t-.213-.167q-.104-.085-.204-.176t-.195-.187-.185-.196q-.09-.1-.176-.204-.086-.105-.166-.213-.08-.109-.155-.221-.075-.113-.144-.229-.07-.115-.133-.235t-.12-.24q-.058-.123-.11-.248-.05-.125-.096-.252-.045-.127-.084-.256-.04-.13-.072-.26-.032-.131-.058-.264-.027-.132-.046-.266-.02-.133-.033-.268-.013-.134-.019-.269t-.006-.27.007-.27q.007-.134.02-.269.014-.134.034-.268.02-.133.046-.265.027-.133.06-.264.033-.13.073-.26.039-.129.085-.256.045-.127.097-.251.052-.125.11-.247t.122-.24.133-.235.145-.228.156-.22q.08-.109.166-.213t.177-.204.186-.195.196-.186q.1-.09.205-.176t.213-.165.221-.155.228-.144q.116-.07.235-.133.12-.063.242-.12.122-.058.247-.11.124-.051.252-.097.127-.045.256-.084.13-.039.26-.071.131-.033.264-.059.132-.026.266-.046.133-.02.268-.032.134-.013.269-.02.135-.006.27-.006t.27.008q.134.006.269.02.134.013.267.033.134.02.266.047.133.027.263.06.131.033.26.072.13.04.257.085t.251.098.247.11.24.121.235.134q.116.07.228.145t.22.156q.109.08.213.166t.204.177.195.186.186.196q.09.1.176.205t.165.213.155.22.144.229q.07.116.133.235.063.12.12.241.058.122.11.247.051.125.096.252t.084.257q.04.129.072.26.033.13.059.263t.045.266q.02.134.033.268.013.135.02.27.006.134.005.27 0 .134-.007.269t-.02.27"/><path fill="#999" fill-rule="evenodd" d="M75.496 52.24q.243-1.135.36-2.29.09-.9.102-1.804t-.053-1.805q-.287-.088-.587-.118-.074-.008-.148-.012l-.15-.004q-.074 0-.148.004-.074.003-.149.01-.074.008-.147.018-.074.011-.147.026t-.146.032-.143.04-.142.046-.14.053-.135.06-.134.067-.13.073-.125.08-.122.085-.118.092-.113.097-.108.102-.103.108-.097.113-.092.117-.086.122-.08.125-.074.13-.067.133-.06.136q-.03.069-.055.139t-.047.141l-.04.144q-.018.072-.032.145t-.026.147-.019.148-.011.148-.004.15.003.148.011.149.018.148.025.146.033.146.04.143q.02.072.046.142t.053.14q.028.068.06.135.032.068.067.134.035.065.073.13.038.063.08.125.04.062.085.122.044.06.092.118.047.058.097.113t.102.108.108.103.113.097.117.092.121.086.126.08.13.074.133.067.136.06q.069.03.139.055t.141.047q.071.021.144.04.072.018.145.033.073.014.147.025.073.011.147.019.196.02.393.014t.391-.037m-5.77 10.532q-.055-.079-.112-.156-.057-.076-.117-.152l-.12-.149-.125-.145-.129-.143q-.065-.07-.132-.138-.067-.069-.136-.135l-.14-.132q-.07-.065-.143-.128-.072-.062-.146-.123t-.15-.12q-.076-.06-.153-.116t-.156-.112l-.158-.107q-.08-.053-.162-.103l-.164-.1-.167-.093q-.084-.047-.17-.09-.085-.044-.171-.086l-.174-.08q-.088-.04-.176-.076l-.178-.072-.18-.066q-.09-.032-.182-.062-.09-.03-.183-.057-.092-.027-.184-.051-.093-.025-.186-.047-.094-.023-.187-.042-.094-.02-.188-.037l-.19-.032q-.094-.015-.19-.027l-.19-.022q-.168-.016-.336-.025t-.337-.01-.337.006-.336.021-.335.038q-.167.023-.332.053-.166.03-.33.069-.164.038-.327.084-.162.046-.322.1-.16.053-.316.114-.158.061-.312.13-.154.068-.304.143-.151.076-.298.158t-.29.172-.281.185-.273.198q-.12.022-.238.048t-.235.057-.234.065q-.117.034-.232.072-.115.039-.228.08-.114.043-.226.09-.112.045-.223.095-.11.05-.219.104t-.216.111-.211.12-.207.125-.203.133-.198.14-.194.146-.188.153-.182.16-.177.166-.171.172-.166.177-.159.183-.152.189-.146.193-.14.199-.132.203-.125.208-.118.212-.11.216q-.054.109-.104.22-.05.11-.095.222-.046.113-.088.226-.042.114-.08.23-.038.115-.071.23-.028-.269-.078-.535t-.122-.528-.164-.516q-.093-.254-.206-.5.053-.017.105-.036.053-.018.105-.04.052-.02.103-.042t.101-.047l.1-.05q.049-.026.097-.054.049-.028.096-.058l.093-.06.091-.065.09-.067.085-.071q.043-.036.084-.074t.08-.077.079-.08.075-.082.072-.085.069-.088l.065-.09q.032-.046.062-.093l.06-.095.055-.096.051-.1.049-.1q.023-.05.044-.102l.04-.104q.02-.052.038-.105l.033-.107.029-.107.025-.11.021-.109q.01-.055.017-.11t.013-.11q.008-.075.012-.15l.004-.15q0-.076-.004-.15-.003-.076-.01-.15-.008-.075-.019-.15-.01-.074-.025-.148-.015-.073-.033-.146t-.04-.145q-.021-.072-.046-.143l-.054-.14q-.029-.07-.06-.138-.033-.068-.068-.134t-.074-.13q-.038-.065-.08-.128-.042-.062-.086-.123-.045-.06-.093-.118-.047-.059-.097-.114t-.104-.11q-.053-.052-.108-.103-.056-.05-.114-.098t-.118-.093-.123-.087-.127-.08-.13-.075q-.066-.035-.134-.067-.068-.033-.137-.061-.07-.03-.14-.055t-.143-.047q-.072-.022-.145-.04t-.146-.034l-.148-.026q-.074-.01-.15-.018-.07-.007-.14-.011t-.142-.004-.141.002q-.07.002-.141.008t-.141.016-.14.021-.138.029q-.07.015-.138.034t-.135.041q-.067.022-.133.047-.067.025-.132.053-.064.028-.128.06-.064.03-.126.064t-.122.071q-.06.037-.12.077-.058.04-.115.082-.056.042-.111.087t-.108.092-.103.097q-.05.05-.098.101t-.094.106-.088.11q-.043.057-.084.115-.04.058-.078.118-.037.06-.072.121-.035.062-.067.125t-.061.128q-.029.064-.055.13t-.049.133-.043.135-.036.136-.03.138q-.343-.113-.696-.188t-.712-.11q-.125-.013-.25-.02-.125-.009-.25-.012-.126-.003-.251 0-.126 0-.251.007t-.25.018q-.125.012-.25.028-.124.016-.248.036-.123.021-.246.047t-.245.055-.242.065q-.12.035-.24.074-.12.04-.237.083t-.233.092-.23.101q-.114.053-.225.11-.112.057-.222.118t-.216.126-.212.135-.207.142-.2.15q-.1.077-.196.158-.096.08-.188.165-.093.084-.183.172t-.176.18-.169.185-.161.191-.155.198-.146.204-.139.209-.13.214-.123.219-.114.223q.3.25.608.489t.626.466.643.442.658.418.674.393.688.368.702.342.713.315.725.289.735.262.744.234q.375.11.753.206t.76.178q.38.082.765.15.384.068.77.12.387.054.776.093.441.044.885.07l.007-.023.002.024q.273.015.547.024.274.008.548.01.274.001.547-.005.274-.006.548-.019.273-.013.547-.033.273-.02.545-.047.273-.027.545-.062.271-.034.542-.075.27-.042.54-.09.27-.049.538-.104.268-.056.535-.118.267-.063.532-.132.264-.07.527-.146.263-.077.524-.16t.52-.173.515-.187.51-.2.504-.213.499-.227q.248-.116.493-.239.244-.123.486-.252.241-.13.48-.265.237-.136.472-.277t.465-.29.457-.301q.226-.154.449-.314t.44-.325q.22-.165.433-.336.214-.171.423-.348.21-.177.414-.359.205-.182.405-.369t.395-.38m-26.96-31.933q.484-.349.987-.669.504-.32 1.024-.61.521-.292 1.058-.553.536-.26 1.087-.49l.08.095q.038.05.073.1.036.05.07.103.033.052.063.107.03.054.058.11.028.055.053.112t.046.115.041.117.035.12l.028.12q.013.061.023.123.01.061.016.123l.01.124q.003.062.003.124t-.003.124-.01.124q-.005.06-.014.118l-.02.118-.027.116q-.015.058-.032.115l-.038.114q-.02.056-.043.111t-.049.11-.054.106-.059.103q-.03.052-.064.101-.033.05-.069.098-.035.048-.073.094t-.078.09-.083.086-.087.083-.09.077-.094.074-.098.068-.101.064l-.104.059q-.053.028-.107.053t-.11.048q-.054.023-.11.043-.057.02-.114.037t-.115.032-.117.026-.118.02q-.059.009-.118.014-.06.006-.12.009-.059.003-.118.003-.06 0-.12-.003t-.119-.01l-.088-.01-.088-.014q-.044-.007-.087-.017-.044-.009-.087-.02-.043-.01-.085-.023t-.085-.026-.084-.03q-.042-.015-.083-.032l-.081-.035-.08-.039-.08-.041-.076-.044-.076-.047q-.037-.024-.073-.05-.037-.025-.072-.052-.036-.027-.07-.055l-.068-.057-.065-.06q-.033-.03-.064-.063-.031-.031-.061-.064l-.059-.067-.056-.068-.054-.071q-.026-.036-.05-.073l-.05-.074-.045-.077-.043-.078-.04-.079-.037-.08-.034-.083q-.016-.041-.03-.083zm-5.974 6.637q.207-.363.428-.717.22-.355.456-.7.235-.345.484-.68.248-.336.51-.661.262-.326.536-.64.275-.315.561-.618.287-.304.586-.596.299-.291.609-.571.076.022.15.046.075.025.149.053t.146.06q.072.03.143.064.071.035.14.072t.138.078.133.083.13.09.126.094l.121.1q.06.052.117.106t.113.11.107.116.102.12q.05.06.097.124.047.063.092.128.044.065.086.132t.08.136.073.14.068.141.062.145.055.148.049.15.042.152.035.153.029.155.022.156.015.157.008.157.002.158-.006.157-.012.157q-.009.089-.022.176-.013.088-.03.175t-.04.173-.047.17q-.026.086-.056.17-.03.083-.065.165-.034.081-.072.162-.038.08-.08.158t-.087.154-.096.15-.102.145q-.053.07-.11.14-.056.068-.116.133-.06.066-.122.129-.063.062-.129.122t-.134.115-.14.11q-.072.052-.145.101-.074.05-.15.095-.077.045-.155.087t-.159.08q-.08.037-.162.07-.082.035-.165.064-.084.03-.169.056-.085.025-.171.047t-.173.038-.175.03-.176.022-.177.012-.177.004q-.09 0-.178-.004-.088-.005-.177-.014l-.11-.012-.109-.016-.109-.02q-.054-.01-.108-.023t-.107-.026l-.107-.029-.106-.033-.105-.035-.103-.04q-.052-.02-.102-.042-.051-.021-.101-.045l-.1-.048-.098-.051-.096-.055-.095-.057-.093-.06q-.046-.03-.09-.063-.046-.032-.09-.066-.044-.033-.087-.068l-.084-.071q-.042-.036-.083-.074l-.08-.076q-.04-.038-.078-.078l-.076-.08-.073-.084q-.036-.042-.07-.085t-.068-.088l-.065-.09q-.032-.044-.062-.09l-.06-.094-.057-.095zm17.71 7.944q-.013.127-.032.254t-.044.252-.057.25q-.03.124-.068.247-.038.122-.081.243-.043.12-.093.239-.049.118-.104.234-.055.115-.115.228t-.127.223-.138.216q-.07.106-.147.209t-.158.201q-.082.1-.168.194-.086.095-.177.185-.09.09-.186.176-.095.086-.194.167t-.202.158-.21.147-.216.136-.223.126-.23.115-.234.103-.239.092-.243.08-.247.068q-.124.03-.25.055t-.252.044-.254.03-.256.019-.256.006-.256-.007-.255-.02-.254-.031-.253-.044q-.125-.026-.25-.057-.124-.031-.246-.069-.123-.037-.243-.08t-.239-.093q-.118-.05-.234-.104-.115-.055-.228-.116-.113-.06-.223-.127-.11-.066-.216-.137t-.21-.148-.2-.158q-.1-.081-.194-.167-.095-.087-.185-.177-.09-.091-.177-.186-.086-.095-.167-.194-.08-.1-.157-.202-.076-.103-.147-.21t-.137-.217-.125-.223-.115-.229-.103-.234-.092-.24-.08-.242-.068-.247-.056-.25q-.024-.126-.043-.253-.018-.126-.03-.254-.013-.127-.02-.255-.005-.128-.005-.256t.007-.256q.006-.128.02-.256.012-.127.031-.254.019-.126.044-.252t.057-.25.069-.247q.037-.122.08-.243.044-.12.093-.238.05-.119.104-.234.055-.116.116-.229.06-.113.126-.222.066-.11.138-.216.071-.107.148-.21.076-.102.157-.201.082-.099.168-.194.086-.094.177-.185.09-.09.186-.176.095-.086.194-.167.1-.081.202-.157t.21-.147q.106-.071.216-.137t.223-.126q.114-.06.23-.114.115-.055.234-.104.118-.049.239-.092.12-.042.243-.08.123-.036.247-.067t.25-.056q.126-.025.252-.043.127-.019.255-.031.127-.012.255-.019t.256-.005.256.006.255.02q.128.013.255.032.126.019.252.044.125.025.25.056.124.032.246.07.123.037.243.08t.239.092q.118.05.234.105t.228.115q.113.06.223.127.11.066.216.137.107.072.21.148.102.077.2.158.1.081.194.168.095.086.186.177.09.09.176.185t.167.195.157.202.147.21.137.216q.065.11.125.223t.115.229q.055.116.104.234t.091.24.08.243.068.247q.03.124.056.25.024.125.043.252t.03.254q.013.128.02.256.005.128.005.256t-.007.256q-.006.128-.019.255"/><path fill="none" stroke="#000" stroke-linejoin="round" stroke-width="2.4" d="M33.278 72.853q.362.664.83 1.636.474.967.982 2.1.508 1.128 1.006 2.31.503 1.176.942 2.216.445-1.04.943-2.217.497-1.181 1.005-2.31.513-1.132.982-2.099.473-.972.83-1.636h2.842q.2 1.382.37 3.096.172 1.71.299 3.56.132 1.845.239 3.706.112 1.86.19 3.5h-3.037q-.063-2.02-.16-4.399-.099-2.383-.299-4.8l-.8 1.86q-.44 1.021-.875 2.042-.43 1.015-.83 1.948l-.678 1.592H35.88q-.283-.664-.684-1.592l-.825-1.948q-.43-1.02-.874-2.041-.44-1.02-.796-1.86-.2 2.416-.303 4.8-.097 2.377-.16 4.399H29.2q.078-1.64.186-3.501.112-1.86.239-3.706.132-1.85.303-3.56.17-1.714.37-3.096zm23.902 8.584q0 1.24-.361 2.27-.361 1.026-1.04 1.759t-1.631 1.133q-.947.395-2.129.395-1.157 0-2.11-.395-.951-.4-1.63-1.133t-1.06-1.758q-.38-1.03-.38-2.27t.39-2.261q.39-1.02 1.08-1.739.693-.722 1.64-1.123.952-.4 2.07-.4 1.143 0 2.09.4.952.4 1.63 1.123.68.718 1.06 1.739.381 1.02.381 2.26Zm-3.042 0q0-1.381-.551-2.172-.547-.791-1.568-.791t-1.582.79q-.557.792-.557 2.173 0 1.377.557 2.188.562.81 1.582.81t1.568-.81q.551-.81.551-2.188Zm15.182 0q0 1.24-.361 2.27-.361 1.026-1.04 1.759t-1.631 1.133q-.947.395-2.129.395-1.157 0-2.11-.395-.951-.4-1.63-1.133t-1.06-1.758q-.38-1.03-.38-2.27t.39-2.261q.39-1.02 1.08-1.739.693-.722 1.64-1.123.952-.4 2.07-.4 1.143 0 2.09.4.952.4 1.63 1.123.68.718 1.06 1.739.381 1.02.381 2.26Zm-3.042 0q0-1.381-.552-2.172-.546-.791-1.567-.791t-1.582.79q-.557.792-.557 2.173 0 1.377.557 2.188.562.81 1.582.81t1.567-.81q.552-.81.552-2.188Zm5.343-4.882q.757-.22 1.958-.41 1.202-.191 2.52-.191 1.343 0 2.231.352.889.351 1.407.99.522.64.742 1.52.22.878.22 1.957v5.943H77.72v-5.581q0-1.44-.38-2.036-.382-.601-1.422-.601-.317 0-.679.03-.36.029-.64.068v8.12h-2.978z"/><path fill="#fff" d="M33.278 72.853q.362.664.83 1.636.474.967.982 2.1.508 1.128 1.006 2.31.503 1.176.942 2.216.445-1.04.943-2.217.497-1.181 1.005-2.31.513-1.132.982-2.099.473-.972.83-1.636h2.842q.2 1.382.37 3.096.172 1.71.299 3.56.132 1.845.239 3.706.112 1.86.19 3.5h-3.037q-.063-2.02-.16-4.399-.099-2.383-.299-4.8l-.8 1.86q-.44 1.021-.875 2.042-.43 1.015-.83 1.948l-.678 1.592H35.88q-.283-.664-.684-1.592l-.825-1.948q-.43-1.02-.874-2.041-.44-1.02-.796-1.86-.2 2.416-.303 4.8-.097 2.377-.16 4.399H29.2q.078-1.64.186-3.501.112-1.86.239-3.706.132-1.85.303-3.56.17-1.714.37-3.096zm23.902 8.584q0 1.24-.361 2.27-.361 1.026-1.04 1.759t-1.631 1.133q-.947.395-2.129.395-1.157 0-2.11-.395-.951-.4-1.63-1.133t-1.06-1.758q-.38-1.03-.38-2.27t.39-2.261q.39-1.02 1.08-1.739.693-.722 1.64-1.123.952-.4 2.07-.4 1.143 0 2.09.4.952.4 1.63 1.123.68.718 1.06 1.739.381 1.02.381 2.26m-3.042 0q0-1.381-.551-2.172-.547-.791-1.568-.791t-1.582.79q-.557.792-.557 2.173 0 1.377.557 2.188.562.81 1.582.81t1.568-.81q.551-.81.551-2.188m15.182 0q0 1.24-.361 2.27-.361 1.026-1.04 1.759t-1.631 1.133q-.947.395-2.129.395-1.157 0-2.11-.395-.951-.4-1.63-1.133t-1.06-1.758q-.38-1.03-.38-2.27t.39-2.261q.39-1.02 1.08-1.739.693-.722 1.64-1.123.952-.4 2.07-.4 1.143 0 2.09.4.952.4 1.63 1.123.68.718 1.06 1.739.381 1.02.381 2.26m-3.042 0q0-1.381-.552-2.172-.546-.791-1.567-.791t-1.582.79q-.557.792-.557 2.173 0 1.377.557 2.188.562.81 1.582.81t1.567-.81q.552-.81.552-2.188m5.343-4.882q.757-.22 1.958-.41 1.202-.191 2.52-.191 1.343 0 2.231.352.889.351 1.407.99.522.64.742 1.52.22.878.22 1.957v5.943H77.72v-5.581q0-1.44-.38-2.036-.382-.601-1.422-.601-.317 0-.679.03-.36.029-.64.068v8.12h-2.978z"/></svg>