<svg xmlns="http://www.w3.org/2000/svg" width="110" height="110"><path fill="#6d6d6d" d="M76.322 49.996q-.053.524-.131 1.044t-.182 1.036q-.103.516-.232 1.026t-.282 1.013-.332.998-.38.98q-.203.486-.429.961t-.474.939-.52.914-.564.888-.608.859-.648.827-.689.796-.726.76-.763.724-.798.685-.83.646q-.424.313-.861.604-.438.292-.89.561t-.916.517-.94.471-.963.425-.982.376q-.495.177-.999.328t-1.014.279-1.027.229-1.036.178-1.045.126q-.523.05-1.049.076t-1.051.024-1.052-.028-1.048-.08q-.524-.052-1.044-.13t-1.036-.182-1.026-.232-1.013-.282-.998-.332-.98-.38q-.486-.203-.961-.428-.475-.226-.939-.475t-.914-.52-.888-.564q-.436-.293-.858-.608-.422-.314-.828-.648-.406-.335-.796-.689-.389-.354-.76-.726-.371-.373-.724-.763-.352-.39-.685-.798-.333-.407-.646-.83-.312-.423-.604-.861-.291-.438-.561-.89t-.517-.916-.471-.94-.424-.963-.377-.982-.328-.999-.279-1.014-.229-1.027-.177-1.036-.127-1.044-.076-1.05-.024-1.051.028-1.051.08-1.05q.052-.523.13-1.043t.182-1.036.232-1.026.282-1.013.332-.998.38-.98q.203-.486.429-.961t.474-.939.52-.914.564-.888q.293-.436.608-.858.314-.422.648-.828.335-.406.689-.795.354-.39.726-.76.373-.372.763-.725.39-.352.798-.685.407-.333.83-.646.424-.312.861-.604.438-.291.89-.56t.916-.518.94-.47.963-.425.982-.377.999-.328 1.014-.279 1.027-.228 1.036-.178 1.045-.127 1.049-.076 1.051-.023q.526 0 1.052.027.525.027 1.048.08.524.052 1.044.13t1.036.182 1.026.232 1.013.283.998.331.98.38q.486.203.961.429t.939.474.914.52q.45.272.888.565.436.293.858.607t.828.648.796.689.76.726.724.764q.352.39.685.797t.646.83q.312.424.604.862.291.437.561.89.27.45.517.915t.471.94q.224.477.424.963t.377.982q.176.495.328 1 .152.503.279 1.013t.229 1.027q.101.516.177 1.037.077.52.127 1.044.05.523.076 1.049t.024 1.051-.028 1.052-.08 1.048"/><path fill="#878787" d="M75.575 49.922q-.05.505-.126 1.007-.075.502-.175 1-.1.497-.224.99-.125.491-.273.977-.148.485-.32.963t-.367.946-.413.927-.458.906-.502.882-.544.857-.586.829-.626.799-.665.767q-.341.375-.7.734-.36.358-.737.698t-.77.662-.801.623-.831.583q-.423.28-.858.541-.436.26-.884.499-.449.238-.908.454-.46.217-.929.41t-.947.364-.964.316q-.486.147-.98.27-.492.122-.99.22t-1 .171-1.008.123-1.012.073-1.015.023q-.507-.001-1.014-.027t-1.012-.077q-.506-.05-1.008-.126-.502-.075-1-.175-.497-.1-.99-.224-.491-.125-.977-.273-.485-.148-.963-.32t-.946-.367-.927-.413-.906-.458-.882-.502-.857-.544-.829-.586-.799-.626-.767-.664q-.375-.342-.734-.702-.358-.36-.698-.736-.34-.377-.662-.77-.321-.393-.623-.801-.301-.408-.583-.83-.28-.423-.541-.86-.26-.435-.499-.883-.238-.448-.454-.908t-.41-.928-.363-.948-.317-.964-.27-.979q-.122-.493-.22-.99-.098-.499-.171-1.001t-.123-1.008q-.048-.505-.073-1.012t-.023-1.015.027-1.014q.026-.507.077-1.012.05-.505.126-1.007.075-.502.175-1t.224-.99q.125-.492.273-.978.148-.485.32-.963.172-.477.367-.946t.413-.927q.218-.459.458-.906t.502-.882.544-.857.586-.828.626-.8.665-.767q.341-.375.7-.734.36-.358.737-.698t.77-.662q.393-.32.801-.623.408-.301.831-.582.423-.282.858-.542.436-.26.884-.499.449-.238.908-.454.46-.216.929-.41t.947-.363.964-.317.98-.269q.492-.122.99-.22.498-.099 1-.172.502-.074 1.008-.123.505-.048 1.012-.072t1.015-.023q.507 0 1.014.026t1.012.077q.506.05 1.008.126.502.075 1 .175.497.1.99.224.491.125.977.273.485.148.963.32t.946.367.927.413.906.458.882.502.857.544.829.586.799.626.767.665q.375.341.734.7.358.36.698.737t.662.77.623.801.583.831q.28.423.541.859.26.435.499.884.238.448.454.907.217.46.41.929t.363.947.317.965q.147.486.27.978.122.493.22.99.098.499.171 1.001.074.503.123 1.008.048.505.073 1.012t.023 1.015-.027 1.014q-.026.507-.077 1.013"/><path fill="#7c7c7c" fill-rule="evenodd" d="M75.097 52.727q.336-1.386.478-2.805.103-1.028.104-2.06 0-1.032-.103-2.06-.106-.016-.213-.027-.085-.009-.17-.013t-.171-.005-.171.004-.17.013q-.086.008-.17.02t-.17.03q-.083.016-.166.036t-.165.046q-.082.024-.163.053-.08.029-.16.061-.079.033-.156.07-.077.036-.153.076-.075.04-.149.084-.073.044-.145.091l-.14.098q-.068.051-.135.105-.066.055-.13.112-.063.057-.124.118-.06.06-.118.123-.057.064-.112.13-.054.066-.105.134-.051.069-.099.14t-.092.144-.084.15q-.04.074-.078.152-.036.077-.07.156-.032.079-.06.16-.03.08-.055.162t-.046.165l-.038.166q-.017.084-.03.169t-.02.17-.013.17-.005.171.004.171.012.171.021.17.029.168.037.167.045.165.054.163.061.16.07.156q.035.077.076.153t.084.149q.044.073.09.145.048.07.1.14.05.069.104.135t.112.13.117.124q.06.06.124.118.063.057.13.112.066.054.134.105.069.051.14.1.071.047.144.09.074.045.149.085t.153.078q.077.036.156.07.079.032.16.061.08.03.162.054.081.025.164.046t.167.038.169.03q.084.012.17.02.214.022.429.017m-5.22 9.492q-.118-.151-.244-.297-.126-.145-.259-.284-.133-.14-.273-.272t-.286-.257q-.147-.124-.3-.242-.152-.117-.31-.227-.158-.109-.322-.21-.164-.102-.332-.195-.169-.093-.342-.177-.172-.084-.35-.16-.177-.075-.357-.142t-.364-.123q-.184-.058-.37-.106-.187-.047-.375-.086-.189-.038-.38-.067-.19-.029-.381-.048-.175-.018-.35-.027-.176-.01-.352-.011-.175-.001-.351.005-.176.007-.35.022-.176.015-.35.038t-.347.053-.345.07q-.171.04-.34.086-.17.047-.337.101t-.332.117-.325.132q-.162.07-.32.146-.158.077-.312.161-.154.085-.304.176t-.296.19q-.146.097-.287.202-.248.05-.492.116t-.483.149-.471.181-.459.212-.443.243q-.217.13-.425.273t-.406.3q-.198.157-.385.327.115-.257.187-.53.073-.272.101-.553.009-.085.013-.171t.005-.173-.004-.172-.013-.172-.02-.17-.03-.17q-.016-.085-.037-.169-.02-.083-.046-.166-.025-.082-.053-.164l-.062-.16q-.033-.08-.07-.158-.036-.078-.077-.154-.04-.076-.085-.15-.044-.074-.091-.146-.048-.072-.1-.141-.05-.07-.105-.136-.055-.067-.112-.13-.058-.065-.119-.126-.06-.06-.125-.119-.063-.058-.13-.113-.066-.054-.135-.106-.07-.051-.141-.1-.072-.047-.146-.092-.073-.044-.15-.085-.075-.04-.153-.078-.078-.037-.157-.07-.08-.033-.161-.062-.081-.03-.164-.055-.082-.025-.166-.046-.083-.02-.168-.038-.084-.017-.17-.03-.085-.012-.17-.021-.073-.007-.147-.012-.073-.004-.147-.005h-.146q-.074.002-.147.007t-.146.013-.146.02-.145.025-.143.03q-.072.018-.143.038t-.14.043-.138.049q-.07.026-.137.055-.067.028-.134.06-.066.031-.131.066-.065.034-.128.071-.064.037-.126.077l-.122.081-.118.087q-.059.045-.115.092t-.11.096-.108.101-.102.106q-.05.053-.098.11-.048.055-.093.113-.045.057-.088.117l-.084.12q-.04.062-.078.125t-.073.128q-.035.064-.068.13-.032.066-.062.133t-.056.136-.05.138q-.518-.133-1.049-.186-.127-.013-.254-.021-.128-.008-.255-.012-.128-.003-.256-.002-.127 0-.255.007-.128.005-.255.016t-.254.025-.253.035-.251.043-.25.053q-.125.029-.248.062t-.245.07-.243.08-.24.088q-.118.047-.236.097t-.232.106-.229.114q-.113.059-.224.122-.11.063-.22.13-.108.067-.214.138-.107.07-.21.145-.104.075-.204.153-.101.079-.2.16-.097.083-.192.168t-.186.175q-.092.089-.18.18-.089.093-.174.188-.085.096-.166.194t-.16.2q-.077.1-.151.205t-.145.21q-.07.107-.136.216-.067.109-.13.22.302.265.614.518.311.253.632.494.321.24.652.468.33.229.669.444.338.215.685.416.347.202.701.39.355.189.716.363.362.174.73.334t.742.306q.373.146.753.277.379.13.763.247t.772.218.78.187.788.157q.394.071.792.127.397.055.797.095.29.03.581.05t.582.034.584.017q.291.005.583.001t.584-.016.582-.032.582-.049.58-.065q.289-.036.577-.08.289-.046.576-.098t.572-.114q.285-.061.569-.13.283-.07.565-.146.281-.077.56-.162.28-.085.556-.177.277-.093.55-.194.275-.1.546-.208.27-.108.539-.224.267-.116.532-.24.264-.122.525-.253.261-.13.518-.269.257-.138.51-.283.254-.145.502-.297.25-.153.494-.312.244-.16.484-.325.24-.166.475-.339t.466-.352.455-.365.444-.378.434-.39.423-.403.411-.414M42.5 31.384q.575-.436 1.18-.832.604-.395 1.235-.747.63-.353 1.284-.66.653-.308 1.327-.569.064.101.119.208t.101.216.083.224.065.23.045.234.026.238q.007.119.005.238-.002.12-.014.239-.007.07-.017.14t-.025.14-.03.137-.039.137-.045.134-.05.132l-.058.13q-.03.063-.064.125-.034.063-.07.123-.037.061-.076.12-.04.059-.082.115t-.087.112-.093.107-.097.102-.103.097q-.053.048-.107.093-.055.044-.112.086-.057.043-.116.082t-.12.075-.123.07-.126.063q-.064.03-.13.057-.065.027-.132.05-.067.025-.134.045-.068.02-.137.038-.068.017-.138.03-.07.014-.14.024t-.14.017q-.07.007-.14.01-.072.004-.142.004-.071 0-.142-.004l-.14-.01q-.092-.01-.182-.025t-.18-.035q-.089-.02-.176-.047-.088-.026-.174-.058-.085-.031-.169-.068t-.165-.08-.159-.09q-.078-.047-.153-.099t-.147-.109-.14-.118q-.067-.061-.131-.127-.064-.065-.124-.135-.06-.069-.114-.142-.056-.073-.106-.15-.05-.076-.096-.155-.045-.08-.085-.162m-5.783 6.812q.231-.438.483-.864t.524-.84.563-.812.602-.786q.31-.385.638-.756.329-.37.674-.724t.708-.691q.362-.338.74-.657.072.033.143.068t.14.073.138.08.134.083.13.09.128.094.123.1.12.103.115.109.111.113.107.117.102.121.097.125.092.129.087.132.082.136q.04.068.076.138.037.07.071.142t.066.144.06.147.054.149l.048.15q.022.076.042.153t.036.154.03.156.025.156l.018.158q.007.078.012.157.004.08.005.159.002.079 0 .158-.002.08-.007.158-.004.08-.012.158-.01.1-.025.198-.015.099-.034.197-.02.097-.045.194t-.053.192q-.03.096-.063.19-.034.093-.072.186-.038.092-.081.182t-.09.178-.099.173-.107.168-.115.163-.123.157-.13.151-.138.144-.145.138-.151.13q-.078.063-.158.122-.08.06-.163.115t-.169.106-.174.098-.178.09q-.09.042-.182.08-.093.038-.187.071-.094.034-.19.063-.095.028-.192.052-.096.024-.194.044t-.197.033q-.099.015-.198.024-.1.01-.199.015-.1.005-.2.004-.1 0-.199-.005-.1-.005-.199-.015-.105-.01-.209-.026t-.208-.038-.205-.048-.203-.059-.2-.069-.195-.08-.191-.089-.187-.1-.18-.108q-.09-.057-.176-.118t-.168-.127-.162-.136q-.08-.07-.155-.144t-.147-.151q-.071-.078-.138-.16-.068-.08-.13-.165m18.233 7.269q-.014.138-.035.276-.02.138-.048.274-.027.136-.061.271t-.075.268-.088.264-.1.26-.113.254q-.06.125-.126.248t-.138.242q-.071.119-.149.234-.077.116-.16.228-.083.111-.172.219-.088.107-.182.21t-.192.201-.202.191-.211.182-.22.17-.227.16-.236.149-.242.136q-.123.066-.249.125-.125.06-.254.112t-.26.1q-.13.046-.264.087-.133.04-.268.073-.135.034-.272.06-.136.028-.274.048t-.276.033q-.139.014-.278.02-.139.007-.278.007t-.278-.008-.277-.02-.276-.035-.274-.048-.272-.062-.268-.074-.264-.088-.259-.1-.254-.114-.248-.125-.242-.138-.235-.15-.227-.16-.219-.171-.21-.182-.201-.193q-.098-.098-.192-.201-.093-.104-.181-.211-.088-.108-.17-.22t-.16-.228-.149-.235-.137-.242-.124-.249-.112-.255-.1-.26-.087-.264-.074-.268-.06-.271-.047-.274-.034-.277-.02-.277-.006-.278.007-.278q.007-.14.021-.278t.035-.276q.02-.137.048-.274.027-.136.061-.271t.075-.268.088-.264q.047-.13.1-.26.054-.128.114-.253.06-.126.125-.249.066-.122.138-.241.071-.12.149-.235.077-.116.16-.227.084-.112.172-.22.089-.107.182-.21.094-.102.192-.2.099-.099.202-.192t.211-.181.22-.171q.112-.083.227-.16.116-.077.236-.148.12-.072.242-.137.123-.065.249-.125.126-.059.254-.112.129-.053.26-.1.131-.046.264-.086t.269-.074q.135-.034.271-.06.137-.027.274-.048.138-.02.276-.033.139-.013.278-.02t.278-.006.278.007.277.021.276.035.274.048.272.061.268.075q.133.04.264.087.13.048.259.101.128.053.254.113t.248.126.242.137.235.15.227.16.219.172.21.182q.103.093.201.192.099.098.192.202.093.103.181.21.088.108.17.22.084.112.16.228.078.116.15.235.07.12.136.243.065.122.124.248.06.126.113.255.053.128.1.26.046.13.086.264.04.133.074.268t.06.272.047.274.034.276.02.277.006.279-.007.278-.021.277m-.44 18.613q-.174.27-.325.556-.051-.157-.11-.31.226-.108.435-.246"/><path fill="#999" fill-rule="evenodd" d="M75.202 52.272q.254-1.164.373-2.35.092-.911.102-1.826.01-.916-.06-1.828-.148-.03-.298-.045-.075-.008-.149-.012l-.149-.004q-.074 0-.149.004-.074.003-.149.01-.074.008-.147.018-.074.011-.147.026t-.146.032-.143.04q-.072.021-.142.046t-.139.053q-.069.029-.136.06-.068.032-.134.067-.065.035-.13.073-.063.039-.125.08t-.122.085q-.06.045-.118.092t-.113.097-.108.102q-.053.053-.103.108t-.097.113-.092.117-.086.122-.08.125-.074.13-.067.133-.06.136q-.03.069-.055.139t-.047.141l-.04.144q-.018.072-.032.145t-.026.147-.019.148-.01.148q-.005.075-.005.15 0 .074.003.148.004.075.011.149t.018.148q.01.073.025.146.015.074.033.146t.04.143q.02.072.046.142t.053.14q.029.068.06.135.032.068.067.134.035.065.073.13.038.063.08.125.041.062.085.122t.092.118.097.113.102.108.108.103.113.097.117.092.122.086.125.08.13.074.133.067.136.06q.069.03.139.055t.141.047q.071.021.143.04.073.018.146.033.073.014.147.025.073.011.147.019.245.024.49.01m-5.644 10.27q-.111-.145-.23-.284-.118-.139-.244-.272-.125-.133-.257-.26-.133-.126-.271-.246t-.283-.231q-.144-.113-.294-.218-.15-.104-.305-.201t-.315-.186q-.16-.09-.324-.17t-.332-.153q-.168-.072-.34-.136-.17-.064-.345-.118-.175-.055-.352-.101t-.356-.082-.36-.065-.363-.045q-.168-.017-.336-.026-.168-.01-.337-.01-.168-.001-.337.006-.168.007-.336.021t-.335.038-.332.053-.33.069-.327.084-.322.1-.316.114-.312.13-.304.143-.298.158-.29.172-.281.185-.273.198q-.12.022-.238.048t-.235.057-.234.065q-.117.034-.232.072-.115.039-.228.08-.114.043-.226.09-.112.045-.223.095-.11.05-.219.104t-.215.112-.212.118-.207.126-.203.133-.198.14-.194.146-.188.153-.182.16-.177.166-.171.171-.166.178-.159.183-.152.189-.146.193-.14.2-.132.202-.125.208-.118.212-.11.216-.104.22-.095.222-.088.226-.08.23-.071.231q-.028-.27-.078-.536t-.122-.528-.164-.516-.206-.5q.053-.017.105-.036.053-.018.105-.039.052-.02.103-.043t.101-.047l.1-.05q.049-.026.097-.054l.096-.057.093-.061.091-.065.09-.067.085-.071q.043-.036.084-.074t.08-.077.079-.08.075-.082.072-.085.069-.088l.065-.09q.032-.046.062-.093l.06-.095.055-.096.051-.1.049-.1q.023-.05.044-.102l.04-.104q.02-.052.038-.105l.033-.107.029-.107.025-.11.021-.109q.01-.055.017-.11t.013-.11q.008-.075.012-.15t.004-.15-.004-.15q-.003-.076-.01-.15-.008-.075-.019-.15-.01-.074-.025-.148-.015-.073-.033-.146t-.04-.145q-.021-.072-.046-.143l-.054-.14q-.029-.07-.06-.138-.033-.068-.068-.134t-.074-.13q-.038-.065-.08-.128-.042-.062-.086-.123-.045-.06-.093-.118-.047-.058-.097-.114t-.104-.11q-.053-.052-.108-.103-.056-.05-.114-.098t-.118-.093-.123-.087q-.062-.041-.127-.08-.064-.039-.13-.075t-.134-.067-.137-.061q-.07-.03-.14-.055t-.143-.047q-.072-.022-.145-.04t-.146-.034l-.148-.026-.15-.018q-.07-.007-.14-.011t-.142-.004-.141.002l-.141.008q-.07.006-.141.016-.07.009-.14.021t-.138.029q-.07.015-.138.034l-.135.041q-.067.022-.133.047-.067.025-.132.053-.064.028-.128.06-.064.03-.126.065-.062.034-.122.07t-.12.077-.115.082-.111.087-.108.092-.103.097-.098.101-.094.106-.088.11-.084.115-.078.118-.072.121-.067.125-.061.128-.055.13-.049.133-.043.135-.036.136-.03.138q-.688-.226-1.408-.299-.12-.012-.24-.02-.122-.007-.243-.01-.12-.003-.241-.002t-.242.007-.241.015q-.12.01-.241.025-.12.014-.24.033-.119.02-.238.043-.118.023-.236.05t-.235.06-.232.068q-.115.036-.229.076t-.226.085-.224.093q-.11.049-.22.102-.108.052-.215.109-.107.056-.212.117-.104.06-.207.125-.102.064-.202.132t-.198.14-.192.146-.187.154-.18.16-.176.168-.168.173-.163.18-.155.184-.149.191-.141.196-.135.201-.126.206-.12.21q.297.25.602.487.305.238.62.464.314.226.636.44t.652.416.668.391.681.366.695.34.707.315.718.287.729.26.738.233q.37.11.746.206.375.095.753.177t.76.148q.38.068.763.12.384.054.769.092.283.029.567.05.284.02.568.033.285.013.57.018.284.005.568.002.285-.003.57-.014.284-.01.568-.03.284-.018.568-.044.283-.027.566-.06.282-.035.564-.077t.562-.091.56-.107q.278-.058.555-.123t.553-.137.548-.153q.273-.08.544-.168.27-.088.54-.183.268-.095.533-.197.266-.103.529-.212.262-.11.522-.227t.516-.24.509-.256q.252-.13.502-.269.249-.138.494-.282.245-.145.486-.296.241-.152.478-.31t.47-.322q.231-.165.46-.336.227-.17.45-.347t.441-.36.43-.372.421-.384q.208-.195.41-.395m-26.69-31.43q.985-.714 2.047-1.307 1.061-.593 2.185-1.058.06.088.111.18.052.093.096.19.043.096.078.196t.061.203.043.208.025.21.007.212q-.002.106-.012.212-.006.06-.015.118l-.02.118-.027.116q-.015.058-.032.115l-.038.114q-.02.056-.043.111t-.049.11-.054.106-.059.103-.064.101-.069.098-.073.094-.078.09-.083.086-.087.083-.09.077-.094.074-.098.068-.101.064l-.104.059q-.053.028-.107.053t-.11.048q-.054.023-.11.043-.057.02-.114.037t-.115.032-.117.026-.118.02-.118.014q-.06.006-.12.009-.059.003-.119.003t-.119-.003q-.06-.004-.119-.01-.08-.007-.158-.02-.079-.014-.156-.032-.078-.018-.154-.042-.077-.023-.151-.051-.075-.028-.147-.062-.073-.033-.143-.07t-.138-.08-.132-.09-.127-.097-.12-.105-.112-.113-.104-.12-.097-.128-.088-.132-.08-.139-.07-.143m-5.91 6.642q.422-.754.905-1.47.484-.717 1.026-1.39t1.138-1.3q.596-.625 1.242-1.199.07.026.137.056.068.029.134.06.067.032.132.067t.128.072.126.077.123.082.119.087.115.091.112.097.107.1.104.105.099.11.094.113.09.117.085.12.08.124.075.127.07.13.064.133.058.135.053.138q.026.069.048.14l.042.14q.02.072.036.143.016.072.03.145.014.072.024.145l.019.146.012.147.006.148q.002.073 0 .147 0 .074-.005.147-.005.074-.012.147-.009.089-.022.176-.013.088-.03.175t-.04.173-.047.17q-.026.086-.056.17-.03.083-.065.165-.034.081-.072.162-.038.08-.08.158t-.087.154-.096.15-.102.145q-.053.07-.11.14-.056.068-.116.133-.06.066-.122.129-.063.062-.129.122t-.134.115-.14.11q-.072.052-.146.101-.073.05-.15.095-.076.045-.154.087t-.159.08-.162.07-.166.064-.168.056q-.085.025-.171.047t-.173.038-.175.03-.176.022-.177.012-.177.004-.178-.004q-.088-.005-.177-.014-.1-.01-.199-.025-.1-.016-.197-.037-.099-.021-.196-.048-.097-.026-.192-.058t-.189-.069-.184-.08q-.092-.041-.18-.089-.089-.047-.175-.099t-.169-.109-.162-.118-.156-.127-.149-.135-.14-.144-.133-.15-.124-.159-.115-.165m17.544 7.666q-.013.127-.032.254t-.044.252-.057.25q-.03.124-.068.247-.038.122-.081.243-.043.12-.093.239-.049.118-.104.234-.055.115-.115.228t-.127.223-.138.216q-.07.106-.147.209t-.158.201q-.082.1-.168.194-.086.095-.177.185-.09.09-.186.176-.095.086-.194.167t-.202.158-.21.147-.216.136-.223.126-.23.115-.234.103-.239.092-.243.08-.247.068q-.124.03-.25.055t-.252.044-.254.03-.256.019-.256.006-.256-.007-.255-.02-.254-.031-.253-.044q-.125-.026-.25-.057-.124-.031-.246-.069-.123-.037-.243-.08t-.239-.093q-.118-.05-.234-.104-.116-.055-.228-.116-.113-.06-.223-.127-.11-.066-.216-.137t-.21-.148q-.102-.076-.2-.158-.1-.081-.194-.167-.095-.087-.186-.177-.09-.091-.176-.186t-.167-.194-.157-.202-.147-.21-.137-.217q-.065-.11-.125-.223t-.115-.229q-.055-.116-.103-.234-.05-.118-.092-.24-.043-.12-.08-.242-.037-.123-.068-.247-.03-.125-.056-.25-.024-.126-.043-.253-.018-.126-.03-.254-.013-.127-.02-.255-.005-.128-.005-.256t.007-.256q.006-.128.02-.256.012-.127.03-.254.02-.126.045-.252t.057-.25q.031-.124.068-.247.038-.122.081-.243.044-.12.093-.238.05-.119.104-.234.055-.116.116-.229.06-.113.126-.222.066-.11.138-.216.071-.107.147-.21.077-.102.158-.201.082-.099.168-.194t.177-.185q.09-.09.186-.176.095-.086.194-.167.1-.081.202-.157t.21-.147q.106-.071.216-.137t.223-.126q.114-.06.23-.114.115-.055.234-.104.118-.049.239-.092.12-.042.243-.08.123-.036.247-.067t.25-.056q.126-.025.252-.043.127-.019.255-.031.127-.012.255-.019t.256-.005.256.006.255.02q.128.012.255.032.126.019.252.044.125.025.25.056.124.032.246.07.123.036.243.08.12.043.239.092.118.05.234.105t.228.115q.113.06.223.127.11.066.216.137.107.072.21.148.102.077.2.158.1.081.194.168.095.086.186.177.09.09.176.185t.167.195.157.202.147.21.137.216q.065.11.125.223t.115.229q.055.116.104.234t.091.24.08.243.068.247q.03.124.056.25.024.125.043.252t.03.254q.013.128.02.256.005.128.005.256t-.007.256q-.006.128-.019.255"/><path fill="none" stroke="#000" stroke-linejoin="round" stroke-width="2.4" d="M33.278 72.853q.362.664.83 1.636.474.967.982 2.1.508 1.128 1.006 2.31.503 1.176.942 2.216.445-1.04.943-2.217.497-1.181 1.005-2.31.513-1.132.982-2.099.473-.972.83-1.636h2.842q.2 1.382.37 3.096.172 1.71.299 3.56.132 1.845.239 3.706.112 1.86.19 3.5h-3.037q-.063-2.02-.16-4.399-.099-2.383-.299-4.8l-.8 1.86q-.44 1.021-.875 2.042-.43 1.015-.83 1.948l-.678 1.592H35.88q-.283-.664-.684-1.592l-.825-1.948q-.43-1.02-.874-2.041-.44-1.02-.796-1.86-.2 2.416-.303 4.8-.097 2.377-.16 4.399H29.2q.078-1.64.186-3.501.112-1.86.239-3.706.132-1.85.303-3.56.17-1.714.37-3.096zm23.902 8.584q0 1.24-.361 2.27-.361 1.026-1.04 1.759t-1.631 1.133q-.947.395-2.129.395-1.157 0-2.11-.395-.951-.4-1.63-1.133t-1.06-1.758q-.38-1.03-.38-2.27t.39-2.261q.39-1.02 1.08-1.739.693-.722 1.64-1.123.952-.4 2.07-.4 1.143 0 2.09.4.952.4 1.63 1.123.68.718 1.06 1.739.381 1.02.381 2.26Zm-3.042 0q0-1.381-.551-2.172-.547-.791-1.568-.791t-1.582.79q-.557.792-.557 2.173 0 1.377.557 2.188.562.81 1.582.81t1.568-.81q.551-.81.551-2.188Zm15.182 0q0 1.24-.361 2.27-.361 1.026-1.04 1.759t-1.631 1.133q-.947.395-2.129.395-1.157 0-2.11-.395-.951-.4-1.63-1.133t-1.06-1.758q-.38-1.03-.38-2.27t.39-2.261q.39-1.02 1.08-1.739.693-.722 1.64-1.123.952-.4 2.07-.4 1.143 0 2.09.4.952.4 1.63 1.123.68.718 1.06 1.739.381 1.02.381 2.26Zm-3.042 0q0-1.381-.552-2.172-.546-.791-1.567-.791t-1.582.79q-.557.792-.557 2.173 0 1.377.557 2.188.562.81 1.582.81t1.567-.81q.552-.81.552-2.188Zm5.343-4.882q.757-.22 1.958-.41 1.202-.191 2.52-.191 1.343 0 2.231.352.889.351 1.407.99.522.64.742 1.52.22.878.22 1.957v5.943H77.72v-5.581q0-1.44-.38-2.036-.382-.601-1.422-.601-.317 0-.679.03-.36.029-.64.068v8.12h-2.978z"/><path fill="#fff" d="M33.278 72.853q.362.664.83 1.636.474.967.982 2.1.508 1.128 1.006 2.31.503 1.176.942 2.216.445-1.04.943-2.217.497-1.181 1.005-2.31.513-1.132.982-2.099.473-.972.83-1.636h2.842q.2 1.382.37 3.096.172 1.71.299 3.56.132 1.845.239 3.706.112 1.86.19 3.5h-3.037q-.063-2.02-.16-4.399-.099-2.383-.299-4.8l-.8 1.86q-.44 1.021-.875 2.042-.43 1.015-.83 1.948l-.678 1.592H35.88q-.283-.664-.684-1.592l-.825-1.948q-.43-1.02-.874-2.041-.44-1.02-.796-1.86-.2 2.416-.303 4.8-.097 2.377-.16 4.399H29.2q.078-1.64.186-3.501.112-1.86.239-3.706.132-1.85.303-3.56.17-1.714.37-3.096zm23.902 8.584q0 1.24-.361 2.27-.361 1.026-1.04 1.759t-1.631 1.133q-.947.395-2.129.395-1.157 0-2.11-.395-.951-.4-1.63-1.133t-1.06-1.758q-.38-1.03-.38-2.27t.39-2.261q.39-1.02 1.08-1.739.693-.722 1.64-1.123.952-.4 2.07-.4 1.143 0 2.09.4.952.4 1.63 1.123.68.718 1.06 1.739.381 1.02.381 2.26m-3.042 0q0-1.381-.551-2.172-.547-.791-1.568-.791t-1.582.79q-.557.792-.557 2.173 0 1.377.557 2.188.562.81 1.582.81t1.568-.81q.551-.81.551-2.188m15.182 0q0 1.24-.361 2.27-.361 1.026-1.04 1.759t-1.631 1.133q-.947.395-2.129.395-1.157 0-2.11-.395-.951-.4-1.63-1.133t-1.06-1.758q-.38-1.03-.38-2.27t.39-2.261q.39-1.02 1.08-1.739.693-.722 1.64-1.123.952-.4 2.07-.4 1.143 0 2.09.4.952.4 1.63 1.123.68.718 1.06 1.739.381 1.02.381 2.26m-3.042 0q0-1.381-.552-2.172-.546-.791-1.567-.791t-1.582.79q-.557.792-.557 2.173 0 1.377.557 2.188.562.81 1.582.81t1.567-.81q.552-.81.552-2.188m5.343-4.882q.757-.22 1.958-.41 1.202-.191 2.52-.191 1.343 0 2.231.352.889.351 1.407.99.522.64.742 1.52.22.878.22 1.957v5.943H77.72v-5.581q0-1.44-.38-2.036-.382-.601-1.422-.601-.317 0-.679.03-.36.029-.64.068v8.12h-2.978z"/></svg>