<svg xmlns="http://www.w3.org/2000/svg" width="110" height="110"><path fill="#6d6d6d" d="M76.322 49.996q-.053.524-.131 1.044t-.182 1.036q-.103.516-.232 1.026t-.282 1.013q-.154.503-.332.998t-.38.98-.428.961-.475.939-.52.914-.565.888-.607.859q-.314.421-.648.827-.335.406-.689.796-.354.389-.726.76-.373.371-.763.724t-.798.685-.83.646-.861.604-.89.561-.916.517-.94.471-.963.424-.982.377-.999.328-1.014.279-1.027.229-1.036.177-1.045.127q-.523.051-1.049.076t-1.051.024-1.052-.028-1.048-.08q-.524-.052-1.044-.13t-1.036-.182-1.026-.232-1.013-.282-.998-.332-.98-.38q-.486-.203-.961-.428-.475-.226-.939-.475t-.914-.52-.888-.564-.858-.608-.828-.648-.796-.689-.76-.726-.724-.763-.685-.798-.646-.83-.604-.861-.561-.89-.517-.916-.471-.94-.424-.963-.377-.982-.328-.999-.279-1.014-.228-1.027-.178-1.036-.127-1.044-.076-1.05-.024-1.051.028-1.051.08-1.05.13-1.043.182-1.036.232-1.026.282-1.013.332-.998.38-.98.428-.961.475-.939.52-.914.565-.888.607-.858.648-.828.689-.795.726-.76.763-.725.798-.685.83-.646.861-.604.89-.56.916-.518.94-.47.963-.425.982-.377.999-.328 1.014-.279 1.027-.228 1.036-.178 1.045-.127 1.049-.076 1.051-.024 1.052.028 1.048.08 1.044.13 1.036.182 1.026.232 1.013.283.998.331.98.38.961.429.939.474.914.52.888.565.858.607.828.648.796.689.76.726.724.764.685.797.646.83q.312.424.604.861.291.438.561.89t.517.916.471.94.424.963.377.982.328 1 .279 1.013.228 1.027.178 1.037.127 1.044.076 1.049.024 1.051-.028 1.052-.08 1.048"/><path fill="#878787" d="M75.789 49.943q-.052.51-.128 1.017-.076.508-.177 1.01-.1.503-.227 1-.125.498-.275.988-.15.491-.323.974-.174.482-.371.956-.197.473-.417.936t-.463.916-.507.89-.55.866-.592.838-.633.807-.671.775-.708.742-.744.705-.778.669-.81.63q-.412.304-.84.588-.426.284-.867.547-.44.263-.893.504-.453.24-.917.46-.464.218-.938.413-.474.196-.957.368-.484.171-.975.32-.49.147-.988.271t-1.001.223q-.504.1-1.011.173-.508.075-1.018.124-.51.05-1.023.074t-1.025.023-1.025-.027-1.023-.077q-.51-.052-1.017-.128-.508-.076-1.01-.177-.503-.1-1-.226-.498-.126-.988-.276t-.973-.323-.957-.371-.936-.417-.915-.463-.892-.507-.865-.55-.837-.592-.808-.633-.775-.67-.741-.71-.706-.743-.669-.778-.629-.81q-.305-.412-.589-.84-.284-.426-.547-.867-.263-.44-.504-.893-.24-.452-.46-.916-.218-.465-.413-.939t-.367-.957q-.172-.483-.32-.974-.148-.492-.272-.99-.124-.497-.223-1t-.173-1.011-.124-1.018q-.05-.51-.074-1.023t-.023-1.025.027-1.025.077-1.023q.052-.51.128-1.017t.177-1.01q.1-.503.227-1 .125-.498.275-.988t.323-.973.371-.956q.197-.474.417-.937t.463-.915.507-.892q.265-.44.55-.865.286-.426.592-.837.307-.412.633-.808t.671-.775.708-.741q.364-.362.744-.706.381-.344.778-.669.397-.324.81-.629.412-.305.84-.589.426-.284.867-.547.44-.263.893-.504.453-.24.917-.46.464-.218.938-.413t.957-.367.975-.32q.49-.148.988-.272t1.001-.223q.504-.099 1.011-.173.508-.075 1.018-.124.51-.05 1.023-.073.512-.025 1.025-.024t1.025.027 1.023.078q.51.05 1.017.127.508.076 1.01.177.503.101 1 .227.498.125.988.275t.973.323.957.371.936.417.915.463.892.507q.44.265.865.55.426.286.837.592.412.307.808.633t.775.671.741.709.706.744q.344.38.669.777.324.397.629.81.305.412.589.84.284.426.547.867.263.44.504.893.24.453.46.917.218.464.413.938t.367.957.32.975q.148.49.272.989.124.497.223 1 .099.504.173 1.011.075.508.124 1.018.05.51.074 1.023t.023 1.025-.027 1.025-.077 1.023"/><path fill="#7c7c7c" fill-rule="evenodd" d="M75.352 52.583q.303-1.306.437-2.64.099-.988.104-1.98.005-.993-.084-1.982-.227-.055-.458-.078-.082-.009-.165-.013-.082-.004-.164-.004-.083 0-.165.004t-.164.011-.164.02q-.082.012-.162.028-.081.016-.161.036t-.16.044q-.078.023-.156.051-.077.028-.153.06-.077.03-.151.066-.075.035-.148.073l-.143.081-.14.088q-.068.046-.134.095t-.13.101-.125.107q-.061.056-.12.114t-.114.119q-.055.06-.107.124-.053.064-.102.13-.05.066-.095.135-.046.068-.089.139-.042.07-.081.143t-.074.147q-.036.074-.067.15-.032.077-.06.154-.028.078-.052.156-.024.08-.044.16-.02.079-.037.16-.016.08-.028.162t-.02.164q-.009.082-.013.164t-.004.165.004.164q.003.083.011.165t.02.163.028.163.036.16q.02.08.043.16.024.078.052.156.027.077.059.154.031.076.066.15.035.075.074.148.039.072.081.143t.088.14.095.134.1.13.108.125.114.12.119.114q.06.055.124.108.064.052.13.101t.135.095.139.089.143.081q.072.04.147.075.074.035.15.067.076.031.154.06.077.027.156.051t.159.044.16.037q.081.016.163.028.081.012.163.02.336.034.672 0m-5.435 9.903q-.058-.08-.118-.157-.06-.078-.122-.154-.062-.077-.126-.151-.064-.075-.13-.147-.066-.073-.134-.144t-.137-.14-.142-.137-.144-.133l-.149-.13q-.074-.063-.151-.124-.076-.062-.155-.121-.078-.06-.157-.117-.08-.058-.161-.113l-.164-.109q-.083-.053-.167-.104l-.169-.1-.172-.095q-.086-.046-.174-.09-.088-.045-.176-.087-.09-.042-.18-.081-.09-.04-.18-.077-.091-.038-.183-.072l-.184-.068q-.093-.032-.187-.062-.093-.03-.188-.057-.094-.028-.189-.053t-.19-.047-.192-.043-.193-.037-.194-.033-.195-.027-.195-.022q-.173-.018-.346-.027-.174-.01-.347-.01-.174-.002-.347.005-.174.007-.347.022t-.345.037-.343.054-.34.07-.337.085q-.168.046-.333.1t-.327.116-.322.131-.315.146-.308.16-.3.175-.292.188q-.144.097-.283.201-.105.021-.21.045t-.209.05-.207.057-.206.063-.203.069-.202.074l-.2.08-.196.087q-.098.045-.194.092-.097.048-.192.098t-.188.103-.186.109-.182.114-.179.119-.175.124-.171.13-.168.134-.164.14-.16.144q-.078.073-.154.148-.077.076-.151.153-.074.078-.146.158t-.142.162q-.07.081-.137.165t-.132.17l-.127.173q-.062.088-.121.177-.06.09-.117.18-.057.092-.111.185-.055.093-.106.187-.052.094-.1.19-.05.096-.095.193-.102-.368-.245-.723.052-.022.102-.046.051-.024.101-.05.05-.025.099-.053t.097-.056.095-.06q.047-.03.093-.062t.091-.066.089-.068.086-.072.084-.074.082-.077l.079-.08.076-.082.073-.085q.036-.043.07-.087t.068-.09l.065-.091.062-.094q.03-.047.058-.096l.055-.098q.027-.049.052-.099l.049-.101.045-.103q.022-.051.042-.104.02-.052.038-.105l.035-.107q.017-.053.031-.108l.028-.108.024-.11.02-.11q.01-.055.017-.111t.013-.111q.008-.083.013-.166t.004-.166-.004-.166-.012-.165-.02-.165-.028-.164-.036-.162-.044-.16-.052-.158-.059-.155q-.032-.076-.067-.151-.035-.076-.074-.149-.04-.073-.082-.144-.042-.072-.088-.14-.046-.07-.096-.137-.05-.066-.102-.13-.052-.065-.108-.127-.055-.061-.114-.12t-.12-.115q-.062-.056-.126-.108-.064-.053-.13-.103-.067-.05-.136-.096t-.14-.089q-.071-.042-.144-.082-.073-.039-.148-.075t-.152-.067-.155-.06-.157-.053-.16-.044-.162-.037-.163-.028-.165-.021q-.072-.007-.145-.011-.072-.005-.145-.006l-.145.001q-.073.003-.145.008-.073.005-.145.013l-.144.02q-.072.011-.143.026t-.142.032-.14.038-.138.044-.136.05-.135.056-.131.061-.129.067-.126.073q-.062.037-.123.078-.06.04-.119.083-.058.042-.115.088t-.112.093-.107.097-.103.102l-.1.107q-.047.054-.093.11-.046.057-.09.115-.043.059-.084.119l-.079.122q-.038.061-.073.125-.036.063-.069.128t-.063.13q-.03.067-.057.134-.027.068-.05.136-.025.069-.046.138-.564-.155-1.146-.213-.128-.013-.257-.021-.13-.008-.258-.012-.13-.003-.259-.001-.129.001-.258.008-.13.006-.258.017t-.257.027q-.128.016-.255.037-.128.02-.255.047-.126.025-.252.055-.125.03-.25.065-.124.035-.247.075t-.245.084-.24.092-.238.102-.234.11-.23.12-.224.127q-.11.066-.22.136-.108.07-.214.144t-.209.152-.203.16-.197.167-.19.174-.185.182-.177.188-.17.194q-.083.1-.162.201-.08.102-.155.207-.076.105-.147.212-.072.108-.14.218-.067.11-.13.223-.064.112-.123.227.303.262.615.511.313.25.634.487.322.237.652.462.331.225.67.437t.685.411.701.385.715.357.729.33.74.301.751.274.761.244.77.215.778.185q.39.085.784.155t.79.126.793.095q.291.029.582.05.292.02.584.034.292.013.584.017t.585.002.584-.016.583-.031.583-.048.58-.064.58-.08.576-.097.574-.112.57-.129.566-.144.562-.16.557-.176.553-.191.546-.207.541-.222.534-.237.528-.252.52-.266.512-.281.505-.295.496-.31.487-.323q.241-.164.478-.336.236-.172.468-.35t.458-.362.448-.376.438-.387.426-.4.415-.411m-27.4-31.383q.548-.408 1.122-.78t1.171-.705q.597-.334 1.214-.628.618-.293 1.253-.546.04.051.076.104.037.054.071.109.035.055.066.111.032.056.061.114t.055.118.05.12l.044.12.038.124q.018.063.032.126t.027.126l.02.128q.009.064.015.129.005.064.008.129l.002.13q0 .064-.004.129-.003.064-.01.129-.006.067-.016.134t-.024.133-.03.132q-.016.065-.036.13t-.043.128-.048.126-.055.124l-.061.12q-.032.06-.067.118t-.073.114-.078.11q-.04.055-.083.107t-.089.102-.093.098q-.048.048-.098.093t-.103.088-.106.083-.111.078-.114.072q-.059.035-.118.066-.06.032-.121.06-.061.03-.124.055-.062.026-.126.049l-.128.042q-.065.02-.13.036-.066.016-.133.03-.066.012-.133.022t-.134.016q-.067.007-.135.01t-.135.003-.135-.003-.135-.01l-.094-.012q-.048-.006-.094-.014l-.094-.018-.092-.02-.092-.025q-.046-.012-.091-.027-.046-.014-.09-.03l-.09-.033-.087-.037-.087-.039-.085-.042q-.042-.022-.083-.046l-.082-.048-.08-.05-.079-.054-.076-.057q-.038-.028-.075-.059l-.072-.061q-.036-.031-.07-.064l-.068-.066q-.034-.034-.066-.069l-.063-.07-.061-.074q-.03-.037-.058-.075t-.056-.077l-.053-.079-.05-.08q-.025-.041-.047-.083-.024-.041-.045-.083l-.042-.086q-.02-.043-.038-.087-.019-.043-.036-.088M36.65 37.87q.224-.41.466-.811.241-.4.5-.79.26-.39.537-.767t.57-.741.603-.716.633-.687.665-.66.693-.628q.076.028.151.059.076.03.15.065.074.034.147.07.072.037.143.077t.14.083q.07.043.137.088.067.046.133.094.065.049.129.1.063.051.125.105.06.053.12.11.059.056.115.114t.111.12.106.123.1.128.096.132.09.136q.043.07.083.14t.078.143q.038.072.072.146.035.074.066.149.032.075.06.151t.053.154.047.156.041.157q.019.08.034.16t.027.16q.012.08.021.162.009.08.014.162.005.081.007.163.002.08 0 .162 0 .082-.005.163t-.013.162q-.01.096-.024.192t-.034.19-.042.189-.052.186-.061.183q-.033.09-.07.18t-.078.177-.088.172q-.045.085-.095.168t-.104.163-.111.157-.12.153-.126.146q-.065.071-.133.14-.069.067-.14.132t-.147.126q-.075.061-.152.119-.078.057-.158.11-.08.054-.164.104-.083.05-.168.094-.085.046-.173.087t-.177.078-.18.07q-.09.032-.183.06t-.187.05q-.093.024-.188.043t-.19.032q-.096.014-.192.024-.096.009-.193.013-.096.005-.193.005t-.193-.005-.193-.015q-.11-.011-.221-.028-.11-.018-.22-.042-.109-.023-.217-.053-.107-.03-.213-.066t-.21-.078-.204-.09-.2-.1-.193-.112-.186-.123q-.092-.064-.18-.133-.087-.07-.17-.144-.085-.074-.164-.152-.08-.079-.154-.162-.075-.083-.145-.17t-.134-.178-.125-.186m18.173 7.583q-.014.135-.034.27-.02.134-.047.268-.027.133-.06.265t-.073.262-.086.258-.098.253-.11.248-.123.243-.135.236-.146.23-.157.222-.167.214-.178.205-.188.197-.197.187-.206.177-.215.167q-.11.08-.223.156t-.23.145q-.116.07-.236.134t-.243.122-.25.11q-.125.051-.253.097-.128.045-.258.085-.13.039-.262.072t-.266.059-.268.046-.27.032q-.135.014-.27.02-.137.006-.273.006t-.271-.007-.271-.02q-.136-.014-.27-.034-.135-.02-.268-.047t-.265-.06-.262-.073-.258-.086-.253-.098q-.126-.053-.249-.111t-.242-.123q-.12-.064-.237-.134t-.23-.146q-.112-.076-.221-.157-.11-.081-.214-.168-.105-.086-.206-.178-.1-.091-.196-.187-.096-.097-.187-.198-.091-.1-.178-.206-.086-.105-.166-.214-.081-.11-.157-.223-.075-.113-.145-.23t-.133-.237-.122-.243-.11-.249-.097-.253-.085-.259-.072-.262-.059-.265-.046-.268-.033-.27-.02-.271-.005-.272.007-.272.02-.27.034-.27.047-.268.06-.265.073-.262.086-.258.098-.254.11-.248q.06-.123.123-.243.065-.12.135-.236.07-.117.146-.23.075-.112.157-.222.08-.109.167-.214.087-.104.178-.205.092-.1.188-.197.096-.096.197-.187.101-.09.206-.177.106-.086.215-.167.11-.08.223-.156.113-.075.23-.145.116-.07.236-.134.12-.063.243-.121.124-.058.25-.11.125-.052.253-.097t.258-.085.263-.072q.131-.033.265-.06.133-.026.268-.045.134-.02.27-.033.135-.013.27-.02.137-.006.273-.006t.271.007.272.02.27.035q.134.02.267.047.133.026.265.06.132.033.262.073t.258.085.254.099.248.11.243.123.236.134.23.146.221.157.214.168.206.178.196.188.187.197.178.206.167.215.156.222.145.23.133.237.122.243.11.249.097.254.085.258.072.262.059.265.046.268.033.27.02.271.006.272-.008.272-.02.271"/><path fill="#999" fill-rule="evenodd" d="M75.426 52.25q.246-1.143.363-2.307.09-.903.102-1.81.012-.908-.055-1.813-.254-.071-.518-.097-.074-.008-.148-.012-.075-.004-.149-.004-.075 0-.149.004-.074.003-.149.01-.074.008-.147.018-.074.011-.147.026t-.146.032-.143.04q-.072.021-.142.046t-.139.053q-.069.029-.136.06-.068.032-.133.067-.066.035-.13.073-.064.039-.126.08t-.122.085-.118.092-.113.097-.108.102q-.053.053-.103.108t-.097.113-.092.117-.086.122-.08.125-.074.13-.067.133-.06.136q-.03.069-.055.139t-.047.141l-.04.144q-.018.072-.032.145t-.026.147-.019.148-.01.148q-.005.075-.005.15 0 .074.004.148.003.075.01.149t.018.148q.011.073.025.146.015.074.033.146t.04.143q.02.072.046.142t.053.14q.029.068.06.135.032.068.067.134.035.065.073.13.038.063.08.125.04.062.085.122.044.06.092.118.047.058.097.113t.102.108.108.103.113.097.117.092.122.086.125.08.13.074.133.067.136.06q.069.03.139.055t.141.047q.071.021.144.04.072.018.145.033.073.014.147.025.073.011.147.019.358.036.714-.013m-5.739 10.466q-.055-.077-.112-.152-.058-.076-.117-.15l-.121-.146q-.061-.072-.125-.143l-.128-.14q-.065-.068-.132-.135-.067-.068-.135-.133-.069-.065-.14-.129-.07-.064-.142-.125-.072-.062-.145-.122-.074-.06-.149-.117t-.152-.114-.155-.11l-.157-.105q-.08-.052-.16-.101-.081-.05-.164-.097l-.165-.093q-.083-.045-.168-.088-.084-.043-.17-.084l-.172-.079q-.087-.038-.175-.074-.087-.036-.176-.07t-.178-.065q-.09-.032-.18-.061-.09-.03-.181-.056-.09-.026-.183-.05-.091-.025-.184-.047-.092-.022-.185-.041-.092-.02-.186-.036-.093-.017-.187-.032-.093-.014-.188-.026-.094-.012-.188-.021-.168-.017-.336-.026-.168-.01-.337-.01-.168-.001-.337.006-.168.007-.336.022t-.335.037-.332.053-.33.07q-.164.037-.327.083-.162.046-.321.1-.16.053-.317.114t-.312.13-.304.143-.298.158q-.147.083-.29.172t-.281.185-.273.198q-.12.022-.238.049-.118.026-.235.056-.118.03-.234.065-.117.034-.232.072-.115.039-.228.081-.114.042-.226.088t-.223.096-.219.104-.215.112-.212.118-.207.126-.203.133-.198.14-.194.146-.188.154q-.092.078-.182.16-.09.08-.177.165-.087.084-.171.172t-.166.177-.159.183-.152.189-.146.193-.14.2-.132.202-.125.208-.118.212-.11.216-.104.22q-.05.11-.095.222-.046.113-.088.226-.042.114-.08.23-.038.115-.071.231-.028-.27-.078-.536t-.122-.528-.164-.516-.206-.5q.053-.017.105-.036.053-.018.105-.039.052-.02.103-.043t.101-.047l.1-.05q.049-.026.097-.054l.096-.057.093-.061.091-.065.09-.067.085-.071q.043-.036.084-.074t.08-.077.079-.08.075-.082.072-.085.069-.088l.065-.09q.032-.046.062-.093l.06-.094.055-.097.051-.1.049-.1q.023-.05.044-.102l.04-.104q.02-.052.038-.105l.033-.107.029-.107.025-.11.021-.109q.01-.055.017-.11t.013-.11q.008-.075.012-.15t.004-.15-.004-.15q-.003-.076-.01-.15-.008-.075-.019-.15-.01-.074-.025-.148-.015-.073-.033-.146t-.04-.145q-.021-.072-.046-.143l-.054-.14q-.029-.07-.06-.138l-.068-.134q-.035-.066-.074-.13-.038-.065-.08-.128-.042-.062-.086-.123-.045-.06-.092-.118-.048-.058-.098-.114t-.104-.11q-.053-.052-.108-.103-.056-.05-.114-.098t-.118-.093-.123-.087-.127-.08-.13-.075q-.066-.035-.134-.067-.068-.033-.137-.061-.07-.03-.14-.055t-.143-.047q-.072-.022-.145-.04t-.146-.034l-.148-.026-.15-.018q-.07-.007-.14-.011t-.142-.004-.141.002q-.07.003-.141.009t-.141.015-.14.021-.138.029q-.07.015-.138.034l-.135.041q-.067.022-.133.047-.067.025-.132.053-.064.028-.128.06-.064.03-.126.065-.062.034-.122.07t-.12.077-.115.082-.111.087-.108.092-.103.097-.098.101-.094.106-.088.11-.084.115-.078.118-.072.121-.067.125-.061.128-.055.13-.049.133-.043.135-.036.136-.03.139q-.343-.114-.696-.189t-.712-.11q-.124-.013-.248-.02t-.248-.012-.249 0q-.124 0-.248.007-.125.006-.249.017-.123.011-.247.027-.123.016-.246.036t-.244.045-.243.055-.24.063-.238.073-.235.081-.232.09q-.115.048-.228.1-.113.051-.225.107-.11.056-.22.116-.109.06-.215.124-.107.064-.21.132-.105.068-.206.14-.102.072-.2.148-.1.076-.195.155-.096.08-.188.162-.093.083-.182.17-.09.086-.176.176t-.169.182-.162.19q-.079.095-.155.194-.075.099-.147.2-.071.102-.14.206-.067.104-.13.211-.065.107-.124.216-.06.11-.116.22.299.25.607.489.308.238.624.465.317.227.641.442.325.215.658.417.332.203.672.393t.687.368.7.341.712.315.723.289.733.261q.37.124.743.234.374.11.751.206.378.096.758.178.381.082.765.15.383.067.769.12.386.054.773.093.286.028.572.05.287.02.574.033.286.013.574.018.287.005.574.002t.574-.014.573-.029.573-.045.571-.061.57-.076.566-.093.564-.107.561-.123.557-.139.554-.154.548-.169.544-.184.54-.198.532-.214.527-.228.52-.243q.26-.124.515-.256t.506-.271q.251-.139.499-.285.247-.145.49-.298.244-.152.483-.311.239-.16.474-.325.234-.166.464-.338t.455-.35.446-.362q.22-.185.435-.375t.424-.387.414-.398m-26.9-31.81q.487-.351.993-.674.506-.322 1.03-.614.524-.293 1.064-.555t1.093-.493q.038.046.074.094l.07.098.063.102q.031.05.06.104t.053.107q.026.054.049.11.023.055.043.111t.037.114.032.115.026.117.02.118q.01.06.015.12.006.059.009.119t.003.12-.003.12-.01.119q-.005.06-.014.118l-.02.118-.027.116q-.015.058-.032.115l-.038.114q-.02.056-.043.111t-.049.109-.054.107-.059.103q-.03.052-.064.101-.033.05-.069.098-.035.048-.073.094t-.078.09-.083.086-.087.082-.09.078-.094.074-.098.068-.101.064l-.104.059q-.053.028-.107.053t-.11.048q-.054.023-.11.043-.057.02-.114.037t-.115.032-.117.026-.118.02-.118.014q-.06.006-.12.009-.059.003-.119.003t-.119-.004q-.06-.002-.119-.008l-.086-.01-.086-.014-.085-.016-.084-.02-.084-.022-.083-.025-.082-.028-.08-.031-.08-.034-.079-.037-.077-.04-.076-.042-.074-.045-.072-.047-.07-.05q-.036-.026-.07-.053l-.067-.055q-.033-.028-.065-.058-.032-.029-.063-.06l-.06-.061q-.03-.031-.059-.064l-.056-.066-.054-.068q-.026-.034-.05-.07-.026-.035-.05-.071l-.046-.074-.044-.074-.04-.077-.038-.078q-.019-.039-.036-.079l-.032-.08q-.016-.04-.03-.082m-5.957 6.638q.208-.366.43-.724.223-.358.46-.706.236-.349.487-.687.25-.339.515-.667.264-.329.541-.646t.567-.623.592-.6.615-.576q.074.023.147.049t.145.055.143.06l.14.068q.069.035.137.073.067.038.133.079.066.04.13.084t.126.09q.063.047.123.096t.118.1.114.106.109.11q.053.056.104.115l.1.119q.047.06.093.123t.089.128q.043.064.083.13.04.067.077.135t.072.138.065.14.06.143.053.146q.025.074.047.148t.04.15q.02.075.035.15.015.077.027.154.012.076.021.153t.015.155.008.155q.002.077 0 .155 0 .077-.005.155-.004.077-.012.154-.009.089-.022.176-.013.088-.03.175t-.04.173-.048.17q-.025.086-.055.17-.03.083-.065.165-.034.081-.072.162-.038.08-.08.158t-.088.154-.095.15-.102.145q-.053.07-.11.14-.056.068-.116.133-.06.066-.122.129-.063.062-.129.122t-.134.115-.14.11q-.072.052-.146.101-.073.05-.15.095-.076.045-.154.087t-.159.08-.162.07-.166.064-.168.056q-.085.025-.171.047t-.173.038-.175.03-.176.022-.177.012-.177.004q-.09 0-.178-.004-.088-.005-.177-.014-.107-.01-.214-.028-.107-.017-.212-.04-.106-.024-.21-.054t-.206-.066-.202-.078-.196-.09-.191-.102-.185-.112-.177-.124-.17-.134-.161-.144q-.079-.075-.153-.154t-.143-.162-.133-.17q-.064-.088-.123-.178-.058-.091-.111-.186m17.672 7.876q-.013.127-.032.254t-.044.252-.057.25q-.03.124-.068.247-.038.122-.081.243-.043.12-.093.239-.049.118-.104.234-.055.115-.115.228t-.127.223-.138.216q-.07.106-.147.209t-.158.201q-.082.1-.168.194-.086.095-.177.185-.09.09-.186.176-.095.086-.194.167t-.202.158-.21.147-.216.136-.223.126-.23.115-.234.103-.239.092-.243.08-.247.068q-.124.03-.25.055t-.252.044-.255.03-.255.019-.256.006-.256-.007-.255-.02-.254-.031-.253-.044q-.125-.026-.25-.057-.124-.031-.246-.069-.123-.037-.243-.08t-.239-.093q-.118-.05-.234-.104-.116-.055-.228-.116-.113-.06-.223-.127-.11-.066-.216-.137t-.21-.148-.2-.158q-.1-.081-.194-.167-.095-.086-.186-.177-.09-.091-.176-.186t-.167-.194-.157-.202-.147-.21-.137-.217q-.065-.11-.125-.223t-.115-.229q-.055-.116-.103-.234-.05-.118-.092-.24-.043-.12-.08-.242-.037-.123-.068-.247-.03-.125-.056-.25-.024-.126-.043-.253-.018-.126-.03-.254-.013-.127-.02-.255-.005-.128-.005-.256t.007-.256q.006-.128.02-.256.012-.127.03-.254.02-.126.045-.252t.057-.25q.031-.124.068-.247.038-.122.081-.243.044-.12.093-.238.05-.119.104-.234.055-.116.116-.229.06-.113.126-.222.066-.11.138-.216.071-.107.147-.21.077-.102.158-.201.082-.099.168-.194t.177-.185q.09-.09.186-.176.095-.086.194-.167.1-.081.202-.157t.21-.147q.106-.071.216-.137t.223-.126.23-.114q.115-.055.234-.104.118-.049.239-.092.12-.042.243-.08.123-.036.247-.067t.25-.056q.126-.025.252-.043.127-.019.255-.031.127-.012.255-.019t.256-.005.256.006.255.02q.128.012.255.032.126.019.252.044.125.025.25.056.124.032.246.07.123.036.243.08.12.043.239.092.118.05.234.105t.228.115q.113.06.223.127.11.066.216.137.107.072.21.148.102.077.2.158.1.081.194.168.095.086.186.177.09.09.176.185t.167.195.157.202.147.21.137.216q.065.11.125.223t.115.229q.055.116.104.234t.091.24.08.243.068.247q.03.124.056.25.024.125.043.252t.03.254q.013.128.02.256.005.128.005.256t-.007.256q-.006.128-.019.255"/><path fill="none" stroke="#000" stroke-linejoin="round" stroke-width="2.4" d="M33.278 72.853q.362.664.83 1.636.474.967.982 2.1.508 1.128 1.006 2.31.503 1.176.942 2.216.445-1.04.943-2.217.497-1.181 1.005-2.31.513-1.132.982-2.099.473-.972.83-1.636h2.842q.2 1.382.37 3.096.172 1.71.299 3.56.132 1.845.239 3.706.112 1.86.19 3.5h-3.037q-.063-2.02-.16-4.399-.099-2.383-.299-4.8l-.8 1.86q-.44 1.021-.875 2.042-.43 1.015-.83 1.948l-.678 1.592H35.88q-.283-.664-.684-1.592l-.825-1.948q-.43-1.02-.874-2.041-.44-1.02-.796-1.86-.2 2.416-.303 4.8-.097 2.377-.16 4.399H29.2q.078-1.64.186-3.501.112-1.86.239-3.706.132-1.85.303-3.56.17-1.714.37-3.096zm23.902 8.584q0 1.24-.361 2.27-.361 1.026-1.04 1.759t-1.631 1.133q-.947.395-2.129.395-1.157 0-2.11-.395-.951-.4-1.63-1.133t-1.06-1.758q-.38-1.03-.38-2.27t.39-2.261q.39-1.02 1.08-1.739.693-.722 1.64-1.123.952-.4 2.07-.4 1.143 0 2.09.4.952.4 1.63 1.123.68.718 1.06 1.739.381 1.02.381 2.26Zm-3.042 0q0-1.381-.551-2.172-.547-.791-1.568-.791t-1.582.79q-.557.792-.557 2.173 0 1.377.557 2.188.562.81 1.582.81t1.568-.81q.551-.81.551-2.188Zm15.182 0q0 1.24-.361 2.27-.361 1.026-1.04 1.759t-1.631 1.133q-.947.395-2.129.395-1.157 0-2.11-.395-.951-.4-1.63-1.133t-1.06-1.758q-.38-1.03-.38-2.27t.39-2.261q.39-1.02 1.08-1.739.693-.722 1.64-1.123.952-.4 2.07-.4 1.143 0 2.09.4.952.4 1.63 1.123.68.718 1.06 1.739.381 1.02.381 2.26Zm-3.042 0q0-1.381-.552-2.172-.546-.791-1.567-.791t-1.582.79q-.557.792-.557 2.173 0 1.377.557 2.188.562.81 1.582.81t1.567-.81q.552-.81.552-2.188Zm5.343-4.882q.757-.22 1.958-.41 1.202-.191 2.52-.191 1.343 0 2.231.352.889.351 1.407.99.522.64.742 1.52.22.878.22 1.957v5.943H77.72v-5.581q0-1.44-.38-2.036-.382-.601-1.422-.601-.317 0-.679.03-.36.029-.64.068v8.12h-2.978z"/><path fill="#fff" d="M33.278 72.853q.362.664.83 1.636.474.967.982 2.1.508 1.128 1.006 2.31.503 1.176.942 2.216.445-1.04.943-2.217.497-1.181 1.005-2.31.513-1.132.982-2.099.473-.972.83-1.636h2.842q.2 1.382.37 3.096.172 1.71.299 3.56.132 1.845.239 3.706.112 1.86.19 3.5h-3.037q-.063-2.02-.16-4.399-.099-2.383-.299-4.8l-.8 1.86q-.44 1.021-.875 2.042-.43 1.015-.83 1.948l-.678 1.592H35.88q-.283-.664-.684-1.592l-.825-1.948q-.43-1.02-.874-2.041-.44-1.02-.796-1.86-.2 2.416-.303 4.8-.097 2.377-.16 4.399H29.2q.078-1.64.186-3.501.112-1.86.239-3.706.132-1.85.303-3.56.17-1.714.37-3.096zm23.902 8.584q0 1.24-.361 2.27-.361 1.026-1.04 1.759t-1.631 1.133q-.947.395-2.129.395-1.157 0-2.11-.395-.951-.4-1.63-1.133t-1.06-1.758q-.38-1.03-.38-2.27t.39-2.261q.39-1.02 1.08-1.739.693-.722 1.64-1.123.952-.4 2.07-.4 1.143 0 2.09.4.952.4 1.63 1.123.68.718 1.06 1.739.381 1.02.381 2.26m-3.042 0q0-1.381-.551-2.172-.547-.791-1.568-.791t-1.582.79q-.557.792-.557 2.173 0 1.377.557 2.188.562.81 1.582.81t1.568-.81q.551-.81.551-2.188m15.182 0q0 1.24-.361 2.27-.361 1.026-1.04 1.759t-1.631 1.133q-.947.395-2.129.395-1.157 0-2.11-.395-.951-.4-1.63-1.133t-1.06-1.758q-.38-1.03-.38-2.27t.39-2.261q.39-1.02 1.08-1.739.693-.722 1.64-1.123.952-.4 2.07-.4 1.143 0 2.09.4.952.4 1.63 1.123.68.718 1.06 1.739.381 1.02.381 2.26m-3.042 0q0-1.381-.552-2.172-.546-.791-1.567-.791t-1.582.79q-.557.792-.557 2.173 0 1.377.557 2.188.562.81 1.582.81t1.567-.81q.552-.81.552-2.188m5.343-4.882q.757-.22 1.958-.41 1.202-.191 2.52-.191 1.343 0 2.231.352.889.351 1.407.99.522.64.742 1.52.22.878.22 1.957v5.943H77.72v-5.581q0-1.44-.38-2.036-.382-.601-1.422-.601-.317 0-.679.03-.36.029-.64.068v8.12h-2.978z"/></svg>