<svg xmlns="http://www.w3.org/2000/svg" width="110" height="110"><path fill="#6d6d6d" d="M76.322 49.996q-.053.524-.131 1.044t-.182 1.036-.232 1.026-.282 1.013-.332.998-.38.98-.428.961-.475.939q-.249.463-.52.914-.271.45-.565.888-.292.437-.607.859-.314.421-.648.828-.335.406-.689.795t-.726.76-.763.724-.798.685-.83.646q-.424.313-.861.604-.438.292-.89.561t-.916.517-.94.471-.963.424-.982.377q-.495.177-.999.328t-1.014.28q-.51.126-1.027.228-.516.101-1.036.178-.521.076-1.045.126t-1.049.076-1.051.024-1.052-.028-1.048-.08q-.524-.052-1.044-.13t-1.036-.182-1.026-.232-1.013-.282q-.503-.154-.998-.332t-.98-.38-.961-.428-.939-.475-.914-.52-.888-.564-.858-.608-.828-.648-.796-.689-.76-.726-.724-.763-.685-.798-.646-.83-.604-.861-.561-.89-.517-.916q-.247-.464-.47-.94-.225-.476-.425-.963-.2-.486-.377-.982-.176-.495-.328-.999t-.279-1.014-.229-1.027-.177-1.036-.127-1.044-.076-1.05-.024-1.051.028-1.051q.027-.526.08-1.05.052-.523.13-1.043t.182-1.036.232-1.026.282-1.013q.154-.503.332-.998t.38-.98.428-.961.475-.939.52-.914.565-.888q.292-.436.607-.858.314-.422.648-.828.335-.406.689-.795.354-.39.726-.76.373-.372.763-.725.39-.352.798-.685.407-.333.83-.646.424-.312.861-.604.438-.291.89-.561t.916-.517.94-.47.963-.425.982-.377.999-.328 1.014-.279 1.027-.228q.516-.102 1.036-.178.521-.077 1.045-.127t1.049-.076 1.051-.024 1.052.028 1.048.08q.524.052 1.044.13t1.036.182 1.026.232 1.013.282q.503.154.998.332t.98.38.961.429.939.474.914.52q.45.272.888.565.436.293.858.607t.828.648.796.689.76.726.724.764q.352.39.685.797t.646.83q.312.424.604.862.291.437.561.89.27.45.517.915t.47.94q.225.476.425.963.2.486.377.982.176.495.328 1 .152.503.279 1.013t.229 1.027.177 1.037q.077.52.127 1.044.05.523.076 1.049t.024 1.051-.028 1.052-.08 1.048"/><path fill="#878787" d="M75.7 49.934q-.051.508-.127 1.013t-.177 1.006-.225.996-.274.983-.322.97-.37.951-.415.933-.46.911-.506.888-.548.862-.589.833-.63.804-.668.772-.705.738-.741.703q-.38.342-.775.666-.395.323-.806.626-.41.304-.836.587-.425.283-.863.545-.439.261-.89.501-.45.24-.913.458-.462.217-.934.412t-.953.365q-.481.172-.97.319-.49.147-.985.27-.496.124-.997.222-.5.1-1.006.173-.505.074-1.014.123-.508.05-1.018.073-.51.025-1.021.024t-1.02-.027-1.019-.077-1.013-.127-1.006-.176q-.5-.1-.996-.226-.495-.125-.983-.274-.489-.15-.97-.322-.48-.173-.951-.37-.472-.196-.933-.415-.461-.22-.911-.46-.45-.242-.888-.506-.437-.263-.861-.547-.425-.285-.834-.59-.41-.305-.804-.63-.394-.324-.772-.668t-.738-.705-.703-.741-.666-.775-.626-.806q-.304-.41-.587-.836-.283-.425-.544-.863-.262-.439-.502-.89-.24-.45-.458-.913-.217-.462-.412-.934t-.365-.953-.319-.97-.27-.985q-.124-.495-.222-.997-.099-.5-.173-1.006-.074-.505-.123-1.014-.05-.508-.073-1.018-.025-.51-.024-1.02.001-.512.027-1.022t.077-1.018q.051-.508.127-1.013t.177-1.006.225-.996.274-.983.322-.97.37-.951.415-.933.46-.911.506-.888.548-.861.589-.834.63-.804.668-.772.705-.738.741-.703q.38-.342.775-.665.395-.324.806-.627.41-.304.836-.587.425-.283.863-.544.439-.262.89-.502.45-.24.913-.457.462-.218.934-.412.472-.195.953-.366t.97-.319q.49-.147.985-.27.496-.123.997-.222.5-.099 1.006-.173.505-.074 1.014-.123.508-.05 1.018-.073.51-.024 1.021-.023.51 0 1.02.026t1.019.077q.508.051 1.013.127t1.006.177.996.225.983.274.97.322.951.37.933.415.911.46.888.506.861.548q.425.284.834.589.41.305.804.63t.772.668.738.706.703.74q.342.38.666.775.323.395.626.806.304.41.587.836.283.425.544.863.262.439.502.89.24.45.458.913.217.462.412.934t.365.953.319.97.27.985q.124.496.222.997.099.5.173 1.006.074.505.123 1.014.05.508.073 1.018.025.51.024 1.021t-.027 1.02-.077 1.019"/><path fill="#7c7c7c" fill-rule="evenodd" d="M75.245 52.645q.317-1.34.455-2.711.1-1.005.104-2.015t-.092-2.015q-.177-.037-.356-.055-.083-.008-.167-.012t-.167-.005-.168.004q-.083.004-.167.012-.083.008-.166.02t-.165.029-.163.036-.162.044-.159.053-.156.06-.153.067-.15.075-.145.082-.142.09-.137.096-.132.103-.127.109-.122.115-.115.12-.11.127-.103.132-.097.137-.09.141-.082.146-.076.149-.068.153-.06.156-.053.159-.045.161-.037.163-.029.165-.02.166q-.01.084-.013.167-.005.084-.005.167 0 .084.004.168.004.083.012.167.008.083.02.166t.028.165.037.163.044.162.052.159.06.156.068.153.075.15.082.146q.043.071.09.141.046.07.096.137.05.068.102.132.053.065.11.127.055.062.115.122.059.059.12.115.063.057.127.11.065.053.132.103t.137.097l.14.09q.073.043.146.082.074.04.15.076.075.036.153.068.077.032.156.06.078.029.159.053.08.025.16.045.082.02.164.037t.165.03.166.02q.285.029.57.01m-5.344 9.73q-.117-.157-.242-.306-.125-.15-.257-.292-.133-.143-.272-.28-.14-.135-.286-.263-.147-.129-.3-.25-.153-.12-.312-.233-.159-.112-.323-.217-.165-.104-.335-.2-.17-.095-.344-.182t-.353-.164q-.179-.078-.36-.146-.183-.069-.37-.128-.185-.058-.373-.107-.189-.05-.38-.089-.19-.04-.383-.069t-.387-.049q-.173-.017-.347-.026-.175-.01-.35-.011-.174-.001-.348.005-.175.007-.349.022-.173.015-.347.038-.173.023-.344.053-.172.031-.342.07t-.339.085-.334.101-.329.117-.323.131-.317.146-.31.16q-.153.085-.302.176t-.294.188-.284.202q-.138.028-.275.06-.136.033-.271.07-.136.038-.27.08-.133.043-.265.091t-.262.1-.259.111-.253.12q-.126.063-.25.13-.123.067-.243.139-.121.072-.239.148t-.233.157-.226.166-.22.174-.214.182-.206.19-.2.199q.105-.167.19-.345.084-.178.147-.364.064-.186.106-.379.042-.192.061-.388.009-.084.013-.168t.005-.169-.004-.168q-.004-.085-.012-.169-.008-.083-.02-.167-.013-.083-.03-.166-.015-.083-.036-.165t-.044-.162q-.025-.081-.053-.16-.028-.08-.06-.158-.033-.078-.069-.154-.035-.077-.075-.151t-.083-.147q-.043-.072-.09-.142t-.097-.139-.103-.133-.11-.128-.116-.122-.122-.116-.128-.11-.132-.105-.138-.097-.142-.09-.147-.084-.15-.076-.154-.069-.158-.06q-.079-.03-.16-.054-.08-.024-.162-.045t-.164-.037q-.083-.017-.167-.03-.083-.012-.167-.02-.072-.008-.145-.012t-.146-.005h-.146l-.146.008q-.073.005-.145.013-.073.008-.145.02-.072.01-.143.025-.072.014-.143.032-.07.017-.14.037t-.14.044q-.07.023-.137.05-.068.026-.135.055t-.133.06l-.13.067q-.064.035-.127.072l-.124.078-.12.082q-.06.043-.117.088t-.113.092q-.055.048-.108.097-.054.05-.105.102t-.1.106-.096.11-.091.114-.086.118-.08.122-.076.124q-.037.064-.07.128-.035.065-.066.131l-.059.133q-.028.068-.053.136-.026.069-.048.138-.544-.146-1.104-.202-.128-.013-.257-.02-.128-.009-.257-.012-.128-.003-.257-.002-.128.001-.257.007-.128.007-.256.017t-.256.027q-.127.015-.254.036t-.254.045-.25.054-.25.064-.246.073-.244.082-.24.09-.238.1q-.117.053-.233.109-.115.056-.229.117-.113.06-.224.125t-.22.133q-.109.07-.215.142-.106.073-.209.15-.103.076-.204.156t-.197.164-.192.172q-.094.087-.185.178-.09.091-.178.185-.088.095-.172.192t-.164.198-.157.204-.149.209-.141.215-.134.22q-.064.11-.125.224.302.263.614.514.312.25.634.49.321.238.652.465.33.226.669.44.339.212.686.413.346.2.7.386.355.187.716.36t.729.332.74.303q.374.145.753.275t.762.245.771.216.779.187.785.156.791.126.795.095q.29.029.582.05.291.02.583.034.292.013.584.017t.584.001.584-.015.583-.032.582-.048.58-.065.58-.08.575-.097.573-.113.57-.13.566-.144.561-.161.557-.177.551-.192.546-.208.54-.222.534-.238.526-.253.52-.267.511-.282.504-.296.495-.31q.245-.16.486-.324.24-.166.476-.338t.467-.35.457-.364.447-.377q.22-.19.436-.388.215-.198.425-.401t.413-.413M42.508 31.221q.56-.42 1.147-.803.587-.382 1.199-.724.611-.341 1.244-.64.634-.3 1.285-.557.073.102.135.21.063.11.116.223.053.114.095.232.043.117.075.239.031.12.052.244t.031.249q.01.125.009.25t-.014.25q-.007.069-.017.137t-.024.136l-.03.134q-.018.067-.038.133t-.043.13q-.023.065-.05.129-.026.064-.056.126t-.062.123l-.068.12q-.036.059-.074.116-.039.057-.08.113-.041.055-.085.108t-.09.104-.095.1q-.05.049-.1.095t-.105.09q-.053.043-.109.084-.055.041-.112.08-.058.038-.117.073l-.12.068q-.06.032-.123.061-.063.03-.126.056-.064.026-.129.05l-.13.042q-.067.02-.134.037l-.134.03q-.068.013-.136.023t-.137.017l-.137.01q-.07.003-.138.003-.07 0-.138-.004-.069-.003-.137-.01l-.093-.011q-.047-.006-.093-.014l-.092-.017-.09-.02-.092-.023-.09-.027q-.044-.013-.088-.029l-.088-.032q-.044-.016-.087-.035l-.085-.037-.084-.041-.083-.043-.082-.047-.08-.048q-.039-.025-.077-.052-.039-.026-.077-.054l-.074-.056-.073-.06-.07-.06-.069-.064-.066-.066-.064-.069-.062-.07-.06-.072-.056-.074-.054-.076q-.027-.038-.052-.078l-.05-.08-.046-.08q-.023-.041-.044-.083l-.041-.084q-.02-.042-.038-.085m-5.832 6.786q.227-.423.473-.834t.511-.811.548-.787.584-.76.618-.733q.317-.36.65-.704.334-.344.684-.673.349-.328.713-.64l.148.062q.073.033.145.069.073.036.143.074l.14.08q.069.042.136.086t.133.091.128.096q.064.05.125.102.062.052.121.106.06.055.116.112.057.056.112.115t.107.12q.052.062.102.125t.097.129q.047.065.092.132.044.067.086.136.042.068.08.139.04.07.076.142t.069.146q.033.073.063.147l.058.15q.027.077.05.153.025.077.046.155l.038.156q.018.079.033.158.014.079.026.159l.02.16q.008.08.013.16l.006.16q.002.081 0 .161-.001.08-.006.161-.005.08-.013.16-.01.098-.024.195t-.034.193-.043.19q-.024.096-.053.19-.028.093-.062.185-.033.092-.07.183-.038.09-.08.178-.042.089-.088.175-.047.086-.097.17t-.105.166q-.055.08-.113.16-.059.078-.121.154-.062.075-.128.148-.066.072-.135.141-.07.07-.143.135-.072.066-.148.128-.076.061-.155.12-.078.058-.16.112-.081.054-.165.105t-.17.096q-.087.046-.176.087-.088.042-.179.08-.09.037-.183.07-.092.032-.186.06-.094.029-.189.053t-.19.042-.194.033-.194.024-.195.014-.196.004-.196-.005-.195-.015q-.109-.01-.216-.027-.108-.017-.215-.04t-.212-.051-.21-.063-.204-.074-.201-.085-.196-.096-.19-.107-.185-.116-.178-.127-.17-.136-.163-.146-.154-.154-.146-.162-.137-.17-.127-.177m18.2 7.45q-.015.136-.035.272t-.047.27q-.027.135-.061.268t-.074.264-.086.26q-.047.13-.1.257-.052.126-.111.25t-.124.245-.136.239q-.07.118-.147.232t-.159.224-.169.216q-.087.106-.18.207-.092.102-.19.199-.096.097-.198.189t-.208.179q-.107.087-.217.168t-.225.158q-.114.076-.232.146t-.24.135-.245.123-.25.11q-.128.053-.257.1-.13.045-.26.085-.132.04-.265.073-.134.033-.268.06-.135.026-.27.046-.137.02-.273.033-.137.013-.274.02-.137.006-.275.006-.137 0-.274-.008-.137-.007-.274-.02-.136-.014-.272-.034t-.27-.048q-.135-.027-.268-.06-.133-.034-.265-.074-.13-.04-.26-.087t-.256-.099q-.127-.053-.25-.112-.125-.059-.246-.123-.12-.065-.238-.136t-.232-.148-.224-.158q-.11-.082-.216-.17-.106-.087-.208-.179t-.198-.19-.19-.199-.178-.208-.168-.217-.158-.224-.147-.232-.134-.24-.123-.245-.111-.251-.098-.256-.086-.261-.073-.265-.06-.268-.046-.27-.033-.273-.02-.274-.006-.274.007-.274.021-.274.034-.273q.02-.135.047-.27.028-.135.061-.268.034-.133.074-.264t.086-.26.1-.256.111-.251.124-.245.136-.239q.07-.117.147-.231t.159-.225.169-.216q.087-.106.18-.207.092-.102.19-.199.097-.096.198-.188t.209-.18.216-.168q.11-.081.225-.158.114-.076.232-.146t.24-.135.245-.123.25-.11q.128-.053.257-.099.13-.046.26-.086.132-.04.266-.072.133-.033.268-.06.134-.026.27-.046t.273-.033q.136-.014.273-.02.137-.007.275-.006.137 0 .274.007t.274.02.272.035.27.047.268.06.265.074.26.087.256.1.25.11.246.125.238.136q.118.07.232.147t.224.158.216.17q.106.087.208.18.101.092.198.189t.19.199.178.208.169.217.157.225.147.232.135.239q.064.121.123.245t.11.251q.053.127.099.257.046.129.085.26.04.132.073.265t.06.268.046.27.033.273.02.274.006.274-.007.275-.02.273m-.034 18.27q-.385.522-.673 1.103-.083-.277-.189-.545.235-.107.452-.247t.41-.312"/><path fill="#999" fill-rule="evenodd" d="M75.332 52.261q.25-1.153.368-2.327.09-.907.102-1.818t-.057-1.82q-.21-.052-.426-.073-.075-.008-.15-.012-.073-.003-.148-.004-.074 0-.149.004-.074.003-.148.01-.075.008-.148.018-.074.011-.147.026t-.146.032-.143.04-.142.046-.139.053-.136.06-.134.067-.13.073q-.063.039-.125.08t-.122.085q-.06.045-.118.092t-.113.097-.108.102q-.053.053-.103.108t-.097.113-.092.117-.086.122-.08.125-.074.13-.067.133-.06.136q-.03.069-.055.139t-.047.141l-.04.144q-.018.072-.032.145t-.026.147-.019.148-.01.148q-.005.075-.005.15 0 .074.004.148.003.075.01.149t.018.148q.011.073.025.146.015.074.033.146t.04.143q.02.072.046.142t.053.14q.029.068.06.135.032.068.067.134.035.065.073.13.038.063.08.125.04.062.085.122.044.06.092.118.047.058.097.113t.102.108.108.103.113.097.117.092.122.086.125.08.13.074.133.067.136.06q.069.03.139.055t.141.047q.071.021.144.04.072.018.145.033.073.014.147.025.073.011.147.019.31.03.62-.002m-5.698 10.382q-.11-.15-.23-.294-.118-.144-.245-.282-.126-.138-.259-.27-.133-.13-.273-.254t-.286-.24q-.146-.117-.298-.226t-.309-.21q-.157-.1-.32-.192-.162-.093-.33-.177-.166-.083-.337-.158t-.346-.141q-.175-.066-.353-.123t-.359-.104-.364-.085-.367-.066-.37-.047q-.169-.017-.337-.026-.168-.01-.337-.01-.168-.001-.337.006-.168.007-.336.022t-.335.037-.332.053-.33.069-.327.084-.321.1-.317.114-.312.13-.304.143-.298.158-.29.172-.281.185-.273.198q-.12.022-.238.048t-.235.057-.234.065q-.117.034-.232.072-.115.039-.228.08-.114.043-.226.09-.112.045-.223.095-.11.05-.219.104t-.215.111-.212.12q-.105.06-.207.125-.103.065-.203.133t-.198.14-.194.146-.188.154q-.092.078-.182.16-.09.08-.177.165-.087.084-.171.172t-.166.177-.159.183-.152.189-.146.193-.14.199-.132.203-.125.208-.118.212-.11.216-.104.22q-.05.11-.095.222-.046.113-.088.226-.042.114-.08.23-.038.115-.071.231-.028-.27-.078-.536t-.122-.528-.164-.516-.206-.5q.053-.017.105-.036.053-.018.105-.039.052-.02.103-.043t.101-.047l.1-.05q.049-.026.097-.054l.096-.057.093-.061.091-.065.09-.067.085-.071q.043-.036.084-.074.041-.037.08-.077.04-.039.079-.08.038-.04.075-.082t.072-.085.069-.088l.065-.09q.032-.046.062-.093l.06-.094.055-.097.051-.1.049-.1q.023-.05.044-.102l.04-.104q.02-.052.038-.105l.033-.107.029-.107.025-.11.021-.109q.01-.055.017-.11t.013-.11q.008-.075.012-.15l.004-.15q0-.076-.004-.15-.003-.076-.01-.15-.008-.075-.019-.15-.01-.074-.025-.148-.015-.073-.033-.146t-.04-.145q-.021-.072-.046-.143l-.054-.14q-.029-.07-.06-.138-.033-.068-.068-.134t-.074-.13q-.038-.065-.08-.128-.042-.062-.086-.123-.045-.06-.093-.118-.047-.058-.097-.114t-.104-.11q-.053-.052-.108-.103-.056-.05-.114-.098t-.118-.093-.123-.087q-.062-.041-.127-.08-.064-.039-.13-.075t-.134-.067-.137-.061q-.07-.03-.14-.055t-.143-.047q-.072-.022-.145-.04t-.146-.034l-.148-.026-.15-.018q-.07-.007-.14-.011t-.142-.004-.141.002q-.07.003-.141.009t-.141.015-.14.022-.138.028q-.07.015-.138.034l-.135.041q-.067.022-.133.047-.067.025-.132.053-.064.028-.128.06-.064.03-.126.065-.062.034-.122.07t-.12.077-.115.082-.111.087-.108.092-.103.097-.098.101-.094.106-.088.11-.084.115-.078.118-.072.121-.067.125-.061.128-.055.13-.049.133-.043.135-.036.136-.03.139q-.688-.227-1.408-.3-.122-.012-.245-.02-.123-.007-.246-.01-.122-.004-.245-.002-.123.001-.246.007t-.245.017-.245.026-.243.035-.242.044-.24.053-.238.061-.235.071-.233.08q-.116.041-.23.088t-.226.096-.222.105-.218.113q-.108.059-.214.121-.106.063-.21.13-.103.066-.204.136t-.199.144-.193.152q-.096.077-.188.159-.093.08-.182.165-.09.085-.175.172-.086.088-.17.18-.082.09-.161.184-.08.094-.155.19-.076.098-.148.197-.072.1-.14.202t-.133.207-.125.212-.117.216q.297.25.604.487.307.238.623.465.315.227.639.441.324.215.655.417.332.202.67.392.34.19.685.367t.698.341q.352.164.71.315.358.15.721.288t.732.261q.368.124.74.234.373.11.75.205.376.096.755.178.38.082.763.15.382.067.767.12t.771.092q.285.028.57.05.286.02.571.033.286.013.572.018t.573.002.572-.014.571-.03.57-.044q.286-.027.57-.061t.567-.076q.283-.042.565-.092t.562-.108.559-.122.555-.139.551-.153.547-.168.542-.184.537-.198.53-.213.526-.228.519-.242.511-.256.505-.27.497-.283.489-.298.48-.31q.238-.16.472-.324.234-.165.463-.337.229-.171.453-.35.224-.177.444-.36.219-.185.433-.374.214-.19.423-.386.209-.195.412-.397M42.82 30.993q.98-.708 2.035-1.298 1.055-.589 2.17-1.052.07.09.13.188.06.096.111.199.051.102.092.208.041.107.072.216.031.11.052.222.02.113.03.226.01.114.01.228-.001.114-.012.228-.006.06-.015.118l-.02.118-.027.116q-.015.058-.032.115l-.038.114q-.02.056-.043.111t-.049.11-.054.106-.059.103q-.03.052-.064.101-.033.05-.069.098-.035.048-.073.094t-.078.09-.083.086-.087.082-.09.078-.094.074-.098.068-.101.064-.104.058-.107.054-.11.048q-.054.023-.11.043-.057.02-.114.037t-.115.032-.117.026-.118.02-.118.014q-.06.006-.12.009-.059.003-.119.003t-.119-.003q-.06-.003-.119-.01-.083-.008-.166-.022t-.164-.034-.161-.045-.158-.056-.154-.067q-.075-.036-.148-.077-.073-.04-.143-.087t-.137-.097-.13-.106q-.063-.055-.122-.114t-.114-.123-.105-.13-.096-.138-.086-.143-.076-.15-.066-.153m-5.937 6.64q.419-.742.897-1.447t1.013-1.37 1.12-1.283q.588-.618 1.223-1.186.072.024.143.052t.14.057.139.064.135.069.132.075q.065.038.13.08.063.041.124.086.062.044.122.09.06.047.118.096l.114.1q.055.052.109.106.053.054.105.11l.1.115q.049.058.095.118t.09.122.085.126.08.13.074.132.068.135.063.139.056.14q.027.072.051.144t.045.145l.039.147q.018.074.032.148.015.075.026.15.012.075.02.15.009.076.014.152.005.075.007.151t0 .152q0 .076-.005.152-.004.076-.012.151-.009.089-.022.176-.013.088-.03.175t-.04.173-.048.17q-.025.086-.055.17-.03.083-.065.165-.034.081-.072.162-.038.08-.08.158t-.088.154-.095.15-.102.145q-.053.07-.11.14-.056.068-.116.133-.06.066-.122.129-.063.062-.129.122-.066.059-.134.115-.069.056-.14.11-.072.052-.146.1-.073.05-.15.096-.076.045-.154.087t-.159.08-.162.07-.166.064-.168.056q-.085.025-.171.047t-.173.038-.175.03-.176.022-.177.012-.177.004q-.09 0-.178-.004-.088-.005-.177-.014-.104-.01-.208-.027-.103-.016-.206-.039-.102-.022-.203-.05-.101-.03-.2-.063-.1-.035-.197-.075t-.192-.085q-.094-.045-.186-.096t-.18-.107q-.089-.057-.174-.118-.086-.061-.167-.127t-.16-.137q-.077-.07-.15-.146-.074-.075-.142-.154-.07-.079-.134-.162t-.123-.17-.113-.176m17.62 7.787q-.013.127-.032.254t-.044.252-.057.25q-.03.124-.068.247-.038.122-.081.243-.043.12-.093.239-.049.118-.104.234-.055.115-.115.228t-.127.223-.138.216q-.07.106-.147.209t-.158.201q-.082.1-.168.194-.086.095-.177.185-.09.09-.186.176-.095.086-.194.167t-.202.158-.21.147-.216.136-.223.126-.23.115-.234.103-.239.092-.243.08-.247.068q-.124.03-.25.055t-.252.044-.255.03-.255.019-.256.006-.256-.007-.255-.02-.254-.031-.253-.044q-.125-.026-.25-.057-.124-.031-.246-.069-.123-.037-.243-.08t-.239-.093q-.118-.05-.234-.104-.116-.055-.228-.116-.113-.06-.223-.127-.11-.066-.216-.137t-.21-.148q-.102-.076-.2-.158-.1-.081-.194-.167-.095-.087-.186-.177-.09-.091-.176-.186t-.167-.194-.157-.202-.147-.21-.137-.217q-.065-.11-.125-.223t-.115-.229q-.055-.116-.103-.234-.05-.118-.092-.24-.043-.12-.08-.242-.037-.123-.068-.247-.03-.125-.056-.25-.024-.126-.043-.253-.018-.126-.03-.254-.013-.127-.02-.255-.005-.128-.005-.256t.007-.256q.006-.128.02-.256.012-.127.03-.254.02-.126.045-.252t.057-.25q.031-.124.068-.247.038-.122.081-.243.044-.12.093-.238.05-.119.104-.234.055-.116.116-.229.06-.113.126-.222.066-.11.138-.216.071-.107.147-.21.077-.102.158-.201.082-.099.168-.194t.177-.185q.09-.09.186-.176.095-.086.194-.167.1-.081.202-.157t.21-.147q.106-.071.216-.137t.223-.126q.114-.06.23-.115.115-.054.234-.103.118-.049.239-.092.12-.043.243-.08.123-.036.247-.067t.25-.056q.126-.025.252-.043.127-.019.255-.031.127-.013.255-.019t.256-.005.256.006.255.02q.128.012.255.032.126.019.252.044.125.025.25.056.124.032.246.07.123.036.243.08.12.043.239.092.118.05.234.105t.228.115q.113.06.223.127.11.066.216.137.107.072.21.148.102.077.2.158.1.081.194.168.095.086.186.177.09.09.176.185t.167.195.157.202.147.21.137.216q.065.11.125.223t.115.229q.055.116.104.234t.091.24.08.243.068.247q.03.124.056.25.024.125.043.252t.03.254q.013.128.02.256.005.128.005.256t-.007.256q-.006.128-.019.255"/><path fill="none" stroke="#000" stroke-linejoin="round" stroke-width="2.4" d="M33.278 72.853q.362.664.83 1.636.474.967.982 2.1.508 1.128 1.006 2.31.503 1.176.942 2.216.445-1.04.943-2.217.497-1.181 1.005-2.31.513-1.132.982-2.099.473-.972.83-1.636h2.842q.2 1.382.37 3.096.172 1.71.299 3.56.132 1.845.239 3.706.112 1.86.19 3.5h-3.037q-.063-2.02-.16-4.399-.099-2.383-.299-4.8l-.8 1.86q-.44 1.021-.875 2.042-.43 1.015-.83 1.948l-.678 1.592H35.88q-.283-.664-.684-1.592l-.825-1.948q-.43-1.02-.874-2.041-.44-1.02-.796-1.86-.2 2.416-.303 4.8-.097 2.377-.16 4.399H29.2q.078-1.64.186-3.501.112-1.86.239-3.706.132-1.85.303-3.56.17-1.714.37-3.096zm23.902 8.584q0 1.24-.361 2.27-.361 1.026-1.04 1.759t-1.631 1.133q-.947.395-2.129.395-1.157 0-2.11-.395-.951-.4-1.63-1.133t-1.06-1.758q-.38-1.03-.38-2.27t.39-2.261q.39-1.02 1.08-1.739.693-.722 1.64-1.123.952-.4 2.07-.4 1.143 0 2.09.4.952.4 1.63 1.123.68.718 1.06 1.739.381 1.02.381 2.26Zm-3.042 0q0-1.381-.551-2.172-.547-.791-1.568-.791t-1.582.79q-.557.792-.557 2.173 0 1.377.557 2.188.562.81 1.582.81t1.568-.81q.551-.81.551-2.188Zm15.182 0q0 1.24-.361 2.27-.361 1.026-1.04 1.759t-1.631 1.133q-.947.395-2.129.395-1.157 0-2.11-.395-.951-.4-1.63-1.133t-1.06-1.758q-.38-1.03-.38-2.27t.39-2.261q.39-1.02 1.08-1.739.693-.722 1.64-1.123.952-.4 2.07-.4 1.143 0 2.09.4.952.4 1.63 1.123.68.718 1.06 1.739.381 1.02.381 2.26Zm-3.042 0q0-1.381-.552-2.172-.546-.791-1.567-.791t-1.582.79q-.557.792-.557 2.173 0 1.377.557 2.188.562.81 1.582.81t1.567-.81q.552-.81.552-2.188Zm5.343-4.882q.757-.22 1.958-.41 1.202-.191 2.52-.191 1.343 0 2.231.352.889.351 1.407.99.522.64.742 1.52.22.878.22 1.957v5.943H77.72v-5.581q0-1.44-.38-2.036-.382-.601-1.422-.601-.317 0-.679.03-.36.029-.64.068v8.12h-2.978z"/><path fill="#fff" d="M33.278 72.853q.362.664.83 1.636.474.967.982 2.1.508 1.128 1.006 2.31.503 1.176.942 2.216.445-1.04.943-2.217.497-1.181 1.005-2.31.513-1.132.982-2.099.473-.972.83-1.636h2.842q.2 1.382.37 3.096.172 1.71.299 3.56.132 1.845.239 3.706.112 1.86.19 3.5h-3.037q-.063-2.02-.16-4.399-.099-2.383-.299-4.8l-.8 1.86q-.44 1.021-.875 2.042-.43 1.015-.83 1.948l-.678 1.592H35.88q-.283-.664-.684-1.592l-.825-1.948q-.43-1.02-.874-2.041-.44-1.02-.796-1.86-.2 2.416-.303 4.8-.097 2.377-.16 4.399H29.2q.078-1.64.186-3.501.112-1.86.239-3.706.132-1.85.303-3.56.17-1.714.37-3.096zm23.902 8.584q0 1.24-.361 2.27-.361 1.026-1.04 1.759t-1.631 1.133q-.947.395-2.129.395-1.157 0-2.11-.395-.951-.4-1.63-1.133t-1.06-1.758q-.38-1.03-.38-2.27t.39-2.261q.39-1.02 1.08-1.739.693-.722 1.64-1.123.952-.4 2.07-.4 1.143 0 2.09.4.952.4 1.63 1.123.68.718 1.06 1.739.381 1.02.381 2.26m-3.042 0q0-1.381-.551-2.172-.547-.791-1.568-.791t-1.582.79q-.557.792-.557 2.173 0 1.377.557 2.188.562.81 1.582.81t1.568-.81q.551-.81.551-2.188m15.182 0q0 1.24-.361 2.27-.361 1.026-1.04 1.759t-1.631 1.133q-.947.395-2.129.395-1.157 0-2.11-.395-.951-.4-1.63-1.133t-1.06-1.758q-.38-1.03-.38-2.27t.39-2.261q.39-1.02 1.08-1.739.693-.722 1.64-1.123.952-.4 2.07-.4 1.143 0 2.09.4.952.4 1.63 1.123.68.718 1.06 1.739.381 1.02.381 2.26m-3.042 0q0-1.381-.552-2.172-.546-.791-1.567-.791t-1.582.79q-.557.792-.557 2.173 0 1.377.557 2.188.562.81 1.582.81t1.567-.81q.552-.81.552-2.188m5.343-4.882q.757-.22 1.958-.41 1.202-.191 2.52-.191 1.343 0 2.231.352.889.351 1.407.99.522.64.742 1.52.22.878.22 1.957v5.943H77.72v-5.581q0-1.44-.38-2.036-.382-.601-1.422-.601-.317 0-.679.03-.36.029-.64.068v8.12h-2.978z"/></svg>