<svg xmlns="http://www.w3.org/2000/svg" width="110" height="110"><path fill="#6d6d6d" d="M76.322 49.996q-.053.524-.131 1.044t-.182 1.036q-.103.516-.232 1.026t-.283 1.013-.331.998-.38.98q-.203.486-.429.961t-.474.939-.52.914q-.272.45-.565.888-.293.437-.607.858-.314.422-.648.828-.335.406-.689.796-.354.389-.726.76-.373.371-.763.724-.39.352-.798.685-.407.333-.83.646-.424.313-.861.604-.438.291-.89.561t-.916.517-.94.471-.963.424-.982.377-1 .328-1.013.279-1.027.229-1.036.177-1.045.127-1.049.076-1.051.024-1.052-.028-1.048-.08q-.524-.052-1.044-.13t-1.036-.182-1.026-.232-1.013-.282-.998-.332-.98-.38q-.486-.203-.961-.428-.475-.226-.939-.475t-.914-.52-.888-.564q-.436-.294-.858-.608t-.828-.648-.795-.689-.76-.726q-.372-.373-.725-.763-.352-.39-.685-.798-.333-.407-.646-.83-.312-.423-.604-.861-.291-.438-.561-.89t-.517-.916-.47-.94-.425-.963-.377-.982-.328-.999-.279-1.014-.228-1.027-.178-1.036-.127-1.044-.076-1.05q-.024-.525-.024-1.051.001-.526.028-1.051.027-.526.08-1.05.052-.523.13-1.043t.182-1.036.232-1.026.283-1.013.331-.998.38-.98q.203-.486.429-.961t.474-.939.52-.914q.272-.45.565-.887t.607-.86.648-.827q.335-.406.689-.795.354-.39.726-.76.373-.372.763-.725.39-.352.798-.685.407-.333.83-.646.424-.312.861-.604.438-.291.89-.56t.916-.518.94-.47.963-.425.982-.377 1-.328 1.013-.279 1.027-.228 1.036-.178 1.045-.127 1.049-.076q.525-.024 1.051-.023.526 0 1.052.027.525.027 1.048.08.524.052 1.044.13t1.036.182 1.026.232 1.013.283.998.331.98.38q.486.203.961.429t.939.474.914.52q.45.272.888.565.436.293.858.607t.828.648.795.689.76.727q.372.372.725.763.352.39.685.797t.646.83q.312.424.604.862.291.437.561.89.27.45.517.915t.47.94q.225.477.425.963t.377.982q.176.495.328 1 .152.503.279 1.013t.228 1.027.178 1.037q.077.52.127 1.044.05.523.076 1.049.024.525.024 1.051-.001.526-.028 1.052-.027.525-.08 1.048"/><path fill="#878787" d="M75.078 49.872q-.05.492-.123.982-.074.49-.171.976t-.22.966q-.12.48-.265.954t-.312.94q-.168.466-.359.923t-.403.905-.446.884-.49.86-.532.836-.571.809-.611.78-.648.748-.685.717-.718.681-.751.646-.782.608-.811.568-.838.529-.862.486q-.438.233-.886.444t-.906.4q-.458.188-.925.354-.466.167-.94.31-.475.142-.956.262-.48.12-.966.215-.487.096-.977.168-.49.071-.983.12-.493.047-.988.07-.494.024-.99.023-.495-.001-.99-.026-.495-.026-.987-.075-.493-.05-.983-.123-.49-.074-.976-.171-.485-.098-.966-.219-.48-.121-.954-.266t-.94-.312-.923-.358-.905-.403-.884-.447-.86-.49-.836-.532q-.412-.275-.809-.571t-.78-.611q-.382-.315-.748-.648-.367-.334-.716-.685-.35-.35-.682-.718t-.646-.751q-.313-.384-.607-.782-.295-.399-.57-.81-.274-.413-.528-.839-.254-.425-.486-.862-.233-.438-.444-.886-.21-.448-.4-.906-.188-.458-.354-.925-.166-.466-.31-.94-.142-.475-.262-.956-.12-.48-.215-.966-.096-.486-.168-.977-.071-.49-.119-.983t-.071-.988-.023-.99.027-.99.074-.987q.05-.493.123-.983.074-.49.171-.976.098-.485.22-.966.12-.48.265-.954.145-.473.312-.94.168-.466.359-.923t.403-.905.446-.883.49-.861.532-.836.571-.809.611-.78.648-.748.685-.716.718-.682.751-.645.782-.608.811-.57.838-.528.862-.486q.438-.233.886-.444.448-.21.906-.4.458-.188.925-.354.466-.166.94-.31.475-.142.956-.262.48-.12.966-.215.487-.096.977-.167t.983-.12q.493-.048.988-.07.494-.024.99-.023.495 0 .99.026t.987.074q.493.05.983.123.49.074.976.171.485.098.966.22.48.12.954.265t.94.313.923.358q.457.19.905.403.447.212.884.447.436.234.86.49.425.255.836.53.412.277.809.573t.78.61.748.649q.367.333.716.684.35.35.682.718t.646.751q.313.384.607.782.295.399.57.811t.528.838.486.863.444.885q.21.448.4.906.188.458.354.925t.31.94.262.956.215.967.168.976q.071.49.119.983t.071.988.023.99-.027.99-.074.988"/><path fill="#7c7c7c" fill-rule="evenodd" d="M74.514 52.995q.405-1.54.564-3.123.11-1.102.1-2.209-.011-1.107-.143-2.206-.087 0-.174.004-.087.003-.174.01-.087.008-.174.02-.087.011-.172.027-.086.016-.171.035t-.17.043-.167.05q-.083.028-.164.059-.082.031-.162.066t-.158.073-.155.08-.151.088-.147.095q-.073.048-.143.1t-.137.108q-.068.056-.133.114t-.127.12q-.062.061-.121.125-.06.064-.116.131t-.109.136-.103.141-.096.146-.09.15-.082.154-.075.157-.068.161-.06.164q-.03.082-.054.166t-.045.169q-.02.085-.037.17t-.03.173-.021.173q-.01.09-.014.181-.005.091-.005.182t.004.182q.004.09.012.181.009.09.021.181.013.09.03.18.017.089.038.177.022.089.047.176t.055.173.064.17q.034.085.072.168t.08.164q.04.08.086.16.046.078.095.154.05.077.103.15.052.075.109.146.056.071.116.14t.123.134.129.128.135.122q.069.06.14.115.073.056.147.109.074.052.151.1.077.05.156.094.08.045.16.087.081.04.164.078.083.037.168.07t.171.063.174.054q.087.024.176.045.088.02.178.037t.18.029m-4.752 8.62q-.123-.136-.25-.267-.13-.13-.263-.254-.135-.124-.274-.242-.14-.118-.285-.23-.145-.11-.296-.215-.15-.105-.304-.202-.155-.098-.314-.188-.16-.09-.322-.173-.164-.082-.33-.157-.167-.076-.337-.143t-.343-.127-.348-.11q-.176-.052-.354-.095-.177-.043-.357-.078t-.36-.062-.363-.045q-.18-.018-.36-.028t-.361-.011-.361.005-.36.022-.36.038-.356.054-.355.07-.35.087-.346.102-.341.118-.336.134-.329.149-.322.163-.314.178-.306.192-.296.206q-.387.081-.764.201-.378.12-.74.278-.363.158-.709.351-.345.194-.668.421.017-.11.029-.222.009-.093.014-.186.004-.094.005-.187 0-.094-.005-.187-.004-.094-.013-.187t-.023-.185-.031-.185-.04-.182-.05-.18-.059-.178-.067-.175q-.035-.086-.075-.171t-.084-.167-.092-.163-.1-.158-.107-.153-.115-.148q-.06-.072-.122-.142t-.129-.136-.135-.129-.141-.122-.147-.116q-.075-.055-.153-.108-.078-.052-.158-.1t-.162-.092-.167-.085-.171-.076-.175-.067-.177-.06-.18-.05-.183-.041q-.091-.018-.184-.032-.092-.014-.185-.024l-.15-.012-.152-.006h-.15q-.076.002-.151.006-.076.004-.15.012-.076.007-.15.017-.075.01-.15.024-.074.013-.148.03-.073.016-.146.035l-.146.041q-.072.022-.143.047t-.141.053-.14.058-.137.063-.134.07-.131.073-.129.08-.125.084-.122.09-.118.093-.114.099-.11.103-.106.107-.102.112-.097.115-.093.12-.088.122l-.083.126q-.04.064-.077.13-.038.065-.073.132t-.067.135-.062.137q-.413-.09-.833-.132-.123-.012-.247-.02t-.248-.013-.248-.004-.249.005-.248.013q-.123.009-.247.021-.123.013-.246.03t-.246.038q-.122.02-.243.046-.122.025-.243.055-.12.029-.24.062-.12.034-.238.07-.118.038-.235.08-.117.04-.233.086-.115.045-.23.095-.113.049-.226.102-.112.053-.222.11-.11.056-.22.117-.108.06-.214.124t-.21.132-.206.139q-.102.07-.201.145t-.196.152q-.097.078-.19.16-.095.08-.186.165-.091.084-.18.171-.088.087-.173.177-.086.09-.168.183t-.161.19-.155.193-.148.2-.142.203q.299.273.607.533.31.26.628.508.319.247.648.482.328.235.666.456t.684.43.7.4.717.374.73.344.744.314.756.285q.38.135.766.254.386.12.776.223t.784.192.792.16q.397.073.797.13.4.056.802.096.288.029.578.05.29.02.58.032t.58.017.58 0q.29-.005.58-.018t.58-.034q.29-.02.578-.05.289-.03.577-.067t.574-.084.572-.1.569-.116.565-.133.56-.149.557-.165q.277-.087.552-.181.274-.095.546-.197t.54-.212.534-.228.527-.243.52-.259.512-.273q.255-.14.505-.287.25-.148.495-.303.246-.154.487-.316.241-.161.478-.33.236-.168.467-.343t.458-.357.447-.37.437-.383q.215-.195.425-.395t.414-.408q.204-.206.402-.418m-27.24-29.616q.624-.49 1.284-.93t1.352-.828 1.414-.718 1.465-.605q.073.18.123.366.05.187.078.378t.032.385-.015.386q-.008.077-.02.155-.011.077-.027.154-.015.076-.034.152t-.042.15-.05.149q-.026.073-.056.145t-.063.143l-.07.14q-.038.068-.078.135t-.084.132q-.043.065-.09.128-.047.062-.096.123-.05.06-.103.118t-.108.113-.113.107-.118.102-.124.096-.128.09-.132.083-.136.077-.14.07-.142.063-.146.056-.149.048-.15.042-.153.034q-.076.015-.154.026-.077.011-.155.019-.078.007-.156.011t-.156.004-.156-.004-.156-.012q-.166-.017-.329-.05-.163-.035-.322-.085t-.312-.118q-.152-.067-.297-.15t-.28-.18q-.136-.097-.26-.208t-.237-.235-.21-.257m-5.598 6.889q.244-.49.513-.967.27-.476.565-.937t.614-.906.663-.87.708-.834.753-.794q.388-.387.795-.752t.835-.708q.124.082.243.172.118.09.23.187.113.098.218.203.106.105.203.217t.188.23q.09.12.172.244t.155.254q.073.13.137.263.064.135.12.273.054.138.1.28.045.142.08.286.036.145.061.292.026.146.041.294t.021.297 0 .297q-.004.15-.019.297-.01.107-.026.213t-.037.21-.048.21-.057.206-.068.203-.077.2-.087.195-.097.192-.106.186-.115.18-.123.175-.133.17q-.068.082-.14.161-.072.08-.148.155t-.155.147-.163.14q-.082.068-.169.131-.086.064-.175.123-.09.06-.181.115-.092.054-.187.105-.094.05-.191.096-.097.045-.196.086-.1.041-.2.077-.101.036-.204.067-.102.03-.206.057-.104.025-.21.046-.104.02-.21.036t-.213.026q-.107.01-.214.015-.107.006-.214.005-.107 0-.214-.005-.107-.006-.213-.016-.184-.019-.365-.053-.181-.033-.359-.082-.177-.05-.35-.113-.173-.064-.34-.142t-.326-.17-.312-.197q-.15-.105-.293-.222-.142-.117-.274-.246m18.324 6.607q-.014.146-.036.29-.022.145-.05.289-.03.144-.065.286t-.079.282-.092.278q-.05.138-.106.273-.057.135-.12.267-.062.133-.132.262-.069.129-.145.254-.075.126-.157.248-.081.121-.169.239-.087.117-.18.23-.094.113-.192.222-.099.108-.202.212-.104.103-.213.201t-.222.191-.231.18-.24.168-.248.156-.255.144-.262.131-.268.119-.273.104-.279.092-.282.077-.286.064-.289.05q-.145.02-.29.035-.146.014-.292.021-.147.007-.293.007-.147 0-.293-.008t-.292-.022-.29-.037q-.146-.021-.29-.05-.143-.029-.285-.065t-.282-.078-.278-.093-.273-.106-.268-.119-.261-.132q-.13-.07-.255-.145t-.247-.157q-.121-.082-.239-.17-.117-.087-.23-.18-.114-.093-.222-.192-.108-.098-.212-.202-.103-.104-.201-.212-.099-.11-.191-.223-.093-.113-.18-.23-.087-.119-.168-.24-.081-.122-.157-.248-.075-.126-.143-.255-.07-.13-.132-.262-.062-.133-.118-.268-.056-.136-.105-.274t-.091-.278-.078-.282q-.035-.143-.063-.286-.029-.144-.05-.289t-.035-.29-.021-.293-.007-.293.008-.293q.007-.146.022-.292.015-.145.036-.29.022-.145.05-.289.03-.143.066-.285.035-.142.078-.283t.093-.277q.05-.138.105-.274.057-.135.12-.267t.132-.261q.07-.13.145-.255.075-.126.157-.247.081-.122.169-.24.087-.117.18-.23.094-.113.192-.221.099-.109.203-.212.103-.104.212-.202t.222-.19q.114-.093.232-.18.117-.088.24-.169.121-.08.247-.156.126-.075.255-.144.13-.069.262-.131.133-.062.268-.118t.273-.105q.138-.05.279-.092.14-.042.282-.077t.286-.064.289-.05q.145-.02.29-.035.146-.014.293-.02.146-.008.292-.007.147 0 .293.007.147.008.292.022.146.015.291.037t.288.05.286.065.282.079.278.092.273.106.268.12.261.131.255.145.247.157.24.17.23.18.221.192.212.202.202.213.19.222.18.231.168.24.157.248.144.255.13.262.119.268.105.273.091.278.078.283.064.286q.028.143.05.288.02.145.034.291t.021.292q.007.147.007.293 0 .147-.008.293-.007.146-.022.292"/><path fill="#999" fill-rule="evenodd" d="M74.692 52.26q.265-1.182.386-2.388.183-1.83.033-3.663-.071-.002-.142-.001-.072 0-.143.005t-.142.013q-.07.007-.14.018t-.141.026q-.07.014-.139.032-.069.017-.137.038t-.135.045-.133.051-.13.058-.128.063-.125.07-.12.075-.118.08-.114.087q-.056.044-.11.091-.053.047-.104.096-.051.05-.1.102t-.096.105-.09.11q-.044.057-.085.115t-.08.118-.074.122q-.035.062-.068.125t-.062.128-.056.131-.05.134q-.024.067-.044.135t-.037.138-.031.139-.024.14q-.01.07-.018.142-.007.073-.01.148-.005.074-.005.148t.003.148l.01.148q.008.074.019.147.01.074.025.147.014.072.032.145.017.072.039.143t.046.14q.025.07.053.14.028.068.06.135.03.067.065.133.035.065.073.13.038.063.079.125.04.062.084.122t.091.117q.047.058.096.113.05.055.102.108t.107.103.112.097.116.092.12.087q.062.041.126.08.063.038.128.074.066.035.132.067.067.033.136.061.068.03.138.055t.14.047.143.041q.072.019.144.034.073.015.146.026.073.012.147.02m-5.453 9.895q-.111-.125-.228-.245-.116-.12-.238-.234t-.25-.223-.259-.211-.268-.199-.278-.186-.286-.173-.294-.159-.301-.145q-.153-.07-.308-.131-.155-.062-.313-.117t-.318-.102-.323-.087-.327-.072-.33-.056-.331-.042q-.168-.016-.336-.025t-.337-.01-.337.006-.336.021-.335.038q-.167.023-.332.053-.166.03-.33.069-.164.038-.327.084-.162.046-.322.1-.16.053-.316.114-.158.061-.312.13-.154.068-.304.143-.151.076-.298.158t-.29.172-.281.185-.273.198q-.12.022-.238.048t-.235.057-.234.065q-.117.034-.232.072-.115.039-.228.08-.114.043-.226.09-.112.045-.223.095-.11.05-.219.104t-.216.111-.211.12q-.105.06-.207.125-.103.065-.203.133t-.198.14-.194.146-.188.153q-.092.079-.182.16t-.177.166q-.087.084-.171.172t-.166.177-.159.183-.152.189-.146.193-.14.199-.132.203-.125.208-.118.212-.11.216-.104.22q-.05.11-.095.222-.046.112-.088.226t-.08.23-.071.23q-.056-.54-.2-1.063-.143-.523-.37-1.016.106-.034.21-.075t.204-.09q.1-.048.197-.104t.19-.118.18-.132q.087-.07.169-.145t.159-.156.147-.168q.07-.087.134-.178.064-.092.121-.188.057-.095.107-.195t.093-.203.078-.21q.034-.105.062-.213.027-.109.046-.219.02-.11.03-.22.008-.075.012-.15l.004-.15q0-.076-.004-.15-.003-.076-.01-.15-.008-.075-.019-.15-.01-.074-.025-.148-.015-.073-.033-.146t-.04-.145q-.021-.072-.046-.143l-.054-.14q-.029-.07-.06-.138-.033-.068-.068-.134t-.074-.13q-.038-.065-.08-.128-.042-.062-.086-.123-.045-.06-.093-.118-.047-.058-.097-.114t-.104-.11q-.053-.052-.108-.103-.056-.05-.114-.098t-.118-.093-.123-.087-.127-.08-.13-.075q-.066-.035-.134-.067-.068-.033-.137-.061-.07-.03-.14-.055t-.143-.047q-.072-.022-.145-.04t-.146-.034l-.148-.026-.15-.018q-.07-.007-.14-.011t-.142-.004-.141.002q-.07.002-.141.008t-.141.016-.14.021-.138.029q-.07.015-.138.034t-.135.041q-.067.022-.133.047-.067.025-.132.053-.064.028-.128.06-.064.03-.126.065-.062.034-.122.07t-.12.077l-.115.081q-.056.043-.111.088-.055.044-.108.092-.052.047-.103.097t-.098.101-.094.106q-.045.054-.088.11-.043.057-.084.115-.04.058-.078.118-.037.06-.072.121-.035.062-.067.125t-.061.128-.055.13-.049.133-.043.135-.036.136-.03.138q-.688-.226-1.408-.299-.112-.01-.225-.018t-.226-.011q-.113-.004-.226-.004t-.226.005-.225.012-.226.02-.224.028-.223.035-.222.043l-.22.05q-.11.028-.219.059-.108.03-.216.065-.107.035-.214.073-.106.039-.211.08-.105.043-.208.088-.104.046-.206.095t-.202.101-.198.108-.195.115-.19.122q-.094.063-.186.128-.092.066-.182.135-.09.068-.177.14t-.172.147q-.085.075-.167.152-.082.078-.161.158-.08.08-.156.164-.077.083-.15.168-.074.086-.145.174t-.139.179-.132.183-.126.188q.29.245.59.48.298.235.606.458t.624.434q.316.212.64.411.323.2.654.386.33.187.669.362.337.174.681.336.345.161.694.31.35.148.706.284.355.135.715.257.36.121.725.23.364.108.732.202.369.094.74.175.372.08.746.146.374.067.75.119.377.052.756.09.277.028.554.048.278.02.556.032.279.013.557.018.279.004.557.002.279-.003.557-.014t.556-.029.555-.044q.278-.026.554-.06.277-.033.552-.074.276-.041.55-.09t.547-.105.544-.12.54-.136q.27-.07.536-.15.268-.078.533-.164.264-.086.527-.18.262-.093.522-.194.26-.1.517-.208t.51-.222.505-.236.497-.25q.247-.13.49-.264.244-.136.484-.278t.475-.29.467-.304q.232-.155.459-.316t.45-.329q.222-.167.44-.341.217-.174.43-.353.213-.18.421-.365t.41-.376.4-.388M43.12 31.546q.98-.714 2.037-1.305 1.059-.591 2.18-1.051.057.138.096.282.04.144.061.291.022.148.025.297.004.15-.011.298-.006.06-.015.118l-.02.118-.027.116q-.015.058-.032.115l-.038.114q-.02.056-.043.111t-.049.11-.054.106-.059.103q-.03.052-.064.101-.033.05-.069.098-.035.048-.073.094t-.078.09-.083.086-.087.082-.09.078-.094.074-.098.068-.101.064l-.104.059q-.053.028-.107.053t-.11.048q-.054.023-.11.043-.057.02-.114.037t-.115.032-.117.026-.117.02-.119.014q-.06.006-.12.009-.059.003-.118.003-.06 0-.12-.003t-.119-.01q-.127-.012-.253-.038-.125-.026-.247-.066-.122-.039-.24-.09-.117-.052-.228-.116t-.215-.139-.199-.16-.181-.181-.161-.199m-5.83 6.64q.429-.787.927-1.533.498-.747 1.06-1.445.563-.7 1.185-1.346t1.3-1.234q.113.064.221.136.109.073.212.153t.2.167.187.181.174.195.16.206.143.217.128.227.112.236.094.243q.042.124.076.25t.058.254.04.258q.015.13.02.26t.003.26-.017.26q-.009.089-.022.176-.013.088-.03.175t-.04.173-.047.17q-.026.086-.056.17-.03.083-.065.165-.034.081-.072.162-.038.08-.08.158t-.087.154-.096.15-.102.145-.11.14-.116.133-.122.129-.129.122-.134.115-.14.11-.146.101-.15.095-.154.087-.159.08-.162.07q-.082.035-.166.064-.083.03-.168.056-.085.025-.171.047t-.173.038-.175.03-.176.022-.177.012-.177.004q-.09 0-.178-.004-.088-.005-.177-.014-.166-.016-.33-.048t-.324-.08-.315-.108q-.156-.061-.305-.137-.148-.075-.29-.164-.141-.089-.274-.19-.132-.102-.255-.216-.122-.113-.234-.237m17.211 7.234q-.013.127-.032.254t-.044.252-.057.25q-.03.124-.068.247-.038.122-.081.243-.043.12-.093.239-.049.118-.104.234-.055.115-.115.228t-.127.223-.138.216q-.07.106-.147.209t-.158.201q-.082.1-.168.194-.086.095-.177.185-.09.09-.186.176-.095.086-.194.167t-.202.158-.21.147-.216.136-.223.126-.23.115-.234.103-.239.092-.243.08-.247.068q-.124.03-.25.055t-.252.044-.254.03-.256.019-.256.006-.256-.007-.255-.02-.254-.031-.253-.044q-.125-.026-.25-.057-.124-.031-.246-.069-.123-.037-.243-.08t-.239-.093q-.118-.05-.234-.104-.115-.055-.228-.116-.113-.06-.223-.127-.11-.066-.216-.137t-.21-.148-.2-.158q-.1-.081-.194-.167-.095-.087-.185-.177-.09-.091-.177-.186-.086-.095-.167-.194-.08-.1-.157-.202-.076-.103-.147-.21t-.137-.217-.125-.223-.115-.229-.103-.234q-.05-.118-.092-.24-.043-.12-.08-.242-.037-.123-.068-.247-.03-.125-.056-.25-.024-.126-.043-.253-.018-.126-.03-.254-.013-.127-.02-.255-.005-.128-.005-.256t.007-.256q.006-.128.02-.256.012-.127.03-.254.02-.126.045-.252t.057-.25q.031-.124.069-.247.037-.122.08-.243.044-.12.093-.238.05-.119.104-.234.055-.116.116-.229.06-.113.126-.222.066-.11.138-.216.071-.107.148-.21.076-.102.157-.201.082-.099.168-.194.086-.094.177-.185.09-.09.186-.176.095-.086.194-.167.1-.081.202-.157t.21-.147q.106-.071.216-.137t.223-.126q.114-.06.23-.114.115-.055.234-.104.118-.049.239-.092.12-.042.243-.08.123-.036.247-.067t.25-.056q.126-.025.252-.043.127-.019.255-.031.127-.012.255-.019t.256-.005.256.006.255.02q.128.013.255.032.126.019.252.044.125.025.25.056.124.032.246.07.123.037.243.08t.239.092q.118.05.234.105t.228.115q.113.06.223.127.11.066.216.137.107.072.21.148.102.077.2.158.1.081.195.168.094.086.185.177.09.09.176.185t.167.195.157.202.147.21.137.216q.065.11.125.223t.115.229q.055.116.104.234t.091.24.08.243.068.247q.03.124.056.25.024.125.043.252t.03.254q.013.128.02.256.005.128.005.256t-.007.256q-.006.128-.019.255"/><path fill="none" stroke="#000" stroke-linejoin="round" stroke-width="2.4" d="M33.278 72.853q.362.664.83 1.636.474.967.982 2.1.508 1.128 1.006 2.31.503 1.176.942 2.216.445-1.04.943-2.217.497-1.181 1.005-2.31.513-1.132.982-2.099.473-.972.83-1.636h2.842q.2 1.382.37 3.096.172 1.71.299 3.56.132 1.845.239 3.706.112 1.86.19 3.5h-3.037q-.063-2.02-.16-4.399-.099-2.383-.299-4.8l-.8 1.86q-.44 1.021-.875 2.042-.43 1.015-.83 1.948l-.678 1.592H35.88q-.283-.664-.684-1.592l-.825-1.948q-.43-1.02-.874-2.041-.44-1.02-.796-1.86-.2 2.416-.303 4.8-.097 2.377-.16 4.399H29.2q.078-1.64.186-3.501.112-1.86.239-3.706.132-1.85.303-3.56.17-1.714.37-3.096zm23.902 8.584q0 1.24-.361 2.27-.361 1.026-1.04 1.759t-1.631 1.133q-.947.395-2.129.395-1.157 0-2.11-.395-.951-.4-1.63-1.133t-1.06-1.758q-.38-1.03-.38-2.27t.39-2.261q.39-1.02 1.08-1.739.693-.722 1.64-1.123.952-.4 2.07-.4 1.143 0 2.09.4.952.4 1.63 1.123.68.718 1.06 1.739.381 1.02.381 2.26Zm-3.042 0q0-1.381-.551-2.172-.547-.791-1.568-.791t-1.582.79q-.557.792-.557 2.173 0 1.377.557 2.188.562.81 1.582.81t1.568-.81q.551-.81.551-2.188Zm15.182 0q0 1.24-.361 2.27-.361 1.026-1.04 1.759t-1.631 1.133q-.947.395-2.129.395-1.157 0-2.11-.395-.951-.4-1.63-1.133t-1.06-1.758q-.38-1.03-.38-2.27t.39-2.261q.39-1.02 1.08-1.739.693-.722 1.64-1.123.952-.4 2.07-.4 1.143 0 2.09.4.952.4 1.63 1.123.68.718 1.06 1.739.381 1.02.381 2.26Zm-3.042 0q0-1.381-.552-2.172-.546-.791-1.567-.791t-1.582.79q-.557.792-.557 2.173 0 1.377.557 2.188.562.81 1.582.81t1.567-.81q.552-.81.552-2.188Zm5.343-4.882q.757-.22 1.958-.41 1.202-.191 2.52-.191 1.343 0 2.231.352.889.351 1.407.99.522.64.742 1.52.22.878.22 1.957v5.943H77.72v-5.581q0-1.44-.38-2.036-.382-.601-1.422-.601-.317 0-.679.03-.36.029-.64.068v8.12h-2.978z"/><path fill="#fff" d="M33.278 72.853q.362.664.83 1.636.474.967.982 2.1.508 1.128 1.006 2.31.503 1.176.942 2.216.445-1.04.943-2.217.497-1.181 1.005-2.31.513-1.132.982-2.099.473-.972.83-1.636h2.842q.2 1.382.37 3.096.172 1.71.299 3.56.132 1.845.239 3.706.112 1.86.19 3.5h-3.037q-.063-2.02-.16-4.399-.099-2.383-.299-4.8l-.8 1.86q-.44 1.021-.875 2.042-.43 1.015-.83 1.948l-.678 1.592H35.88q-.283-.664-.684-1.592l-.825-1.948q-.43-1.02-.874-2.041-.44-1.02-.796-1.86-.2 2.416-.303 4.8-.097 2.377-.16 4.399H29.2q.078-1.64.186-3.501.112-1.86.239-3.706.132-1.85.303-3.56.17-1.714.37-3.096zm23.902 8.584q0 1.24-.361 2.27-.361 1.026-1.04 1.759t-1.631 1.133q-.947.395-2.129.395-1.157 0-2.11-.395-.951-.4-1.63-1.133t-1.06-1.758q-.38-1.03-.38-2.27t.39-2.261q.39-1.02 1.08-1.739.693-.722 1.64-1.123.952-.4 2.07-.4 1.143 0 2.09.4.952.4 1.63 1.123.68.718 1.06 1.739.381 1.02.381 2.26m-3.042 0q0-1.381-.551-2.172-.547-.791-1.568-.791t-1.582.79q-.557.792-.557 2.173 0 1.377.557 2.188.562.81 1.582.81t1.568-.81q.551-.81.551-2.188m15.182 0q0 1.24-.361 2.27-.361 1.026-1.04 1.759t-1.631 1.133q-.947.395-2.129.395-1.157 0-2.11-.395-.951-.4-1.63-1.133t-1.06-1.758q-.38-1.03-.38-2.27t.39-2.261q.39-1.02 1.08-1.739.693-.722 1.64-1.123.952-.4 2.07-.4 1.143 0 2.09.4.952.4 1.63 1.123.68.718 1.06 1.739.381 1.02.381 2.26m-3.042 0q0-1.381-.552-2.172-.546-.791-1.567-.791t-1.582.79q-.557.792-.557 2.173 0 1.377.557 2.188.562.81 1.582.81t1.567-.81q.552-.81.552-2.188m5.343-4.882q.757-.22 1.958-.41 1.202-.191 2.52-.191 1.343 0 2.231.352.889.351 1.407.99.522.64.742 1.52.22.878.22 1.957v5.943H77.72v-5.581q0-1.44-.38-2.036-.382-.601-1.422-.601-.317 0-.679.03-.36.029-.64.068v8.12h-2.978z"/></svg>