<svg xmlns="http://www.w3.org/2000/svg" width="110" height="110"><path fill="#333" d="M61.325 62.523q10.93-26.281-21.853-18.406 19.899 7.421 21.853 18.406"/><path fill="none" stroke="#292929" stroke-linejoin="round" stroke-width="4.28571" d="M61.325 62.523q10.93-26.281-21.853-18.406 19.899 7.421 21.853 18.406Z"/><path fill="none" stroke="#000" stroke-linejoin="round" stroke-width="2.4" d="M30.482 72.697q3.1 0 4.756 1.089 1.66 1.089 1.66 3.57 0 2.5-1.68 3.613-1.68 1.108-4.8 1.108h-.976v4.639h-3.12V73.054q1.02-.2 2.158-.279 1.142-.078 2.002-.078Zm.2 2.656q-.342 0-.674.025-.327.02-.566.039v3.999h.976q1.621 0 2.442-.44.82-.439.82-1.64 0-.581-.21-.957-.21-.381-.6-.61-.391-.235-.953-.323-.556-.093-1.235-.093ZM41.98 86.716H39V76.198h2.979zm.278-13.56q0 .82-.532 1.29-.527.468-1.245.468-.723 0-1.255-.469-.527-.469-.527-1.289t.527-1.289q.532-.474 1.255-.474.718 0 1.245.474.532.469.532 1.29Zm2.523 3.399q.757-.22 1.958-.41 1.202-.191 2.52-.191 1.343 0 2.231.352.889.351 1.407.99.522.64.742 1.52.22.878.22 1.957v5.943H50.88v-5.581q0-1.44-.38-2.036-.382-.601-1.422-.601-.317 0-.678.03t-.64.068v8.12H44.78zm11.277 4.902q0-1.143.372-2.149.37-1.01 1.069-1.762.703-.752 1.7-1.192 1-.44 2.28-.44.84 0 1.537.152.704.152 1.363.43l-.62 2.378q-.42-.156-.923-.278-.498-.122-1.118-.122-1.319 0-1.968.82-.65.82-.65 2.163 0 1.42.61 2.202.611.776 2.13.776.542 0 1.162-.097.62-.103 1.137-.322l.42 2.44q-.517.22-1.298.377-.782.161-1.72.161-1.44 0-2.48-.43t-1.714-1.167q-.668-.742-.98-1.753-.309-1.01-.309-2.187Zm10 .078q0-1.401.43-2.451t1.128-1.748q.703-.698 1.611-1.06.913-.361 1.875-.361 2.237 0 3.535 1.372 1.304 1.367 1.304 4.028 0 .26-.02.572-.019.307-.043.546H69.12q.098.923.86 1.465.761.537 2.04.537.82 0 1.607-.146.79-.151 1.294-.371l.4 2.417q-.24.122-.64.244-.4.117-.893.205-.488.093-1.05.151-.556.059-1.118.059-1.42 0-2.47-.42t-1.744-1.147q-.688-.733-1.02-1.729-.328-1-.328-2.163Zm7.002-1.138q-.02-.38-.132-.742-.107-.361-.336-.64-.23-.278-.581-.458-.352-.181-.87-.181-.503 0-.864.17-.356.172-.596.45-.239.278-.37.65-.133.37-.191.751zm11.52-1.562q-.401-.098-.943-.205-.537-.113-1.157-.113-.279 0-.67.05-.39.048-.59.107v8.042H78.24v-9.961q.801-.279 1.89-.528 1.089-.253 2.427-.253.244 0 .58.034.343.029.68.078.341.049.678.122.342.068.586.166z"/><path fill="#fff" d="M30.482 72.697q3.1 0 4.756 1.089 1.66 1.089 1.66 3.57 0 2.5-1.68 3.613-1.68 1.108-4.8 1.108h-.976v4.639h-3.12V73.054q1.02-.2 2.158-.279 1.142-.078 2.002-.078m.2 2.656q-.342 0-.674.025-.327.02-.566.039v3.999h.976q1.621 0 2.442-.44.82-.439.82-1.64 0-.581-.21-.957-.21-.381-.6-.61-.391-.235-.953-.323-.556-.093-1.235-.093M41.98 86.716H39V76.198h2.979zm.278-13.56q0 .82-.532 1.29-.527.468-1.245.468-.723 0-1.255-.469-.527-.469-.527-1.289t.527-1.289q.532-.474 1.255-.474.718 0 1.245.474.532.469.532 1.29m2.523 3.399q.757-.22 1.958-.41 1.202-.191 2.52-.191 1.343 0 2.231.352.889.351 1.407.99.522.64.742 1.52.22.878.22 1.957v5.943H50.88v-5.581q0-1.44-.38-2.036-.382-.601-1.422-.601-.317 0-.678.03t-.64.068v8.12H44.78zm11.277 4.902q0-1.143.372-2.149.37-1.01 1.069-1.762.703-.752 1.7-1.192 1-.44 2.28-.44.84 0 1.537.152.704.152 1.363.43l-.62 2.378q-.42-.156-.923-.278-.498-.122-1.118-.122-1.319 0-1.968.82-.65.82-.65 2.163 0 1.42.61 2.202.611.776 2.13.776.542 0 1.162-.097.62-.103 1.137-.322l.42 2.44q-.517.22-1.298.377-.782.161-1.72.161-1.44 0-2.48-.43t-1.714-1.167q-.668-.742-.98-1.753-.309-1.01-.309-2.187m10 .078q0-1.401.43-2.451t1.128-1.748q.703-.698 1.611-1.06.913-.361 1.875-.361 2.237 0 3.535 1.372 1.304 1.367 1.304 4.028 0 .26-.02.572-.019.307-.043.546H69.12q.098.923.86 1.465.761.537 2.04.537.82 0 1.607-.146.79-.151 1.294-.371l.4 2.417q-.24.122-.64.244-.4.117-.893.205-.488.093-1.05.151-.556.059-1.118.059-1.42 0-2.47-.42t-1.744-1.147q-.688-.733-1.02-1.729-.328-1-.328-2.163m7.002-1.138q-.02-.38-.132-.742-.107-.361-.336-.64-.23-.278-.581-.458-.352-.181-.87-.181-.503 0-.864.17-.356.172-.596.45-.239.278-.37.65-.133.37-.191.751zm11.52-1.562q-.401-.098-.943-.205-.537-.113-1.157-.113-.279 0-.67.05-.39.048-.59.107v8.042H78.24v-9.961q.801-.279 1.89-.528 1.089-.253 2.427-.253.244 0 .58.034.343.029.68.078.341.049.678.122.342.068.586.166z"/></svg>