<svg xmlns="http://www.w3.org/2000/svg" width="110" height="110"><path fill="#cfbb50" d="M81.429 47.857q0 .298-.015.596t-.044.594-.073.592-.102.587-.13.582-.16.574-.186.566-.215.556-.241.545-.268.532-.294.519-.319.503-.343.488-.367.47-.39.45q-.2.222-.41.432-.21.211-.432.411-.22.2-.451.39-.23.189-.47.366-.24.178-.487.344-.248.165-.504.318-.255.154-.518.294t-.533.268-.544.242-.557.214q-.28.1-.565.187-.286.087-.575.159t-.581.13-.588.103-.591.072-.594.044q-.298.015-.596.015t-.596-.015-.595-.044-.591-.072-.587-.102-.582-.131-.574-.159-.566-.187-.556-.214-.545-.242-.532-.268-.519-.294-.504-.318-.487-.344-.47-.366-.45-.39-.433-.41-.41-.432-.39-.452-.367-.47-.343-.487-.319-.503-.293-.519-.268-.532-.242-.545-.214-.556-.187-.566-.16-.574q-.072-.29-.13-.582t-.102-.587-.073-.592-.044-.594-.014-.596.014-.596q.015-.297.044-.594.03-.297.073-.592.044-.294.102-.587.058-.292.13-.581.073-.29.16-.575.086-.285.187-.566.1-.28.214-.556.114-.275.242-.545.127-.27.268-.532.14-.263.293-.519.154-.255.32-.503.165-.248.342-.487.178-.24.367-.47.19-.23.39-.452.2-.22.41-.431.211-.211.432-.411.22-.2.451-.39.23-.189.47-.366.24-.178.487-.343.248-.166.504-.32.256-.152.519-.293.262-.14.532-.268.27-.127.545-.241.275-.115.556-.215.28-.1.566-.187.285-.086.574-.159.29-.072.582-.13t.587-.102.591-.073q.297-.03.595-.044.298-.015.596-.015t.596.015q.297.015.594.044t.591.073q.295.043.588.102.292.058.581.13.29.073.575.16.285.086.565.186.281.1.557.215.275.114.544.241.27.128.533.268t.518.294.504.319.487.343q.24.177.47.367.23.189.451.389t.432.41q.21.212.41.432.201.221.39.452.19.23.367.47t.343.487.319.503.294.519q.14.263.268.532.127.27.241.545.114.276.215.556.1.281.187.566.086.285.159.575.072.289.13.581.058.293.102.587.044.295.073.592.03.297.044.594.015.298.015.596"/><path fill="#ffe763" d="M77.143 47.857q0 .193-.01.386-.01.192-.028.384t-.047.383-.066.38-.085.376q-.046.187-.102.372-.056.184-.121.366t-.14.36-.156.352-.173.345-.19.335-.206.326-.222.316-.238.304-.252.292-.265.279-.28.266-.292.252-.304.237-.315.222-.326.206-.335.19-.345.174-.353.156-.36.139q-.18.065-.365.12-.185.057-.372.104t-.376.084-.38.066-.383.047-.385.029q-.192.01-.385.01t-.386-.01q-.192-.01-.384-.029t-.383-.047-.38-.066-.376-.084q-.188-.047-.372-.103-.185-.056-.366-.121-.182-.065-.36-.139t-.353-.156-.344-.174-.336-.19-.325-.206-.316-.222-.304-.237-.292-.252-.28-.266-.265-.28-.252-.291-.237-.304-.222-.316-.207-.326-.19-.335-.173-.345-.156-.352-.14-.36q-.064-.182-.12-.366-.056-.185-.103-.372t-.084-.376-.066-.38-.048-.383-.028-.384-.01-.386.01-.385.028-.385q.02-.192.048-.383.028-.19.066-.38.037-.189.084-.376t.103-.372.12-.366.14-.36.156-.352q.082-.175.173-.345t.19-.335q.1-.166.207-.326t.222-.315.237-.304q.122-.15.252-.292.13-.143.266-.28.136-.136.28-.266.142-.13.291-.252.15-.122.304-.237.155-.115.316-.222.16-.107.325-.206.166-.1.336-.19.17-.091.344-.174.175-.082.353-.156t.36-.139q.181-.065.366-.12.184-.057.372-.104.187-.046.376-.084t.38-.066.383-.047.384-.029.386-.009.385.01q.193.009.385.028t.383.047q.19.028.38.066.189.038.376.084t.372.103.366.121.36.14q.178.073.352.155.174.083.345.174t.335.19.326.206.315.222.304.237q.15.123.292.252.143.13.28.266.136.137.265.28.13.142.252.292.123.149.238.304t.222.315.206.326q.1.165.19.335.091.17.173.345.083.174.157.352.074.179.139.36.065.182.12.366.057.185.103.372.047.187.085.376.037.19.066.38.028.191.047.383t.028.385.01.385"/><path fill="#cfbb50" d="M28.571 47.857q0-.298.015-.596.015-.297.044-.594.03-.297.073-.592.044-.294.102-.587.058-.292.13-.581.073-.29.16-.575.086-.285.186-.566t.215-.556.241-.545.268-.532.294-.519.319-.503.343-.487.367-.47.39-.452q.2-.22.41-.431t.432-.411.451-.39.47-.366q.24-.178.487-.343.248-.166.504-.32.255-.152.518-.293t.533-.268.544-.241.557-.215.565-.187q.286-.086.575-.159.289-.072.581-.13.293-.059.588-.102.294-.044.591-.073.297-.03.594-.044.298-.015.596-.015t.596.015.595.044.591.073.587.102.582.13.574.16.566.186.556.215.545.241.532.268.519.294.504.319.487.343.47.367.45.389.433.41.41.432.39.452.367.47.343.487.319.503.293.519.268.532.242.545.214.556.187.566.16.575.13.581.102.587.073.592.044.594.014.596-.014.596-.044.594-.073.592-.102.587-.13.582-.16.574-.187.566-.214.556-.242.545-.268.532-.293.519-.32.503-.342.488-.367.47-.39.45q-.2.222-.41.432-.211.211-.432.411-.22.2-.451.39-.23.189-.47.366-.24.178-.487.344-.248.165-.504.318-.256.154-.519.294-.262.14-.532.268t-.545.242-.556.214q-.28.1-.566.187t-.574.159q-.29.072-.582.13t-.587.103-.591.072q-.297.03-.595.044-.298.015-.596.015t-.596-.015q-.297-.014-.594-.044t-.591-.072-.588-.102q-.292-.059-.581-.131-.29-.072-.575-.159-.285-.086-.565-.187-.281-.1-.557-.214-.275-.114-.544-.242-.27-.127-.533-.268-.263-.14-.518-.294-.256-.153-.504-.318-.248-.166-.487-.344-.24-.177-.47-.366-.23-.19-.451-.39t-.432-.41-.41-.432q-.201-.221-.39-.452-.19-.23-.367-.47t-.343-.487-.319-.503-.294-.519q-.14-.263-.268-.532-.127-.27-.241-.545t-.215-.556q-.1-.28-.187-.566-.086-.285-.159-.574-.072-.29-.13-.582t-.102-.587-.073-.592-.044-.594-.015-.596"/><path fill="#ffe763" d="M32.857 47.857q0-.193.01-.385.01-.193.028-.385t.047-.383q.029-.19.066-.38.038-.189.085-.376.046-.187.102-.372.056-.184.121-.366.065-.181.14-.36.073-.178.156-.352.082-.175.173-.345t.19-.335q.1-.166.206-.326.107-.16.222-.315t.238-.304q.122-.15.252-.292.13-.143.265-.28.137-.136.28-.266t.292-.252.304-.237.315-.222.326-.206.335-.19.345-.174.353-.156.36-.139q.18-.065.365-.12.185-.057.372-.104t.376-.084.38-.066.383-.047.385-.029.385-.009q.193 0 .386.01.192.009.384.028t.383.047.38.066.376.084q.188.047.372.103.185.056.366.121.182.065.36.14.178.073.353.155.174.083.344.174t.336.19.325.206.316.222.304.237q.149.123.292.252.143.13.28.266.136.137.265.28.13.142.252.292.122.149.237.304t.222.315.207.326.19.335.173.345.156.352.14.36q.064.182.12.366.056.185.103.372t.084.376.066.38.048.383.028.385.01.385-.01.386-.028.384q-.02.192-.048.383-.028.19-.066.38-.037.19-.084.376-.047.187-.103.372-.056.184-.12.366-.066.182-.14.36-.073.178-.156.352-.082.175-.173.345t-.19.335q-.1.166-.207.326t-.222.316-.237.304-.252.292-.266.279-.28.266q-.142.13-.291.252-.15.122-.304.237-.155.115-.316.222-.16.107-.325.206-.166.1-.336.19-.17.091-.344.174-.175.082-.353.156t-.36.139q-.181.065-.366.12-.184.057-.372.104-.187.047-.376.084t-.38.066-.383.047q-.192.02-.384.029-.193.01-.386.01t-.385-.01q-.193-.01-.385-.029t-.383-.047q-.19-.028-.38-.066-.189-.037-.376-.084t-.372-.103-.366-.121-.36-.139-.352-.156-.345-.174-.335-.19-.326-.206-.315-.222-.304-.237q-.15-.123-.292-.252-.143-.13-.28-.266-.136-.136-.265-.28-.13-.142-.252-.291-.123-.15-.238-.304-.115-.155-.222-.316-.107-.16-.206-.326-.1-.165-.19-.335-.091-.17-.173-.345-.083-.174-.157-.352t-.139-.36-.12-.366q-.057-.185-.103-.372-.047-.187-.085-.376-.037-.19-.066-.38-.028-.19-.047-.383-.019-.192-.028-.384-.01-.193-.01-.386"/><path fill="none" stroke="#000" stroke-linejoin="round" stroke-width="2.4" d="M30.202 72.697q3.1 0 4.756 1.089 1.66 1.089 1.66 3.57 0 2.5-1.68 3.613-1.68 1.108-4.8 1.108h-.976v4.639h-3.12V73.054q1.02-.2 2.158-.279 1.142-.078 2.002-.078Zm.2 2.656q-.342 0-.674.025-.327.02-.566.039v3.999h.976q1.621 0 2.442-.44.82-.439.82-1.64 0-.581-.21-.957-.21-.381-.6-.61-.391-.235-.953-.323-.556-.093-1.235-.093Zm18.158 6.084q0 1.24-.361 2.27-.361 1.026-1.04 1.759t-1.631 1.133q-.947.395-2.129.395-1.157 0-2.11-.395-.951-.4-1.63-1.133t-1.06-1.758q-.38-1.03-.38-2.27t.39-2.261q.39-1.02 1.08-1.739.693-.722 1.64-1.123.952-.4 2.07-.4 1.143 0 2.09.4.952.4 1.63 1.123.68.718 1.06 1.739.381 1.02.381 2.26Zm-3.042 0q0-1.381-.552-2.172-.546-.791-1.567-.791t-1.582.79q-.556.792-.556 2.173 0 1.377.556 2.188.562.81 1.582.81t1.567-.81q.552-.81.552-2.188Zm9.543 5.479q-1.3-.02-2.11-.278-.81-.264-1.284-.733-.469-.469-.64-1.138-.166-.673-.166-1.513V71.677l2.979-.479v11.46q0 .396.058.718.064.322.23.542.17.22.488.361.323.137.865.176zm6.32 0q-1.3-.02-2.11-.278-.81-.264-1.284-.733-.469-.469-.64-1.138-.166-.673-.166-1.513V71.677l2.979-.479v11.46q0 .396.058.718.064.322.23.542.17.22.488.361.323.137.865.176zm1.617-5.381q0-1.401.43-2.451t1.128-1.748q.703-.698 1.611-1.06.913-.361 1.875-.361 2.237 0 3.535 1.372 1.304 1.367 1.304 4.028 0 .26-.02.572-.019.307-.043.546H66.06q.098.923.86 1.465.761.537 2.04.537.82 0 1.607-.146.79-.151 1.294-.371l.4 2.417q-.24.122-.64.244-.4.117-.893.205-.488.093-1.05.151-.556.059-1.118.059-1.42 0-2.47-.42t-1.744-1.147q-.688-.733-1.02-1.729-.328-1-.328-2.163ZM70 80.397q-.02-.38-.132-.742-.107-.361-.336-.64-.23-.278-.581-.458-.352-.181-.87-.181-.502 0-.864.17-.356.172-.596.45-.239.278-.37.65-.133.37-.191.751zm5.181-3.842q.757-.22 1.958-.41 1.201-.191 2.52-.191 1.343 0 2.231.352.889.351 1.407.99.522.64.742 1.52.22.878.22 1.957v5.943H81.28v-5.581q0-1.44-.38-2.036-.382-.601-1.422-.601-.317 0-.678.03t-.64.068v8.12H75.18z"/><path fill="#fff" d="M30.202 72.697q3.1 0 4.756 1.089 1.66 1.089 1.66 3.57 0 2.5-1.68 3.613-1.68 1.108-4.8 1.108h-.976v4.639h-3.12V73.054q1.02-.2 2.158-.279 1.142-.078 2.002-.078m.2 2.656q-.342 0-.674.025-.327.02-.566.039v3.999h.976q1.621 0 2.442-.44.82-.439.82-1.64 0-.581-.21-.957-.21-.381-.6-.61-.391-.235-.953-.323-.556-.093-1.235-.093m18.158 6.084q0 1.24-.361 2.27-.361 1.026-1.04 1.759t-1.631 1.133q-.947.395-2.129.395-1.157 0-2.11-.395-.951-.4-1.63-1.133t-1.06-1.758q-.38-1.03-.38-2.27t.39-2.261q.39-1.02 1.08-1.739.693-.722 1.64-1.123.952-.4 2.07-.4 1.143 0 2.09.4.952.4 1.63 1.123.68.718 1.06 1.739.381 1.02.381 2.26m-3.042 0q0-1.381-.552-2.172-.546-.791-1.567-.791t-1.582.79q-.556.792-.556 2.173 0 1.377.556 2.188.562.81 1.582.81t1.567-.81q.552-.81.552-2.188m9.543 5.479q-1.3-.02-2.11-.278-.81-.264-1.284-.733-.469-.469-.64-1.138-.166-.673-.166-1.513V71.677l2.979-.479v11.46q0 .396.058.718.064.322.23.542.17.22.488.361.323.137.865.176zm6.32 0q-1.3-.02-2.11-.278-.81-.264-1.284-.733-.469-.469-.64-1.138-.166-.673-.166-1.513V71.677l2.979-.479v11.46q0 .396.058.718.064.322.23.542.17.22.488.361.323.137.865.176zm1.617-5.381q0-1.401.43-2.451t1.128-1.748q.703-.698 1.611-1.06.913-.361 1.875-.361 2.237 0 3.535 1.372 1.304 1.367 1.304 4.028 0 .26-.02.572-.019.307-.043.546H66.06q.098.923.86 1.465.761.537 2.04.537.82 0 1.607-.146.79-.151 1.294-.371l.4 2.417q-.24.122-.64.244-.4.117-.893.205-.488.093-1.05.151-.556.059-1.118.059-1.42 0-2.47-.42t-1.744-1.147q-.688-.733-1.02-1.729-.328-1-.328-2.163M70 80.397q-.02-.38-.132-.742-.107-.361-.336-.64-.23-.278-.581-.458-.352-.181-.87-.181-.502 0-.864.17-.356.172-.596.45-.239.278-.37.65-.133.37-.191.751zm5.181-3.842q.757-.22 1.958-.41 1.201-.191 2.52-.191 1.343 0 2.231.352.889.351 1.407.99.522.64.742 1.52.22.878.22 1.957v5.943H81.28v-5.581q0-1.44-.38-2.036-.382-.601-1.422-.601-.317 0-.678.03t-.64.068v8.12H75.18z"/></svg>