<svg xmlns="http://www.w3.org/2000/svg" width="110" height="110"><path fill="#e0c85c" d="m76.934 54.3-9.403 3.402-7.649-6.442 1.755-9.845 9.404-3.403 7.648 6.442z"/><path fill="none" stroke="#b5a24b" stroke-linejoin="round" stroke-width="4.28571" d="m76.934 54.3-9.403 3.402-7.649-6.442 1.755-9.845 9.404-3.403 7.648 6.442z"/><path fill="#e0c85c" d="m48.558 69.791-3.403-9.403 6.442-7.648 9.845 1.754 3.403 9.404-6.442 7.648z"/><path fill="none" stroke="#b5a24b" stroke-linejoin="round" stroke-width="4.28571" d="m48.558 69.791-3.403-9.403 6.442-7.648 9.845 1.754 3.403 9.404-6.442 7.648z"/><path fill="#e0c85c" d="m33.066 41.415 9.403-3.403 7.649 6.442-1.755 9.845-9.404 3.403-7.648-6.442z"/><path fill="none" stroke="#b5a24b" stroke-linejoin="round" stroke-width="4.28571" d="m33.066 41.415 9.403-3.403 7.649 6.442-1.755 9.845-9.404 3.403-7.648-6.442z"/><path fill="#e0c85c" d="m61.442 25.923 3.403 9.403-6.442 7.649-9.845-1.755-3.403-9.403 6.442-7.649z"/><path fill="none" stroke="#b5a24b" stroke-linejoin="round" stroke-width="4.28571" d="m61.442 25.923 3.403 9.403-6.442 7.649-9.845-1.755-3.403-9.403 6.442-7.649z"/><path fill="none" stroke="#000" stroke-linejoin="round" stroke-width="2.4" d="M37.1 84.338q.66 0 1.09-.108.43-.112.688-.302.264-.19.362-.45.102-.263.102-.58 0-.684-.644-1.133-.64-.45-2.198-.967-.678-.244-1.362-.552-.679-.313-1.22-.781-.538-.469-.88-1.138-.337-.669-.337-1.63 0-.963.357-1.73.361-.77 1.02-1.308.66-.542 1.602-.83.942-.293 2.12-.293 1.4 0 2.421.303 1.02.298 1.68.659l-.899 2.456q-.58-.298-1.294-.527-.708-.23-1.709-.23-1.118 0-1.611.313-.488.307-.488.947 0 .38.18.64.181.258.508.468.332.21.762.381t.952.352q1.08.4 1.875.79.8.386 1.333.909.532.518.791 1.22.259.699.259 1.7 0 1.938-1.362 3.008-1.358 1.069-4.097 1.069-.923 0-1.665-.112-.738-.108-1.309-.264-.566-.161-.976-.342-.41-.18-.689-.342l.88-2.48q.62.342 1.527.615.909.269 2.232.269Zm11.68.298q.44 0 .84-.02t.64-.058v-2.261q-.181-.04-.543-.078-.356-.044-.659-.044-.42 0-.79.053-.367.05-.65.19-.278.138-.44.377-.156.24-.156.6 0 .699.469.972.469.269 1.289.269Zm-.24-8.721q1.319 0 2.198.303.884.297 1.411.859.532.557.752 1.357.22.801.22 1.783v6.2q-.64.138-1.782.328-1.138.19-2.76.19-1.02 0-1.85-.18t-1.43-.591-.923-1.07q-.318-.659-.318-1.62 0-.918.371-1.558t.992-1.02 1.42-.547q.801-.171 1.66-.171.577 0 1.026.048.454.05.732.127v-.278q0-.762-.459-1.22-.459-.46-1.601-.46-.757 0-1.5.113-.741.107-1.278.307l-.381-2.397q.258-.083.65-.171.39-.093.849-.161.459-.069.967-.117.512-.054 1.035-.054Zm7.281.64q.757-.22 1.958-.41 1.202-.191 2.52-.191 1.343 0 2.231.352.889.351 1.407.99.522.64.742 1.52.22.878.22 1.957v5.943H61.92v-5.581q0-1.44-.38-2.036-.382-.601-1.422-.601-.317 0-.678.03t-.64.068v8.12H55.82zm14.32 4.819q0 1.382.62 2.222t1.84.84q.4 0 .738-.03.341-.03.561-.068v-5.42q-.278-.18-.732-.298-.45-.122-.908-.122-2.12 0-2.12 2.876Zm6.738 5q-.4.122-.923.234-.518.108-1.089.186-.566.083-1.157.132-.591.048-1.128.048-1.304 0-2.324-.375-1.016-.381-1.72-1.09-.697-.712-1.069-1.723-.37-1.01-.37-2.27 0-1.28.317-2.31.322-1.03.923-1.748.6-.723 1.47-1.104.873-.38 1.992-.38.62 0 1.108.122.493.122.991.341v-4.76l2.979-.479z"/><path fill="#fff" d="M37.1 84.338q.66 0 1.09-.108.43-.112.688-.302.264-.19.362-.45.102-.263.102-.58 0-.684-.644-1.133-.64-.45-2.198-.967-.678-.244-1.362-.552-.679-.313-1.22-.781-.538-.469-.88-1.138-.337-.669-.337-1.63 0-.963.357-1.73.361-.77 1.02-1.308.66-.542 1.602-.83.942-.293 2.12-.293 1.4 0 2.421.303 1.02.298 1.68.659l-.899 2.456q-.58-.298-1.294-.527-.708-.23-1.709-.23-1.118 0-1.611.313-.488.307-.488.947 0 .38.18.64.181.258.508.468.332.21.762.381t.952.352q1.08.4 1.875.79.8.386 1.333.909.532.518.791 1.22.259.699.259 1.7 0 1.938-1.362 3.008-1.358 1.069-4.097 1.069-.923 0-1.665-.112-.738-.108-1.309-.264-.566-.161-.976-.342-.41-.18-.689-.342l.88-2.48q.62.342 1.527.615.909.269 2.232.269m11.68.298q.44 0 .84-.02t.64-.058v-2.261q-.181-.04-.543-.078-.356-.044-.659-.044-.42 0-.79.053-.367.05-.65.19-.278.138-.44.377-.156.24-.156.6 0 .699.469.972.469.269 1.289.269m-.24-8.721q1.319 0 2.198.303.884.297 1.411.859.532.557.752 1.357.22.801.22 1.783v6.2q-.64.138-1.782.328-1.138.19-2.76.19-1.02 0-1.85-.18t-1.43-.591-.923-1.07q-.318-.659-.318-1.62 0-.918.371-1.558t.992-1.02 1.42-.547q.801-.171 1.66-.171.577 0 1.026.048.454.05.732.127v-.278q0-.762-.459-1.22-.459-.46-1.601-.46-.757 0-1.5.113-.741.107-1.278.307l-.381-2.397q.258-.083.65-.171.39-.093.849-.161.459-.069.967-.117.512-.054 1.035-.054m7.281.64q.757-.22 1.958-.41 1.202-.191 2.52-.191 1.343 0 2.231.352.889.351 1.407.99.522.64.742 1.52.22.878.22 1.957v5.943H61.92v-5.581q0-1.44-.38-2.036-.382-.601-1.422-.601-.317 0-.678.03t-.64.068v8.12H55.82zm14.32 4.819q0 1.382.62 2.222t1.84.84q.4 0 .738-.03.341-.03.561-.068v-5.42q-.278-.18-.732-.298-.45-.122-.908-.122-2.12 0-2.12 2.876m6.738 5q-.4.122-.923.234-.518.108-1.089.186-.566.083-1.157.132-.591.048-1.128.048-1.304 0-2.324-.375-1.016-.381-1.72-1.09-.697-.712-1.069-1.723-.37-1.01-.37-2.27 0-1.28.317-2.31.322-1.03.923-1.748.6-.723 1.47-1.104.873-.38 1.992-.38.62 0 1.108.122.493.122.991.341v-4.76l2.979-.479z"/></svg>