<svg xmlns="http://www.w3.org/2000/svg" width="110" height="110"><path fill="#fcdd86" d="M61.491 28.026q.482.212.952.447t.93.493.903.538.876.582.847.623.815.665.782.704.746.742.708.777.67.81.63.843q.304.43.586.873.283.444.544.9.26.458.499.927.237.469.452.95.215.48.406.97.19.49.357.989t.308 1.005q.142.507.26 1.02.116.513.208 1.03.091.519.157 1.04.066.522.106 1.047t.055 1.05.003 1.052q-.01.526-.048 1.05-.037.525-.1 1.048-.063.522-.15 1.04-.09.52-.203 1.033t-.252 1.02-.303 1.008q-.163.5-.35.992-.189.49-.4.972-.254.578-.542 1.14t-.608 1.106-.672 1.069-.733 1.027-.793.982-.85.933-.902.882-.953.827q-.49.4-1 .77-.512.37-1.044.71-.533.34-1.084.647t-1.12.582q-.568.274-1.152.515-.584.24-1.18.446-.597.206-1.205.376t-1.225.304q-5.98-6.724-15.785-16.323-2.984-6.042 1.14-11.371 11.517-7.46 18.714-12.862"/><path fill="none" stroke="#ccb36d" stroke-linecap="round" stroke-linejoin="round" stroke-width="3.57145" d="M61.491 28.026q.482.212.952.447t.93.493.903.538.876.582.847.623.815.665.782.704.746.742.708.777.67.81.63.843q.304.43.586.873.283.444.544.9.26.458.499.927.237.469.452.95.215.48.406.97.19.49.357.989t.308 1.005q.142.507.26 1.02.116.513.208 1.03.091.519.157 1.04.066.522.106 1.047t.055 1.05.003 1.052q-.01.526-.048 1.05-.037.525-.1 1.048-.063.522-.15 1.04-.09.52-.203 1.033t-.252 1.02-.303 1.008q-.163.5-.35.992-.189.49-.4.972-.254.578-.542 1.14t-.608 1.106-.672 1.069-.733 1.027-.793.982-.85.933-.902.882-.953.827q-.49.4-1 .77-.512.37-1.044.71-.533.34-1.084.647t-1.12.582q-.568.274-1.152.515-.584.24-1.18.446-.597.206-1.205.376t-1.225.304q-5.98-6.724-15.785-16.323-2.984-6.042 1.14-11.371 11.517-7.46 18.714-12.862"/><path fill="none" stroke="#ccb36d" stroke-linecap="round" stroke-linejoin="round" stroke-width="2.85716" d="M60.327 59.16q-8.03-5.831-13.501-8.534M64.806 53.148q-12.166-3.23-16.487-4.525M65.662 44.62q-12.566.749-17.058 1.16M62.466 37.838q-9.028 4.12-14.927 5.681"/><path fill="none" stroke="#000" stroke-linejoin="round" stroke-width="2.4" d="M36.51 84.338q.66 0 1.09-.108.43-.112.688-.302.264-.19.362-.45.102-.263.102-.58 0-.684-.644-1.133-.64-.45-2.198-.967-.678-.244-1.362-.552-.679-.313-1.22-.781-.538-.469-.88-1.138-.337-.669-.337-1.63 0-.963.357-1.73.361-.77 1.02-1.308.66-.542 1.602-.83.942-.293 2.12-.293 1.4 0 2.421.303 1.02.298 1.68.659l-.899 2.456q-.58-.298-1.294-.527-.708-.23-1.709-.23-1.118 0-1.611.313-.488.307-.488.947 0 .38.18.64.181.258.508.468.332.21.762.381t.952.352q1.08.4 1.875.79.8.386 1.333.909.532.518.791 1.22.259.699.259 1.7 0 1.938-1.362 3.008-1.358 1.069-4.097 1.069-.923 0-1.665-.112-.737-.108-1.309-.264-.566-.161-.976-.342-.41-.18-.689-.342l.88-2.48q.62.342 1.527.615.909.269 2.232.269Zm7.661 2.378v-15.04l2.979-.478v5.04q.298-.103.767-.191.473-.093.913-.093 1.279 0 2.128.352.85.351 1.358.99.513.64.723 1.52.21.878.21 1.957v5.943H50.27v-5.581q0-1.44-.371-2.036-.371-.601-1.367-.601-.4 0-.752.068-.352.069-.63.152v7.998zm11.277-5.181q0-1.401.43-2.451t1.128-1.748q.703-.698 1.611-1.06.913-.361 1.875-.361 2.237 0 3.536 1.372 1.303 1.367 1.303 4.028 0 .26-.02.572-.019.307-.043.546H58.51q.098.923.86 1.465.761.537 2.04.537.82 0 1.607-.146.79-.151 1.294-.371l.4 2.417q-.24.122-.64.244-.4.117-.893.205-.488.093-1.05.151-.557.059-1.118.059-1.42 0-2.47-.42t-1.744-1.147q-.688-.733-1.02-1.729-.328-1-.328-2.163Zm7.002-1.138q-.02-.38-.131-.742-.108-.361-.337-.64-.23-.278-.581-.458-.352-.181-.87-.181-.502 0-.864.17-.356.172-.596.45-.239.278-.37.65-.132.37-.191.751zm9.38 6.519q-1.298-.02-2.109-.278-.81-.264-1.284-.733-.469-.469-.64-1.138-.166-.673-.166-1.513V71.677l2.979-.479v11.46q0 .396.058.718.064.322.23.542.17.22.488.361.323.137.865.176zm6.32 0q-1.298-.02-2.109-.278-.81-.264-1.284-.733-.469-.469-.64-1.138-.166-.673-.166-1.513V71.677l2.979-.479v11.46q0 .396.058.718.064.322.23.542.17.22.488.361.323.137.864.176z"/><path fill="#fff" d="M36.51 84.338q.66 0 1.09-.108.43-.112.688-.302.264-.19.362-.45.102-.263.102-.58 0-.684-.644-1.133-.64-.45-2.198-.967-.678-.244-1.362-.552-.679-.313-1.22-.781-.538-.469-.88-1.138-.337-.669-.337-1.63 0-.963.357-1.73.361-.77 1.02-1.308.66-.542 1.602-.83.942-.293 2.12-.293 1.4 0 2.421.303 1.02.298 1.68.659l-.899 2.456q-.58-.298-1.294-.527-.708-.23-1.709-.23-1.118 0-1.611.313-.488.307-.488.947 0 .38.18.64.181.258.508.468.332.21.762.381t.952.352q1.08.4 1.875.79.8.386 1.333.909.532.518.791 1.22.259.699.259 1.7 0 1.938-1.362 3.008-1.358 1.069-4.097 1.069-.923 0-1.665-.112-.737-.108-1.309-.264-.566-.161-.976-.342-.41-.18-.689-.342l.88-2.48q.62.342 1.527.615.909.269 2.232.269m7.661 2.378v-15.04l2.979-.478v5.04q.298-.103.767-.191.473-.093.913-.093 1.279 0 2.128.352.85.351 1.358.99.513.64.723 1.52.21.878.21 1.957v5.943H50.27v-5.581q0-1.44-.371-2.036-.371-.601-1.367-.601-.4 0-.752.068-.352.069-.63.152v7.998zm11.277-5.181q0-1.401.43-2.451t1.128-1.748q.703-.698 1.611-1.06.913-.361 1.875-.361 2.237 0 3.536 1.372 1.303 1.367 1.303 4.028 0 .26-.02.572-.019.307-.043.546H58.51q.098.923.86 1.465.761.537 2.04.537.82 0 1.607-.146.79-.151 1.294-.371l.4 2.417q-.24.122-.64.244-.4.117-.893.205-.488.093-1.05.151-.557.059-1.118.059-1.42 0-2.47-.42t-1.744-1.147q-.688-.733-1.02-1.729-.328-1-.328-2.163m7.002-1.138q-.02-.38-.131-.742-.108-.361-.337-.64-.23-.278-.581-.458-.352-.181-.87-.181-.502 0-.864.17-.356.172-.596.45-.239.278-.37.65-.132.37-.191.751zm9.38 6.519q-1.298-.02-2.109-.278-.81-.264-1.284-.733-.469-.469-.64-1.138-.166-.673-.166-1.513V71.677l2.979-.479v11.46q0 .396.058.718.064.322.23.542.17.22.488.361.323.137.865.176zm6.32 0q-1.298-.02-2.109-.278-.81-.264-1.284-.733-.469-.469-.64-1.138-.166-.673-.166-1.513V71.677l2.979-.479v11.46q0 .396.058.718.064.322.23.542.17.22.488.361.323.137.864.176z"/></svg>