<svg xmlns="http://www.w3.org/2000/svg" width="110" height="110"><path fill="#fff" d="M63.49 61.08q-8.929-5.608-18.442-1.062 2.574-10.225-4.69-17.868 10.52-.712 15.545-9.981 3.928 9.785 14.297 11.7-8.093 6.758-6.71 17.211"/><path fill="#cfcfcf" d="M62.35 62.895q-7.93-4.98-16.378-.943-.095.045-.194.08-.1.037-.201.063t-.206.042q-.105.015-.21.021t-.21 0q-.105-.004-.21-.019-.103-.015-.206-.04-.102-.025-.201-.06t-.195-.08-.186-.099q-.09-.053-.175-.116-.085-.062-.163-.132t-.15-.149q-.07-.077-.133-.162-.063-.084-.118-.174t-.1-.185q-.161-.338-.198-.71-.038-.374.054-.737 2.286-9.08-4.165-15.869-.072-.076-.137-.16-.065-.082-.12-.171-.057-.09-.104-.183-.047-.094-.085-.193-.038-.098-.066-.2-.028-.101-.046-.205t-.025-.208-.005-.21.015-.21q.013-.105.036-.208.024-.102.057-.202t.076-.196q.042-.096.094-.188t.113-.178.13-.165q.068-.08.145-.152.271-.258.614-.41.343-.15.717-.175 9.343-.632 13.806-8.864.05-.093.109-.18t.126-.168.142-.155.157-.14.17-.125.18-.107.191-.089.198-.07.205-.05.208-.029.21-.009q.105 0 .21.012.105.01.208.032.103.02.203.052.101.031.198.072t.19.09q.329.18.578.46.25.279.39.627 3.487 8.69 12.696 10.39.103.02.204.048.101.03.2.069.097.038.19.087.094.048.182.105.089.058.171.123.082.066.158.14.075.073.143.153t.128.167.11.18q.051.091.093.188t.073.197.054.203q.022.103.034.208t.013.21-.007.21q-.01.105-.028.208-.068.369-.257.692-.19.324-.477.564-7.187 6.003-5.958 15.286.014.104.017.21.004.105-.003.21t-.024.209-.044.205-.065.2q-.036.1-.083.194t-.102.183q-.056.09-.12.174t-.136.16q-.071.077-.15.146-.08.07-.165.131-.086.062-.177.114-.09.053-.187.096-.096.044-.195.078-.1.034-.203.058-.102.024-.206.037-.372.05-.738-.03t-.683-.28m2.28-3.63-1.14 1.815-2.124.281q-1.538-11.622 7.46-19.137l1.374 1.644-.39 2.108q-11.528-2.129-15.895-13.009l1.988-.798 1.884 1.021Q52.2 43.497 40.503 44.288l-.144-2.138 1.553-1.476q8.076 8.498 5.214 19.867l-2.078-.523-.924-1.933q10.578-5.055 20.506 1.18"/><path fill="none" stroke="#000" stroke-linejoin="round" stroke-width="2.4" d="M44.539 74.338q.239.82.527 1.85.293 1.026.62 2.13.332 1.098.674 2.201.342 1.099.659 2.037.259-1.021.527-2.217.274-1.201.513-2.48.24-1.285.469-2.554.234-1.27.434-2.452H52.2q-.699 3.482-1.612 7.066-.908 3.579-1.968 6.797h-2.86q-.7-1.92-1.363-4.029-.66-2.109-1.299-4.233-.64 2.124-1.28 4.233-.639 2.11-1.337 4.029H37.62q-1.06-3.218-1.973-6.797-.908-3.584-1.607-7.066h3.38q.2 1.182.439 2.452t.498 2.553q.264 1.28.532 2.48.269 1.197.552 2.218.361-.982.698-2.08.342-1.1.66-2.198.322-1.103.59-2.124.269-1.02.493-1.816zm8.96 7.197q0-1.401.43-2.451.429-1.05 1.127-1.748.703-.698 1.611-1.06.913-.361 1.875-.361 2.237 0 3.536 1.372 1.303 1.367 1.303 4.028 0 .26-.02.572-.019.307-.043.546H56.56q.098.923.86 1.465.761.537 2.04.537.82 0 1.607-.146.79-.151 1.294-.371l.4 2.417q-.24.122-.64.244-.4.117-.893.205-.488.093-1.05.151-.557.059-1.118.059-1.42 0-2.47-.42t-1.744-1.147q-.688-.733-1.02-1.729-.328-1-.328-2.163Zm7.001-1.138q-.02-.38-.131-.742-.108-.361-.337-.64-.23-.278-.581-.458-.352-.181-.87-.181-.502 0-.864.17-.356.172-.596.45-.239.278-.37.65-.132.37-.191.751zm11.92.977q0-2.876-2.12-2.876-.459 0-.913.122-.449.117-.727.298v5.42q.22.039.556.068.342.03.743.03 1.22 0 1.84-.84t.62-2.222Zm3.042.083q0 1.26-.372 2.28-.37 1.02-1.074 1.743-.698.718-1.718 1.109-1.016.385-2.32.385-.537 0-1.128-.048-.59-.05-1.162-.132-.566-.078-1.089-.186-.517-.112-.918-.234V71.677l2.979-.479v5.24q.498-.22 1.04-.342t1.162-.122q1.118 0 1.978.39t1.44 1.113q.581.718.879 1.729.303 1.01.303 2.25Z"/><path fill="#fff" d="M44.539 74.338q.239.82.527 1.85.293 1.026.62 2.13.332 1.098.674 2.201.342 1.099.659 2.037.259-1.021.527-2.217.274-1.201.513-2.48.24-1.285.469-2.554.234-1.27.434-2.452H52.2q-.699 3.482-1.612 7.066-.908 3.579-1.968 6.797h-2.86q-.7-1.92-1.363-4.029-.66-2.109-1.299-4.233-.64 2.124-1.28 4.233-.639 2.11-1.337 4.029H37.62q-1.06-3.218-1.973-6.797-.908-3.584-1.607-7.066h3.38q.2 1.182.439 2.452t.498 2.553q.264 1.28.532 2.48.269 1.197.552 2.218.361-.982.698-2.08.342-1.1.66-2.198.322-1.103.59-2.124.269-1.02.493-1.816zm8.96 7.197q0-1.401.43-2.451.429-1.05 1.127-1.748.703-.698 1.611-1.06.913-.361 1.875-.361 2.237 0 3.536 1.372 1.303 1.367 1.303 4.028 0 .26-.02.572-.019.307-.043.546H56.56q.098.923.86 1.465.761.537 2.04.537.82 0 1.607-.146.79-.151 1.294-.371l.4 2.417q-.24.122-.64.244-.4.117-.893.205-.488.093-1.05.151-.557.059-1.118.059-1.42 0-2.47-.42t-1.744-1.147q-.688-.733-1.02-1.729-.328-1-.328-2.163m7.001-1.138q-.02-.38-.131-.742-.108-.361-.337-.64-.23-.278-.581-.458-.352-.181-.87-.181-.502 0-.864.17-.356.172-.596.45-.239.278-.37.65-.132.37-.191.751zm11.92.977q0-2.876-2.12-2.876-.459 0-.913.122-.449.117-.727.298v5.42q.22.039.556.068.342.03.743.03 1.22 0 1.84-.84t.62-2.222m3.042.083q0 1.26-.372 2.28-.37 1.02-1.074 1.743-.698.718-1.718 1.109-1.016.385-2.32.385-.537 0-1.128-.048-.59-.05-1.162-.132-.566-.078-1.089-.186-.517-.112-.918-.234V71.677l2.979-.479v5.24q.498-.22 1.04-.342t1.162-.122q1.118 0 1.978.39t1.44 1.113q.581.718.879 1.729.303 1.01.303 2.25"/></svg>