<svg xmlns="http://www.w3.org/2000/svg" width="110" height="110"><path fill="#74b53f" d="M65.806 31.028q-25.231 7.567-21.612 33.659 25.231-7.568 21.612-33.66"/><path fill="none" stroke="#5e9333" stroke-linecap="round" stroke-linejoin="round" stroke-width="4.28571" d="M65.806 31.028q-25.231 7.567-21.612 33.659 25.231-7.568 21.612-33.66"/><path fill="none" stroke="#5e9333" stroke-linecap="round" stroke-linejoin="round" stroke-width="2.85714" d="M65.806 31.028q-25.231 7.567-21.612 33.659 25.231-7.568 21.612-33.66m0 0Q51.394 45.542 44.194 64.687"/><path fill="none" stroke="#000" stroke-linejoin="round" stroke-width="2.4" d="M33.65 78.557q.84-1.421 1.596-2.842.762-1.421 1.402-2.862h3.442q-1.142 2.242-2.363 4.341-1.216 2.1-2.578 4.224v5.298h-3.12v-5.26q-1.358-2.118-2.588-4.237-1.23-2.124-2.373-4.366h3.623q.64 1.44 1.377 2.862.742 1.42 1.582 2.842Zm16.92 7.797q-.76.22-1.962.41-1.196.191-2.52.191-1.337 0-2.231-.356-.889-.362-1.411-1.011-.518-.655-.737-1.553-.22-.898-.22-1.977v-5.86h2.983v5.498q0 1.44.376 2.08.381.64 1.421.64.322 0 .679-.03.361-.029.644-.073v-8.115h2.979zm2.298-4.897q0-1.143.372-2.149.37-1.01 1.069-1.762.703-.752 1.7-1.192 1-.44 2.28-.44.84 0 1.537.152.704.152 1.363.43l-.62 2.378q-.42-.156-.923-.278-.498-.122-1.118-.122-1.319 0-1.968.82-.65.82-.65 2.163 0 1.42.61 2.202.611.776 2.13.776.542 0 1.162-.097.62-.103 1.138-.322l.42 2.44q-.518.22-1.3.377-.78.161-1.718.161-1.44 0-2.48-.43t-1.714-1.167q-.67-.742-.982-1.753-.308-1.01-.308-2.187Zm10 0q0-1.143.372-2.149.37-1.01 1.069-1.762.703-.752 1.7-1.192 1-.44 2.28-.44.84 0 1.537.152.704.152 1.363.43l-.62 2.378q-.42-.156-.923-.278-.498-.122-1.118-.122-1.319 0-1.968.82-.65.82-.65 2.163 0 1.42.61 2.202.611.776 2.13.776.542 0 1.162-.097.62-.103 1.138-.322l.42 2.44q-.518.22-1.3.377-.78.161-1.718.161-1.44 0-2.48-.43t-1.715-1.167q-.668-.742-.98-1.753-.309-1.01-.309-2.187Zm14.522 3.179q.44 0 .84-.02t.64-.058v-2.261q-.181-.04-.543-.078-.356-.044-.659-.044-.42 0-.79.053-.367.05-.65.19-.278.138-.44.377-.156.24-.156.6 0 .699.469.972.469.269 1.289.269Zm-.24-8.721q1.319 0 2.198.303.884.297 1.411.859.532.557.752 1.357.22.801.22 1.783v6.2q-.64.138-1.782.328-1.138.19-2.76.19-1.02 0-1.85-.18t-1.43-.591q-.601-.41-.923-1.07-.318-.659-.318-1.62 0-.918.371-1.558t.992-1.02 1.42-.547q.801-.171 1.66-.171.577 0 1.026.048.454.05.732.127v-.278q0-.762-.459-1.22-.459-.46-1.601-.46-.757 0-1.5.113-.741.107-1.278.307l-.381-2.397q.258-.083.65-.171.39-.093.849-.161.459-.069.966-.117.513-.054 1.036-.054Z"/><path fill="#fff" d="M33.65 78.557q.84-1.421 1.596-2.842.762-1.421 1.402-2.862h3.442q-1.142 2.242-2.363 4.341-1.216 2.1-2.578 4.224v5.298h-3.12v-5.26q-1.358-2.118-2.588-4.237-1.23-2.124-2.373-4.366h3.623q.64 1.44 1.377 2.862.742 1.42 1.582 2.842m16.92 7.797q-.76.22-1.962.41-1.196.191-2.52.191-1.337 0-2.231-.356-.889-.362-1.411-1.011-.518-.655-.737-1.553-.22-.898-.22-1.977v-5.86h2.983v5.498q0 1.44.376 2.08.381.64 1.421.64.322 0 .679-.03.361-.029.644-.073v-8.115h2.979zm2.298-4.897q0-1.143.372-2.149.37-1.01 1.069-1.762.703-.752 1.7-1.192 1-.44 2.28-.44.84 0 1.537.152.704.152 1.363.43l-.62 2.378q-.42-.156-.923-.278-.498-.122-1.118-.122-1.319 0-1.968.82-.65.82-.65 2.163 0 1.42.61 2.202.611.776 2.13.776.542 0 1.162-.097.62-.103 1.138-.322l.42 2.44q-.518.22-1.3.377-.78.161-1.718.161-1.44 0-2.48-.43t-1.714-1.167q-.67-.742-.982-1.753-.308-1.01-.308-2.187m10 0q0-1.143.372-2.149.37-1.01 1.069-1.762.703-.752 1.7-1.192 1-.44 2.28-.44.84 0 1.537.152.704.152 1.363.43l-.62 2.378q-.42-.156-.923-.278-.498-.122-1.118-.122-1.319 0-1.968.82-.65.82-.65 2.163 0 1.42.61 2.202.611.776 2.13.776.542 0 1.162-.097.62-.103 1.138-.322l.42 2.44q-.518.22-1.3.377-.78.161-1.718.161-1.44 0-2.48-.43t-1.715-1.167q-.668-.742-.98-1.753-.309-1.01-.309-2.187m14.522 3.179q.44 0 .84-.02t.64-.058v-2.261q-.181-.04-.543-.078-.356-.044-.659-.044-.42 0-.79.053-.367.05-.65.19-.278.138-.44.377-.156.24-.156.6 0 .699.469.972.469.269 1.289.269m-.24-8.721q1.319 0 2.198.303.884.297 1.411.859.532.557.752 1.357.22.801.22 1.783v6.2q-.64.138-1.782.328-1.138.19-2.76.19-1.02 0-1.85-.18t-1.43-.591q-.601-.41-.923-1.07-.318-.659-.318-1.62 0-.918.371-1.558t.992-1.02 1.42-.547q.801-.171 1.66-.171.577 0 1.026.048.454.05.732.127v-.278q0-.762-.459-1.22-.459-.46-1.601-.46-.757 0-1.5.113-.741.107-1.278.307l-.381-2.397q.258-.083.65-.171.39-.093.849-.161.459-.069.966-.117.513-.054 1.036-.054"/></svg>