<svg xmlns="http://www.w3.org/2000/svg" viewBox="0 0 110 110"><path fill="#cfcfcf" d="M71.429 47.857q0 .403-.02.806t-.06.804-.098.8-.138.795-.177.787-.215.777-.253.766-.29.752-.327.737-.362.72-.398.702-.431.681-.464.66-.497.635q-.255.312-.526.61-.271.3-.556.585t-.584.556-.61.527q-.313.255-.637.496-.323.24-.659.464-.335.224-.681.431-.346.208-.702.398-.355.19-.72.362-.364.173-.737.327t-.752.29-.766.253-.777.215-.787.177-.794.138q-.4.06-.8.099-.402.04-.805.059-.403.02-.806.02t-.806-.02-.804-.06-.8-.098-.795-.138-.787-.177-.777-.215-.766-.253-.752-.29-.737-.327-.72-.362-.702-.398-.681-.431-.66-.464q-.323-.24-.635-.496t-.61-.527q-.3-.271-.585-.556t-.556-.584-.526-.61q-.256-.312-.497-.636-.24-.324-.464-.66-.224-.335-.431-.68-.208-.347-.398-.703-.19-.355-.362-.72-.173-.364-.327-.737t-.29-.752-.253-.766-.215-.777-.177-.787q-.079-.395-.138-.794-.059-.4-.098-.8-.04-.402-.06-.805t-.02-.806.02-.806.06-.804.098-.8q.06-.4.138-.795t.177-.787q.098-.39.215-.777.117-.386.253-.766t.29-.752.327-.737.362-.72.398-.702.431-.681.464-.66.497-.635q.255-.312.526-.61.271-.3.556-.585t.584-.556.61-.526q.313-.256.637-.496.323-.24.659-.465.335-.224.681-.431t.702-.398.72-.362.737-.327.752-.29.766-.253.777-.215.787-.177.794-.138.8-.098.805-.06.806-.02.806.02.804.06.8.098q.4.06.795.138.396.079.787.177t.777.215.766.253.752.29.737.327.72.362.702.398.681.431.66.465.635.496.61.526q.3.271.585.556t.556.584q.27.3.526.61.256.313.497.637.24.324.464.659t.431.681.398.702.362.72.327.737.29.752.253.766.215.777.177.787.138.795q.059.398.098.8.04.401.06.804t.02.806"/><path fill="#fff" d="M67.143 47.857q0 .298-.015.596t-.044.594-.073.592-.101.587-.131.582-.159.574-.187.566-.214.556-.242.545-.268.532-.294.519-.319.503-.343.488-.366.47-.39.45q-.2.222-.41.432-.211.211-.432.411t-.452.39-.47.366-.487.344-.503.318q-.256.154-.519.294t-.532.268-.545.242-.556.214-.566.187-.575.159-.581.13q-.292.059-.587.103-.295.043-.592.072-.296.03-.594.044Q55.298 60 55 60t-.596-.015-.594-.044-.592-.072-.587-.102-.581-.131-.575-.159-.566-.187-.556-.214-.545-.242-.532-.268-.519-.294-.503-.318-.487-.344-.47-.366-.452-.39q-.22-.2-.431-.41-.211-.211-.411-.432t-.39-.452-.366-.47-.343-.487-.32-.503-.293-.519-.268-.532-.242-.545-.214-.556-.187-.566-.159-.574q-.072-.29-.13-.582t-.102-.587-.073-.592-.044-.594-.015-.596.015-.596q.014-.297.044-.594t.073-.592.101-.587q.059-.292.131-.581.072-.29.159-.575t.187-.566.214-.556q.115-.275.242-.545t.268-.532q.14-.263.294-.519.153-.255.319-.503.165-.248.343-.487.177-.24.366-.47.19-.23.39-.452.2-.22.41-.431.211-.211.432-.411t.452-.39.47-.366.487-.343.503-.32.519-.293.532-.268.545-.241.556-.215.566-.187.575-.159.581-.13.587-.102.592-.073.594-.044.596-.015.596.015.594.044.592.073.587.102.581.13q.29.073.575.16.285.086.566.186t.556.215.545.241.532.268.519.294.503.319.487.343q.24.177.47.367.23.189.452.389.22.2.431.41.211.212.411.432.2.221.39.452.189.23.366.47.178.239.343.487t.32.503.293.519.268.532.242.545.214.556.187.566.159.575.13.581q.059.293.102.587.044.295.073.592.03.297.044.594.015.298.015.596"/></svg>