<svg xmlns="http://www.w3.org/2000/svg" viewBox="0 0 110 110"><path fill="#111" fill-rule="evenodd" d="M47.66 65.542q.042.127.103.246.062.12.142.228t.174.202q.096.094.204.173.11.078.229.139.12.06.247.101.128.042.26.062.133.021.267.021.084 0 .168-.008t.166-.025.163-.04.159-.057.152-.072.144-.087.135-.1.125-.113.113-.124.1-.136.087-.144.071-.152q.033-.078.057-.158.025-.081.041-.164.016-.082.025-.166Q51 65.084 51 65q0-17.731-16.361-38.767-.09-.116-.2-.215-.109-.1-.233-.179-.125-.08-.261-.136t-.28-.09q-.144-.032-.291-.04-.148-.007-.294.01-.147.018-.288.06-.141.043-.273.11-.075.037-.147.082-.07.045-.137.096t-.128.11q-.061.058-.116.121-.056.064-.104.133-.049.068-.09.142-.042.073-.077.15t-.06.157-.046.162-.03.165-.012.168.004.168.02.167.036.164.053.16.067.154q10.232 20.463 15.907 37.49"/><path fill="#cf0000" d="M33.286 23.857q-.169 0-.336.016-.168.017-.333.05t-.327.082q-.16.049-.316.113-.156.065-.305.144-.148.08-.288.173t-.27.2-.25.226q-.119.12-.226.25-.106.13-.2.27t-.173.288q-.08.149-.144.305-.064.155-.113.316-.05.162-.082.327-.033.165-.05.333-.016.167-.016.336 0 .168.017.336.016.167.049.333.033.165.082.326t.113.317.144.304.173.288.2.27.226.25q.12.12.25.226t.27.2.288.173q.149.08.305.144.155.065.316.114.162.048.327.081t.333.05q.167.016.336.016.168 0 .336-.016.167-.017.333-.05.165-.033.326-.081.161-.05.317-.114.155-.064.304-.144.148-.079.288-.173t.27-.2.25-.226.226-.25.2-.27.173-.288.144-.304.114-.317q.048-.161.081-.326.033-.166.05-.333.016-.168.016-.336 0-.169-.016-.336-.017-.168-.05-.333t-.081-.327q-.05-.16-.114-.316t-.144-.305q-.079-.148-.173-.288t-.2-.27-.226-.25-.25-.226-.27-.2-.288-.173q-.149-.08-.304-.144-.156-.064-.317-.113-.161-.05-.326-.082-.166-.033-.333-.05-.168-.016-.336-.016"/><path fill="red" d="M33.286 25q-.113 0-.224.01-.112.012-.222.034t-.218.054-.211.076q-.104.043-.203.096t-.192.115-.18.134-.167.15-.15.167-.134.18-.115.192q-.053.1-.096.203t-.076.211-.054.218-.033.222q-.011.111-.011.224 0 .112.01.224.012.111.034.222.022.11.054.217.033.108.076.211.043.104.096.203t.115.192.134.18.15.167.167.15.18.134.192.115q.1.053.203.096t.211.076.218.054.222.033q.111.011.224.011.112 0 .224-.01.111-.012.222-.034.11-.021.217-.054.108-.033.211-.076.104-.043.203-.096t.192-.115.18-.134q.087-.07.167-.15t.15-.166q.072-.087.134-.18.063-.094.115-.193t.096-.203.076-.21q.033-.108.054-.218.022-.11.033-.222t.011-.224-.01-.224-.034-.222-.054-.218-.076-.211-.096-.203q-.052-.099-.115-.192-.062-.094-.133-.18-.072-.087-.151-.167-.08-.079-.166-.15-.087-.072-.18-.134-.094-.062-.193-.115t-.203-.096q-.103-.043-.21-.076-.108-.032-.218-.054t-.222-.033-.224-.011"/><path fill="#111" fill-rule="evenodd" d="M62.34 65.542q-.042.127-.103.246-.062.12-.142.228t-.174.202q-.096.094-.204.173-.11.078-.229.139-.12.06-.247.101-.128.042-.26.062-.133.021-.267.021-.084 0-.168-.008t-.166-.025-.163-.04-.159-.057-.152-.072-.144-.087-.135-.1-.125-.113-.113-.124-.1-.136-.087-.144-.071-.152q-.033-.078-.057-.158-.025-.081-.041-.164-.016-.082-.025-.166Q59 65.084 59 65q0-17.731 16.361-38.767.09-.116.2-.215.109-.1.233-.179.125-.08.261-.136t.28-.09q.144-.032.291-.04.148-.007.294.01.147.018.288.06.141.043.273.11.075.037.147.082.07.045.137.096t.128.11q.061.058.116.121.056.064.104.133.049.068.09.142.042.073.077.15t.06.157.046.162.03.165.012.168-.004.168-.02.167-.036.164-.053.16-.067.154Q68.016 48.515 62.34 65.542"/><path fill="#cf0000" d="M76.714 23.857q.169 0 .336.016.168.017.333.05t.327.082q.16.049.316.113.156.065.305.144.148.08.288.173t.27.2.25.226q.119.12.226.25.106.13.2.27t.173.288q.08.149.144.305.064.155.113.316.05.162.082.327.033.165.05.333.016.167.016.336 0 .168-.017.336-.016.167-.049.333-.033.165-.082.326t-.113.317-.144.304-.173.288-.2.27-.226.25q-.12.12-.25.226t-.27.2-.288.173q-.149.08-.305.144-.155.065-.316.114-.162.048-.327.081t-.333.05q-.167.016-.336.016-.168 0-.336-.016-.167-.017-.333-.05-.165-.033-.326-.081-.161-.05-.317-.114-.155-.064-.304-.144-.148-.079-.288-.173t-.27-.2-.25-.226-.226-.25-.2-.27-.173-.288q-.08-.149-.144-.304-.065-.156-.114-.317-.048-.161-.081-.326-.033-.166-.05-.333-.016-.168-.016-.336 0-.169.016-.336.017-.168.05-.333t.081-.327q.05-.16.114-.316t.144-.305q.079-.148.173-.288t.2-.27.226-.25.25-.226.27-.2.288-.173q.149-.08.304-.144.156-.064.317-.113.161-.05.326-.082.166-.033.333-.05.168-.016.336-.016"/><path fill="red" d="M76.714 25q.113 0 .224.01.112.012.222.034t.218.054.211.076q.104.043.203.096t.192.115.18.134.167.15.15.167.134.18.115.192q.053.1.096.203t.076.211.054.218.033.222q.011.111.011.224 0 .112-.01.224-.012.111-.034.222-.022.11-.054.217-.033.108-.076.211-.043.104-.096.203t-.115.192-.134.18-.15.167-.167.15-.18.134-.192.115q-.1.053-.203.096t-.211.076-.218.054-.222.033q-.111.011-.224.011-.112 0-.224-.01-.111-.012-.222-.034-.11-.021-.217-.054-.108-.033-.211-.076-.104-.043-.203-.096t-.192-.115-.18-.134q-.087-.07-.167-.15t-.15-.166q-.072-.087-.134-.18-.063-.094-.115-.193t-.096-.203q-.043-.103-.076-.21-.033-.108-.054-.218-.022-.11-.033-.222t-.011-.224.01-.224.034-.222.054-.218.076-.211.096-.203q.052-.099.115-.192.062-.094.133-.18.072-.087.151-.167.08-.079.166-.15.087-.072.18-.134.094-.062.193-.115t.203-.096q.103-.043.21-.076.108-.032.218-.054t.222-.033.224-.011"/></svg>