<svg xmlns="http://www.w3.org/2000/svg" viewBox="0 0 110 110"><path fill="red" fill-opacity=".298" d="m68.816 59.69 527.606 664.866q.108.136.203.282.094.146.174.3t.145.315.113.328q.048.165.08.335.033.17.049.342t.014.345q0 .172-.018.343t-.054.339q-.034.168-.085.333-.05.163-.117.32-.067.158-.149.308t-.179.29-.205.272q-.11.13-.232.249t-.256.224-.277.198-.295.17-.311.138q-.159.063-.323.109-.165.045-.334.074-.168.03-.339.042t-.343.007q-.171-.003-.342-.025-.17-.021-.339-.06-.168-.038-.332-.092t-.323-.125q-.157-.07-.308-.154-.151-.086-.293-.185-.142-.1-.274-.213t-.253-.238-.228-.26L63.385 64q-.108-.136-.203-.282-.094-.146-.174-.3t-.145-.315q-.064-.16-.113-.327-.049-.166-.081-.336t-.048-.342-.015-.344.02-.344.052-.34q.035-.167.086-.331t.117-.321q.067-.158.149-.308t.178-.29.206-.272.232-.249.256-.224q.133-.106.277-.198.143-.092.295-.17.152-.077.31-.138.16-.062.324-.108.165-.046.334-.075.168-.03.34-.042.17-.012.342-.007.171.004.342.025.17.022.339.06.168.038.332.092.164.055.322.125t.309.155.293.185.274.212.252.238.229.261"/><path fill="red" fill-opacity=".698" d="m67.005 61.127 527.607 664.866q.072.09.125.193t.086.215.043.226-.001.229-.046.224-.089.21-.128.186-.163.158q-.09.07-.19.123-.102.051-.212.082-.11.03-.224.04-.115.007-.229-.007t-.223-.05-.21-.094-.189-.132-.16-.167L65.194 62.563q-.072-.09-.126-.194-.053-.103-.086-.214-.032-.11-.043-.226-.01-.115.002-.229t.046-.224.089-.21.128-.186.162-.158q.09-.071.191-.123.102-.051.212-.082.11-.03.224-.039.114-.008.228.006t.224.05.21.094q.1.057.19.132.087.076.16.167"/><path fill="red" d="M70.854 67.836q-.13.103-.268.192-.139.09-.286.165t-.3.136q-.154.06-.313.106t-.321.075q-.163.03-.327.043-.165.014-.33.011t-.33-.022q-.163-.018-.325-.053-.161-.035-.318-.086-.158-.05-.31-.116-.15-.066-.295-.146t-.28-.174-.262-.201-.241-.226-.217-.248-.193-.268-.165-.286-.136-.3-.106-.313-.075-.321-.043-.327-.01-.33.021-.33q.019-.163.054-.325.035-.161.085-.318.05-.158.117-.31.065-.15.145-.295t.175-.28q.094-.136.2-.262t.226-.24.248-.219.268-.192q.14-.09.286-.165.147-.075.3-.136.154-.06.313-.106.159-.045.322-.075.162-.03.327-.043.164-.013.33-.01.165.002.329.021t.325.054.319.085.309.116.296.146.28.175.262.2.24.226.218.248.192.268.165.286.136.3q.06.154.106.313t.075.322.043.327.011.33-.022.329q-.018.164-.053.325-.035.162-.086.319t-.116.309q-.066.151-.146.296-.08.144-.174.28t-.201.262-.226.24-.248.218"/><path fill="#646464" d="m37.32 33.62 7.832-6.216q.165-.13.342-.245t.365-.21.383-.174q.196-.077.398-.135t.41-.096.417-.054.42-.014.42.027.414.069q.206.044.407.109.2.064.393.148.194.084.378.186t.357.222.333.256.307.288.278.316l22.2 27.976q.13.165.245.342t.21.364.174.383q.077.196.135.398.058.203.095.41.038.207.055.417t.014.42-.028.42-.068.415-.109.406-.148.394-.186.377-.222.357-.256.334-.288.307-.316.277l-7.833 6.216q-.165.131-.342.245t-.365.21-.383.174-.398.135-.41.096-.417.055-.42.013-.42-.027-.414-.069-.407-.109-.393-.148q-.194-.084-.378-.186t-.357-.222-.333-.256-.307-.288q-.147-.15-.278-.316l-22.2-27.976q-.13-.165-.245-.342t-.21-.364-.174-.383q-.077-.196-.135-.398-.058-.203-.095-.41-.038-.207-.055-.417t-.014-.42.028-.42.068-.415.109-.406.148-.394.186-.377.222-.357.256-.334.288-.307.316-.277m9.803 3.162-1.119.888 16.873 21.262 1.119-.888z"/><path fill="#7c7c7c" d="m47.816 30.761 22.2 27.976-7.832 6.216-22.2-27.976z"/></svg>