<svg xmlns="http://www.w3.org/2000/svg" viewBox="0 0 110 110"><path fill-opacity=".2" d="M76.429 47.857q0 .526-.026 1.052-.026.525-.078 1.048-.051.524-.128 1.044t-.18 1.037-.23 1.026-.281 1.013-.33 1-.379.98-.426.962-.473.94q-.248.463-.518.915-.27.45-.563.888t-.605.86q-.314.423-.647.83-.334.406-.687.796t-.726.761-.761.726-.797.687-.829.647q-.423.313-.86.605-.437.293-.888.563-.452.27-.916.518t-.94.473-.96.427q-.487.2-.982.378-.495.177-.999.33-.503.153-1.013.28t-1.026.231-1.037.18-1.044.128-1.049.078-1.051.026-1.051-.026-1.05-.078-1.043-.128-1.037-.18-1.026-.23-1.013-.281-1-.33q-.494-.177-.98-.378-.486-.202-.962-.427-.475-.225-.94-.473-.463-.248-.915-.518-.45-.27-.888-.563-.437-.292-.86-.605-.423-.314-.83-.647-.406-.334-.796-.687t-.761-.726-.726-.761-.687-.797-.647-.829q-.313-.422-.605-.86-.292-.437-.563-.888-.27-.452-.518-.916-.248-.463-.473-.939t-.426-.962-.379-.98-.33-1-.28-1.013q-.128-.51-.23-1.026T33.803 51t-.13-1.044-.077-1.048-.026-1.052.026-1.051.078-1.05.128-1.043q.078-.52.18-1.036.103-.516.23-1.027.128-.51.281-1.013.153-.504.33-.999t.379-.981q.2-.486.426-.962.225-.475.473-.94.248-.463.518-.914.27-.452.563-.889t.605-.86q.314-.422.647-.829.334-.407.687-.796t.726-.762.761-.725q.39-.354.797-.687.406-.334.829-.647.423-.314.86-.606t.888-.563.916-.518.94-.473.96-.426q.487-.202.982-.379t.999-.33q.503-.152 1.013-.28t1.026-.23q.516-.103 1.037-.18.52-.078 1.044-.13.523-.05 1.049-.077.525-.025 1.051-.025t1.051.025q.526.026 1.05.078.523.051 1.043.128t1.037.18 1.026.23 1.013.281 1 .33q.494.177.98.379.486.2.962.426.475.225.94.473.463.248.915.518.45.27.888.563.437.292.86.606.423.313.83.647.406.333.796.687.39.353.761.725.372.372.726.762.353.39.687.796.333.407.647.83.313.422.605.859t.563.889.518.915.473.94.426.96.379.982.33.999q.153.503.28 1.013t.23 1.027.18 1.036q.078.52.13 1.044.05.523.077 1.049t.026 1.051"/><path fill="#e5daa1" d="m75.548 55.945-34.37 9.096c2.171 1.765 4.654 3.136 7.32 3.973l22.388-5.923a22.7 22.7 0 0 0 4.662-7.146M45.694 27.808c-3.06 1.462-5.782 3.636-7.923 6.276l35.86 2q-.694-1.078-1.503-2.073-.81-.995-1.725-1.893-.914-.899-1.924-1.69t-2.1-1.465z"/><path fill="#b7ae81" d="m75.64 56.29-34.37 9.097-.092-.346.225-.277q3.305 2.686 7.201 3.91l-.107.34-.091-.345 22.39-5.924.09.346-.257-.248q3.002-3.127 4.588-7.032l.33.134zm-.183-.69q.115-.03.225.014.033.013.062.033.03.019.055.044t.044.054.034.061.02.067.008.07-.006.07-.02.066q-1.638 4.033-4.735 7.259-.07.072-.166.098l-22.39 5.924q-.1.026-.198-.005-4.026-1.265-7.437-4.036-.09-.074-.12-.186-.01-.034-.012-.07-.002-.034.003-.07.005-.034.016-.067.011-.034.03-.064.017-.03.04-.057.023-.026.051-.048.028-.02.06-.036t.066-.025zM45.848 28.13q-4.553 2.176-7.8 6.18l-.277-.226.02-.356 35.86 2-.02.356-.3.194q-2.776-4.315-7.14-7.011l.188-.304-.02.356-20.685-1.155.02-.356zm-.308-.644q.083-.04.174-.035L66.4 28.606q.09.005.168.053 4.501 2.782 7.364 7.232.063.098.056.213-.002.035-.01.07-.01.033-.024.065-.016.032-.037.06t-.047.052-.057.04q-.03.019-.063.03-.033.012-.068.017t-.07.003l-35.86-2q-.115-.007-.204-.08-.028-.021-.05-.048-.023-.028-.04-.058-.016-.031-.027-.065t-.014-.069 0-.07.013-.068.026-.065.039-.059q3.347-4.128 8.046-6.373"/><path fill="#e5daa1" d="M36.274 59.557q1.092 1.7 2.46 3.187 1.369 1.487 2.973 2.716l25.332.86q1.673-1.12 3.13-2.511t2.652-3.011zM77.04 49.191l-44.08.877q.216 2.37.976 4.624l42.336-.84q.661-2.285.768-4.66M64.893 28.13l-25.559 4.21q-1.416 1.423-2.562 3.072-1.146 1.648-1.987 3.47l36.367-5.993q-1.346-1.453-2.923-2.652t-3.336-2.108"/><path fill="#b7ae81" d="M36.575 59.364q2.166 3.374 5.35 5.813l-.218.283.012-.357 25.332.86-.012.356-.199-.296q3.32-2.223 5.694-5.437l.287.212-.012.357-36.547-1.24.012-.358zm-.601.386q-.06-.094-.057-.205.002-.035.01-.07.008-.034.022-.066.015-.032.035-.06.02-.029.046-.053t.056-.042.063-.031.068-.018.07-.005l36.547 1.241q.11.004.2.07.028.02.052.046t.041.057q.019.03.03.063.012.033.018.068t.003.07-.01.069-.023.066-.036.06q-2.448 3.315-5.872 5.606-.095.064-.21.06l-25.332-.859q-.114-.004-.205-.073-3.282-2.515-5.516-5.994m41.073-10.2-44.08.876-.007-.357.356-.033q.212 2.328.959 4.543l-.339.114-.007-.357 42.336-.84.007.356-.343-.099q.65-2.243.754-4.577l.357.016zm-.014-.715h.023q.035.002.07.01.033.009.065.024t.06.036.053.046.042.057.03.063.017.068q.005.034.004.07-.109 2.418-.782 4.743-.016.055-.048.102t-.077.082-.1.053q-.054.02-.11.02l-42.336.841q-.057.001-.112-.015-.054-.017-.101-.05-.047-.032-.08-.078-.035-.046-.053-.1-.774-2.294-.994-4.706l-.001-.025q0-.035.005-.07.007-.034.02-.067.012-.033.031-.063.02-.03.044-.055t.053-.045.06-.034q.033-.014.067-.022.035-.007.07-.008zM64.951 28.481l-25.559 4.211-.058-.352.254.252q-2.81 2.824-4.479 6.44l-.324-.15-.058-.351 36.367-5.995.058.353-.262.242q-2.67-2.881-6.161-4.685l.164-.317zm-.116-.705q.117-.02.222.035 3.601 1.862 6.357 4.835.073.079.09.185.006.034.005.07-.001.035-.009.069t-.023.066-.035.06q-.02.03-.046.053-.025.024-.055.043t-.063.03-.068.019l-36.367 5.994q-.108.018-.208-.028-.032-.015-.06-.035t-.052-.047-.043-.056-.03-.063-.018-.067-.004-.07.01-.07.023-.066q1.722-3.731 4.62-6.645.081-.082.195-.1z"/></svg>