<svg xmlns="http://www.w3.org/2000/svg" viewBox="0 0 110 110"><path fill-opacity=".2" d="M76.429 47.857q0 .526-.026 1.052-.026.525-.078 1.048-.051.524-.128 1.044t-.18 1.037-.23 1.026-.281 1.013-.33 1-.379.98-.426.962-.473.94q-.248.463-.518.915-.27.45-.563.888t-.605.86q-.314.423-.647.83-.334.406-.687.796t-.726.761-.761.726-.797.687-.829.647q-.423.313-.86.605-.437.293-.888.563-.452.27-.916.518t-.94.473-.96.427q-.487.2-.982.378-.495.177-.999.33-.503.153-1.013.28t-1.026.231-1.037.18-1.044.128-1.049.078-1.051.026-1.051-.026-1.05-.078-1.043-.128-1.037-.18-1.026-.23-1.013-.281-1-.33q-.494-.177-.98-.378-.486-.202-.962-.427-.475-.225-.94-.473-.463-.248-.915-.518-.45-.27-.888-.563-.437-.292-.86-.605-.423-.314-.83-.647-.406-.334-.796-.687t-.761-.726-.726-.761-.687-.797-.647-.829q-.313-.422-.605-.86-.292-.437-.563-.888-.27-.452-.518-.916-.248-.463-.473-.939t-.426-.962-.379-.98-.33-1-.28-1.013q-.128-.51-.23-1.026T33.803 51t-.13-1.044-.077-1.048-.026-1.052.026-1.051.078-1.05.128-1.043q.078-.52.18-1.036.103-.516.23-1.027.128-.51.281-1.013.153-.504.33-.999t.379-.981q.2-.486.426-.962.225-.475.473-.94.248-.463.518-.914.27-.452.563-.889t.605-.86q.314-.422.647-.829.334-.407.687-.796t.726-.762.761-.725q.39-.354.797-.687.406-.334.829-.647.423-.314.86-.606t.888-.563.916-.518.94-.473.96-.426q.487-.202.982-.379t.999-.33q.503-.152 1.013-.28t1.026-.23q.516-.103 1.037-.18.52-.078 1.044-.13.523-.05 1.049-.077.525-.025 1.051-.025t1.051.025q.526.026 1.05.078.523.051 1.043.128t1.037.18 1.026.23 1.013.281 1 .33q.494.177.98.379.486.2.962.426.475.225.94.473.463.248.915.518.45.27.888.563.437.292.86.606.423.313.83.647.406.333.796.687.39.353.761.725.372.372.726.762.353.39.687.796.333.407.647.83.313.422.605.859t.563.889.518.915.473.94.426.96.379.982.33.999q.153.503.28 1.013t.23 1.027.18 1.036q.078.52.13 1.044.05.523.077 1.049t.026 1.051"/><path fill="#2f39b1" d="M70.366 34.697v28.756l4.757-.515c1.788-.329 2.541-1.706 2.583-3.227l.315-11.609c.037-1.35.336-2.703 1.22-3.42.884-.716 1.968-1.032 1.794-2.173-.607-3.983-1.95-14.2-4.736-17.36-2.786-3.158-15.085-8.945-21.299-8.945s-18.513 5.787-21.299 8.945c-2.785 3.16-4.129 13.377-4.735 17.36-.175 1.141.909 1.457 1.793 2.173.885.717 1.183 2.07 1.22 3.42l.315 11.609c.042 1.521.795 2.899 2.584 3.227l4.757.514V34.698C43.421 32.55 50.201 30.4 55 30.4c4.8 0 11.578 2.15 15.366 4.297"/><path fill="#ffdc06" d="M57.909 16.525c1.457.276 3.051.721 4.685 1.278l-2.297 13.242c-1.512-.326-3.002-.549-4.368-.62zm9.66 3.256q2.227 1.002 4.352 2.207l-4.765 11.18q-1.987-.809-4.047-1.41zm2.797 13.523h9.068c.325 1.454.594 2.907.828 4.285h-9.896zm10.545 8.392.124.813c.174 1.14-.91 1.457-1.794 2.173-.398.322-.672.779-.862 1.3h-8.013v-4.286zm-2.943 8.393-.118 4.286h-7.484v-4.286zm-.23 8.393-.033 1.229c-.041 1.521-.794 2.9-2.582 3.227l-4.757.515v-4.97zM52.092 16.525c-1.457.276-3.051.721-4.685 1.278l2.297 13.242c1.512-.326 3.002-.549 4.368-.62zm-9.66 3.256q-2.227 1.002-4.352 2.207l4.765 11.18q1.987-.809 4.047-1.41zm-2.797 13.523h-9.068a84 84 0 0 0-.828 4.285h9.896zM29.09 41.696l-.124.813c-.174 1.14.91 1.457 1.794 2.173.398.322.672.779.862 1.3h8.013v-4.286zm2.943 8.393.118 4.286h7.484v-4.286zm.23 8.393.033 1.229c.041 1.521.794 2.9 2.582 3.227l4.757.515v-4.97z"/><path fill="#262e8e" d="m72.668 31.087 2.986-6.246q.03-.063.073-.12t.094-.103.113-.083.127-.06.136-.033.14-.006.138.021q.068.018.132.048.063.03.12.072.056.043.103.095t.083.113q.036.06.06.127.023.066.033.136t.006.14-.021.138q-.018.068-.048.131l-2.986 6.246q-.03.064-.073.12t-.094.103-.113.083-.127.06-.136.033-.14.006-.138-.02-.132-.049-.12-.072-.103-.095-.083-.112q-.036-.06-.06-.127-.023-.067-.033-.136-.01-.07-.006-.14t.021-.138.048-.132m-36.625.616-2.986-6.246q-.03-.063-.048-.131-.017-.068-.02-.139-.005-.07.005-.14t.034-.135.06-.127q.035-.06.082-.113.047-.052.104-.095.056-.042.12-.072.063-.03.13-.048.07-.017.14-.021t.14.006.135.034q.067.023.127.06.06.035.113.082.052.047.094.103.043.057.073.12l2.986 6.246q.03.063.048.132.017.068.021.138t-.006.14-.034.136-.059.127-.083.112-.103.095-.12.072-.132.048-.138.021-.14-.006-.136-.033-.127-.06-.113-.083-.094-.103-.073-.12"/><path fill="#262e8e" d="M71.08 44.425v19.028h-.714l-.077-.71 4.757-.515.077.71-.13-.703q1.94-.356 1.999-2.544l.315-11.608q.076-2.814 1.484-3.956.241-.195.713-.508.888-.59.825-1.002l-.143-.952q-1.976-13.27-4.422-16.043-2.128-2.411-9.116-5.476Q59.286 16.918 55 16.918t-11.648 3.228q-6.988 3.065-9.115 5.476-2.448 2.776-4.424 16.053l-.141.942q-.063.413.824 1.002.471.313.712.508 1.409 1.14 1.485 3.956l.315 11.608q.06 2.189 1.999 2.544l-.13.703.078-.71 4.757.514-.077.71h-.714V44.426q0-.07.013-.14.014-.069.041-.134t.066-.123.089-.108.108-.09q.059-.038.124-.065t.134-.04q.069-.015.139-.015t.14.014q.068.014.133.04.065.028.124.067t.108.089.089.108.066.123q.027.065.04.134.014.07.014.14v19.026q0 .039-.004.077-.007.07-.028.137t-.055.129-.08.116q-.044.053-.1.098-.054.044-.116.076-.063.033-.13.053-.068.02-.138.026t-.14-.002l-4.757-.514-.052-.008q-3.078-.564-3.169-3.91l-.315-11.609q-.059-2.157-.956-2.884-.188-.152-.604-.428-1.646-1.093-1.445-2.407l.14-.938q2.039-13.694 4.766-16.787 2.335-2.648 9.612-5.84Q50.414 15.49 55 15.49t12.222 3.349q7.277 3.19 9.613 5.839 2.725 3.09 4.764 16.777l.142.948q.2 1.314-1.447 2.407-.416.276-.603.428-.897.727-.956 2.885L78.42 59.73q-.091 3.345-3.168 3.91l-.052.008-4.757.515q-.039.004-.077.004-.07 0-.14-.014-.069-.013-.134-.04t-.123-.066q-.059-.04-.108-.089-.05-.05-.09-.108-.038-.059-.065-.124t-.04-.134q-.015-.069-.015-.14V44.426q0-.07.014-.14.014-.068.04-.133.028-.065.067-.124t.089-.108.108-.089.123-.066q.065-.027.134-.04.07-.014.14-.014t.14.013q.068.014.133.041t.124.066.108.089.089.108.066.124.04.134.014.139"/><path fill="#ffdc06" d="M73.312 31.395v10.07l-2.946 2.96v-9.729C66.578 32.55 59.799 30.4 55 30.4s-11.578 2.15-15.366 4.297v9.729l-2.946-2.962V31.395c2.957-2.14 12.575-6.121 18.312-6.121s15.355 3.981 18.312 6.121"/><path fill="#ccb005" d="M74.026 31.395v10.07q0 .14-.054.272-.054.13-.154.231l-2.946 2.96q-.05.05-.108.09t-.123.066-.134.041-.14.014-.139-.013q-.069-.014-.134-.04t-.124-.066-.108-.089q-.101-.1-.156-.232-.055-.131-.055-.274v-9.729h.715l-.352.622Q62.595 31.114 55 31.114q-7.597 0-15.013 4.205l-.353-.622h.715v9.729q0 .07-.014.14-.014.068-.04.133-.028.065-.067.124t-.089.108-.108.089-.123.066q-.065.027-.134.04-.07.014-.14.014-.142 0-.274-.055-.131-.054-.232-.155l-2.946-2.962q-.1-.1-.154-.231t-.054-.273V31.395q0-.085.02-.167t.058-.158.093-.14.124-.114q2.646-1.915 8.29-3.956 6.36-2.3 10.441-2.3 4.08 0 10.442 2.3 5.643 2.041 8.289 3.956.069.05.124.114.055.065.093.14.039.076.059.158t.02.167m-1.428 0h.714l-.419.579q-2.483-1.798-7.937-3.77Q58.83 25.988 55 25.988t-9.956 2.216q-5.454 1.972-7.937 3.77l-.42-.579h.715v10.07h-.714l.506-.504 2.947 2.96-.507.505h-.714v-9.729q0-.095.025-.186.024-.092.072-.173.048-.082.115-.149.068-.066.15-.113 7.745-4.39 15.718-4.39t15.718 4.389q.082.047.15.113.067.067.115.149t.072.173.025.186v9.729h-.714l-.507-.504 2.947-2.96.506.503h-.714z"/><path fill="#ffdc06" d="M49.714 24.983c.09 1.156 1.73 3.062 2.429 3.721.7.658 2.05 1.696 2.857 1.696.806 0 2.157-1.038 2.857-1.696.7-.659 2.34-2.565 2.43-3.721s-1.406-4.55-5.287-4.55c-3.88 0-5.376 3.393-5.286 4.55"/><path fill="#ccb005" d="M50.426 24.927q.099 1.27 2.207 3.258 1.597 1.5 2.367 1.5t2.368-1.502q2.107-1.982 2.206-3.256.074-.948-.985-2.188-1.358-1.591-3.589-1.591t-3.589 1.59q-1.06 1.24-.985 2.19l-.712.056h-.715v-.001q0-.07.014-.14.014-.068.04-.133.028-.065.067-.124t.089-.108.108-.09q.058-.038.123-.065t.134-.04q.07-.014.14-.014.066 0 .132.012t.128.037.119.06.106.08.089.1.068.114q.03.06.047.124.018.065.023.131M49 25.038l.713-.055h.714q0 .067-.013.133t-.036.128-.06.119-.081.106-.1.089-.113.069-.125.046-.131.023q-.07.005-.14-.003t-.137-.03-.128-.057-.115-.08q-.053-.045-.097-.1-.043-.056-.075-.119-.032-.062-.051-.13-.02-.068-.025-.138-.12-1.538 1.324-3.228Q52.11 19.719 55 19.719t4.675 2.092q1.443 1.69 1.324 3.227-.142 1.824-2.652 4.186-2.01 1.89-3.347 1.89-1.336 0-3.347-1.89-2.51-2.366-2.652-4.186"/><path fill="#ccb005" d="M51.346 22.907q0-1.237.909-2.15 1.03-1.038 2.745-1.038 1.714 0 2.745 1.037.909.914.909 2.15 0 1.152-1.183 2.276-1.193 1.134-2.471 1.134t-2.471-1.134q-1.183-1.124-1.183-2.276h.715l.714.003q0 .071-.014.14t-.041.134q-.028.065-.067.123-.04.059-.09.108-.049.05-.108.089t-.123.065q-.066.027-.135.04t-.139.013-.139-.014-.133-.04q-.065-.028-.123-.067-.059-.039-.108-.089-.05-.05-.089-.108t-.065-.123-.04-.134-.015-.139m1.429 0h-.714l-.715-.003q0-.07.015-.14.014-.068.04-.133.028-.065.067-.123t.089-.108.108-.088.123-.066.134-.04.139-.014q.07 0 .14.014.068.014.133.04t.124.067.108.088.089.109.066.123.04.134q.014.07.014.14 0 .538.738 1.24.78.74 1.487.74t1.487-.74q.738-.702.738-1.24 0-.648-.493-1.144-.612-.615-1.732-.615-2.225 0-2.225 1.76"/><path fill="#ccb005" d="M53.383 24.262q.467 5.424 1.617 5.424t1.617-5.424q.006-.07.026-.138t.052-.13.076-.117.098-.1.115-.08.129-.055.137-.03.14 0q.07.005.138.025.067.02.13.052.062.032.117.076t.1.098.08.115q.033.062.055.13.02.066.029.136.007.07.001.14-.579 6.73-3.04 6.73t-3.04-6.73q-.006-.07.002-.14.007-.07.029-.137.02-.067.055-.129.034-.061.079-.115t.1-.098.118-.076.13-.052.137-.026.14.002.137.029.129.055.115.08.098.1.077.117.051.13.026.138"/></svg>