<svg xmlns="http://www.w3.org/2000/svg" viewBox="0 0 110 110"><path fill="#fff" d="M62.719 59.878 40.73 48.531l20.821-13.369z"/><path fill="#cfcfcf" d="M61.736 61.782 39.748 50.435q-.094-.048-.182-.105-.089-.057-.171-.123t-.158-.139-.143-.154-.128-.167-.11-.179q-.052-.092-.093-.188-.042-.097-.074-.197t-.054-.203-.034-.208-.013-.21.007-.21.028-.208.048-.205.068-.2q.039-.097.087-.19.263-.51.746-.821l20.821-13.37q.089-.056.183-.104.093-.048.191-.086.098-.039.2-.067.101-.03.205-.048t.208-.027.21-.006.21.014.208.034q.102.023.203.055.1.033.196.075.097.042.189.093t.178.111.167.129.153.144.138.158.122.171q.31.483.338 1.057l1.167 24.716q.005.105 0 .21-.006.105-.021.21-.016.104-.042.206t-.061.2q-.036.1-.081.195t-.1.185-.117.175-.133.162-.15.149q-.077.07-.162.133-.085.062-.175.116t-.186.099-.194.08q-.1.035-.202.06-.102.026-.206.041t-.21.02q-.573.028-1.083-.236m1.965-3.808-.982 1.904-2.14.101-1.168-24.716 2.14-.1 1.158 1.802-20.821 13.37-1.158-1.804.983-1.904z"/></svg>