<svg xmlns="http://www.w3.org/2000/svg" viewBox="0 0 110 110"><path fill="#f33" d="M55.657 29.806c-2.49 14.469-9.899 17.384-9.899 27.528 0 5.09 5.032 8.831 9.899 8.831 4.976 0 9.704-3.499 9.704-8.331 0-9.738-7.132-13.587-9.704-28.028"/><path fill="#cf2929" d="M57.306 30.09q-.857 4.98-2.7 9.337-1.081 2.554-3.368 6.577-2.026 3.564-2.716 5.373-1.09 2.857-1.09 5.957 0 2.915 2.529 5.044 1.185.998 2.68 1.554 1.502.56 3.016.56 1.566 0 3.058-.528 1.463-.516 2.599-1.447 2.373-1.946 2.373-4.683 0-2.988-1.063-5.91-.675-1.855-2.658-5.61-2.216-4.196-3.273-6.811-1.805-4.466-2.685-9.404l1.649-.293-.038 1.673.038-1.673zm-3.3-.568.015-.073.017-.073.021-.071q.011-.036.024-.07l.027-.07q.014-.035.03-.068l.033-.067q.017-.033.036-.065l.039-.064.041-.061.045-.06q.022-.03.047-.058l.049-.056q.025-.027.052-.053t.054-.051l.056-.049.059-.046.06-.043q.031-.021.063-.04l.064-.039.066-.035.067-.032.068-.029.07-.025q.035-.013.071-.023l.072-.02q.036-.009.073-.016.036-.008.073-.013l.074-.01.074-.007.074-.003h.075q.036 0 .071.003l.072.006q.036.004.071.01.036.005.07.012l.07.015.07.019.069.021q.034.011.067.024l.067.027.065.03.064.033.062.035.061.038.06.04.057.044q.028.022.055.046l.054.047.051.05.05.053.046.054.045.056.042.058.04.06.036.062q.018.031.034.063l.032.064.029.066.026.067.023.068.02.069.017.07.014.07q.818 4.594 2.492 8.736.993 2.457 3.13 6.502 2.09 3.958 2.844 6.03 1.264 3.476 1.264 7.054 0 2.168-1.003 4.11-.93 1.797-2.596 3.162-1.59 1.304-3.606 2.016-2.033.717-4.173.717-2.117 0-4.184-.769-2.04-.759-3.669-2.131-1.711-1.441-2.673-3.313-1.047-2.039-1.047-4.292 0-3.716 1.31-7.15.526-1.38 1.36-2.986.493-.95 1.573-2.849 2.19-3.853 3.195-6.227 1.693-4 2.485-8.6"/></svg>