<svg xmlns="http://www.w3.org/2000/svg" viewBox="0 0 110 110"><path fill="#38c75f" d="M76.429 47.857q-6.797 6.061-6.277 15.152-9.091-.52-15.152 6.277-6.06-6.797-15.152-6.277.52-9.091-6.277-15.152 6.797-6.06 6.277-15.152 9.091.52 15.152-6.276 6.06 6.796 15.152 6.276-.52 9.091 6.277 15.152"/><path fill="#2da14d" d="M77.855 49.456q-6.024 5.373-5.563 13.431.006.105.001.21-.004.106-.019.21t-.039.206-.06.202q-.034.1-.078.195-.045.096-.098.186t-.115.176-.132.164-.148.15q-.077.07-.161.134t-.174.119-.185.1-.194.082-.2.063q-.102.026-.206.042t-.21.023q-.122.007-.244 0-8.058-.461-13.43 5.563-.07.079-.148.15t-.162.135-.174.118-.184.1-.194.082q-.099.037-.2.063-.103.026-.207.043t-.209.022q-.105.006-.21.002-.105-.005-.21-.02-.104-.014-.206-.039-.102-.024-.202-.06-.1-.034-.195-.078t-.186-.097q-.09-.054-.176-.116t-.163-.132q-.092-.082-.173-.173-5.373-6.024-13.431-5.563-.105.006-.21.001-.105-.004-.21-.018-.104-.015-.206-.04-.103-.025-.202-.06t-.195-.078q-.095-.044-.186-.098-.09-.053-.176-.115t-.164-.132-.15-.148q-.07-.077-.134-.161t-.118-.174-.101-.185-.082-.193q-.036-.1-.063-.201-.026-.102-.042-.206t-.023-.21q-.007-.122 0-.244.461-8.058-5.563-13.43-.078-.07-.15-.148-.071-.078-.134-.162t-.119-.174-.1-.184-.082-.194q-.037-.099-.063-.2t-.043-.206-.022-.21-.002-.21q.005-.105.02-.21.014-.104.039-.206.024-.102.06-.202.034-.099.078-.194.044-.096.098-.187.053-.09.115-.176t.132-.163q.082-.092.173-.173 6.024-5.372 5.563-13.43-.006-.106-.001-.211.004-.105.019-.21.014-.104.039-.206t.06-.202.078-.195.098-.186.115-.176.132-.163.148-.15.161-.135.174-.118.185-.1q.095-.047.194-.083.098-.036.2-.063.102-.026.206-.042t.21-.023q.122-.007.244 0 8.058.461 13.43-5.563.07-.078.148-.15.078-.07.162-.134t.174-.118q.09-.055.184-.101.095-.046.194-.082t.2-.063.207-.042q.104-.017.209-.023t.21-.001.21.018.206.04.202.06.195.078.186.098.176.115.163.132q.092.082.173.173 5.373 6.024 13.431 5.563.105-.006.21-.001.105.004.21.019.104.014.206.04.103.024.202.059t.195.078q.095.045.186.098.09.053.176.115t.164.133.15.147q.07.078.134.162t.118.173q.055.09.101.185t.082.194.063.2.042.206.023.21q.007.122 0 .244-.461 8.059 5.563 13.43.078.07.15.148.071.078.134.162t.119.174.1.184.082.194q.037.099.063.2.026.103.043.207t.022.209q.006.105.002.21-.005.105-.02.21-.014.104-.039.206-.024.102-.06.202-.034.1-.078.195t-.098.186q-.053.09-.115.176t-.132.163q-.082.092-.173.173m-2.853-3.198 1.427 1.6-1.427 1.598q-7.568-6.75-6.99-16.874l2.14.123.123 2.14q-10.125.578-16.874-6.99L55 26.429l1.6 1.426q-6.75 7.568-16.875 6.99l.123-2.14 2.14-.122q.578 10.124-6.99 16.873l-1.427-1.599 1.427-1.6q7.568 6.75 6.99 16.875l-2.14-.123-.123-2.139q10.125-.579 16.874 6.99L55 69.285l-1.6-1.427q6.75-7.568 16.875-6.989l-.123 2.14-2.14.122q-.578-10.125 6.99-16.874"/><path fill="#74d68f" d="M66.429 47.857q0 .28-.014.56-.014.281-.041.56-.028.28-.07.557-.04.278-.095.553t-.123.547-.15.54q-.081.27-.176.533-.094.264-.201.524-.108.259-.228.512-.12.254-.252.501-.132.248-.276.489-.145.24-.3.473-.156.234-.323.46-.168.224-.346.441t-.366.425-.387.406-.406.387-.425.366-.442.346-.459.323-.474.3-.488.276-.5.252-.513.228-.524.202-.532.176-.541.15q-.272.067-.547.122-.276.055-.553.096-.278.041-.557.069-.279.027-.56.04-.28.015-.56.015t-.56-.014-.56-.041q-.28-.028-.557-.069t-.553-.096-.547-.123-.54-.15q-.269-.08-.533-.175t-.524-.202-.512-.228q-.254-.12-.501-.252-.248-.132-.488-.276-.241-.145-.474-.3-.234-.156-.459-.323-.225-.168-.442-.346t-.425-.366-.406-.387-.387-.406-.366-.425-.346-.442-.323-.459q-.155-.233-.3-.473-.144-.241-.276-.489-.132-.247-.252-.5-.12-.254-.228-.513-.107-.26-.201-.524t-.176-.532-.15-.541-.123-.547-.096-.553q-.041-.278-.069-.557-.027-.279-.04-.56-.015-.28-.015-.56t.014-.56.041-.56.07-.557q.04-.277.095-.552.055-.276.123-.548t.15-.54.176-.533.201-.523.228-.513q.12-.254.252-.501.132-.248.276-.488.145-.241.3-.474.156-.234.323-.459.168-.225.346-.442t.366-.425.387-.406.406-.387.425-.366.442-.345.459-.323q.233-.156.474-.3.24-.145.488-.277.247-.132.5-.252.254-.12.513-.228.26-.107.524-.201t.532-.176.541-.15.547-.123.553-.096.557-.068.56-.042.56-.013q.28 0 .56.013.281.014.56.042.28.027.557.068t.553.096.547.123.54.15.533.176.524.201.512.228q.254.12.501.252.248.132.488.276.241.145.474.3.234.156.459.324.225.167.442.345t.425.366.406.387.387.406.366.425.346.442.323.459q.155.233.3.474.144.24.276.488.132.247.252.5.12.254.228.514.107.259.201.523t.176.533.15.54.123.548.096.552.069.557q.027.28.04.56.015.28.015.56"/></svg>