<svg xmlns="http://www.w3.org/2000/svg" viewBox="0 0 110 110"><path fill="#b88270" d="m71.409 38.893 2.725 15.01-9.16 12.213-16.349-.279-9.126-9.512-2.628-14.123 9.517-10.11 12.147-2.871z"/><path fill="#95695b" d="m73.377 38.536 2.725 15.01q.156.858-.368 1.556l-9.16 12.214q-.612.817-1.633.8l-16.35-.279q-.832-.014-1.409-.615l-9.126-9.512q-.414-.431-.523-1.019l-2.628-14.123q-.186-.998.51-1.737l9.517-10.109q.411-.437.996-.575l12.147-2.873q.912-.215 1.661.348l12.874 9.672q.627.47.767 1.242m-3.936.714 1.968-.357-1.201 1.599-12.874-9.672 1.201-1.6.46 1.947-12.147 2.872-.46-1.946 1.456 1.37-9.517 10.11-1.456-1.37 1.966-.367 2.629 14.123-1.967.366 1.444-1.385 9.126 9.513-1.444 1.384.034-2 16.35.28-.034 1.999-1.6-1.2 9.16-12.213 1.6 1.2-1.968.357z"/></svg>