<svg xmlns="http://www.w3.org/2000/svg" viewBox="0 0 110 110"><path fill="#f5c842" d="M47.281 59.878c-14.425-9.262 1.012-33.304 15.438-24.042S61.707 69.14 47.28 59.878"/><path fill="#c6a235" d="M46.124 61.681q-5.976-3.837-6.676-10.547-.612-5.865 2.93-11.381t9.13-7.4q6.393-2.157 12.368 1.68t6.676 10.547q.612 5.866-2.93 11.382t-9.13 7.4q-6.393 2.156-12.368-1.68m2.315-3.606q4.242 2.724 8.684 1.226 4.163-1.404 6.893-5.655t2.273-8.62q-.486-4.663-4.728-7.387t-8.684-1.226q-4.163 1.404-6.893 5.655t-2.273 8.621q.486 4.662 4.728 7.386"/></svg>