<svg xmlns="http://www.w3.org/2000/svg" viewBox="0 0 110 110"><path fill="#6e6e6e" d="m45.225 67.046-3.86 6.01q-.056.09-.121.172-.066.083-.139.158-.073.076-.153.144-.08.069-.166.129t-.179.111-.188.094-.197.074q-.1.032-.203.055-.103.022-.207.034-.105.013-.21.015-.105.001-.21-.007t-.209-.027-.205-.047-.199-.067-.192-.087-.182-.105-.171-.122-.159-.138-.144-.153-.128-.167-.111-.178-.094-.189-.074-.197-.055-.203-.035-.207-.014-.21.007-.21.027-.209.047-.204q.029-.102.067-.2t.087-.191.105-.183l3.859-6.01q.057-.089.122-.171t.138-.159q.074-.075.154-.144t.166-.128.179-.111.188-.094.197-.074.203-.055q.103-.023.207-.035.105-.012.21-.014t.21.007.209.027.205.047.199.067.192.087q.093.048.182.104.088.057.171.123.083.065.158.138.076.073.144.153.069.08.129.167.06.086.111.178t.094.189.074.196.055.203.034.208q.013.104.015.21.002.105-.007.21-.008.105-.027.208-.019.104-.047.205-.029.101-.068.2-.038.097-.086.191t-.105.182"/><path fill="#888" fill-rule="evenodd" d="M41.86 48.757q.176.114.342.244.165.13.316.277.152.146.288.306.137.16.257.334.12.172.223.356.102.184.187.377.084.193.148.393.065.2.11.407.045.205.07.414.024.21.028.42.003.21-.013.42-.017.21-.054.417-.038.208-.095.41-.058.203-.135.399t-.172.383-.21.365q-.14.22-.307.42t-.356.38-.4.333-.437.283-.468.228-.492.17-.509.108-.518.046c.447 3.096 1.67 6.222 3.76 9.242 11.546 2.053 20.418-4.381 23.7-14.762q-.633-.136-1.178-.486-.147-.095-.285-.204t-.264-.23-.24-.256-.214-.277-.185-.298-.156-.314q-.07-.16-.124-.328-.054-.166-.091-.338-.038-.171-.058-.346t-.024-.35.011-.35.045-.347.08-.342.111-.332q.064-.163.144-.32.08-.155.175-.303.14-.217.308-.412.17-.195.365-.364.196-.168.413-.307.218-.138.453-.244t.484-.177.504-.106q.256-.034.514-.032t.513.043c.3-4.422-.264-9.261-1.846-14.281-13.672 1.703-23.316 9.228-26.208 18.332q.802.157 1.49.599"/><path fill="#6e6e6e" d="M43.017 46.954q2.24 1.438 2.808 4.04t-.872 4.843q-1.835 2.858-5.23 2.952l-.06-2.142 2.12-.306q.624 4.314 3.401 8.328l-1.762 1.22.375-2.11q7.627 1.356 13.406-2.404 5.58-3.632 7.877-10.894l2.043.646-.451 2.095q-1.013-.218-1.884-.778-1.992-1.279-2.496-3.592-.504-2.312.775-4.304 2.01-3.13 5.686-2.559l-.33 2.118-2.137-.146q.444-6.524-1.752-13.491l2.044-.644.265 2.126q-9.472 1.18-16.158 6.003-6.26 4.514-8.272 10.852l-2.043-.65.413-2.102q1.203.237 2.234.899m-2.316 3.606q-.343-.22-.744-.3-.12-.023-.235-.06-.1-.032-.198-.073-.096-.042-.188-.093-.093-.05-.18-.11-.086-.06-.167-.127-.08-.068-.154-.144-.073-.075-.139-.157-.066-.083-.123-.17-.057-.09-.106-.183t-.087-.19q-.04-.099-.068-.2-.03-.1-.049-.204t-.028-.209-.007-.21q0-.105.013-.21.011-.104.033-.207t.054-.204q2.441-7.687 9.85-13.03 7.576-5.464 18.135-6.78.185-.023.371-.014.187.01.369.051t.354.114.329.172q.157.101.294.228.137.126.25.274.114.148.2.314t.142.344q2.438 7.738 1.94 15.07-.007.092-.02.184-.017.104-.043.206-.027.102-.063.2-.036.1-.082.194-.045.095-.1.185t-.118.174-.135.162q-.07.077-.15.147-.078.07-.163.133-.085.062-.175.115-.091.054-.187.098-.095.044-.194.08-.1.034-.202.059t-.207.04-.21.018-.21-.001q-.104-.006-.208-.022-.92-.143-1.422.64-.772 1.202.43 1.974.218.14.471.194.099.021.195.052.1.031.197.073t.189.092.18.11q.086.06.166.127.081.068.155.143.073.076.14.158.065.082.122.17.058.088.106.182.049.093.088.191.04.098.069.199.029.1.048.204.02.104.029.209t.008.21-.013.21q-.012.104-.033.207t-.054.204q-2.758 8.725-9.625 13.194-7.2 4.684-16.494 3.031-.209-.037-.407-.114t-.376-.192-.33-.262-.274-.322q-3.35-4.843-4.118-10.154-.018-.123-.021-.247-.003-.106.004-.21.008-.106.025-.21.018-.103.046-.205.027-.101.065-.2.037-.098.084-.192t.104-.183q.056-.09.12-.173.065-.083.137-.16.072-.076.152-.145t.165-.13.177-.113.188-.095.196-.076.202-.057.207-.037.21-.016q1.132-.031 1.744-.984 1.158-1.803-.646-2.961"/><path fill="#6e6e6e" d="M46.084 57.83q5.299-12.337 13.164-20.478.073-.075.153-.143.08-.069.167-.129.086-.06.178-.11.092-.052.189-.094t.197-.074.203-.055.207-.034.21-.014.21.007.209.027.205.047.199.068q.098.038.191.086.094.048.183.105.088.057.17.123.083.065.159.138t.144.154.128.166.111.179.093.188.075.197.054.203.035.208.013.21-.006.21-.027.208-.048.205-.067.2q-.04.097-.087.19-.048.095-.105.183-.057.089-.122.171-.066.083-.139.158-7.32 7.576-12.308 19.192-.041.096-.092.189-.051.092-.11.178-.06.087-.128.168-.068.08-.143.154-.076.073-.158.139t-.17.123-.182.106q-.094.048-.191.087-.098.04-.2.068-.1.03-.204.049t-.208.028-.21.008q-.106-.002-.21-.013-.105-.012-.208-.034t-.203-.054q-.1-.031-.197-.073t-.19-.092-.178-.11-.168-.128-.153-.144q-.074-.075-.14-.157-.065-.082-.123-.17t-.106-.182-.087-.192-.068-.199q-.03-.1-.049-.204t-.028-.209-.007-.21q.001-.105.013-.21.011-.104.033-.207t.054-.204.073-.197"/></svg>