<svg xmlns="http://www.w3.org/2000/svg" viewBox="0 0 110 110"><path fill-opacity=".2" d="M55 17.572c-16.706 0-30.286 13.579-30.286 30.285 0 16.707 13.58 30.286 30.286 30.286s30.286-13.58 30.286-30.286S71.706 17.572 55 17.572"/><path fill="#54802c" d="M80.69 52.052v-7.646l-2.742-1.5v-7.964c0-2.652-1.125-3.81-3.566-3.81H35.617c-2.44 0-3.565 1.158-3.565 3.81v7.963l-2.742 1.5v7.649H55z"/><path fill="#436623" d="M79.546 52.052v-7.646h1.143l-.548 1.002-2.742-1.5q-.135-.074-.246-.18-.11-.108-.189-.24-.078-.132-.119-.28t-.04-.303v-7.963q0-2.668-2.423-2.668H35.617q-1.345 0-1.867.553-.556.589-.556 2.115v7.963q0 .154-.04.302-.04.149-.12.28-.078.133-.188.24t-.246.18l-2.742 1.501-.548-1.002h1.143v7.648H29.31V50.91H55l25.69-.002v1.143zm2.286 0q0 .112-.022.223-.022.11-.065.214t-.105.197-.143.174-.173.142-.197.105-.215.066-.223.021L55 53.197H29.31q-.113 0-.223-.022t-.215-.065-.197-.106-.173-.142-.142-.173-.106-.198-.065-.214-.022-.223v-7.648q0-.154.04-.302.041-.149.12-.28.078-.133.189-.24.11-.107.245-.18l2.742-1.501.549 1.002h-1.143v-7.963q0-2.435 1.179-3.684 1.198-1.27 3.53-1.27h38.764q2.331 0 3.53 1.27 1.178 1.25 1.178 3.684v7.963h-1.142l.548-1.002 2.742 1.5q.135.074.246.181t.189.24q.078.131.119.28.04.148.04.302z"/><path fill="#0e0e0e" d="M63.348 30.198v-2.286q0-.056.01-.111.012-.056.033-.108t.053-.098q.031-.047.07-.087t.088-.071.098-.053.108-.032.111-.011h6.857q.056 0 .112.01.055.012.107.033t.099.053q.046.031.086.071t.071.087.053.098.033.108q.01.055.01.111v2.286q0 .056-.01.111t-.033.107-.053.1q-.03.046-.07.086t-.087.07q-.047.032-.1.054-.051.021-.106.032-.056.011-.112.011H63.92q-.056 0-.111-.01-.056-.012-.108-.033t-.098-.053q-.047-.031-.087-.071t-.071-.087-.053-.099-.032-.107-.011-.111m1.142-1.714v1.142h5.715v-1.142z"/><path fill="#111" d="M63.919 27.912h6.857v2.286H63.92z"/><path fill="#111" d="M83.62 37.967q.577 1.656.959 3.392c-2.125.098-4.16.157-5.865.157v-3.429c1.418 0 3.115-.046 4.907-.12m-57.241 0q-.58 1.668-.958 3.392c2.124.098 4.16.157 5.864.157v-3.429c-1.417 0-3.114-.046-4.906-.12m26.906-20.464v12.85h3.428v-12.85z"/><path fill="#111" d="M84.16 37.78q.588 1.687.977 3.456.012.055.013.112.001.056-.009.111-.01.056-.03.108t-.051.1q-.03.047-.07.088-.038.04-.085.073-.046.032-.097.054-.052.023-.107.035-.047.01-.096.013-3.398.157-5.89.157-.057 0-.112-.011t-.107-.033-.099-.052-.087-.071-.07-.087q-.032-.047-.053-.099-.022-.052-.033-.107-.01-.055-.01-.111v-3.429q0-.056.01-.111.011-.056.032-.108t.053-.098.071-.087q.04-.04.087-.071t.099-.053.107-.032.111-.011q2 0 4.883-.12.056-.002.112.006.056.01.108.028.053.02.101.05.048.028.09.067.041.038.074.083.034.046.057.097.024.05.037.105t.016.111q.002.057-.007.112-.008.056-.028.109-.02.052-.048.1-.03.049-.068.09t-.083.075q-.046.033-.097.056-.05.024-.106.037-.054.014-.11.016-2.907.12-4.93.12v-.571h.57v3.429h-.57v-.572q2.466 0 5.837-.156l.027.571-.559.123q-.374-1.703-.939-3.327-.018-.053-.026-.11-.008-.055-.005-.111.004-.056.018-.11.014-.055.038-.106.025-.05.059-.095t.076-.083.09-.066q.049-.028.102-.047.053-.018.109-.026t.112-.005.11.018.106.039.095.058.083.076.065.09q.03.05.048.102m-57.24.375q-.57 1.635-.94 3.326l-.558-.122.026-.57q3.372.155 5.838.155v.572h-.572v-3.429h.572v.571q-2.024 0-4.93-.12-.056-.002-.111-.016-.055-.013-.106-.037-.05-.023-.096-.056-.046-.034-.084-.075t-.067-.09-.05-.1-.027-.109q-.009-.055-.006-.112.002-.056.015-.11.013-.055.037-.106t.057-.097.075-.083q.04-.039.089-.068t.1-.049q.054-.019.11-.028.055-.008.111-.006 2.883.12 4.883.12.056 0 .111.01.055.012.107.033t.1.053q.046.031.086.07t.07.088q.032.046.054.098t.032.108.011.111v3.429q0 .056-.01.111-.012.055-.033.107t-.053.1q-.031.046-.071.086t-.087.07q-.047.032-.099.053-.052.022-.107.033t-.111.011q-2.493 0-5.89-.157-.05-.002-.097-.013-.055-.012-.106-.034-.052-.023-.098-.055t-.085-.073-.07-.088-.05-.1q-.02-.052-.03-.107-.01-.056-.01-.112.002-.056.014-.111.385-1.758.976-3.458.018-.053.047-.101.028-.049.066-.09.037-.043.082-.077t.095-.058.106-.039.11-.018q.056-.003.112.005t.11.026.1.047q.05.029.091.066.042.038.076.082t.059.096q.024.05.039.105t.017.11q.003.057-.005.113-.007.055-.026.109m26.937-20.652v12.85h-.571v-.572h3.428v.571h-.571v-12.85h.571v.572h-3.428v-.571zm-1.143 0q0-.056.011-.111.011-.056.033-.108.021-.052.053-.099.031-.046.07-.086t.087-.071.1-.053.106-.033q.056-.01.112-.01h3.428q.057 0 .112.01t.107.033.099.053.086.07.072.087.052.1q.022.051.033.107.01.055.01.11v12.85q0 .056-.01.112-.011.055-.033.107-.021.052-.052.099-.032.046-.072.086t-.086.071q-.047.032-.099.053-.052.022-.107.033-.055.01-.112.01h-3.428q-.056 0-.112-.01-.055-.011-.107-.033-.052-.021-.099-.053-.046-.031-.086-.07t-.071-.087-.053-.1q-.022-.051-.033-.106-.01-.056-.01-.112z"/><path fill="#111" d="M61.572 42.143q0 1.429 1.428 1.429 1.429 0 1.429-1.429T63 40.714t-1.428 1.429q0 .098-.01.196t-.029.194-.048.19-.066.185-.084.178-.1.168-.117.158-.132.145-.146.132-.157.117-.169.1-.177.085-.185.066-.19.048-.194.028-.196.01-.196-.01-.195-.028-.19-.048-.185-.066-.177-.084-.169-.101-.157-.117-.146-.132-.131-.145-.117-.158-.101-.168-.084-.178q-.038-.09-.066-.184t-.048-.19-.029-.195-.01-.196q0-2.249 1.59-3.839t3.84-1.59 3.838 1.59 1.59 3.839-1.59 3.839T63 47.572t-3.838-1.59-1.59-3.839q0-.098.01-.196.009-.098.028-.194.02-.097.048-.19.028-.095.066-.185.037-.091.084-.178.046-.086.1-.168t.118-.158.131-.145.146-.132.157-.117q.082-.054.169-.1.086-.047.177-.085.091-.037.185-.066.094-.028.19-.048.097-.019.195-.028.097-.01.196-.01.098 0 .196.01.097.01.194.028.096.02.19.048.094.029.185.066.09.038.177.084t.169.101.157.117.146.132q.07.07.132.145.062.076.117.158.054.082.1.168t.084.178q.038.09.066.184t.048.19.029.195.01.196m-9.143 0q0 2.249-1.59 3.839T47 47.572t-3.839-1.59-1.59-3.839 1.59-3.839 3.84-1.59 3.838 1.59 1.59 3.839q0 .098-.01.196t-.029.194-.047.19-.067.185-.083.178-.101.168-.117.158-.132.145-.145.132-.158.117-.169.1-.177.085-.185.066-.19.048-.194.028-.196.01-.196-.01-.194-.028-.19-.048q-.095-.029-.186-.066-.09-.038-.177-.084t-.168-.101-.158-.117-.145-.132q-.07-.07-.132-.145-.063-.076-.117-.158t-.101-.168-.084-.178q-.038-.09-.066-.184t-.048-.19-.029-.195-.01-.196q0-1.429-1.428-1.429t-1.428 1.429T47 43.572t1.429-1.429q0-.098.01-.196.009-.098.028-.194.02-.097.048-.19.028-.095.066-.185.038-.091.084-.178.046-.086.1-.168t.118-.158.132-.145.145-.132.158-.117.168-.1.177-.085q.091-.037.185-.066.094-.028.19-.048.097-.019.195-.028.097-.01.196-.01.098 0 .196.01t.194.028.19.048.185.066.177.084.169.101.158.117q.075.062.145.132t.132.145.117.158.1.168.084.178q.038.09.067.184.028.094.047.19.02.097.03.195t.009.196"/><path fill="#b1cd29" d="M59.572 42.143q0 .168.016.336.017.168.05.333.032.165.081.326.05.161.114.317t.143.304.173.289.2.27q.108.13.227.25.119.118.25.225.13.107.27.2t.288.174.304.144.317.113.326.082.333.05.336.016.336-.017.333-.05q.165-.032.326-.081.162-.049.317-.113.156-.065.304-.144.149-.08.289-.173.14-.094.27-.2.13-.108.25-.227.119-.119.225-.249t.2-.27.174-.289.144-.304.113-.317.082-.326.05-.333.016-.336-.017-.336-.05-.333-.08-.326-.114-.317-.144-.304-.173-.289-.2-.27-.226-.25q-.12-.118-.25-.225t-.27-.2-.289-.174-.304-.144-.317-.113q-.16-.049-.326-.082-.165-.033-.333-.049-.167-.017-.336-.017-.168 0-.336.017-.167.016-.333.05-.165.032-.326.081t-.317.113q-.155.065-.304.144-.149.08-.289.173-.14.094-.27.2-.13.108-.25.227-.118.119-.225.249t-.2.27-.174.289-.143.304-.114.317q-.049.16-.082.326-.032.165-.049.333-.016.168-.016.336m-9.143 0q0 .168-.017.336-.016.168-.05.333-.032.165-.08.326-.05.161-.114.317-.065.156-.144.304-.08.149-.173.289-.094.14-.2.27t-.227.25-.249.225-.27.2-.289.174-.304.144q-.155.064-.317.113-.16.049-.326.082-.165.033-.333.05-.167.016-.336.016-.168 0-.336-.017-.168-.016-.333-.05-.165-.032-.326-.081t-.317-.113q-.156-.065-.304-.144-.149-.08-.289-.173-.14-.094-.27-.2-.13-.108-.25-.227-.118-.119-.225-.249t-.2-.27-.174-.289-.143-.304-.114-.317q-.049-.16-.082-.326-.032-.165-.049-.333-.016-.168-.016-.336t.016-.336.05-.333.081-.326.114-.317.143-.304.173-.289.2-.27.227-.25.249-.225.27-.2.289-.174q.148-.08.304-.144t.317-.113.326-.082.333-.05.336-.016.336.017.333.05q.165.032.326.081.162.049.317.113.156.065.304.144.149.08.289.173.14.094.27.2.13.108.25.227.119.119.225.249t.2.27.174.289.144.304.113.317q.049.16.082.326.033.165.05.333.016.168.016.336"/><path fill="#999" d="M73.514 47.631q0 .065.007.129.006.064.019.127.012.064.031.126.019.061.043.121.025.06.056.117.03.056.066.11t.077.104.086.095.096.087.104.077q.053.036.11.066t.117.055.121.044q.062.018.125.031.064.013.128.019t.129.006q.064 0 .129-.006.064-.006.127-.019.064-.013.125-.031.062-.019.122-.044t.116-.055.11-.066q.055-.036.105-.077t.095-.087.087-.095.077-.104q.035-.054.066-.11.03-.057.055-.117t.043-.121q.02-.062.032-.126.012-.063.019-.127t.006-.129-.006-.129q-.007-.064-.02-.127-.012-.064-.03-.125-.02-.062-.044-.122-.025-.06-.055-.117-.03-.056-.066-.11t-.077-.104-.087-.095-.096-.087-.103-.077-.11-.066q-.058-.03-.117-.055t-.122-.044q-.061-.018-.125-.031-.063-.013-.127-.019-.065-.006-.13-.006-.064 0-.128.006t-.128.019-.125.031-.121.044-.117.055-.11.066-.104.077-.096.087-.086.095-.077.104-.066.11-.056.117-.043.122-.031.125-.02.127-.006.129m-.92-12.298q0 .064.007.128.006.065.019.128t.031.125.043.122.056.116.066.11.077.105q.04.05.086.095.046.046.096.087t.104.076q.053.036.11.067.057.03.117.055t.121.043q.062.02.125.032.064.012.128.019t.129.006q.064 0 .129-.006.064-.007.127-.02.064-.012.125-.03.062-.02.122-.044.06-.025.116-.055t.11-.067q.055-.035.105-.076t.095-.087q.046-.046.087-.096t.077-.103q.035-.054.066-.11.03-.058.055-.117t.043-.122q.02-.062.032-.125t.019-.128q.006-.064.006-.128 0-.065-.006-.13-.007-.063-.02-.127-.012-.063-.03-.125-.02-.062-.044-.121-.025-.06-.055-.117t-.066-.11-.077-.104-.087-.096-.095-.086-.104-.077-.11-.066q-.058-.03-.117-.056-.06-.024-.122-.043-.061-.019-.125-.031-.063-.013-.127-.02-.065-.006-.13-.006-.064 0-.128.007-.064.006-.128.019-.063.012-.125.031t-.121.043-.117.056q-.057.03-.11.066-.054.036-.104.077-.05.04-.096.086-.045.046-.086.096t-.077.104q-.036.053-.066.11t-.056.117q-.024.06-.043.121-.019.062-.031.125-.013.064-.02.128-.006.064-.006.129M36.487 47.63q0 .064-.006.129-.007.064-.02.127-.012.064-.03.125-.02.062-.044.122-.025.06-.055.116t-.067.111q-.035.054-.076.104t-.087.095-.095.087q-.05.04-.104.077-.054.036-.11.066-.058.03-.117.055t-.122.044-.125.03-.128.02q-.064.006-.128.006-.065 0-.13-.006-.063-.007-.127-.02-.063-.012-.125-.03-.062-.02-.121-.044-.06-.025-.117-.055t-.11-.066-.104-.077-.096-.087-.086-.095-.077-.104-.066-.11-.056-.117q-.024-.06-.043-.122-.019-.061-.031-.125-.013-.063-.02-.127-.006-.065-.006-.13 0-.064.007-.128.006-.064.019-.128.012-.063.031-.125.019-.061.043-.121.025-.06.056-.117.03-.057.066-.11.036-.054.077-.104.04-.05.086-.096.046-.045.096-.086t.103-.077.111-.066.117-.055.121-.044.125-.031.128-.02.129-.005.128.006.128.019.125.031.122.044.116.055.11.066q.055.036.105.077.05.04.095.086.046.046.087.096t.076.104.067.11.055.117.043.121q.02.062.032.126.012.063.019.127t.006.129m.919-12.297q0 .064-.006.128-.007.065-.02.128-.012.063-.03.125-.02.062-.044.122-.025.06-.055.116t-.067.11-.076.105-.087.095-.096.087-.103.076-.11.067q-.058.03-.117.055t-.122.043q-.062.02-.125.032t-.128.019q-.064.006-.128.006-.065 0-.13-.006-.064-.007-.127-.02-.063-.012-.125-.03-.062-.02-.121-.044-.06-.025-.117-.055t-.11-.067q-.054-.035-.104-.076t-.096-.087-.086-.096-.077-.103-.067-.11q-.03-.058-.055-.117-.024-.06-.043-.122t-.032-.125-.018-.128-.007-.128.007-.13q.006-.063.018-.127.013-.063.032-.125t.043-.121.055-.117.067-.11.077-.104.086-.096.096-.086.103-.077.111-.066.117-.056.121-.043.125-.031.128-.02.129-.006.128.007.128.019q.063.012.125.031t.122.043.116.056q.057.03.11.066.054.036.104.077.05.04.096.086t.087.096q.04.05.076.104t.067.11.055.117.043.121q.019.062.032.125.012.064.019.128t.006.129"/></svg>