<svg xmlns="http://www.w3.org/2000/svg" viewBox="0 0 110 110"><path fill="#333" d="m50.793 50.559-12.35-19.234q-.133-.207-.245-.425-.111-.22-.201-.448t-.157-.465-.11-.478-.064-.486-.015-.49.033-.49q.029-.244.08-.484.053-.24.129-.474.075-.234.174-.459t.217-.44.26-.416.3-.388.336-.358.37-.323.399-.285.425-.244q.219-.112.447-.202.23-.09.465-.157.237-.067.478-.11.242-.044.487-.064t.49-.015q.246.005.49.033.244.029.484.081t.474.128.459.174.44.218.415.26.39.299q.186.16.357.336t.323.37q.152.192.285.399l12.35 19.234q.132.206.244.425t.202.447.156.465.11.478.064.487.015.49-.033.49q-.028.244-.08.484t-.129.474-.173.458-.218.44-.26.416-.3.39q-.159.186-.336.357-.176.17-.37.322-.192.153-.398.285-.207.133-.426.245t-.447.202-.465.156-.478.111-.487.063-.49.015-.49-.033-.484-.08-.474-.128-.458-.174-.44-.218-.416-.26-.389-.3-.357-.335-.323-.37-.285-.4"/><path fill="#cfcfcf" d="M63.105 60.48q-.31.198-.63.382-.319.183-.647.35-.328.168-.663.32-.336.151-.679.286-.342.134-.691.252-.35.118-.703.218-.355.1-.713.184-.36.083-.722.148t-.727.112q-.365.048-.732.077-.367.03-.736.041-.368.011-.736.005-.368-.007-.735-.032-.368-.025-.733-.067-.366-.043-.73-.104-.363-.06-.722-.139-.36-.078-.716-.174-.355-.096-.706-.21-.35-.113-.694-.243-.345-.13-.682-.278-.338-.147-.668-.31-.33-.164-.651-.343-.322-.18-.634-.375t-.615-.405-.594-.435-.572-.463-.549-.491-.523-.518-.498-.542-.47-.566q-.23-.29-.443-.589-.214-.3-.413-.61t-.383-.628-.35-.648-.32-.663q-.15-.336-.286-.679-.134-.342-.252-.691-.118-.35-.218-.703-.1-.355-.184-.713-.082-.36-.148-.722t-.112-.727q-.048-.365-.077-.732-.03-.367-.04-.735-.012-.369-.005-.737.006-.368.031-.735.025-.368.068-.733.042-.366.103-.73.06-.362.14-.722.078-.36.173-.716.096-.355.21-.705t.243-.695q.13-.345.278-.682.147-.338.31-.668.164-.33.343-.651.18-.322.375-.634t.405-.615.435-.594.463-.572.491-.548q.253-.269.518-.524.265-.256.542-.498t.566-.47q.29-.23.589-.443.3-.214.61-.413t.629-.382.647-.352.663-.319q.336-.15.679-.285.342-.135.691-.253.35-.118.703-.218.355-.1.713-.183.36-.083.722-.149t.727-.112q.365-.048.732-.077.367-.03.736-.04.368-.012.736-.005.368.006.735.031.368.025.733.068.366.042.73.103.363.06.722.14.36.078.716.174.355.096.706.209.35.113.694.244.345.13.682.277t.668.31.651.344q.322.179.634.374t.615.405.594.435.572.464.549.49.523.518.498.542q.243.278.47.566.23.29.443.589.214.3.413.61t.383.629.35.647.32.663q.15.336.286.679.134.342.252.691.118.35.218.704t.184.713q.082.358.148.72.065.363.112.728.048.365.077.733.03.367.04.735.012.368.005.736-.006.368-.031.735-.025.368-.068.734-.042.365-.103.728-.06.364-.14.723-.078.36-.173.716-.096.355-.21.706-.113.35-.243.694-.13.345-.278.682-.147.338-.31.668-.164.33-.343.651-.18.322-.375.634t-.405.615-.435.594-.463.572-.491.549-.518.523-.542.498-.566.47q-.29.23-.589.443-.3.214-.61.413"/><path fill="#fff" d="M60.789 56.873q-.221.142-.45.273-.227.131-.462.25-.234.12-.474.229-.24.108-.484.204-.245.096-.494.18-.25.084-.502.156-.253.072-.51.131-.256.06-.515.106-.259.047-.52.08-.26.034-.523.055-.262.021-.525.03-.263.007-.526.003-.263-.005-.525-.023t-.524-.048q-.26-.03-.52-.074-.26-.043-.517-.1-.257-.055-.51-.124-.255-.069-.505-.15t-.496-.173q-.246-.094-.487-.199t-.477-.222q-.236-.116-.465-.245-.23-.128-.453-.267-.223-.14-.44-.29-.215-.15-.423-.31-.209-.16-.41-.331-.2-.17-.391-.35-.192-.181-.374-.37-.183-.19-.356-.388t-.336-.404-.316-.42q-.153-.215-.295-.436t-.273-.45q-.131-.227-.25-.462-.12-.234-.229-.473-.108-.24-.204-.485t-.18-.494-.156-.502-.131-.51-.106-.515-.08-.52q-.034-.26-.055-.523-.021-.262-.03-.525-.007-.262-.002-.525.004-.263.022-.526.018-.262.048-.524.03-.26.074-.52.043-.26.1-.517.056-.257.124-.51.069-.254.15-.505.08-.25.174-.496t.198-.487.222-.477q.116-.236.245-.465.128-.23.267-.453.14-.223.29-.439t.31-.424q.16-.209.331-.409.17-.2.35-.392.181-.191.37-.374.19-.183.388-.356t.404-.336.42-.316q.215-.153.436-.295t.45-.273q.227-.13.462-.25.234-.12.474-.228t.484-.205.494-.18.502-.156.51-.13q.256-.06.515-.107.259-.046.52-.08.26-.034.523-.055.262-.021.525-.03.263-.007.526-.002.263.004.525.022t.524.048q.26.03.52.074t.517.1.51.124q.255.069.505.15t.496.174.487.198.477.222.465.245.453.267.44.29.423.31.41.331.391.351.374.37.356.387.336.404.316.42.295.436.273.45.25.462.229.474.204.484.18.494.156.503.131.509.106.515.08.52.055.523.03.525q.007.263.002.526-.004.263-.022.525t-.048.524q-.03.26-.074.52-.043.26-.1.517-.056.257-.124.51-.069.255-.15.505t-.174.496-.198.487-.222.477-.245.465-.267.453-.29.44-.31.424-.331.408-.35.392-.37.374-.388.356-.404.336-.42.316-.436.295"/></svg>