<svg xmlns="http://www.w3.org/2000/svg" viewBox="0 0 110 110"><path fill="#333" d="M77.857 47.857q0 .561-.027 1.122-.028.56-.083 1.118-.055.559-.137 1.114t-.192 1.105-.246 1.095-.3 1.081-.351 1.065q-.189.529-.404 1.047-.214.519-.454 1.026t-.505 1.002-.553.976-.6.948-.646.917-.69.885q-.356.433-.733.849t-.774.813-.812.773-.85.733-.884.69-.917.646-.948.6-.976.553q-.495.265-1.002.505-.508.24-1.026.454t-1.047.404-1.065.352-1.081.3-1.095.245-1.105.192-1.114.137-1.118.083-1.122.027-1.122-.027-1.118-.083-1.114-.137q-.555-.082-1.105-.192t-1.095-.246-1.081-.3q-.537-.162-1.065-.35-.529-.19-1.047-.405-.518-.214-1.026-.454-.507-.24-1.002-.505-.495-.264-.976-.553-.481-.288-.948-.6t-.917-.646-.884-.69-.85-.733-.812-.773-.774-.813-.733-.85-.69-.884-.646-.917-.6-.948q-.289-.481-.553-.976t-.505-1.002-.454-1.026-.404-1.047-.352-1.065-.3-1.081q-.135-.544-.245-1.095t-.192-1.105q-.082-.555-.137-1.114-.055-.558-.083-1.118-.027-.56-.027-1.122 0-.561.027-1.121.028-.56.083-1.12.055-.558.137-1.113t.192-1.105.246-1.095.3-1.081.351-1.065.404-1.047.454-1.026.505-1.002.553-.976.6-.948.646-.917q.334-.45.69-.884t.733-.85.774-.812q.396-.397.812-.774t.85-.733.884-.69.917-.646.948-.6.976-.553 1.002-.504q.508-.24 1.026-.455t1.047-.404 1.065-.352 1.081-.299 1.095-.246 1.105-.192 1.114-.137 1.118-.082T55 25t1.122.028 1.118.082 1.114.137 1.105.192q.55.11 1.095.246t1.081.3q.537.162 1.065.351.529.19 1.047.404t1.026.455 1.002.504.976.553q.481.288.948.6t.917.646.884.69.85.733.812.774q.397.396.774.812t.733.85.69.884.646.917.6.948.553.976.505 1.002.454 1.026.404 1.047.352 1.065.3 1.081q.135.545.245 1.095t.192 1.105.137 1.114.083 1.119.027 1.121"/><path fill="none" stroke="#292929" stroke-linejoin="round" stroke-width="4.286" d="M77.857 47.857q0 .561-.027 1.122-.028.56-.083 1.118-.055.559-.137 1.114t-.192 1.105-.246 1.095-.3 1.081-.351 1.065q-.189.529-.404 1.047-.214.519-.454 1.026t-.505 1.002-.553.976-.6.948-.646.917-.69.885q-.356.433-.733.849t-.774.813-.812.773-.85.733-.884.69-.917.646-.948.6-.976.553q-.495.265-1.002.505-.508.24-1.026.454t-1.047.404-1.065.352-1.081.3-1.095.245-1.105.192-1.114.137-1.118.083-1.122.027-1.122-.027-1.118-.083-1.114-.137q-.555-.082-1.105-.192t-1.095-.246-1.081-.3q-.537-.162-1.065-.35-.529-.19-1.047-.405-.518-.214-1.026-.454-.507-.24-1.002-.505-.495-.264-.976-.553-.481-.288-.948-.6t-.917-.646-.884-.69-.85-.733-.812-.773-.774-.813-.733-.85-.69-.884-.646-.917-.6-.948q-.289-.481-.553-.976t-.505-1.002-.454-1.026-.404-1.047-.352-1.065-.3-1.081q-.135-.544-.245-1.095t-.192-1.105q-.082-.555-.137-1.114-.055-.558-.083-1.118-.027-.56-.027-1.122 0-.561.027-1.121.028-.56.083-1.12.055-.558.137-1.113t.192-1.105.246-1.095.3-1.081.351-1.065.404-1.047.454-1.026.505-1.002.553-.976.6-.948.646-.917q.334-.45.69-.884t.733-.85.774-.812q.396-.397.812-.774t.85-.733.884-.69.917-.646.948-.6.976-.553 1.002-.504q.508-.24 1.026-.455t1.047-.404 1.065-.352 1.081-.299 1.095-.246 1.105-.192 1.114-.137 1.118-.082T55 25t1.122.028 1.118.082 1.114.137 1.105.192q.55.11 1.095.246t1.081.3q.537.162 1.065.351.529.19 1.047.404t1.026.455 1.002.504.976.553q.481.288.948.6t.917.646.884.69.85.733.812.774q.397.396.774.812t.733.85.69.884.646.917.6.948.553.976.505 1.002.454 1.026.404 1.047.352 1.065.3 1.081q.135.545.245 1.095t.192 1.105.137 1.114.083 1.119.027 1.121"/><path fill="#ccc" d="M70.143 39.286q0 .161-.008.322t-.024.322-.04.32-.054.318-.071.314q-.04.157-.086.311-.047.155-.101.307-.055.151-.116.3-.062.15-.131.295-.069.146-.145.288-.076.143-.16.281-.082.138-.172.273-.09.134-.185.263-.096.13-.199.255-.102.124-.21.244-.109.12-.223.233t-.233.223-.245.21q-.124.103-.254.199t-.264.186-.272.172-.28.16q-.143.075-.289.144-.146.07-.295.13-.149.063-.3.117-.153.054-.307.101t-.31.086-.316.07q-.158.032-.317.056-.16.024-.32.04-.161.015-.322.023t-.323.008q-.16 0-.322-.008-.161-.008-.322-.024-.16-.015-.32-.039t-.318-.055-.314-.07-.311-.087q-.155-.047-.306-.101-.152-.054-.301-.116-.15-.062-.295-.13-.146-.07-.288-.146-.143-.076-.281-.159t-.272-.172-.264-.186q-.13-.096-.254-.199-.125-.102-.245-.21-.12-.109-.233-.223t-.223-.233-.21-.244q-.103-.125-.199-.255t-.186-.263-.172-.273-.16-.28q-.075-.143-.144-.289t-.13-.295q-.063-.149-.117-.3-.054-.152-.101-.307-.047-.154-.086-.31-.04-.157-.07-.315-.032-.159-.056-.318-.024-.16-.04-.32-.015-.16-.023-.322-.008-.161-.008-.322 0-.162.008-.323.008-.16.024-.321.015-.161.04-.32.023-.16.054-.318.032-.159.07-.315.04-.157.087-.31.047-.155.101-.307t.116-.301.13-.295q.07-.146.146-.288t.159-.28q.083-.14.172-.273.09-.134.186-.264t.199-.254.21-.244q.109-.12.223-.234t.233-.222.245-.211.254-.199.264-.185.272-.173q.138-.083.28-.159t.289-.145.295-.13.3-.117.307-.1q.154-.048.31-.087.157-.039.315-.07.159-.032.318-.056.16-.023.32-.04.16-.015.322-.023.161-.008.322-.008.162 0 .323.008t.322.024.32.04.317.055q.159.031.315.07.157.04.311.086.154.047.306.101t.301.117q.15.061.295.13.146.07.288.145.142.076.28.16.14.082.273.172.134.09.264.185.13.097.254.199.125.102.245.21.119.109.233.223t.223.234.21.244.199.254.185.264.173.272.159.28q.076.143.145.289t.13.295.117.3q.054.153.1.307.048.154.087.311.04.156.07.315.032.158.056.317.023.16.04.32.015.161.023.322t.008.323"/></svg>