<svg xmlns="http://www.w3.org/2000/svg" viewBox="0 0 110 110"><path fill="#cfcfcf" d="M67.143 47.857q0 .298-.015.596t-.044.594-.073.592-.101.587-.131.582-.159.574-.187.566-.214.556-.242.545-.268.532-.294.519-.319.503-.343.488-.366.47-.39.45q-.2.222-.41.432-.211.211-.432.411t-.452.39-.47.366-.487.344-.503.318q-.256.154-.519.294t-.532.268-.545.242-.556.214-.566.187-.575.159-.581.13q-.292.059-.587.103-.295.043-.592.072-.296.03-.594.044Q55.298 60 55 60t-.596-.015-.594-.044-.592-.072-.587-.102-.581-.131-.575-.159-.566-.187-.556-.214-.545-.242-.532-.268-.519-.294-.503-.318-.487-.344-.47-.366-.452-.39q-.22-.2-.431-.41-.211-.211-.411-.432t-.39-.452-.366-.47-.343-.487-.32-.503-.293-.519-.268-.532-.242-.545-.214-.556-.187-.566-.159-.574q-.072-.29-.13-.582t-.102-.587-.073-.592-.044-.594-.015-.596.015-.596q.014-.297.044-.594t.073-.592.101-.587q.059-.292.131-.581.072-.29.159-.575t.187-.566.214-.556q.115-.275.242-.545t.268-.532q.14-.263.294-.519.153-.255.319-.503.165-.248.343-.487.177-.24.366-.47.19-.23.39-.452.2-.22.41-.431.211-.211.432-.411t.452-.39.47-.366.487-.343.503-.32.519-.293.532-.268.545-.241.556-.215.566-.187.575-.159.581-.13.587-.102.592-.073.594-.044.596-.015.596.015.594.044.592.073.587.102.581.13q.29.073.575.16.285.086.566.186t.556.215.545.241.532.268.519.294.503.319.487.343q.24.177.47.367.23.189.452.389.22.2.431.41.211.212.411.432.2.221.39.452.189.23.366.47.178.239.343.487t.32.503.293.519.268.532.242.545.214.556.187.566.159.575.13.581q.059.293.102.587.044.295.073.592.03.297.044.594.015.298.015.596"/><path fill="#fff" d="M62.857 47.857q0 .193-.01.386-.009.192-.028.384t-.047.383-.066.38q-.037.19-.084.376-.047.187-.103.372-.056.184-.121.366t-.139.36-.156.352-.174.345-.19.335-.206.326-.222.316-.237.304-.252.292-.266.279-.28.266-.291.252-.305.237-.315.222-.326.206-.335.19-.345.174-.352.156-.36.139-.366.12q-.185.057-.372.104t-.376.084-.38.066-.383.047-.384.029q-.193.01-.386.01t-.386-.01-.384-.029-.383-.047-.38-.066-.376-.084-.372-.103q-.184-.056-.366-.121t-.36-.139-.352-.156-.345-.174-.335-.19-.326-.206-.315-.222-.305-.237-.292-.252q-.142-.13-.279-.266-.136-.136-.266-.28-.13-.142-.252-.291-.122-.15-.237-.304-.115-.155-.222-.316-.107-.16-.206-.326-.1-.165-.19-.335-.091-.17-.174-.345t-.156-.352-.139-.36-.12-.366-.104-.372-.084-.376-.066-.38-.047-.383-.029-.384-.01-.386.01-.385.029-.385.047-.383.066-.38.084-.376.103-.372.121-.366.139-.36.156-.352.174-.345.19-.335.206-.326.222-.315.237-.304.252-.292.266-.28.28-.266q.142-.13.291-.252.15-.122.305-.237.154-.115.315-.222.16-.107.326-.206.165-.1.335-.19.17-.091.345-.174t.352-.156.36-.139.366-.12.372-.104.376-.084.38-.066.383-.047.384-.029T55 40t.386.01.384.028.383.047.38.066.376.084.372.103.366.121.36.14.352.155.345.174.335.19.326.206.315.222.305.237.292.252q.142.13.279.266.136.137.266.28.13.142.252.292.122.149.237.304t.222.315.206.326.19.335.174.345.156.352.139.36.12.366q.057.185.104.372t.084.376.066.38.047.383.029.385q.01.192.01.385"/></svg>