<svg xmlns="http://www.w3.org/2000/svg" viewBox="0 0 110 110"><path fill="#fff" d="M63.49 61.08q-8.929-5.608-18.442-1.062 2.574-10.225-4.69-17.868 10.52-.712 15.545-9.981 3.928 9.785 14.297 11.7-8.093 6.758-6.71 17.211"/><path fill="#cfcfcf" d="M62.35 62.895q-7.93-4.98-16.378-.943-.095.045-.194.08-.1.037-.201.063t-.206.042-.21.021-.21 0q-.105-.004-.21-.019-.103-.015-.206-.04-.102-.025-.201-.06t-.195-.08-.186-.099q-.09-.053-.175-.116-.085-.062-.163-.132t-.15-.149q-.07-.077-.133-.162-.063-.084-.118-.174t-.1-.185q-.161-.338-.198-.71-.038-.374.054-.737 2.286-9.08-4.165-15.869-.072-.076-.137-.16-.065-.082-.12-.171-.057-.09-.104-.183-.047-.094-.085-.193-.038-.098-.066-.2-.028-.101-.046-.205t-.025-.208-.005-.21.015-.21.036-.208q.024-.102.057-.202t.076-.196.094-.188.113-.178.13-.165.145-.152q.271-.258.614-.41.343-.15.717-.175 9.343-.632 13.806-8.864.05-.093.109-.18t.126-.168.142-.155.157-.14.17-.125.18-.107.191-.089.198-.07.205-.05.208-.029.21-.009q.105 0 .21.012.105.01.208.032.103.02.203.052.101.031.198.072t.19.09q.329.18.578.46.25.279.39.627 3.487 8.69 12.696 10.39.103.02.204.048.101.03.2.069.097.038.19.087.094.048.182.105.089.058.171.123.082.066.158.14.075.073.143.153t.128.167.11.18q.051.091.093.188t.073.197.054.203q.022.103.034.208t.013.21-.007.21q-.01.105-.028.208-.068.369-.257.692-.19.324-.477.564-7.187 6.003-5.958 15.286.014.104.017.21.004.105-.003.21t-.024.209-.044.205-.065.2q-.036.1-.083.194t-.102.183q-.056.09-.12.174t-.136.16-.15.146q-.08.07-.165.131-.086.062-.177.114-.09.053-.187.096-.096.044-.195.078-.1.034-.203.058-.102.024-.206.037-.372.05-.738-.03t-.683-.28m2.28-3.63-1.14 1.815-2.124.281q-1.538-11.622 7.46-19.137l1.374 1.644-.39 2.108q-11.528-2.129-15.895-13.009l1.988-.798 1.884 1.021Q52.2 43.497 40.503 44.288l-.144-2.138 1.553-1.476q8.076 8.498 5.214 19.867l-2.078-.523-.924-1.933q10.578-5.055 20.506 1.18"/></svg>