<svg xmlns="http://www.w3.org/2000/svg" viewBox="0 0 110 110"><path fill="#f7cf2f" d="M70.714 47.857q-1.425 8.25-7.857 13.61-7.857 2.89-15.714 0-6.432-5.36-7.857-13.61 1.425-8.25 7.857-13.609 7.857-2.89 15.714 0 6.432 5.36 7.857 13.61"/><path fill="#c8a826" d="M72.826 48.222q-1.56 9.027-8.597 14.89-.285.237-.632.365-8.597 3.163-17.194 0-.347-.128-.632-.365-7.038-5.863-8.597-14.89-.063-.365 0-.73 1.56-9.027 8.597-14.89.285-.237.632-.365 8.597-3.163 17.194 0 .347.128.632.365 7.038 5.863 8.597 14.89.063.365 0 .73m-4.223-.73 2.111.365-2.111.365q-1.291-7.473-7.117-12.328l1.371-1.646-.74 2.011q-7.117-2.619-14.234 0l-.74-2.01 1.371 1.645q-5.826 4.855-7.117 12.328l-2.111-.365 2.111-.365q1.291 7.473 7.117 12.328l-1.371 1.646.74-2.011q7.117 2.619 14.234 0l.74 2.011-1.371-1.646q5.826-4.855 7.117-12.328"/></svg>