<svg xmlns="http://www.w3.org/2000/svg" viewBox="0 0 110 110"><path fill="#e0c85c" d="m79.286 47.857-5 8.66h-10l-5-8.66 5-8.66h10z"/><path fill="none" stroke="#b5a24b" stroke-linejoin="round" stroke-width="4.286" d="m79.286 47.857-5 8.66h-10l-5-8.66 5-8.66h10z"/><path fill="#e0c85c" d="m55 72.143-8.66-5v-10l8.66-5 8.66 5v10z"/><path fill="none" stroke="#b5a24b" stroke-linejoin="round" stroke-width="4.286" d="m55 72.143-8.66-5v-10l8.66-5 8.66 5v10z"/><path fill="#e0c85c" d="m30.714 47.857 5-8.66h10l5 8.66-5 8.66h-10z"/><path fill="none" stroke="#b5a24b" stroke-linejoin="round" stroke-width="4.286" d="m30.714 47.857 5-8.66h10l5 8.66-5 8.66h-10z"/><path fill="#e0c85c" d="m55 23.571 8.66 5v10l-8.66 5-8.66-5v-10z"/><path fill="none" stroke="#b5a24b" stroke-linejoin="round" stroke-width="4.286" d="m55 23.571 8.66 5v10l-8.66 5-8.66-5v-10z"/></svg>