<svg xmlns="http://www.w3.org/2000/svg" viewBox="0 0 110 110"><path fill="#a9403e" d="M37.412 62.03q52.322-68.267 12.02 7.718z"/><path fill="#a9403e" d="M31.742 57.684q13.26-17.299 20.747-25.567 4.022-4.441 6.657-6.564 6.208-5.002 11.291-1.738t3.119 10.99q-.834 3.28-3.199 8.785-4.402 10.25-14.614 29.505-.082.155-.172.305-.09.151-.187.297t-.2.288q-.105.14-.215.277-.111.135-.228.266-.118.13-.241.254-.124.125-.254.243t-.264.23-.276.216-.286.203-.296.189-.304.174-.313.158q-.158.076-.32.143-.162.068-.326.128-.165.06-.333.11-.168.052-.338.095t-.341.078-.346.061-.347.044-.35.027q-.175.01-.35.01-.176 0-.35-.008-.176-.008-.35-.024-.175-.017-.349-.042-.173-.025-.345-.059t-.343-.076-.338-.092-.333-.109-.328-.125-.32-.141q-.16-.075-.314-.157-.263-.139-.513-.3l-12.02-7.718q-.148-.095-.291-.197t-.28-.21-.27-.224-.258-.237-.246-.25-.234-.261-.221-.273-.207-.283-.193-.292-.178-.302-.164-.31-.148-.318q-.07-.16-.132-.325-.062-.164-.116-.33-.054-.168-.1-.337-.045-.17-.082-.34-.038-.172-.067-.345t-.049-.347-.032-.349-.015-.35.002-.35.02-.35q.014-.176.036-.35.023-.173.054-.346.03-.173.07-.343t.088-.34.103-.335.12-.33q.065-.162.137-.322t.152-.316.167-.308.182-.3q.16-.25.341-.486m11.339 8.69-5.67-4.345 3.86-6.01 12.02 7.718-3.858 6.011-6.31-3.347Q53.06 47.664 57.23 37.952q1.922-4.475 2.48-6.668l.115-.29q.052 3.018 2.893 4.842t5.606.616l-.215.225q-1.762 1.42-5.032 5.03-7.095 7.833-19.997 24.668"/><path fill="#d14f4d" d="M37.412 62.03q52.322-68.267 12.02 7.718z"/><path fill="#d14f4d" d="M34.577 59.857q13.17-17.183 20.56-25.343 9.322-10.293 13.37-7.694 4.049 2.6-1.431 15.36-4.344 10.116-14.488 29.241-.082.155-.18.302-.097.146-.207.282-.111.136-.235.26-.124.125-.259.236-.135.112-.28.21t-.3.181-.317.151-.33.12q-.167.05-.34.086-.171.034-.346.052t-.35.018q-.175.001-.35-.016-.175-.016-.347-.05t-.34-.084-.33-.117-.318-.149q-.131-.07-.256-.15l-12.021-7.718q-.148-.095-.285-.204-.138-.109-.264-.23-.127-.122-.24-.256-.114-.133-.214-.278-.1-.144-.186-.297t-.155-.314-.125-.328-.09-.338-.059-.346-.023-.35.01-.35q.015-.175.046-.347.03-.173.079-.342.047-.169.112-.332.064-.163.144-.32.08-.156.174-.303.08-.125.171-.243m5.67 4.345-2.835-2.173 1.93-3.005 12.02 7.719-1.93 3.005-3.155-1.673q10.007-18.867 14.236-28.713 2.032-4.733 2.659-7.198.23-.904.225-1.231.019 1.106 1.251 1.898 1.233.791 2.247.348-.3.131-1.026.717-1.98 1.596-5.438 5.413-7.193 7.943-20.185 24.893"/><path fill="#d4766c" d="M64.262 33.432q.118.076.229.163.11.087.21.184.102.098.193.205.09.106.17.222.081.115.15.238t.124.25q.056.13.1.263.042.134.072.27.03.138.046.277.017.14.02.28t-.01.28-.035.278-.064.274-.09.265q-.05.13-.114.256-.064.125-.14.243t-.163.228-.185.211-.204.192-.222.171-.238.149-.251.124-.262.1-.27.073q-.138.03-.277.046-.14.016-.28.019t-.28-.009q-.14-.01-.279-.036-.138-.025-.273-.063t-.265-.09-.256-.115-.243-.14-.228-.162q-.11-.088-.212-.185-.1-.097-.192-.204-.09-.107-.17-.222-.08-.116-.15-.238-.068-.123-.124-.251-.056-.129-.099-.263-.043-.133-.073-.27-.03-.138-.046-.277-.016-.14-.019-.28t.009-.28q.01-.14.036-.278t.063-.273.09-.266q.05-.13.115-.255.064-.125.14-.244.075-.118.162-.228t.185-.21.204-.193.222-.171.238-.149.251-.124q.129-.056.262-.1.134-.042.271-.072t.277-.047.28-.018.28.008q.14.011.278.036t.273.063.266.09.255.115.243.14"/><path fill="#d4766c" d="M59.631 40.645q.177.113.343.244.165.13.316.277.152.146.288.306.137.16.257.333t.223.357q.102.184.186.377.085.193.15.393t.109.406.07.415.028.42-.013.42q-.017.21-.055.417-.037.207-.094.41-.058.202-.135.398t-.172.384-.21.364-.244.343-.277.317q-.146.151-.307.288-.16.136-.333.256t-.357.223-.376.187-.394.149-.406.11-.415.069q-.209.024-.42.028-.21.004-.42-.013t-.417-.054-.41-.095-.398-.134-.383-.173-.365-.21-.342-.244-.317-.277-.288-.306q-.137-.16-.257-.333t-.223-.357q-.102-.184-.186-.377t-.15-.393-.109-.406-.07-.415-.027-.42.013-.42q.016-.21.054-.417.037-.208.094-.41.058-.203.135-.399t.173-.383.21-.365.244-.342.276-.317q.146-.151.307-.288.16-.136.333-.256t.357-.223.377-.187.393-.149.406-.11.415-.069.42-.028q.21-.004.42.013t.417.054.41.095.398.134.384.173.364.21"/><path fill="#d4766c" d="M53.456 50.261q.237.152.457.326t.422.37q.202.194.384.408t.342.444.297.476.25.502.198.525.146.54q.06.275.092.554.033.279.038.56.005.28-.017.56t-.072.556-.127.547-.179.53q-.102.262-.23.512t-.28.486-.326.457-.368.422-.409.384-.444.342-.476.297-.502.25q-.258.111-.525.198-.267.086-.541.146-.275.06-.553.092-.28.033-.56.038t-.56-.017q-.28-.023-.556-.072-.277-.05-.547-.127-.27-.076-.531-.179t-.511-.23-.487-.28q-.236-.151-.456-.326-.22-.174-.422-.369-.202-.194-.384-.408t-.343-.444-.297-.476-.249-.502q-.112-.258-.198-.525t-.146-.541-.093-.553q-.032-.28-.037-.56-.006-.28.017-.56.022-.28.072-.557.05-.276.126-.546.077-.27.18-.531.102-.262.23-.511.128-.25.28-.487.151-.236.325-.456t.37-.422.408-.384.444-.343q.23-.16.476-.297t.502-.249.525-.198.54-.146q.275-.06.554-.093.279-.032.56-.038.28-.005.56.018.28.022.556.072t.547.126.53.18q.262.102.512.23t.486.28"/></svg>