<svg xmlns="http://www.w3.org/2000/svg" viewBox="0 0 110 110"><path fill="#fcdd86" d="M61.491 28.026q.482.212.952.447t.93.493.903.538.876.582.847.623.815.665.782.704.746.742.708.777.67.81.63.843q.304.43.586.873.283.444.544.9.26.458.499.927.237.469.452.95.215.48.406.97.19.49.357.989t.308 1.005.26 1.02q.116.513.208 1.03.091.519.157 1.04.066.522.106 1.047t.055 1.05.003 1.052q-.01.526-.048 1.05-.037.525-.1 1.048-.063.522-.15 1.04-.09.52-.203 1.033t-.252 1.02-.303 1.008q-.163.5-.35.992-.189.49-.4.972-.254.578-.542 1.14t-.608 1.106-.672 1.069-.733 1.027-.793.982-.85.933-.902.882-.953.827q-.49.4-1 .77-.512.37-1.044.71-.533.34-1.084.647t-1.12.582-1.152.515-1.18.446-1.205.376-1.225.304q-5.98-6.724-15.785-16.323-2.984-6.042 1.14-11.371 11.517-7.46 18.714-12.862"/><path fill="none" stroke="#ccb36d" stroke-linecap="round" stroke-linejoin="round" stroke-width="3.571" d="M61.491 28.026q.482.212.952.447t.93.493.903.538.876.582.847.623.815.665.782.704.746.742.708.777.67.81.63.843q.304.43.586.873.283.444.544.9.26.458.499.927.237.469.452.95.215.48.406.97.19.49.357.989t.308 1.005.26 1.02q.116.513.208 1.03.091.519.157 1.04.066.522.106 1.047t.055 1.05.003 1.052q-.01.526-.048 1.05-.037.525-.1 1.048-.063.522-.15 1.04-.09.52-.203 1.033t-.252 1.02-.303 1.008q-.163.5-.35.992-.189.49-.4.972-.254.578-.542 1.14t-.608 1.106-.672 1.069-.733 1.027-.793.982-.85.933-.902.882-.953.827q-.49.4-1 .77-.512.37-1.044.71-.533.34-1.084.647t-1.12.582-1.152.515-1.18.446-1.205.376-1.225.304q-5.98-6.724-15.785-16.323-2.984-6.042 1.14-11.371 11.517-7.46 18.714-12.862"/><path fill="none" stroke="#ccb36d" stroke-linecap="round" stroke-linejoin="round" stroke-width="2.857" d="M60.327 59.16q-8.03-5.831-13.501-8.534"/><path fill="none" stroke="#ccb36d" stroke-linecap="round" stroke-linejoin="round" stroke-width="2.857" d="M64.806 53.148q-12.166-3.23-16.487-4.525"/><path fill="none" stroke="#ccb36d" stroke-linecap="round" stroke-linejoin="round" stroke-width="2.857" d="M65.662 44.62q-12.566.749-17.058 1.16"/><path fill="none" stroke="#ccb36d" stroke-linecap="round" stroke-linejoin="round" stroke-width="2.857" d="M62.466 37.838q-9.028 4.12-14.927 5.681"/></svg>