<svg xmlns="http://www.w3.org/2000/svg" viewBox="0 0 110 110"><path fill="#cf78a3" d="M81.429 47.857q0 .298-.015.596t-.044.594-.073.592-.102.587-.13.582-.16.574-.186.566-.215.556-.241.545-.268.532-.294.519-.319.503-.343.488-.367.47-.39.45q-.2.222-.41.432-.21.211-.432.411-.22.2-.451.39-.23.189-.47.366-.24.178-.487.344-.248.165-.504.318-.255.154-.518.294t-.533.268-.544.242-.557.214q-.28.1-.565.187-.286.087-.575.159t-.581.13-.588.103-.591.072-.594.044q-.298.015-.596.015t-.596-.015-.595-.044-.591-.072-.587-.102-.582-.131-.574-.159-.566-.187-.556-.214-.545-.242-.532-.268-.519-.294-.504-.318-.487-.344-.47-.366-.45-.39-.433-.41-.41-.432-.39-.452-.367-.47-.343-.487-.319-.503-.293-.519-.268-.532-.242-.545-.214-.556-.187-.566-.16-.574q-.072-.29-.13-.582t-.102-.587-.073-.592-.044-.594-.014-.596.014-.596q.015-.297.044-.594.03-.297.073-.592.044-.294.102-.587.058-.292.13-.581.073-.29.16-.575.086-.285.187-.566.1-.28.214-.556.114-.275.242-.545.127-.27.268-.532.14-.263.293-.519.154-.255.32-.503.165-.248.342-.487.178-.24.367-.47.19-.23.39-.452.2-.22.41-.431.211-.211.432-.411.22-.2.451-.39.23-.189.47-.366.24-.178.487-.343.248-.166.504-.32.256-.152.519-.293.262-.14.532-.268.27-.127.545-.241.275-.115.556-.215.28-.1.566-.187.285-.086.574-.159.29-.072.582-.13t.587-.102.591-.073q.297-.03.595-.044.298-.015.596-.015t.596.015q.297.015.594.044t.591.073q.295.043.588.102.292.058.581.13.29.073.575.16.285.086.565.186.281.1.557.215.275.114.544.241.27.128.533.268t.518.294.504.319.487.343q.24.177.47.367.23.189.451.389t.432.41q.21.212.41.432.201.221.39.452.19.23.367.47t.343.487.319.503.294.519.268.532q.127.27.241.545.114.276.215.556.1.281.187.566.086.285.159.575.072.289.13.581.058.293.102.587.044.295.073.592.03.297.044.594.015.298.015.596"/><path fill="#ff94c9" d="M77.143 47.857q0 .193-.01.386-.01.192-.028.384t-.047.383-.066.38-.085.376q-.046.187-.102.372-.056.184-.121.366t-.14.36-.156.352-.173.345-.19.335-.206.326-.222.316-.238.304-.252.292-.265.279-.28.266-.292.252-.304.237-.315.222-.326.206-.335.19-.345.174-.353.156-.36.139q-.18.065-.365.12-.185.057-.372.104t-.376.084-.38.066-.383.047-.385.029q-.192.01-.385.01t-.386-.01-.384-.029-.383-.047-.38-.066-.376-.084q-.188-.047-.372-.103-.185-.056-.366-.121-.182-.065-.36-.139t-.353-.156-.344-.174-.336-.19-.325-.206-.316-.222-.304-.237-.292-.252-.28-.266-.265-.28-.252-.291-.237-.304-.222-.316-.207-.326-.19-.335-.173-.345-.156-.352-.14-.36q-.064-.182-.12-.366-.056-.185-.103-.372t-.084-.376-.066-.38-.048-.383-.028-.384-.01-.386.01-.385.028-.385q.02-.192.048-.383.028-.19.066-.38.037-.189.084-.376t.103-.372.12-.366.14-.36.156-.352q.082-.175.173-.345t.19-.335q.1-.166.207-.326t.222-.315.237-.304.252-.292.266-.28q.136-.136.28-.266.142-.13.291-.252.15-.122.304-.237.155-.115.316-.222.16-.107.325-.206.166-.1.336-.19.17-.091.344-.174.175-.082.353-.156t.36-.139q.181-.065.366-.12.184-.057.372-.104.187-.046.376-.084t.38-.066.383-.047.384-.029.386-.009.385.01q.193.009.385.028t.383.047.38.066.376.084.372.103.366.121.36.14q.178.073.352.155.174.083.345.174t.335.19.326.206.315.222.304.237.292.252q.143.13.28.266.136.137.265.28.13.142.252.292.123.149.238.304t.222.315.206.326q.1.165.19.335.091.17.173.345.083.174.157.352.074.179.139.36.065.182.12.366.057.185.103.372.047.187.085.376.037.19.066.38.028.191.047.383t.028.385.01.385"/><path fill="#cf78a3" d="M41.786 70.745q-.258-.15-.509-.31-.25-.162-.493-.336-.242-.173-.476-.359-.233-.185-.457-.382-.224-.196-.439-.403-.214-.208-.418-.425-.203-.218-.396-.445t-.374-.464q-.182-.236-.352-.482-.17-.245-.327-.498t-.302-.514-.277-.527-.25-.541-.223-.553-.197-.563q-.09-.283-.168-.571-.077-.288-.14-.58-.063-.291-.112-.585-.048-.294-.082-.59t-.054-.594-.024-.595q-.005-.298.005-.596t.034-.595.063-.593.092-.589.121-.583.15-.577.178-.57.205-.559.233-.549.259-.536.285-.524.31-.508.336-.493.359-.476.382-.457.403-.439.425-.418.445-.396.464-.375.482-.35.498-.328.514-.302.527-.277.541-.25.553-.224.563-.196.571-.168.58-.14.585-.112.59-.082.594-.054.595-.024.596.005.595.034q.298.024.593.063.296.039.589.092.293.054.583.121.29.068.577.15t.57.177.559.206.549.232.536.26.524.285.508.31.493.336.476.359.457.381q.225.197.439.404t.418.425.396.445.375.464q.181.236.35.481.17.246.328.499.157.253.302.513t.277.528.25.541.224.553.196.562.168.572.14.58.112.585q.048.294.082.59t.054.594.024.595q.005.298-.005.596t-.034.595-.063.593-.092.589-.121.583-.15.577-.177.57q-.096.281-.206.559-.11.277-.232.548-.123.272-.26.537-.136.265-.285.523t-.31.509-.336.493-.359.476-.381.457-.404.439-.425.418-.445.396-.464.374-.481.352q-.246.17-.499.327t-.513.302-.528.277-.541.25q-.274.118-.553.223t-.562.197-.572.168-.58.14-.585.112-.59.082-.594.054q-.297.02-.595.024-.298.005-.596-.005t-.595-.034-.593-.063-.589-.092-.583-.121-.577-.15-.57-.178q-.281-.095-.559-.205-.277-.11-.548-.233-.272-.123-.537-.259t-.523-.285"/><path fill="#ff94c9" d="M43.929 67.033q-.168-.096-.33-.2t-.319-.217q-.156-.113-.307-.233t-.296-.247-.284-.261-.27-.275q-.132-.14-.257-.288t-.242-.3-.228-.312q-.11-.158-.211-.322-.102-.164-.196-.332-.093-.169-.179-.342t-.162-.35-.144-.357-.127-.365q-.06-.183-.11-.37-.05-.186-.09-.374-.04-.189-.072-.38-.032-.19-.054-.381-.022-.192-.034-.384-.013-.193-.016-.386-.003-.192.003-.385t.022-.385.041-.384q.025-.19.06-.38t.078-.378.097-.374q.053-.185.115-.368.062-.182.133-.362.07-.18.15-.355t.168-.347.185-.339q.096-.167.2-.329t.217-.319q.113-.156.233-.308.12-.15.247-.296.127-.145.261-.283.134-.139.275-.27.14-.133.288-.257.147-.125.3-.243t.312-.227.322-.211.332-.196.342-.179.35-.162.357-.145.365-.127.37-.109.374-.09.38-.072.381-.054.384-.034.386-.016.385.003.385.022.384.041q.19.025.38.06t.378.078.374.097q.185.053.368.115.182.062.362.133.18.07.355.15t.347.168.339.184.329.201.319.217q.156.113.308.233.15.12.296.247.145.127.283.26.139.135.27.276.133.14.257.288.125.147.243.3t.227.311.211.323.196.332.179.342.162.35.145.357.127.364.109.37.09.375.072.379.054.382.034.384.016.385-.003.386-.022.385-.041.383-.06.381-.078.378-.097.373-.115.368-.133.363-.15.355-.168.347-.184.338-.201.33-.217.319-.233.307-.247.296-.26.284-.276.27-.288.257-.3.242-.311.228-.323.211-.332.196-.342.179-.35.162-.357.144-.364.127q-.184.06-.37.11-.187.05-.375.09-.189.04-.379.072t-.382.054-.384.034-.385.016-.386-.003-.385-.022-.383-.041-.381-.06-.378-.078-.373-.097-.368-.115-.363-.133-.355-.15-.347-.168-.338-.185"/><path fill="#cf78a3" d="M41.786 24.97q.258-.15.523-.286t.537-.26q.271-.122.548-.232.278-.11.56-.205.282-.096.569-.178.286-.082.577-.15.29-.067.583-.12.294-.054.59-.093.295-.038.592-.063.297-.024.595-.034t.596-.005.595.025.594.053.59.083.586.111.579.14.572.169q.283.09.562.196.28.105.553.223t.54.25.529.277q.26.145.513.303.253.157.499.327.245.17.481.35.237.182.464.375t.445.397q.217.204.425.418.207.214.404.438.196.224.381.458.186.233.36.475.173.243.335.493.161.25.31.509.15.258.285.523.137.265.26.537.123.271.232.549.11.277.206.56.095.281.177.568t.15.577.12.584q.054.293.093.588.039.296.063.593.025.297.034.595t.005.596-.024.596-.054.593-.082.59-.112.586-.14.58q-.077.287-.168.57-.091.285-.196.564t-.224.552-.25.541-.277.528-.302.514q-.158.253-.327.498-.17.245-.351.482-.182.236-.375.463-.192.228-.396.445-.204.218-.418.425t-.439.404-.457.382-.476.359q-.242.173-.493.335-.25.161-.508.31-.259.15-.524.286t-.536.259-.55.232q-.276.11-.559.206-.282.096-.569.178-.286.081-.577.15-.29.067-.583.12t-.589.092-.593.064-.595.034-.596.005-.595-.025-.594-.053-.59-.083-.585-.111-.58-.14q-.288-.078-.571-.169-.284-.091-.563-.196-.28-.105-.553-.224-.273-.118-.54-.25-.268-.132-.528-.277-.261-.144-.514-.302-.253-.157-.498-.327-.246-.17-.482-.351-.237-.181-.464-.374t-.445-.397q-.217-.204-.425-.418-.207-.214-.403-.438t-.382-.458-.36-.476-.334-.492-.31-.51q-.15-.257-.286-.522-.136-.266-.26-.537-.122-.272-.232-.549t-.205-.56q-.096-.282-.178-.568-.082-.287-.15-.577t-.12-.584-.093-.589-.063-.592-.034-.595-.005-.596.024-.596.054-.593.082-.59q.049-.295.112-.586t.14-.58q.077-.287.168-.571t.197-.563.223-.552.25-.541q.132-.268.277-.528t.302-.514.327-.498.352-.482q.181-.236.374-.463t.396-.445.418-.425.439-.404.457-.382.476-.359.493-.335.509-.31"/><path fill="#ff94c9" d="M43.929 28.68q.167-.096.338-.184t.347-.167.355-.15.363-.134.368-.115.373-.096.378-.079.38-.06.384-.04.385-.023.386-.003.385.016.384.035.382.053.379.072.375.091.37.109.364.127.357.145.35.162.342.179.332.195.323.212.311.227.3.242.288.257.275.27.261.284.247.296.233.308.217.319.2.329.185.338.168.348.15.355.133.362.115.368.097.373.078.378.06.38.041.384q.016.193.022.385.006.193.003.386t-.016.385-.034.384-.054.382-.072.38-.09.374-.11.37-.126.364-.145.358-.162.35-.179.341-.196.333q-.101.163-.211.322t-.227.312q-.118.153-.243.3-.124.147-.256.287-.132.141-.27.275-.14.135-.284.262-.145.127-.296.247-.152.12-.308.232-.157.112-.32.217-.161.104-.328.2t-.339.185-.347.168-.355.15q-.18.072-.362.134-.183.062-.368.115-.186.053-.374.096t-.377.079-.381.06-.384.04-.385.022-.385.003-.386-.015q-.192-.013-.384-.035-.191-.022-.382-.053-.19-.032-.379-.073-.188-.04-.374-.09-.187-.05-.37-.11-.184-.058-.365-.126-.18-.068-.357-.145t-.35-.162-.342-.179q-.168-.093-.332-.195t-.322-.212-.312-.227-.3-.242-.288-.257q-.14-.132-.275-.27-.134-.139-.261-.284t-.247-.296-.233-.308-.216-.319-.201-.329-.185-.339-.168-.347-.15-.355-.133-.362-.115-.368-.097-.373-.078-.378-.06-.381-.04-.384q-.017-.192-.023-.385-.006-.192-.003-.385t.016-.385.034-.385q.022-.191.054-.381.031-.19.072-.38.04-.188.09-.374t.11-.37.127-.364.144-.358.162-.35.18-.341.195-.333.211-.322.228-.312.242-.3.256-.288.27-.275q.14-.134.285-.26.145-.128.296-.248.15-.12.307-.232t.32-.217.329-.201"/></svg>