<svg xmlns="http://www.w3.org/2000/svg" viewBox="0 0 110 110"><path fill="#63bf2e" d="m45.763 39.752 9.1-4.83 10.943 5.405 1.559 13.078-10.806 7.53-9.522-5.262-3.694-6.114z"/><path fill="#509b25" d="m44.758 37.859 9.1-4.83q.224-.12.471-.183t.502-.067.503.052q.249.057.477.17l10.944 5.405q.24.118.443.292t.358.392.25.468.128.515l1.559 13.078q.017.144.015.29-.003.144-.025.287-.022.144-.063.283-.04.139-.1.271t-.136.256-.169.234-.2.21-.225.181l-10.806 7.53q-.122.086-.255.153-.134.068-.275.116-.141.049-.288.077-.146.028-.296.036-.149.008-.298-.005-.148-.013-.294-.047-.146-.033-.285-.087-.14-.053-.27-.125L46 57.548q-.502-.277-.798-.767l-3.694-6.114q-.109-.18-.18-.379-.072-.198-.104-.407t-.022-.42.06-.415l2.42-9.808q.054-.22.153-.423.098-.203.237-.381.14-.178.313-.324.173-.145.372-.251m2.01 3.785-1.005-1.892 2.08.513-2.42 9.807-2.08-.513 1.834-1.108 3.694 6.113-1.834 1.109 1.037-1.876 9.522 5.263-1.037 1.875-1.225-1.758 10.806-7.53 1.225 1.758-2.128.254-1.56-13.078 2.129-.254-.95 1.921-10.943-5.405.95-1.921 1.004 1.892z"/></svg>