<svg xmlns="http://www.w3.org/2000/svg" viewBox="0 0 110 110"><path fill="#654a19" d="m40.277 51.368 12.021-7.718q.55-.353 1.17-.553.622-.2 1.274-.233l11.502-.595q.245-.013.49-.001.246.011.49.047.242.035.48.094.239.06.47.141.232.083.454.187.223.105.434.23.21.126.408.272t.38.31q.183.165.348.346.166.182.313.379.146.197.273.407t.233.432.189.453.143.47q.06.237.097.48t.05.488q.012.246 0 .491-.01.245-.046.488-.036.244-.095.482t-.14.47q-.083.231-.187.454-.105.222-.23.433-.126.211-.272.409t-.31.38-.347.348-.378.312-.407.274-.433.232q-.221.106-.452.189t-.47.143-.48.097-.489.05l-11.502.594L55 47.857l2.702 4.207-12.021 7.72q-.207.132-.426.244t-.447.201-.465.157-.478.11q-.242.044-.487.064t-.49.015q-.246-.005-.49-.033-.244-.029-.484-.081t-.473-.128q-.234-.075-.46-.174-.225-.098-.439-.217-.215-.12-.416-.26-.202-.14-.389-.3t-.357-.336-.323-.37-.285-.399-.245-.425-.201-.448-.157-.464-.11-.478-.064-.487-.015-.49.033-.49.08-.484q.053-.24.129-.474.075-.233.173-.459.098-.225.218-.44.12-.214.26-.416t.3-.388.336-.358.37-.323.398-.285M50.52 45.64l7.39-14.931q.109-.22.239-.429.13-.208.28-.403.15-.194.317-.373.169-.18.354-.341t.384-.304.413-.266.437-.223q.224-.101.456-.18.233-.079.472-.134.24-.056.483-.087.244-.032.49-.04.245-.007.49.01.245.016.487.056.243.04.48.104t.467.15q.23.088.45.197t.428.239q.209.13.403.28t.374.317.34.354.305.384.266.413.223.437.18.456.134.473.087.482.04.49q.007.245-.01.49-.016.245-.056.487-.04.243-.104.48t-.151.467-.196.45l-7.39 14.931q-.109.22-.239.429-.13.208-.28.403-.15.194-.318.373-.168.18-.353.341t-.384.304-.413.266-.437.223-.457.18q-.232.079-.472.134t-.482.087q-.244.032-.49.04-.245.007-.49-.01-.245-.015-.488-.056-.242-.04-.479-.104t-.467-.15q-.23-.088-.45-.197t-.428-.239q-.209-.13-.403-.28t-.374-.317-.34-.354q-.163-.184-.305-.384-.143-.2-.266-.413-.122-.213-.223-.437t-.18-.456-.134-.472-.087-.483-.04-.49q-.007-.245.01-.49.016-.245.056-.487.04-.243.104-.48t.151-.467.196-.45"/><path fill="#7d5b1f" d="m41.821 53.773 12.021-7.72q.48-.307 1.047-.336l11.503-.595q.105-.005.21 0t.21.02q.103.015.205.04.103.026.202.061t.194.08.186.099.175.116.163.133.15.148q.07.078.133.163.063.084.117.174t.1.185.08.194q.037.1.062.201.026.103.042.207t.021.209q.006.105 0 .21-.004.105-.02.21-.015.104-.04.206t-.06.201-.08.195-.1.185-.115.176-.133.162-.149.15q-.078.07-.162.133t-.175.118-.185.1q-.095.044-.194.08t-.2.062q-.103.026-.207.041t-.21.021l-11.501.595-.111-2.14 1.158 1.803-12.021 7.719q-.089.057-.182.105-.094.048-.192.086-.098.039-.2.067-.1.029-.204.048-.104.018-.209.027-.105.008-.21.006t-.21-.014-.207-.035-.203-.054-.197-.075-.188-.093-.179-.112-.166-.128-.154-.144-.138-.158-.122-.172-.105-.182-.086-.192-.068-.199-.047-.205-.027-.208-.006-.21q.001-.106.014-.21.012-.105.034-.208.023-.102.055-.203.033-.1.075-.196.042-.097.093-.189t.111-.178.129-.167.144-.153.158-.138.171-.122m11.258-6.866 7.39-14.932q.047-.094.103-.183.055-.09.12-.173.064-.083.136-.16t.151-.146q.08-.07.165-.13.086-.062.177-.114t.187-.096.196-.077.202-.058q.103-.023.207-.037.105-.014.21-.017t.21.004.209.024.205.045.2.064q.099.038.193.084.095.047.184.103.09.056.173.12t.16.136.146.151q.07.08.13.165.062.086.114.177t.096.187.077.196.057.202.038.207.017.21-.004.21-.024.209-.045.206-.065.2-.084.192l-7.39 14.932q-.046.094-.102.183-.056.09-.12.173t-.136.16-.151.146-.165.13-.177.114-.187.096-.196.077-.202.058q-.103.023-.207.037-.105.014-.21.017t-.21-.004-.21-.024-.205-.045q-.101-.027-.2-.064-.098-.038-.193-.084-.094-.047-.183-.103-.09-.056-.173-.12t-.16-.136-.146-.151-.13-.165-.114-.177-.096-.187-.077-.196-.058-.202-.037-.207-.017-.21.004-.21.024-.209.045-.205.065-.2q.037-.1.083-.193"/></svg>