<svg xmlns="http://www.w3.org/2000/svg" viewBox="0 0 110 110"><path fill="#eee" d="M60.772 43.621q0 .281-.027.56-.028.28-.083.555-.054.276-.136.544-.081.269-.189.528-.107.26-.24.507-.132.248-.288.481t-.334.45-.377.416-.415.377-.45.334-.481.288-.507.24-.528.189-.544.136-.555.082-.56.028q-.28 0-.56-.028-.28-.027-.555-.082t-.544-.136-.528-.19q-.26-.107-.507-.24-.247-.131-.48-.287-.234-.156-.451-.334t-.416-.377-.376-.416-.334-.45-.289-.48-.24-.508-.188-.528-.137-.544-.082-.555q-.027-.279-.027-.56 0-.28.027-.56.028-.28.082-.554.055-.276.137-.544.081-.269.189-.528.107-.26.24-.507.132-.248.288-.481.156-.234.334-.45.178-.218.376-.416.199-.199.416-.377t.45-.334.481-.288.507-.24.528-.189.544-.136.555-.082q.28-.028.56-.028t.56.028.555.082.544.136.528.19.507.239.48.288q.234.156.45.334.218.178.416.377.199.198.377.415t.334.45.288.482q.133.247.24.507.108.259.19.528.08.268.135.544.055.275.083.554.027.28.027.56"/><path fill="#eee" d="M66.863 59.21q0 .28-.028.56-.027.28-.082.555t-.136.544-.19.528q-.107.26-.239.507t-.288.48-.334.451-.377.416-.415.376-.45.334-.482.289-.507.24-.528.188-.544.137-.554.082q-.28.027-.56.027-.281 0-.56-.027-.28-.028-.555-.082-.276-.055-.544-.137-.269-.081-.528-.189-.26-.107-.507-.24-.248-.132-.481-.288t-.45-.334-.416-.376-.377-.416-.334-.45-.288-.481-.24-.507-.189-.528-.136-.544-.082-.555-.028-.56.028-.56.082-.555.136-.544.19-.528.24-.507.287-.48.334-.451.377-.416.416-.376.45-.334.48-.288.508-.24.528-.19q.268-.08.544-.135.275-.055.555-.083.279-.027.56-.027.28 0 .56.027.28.028.554.083.276.054.544.136.269.081.528.189.26.107.507.24.248.132.481.288.234.156.45.334.218.178.416.376.199.199.377.416t.334.45.288.481.24.507.189.528.136.544.082.555q.028.28.028.56"/><path fill="#eee" d="M61.82 54.575q0 .281-.028.56-.027.28-.082.555t-.136.544-.19.528q-.107.26-.239.507-.132.248-.288.481t-.334.45-.377.416-.415.377-.45.334-.482.288-.507.24-.528.189-.544.136-.554.082-.56.028-.56-.028-.555-.082-.544-.136-.528-.19-.507-.24-.481-.287-.45-.334q-.218-.179-.416-.377-.199-.199-.377-.416t-.334-.45-.288-.481-.24-.507-.189-.528-.136-.544-.082-.555-.028-.56q0-.28.028-.56.027-.28.082-.554.055-.276.136-.544.082-.269.19-.528.107-.26.239-.507.132-.248.288-.481.156-.234.334-.45.178-.218.377-.416.198-.199.415-.377t.45-.334.482-.288q.247-.133.507-.24t.528-.189.544-.136.554-.082q.28-.028.56-.028.281 0 .56.028.28.027.555.082.276.055.544.136.269.082.528.189.26.107.507.24.248.132.481.288.234.156.45.334.218.178.416.377.199.198.377.415t.334.45.288.482.24.507.189.528.136.544.082.554q.028.28.028.56"/><path fill="#eee" d="M61.53 51.771q0 .28-.028.56-.027.28-.082.555t-.136.544-.19.528q-.107.26-.24.507-.131.247-.287.48-.156.234-.334.451t-.377.416-.416.376-.45.334-.481.289-.507.24-.528.188-.544.136-.555.083-.56.027-.56-.027-.554-.083q-.276-.054-.544-.136-.27-.081-.528-.189-.26-.107-.507-.24-.248-.132-.481-.288-.234-.156-.45-.334-.218-.178-.416-.376-.199-.199-.377-.416t-.334-.45-.288-.481q-.133-.248-.24-.507-.107-.26-.189-.528-.081-.269-.136-.544-.055-.276-.082-.555-.028-.28-.028-.56t.028-.56.082-.555.136-.544.189-.528.24-.507.288-.48.334-.451.377-.416q.198-.198.415-.376t.45-.334.482-.289.507-.24.528-.188.544-.136.554-.083.56-.027.56.027q.28.028.555.083.275.054.544.136.269.081.528.189.26.107.507.24.248.132.481.288t.45.334.416.376.377.416.334.45.288.481.24.507.189.528.136.544.082.555.028.56"/><path fill="#eee" d="M59.44 47.862q0 .28-.027.56-.028.28-.083.555-.054.275-.136.544-.081.268-.189.528-.107.259-.24.507-.132.247-.288.48-.156.234-.334.451t-.376.416q-.199.198-.416.376t-.45.334-.481.288-.507.24-.528.19q-.269.08-.544.135-.276.055-.555.083-.28.027-.56.027t-.56-.027-.555-.083-.544-.136-.528-.189q-.26-.107-.507-.24-.247-.132-.48-.288-.234-.156-.451-.334t-.416-.376q-.198-.199-.376-.416t-.334-.45-.289-.481-.24-.507-.188-.528-.136-.544-.083-.555-.027-.56.027-.56.083-.555.136-.544q.081-.268.189-.528.107-.26.24-.507.132-.247.288-.48.156-.234.334-.451t.376-.416q.199-.198.416-.376t.45-.334.481-.289.507-.24.528-.188.544-.137.555-.082q.28-.027.56-.027t.56.027.555.082.544.137.528.189.507.24q.247.132.48.288.234.156.451.334t.416.376q.198.199.376.416t.334.45.289.481.24.507.188.528.136.544.083.555.027.56"/><path fill="#eee" d="M58.012 50.589q0 .28-.028.56-.027.279-.082.554-.055.276-.136.544-.082.269-.19.528-.107.26-.239.507-.132.248-.288.481-.156.234-.334.45-.178.218-.377.416-.198.199-.415.377t-.45.334-.482.288-.507.24-.528.189-.544.136-.554.082q-.28.028-.56.028-.281 0-.56-.028-.28-.027-.555-.082-.276-.055-.544-.136-.269-.082-.528-.19-.26-.107-.507-.239-.248-.132-.481-.288t-.45-.334-.416-.377-.377-.415-.334-.45-.288-.482-.24-.507-.189-.528-.136-.544-.082-.554-.028-.56.028-.56.082-.555.136-.544.19-.528.24-.507.287-.481.334-.45q.179-.218.377-.416.199-.199.416-.377t.45-.334.48-.288.508-.24.528-.189.544-.136.555-.082.56-.028q.28 0 .56.028.28.027.554.082.276.055.544.136.269.082.528.19.26.107.507.239.248.132.481.288.234.156.45.334.218.178.416.377.199.198.377.415t.334.45.288.482.24.507.189.528.136.544.082.554q.028.28.028.56"/><path fill="#eee" d="M70.525 42.647q0 .28-.028.56-.027.28-.082.555t-.136.544-.19.528q-.107.26-.24.507-.131.247-.287.48-.156.234-.334.451t-.377.416-.416.376-.45.334-.481.289-.507.24-.528.188-.544.136-.555.083q-.279.027-.56.027-.28 0-.56-.027-.28-.028-.554-.083-.276-.054-.544-.136-.27-.081-.528-.189-.26-.107-.507-.24-.248-.132-.481-.288-.234-.156-.45-.334-.218-.178-.416-.376-.199-.199-.377-.416t-.334-.45-.288-.481q-.133-.248-.24-.507-.107-.26-.189-.528-.081-.269-.136-.544-.055-.276-.082-.555-.028-.28-.028-.56t.028-.56.082-.555.136-.544.189-.528.24-.507.288-.48.334-.451.377-.416q.198-.198.415-.376t.45-.334.482-.289.507-.24.528-.188.544-.137.554-.082q.28-.027.56-.027.281 0 .56.027.28.028.555.082t.544.137.528.189.507.24q.248.132.481.288t.45.334.416.376.377.416.334.45.288.481.24.507.189.528q.081.269.136.544t.082.555.028.56"/><path fill="#eee" d="M67.485 53.654q0 .281-.027.56-.028.28-.082.555t-.137.544-.189.528q-.107.26-.24.507-.132.248-.288.481t-.334.45-.376.416-.416.377-.45.334-.481.288-.507.24-.528.189-.544.136-.555.082-.56.028q-.28 0-.56-.028-.28-.027-.555-.082t-.544-.136-.528-.19q-.259-.107-.507-.24-.247-.131-.48-.287-.234-.156-.451-.334t-.416-.377-.376-.416-.334-.45-.288-.481-.24-.507q-.108-.26-.19-.528-.08-.269-.135-.544t-.083-.555-.027-.56.027-.56q.028-.28.083-.554.054-.276.136-.544.081-.27.189-.528.107-.26.24-.507.132-.248.288-.481.156-.234.334-.45.178-.218.376-.416.199-.199.416-.377t.45-.334.481-.288q.248-.133.507-.24.26-.107.528-.189.269-.081.544-.136.276-.055.555-.082.28-.028.56-.028t.56.028.555.082.544.136.528.189.507.24q.247.132.48.288.234.156.451.334t.416.377q.198.198.376.415t.334.45.289.482.24.507.188.528.137.544.082.554.027.56"/><path fill="#eee" d="M56.621 41.856q0 .28-.027.56-.028.279-.082.554-.055.276-.137.544-.081.269-.189.528-.107.26-.24.507-.132.248-.288.481-.156.234-.334.45-.178.218-.376.416-.199.199-.416.377t-.45.334-.481.288-.507.24-.528.189-.544.136-.555.082q-.28.028-.56.028t-.56-.028-.555-.082-.544-.136-.528-.19-.507-.239-.48-.288q-.234-.156-.45-.334-.218-.178-.416-.377-.199-.198-.377-.415t-.334-.45-.288-.482q-.133-.247-.24-.507-.108-.26-.19-.528-.08-.268-.135-.544-.055-.275-.083-.554-.027-.28-.027-.56 0-.281.027-.56.028-.28.083-.555.054-.276.136-.544.081-.269.189-.528.107-.26.24-.507.132-.248.288-.481.156-.234.334-.45.178-.218.377-.416.198-.199.415-.377t.45-.334.481-.288.507-.24q.26-.107.528-.189.269-.081.544-.136.276-.055.555-.082.28-.028.56-.028t.56.028.555.082.544.136.528.19.507.239.48.288.451.334.416.377q.198.198.376.415t.334.45.289.482.24.507.188.528.137.544.082.554q.027.28.027.56"/><path fill="#eee" d="M69.827 50.171q0 .281-.028.56-.027.28-.082.555t-.136.544-.189.528-.24.507-.288.481-.334.45-.377.416-.415.376-.45.335-.482.288-.507.24-.528.189-.543.136-.555.082-.56.028-.56-.028-.555-.082-.544-.136-.528-.19-.507-.24-.481-.287-.45-.335-.416-.376-.377-.416-.334-.45-.288-.481-.24-.507-.189-.528-.136-.544-.082-.555-.028-.56q0-.28.028-.56.027-.28.082-.555t.136-.543q.082-.27.19-.528.107-.26.24-.507.131-.248.287-.481.156-.234.334-.45.179-.218.377-.416.199-.199.416-.377t.45-.334.481-.288q.248-.133.507-.24.26-.107.528-.189.269-.081.544-.136t.555-.082.56-.028.56.028.555.082.543.136.528.189.507.24q.248.132.481.288.234.156.45.334.218.178.416.377.199.198.377.415t.334.45.288.482q.133.247.24.507.107.259.189.528.081.268.136.543.055.276.082.555.028.28.028.56"/><path fill="#eee" d="M55.638 52.536q0 .281-.027.56-.028.28-.083.555-.054.276-.136.544-.081.269-.189.528-.107.26-.24.507-.132.248-.288.481t-.334.45-.376.416-.416.377-.45.334-.481.288-.507.24-.528.189-.544.136-.555.082-.56.028q-.28 0-.56-.028-.28-.027-.555-.082t-.544-.136-.528-.19q-.26-.107-.507-.24-.247-.131-.48-.287-.234-.156-.451-.334t-.416-.377-.376-.416-.334-.45-.289-.48-.24-.508-.188-.528-.137-.544-.082-.555-.027-.56q0-.28.027-.56.028-.28.082-.554.055-.276.137-.544.081-.269.189-.528.107-.26.24-.507.132-.248.288-.481.156-.234.334-.45.178-.218.376-.416.199-.199.416-.377t.45-.334.481-.288.507-.24.528-.189.544-.136.555-.082q.28-.028.56-.028t.56.028.555.082.544.136.528.19.507.239.48.288q.234.156.451.334t.416.377.376.415.334.45q.156.234.288.482.133.247.24.507.108.259.19.528.08.268.135.544.055.275.083.554.027.28.027.56"/><path fill="#eee" d="M62.193 47.715q0 .281-.027.56-.028.28-.082.555-.055.276-.137.544-.081.269-.189.528-.107.26-.24.507-.132.248-.288.481-.156.234-.334.45-.178.218-.376.416-.199.199-.416.377t-.45.334-.481.288-.507.24-.528.189-.544.136-.555.082q-.28.028-.56.028t-.56-.028-.555-.082-.544-.136-.528-.19-.507-.239-.48-.288-.451-.334-.416-.377q-.198-.198-.376-.415t-.334-.45-.289-.482-.24-.507-.188-.528-.136-.544-.083-.554-.027-.56.027-.56q.028-.28.083-.555.054-.276.136-.544.081-.269.189-.528.107-.26.24-.507.132-.248.288-.481.156-.234.334-.45.178-.218.376-.416.199-.199.416-.377t.45-.334.481-.288.507-.24.528-.189.544-.136.555-.082q.28-.028.56-.028t.56.028.555.082.544.136.528.19.507.239.48.288.451.334.416.377q.198.198.376.415t.334.45.289.482.24.507.188.528.137.544.082.554q.027.28.027.56"/><path fill="#eee" d="M63.788 44.707q0 .281-.027.56-.028.28-.083.555-.054.275-.136.544-.081.269-.189.528-.107.26-.24.507-.132.248-.288.481t-.334.45-.377.416-.415.376-.45.335-.481.288-.507.24-.528.189-.544.136-.555.082-.56.028q-.28 0-.56-.028-.28-.027-.555-.082t-.544-.136-.528-.19q-.26-.107-.507-.24-.247-.131-.48-.287-.234-.156-.451-.335-.217-.178-.416-.376-.198-.199-.376-.416t-.334-.45-.289-.481-.24-.507-.188-.528-.137-.544-.082-.555q-.027-.279-.027-.56 0-.28.027-.56.028-.28.082-.555t.137-.543.189-.528.24-.507q.132-.248.288-.481.156-.234.334-.45.178-.218.376-.416.199-.199.416-.377t.45-.334.481-.288q.248-.133.507-.24.26-.107.528-.189.269-.081.544-.136t.555-.082.56-.028.56.028.555.082.544.136.528.189.507.24.48.288.45.334.416.377.377.415.334.45q.156.234.288.482.133.247.24.507.108.259.189.528.082.268.136.543.055.276.083.555.027.28.027.56"/><path fill="#eee" d="M54.335 49.038q0 .28-.027.56-.028.28-.082.555t-.137.544q-.081.268-.189.528-.107.26-.24.507-.132.247-.288.48-.156.234-.334.451t-.376.416q-.199.198-.416.376t-.45.334-.481.289-.507.24-.528.188-.544.137-.555.082q-.28.027-.56.027t-.56-.027-.555-.082-.544-.137-.528-.189-.507-.24q-.247-.132-.48-.288-.234-.156-.451-.334t-.416-.376q-.198-.199-.376-.416t-.334-.45-.288-.481-.24-.507-.19-.528q-.08-.269-.135-.544-.055-.276-.083-.555-.027-.28-.027-.56t.027-.56.083-.555.136-.544.189-.528q.107-.26.24-.507.132-.247.288-.48.156-.234.334-.451t.376-.416q.199-.198.416-.376t.45-.334.481-.289.507-.24.528-.188.544-.136.555-.083.56-.027.56.027.555.083.544.136.528.189q.26.107.507.24.247.132.48.288.234.156.451.334t.416.376q.198.199.376.416t.334.45.289.481.24.507.188.528.137.544.082.555q.027.28.027.56"/><path fill="#eee" d="M59.296 43.744q0 .281-.027.56-.028.28-.082.555t-.137.544-.189.528-.24.507q-.132.248-.288.48-.156.234-.334.451t-.376.416q-.199.198-.416.376-.217.179-.45.335-.234.155-.481.288-.248.132-.507.24-.26.107-.528.188-.269.082-.544.137-.275.054-.555.082t-.56.028-.56-.028-.555-.082-.544-.137q-.268-.081-.528-.188-.26-.108-.507-.24-.247-.133-.48-.288-.234-.156-.451-.335-.217-.178-.416-.376-.198-.199-.376-.416t-.334-.45-.288-.481-.24-.507-.19-.528q-.08-.269-.135-.544t-.083-.555-.027-.56.027-.56q.028-.28.083-.555.054-.275.136-.544.081-.268.189-.528.107-.259.24-.506.132-.248.288-.481.156-.234.334-.45.178-.218.376-.416.199-.199.416-.377t.45-.334.481-.288q.248-.133.507-.24.26-.107.528-.189.269-.081.544-.136.276-.055.555-.083.28-.027.56-.027t.56.027.555.083.544.136q.268.082.528.189t.507.24.48.288.451.334.416.377.376.415.334.45q.156.234.289.482t.24.506.188.528.137.544q.054.276.082.555.027.28.027.56"/></svg>