<svg xmlns="http://www.w3.org/2000/svg" viewBox="0 0 110 110"><path fill="#288034" d="M54.635 46.61q-8.647-9.824-1.068-17.161 3.481-3.37 13.288-6.768.845-.293 1.237-.431.165-.058.336-.1.17-.042.344-.067t.349-.033q.175-.007.35.002t.349.036.343.07.335.103.323.136.309.167q.15.09.29.196.14.105.27.223t.247.25.22.271.194.292q.09.151.164.31.074.16.133.325.148.42.188.865.038.414.123 1.304.991 10.332-.624 14.9-3.518 9.944-16.05 6.17-.478-.144-.899-.414-.42-.27-.751-.646m5.362-4.719-2.681 2.36 1.03-3.42q6.009 1.81 7.255-1.713 1.088-3.078.248-11.836-.087-.909-.126-1.342l3.556-.322 1.188 3.369q-.41.144-1.273.443-8.313 2.88-10.659 5.151-2.684 2.6 1.462 7.31"/><path fill="#319e40" d="M57.316 44.25c-10.307-11.71 4.283-15.924 11.963-18.632.734 8.111 2.974 23.131-11.963 18.633"/><path fill="#288034" d="M56.263 48.164q12.83-2.576 15.395 7.656 1.178 4.7-.782 14.892-.17.878-.245 1.287-.033.172-.082.34t-.114.332-.146.318q-.08.156-.177.303-.095.147-.205.284t-.232.262q-.123.126-.257.239-.135.113-.28.212-.144.1-.298.184t-.315.153-.329.122-.339.09q-.171.036-.346.055t-.35.021-.35-.013-.347-.047q-.439-.082-.844-.27-.377-.174-1.19-.545-9.444-4.308-12.591-7.99-6.854-8.02 2.68-16.985.364-.343.809-.572.444-.23.935-.328m1.405 7.003-.703-3.501 2.447 2.601q-4.572 4.3-2.144 7.14 2.121 2.481 10.126 6.133.83.379 1.225.561l-1.5 3.242-3.51-.656q.08-.427.252-1.324 1.662-8.64.869-11.806-.909-3.625-7.062-2.39"/><path fill="#319e40" d="M56.965 51.666c15.296-3.07 11.65 11.671 10.155 19.677-7.392-3.42-21.519-8.99-10.155-19.677"/><path fill="#288034" d="M54.103 48.797q-4.185 12.4-14.328 9.505-4.66-1.33-12.506-8.124-.675-.585-.991-.855-.134-.114-.255-.241t-.23-.265q-.108-.138-.203-.285-.094-.148-.173-.305-.08-.156-.144-.32-.063-.163-.11-.332-.048-.17-.079-.342-.03-.173-.044-.348-.013-.174-.01-.35.004-.175.025-.35.02-.174.059-.345.037-.171.092-.338.054-.167.125-.328.07-.16.156-.313t.187-.297.214-.277q.29-.34.656-.596.34-.24 1.068-.759 8.452-6.024 13.215-6.908 10.37-1.927 13.369 10.813.114.487.09.986-.023.5-.183.974m-6.768-2.284 3.384 1.142-3.476.818q-1.438-6.109-5.112-5.427-3.21.597-10.374 5.703-.743.53-1.099.78l-2.057-2.919 2.323-2.712q.33.283 1.02.88 6.652 5.76 9.791 6.655 3.593 1.026 5.6-4.92"/><path fill="#319e40" d="M50.72 47.655c-4.99 14.781-15.934 4.253-22.12-1.045 6.658-4.69 18.546-14.14 22.12 1.045"/><path fill="#288034" d="M55.584 43.324q1.2-7.808 8.537-13.4.084-.063.173-.119.09-.055.185-.101.094-.046.193-.083.098-.037.2-.064t.206-.044q.104-.016.209-.023t.21-.003.21.018.207.038.202.059.195.078.187.096.176.115.164.131.15.147q.073.077.136.16.064.085.12.174.055.09.101.184.046.095.083.193.037.1.064.2.027.103.043.207.017.104.024.209t.003.21-.018.21-.039.206-.058.202-.078.196-.097.186-.114.177-.131.164-.147.15-.161.136q-5.962 4.544-6.9 10.642-.016.104-.042.206t-.062.201q-.036.1-.081.194-.046.095-.1.185t-.118.174-.134.162q-.072.078-.15.148t-.163.133-.176.116-.186.098q-.095.044-.194.08-.1.034-.202.06-.102.024-.206.04-.105.014-.21.019t-.21-.002q-.105-.005-.21-.021-.103-.016-.205-.042t-.201-.063-.194-.081-.185-.1-.174-.118-.162-.134-.148-.15-.132-.163-.116-.175-.098-.186-.08-.195-.06-.202-.04-.206-.02-.21.002-.21.022-.209m3.05 7.305q6.161 4.944 7.336 14.094.013.104.016.21.003.105-.004.21t-.025.208-.045.206-.065.2-.084.192-.103.184-.12.172q-.064.084-.137.16-.072.077-.151.146-.08.07-.165.13-.086.061-.177.114-.092.052-.188.095t-.196.077-.202.057-.207.037q-.105.013-.21.016t-.21-.004-.209-.025-.205-.045-.2-.065-.193-.084-.183-.103-.173-.12-.16-.136-.146-.152-.13-.165-.113-.177-.096-.188-.076-.195-.057-.203q-.024-.103-.037-.207-.954-7.435-5.767-11.296-.082-.066-.157-.14-.076-.073-.143-.154-.068-.08-.128-.168-.059-.086-.11-.179-.05-.092-.092-.189t-.073-.197-.053-.203-.033-.208-.013-.21.008-.21.029-.208.049-.205.068-.199q.04-.097.088-.19.049-.094.106-.182.058-.089.124-.17.065-.083.139-.158t.154-.143.168-.127.179-.11.19-.092.196-.073.204-.054q.103-.021.207-.033.105-.011.21-.012.106-.002.21.008.105.009.209.028.103.02.204.049t.199.069.191.087q.093.05.182.107.088.057.17.123m-7.851-1.01q-7.362 2.863-15.874-.695-.097-.04-.19-.09-.092-.05-.18-.109-.087-.059-.168-.126t-.155-.142q-.075-.074-.141-.156-.067-.081-.125-.17-.058-.087-.107-.18-.05-.093-.09-.19-.04-.098-.07-.199-.03-.1-.05-.204t-.03-.208-.01-.21.011-.21.031-.208.052-.204.072-.197.09-.19.109-.18.126-.169q.067-.08.141-.155.075-.074.157-.14.081-.067.17-.125.087-.059.18-.108.093-.05.19-.09.098-.04.198-.07.101-.03.205-.05t.208-.03.21-.01.21.011.208.032.203.052q.101.03.198.071 6.916 2.891 12.667.654.098-.038.2-.066.1-.029.204-.047t.209-.026.21-.006.21.015.207.035.203.056.196.075.188.094.178.112.167.129.152.144.138.159.122.172.104.182.086.192.066.2.047.205.026.208.006.21-.015.21-.035.208-.056.203-.075.196-.094.188-.112.178-.129.166-.144.153-.16.138-.17.121q-.09.057-.183.104-.094.048-.192.086"/></svg>