<svg xmlns="http://www.w3.org/2000/svg" viewBox="0 0 110 110"><path fill="#c7a138" d="M55 33.571Q57.857 45 69.286 47.857 57.857 50.714 55 62.143q-2.857-11.429-14.286-14.286Q52.143 45 55 33.571"/><path fill="#a1822d" d="M57.079 33.052q2.545 10.18 12.726 12.726.103.026.202.061t.194.08.186.1q.09.054.174.116.085.063.163.134.078.07.149.148t.133.163.117.175.1.185.08.194.061.201q.026.103.041.207t.021.209q.005.105 0 .21t-.02.21-.041.206q-.036.14-.09.275-.053.135-.125.26-.071.127-.159.242-.088.116-.19.218-.103.103-.218.19t-.242.16-.26.125-.276.089q-10.18 2.545-12.726 12.727-.026.102-.061.2-.036.1-.08.195t-.1.186q-.054.09-.116.175t-.134.162-.148.149q-.078.07-.163.133-.084.063-.175.117t-.185.1-.194.08-.201.061-.207.041-.209.021-.21 0-.21-.02q-.104-.016-.206-.041-.14-.035-.275-.09-.135-.053-.26-.124-.127-.072-.242-.16-.116-.087-.218-.19-.103-.102-.19-.218-.088-.115-.16-.241-.071-.127-.125-.261-.054-.135-.089-.275-2.545-10.182-12.726-12.727-.103-.026-.202-.061t-.194-.08-.186-.1q-.09-.053-.174-.116-.085-.063-.163-.133t-.149-.15q-.07-.077-.133-.162-.063-.084-.117-.174t-.1-.186q-.044-.095-.08-.194-.035-.1-.061-.201t-.041-.207q-.016-.104-.021-.209t0-.21.02-.21q.016-.103.041-.206.036-.14.09-.275.053-.135.125-.26.071-.127.159-.242.088-.116.19-.218.103-.103.218-.19t.242-.16.26-.125.276-.089q10.18-2.545 12.726-12.726.026-.102.061-.202.036-.099.08-.194t.1-.185.116-.175.134-.163q.07-.078.148-.149t.163-.133.175-.117.185-.1q.095-.044.194-.08.1-.035.201-.061t.207-.041q.104-.016.209-.02.105-.006.21 0 .105.004.21.02.104.015.206.04.14.036.275.09.135.053.26.125.127.071.242.159.116.088.218.19.103.103.19.218t.16.242.125.26.089.276m-4.158 1.04 2.079-.52 2.079.52q-3.17 12.675-15.845 15.844l-.52-2.079.52-2.079q12.676 3.17 15.845 15.845l-2.079.52-2.079-.52q3.17-12.676 15.845-15.845l.52 2.08-.52 2.078Q56.09 46.767 52.921 34.091"/></svg>