<svg xmlns="http://www.w3.org/2000/svg" viewBox="0 0 110 110"><path fill="#955728" d="m83.489 65.372-4.477 3.552q-.155.123-.325.224-.17.1-.354.176t-.374.126q-.192.05-.388.073-.197.024-.395.02-.198-.005-.394-.036-.195-.032-.384-.09-.19-.058-.37-.142l-5.79-2.7 1.208-2.59 2.238-1.775 3.552 4.476q.088.11.164.228t.14.243q.064.124.116.255.051.13.09.266.038.134.063.273.025.138.037.278t.01.28-.02.28q-.015.139-.045.276t-.073.271-.098.262-.124.252-.148.238-.171.222-.192.205-.21.185l-11.191 8.88q-.11.087-.228.163t-.243.14-.255.116-.266.09-.273.064-.278.037q-.14.011-.28.009-.14-.003-.28-.019t-.276-.045q-.138-.03-.271-.073-.134-.043-.263-.099-.128-.056-.251-.124t-.238-.148-.223-.17-.204-.192-.185-.211L46.474 60.094q-.088-.11-.164-.228t-.14-.242-.116-.256-.09-.265q-.038-.135-.063-.273t-.037-.278-.009-.28.018-.28.046-.277.073-.27.098-.263.124-.252.148-.238.171-.222.192-.205.21-.185l6.715-5.328 1.776 2.238.977 2.685-8.49 3.09q-.21.077-.43.12-.219.042-.442.05-.224.009-.445-.018-.222-.027-.437-.087-.216-.061-.419-.155-.203-.093-.389-.217t-.35-.275-.303-.327l-18.649-23.5q-.087-.11-.163-.227t-.14-.243-.116-.256-.09-.265-.064-.273-.036-.278-.01-.28.019-.28.046-.277.072-.27.1-.263.123-.252.148-.238.17-.222q.092-.107.193-.205.1-.097.21-.185l17.905-14.208q.11-.087.228-.163t.243-.14.255-.116.266-.09.273-.064.278-.036.28-.01.28.019.276.045.271.073.263.099.251.124.238.148.223.17.204.192.185.211l5.328 6.714q.219.276.364.596l4.866 10.729-2.602 1.18-1.776-2.238 2.238-1.776q.11-.088.228-.164t.243-.14.255-.116.266-.09.273-.063.278-.037.28-.009.28.018.277.046.27.073.263.098.251.124.238.149.223.17.204.192.185.21l23.089 29.096q.087.11.163.228t.14.243.116.255.09.265.064.274q.025.138.036.277.012.14.01.28-.003.141-.019.28t-.046.277-.072.27q-.043.135-.1.263-.055.13-.123.252-.068.123-.148.238t-.17.222q-.092.107-.193.205-.1.098-.21.185m-3.552-4.476 1.776 2.238-2.238 1.776-23.089-29.095 2.238-1.776 1.776 2.238-2.238 1.776q-.275.218-.596.364-.127.058-.26.103t-.27.077-.276.05-.28.023-.28-.004-.278-.032-.274-.06q-.136-.035-.267-.085-.132-.05-.258-.111-.125-.062-.245-.136-.119-.074-.23-.16-.112-.085-.214-.181-.103-.096-.195-.202-.093-.105-.175-.22-.081-.113-.152-.235t-.128-.249l-4.866-10.728 2.602-1.18-2.238 1.775-5.328-6.714 2.238-1.776 1.776 2.238-17.905 14.208-1.776-2.238 2.238-1.776 18.649 23.5-2.238 1.776-.977-2.685 8.49-3.09q.21-.076.43-.119.219-.043.442-.051t.445.018.437.088.418.154.39.218q.185.123.35.275.164.151.303.326.087.11.163.228t.14.243.116.255.09.266.064.273.037.278.009.28-.019.28-.045.277-.073.27-.099.263-.124.251-.148.238-.17.223-.192.204-.211.185l-6.714 5.328-1.776-2.238 2.238-1.776 15.096 19.024-2.238 1.776-1.776-2.238 11.19-8.88 1.776 2.238-2.238 1.776-3.552-4.476q-.123-.155-.223-.326-.1-.17-.177-.353t-.126-.375-.073-.388-.02-.395.036-.393q.032-.196.09-.385.058-.19.142-.369.06-.127.13-.248.072-.12.155-.234.083-.113.177-.218.094-.104.197-.199t.216-.179.232-.157.247-.133.258-.11q.132-.047.268-.082t.275-.056q.138-.022.279-.03.14-.007.28 0 .14.005.28.025.138.02.274.053.137.034.27.08.132.047.259.106l5.79 2.7-1.208 2.59-1.776-2.238z"/><path fill="#b86c32" d="m81.713 63.134-4.477 3.552-5.79-2.7 3.552 4.476-11.19 8.88-15.096-19.024 6.714-5.328-8.49 3.09-18.649-23.5 17.905-14.208 5.328 6.714 4.866 10.729 2.238-1.776z"/><path fill="#955728" d="M41.497 34.864q-.222-.28-.501-.058-.28.222-.058.502 1.11 1.398 2.509.288.58-.46.664-1.194.084-.735-.375-1.314-.055-.07-.098-.147-1.586-2.862-4.45-1.277-2.862 1.585-1.278 4.448.051.092.083.193.032.1.044.205t.003.21-.038.207-.077.195-.114.176-.147.15q-.08.069-.173.12t-.193.083-.205.044-.21.003-.207-.038-.195-.077q-.094-.049-.176-.114-.083-.066-.15-.147-.069-.08-.12-.173-2.62-4.737 2.116-7.36t7.361 2.113l-.937.52.84-.666q2.441 3.077-.636 5.519t-5.52-.635q-1.554-1.959.405-3.513 1.958-1.554 3.512.405.066.082.114.176t.077.195.038.207-.004.21-.044.205-.084.193-.12.173-.15.146-.177.114-.195.077-.207.037q-.105.01-.21-.003-.105-.012-.205-.044-.1-.033-.193-.084-.092-.051-.172-.12-.08-.068-.147-.15"/></svg>