<svg xmlns="http://www.w3.org/2000/svg" viewBox="0 0 110 110"><path fill="#eee" d="M37.234 51.73q2.227-8.757 13.894-21.639 13.995 7.289 21.638 13.894-6.087 14.767-13.894 21.638-13.565-5.315-21.638-13.894"/><path fill="#c1c1c1" d="M35.158 51.201q2.358-9.272 14.382-22.548.118-.13.256-.24.139-.11.293-.196.154-.085.32-.145.167-.059.34-.09.175-.031.351-.033.177-.003.351.024t.342.082.325.136q14.217 7.404 22.049 14.173.127.11.235.237.108.128.195.272.087.143.15.298.065.155.103.318.04.163.052.33.013.167 0 .334t-.052.33q-.04.164-.103.318-6.277 15.23-14.46 22.43-.11.097-.232.179-.122.08-.255.144-.132.064-.272.109t-.285.07-.291.031-.293-.009-.289-.049-.28-.088q-14.013-5.49-22.416-14.42-.072-.077-.137-.16-.064-.084-.12-.173-.055-.09-.102-.184t-.084-.192-.065-.2-.045-.206-.025-.209-.003-.21q.003-.105.016-.21.014-.104.037-.206.024-.103.058-.203.033-.1.076-.196.044-.096.096-.187t.114-.177q.06-.085.13-.165t.146-.151.16-.137q.083-.064.172-.12.09-.056.184-.102.094-.047.193-.084.098-.038.2-.065t.205-.045.21-.025q.104-.007.21-.004.105.004.21.017.103.014.206.037.103.024.202.058.1.033.196.076.096.044.187.096.092.052.177.114.086.06.165.13t.152.146q7.743 8.228 20.859 13.367l-.782 1.995-1.416-1.609q7.433-6.54 13.328-20.846l1.982.817-1.402 1.621q-7.453-6.441-21.226-13.614l.99-1.9 1.588 1.438q-11.31 12.487-13.405 20.727-.026.102-.062.201-.035.1-.08.194-.046.095-.1.186-.055.09-.118.174t-.134.162-.15.148-.162.133-.176.116-.185.099-.195.08q-.1.035-.201.06-.103.025-.207.04t-.21.02q-.104.005-.21 0-.105-.006-.209-.022t-.206-.042-.2-.062-.195-.081q-.095-.045-.185-.1-.09-.054-.174-.117-.085-.063-.162-.134-.078-.071-.149-.15-.07-.078-.132-.163-.063-.084-.117-.175-.053-.09-.098-.186-.045-.095-.08-.194-.035-.1-.06-.202t-.04-.206-.02-.21 0-.21.022-.209.042-.206"/></svg>