<svg xmlns="http://www.w3.org/2000/svg" viewBox="0 0 110 110"><path fill="#b86c32" d="M53.128 77.214 45.56 51.982l6.859-15.969-8.074-8.579.684-6.352 3.264 5.492 13.565 5.314-3.593 21.46 16.145 17.16-11.072 1.38z"/><path fill="#955728" d="m51.075 77.83-7.567-25.232q-.108-.361-.087-.738t.17-.723l6.859-15.97 1.969.846-1.561 1.469-8.073-8.58q-.159-.168-.278-.367t-.193-.419-.099-.45 0-.46l.683-6.353q.011-.105.033-.208.021-.103.053-.203.031-.1.072-.198.042-.097.092-.189t.11-.18.127-.167.142-.155.157-.14.17-.123.182-.107.19-.088.2-.069.204-.05.208-.028.21-.009.21.013q.248.026.483.11.236.082.446.217t.383.314.3.394l3.265 5.492-1.842 1.095.782-1.995 13.565 5.314q.17.067.327.161.156.095.295.215t.254.262.206.3q.09.16.152.332t.094.352.033.364-.03.363l-3.593 21.46-2.113-.353 1.56-1.469 16.146 17.158q.073.077.137.16.064.084.12.173.056.09.103.184t.084.192.064.2q.028.102.045.206.018.104.025.209t.004.21-.017.21-.037.207-.057.202-.077.196-.096.187-.113.177q-.062.086-.13.165-.07.08-.147.151-.248.234-.556.38-.309.144-.647.186l-11.072 1.38-.265-2.127.991 1.9-10.211 5.327q-.094.05-.191.088-.098.04-.199.07-.101.029-.204.048-.104.02-.209.03-.105.008-.21.007-.105 0-.21-.012-.104-.012-.208-.033-.103-.022-.203-.053-.1-.032-.197-.073t-.19-.092q-.092-.05-.179-.11t-.167-.127-.155-.143-.14-.157-.123-.17-.106-.181q-.094-.18-.153-.376m4.105-1.232-2.052.616-.992-1.9 10.212-5.328q.342-.178.726-.226l11.072-1.38.265 2.127-1.56 1.468-16.147-17.158q-.17-.18-.294-.395-.124-.214-.196-.451t-.088-.485.025-.491l3.594-21.46 2.113.353-.782 1.995-13.564-5.314q-.333-.13-.605-.362-.273-.231-.456-.538l-3.264-5.492 1.842-1.095 2.13.23-.683 6.351-2.13-.229 1.56-1.468 8.073 8.579q.107.113.196.24.09.129.159.268.07.139.119.287t.076.3.031.31-.013.31-.058.305-.101.294l-6.859 15.969-1.969-.846 2.053-.615z"/></svg>