<svg xmlns="http://www.w3.org/2000/svg" viewBox="0 0 110 110"><path fill="#333" d="m61.7 38.462 11.578 18.031-18.031 11.578L43.669 50.04z"/><path fill="#292929" d="m42.51 48.237 18.032-11.578q.089-.057.183-.105.093-.048.191-.087t.2-.067.205-.047.208-.027.21-.007q.106.002.21.014.105.013.208.035.102.023.203.055.1.032.196.074.097.042.189.094.092.051.178.111t.167.128q.08.069.153.145t.138.158.122.171l11.578 18.032q.057.088.105.182t.086.192.068.199.047.205.027.208.007.21q-.002.106-.015.21-.012.105-.034.208t-.055.203-.074.196-.094.189-.111.178-.129.167-.144.153q-.075.073-.158.138t-.171.123L56.404 69.874q-.088.057-.182.105t-.192.087-.199.067-.205.047-.208.027-.21.007q-.106-.002-.21-.014-.105-.013-.208-.035t-.203-.055q-.1-.032-.196-.074-.097-.042-.189-.094-.092-.051-.178-.111-.087-.06-.167-.128-.08-.069-.153-.144-.073-.076-.138-.159-.066-.082-.123-.171L41.866 51.198q-.057-.089-.105-.183t-.087-.191-.067-.2-.047-.205q-.019-.103-.027-.208t-.007-.21.014-.21.035-.208q.022-.102.055-.203.032-.1.074-.196.042-.097.094-.189.05-.092.111-.178.06-.087.128-.167.069-.08.144-.153.076-.073.159-.138.082-.066.17-.122m18.545-6.814L46.63 50.685l9.262 14.425 14.425-9.262z"/><path fill="#aaa" d="m46.813 28.497 3.86 6.01-6.01 3.86-3.86-6.01z"/><path fill="#aaa" d="m39.645 30.553 6.01-3.86q.09-.056.183-.104t.192-.086q.097-.039.199-.068.101-.028.205-.047t.208-.027.21-.006.21.014.208.034q.102.023.203.055.1.033.196.075.097.042.189.093t.178.111.167.129.153.144.138.158.122.171l3.86 6.01q.057.09.105.183.047.094.086.192t.067.199q.029.101.048.205.018.103.027.208.008.105.006.21-.002.106-.014.21-.012.105-.035.208-.022.103-.055.203-.032.1-.074.197-.042.096-.093.188-.052.092-.112.178-.06.087-.128.167t-.144.153-.158.138q-.083.066-.172.123l-6.01 3.859q-.089.057-.182.105-.094.048-.192.086-.098.039-.2.067-.1.03-.204.048t-.209.027-.21.006-.21-.014-.207-.034-.203-.055-.197-.075-.188-.093-.179-.111-.166-.129-.154-.144-.138-.158-.122-.171l-3.86-6.01q-.056-.09-.104-.183-.048-.094-.087-.192t-.067-.2q-.028-.1-.047-.204t-.027-.209-.007-.21.014-.21q.013-.104.035-.207t.055-.203q.032-.1.074-.197.042-.096.094-.188.051-.092.111-.179.06-.086.128-.166.069-.08.144-.153.076-.073.159-.139.082-.065.171-.122m6.523.905-2.404 1.544 1.543 2.404 2.405-1.544z"/><path fill="#c88a5a" d="M54.753 27.643 61.7 38.462 43.67 50.04l-6.947-10.82z"/><path fill="#a27049" d="M35.564 37.418 53.596 25.84q.088-.057.182-.105t.192-.086.199-.068.205-.047.208-.027.21-.007q.106.002.21.015.105.012.208.034t.203.055.196.074q.097.043.189.094t.178.111q.087.06.167.129.08.068.153.144t.138.158.123.171l6.946 10.82q.057.088.105.181.048.094.087.192t.067.2q.028.1.047.204t.027.209.007.21-.014.21q-.013.104-.035.207t-.055.203q-.032.1-.074.197-.042.096-.094.188-.051.092-.111.179-.06.086-.128.166-.069.08-.145.153-.075.074-.158.139-.082.065-.171.122L44.826 51.843q-.088.057-.182.105t-.192.086-.199.067q-.101.03-.205.048t-.208.027-.21.006-.21-.014-.208-.035q-.103-.022-.203-.054-.1-.033-.196-.075-.097-.042-.189-.093t-.178-.112-.167-.128-.153-.144-.138-.158q-.066-.083-.122-.171l-6.947-10.82q-.057-.088-.105-.182-.048-.093-.086-.191-.039-.098-.068-.2-.028-.1-.047-.204t-.027-.21-.007-.21.015-.21q.012-.104.034-.207.023-.102.055-.202t.074-.197.094-.189.111-.178q.06-.086.129-.167.068-.08.144-.153t.158-.138.171-.122m18.544-6.814-14.425 9.262 4.631 7.213 14.425-9.263z"/></svg>