<svg xmlns="http://www.w3.org/2000/svg" viewBox="0 0 110 110"><path fill="#ff94c9" d="m62.719 35.836 6.55 12.695-7.718 12.021-14.27-.674-6.55-12.695 7.718-12.02z"/><path fill="#cf78a3" d="m64.623 34.853 6.551 12.695q.13.251.19.527.06.275.046.557t-.099.55q-.086.27-.238.507l-7.719 12.02q-.152.238-.36.428-.21.19-.46.32-.25.129-.526.189t-.558.047l-14.27-.674q-.282-.014-.55-.1-.269-.085-.506-.238-.238-.152-.428-.36-.19-.21-.319-.46l-6.551-12.695q-.13-.25-.19-.527-.06-.275-.046-.557t.099-.55q.086-.27.238-.507l7.719-12.02q.152-.238.36-.428.21-.19.46-.32.25-.129.526-.189t.558-.046l14.27.674q.282.013.55.099t.506.238.428.361.319.46m-3.809 1.966 1.905-.983-.102 2.14-14.27-.673.102-2.14 1.803 1.157-7.719 12.02-1.803-1.157 1.904-.983 6.552 12.695-1.905.983.102-2.14 14.27.674-.102 2.14-1.803-1.158 7.719-12.02 1.803 1.157-1.904.983z"/><path fill="#cf78a3" d="m58.087 43.049 2.44 6.259-5.198 4.254-5.653-3.63 1.705-6.497z"/><path fill="#cf78a3" d="m60.084 42.27 2.44 6.26q.06.156.097.321.036.165.045.333.01.169-.007.337-.016.167-.06.33-.042.164-.11.318t-.159.296-.203.268-.243.233l-5.198 4.254q-.13.107-.276.192t-.303.146-.322.098-.333.045q-.169.01-.336-.007-.168-.017-.331-.06-.164-.042-.318-.11t-.296-.159l-5.653-3.63q-.142-.09-.268-.203-.126-.112-.232-.242-.107-.131-.192-.277-.085-.145-.147-.302-.06-.157-.097-.322-.036-.165-.045-.333-.01-.169.007-.337.016-.167.06-.33l1.704-6.498q.043-.163.11-.318.069-.154.16-.296t.203-.268.243-.232q.13-.107.276-.192t.303-.147q.157-.06.322-.097.164-.036.333-.045l6.706-.387q.169-.01.336.007.168.017.331.06t.318.11.296.16.268.203.233.243.192.276.146.302m-3.993 1.557 1.996-.778.124 2.139-6.707.386-.123-2.14 2.073.545-1.705 6.497-2.073-.544 1.158-1.803 5.652 3.63-1.157 1.803-1.358-1.658 5.199-4.255 1.357 1.659-1.996.778z"/></svg>