<svg xmlns="http://www.w3.org/2000/svg" viewBox="0 0 110 110"><path fill="#111" d="M76.429 47.857q0 .526-.026 1.052-.026.525-.078 1.048-.051.524-.128 1.044t-.18 1.037q-.103.516-.23 1.026-.128.51-.281 1.013-.153.504-.33 1-.177.494-.379.98-.2.486-.426.962t-.473.94q-.248.463-.518.915-.27.45-.563.888t-.605.86q-.314.423-.647.83-.334.406-.687.796t-.726.761-.761.726-.797.687-.829.647-.86.605q-.437.293-.889.563-.45.27-.915.518-.464.248-.94.473t-.96.427q-.487.2-.982.378-.495.177-.999.33-.503.153-1.013.28t-1.027.23q-.515.104-1.036.18-.52.078-1.044.13-.523.051-1.049.077T55 69.286t-1.051-.026-1.05-.077-1.043-.13-1.036-.18-1.027-.23-1.013-.28q-.504-.153-1-.33-.494-.177-.98-.378-.486-.202-.962-.427-.475-.225-.94-.473-.463-.248-.914-.518-.452-.27-.89-.563-.436-.292-.859-.605-.422-.314-.83-.647-.406-.334-.796-.687t-.761-.726-.726-.761-.687-.797-.647-.829-.605-.86-.563-.888q-.27-.452-.518-.916-.248-.463-.473-.939t-.426-.962-.379-.98-.33-1-.28-1.013q-.128-.51-.23-1.026T33.803 51t-.13-1.044-.077-1.048-.026-1.052.026-1.051.078-1.05.128-1.043.18-1.036.23-1.027.281-1.013.33-.999.379-.981.426-.962.473-.94q.248-.463.518-.914.27-.452.563-.889t.605-.86q.314-.422.647-.829.334-.407.687-.796t.726-.762.761-.725q.39-.354.797-.687t.829-.647.86-.606.889-.563q.45-.27.915-.518.464-.248.94-.473t.96-.426.982-.379.999-.33 1.013-.28 1.027-.23q.515-.103 1.036-.18.52-.078 1.044-.13.523-.05 1.049-.077.525-.025 1.051-.025t1.051.025q.526.026 1.05.078.523.051 1.043.129.52.077 1.036.18.516.102 1.027.23t1.013.28 1 .33q.494.177.98.379.486.201.962.426.475.225.94.473.463.248.914.518.452.27.89.563.436.292.859.606.422.313.83.647.406.333.796.687.39.353.761.725.372.372.726.762.353.39.687.796.333.407.647.83.313.422.605.859t.563.889.518.915.473.94.426.96.379.982.33.999.28 1.013.23 1.027.18 1.036q.078.52.13 1.044.051.523.077 1.049t.026 1.051m0 0h-4.286q0-.42-.02-.841-.021-.42-.063-.84-.041-.418-.103-.834-.061-.417-.144-.83-.082-.412-.184-.82t-.224-.811-.264-.8q-.142-.395-.303-.784t-.341-.77-.378-.751q-.199-.371-.415-.732t-.45-.71-.485-.689-.517-.663-.55-.637-.58-.61-.61-.58-.637-.55-.663-.517-.688-.485-.71-.45-.733-.415-.751-.378-.77-.34q-.389-.162-.785-.304-.396-.141-.799-.264-.402-.122-.81-.224t-.822-.184-.829-.144-.835-.103-.839-.062q-.42-.02-.841-.02-.42 0-.841.02-.42.02-.84.062-.418.041-.834.103-.417.062-.83.144-.412.082-.82.184-.409.102-.811.224t-.8.264q-.395.142-.784.303-.39.161-.77.341t-.751.378-.732.415-.711.45-.688.485q-.338.25-.663.518-.326.266-.637.55-.312.282-.61.58-.297.297-.58.609-.283.311-.55.637-.267.325-.517.663t-.485.688-.45.71-.415.733-.378.752-.341.769-.303.785-.264.799-.224.81-.184.822-.144.829-.103.835-.062.839-.02.841.02.841q.02.42.062.84.041.418.103.834.061.417.144.83.082.412.184.82.102.409.224.811t.264.8q.142.396.303.784.161.39.341.77t.378.751.415.732.45.711.485.688.517.663.55.638.58.609.61.58.637.55.663.517.688.485.71.45.733.415.751.378.77.341.785.303.799.264.81.224.822.185.829.143.835.103.839.062T55 65q.42 0 .841-.02.42-.02.84-.062.418-.04.834-.103.417-.061.83-.143.412-.082.82-.185.409-.102.811-.224t.8-.264q.395-.142.784-.303.39-.161.77-.34t.751-.38q.371-.198.732-.414t.711-.45.688-.485.663-.517q.326-.267.637-.55.312-.283.61-.58.297-.298.58-.61.283-.311.55-.637.267-.325.517-.663t.485-.688.45-.71.415-.733.378-.751.341-.77.303-.785.264-.799.224-.81.184-.822.144-.829.103-.835.062-.839.02-.84z"/></svg>