<svg xmlns="http://www.w3.org/2000/svg" viewBox="0 0 110 110"><path fill="#fff" fill-opacity=".698" fill-rule="evenodd" d="m40.936 62.081 23.365 4.899.16.03q.173.028.348.039t.35.005.35-.03.344-.063.337-.097.326-.13.311-.16.294-.191.274-.219.251-.244.227-.268.198-.289.17-.306.139-.322q.061-.165.106-.334.045-.17.073-.343l2.964-18.212q.058-.355.044-.714-.014-.36-.1-.71-.086-.349-.24-.674-.153-.326-.369-.614l-11.93-15.956q-.447-.598-1.096-.967-.153-.087-.313-.158t-.327-.126-.338-.094-.345-.06-.35-.027-.35.008-.348.043-.342.076-.333.11-.32.141q-.157.08-.306.173-.148.094-.286.201-.139.108-.266.23-.127.12-.242.253-.115.132-.216.276-.101.143-.188.296l-9.55 16.813q-.128.226-.223.469L38.341 57.29q-.107.275-.167.563-.036.171-.055.346t-.021.35.014.35.047.347q.033.173.082.341.05.168.115.331t.146.319.177.302.206.284.233.262.257.238.28.212q.144.098.298.183t.316.153q.161.069.328.121.168.053.34.089m24.672-2.125 2.39-14.683-9.596-12.835-2.334-3.122-1.925 3.39-7.625 13.424-3.535 9.082-1.314 3.374 3.544.742 16.322 3.423 3.5.733z"/><path fill="#fff" fill-opacity=".486" d="M65.034 63.484 41.67 58.586l4.849-12.456 9.55-16.814 11.93 15.957z"/></svg>