<svg xmlns="http://www.w3.org/2000/svg" viewBox="0 0 110 110"><path fill="#fff" d="M73.032 36.28q.284.442.546.898t.502.924q.239.469.455.948.216.48.409.97t.36.987.312 1.005.262 1.019.212 1.03.16 1.04q.068.52.11 1.045t.058 1.05q.017.526.007 1.052T76.38 49.3t-.096 1.047-.148 1.042q-.087.518-.199 1.032-.112.515-.25 1.022-.136.508-.298 1.009t-.348.992-.397.974q-.21.483-.443.954-.234.471-.49.93-.257.46-.535.906-.279.446-.58.878t-.62.85-.662.816-.702.784-.739.748-.775.712-.808.672-.841.632-.871.59-.899.546-.924.502q-.469.24-.948.455-.48.216-.97.409-.489.192-.987.36-.499.169-1.005.312-.506.144-1.018.262-.513.119-1.03.212-.518.093-1.04.16-.522.068-1.046.11-.525.042-1.05.058-.526.017-1.052.007t-1.05-.045-1.048-.096-1.042-.148-1.032-.199-1.022-.249-1.009-.299-.992-.348-.974-.397q-.483-.21-.954-.443-.471-.234-.93-.49-.46-.257-.906-.535-.446-.279-.878-.579t-.849-.621-.817-.662-.784-.702-.748-.739-.711-.775-.673-.808-.632-.841q-.305-.428-.59-.871 25.75.443 36.063-23.156"/><path fill="none" stroke="#cfcfcf" stroke-linejoin="round" stroke-width="4.286" d="M73.032 36.28q.284.442.546.898t.502.924q.239.469.455.948.216.48.409.97t.36.987.312 1.005.262 1.019.212 1.03.16 1.04q.068.52.11 1.045t.058 1.05q.017.526.007 1.052T76.38 49.3t-.096 1.047-.148 1.042q-.087.518-.199 1.032-.112.515-.25 1.022-.136.508-.298 1.009t-.348.992-.397.974q-.21.483-.443.954-.234.471-.49.93-.257.46-.535.906-.279.446-.58.878t-.62.85-.662.816-.702.784-.739.748-.775.712-.808.672-.841.632-.871.59-.899.546-.924.502q-.469.24-.948.455-.48.216-.97.409-.489.192-.987.36-.499.169-1.005.312-.506.144-1.018.262-.513.119-1.03.212-.518.093-1.04.16-.522.068-1.046.11-.525.042-1.05.058-.526.017-1.052.007t-1.05-.045-1.048-.096-1.042-.148-1.032-.199-1.022-.249-1.009-.299-.992-.348-.974-.397q-.483-.21-.954-.443-.471-.234-.93-.49-.46-.257-.906-.535-.446-.279-.878-.579t-.849-.621-.817-.662-.784-.702-.748-.739-.711-.775-.673-.808-.632-.841q-.305-.428-.59-.871 25.75.443 36.063-23.156Z"/></svg>