<svg xmlns="http://www.w3.org/2000/svg" viewBox="0 0 110 110"><path fill="#1213bd" d="M66.275 66.083c-4.99 3.204-10.796 3.452-16.12 2.35-5.326-1.1-9.872-4.021-13.008-8.906-3.137-4.884-5.167-10.496-3.952-15.796S38.13 33.224 43.12 30.02s11.052-3.455 16.376-2.354 10.494 3.876 13.63 8.76c3.135 4.883 3.86 10.81 2.645 16.11-1.214 5.302-4.507 10.344-9.496 13.547"/><path fill="#fff" d="M62.715 59.872c-3.32 2.132-7.273 3.125-10.845 2.346-3.572-.78-6.287-3.627-8.418-6.946s-2.819-6.805-2.041-10.377 2.751-6.615 6.071-8.746 7.035-3.244 10.607-2.467c3.573.778 7.193 2.885 9.325 6.204s2.14 7.402 1.363 10.974-2.742 6.88-6.062 9.012"/><path fill="#88c9f9" d="M60.063 55.742c-4.426 2.842-10.347 1.759-13.19-2.667-2.84-4.426-1.277-10.129 3.15-12.97 4.425-2.842 9.934-1.681 12.776 2.745 2.841 4.425 1.69 10.05-2.736 12.892"/><path fill="#292f33" d="M58.44 52.828c-2.67 1.715-6.355.918-8.069-1.751s-.796-6.183 1.873-7.897 6.173-1.04 7.887 1.63c1.715 2.67.978 6.304-1.691 8.018"/></svg>