<svg xmlns="http://www.w3.org/2000/svg" viewBox="0 0 110 110"><path fill="#bebe2a" d="m45.225 67.046-3.86 6.01q-.056.09-.121.172-.066.083-.139.158-.073.076-.153.144-.08.069-.166.129t-.179.111-.188.094-.197.074q-.1.032-.203.055-.103.022-.207.034-.105.013-.21.015-.105.001-.21-.007t-.209-.027-.205-.047-.199-.067-.192-.087-.182-.105-.171-.122-.159-.138-.144-.153-.128-.167-.111-.178-.094-.189-.074-.197-.055-.203-.035-.207-.014-.21.007-.21.027-.209.047-.204q.029-.102.067-.2t.087-.191.105-.183l3.859-6.01q.057-.089.122-.171t.138-.159q.074-.075.154-.144t.166-.128.179-.111.188-.094.197-.074.203-.055q.103-.023.207-.035.105-.012.21-.014t.21.007.209.027.205.047.199.067.192.087q.093.048.182.104.088.057.171.123.083.065.158.138.076.073.144.153.069.08.129.167.06.086.111.178t.094.189.074.196.055.203.034.208q.013.104.015.21.002.105-.007.21-.008.105-.027.208-.019.104-.047.205-.029.101-.068.2-.038.097-.086.191t-.105.182"/><path fill="#ebeb34" d="M43.422 65.889c-10.566-15.273 1.012-33.305 23.156-36.063 6.707 21.283-4.871 39.314-23.156 36.063"/><path fill="#bebe2a" d="M41.66 67.108q-8.737-12.63-.73-25.101 7.78-12.115 25.383-14.308.185-.023.371-.014.187.01.369.051t.354.114.329.172q.157.101.294.228.137.126.25.274.114.148.2.314t.142.344q5.331 16.92-2.447 29.034-8.008 12.471-23.128 9.782-.209-.037-.407-.114t-.376-.192-.33-.262-.274-.322m3.524-2.439-1.762 1.22.375-2.11Q56.104 65.968 62.57 55.9q6.693-10.425 1.965-25.43l2.044-.644.265 2.126q-15.612 1.945-22.306 12.37-6.464 10.068.647 20.347"/><path fill="#bebe2a" d="M46.084 57.83q5.299-12.337 13.164-20.478.073-.075.153-.143.08-.069.167-.129.086-.06.178-.11.092-.052.189-.094t.197-.074.203-.055.207-.034.21-.014.21.007.209.027.205.047.199.068q.098.038.191.086.094.048.183.105.088.057.17.123.083.065.159.138t.144.154.128.166.111.179.093.188.075.197.054.203.035.208.013.21-.006.21-.027.208-.048.205-.067.2q-.04.097-.087.19-.048.095-.105.183-.057.089-.122.171-.066.083-.139.158-7.32 7.576-12.308 19.192-.041.096-.092.189-.051.092-.11.178-.06.087-.128.168-.068.08-.143.154-.076.073-.158.139t-.17.123-.182.106q-.094.048-.191.087-.098.04-.2.068-.1.03-.204.049t-.208.028-.21.008q-.106-.002-.21-.013-.105-.012-.208-.034t-.203-.054q-.1-.031-.197-.073t-.19-.092-.178-.11-.168-.128-.153-.144q-.074-.075-.14-.157-.065-.082-.123-.17t-.106-.182-.087-.192-.068-.199q-.03-.1-.049-.204t-.028-.209-.007-.21q.001-.105.013-.21.011-.104.033-.207t.054-.204.073-.197"/></svg>