<svg xmlns="http://www.w3.org/2000/svg" viewBox="0 0 110 110"><clipPath id="a"><rect width="91.667" height="91.667" x="9.167" y="9.167" rx="4.167" ry="4.167"/></clipPath><g clip-path="url(#a)"><path fill="#777" d="m36.608 36.608 26.052-8.104 20.607 19.414-6.801 28.548-29.507 8.828-19.893-22.199z"/><path fill="#606060" d="m35.568 33.266 26.052-8.104q.221-.069.45-.108.228-.039.46-.047.23-.01.461.013.23.022.457.074.225.052.442.133t.421.191.392.245.357.294L85.667 45.37q.168.157.313.335t.266.374q.12.196.215.405.094.21.16.43.065.22.102.447t.043.457-.017.458q-.024.229-.077.453l-6.801 28.547q-.053.223-.135.437t-.19.416q-.11.202-.244.387-.134.186-.292.353t-.335.31-.373.266-.404.214q-.21.093-.429.16l-29.506 8.827q-.238.07-.483.108-.245.036-.493.038-.247.002-.493-.03-.245-.033-.484-.1-.238-.068-.465-.168t-.437-.231-.4-.29-.355-.345L24.459 65.431q-.157-.175-.29-.37-.132-.196-.237-.407t-.18-.434-.122-.455q-.045-.232-.058-.467t.004-.47.068-.466.129-.453l9.542-26.487q.069-.19.159-.372.09-.18.2-.35t.24-.325q.128-.156.274-.296t.308-.262.335-.224.36-.185.377-.142m2.08 6.684-1.04-3.342 3.293 1.186-9.542 26.488-3.293-1.187 2.606-2.335 19.894 22.198-2.607 2.336-1.003-3.354 29.507-8.827 1.003 3.353-3.405-.811 6.802-28.548 3.404.811-2.4 2.548L60.26 31.052l2.4-2.548 1.04 3.342z"/></g></svg>