<svg xmlns="http://www.w3.org/2000/svg" viewBox="0 0 110 110"><clipPath id="a"><rect width="91.667" height="91.667" x="9.167" y="9.167" rx="4.167" ry="4.167"/></clipPath><g clip-path="url(#a)"><path fill="#292929" d="m26.716 26.716 3.11 5.896 2.786-2.786z"/><path fill="#292929" d="m48.743 15.493-.95 6.598 3.892-.616z"/><path fill="#292929" d="m73.16 19.36-4.647 4.78 3.51 1.789z"/><path fill="#292929" d="m90.64 36.84-6.569 1.136 1.789 3.511z"/><path fill="#292929" d="m94.507 61.257-5.982-2.942-.616 3.892z"/><path fill="#292929" d="m83.284 83.284-3.11-5.896-2.786 2.786z"/><path fill="#292929" d="m61.257 94.507.95-6.598-3.892.616z"/><path fill="#292929" d="m36.84 90.64 4.647-4.78-3.51-1.789z"/><path fill="#292929" d="m19.36 73.16 6.569-1.136-1.789-3.511z"/><path fill="#292929" d="m15.493 48.743 5.982 2.942.616-3.892z"/><path fill="#32a852" d="M31.43 31.43q10.617-1.852 18.355-9.353 9.678 4.743 20.348 3.223 5.042 9.525 14.567 14.567-1.52 10.67 3.223 20.347-7.501 7.74-9.353 18.356-10.617 1.852-18.356 9.353-9.677-4.743-20.347-3.223-5.042-9.525-14.567-14.567 1.52-10.67-3.223-20.347 7.501-7.74 9.353-18.356"/><path fill="#288842" d="M31.029 29.131q9.91-1.728 17.132-8.73.065-.062.133-.119.07-.057.142-.109.073-.051.15-.097.076-.046.156-.086t.163-.074.168-.06.172-.049.175-.035.178-.02.178-.008.179.006.178.02q.088.013.175.033t.173.047.168.06q.083.032.163.072 9.033 4.426 18.992 3.008.088-.013.178-.019.089-.005.178-.004.09 0 .179.008t.177.023.175.036.172.05q.085.027.167.062.083.034.162.075.08.04.156.087.077.046.15.099.072.052.14.11.068.057.132.12t.122.13q.06.068.113.14.053.071.1.147.048.075.09.154 4.706 8.89 13.597 13.597.079.042.154.09.076.047.148.1.071.054.139.113.067.058.13.122t.12.132.11.14.099.15.087.156.075.162.063.167q.027.085.049.172.021.087.036.175t.022.177.01.179q0 .089-.005.178-.006.09-.019.178-1.418 9.959 3.008 18.992.04.08.073.163t.06.168q.026.086.046.173t.033.175q.014.089.02.178.007.09.006.179 0 .089-.007.178-.007.09-.021.177-.014.089-.035.176-.02.087-.048.172-.027.085-.061.168t-.074.163-.086.156-.097.15-.11.142q-.056.068-.119.132-7 7.223-8.73 17.133-.014.088-.037.175-.022.086-.05.171t-.064.167-.076.162-.088.155-.1.148-.111.14-.122.131-.13.122q-.069.058-.14.11-.073.053-.149.1t-.155.089-.162.076-.167.064-.171.05q-.087.022-.175.038-9.91 1.728-17.132 8.73-.065.062-.133.119-.07.057-.142.109-.073.051-.15.097-.076.046-.156.086t-.163.074-.168.06-.172.049-.175.035-.178.02-.178.008-.179-.006-.178-.02q-.088-.013-.175-.033t-.173-.047-.168-.06q-.083-.032-.163-.072-9.033-4.426-18.992-3.008-.088.013-.178.019-.089.005-.178.004-.09 0-.179-.008t-.177-.023-.175-.036-.172-.05q-.085-.027-.167-.062-.083-.034-.162-.075-.08-.04-.156-.087-.077-.046-.15-.099-.072-.052-.14-.11-.068-.057-.132-.12t-.122-.13q-.06-.068-.113-.14-.053-.071-.1-.147-.048-.075-.09-.154-4.706-8.89-13.597-13.597-.079-.042-.154-.09-.076-.047-.148-.1-.071-.054-.139-.113-.067-.058-.13-.122t-.12-.132-.11-.14-.099-.15-.087-.156-.075-.162-.063-.167q-.027-.085-.049-.172-.021-.087-.036-.175t-.022-.177-.01-.179q0-.089.005-.178.006-.09.019-.178 1.418-9.959-3.008-18.992-.04-.08-.073-.163t-.06-.168-.046-.173-.033-.175q-.014-.089-.02-.178-.007-.09-.006-.179 0-.089.007-.178.007-.09.021-.177.014-.089.035-.176.02-.087.048-.172.027-.085.061-.168t.074-.163.086-.156.097-.15.11-.142q.056-.068.119-.132 7-7.223 8.73-17.133.014-.088.037-.175.022-.086.05-.171t.064-.167.076-.162.088-.155.1-.148.111-.14.122-.131.13-.122q.069-.058.14-.11.073-.053.149-.1t.155-.089.162-.076.167-.064.171-.05q.087-.022.175-.038m.802 4.597-.401-2.298 2.298.4q-1.975 11.325-9.976 19.58l-1.675-1.624 2.095-1.027q5.059 10.322 3.438 21.703l-2.31-.329 1.091-2.062q10.16 5.378 15.538 15.538L39.867 84.7l-.329-2.31q11.38-1.62 21.703 3.438l-1.027 2.095-1.623-1.675q8.254-8.001 19.578-9.976l.401 2.298-2.298-.4q1.975-11.325 9.976-19.58l1.675 1.624-2.095 1.027Q80.769 50.92 82.39 39.538l2.31.329-1.091 2.062q-10.16-5.378-15.538-15.538l2.062-1.091.329 2.31q-11.38 1.62-21.703-3.438l1.026-2.095 1.624 1.675q-8.254 8.001-19.578 9.976"/></g></svg>