<svg xmlns="http://www.w3.org/2000/svg" viewBox="0 0 110 110"><clipPath id="a"><rect width="91.667" height="91.667" x="9.167" y="9.167" rx="4.167" ry="4.167"/></clipPath><g clip-path="url(#a)"><path fill="#d5c7a6" d="m31.901 31.901 31.554-8.455 23.099 23.1-8.455 31.553-31.554 8.455-23.099-23.1z"/><path fill="none" stroke="#d5c7a6" stroke-linejoin="round" stroke-width="7" d="m31.901 31.901 31.554-8.455 23.099 23.1-8.455 31.553-31.554 8.455-23.099-23.1z"/><path fill="#bfb295" d="m40.15 40.15 20.285-5.434 14.85 14.849-5.436 20.284-20.284 5.435-14.85-14.849z"/><path fill="none" stroke="#bfb295" stroke-linejoin="round" stroke-width="7" d="m40.15 40.15 20.285-5.434 14.85 14.849-5.436 20.284-20.284 5.435-14.85-14.849z"/><path fill="#a99e84" d="m48.4 48.4 9.016-2.415 6.6 6.6L61.6 61.6l-9.016 2.415-6.6-6.6z"/><path fill="none" stroke="#a99e84" stroke-linejoin="round" stroke-width="7" d="m48.4 48.4 9.016-2.415 6.6 6.6L61.6 61.6l-9.016 2.415-6.6-6.6z"/></g></svg>