<svg xmlns="http://www.w3.org/2000/svg" viewBox="0 0 110 110"><clipPath id="a"><rect width="91.667" height="91.667" x="9.167" y="9.167" rx="4.167" ry="4.167"/></clipPath><g clip-path="url(#a)"><path fill="none" stroke="#4d2621" stroke-linecap="round" stroke-linejoin="round" stroke-width="5" d="M53.232 67.374 42.524 83.56l-.623 6.1"/><path fill="none" stroke="#4d2621" stroke-linecap="round" stroke-linejoin="round" stroke-width="5" d="M49.697 63.839 38.862 79.982l-.719 6.027"/><path fill="none" stroke="#4d2621" stroke-linecap="round" stroke-linejoin="round" stroke-width="5" d="m46.161 60.303-14.99 13.138-4.443 2.59"/><path fill="none" stroke="#4d2621" stroke-linecap="round" stroke-linejoin="round" stroke-width="5" d="m42.626 56.768-16.662 7.954-7.43-1.276"/><path fill="none" stroke="#4d2621" stroke-linecap="round" stroke-linejoin="round" stroke-width="5" d="M67.374 53.232 83.56 42.524l6.1-.623"/><path fill="none" stroke="#4d2621" stroke-linecap="round" stroke-linejoin="round" stroke-width="5" d="m63.839 49.697 13.24-14.917 2.681-4.358"/><path fill="none" stroke="#4d2621" stroke-linecap="round" stroke-linejoin="round" stroke-width="5" d="m60.303 46.161 13.138-14.99 2.59-4.443"/><path fill="none" stroke="#4d2621" stroke-linecap="round" stroke-linejoin="round" stroke-width="5" d="m56.768 42.626 13.034-15.063 2.498-4.527"/><path fill="#4d2621" d="M35.201 60.657q-12.02-3.536-7.778-14.85l1.414 5.658 2.121-4.95q.707 9.192 7.071 11.313z"/><path fill="#4d2621" d="M34.919 61.616q-6.417-1.887-8.559-5.975-2.152-4.109.126-10.184.035-.093.087-.176.052-.084.12-.156.066-.072.146-.13.08-.057.17-.098.09-.04.186-.063.095-.022.194-.026.098-.003.196.013.097.016.189.05.114.043.214.112.1.068.181.159.08.09.138.198.056.107.086.225l1.414 5.657-.97.243-.92-.394 2.122-4.95q.039-.09.095-.172.055-.081.126-.15.07-.069.153-.122.083-.054.174-.09.091-.037.188-.055t.196-.017.194.021.187.06q.126.054.233.14.107.085.186.197.08.111.127.24.047.128.057.265.657 8.53 6.39 10.442.094.03.18.08.085.048.16.113.074.065.134.142.06.078.105.166.044.088.07.183t.033.194-.005.196-.044.19q-.075.225-.241.392l-2.829 2.828q-.095.095-.212.162t-.248.1-.265.03-.264-.04m.564-1.918-.282.959-.707-.707 2.828-2.829.707.707-.316.95q-6.994-2.332-7.752-12.187l.997-.076.92.394-2.122 4.95q-.045.106-.114.199t-.157.168-.19.128-.215.08q-.096.025-.194.03-.099.004-.196-.01-.098-.015-.19-.048-.093-.033-.177-.084-.085-.05-.158-.117-.073-.066-.131-.145-.06-.08-.101-.168-.042-.09-.066-.185l-1.414-5.657.97-.242.936.35q-1.964 5.239-.227 8.555 1.748 3.336 7.351 4.985"/><path fill="#4d2621" d="M60.657 35.201q-3.536-12.02-14.85-7.778l5.658 1.414-4.95 2.121q9.192.707 11.313 7.071z"/><path fill="#4d2621" d="M61.616 34.919q-1.887-6.417-5.975-8.559-4.109-2.152-10.184.126-.093.035-.176.087-.084.052-.156.12-.072.066-.13.146-.057.08-.098.17-.04.09-.063.186-.022.095-.026.194-.003.098.013.196.016.097.05.189.043.114.112.214.068.1.159.181.09.08.198.138.107.056.225.086l5.657 1.414.243-.97-.394-.92-4.95 2.122q-.09.039-.172.095-.081.055-.15.126-.069.07-.122.153-.054.083-.09.174-.037.091-.055.188t-.017.196.021.194.06.187q.054.126.14.233.085.107.197.186.111.08.24.127.128.047.265.057 8.53.657 10.442 6.39.03.094.08.18.048.085.113.16.065.074.142.134.078.06.166.105.088.044.183.07t.194.033.196-.005.19-.044q.225-.075.392-.241l2.828-2.829q.095-.095.162-.212t.1-.248.03-.265-.04-.264m-1.918.564.959-.282-.707-.707-2.829 2.828.707.707.95-.316q-2.332-6.994-12.187-7.752l-.076.997.394.92 4.95-2.122q.106-.045.199-.114t.168-.157.128-.19.08-.215q.025-.096.03-.194.004-.099-.01-.196-.015-.098-.048-.19-.033-.093-.084-.177-.05-.085-.117-.158-.066-.073-.145-.131-.08-.06-.168-.101-.09-.042-.185-.066l-5.657-1.414-.242.97.35.936q5.239-1.964 8.555-.227 3.336 1.748 4.985 7.351"/><path fill="#db6f4b" d="M38.737 71.263q.312.313.644.605.331.293.681.565t.718.522.752.48q.384.228.785.434.4.206.815.389t.843.343.87.295.895.248.917.199.937.15.955.1q.481.039.97.052t.984.001.994-.048T52.5 75.5t1.009-.147 1.012-.197 1.014-.245q.507-.134 1.012-.293.506-.158 1.009-.34t1.003-.386.993-.433q.495-.227.983-.476.489-.25.97-.52t.954-.562q.473-.291.936-.603.463-.311.915-.642.453-.33.894-.68.44-.349.869-.715.427-.367.842-.75.414-.384.813-.783.4-.4.783-.813.383-.415.75-.842.366-.428.716-.87.349-.44.68-.893.33-.452.641-.915.312-.463.603-.936t.562-.954q.27-.481.52-.97.25-.488.476-.983.228-.494.433-.993.204-.5.386-1.003t.34-1.009q.159-.505.293-1.012.135-.507.245-1.014.11-.506.197-1.012.086-.506.147-1.009t.098-1.003.048-.994-.001-.984-.051-.97-.1-.955q-.064-.473-.151-.937t-.2-.917q-.11-.453-.247-.895-.136-.441-.295-.87-.16-.429-.343-.843-.183-.415-.39-.815-.205-.4-.434-.785-.229-.384-.479-.752t-.522-.718-.565-.681-.605-.644-.644-.605-.681-.565-.718-.522q-.368-.25-.752-.48-.384-.228-.785-.434-.4-.206-.815-.389t-.843-.343-.87-.295-.895-.248-.917-.199-.937-.15-.955-.1q-.481-.039-.97-.052t-.984-.001-.994.048-1.003.098-1.009.147-1.012.197-1.014.245q-.507.134-1.012.293-.506.158-1.009.34t-1.003.386-.993.433q-.495.227-.983.476-.489.25-.97.52t-.954.562-.936.603-.915.642q-.453.33-.894.68-.44.349-.869.715-.427.367-.842.75-.414.384-.813.783-.4.4-.783.813-.383.415-.75.842-.366.428-.716.87-.349.44-.68.893-.33.452-.641.915-.312.463-.603.936t-.562.954-.52.97-.476.983q-.228.494-.433.993-.204.5-.386 1.003t-.34 1.009-.293 1.012-.245 1.014q-.11.506-.197 1.012-.086.506-.147 1.009t-.098 1.003-.048.994.001.984.051.97.1.955q.064.473.151.937t.2.917q.11.453.247.895.136.441.295.87.16.429.343.843.183.415.39.815.205.4.434.785.229.384.479.752t.522.718.565.681.605.644"/><path fill="#b15a3d" d="M40.15 69.85q4.584 4.582 12.108 3.665 7.807-.952 14.056-7.201 6.249-6.25 7.2-14.056.918-7.524-3.665-12.107t-12.107-3.666q-7.807.952-14.056 7.201-6.249 6.25-7.2 14.056-.918 7.524 3.665 12.107m-2.828 2.828q-5.96-5.961-4.807-15.42 1.119-9.176 8.343-16.4t16.4-8.343q9.459-1.154 15.42 4.807 5.96 5.961 4.807 15.42-1.119 9.176-8.343 16.4t-16.4 8.343q-9.459 1.154-15.42-4.807"/><path fill="none" stroke="#b15a3d" stroke-linecap="round" stroke-linejoin="round" stroke-width="4" d="M67.728 56.414Q57.12 52.88 53.586 42.272"/><path fill="none" stroke="#b15a3d" stroke-linecap="round" stroke-linejoin="round" stroke-width="4" d="M56.414 67.728Q52.88 57.12 42.272 53.586"/></g></svg>