<svg xmlns="http://www.w3.org/2000/svg" viewBox="0 0 110 110"><clipPath id="a"><rect width="91.667" height="91.667" x="9.167" y="9.167" rx="4.167" ry="4.167"/></clipPath><g clip-path="url(#a)"><path fill="#39b54a" d="M107.5 55c15.759 24.543-24.543 15.759 0 0m0 0c-24.543 15.759-15.759-24.543 0 0m0 0c-15.759-24.543 24.543-15.759 0 0m0 0c24.543-15.759 15.759 24.543 0 0"/><path fill="#2e933c" d="M108.482 54.37q5.675 8.839 3.26 13.718-2.172 4.388-7.784 3.165-5.613-1.223-5.762-6.118-.165-5.441 8.674-11.117.096-.062.203-.104t.22-.062.228-.018.227.026.218.07.2.112.174.148q.08.083.142.18m-1.964 1.26.982-.63.63.982q-7.727 4.961-7.602 9.082.094 3.074 3.926 3.91 3.833.835 5.197-1.921 1.829-3.695-3.133-11.423m1.612.352q-8.839 5.675-13.718 3.26-4.388-2.172-3.165-7.784 1.223-5.613 6.118-5.762 5.441-.165 11.117 8.674.062.096.104.203t.062.22.018.228-.026.227q-.025.113-.07.218t-.112.2q-.066.094-.148.174-.083.08-.18.142m-1.26-1.964.63.982-.982.63q-4.961-7.727-9.082-7.602-3.074.094-3.91 3.926-.835 3.833 1.921 5.197 3.695 1.829 11.423-3.133m-.352 1.612q-5.675-8.839-3.26-13.718 2.172-4.388 7.784-3.165 5.613 1.223 5.762 6.118.165 5.441-8.674 11.117-.096.062-.203.104t-.22.062-.228.018-.227-.026-.218-.07-.2-.112-.174-.148q-.08-.083-.142-.18m1.964-1.26-.982.63-.63-.982q7.727-4.961 7.602-9.082-.094-3.074-3.926-3.91-3.833-.835-5.197 1.921-1.829 3.695 3.133 11.423m-1.612-.352q8.839-5.675 13.718-3.26 4.388 2.172 3.165 7.784-1.223 5.613-6.118 5.762-5.441.165-11.117-8.674-.062-.096-.104-.203t-.062-.22-.018-.228.026-.227q.025-.113.07-.218t.112-.2q.066-.094.148-.174.083-.08.18-.142m1.26 1.964L107.5 55l.982-.63q4.961 7.727 9.082 7.602 3.074-.094 3.91-3.926.835-3.833-1.921-5.197-3.695-1.829-11.423 3.133"/><path fill="#292929" d="M80.364 119.165q-.35.224-.71.431t-.73.396-.748.36q-.379.17-.765.323-.387.151-.78.284-.394.133-.793.246-.4.113-.804.207-.405.094-.814.167t-.82.127-.826.087-.829.046q-.415.012-.83.005-.416-.008-.83-.036t-.827-.076-.822-.117q-.41-.068-.815-.156-.406-.089-.807-.197-.4-.108-.796-.236-.395-.128-.783-.275-.389-.147-.77-.313-.38-.166-.752-.35t-.735-.387q-.363-.202-.715-.422t-.693-.457-.67-.49q-.33-.254-.645-.523-.316-.27-.62-.554-.302-.284-.59-.583-.288-.3-.561-.612-.274-.313-.531-.639-.258-.325-.499-.663t-.465-.688-.432-.71-.396-.73q-.189-.369-.36-.747-.17-.38-.322-.766t-.285-.78-.246-.793-.207-.804-.167-.813-.127-.82-.086-.826-.046-.83-.005-.83.035-.83.076-.826.117-.822.157-.816q.088-.405.196-.806t.236-.796.275-.784.313-.769.35-.753q.185-.372.387-.734.203-.363.423-.715t.457-.694q.237-.34.49-.67.253-.329.523-.645.269-.316.553-.618.285-.303.584-.591t.611-.562.639-.53.664-.5q.338-.24.687-.465.35-.224.71-.431t.73-.396.748-.36q.379-.17.765-.323.387-.151.78-.284t.793-.246.804-.207.813-.167q.41-.074.821-.127.412-.054.826-.087t.829-.046q.415-.012.83-.005.415.008.83.036.414.028.826.076.413.048.823.117.41.068.815.156.406.089.807.197.4.108.796.236.395.128.783.275.389.147.77.313.38.166.752.35t.735.387.715.422.693.457.67.49.645.523.619.554q.302.284.59.583.289.3.562.612.273.313.53.639.258.325.5.663.24.338.465.688t.432.71.396.73q.189.369.36.747.17.38.322.766t.285.78.246.793.206.804.168.813q.073.409.126.82.054.412.087.826t.046.83.005.83q-.007.415-.035.83-.028.414-.076.826-.049.413-.117.822-.069.41-.157.816t-.197.806-.236.796-.274.784-.313.769-.35.753-.387.734-.423.715-.457.694q-.237.34-.49.67-.254.329-.523.645-.27.316-.554.618-.284.303-.583.591t-.612.562-.638.53-.664.5q-.338.24-.687.465"/><path fill="#333" d="M78.472 116.22q-.277.178-.562.342t-.58.314q-.292.15-.593.285-.3.136-.606.256-.307.12-.619.226-.312.105-.629.195t-.638.164-.645.132-.65.101-.655.069-.658.036-.658.004q-.33-.006-.658-.028-.329-.022-.656-.06t-.652-.093-.647-.124-.64-.156-.63-.187q-.314-.102-.622-.218-.308-.117-.61-.248-.302-.132-.597-.278t-.583-.307-.567-.335-.55-.362-.531-.39-.512-.414q-.25-.213-.49-.439t-.47-.463-.444-.485-.421-.506q-.205-.259-.396-.527t-.37-.545q-.177-.277-.341-.563t-.314-.578-.286-.594q-.135-.3-.256-.607-.12-.306-.225-.618t-.195-.63-.165-.637-.132-.645-.1-.65q-.043-.328-.07-.656-.026-.328-.036-.657-.01-.33-.004-.659.006-.33.028-.658t.06-.656.093-.652.124-.646.156-.64.188-.631.218-.622.248-.61.278-.597.306-.582.335-.567q.175-.28.363-.55t.389-.532q.2-.26.414-.511t.44-.491.462-.469.485-.445.507-.42q.258-.205.526-.396t.545-.37.563-.342.579-.314.593-.285q.3-.136.607-.256t.619-.226.629-.195.637-.164.646-.132q.324-.059.65-.101.327-.043.655-.069.329-.026.658-.036t.658-.004.658.028.656.06.652.093.647.124.64.156q.317.086.63.187.314.102.622.218.308.117.61.248.302.132.597.278t.583.307.567.335.55.362.531.39.512.414q.25.213.49.439t.469.463.445.485q.217.248.421.506.205.259.396.527t.37.545q.177.277.341.563t.314.578.286.594q.135.3.255.607.12.306.226.618.105.312.195.63.09.316.164.637t.133.645.1.65.07.656.036.657.004.659q-.006.33-.028.658-.023.328-.06.656-.039.327-.093.652-.055.324-.125.646t-.156.64-.187.631-.218.622q-.116.308-.248.61t-.278.597-.307.582q-.16.288-.335.567-.174.28-.362.55t-.389.532q-.2.26-.414.511t-.44.491-.462.469-.485.445-.507.42q-.258.205-.526.396t-.546.37"/><path fill="#fff" d="m76.473 119.583 5.89-3.782-1.89-2.945-5.891 3.782zm-15.315-2.78 6.22 3.21 1.606-3.11-6.221-3.21zm-5.25-14.654.33 6.993 3.497-.165-.33-6.993zm10.066-11.872-5.89 3.782 1.89 2.945 5.891-3.782zm15.315 2.78-6.22-3.21-1.606 3.11 6.22 3.21zm5.25 14.654-.331-6.993-3.496.165.33 6.993zm-11.136 6.32 2.356-1.513-.63-.982-2.356 1.513zm-5.11.87 2.797-.131-.055-1.166-2.797.132zm-4.861-1.8 2.488 1.283.535-1.036-2.488-1.284zm-3.31-3.991 1.513 2.356.982-.63-1.513-2.356zm-.87-5.11.132 2.796 1.165-.055-.132-2.797zm1.801-4.862-1.284 2.488 1.037.536 1.284-2.489zm3.99-3.309-2.356 1.513.63.982 2.357-1.513zm5.111-.87-2.797.131.055 1.166 2.797-.132zm4.861 1.8-2.488-1.283-.535 1.036 2.488 1.284zm3.31 3.991-1.513-2.356-.982.63 1.513 2.356zm.87 5.11-.132-2.796-1.165.055.132 2.797zm-1.801 4.862 1.284-2.488-1.037-.536-1.284 2.489z"/><path fill="#fff" d="m14.413 69.468 14.505 18.277L10.64 102.25-3.864 83.972z"/><path fill="#cfcfcf" d="m-4.952 82.601 18.277-14.504q.068-.053.14-.1t.149-.086q.076-.04.156-.07.08-.032.163-.056t.167-.039.17-.022.172-.006.171.011.17.028.166.045.16.06.154.076q.076.042.146.09.071.05.137.105.065.056.125.118t.113.129l14.504 18.278q.054.067.1.14.047.071.086.148.04.076.071.156.032.08.055.163.024.083.04.167.015.085.022.17t.005.172-.01.172-.029.169-.044.166q-.027.082-.06.16-.035.08-.077.155t-.09.145-.105.137q-.056.065-.118.125t-.129.113L11.728 103.62q-.068.054-.14.1t-.149.086-.156.071q-.08.032-.163.055-.082.024-.167.04-.085.015-.17.022t-.172.005-.171-.01-.17-.029-.165-.044q-.082-.027-.161-.06-.08-.035-.154-.077-.075-.042-.146-.09-.07-.05-.136-.105-.066-.056-.126-.117t-.113-.13L-5.235 85.06q-.054-.068-.1-.14t-.086-.148-.07-.157-.056-.163q-.024-.082-.04-.167-.014-.084-.022-.17t-.005-.172q.001-.086.011-.171t.028-.17.045-.165.06-.161.076-.154.09-.146q.05-.07.105-.136.056-.066.118-.126t.129-.113M14.13 71.926-1.406 84.255l12.329 15.536 15.536-12.329z"/><path fill="#777" d="M14.122 87.87q-.099.078-.205.146t-.218.126-.23.104-.238.08-.245.058-.25.033-.252.008-.25-.016-.25-.042-.243-.065q-.12-.038-.235-.088-.116-.05-.226-.112-.11-.061-.214-.133t-.2-.153-.184-.172-.166-.19-.147-.205-.126-.218-.104-.23q-.046-.116-.08-.238-.035-.12-.058-.245-.022-.124-.032-.25-.01-.125-.009-.251.002-.127.017-.252.014-.125.04-.248.027-.124.066-.244t.089-.235.111-.226.133-.214.154-.2.172-.184.19-.166q.098-.078.204-.147t.218-.125.23-.104q.117-.047.238-.081.121-.035.245-.058.124-.022.25-.032t.252-.009.251.017.249.04.243.066.236.089.226.111q.11.062.213.133.104.072.2.154.096.081.184.172t.166.19.147.204.126.218.104.23.08.238.058.245.033.25.008.252-.017.251-.04.249-.066.243-.089.236q-.05.115-.111.226-.061.11-.133.214-.072.103-.153.2-.082.095-.173.183t-.189.166"/><path fill="#777" d="M14.877 81.313q-.099.078-.205.147t-.218.125-.23.104-.238.081-.245.058-.25.032-.252.009-.251-.017-.249-.04q-.123-.028-.243-.066t-.236-.089q-.115-.05-.226-.111-.11-.062-.214-.133-.103-.072-.2-.154-.096-.081-.183-.172-.088-.09-.166-.19-.079-.098-.147-.204t-.126-.218-.104-.23-.08-.238-.058-.245-.033-.25-.008-.252.016-.251.041-.249.066-.243.088-.236.112-.226.133-.213.153-.2.172-.184.19-.166.205-.147.218-.126.23-.104q.116-.046.238-.08.12-.035.245-.058.124-.022.25-.033.125-.01.251-.008.127.002.252.017.125.014.248.04.124.027.244.066.12.038.235.088.116.05.226.112.11.061.214.133t.2.153.184.172.166.19.147.205.125.218.104.23q.047.116.081.238.035.121.058.245.022.124.032.25.01.125.009.251-.002.127-.017.252-.014.125-.04.248-.028.124-.066.244t-.089.235q-.05.116-.111.226-.062.11-.133.214t-.154.2q-.081.096-.172.184-.09.087-.19.166"/><path fill="#777" d="M7.566 87.115q-.1.078-.205.146-.106.069-.218.126-.112.058-.23.104-.117.046-.238.081t-.245.057q-.125.023-.25.033-.126.01-.252.008t-.251-.016-.249-.041-.243-.065-.236-.09-.226-.11-.214-.134-.2-.153-.183-.172-.166-.19q-.079-.098-.147-.204t-.126-.218-.104-.23-.08-.238-.058-.246-.033-.25-.008-.251.016-.251q.015-.126.041-.249t.066-.243q.038-.12.088-.236t.112-.226.133-.214.153-.2.172-.183.19-.167.205-.146q.105-.069.218-.126.112-.058.23-.104.116-.046.238-.081.12-.035.245-.057.124-.023.25-.033.125-.01.251-.008t.252.016.248.041.244.065.235.09.226.11.214.134.2.153.184.172q.087.09.166.19.078.098.146.204.069.106.126.218.058.113.104.23.047.117.081.238.035.122.057.246.023.124.033.25.01.125.009.251-.003.126-.017.252-.014.125-.041.248t-.065.243-.089.236-.111.226q-.062.11-.133.214t-.154.2q-.081.096-.172.183-.09.088-.19.167"/><path fill="#777" d="M13.367 94.426q-.098.078-.204.146-.106.069-.219.126-.112.058-.229.104-.117.047-.238.081-.122.035-.246.057-.124.023-.25.033-.125.01-.251.008t-.252-.016-.248-.041-.243-.065-.236-.09-.226-.11-.214-.134-.2-.153-.184-.172q-.087-.09-.166-.19-.078-.098-.146-.204-.069-.106-.126-.218-.058-.113-.104-.23-.047-.117-.081-.238-.035-.122-.057-.246-.023-.124-.033-.25-.01-.125-.008-.251t.016-.251q.015-.126.041-.249t.065-.243.09-.236.11-.226q.062-.11.134-.214.071-.103.153-.2.081-.096.172-.183.09-.088.19-.166.098-.079.204-.147t.218-.126.23-.104.238-.081.246-.057.25-.033q.125-.01.251-.008t.251.016q.126.015.249.041t.243.066q.12.038.236.088t.226.112.214.133q.103.071.2.153.096.082.183.172.088.09.166.19.079.098.147.204t.126.218.104.23.081.238.057.246.033.25.008.251-.016.252-.041.248-.066.243-.088.236-.112.226q-.06.11-.133.214-.071.104-.153.2t-.172.184-.19.166"/><path fill="#777" d="M20.678 88.624q-.098.078-.204.147t-.218.126q-.113.057-.23.103-.117.047-.238.081-.122.035-.246.058-.124.022-.25.032-.125.01-.251.009t-.252-.017-.248-.04-.243-.066-.236-.089-.226-.111-.214-.133-.2-.154-.184-.172q-.087-.09-.166-.19-.078-.098-.146-.204-.069-.106-.126-.218-.058-.112-.104-.23-.046-.117-.081-.238t-.057-.245-.033-.25-.008-.252.016-.251.041-.249.065-.243.09-.236.11-.226q.062-.11.134-.213.071-.104.153-.2t.172-.184.19-.166q.098-.079.204-.147t.218-.126q.113-.057.23-.104t.238-.08.246-.058q.124-.022.25-.033.125-.01.251-.008t.251.017q.126.014.249.04t.243.066.236.089.226.111.214.133.2.153.183.173.167.189.146.205.126.218.104.23.081.238.057.245.033.25.008.252-.016.25-.041.25-.065.243-.09.235-.11.226-.134.214-.153.2-.172.184-.19.166"/><path fill="#fff" d="m2.549 6.725 23.217 2.33-3.262 32.503-23.216-2.33z"/><path fill="#cfcfcf" d="M-2.454 39.054.808 6.55q.008-.085.025-.17.017-.084.042-.166t.058-.162.074-.155.088-.147.103-.138.116-.127.127-.115.138-.102.148-.088.155-.073.162-.058.167-.041.17-.025.171-.008.172.009L25.94 7.313q.086.009.17.025.084.017.167.043.082.025.161.058.08.033.155.073.076.041.148.089.07.048.137.103t.127.115q.061.061.115.127.055.067.102.139.048.071.088.147t.074.156q.032.079.057.161.025.083.042.167.016.084.025.17.008.085.008.171t-.01.172l-3.26 32.503q-.009.086-.026.17t-.042.167-.058.161q-.033.08-.074.156-.04.075-.088.147-.048.071-.103.137t-.115.127-.128.116-.138.102-.147.088-.156.073-.162.057-.166.042-.17.025-.172.008-.171-.009l-23.217-2.33q-.086-.008-.17-.025t-.166-.042-.162-.058-.155-.074q-.076-.04-.147-.088-.072-.048-.138-.103t-.127-.116q-.06-.06-.115-.127-.055-.066-.102-.138-.048-.072-.088-.147-.04-.076-.073-.156t-.058-.162-.041-.166-.025-.17-.008-.172.008-.171M4.116 8.64 1.203 37.66l19.734 1.98 2.912-29.02z"/><path d="M18.354 26.265c-.185 1.846-1.861 2.532-2.962 2.422-1.227-.123-2.099-.772-2.605-1.281-.078 1.509.17 2.618 1.68 3.622l-5.21-.523c1.68-.684 2.142-1.721 2.366-3.216-.598.398-1.581.862-2.808.738-1.1-.11-2.607-1.116-2.422-2.962.338-3.374 2.623-2.217 6.798-7.55 3.033 6.056 5.502 5.377 5.163 8.75"/><path d="m8.48 14.042-.789-.08q-.057-.246-.121-.487-.064-.24-.12-.493l-1.695-.17q-.106.236-.214.463-.108.226-.212.45l-.76-.076q.29-.622.548-1.147t.502-.993.479-.89.482-.831l.69.07q.16.45.308.91.147.46.293.967.145.507.297 1.073.15.567.313 1.234M6 12.239l1.323.133q-.134-.535-.263-1-.126-.453-.223-.758l-.004-.015q-.067.119-.13.239-.116.214-.25.48-.216.423-.453.921"/><path d="m16.573 34.241.789.08q.057.245.121.486t.12.493l1.696.17q.105-.235.213-.462l.212-.45.76.076q-.29.621-.548 1.146-.258.526-.501.994-.244.468-.48.89-.235.421-.482.83l-.69-.069q-.16-.45-.308-.91-.147-.46-.292-.967-.146-.507-.297-1.074-.152-.566-.313-1.233m2.48 1.803-1.323-.133q.134.535.263 1 .126.453.223.758l.005.015.13-.24q.115-.214.25-.479.215-.423.452-.921"/><path fill="#fff" d="m54.502-5.491 10.236-8.123q.143-.114.298-.213.154-.1.317-.183.163-.084.334-.152.17-.067.347-.117t.356-.083.364-.048q.182-.015.366-.012.183.003.365.024.183.02.362.06.18.038.354.094t.343.13.328.162.311.193.29.223.268.25.242.276l18.565 23.395q.114.144.214.298t.183.318.151.333.118.347.083.357.048.363.012.366-.024.366-.06.361q-.039.18-.095.354-.056.175-.129.343t-.162.329-.193.31q-.105.152-.224.291-.118.14-.25.268-.132.127-.275.241l-10.236 8.123q-.144.114-.298.213-.154.1-.317.183-.163.084-.334.152-.17.067-.347.117t-.357.083-.363.048-.366.012-.366-.024-.361-.06q-.18-.038-.354-.094-.175-.056-.343-.13-.168-.072-.328-.161t-.312-.194-.29-.223-.267-.25-.242-.276L53.899-.246q-.114-.144-.214-.298t-.183-.317-.151-.334-.118-.347-.083-.357-.048-.363-.012-.366.024-.366.06-.361q.039-.18.095-.354.056-.175.129-.343t.162-.329.193-.31q.105-.152.223-.291.119-.14.25-.268.133-.127.276-.241"/><path fill="#cfcfcf" d="m53.632-6.588 10.236-8.122q1.665-1.322 3.777-1.079t3.435 1.909L89.645 9.515q1.322 1.666 1.079 3.778t-1.91 3.434L78.58 24.85q-1.665 1.322-3.778 1.08-2.112-.244-3.434-1.91L52.802.624q-1.322-1.666-1.079-3.778t1.909-3.434m1.74 2.193q-1.827 1.45-.377 3.278L73.561 22.28q1.45 1.828 3.278.377l10.235-8.122q1.828-1.45.378-3.278L68.886-12.14q-1.45-1.828-3.278-.377z"/><path fill="#777" d="m76.248 2.393-8.773 6.962q-.04.031-.082.058t-.087.05-.092.042-.095.033-.099.023-.1.013-.1.003q-.05 0-.1-.007-.05-.005-.1-.016t-.097-.026-.095-.036-.09-.044q-.044-.025-.086-.053-.041-.029-.08-.062-.038-.032-.073-.069-.035-.036-.066-.075-.032-.04-.06-.082-.026-.043-.05-.087-.023-.045-.041-.092t-.032-.096-.023-.098-.013-.1-.004-.1.007-.1.016-.1.026-.098.036-.094.044-.09.054-.086.061-.08.069-.073.076-.067L74.972.784q.04-.031.082-.058t.087-.05q.045-.024.092-.042T75.328.6t.098-.023.1-.013q.05-.004.1-.003.051 0 .101.007.05.005.1.016t.097.026q.048.016.094.036.047.02.09.044.045.025.086.053.042.03.08.062.039.032.074.069.035.036.066.075.032.04.059.082t.05.087.042.092.032.096.023.098.013.1q.004.05.004.1-.001.05-.007.1t-.016.1-.027.098q-.015.048-.035.094t-.045.09-.053.086-.061.08-.069.073-.076.067"/><path fill="#777" d="M78.301 13.989q-.079.063-.163.117-.085.055-.175.101t-.183.083-.191.065-.196.046-.2.026-.202.007-.2-.014q-.1-.011-.2-.032-.098-.022-.194-.053-.096-.03-.189-.07-.092-.04-.18-.09-.089-.049-.172-.106t-.16-.123q-.076-.065-.146-.138-.07-.072-.133-.151t-.118-.164-.1-.174-.084-.184-.064-.19-.046-.197q-.018-.1-.026-.2t-.007-.201.013-.201.033-.199.052-.195.071-.188.09-.18q.048-.09.106-.172.057-.083.122-.16.066-.077.138-.147t.152-.133.164-.117.174-.1.184-.084.19-.065.197-.046.2-.026.2-.006q.102.001.202.013.1.011.199.033.098.02.194.052.096.03.189.07.092.04.18.09.089.049.172.106.083.058.16.123t.147.138q.07.072.133.151.062.08.117.164.055.085.1.175.047.09.084.183.037.094.065.19.027.098.045.197.018.1.027.2.008.1.006.201t-.013.201-.033.2q-.021.098-.052.194t-.071.188-.09.181q-.048.088-.106.171t-.122.16q-.066.077-.138.147t-.152.133"/><path fill="#777" d="M78.905 8.744q-.079.063-.164.117-.084.055-.174.101t-.184.083-.19.065-.197.046-.2.026-.2.007q-.102-.002-.202-.014-.1-.011-.199-.032-.098-.022-.194-.053-.096-.03-.189-.07t-.18-.09-.172-.106-.16-.123-.147-.138q-.07-.072-.133-.151-.062-.08-.117-.164-.055-.085-.1-.174-.047-.09-.084-.184t-.065-.19q-.027-.098-.045-.197-.018-.1-.027-.2-.008-.1-.006-.201.001-.101.013-.201t.033-.2.052-.194q.03-.096.071-.188.04-.093.09-.181.048-.088.106-.171t.122-.16.138-.147q.072-.07.151-.133.08-.063.164-.117.085-.055.175-.101t.183-.083.191-.065.196-.046.2-.026.202-.007.2.014q.1.011.2.032.098.022.194.053.096.03.189.07.092.04.18.09.089.049.172.106.082.058.16.123.076.065.146.138.07.072.133.151.063.08.118.164.054.085.1.174.046.09.084.184.037.094.064.19.028.098.046.197.018.1.026.2t.007.201-.013.201-.033.2q-.021.098-.052.194t-.071.188q-.04.093-.09.181-.048.088-.106.171t-.123.16-.137.147-.152.133"/><path fill="#777" d="M73.056 13.385q-.079.063-.163.118-.085.054-.175.1t-.183.084-.191.064-.197.046-.2.026-.2.007-.202-.013q-.1-.012-.199-.033-.098-.021-.194-.052t-.189-.071-.18-.09q-.089-.048-.172-.106t-.16-.123q-.076-.065-.147-.137t-.132-.152q-.063-.079-.118-.164-.054-.084-.1-.174t-.084-.184-.064-.19-.046-.197-.026-.2q-.009-.1-.007-.2.002-.102.013-.202.012-.1.033-.199.021-.098.052-.194t.071-.189.09-.18q.048-.089.106-.172t.122-.16q.066-.077.138-.147t.152-.133.163-.117.175-.1.183-.084.191-.065.197-.045.2-.027q.1-.008.2-.006.102.001.202.013t.199.033q.098.021.194.052t.189.071.18.09q.089.048.172.106t.16.122q.076.065.147.138.07.072.132.151.063.08.118.164.054.085.1.175t.084.183.064.191.046.196.026.2.007.202q-.002.1-.013.2-.012.1-.033.2-.021.098-.052.194t-.071.189-.09.18q-.048.089-.106.172t-.122.16q-.066.076-.138.146t-.152.133"/><path fill="#777" d="M77.698 19.234q-.08.063-.164.117-.085.055-.175.101t-.183.083-.191.065-.196.046-.2.026-.201.007-.201-.013-.2-.033-.194-.052-.188-.071q-.093-.04-.181-.09t-.171-.106-.16-.123-.147-.137-.133-.152-.117-.164-.101-.174-.083-.184-.065-.19-.046-.197-.026-.2-.007-.201.013-.201.033-.199.053-.195q.03-.096.07-.188.04-.093.09-.18.049-.089.106-.172t.123-.16.137-.147.152-.133q.079-.062.164-.117t.174-.1q.09-.047.184-.084t.19-.065q.098-.027.197-.045.1-.019.2-.027t.201-.006.201.013.199.033.195.052.188.07q.093.041.18.09.09.049.172.106.083.058.16.123t.147.138q.07.072.133.151.062.08.117.164.055.085.1.175.047.09.084.183.037.094.065.191.027.097.046.196.018.1.026.2t.006.201-.013.201-.033.2q-.02.098-.052.194-.03.096-.07.189-.04.092-.09.18t-.106.171-.123.16-.138.147-.151.133"/><path fill="#777" d="M83.547 14.593q-.08.062-.164.117-.085.055-.175.1-.09.047-.183.084-.094.037-.191.065-.097.027-.196.046-.1.018-.2.026t-.202.006q-.1-.001-.2-.013-.1-.011-.2-.033-.098-.02-.194-.052-.096-.03-.189-.07-.092-.04-.18-.09-.089-.049-.171-.106-.083-.058-.16-.123t-.147-.138q-.07-.072-.133-.151-.063-.08-.118-.164-.054-.085-.1-.175t-.083-.183-.065-.191-.046-.196-.026-.2q-.009-.1-.007-.201t.013-.201.033-.2q.021-.098.052-.194t.071-.188.09-.181q.048-.088.106-.171t.123-.16.137-.147.152-.133.164-.117.174-.101.184-.083.19-.065.197-.046.2-.026.2-.007q.102.002.202.013.1.012.199.033.098.022.194.052.096.031.189.071t.18.09.172.106.16.123.147.137.133.152.117.164.1.174.084.184.065.19.045.197.027.2.006.201-.013.201-.033.199-.052.195-.07.188-.09.18q-.05.09-.106.172-.058.083-.123.16t-.138.147q-.072.07-.151.133"/><path fill="#a82121" d="M85.917 55q0 .759-.037 1.517-.038.758-.112 1.513-.075.756-.186 1.506-.111.751-.26 1.496-.147.744-.332 1.48-.184.736-.405 1.463-.22.726-.476 1.44-.255.715-.546 1.416-.29.701-.615 1.388-.324.686-.682 1.355-.358.67-.748 1.32-.39.651-.812 1.282-.421.631-.873 1.241-.453.61-.934 1.196-.481.587-.991 1.15T76.86 76.86t-1.099 1.047-1.149.991-1.196.934-1.24.873q-.632.422-1.283.812t-1.32.748-1.355.682q-.687.325-1.388.615t-1.415.546-1.441.476-1.463.405-1.48.333-1.496.26q-.75.11-1.506.185-.755.074-1.513.112-.758.037-1.517.037t-1.517-.037-1.513-.112-1.506-.186-1.496-.26-1.48-.332-1.463-.405-1.44-.476-1.416-.546-1.388-.615-1.355-.682-1.32-.748-1.282-.812-1.241-.873-1.196-.934-1.15-.991-1.098-1.047-1.047-1.099-.991-1.149-.934-1.196-.873-1.24q-.422-.632-.812-1.283t-.748-1.32-.682-1.355q-.325-.687-.615-1.388t-.546-1.415-.476-1.441-.405-1.463-.333-1.48-.26-1.496q-.11-.75-.185-1.506-.074-.755-.112-1.513-.037-.758-.037-1.517t.037-1.517.112-1.513.186-1.506.26-1.496.332-1.48.405-1.463.476-1.44.546-1.416.615-1.388.682-1.355.748-1.32.812-1.282.873-1.241.934-1.196.991-1.15 1.047-1.098 1.099-1.047 1.149-.991 1.196-.934 1.24-.873q.632-.422 1.283-.812t1.32-.748 1.355-.682q.687-.325 1.388-.615t1.415-.546 1.441-.476 1.463-.405 1.48-.333 1.496-.26q.75-.11 1.506-.185.755-.074 1.513-.112.758-.037 1.517-.037t1.517.037 1.513.112 1.506.186 1.496.26 1.48.332 1.463.405 1.44.476 1.416.546 1.388.615 1.355.682 1.32.748 1.282.812 1.241.873 1.196.934 1.15.991 1.098 1.047 1.047 1.099.991 1.149.934 1.196.873 1.24q.422.632.812 1.283t.748 1.32.682 1.355q.325.687.615 1.388t.546 1.415.476 1.441.405 1.463.333 1.48.26 1.496q.11.75.185 1.506.074.755.112 1.513.037.758.037 1.517"/><path fill="#cf2929" d="M82.417 55q0 .673-.033 1.345-.033.673-.1 1.342-.065.67-.164 1.336t-.23 1.326-.295 1.313q-.163.653-.359 1.297t-.422 1.277-.484 1.256-.546 1.23-.605 1.202-.663 1.171-.72 1.137-.775 1.1-.828 1.06-.879 1.02-.927.975-.975.927-1.02.88q-.52.426-1.06.827t-1.1.775-1.137.72-1.17.663-1.203.605-1.23.546-1.256.484-1.277.422-1.297.36-1.313.294-1.326.23-1.336.165-1.342.099-1.345.033-1.345-.033q-.673-.033-1.342-.1-.67-.065-1.336-.164t-1.326-.23-1.313-.295q-.653-.163-1.297-.359t-1.277-.422-1.256-.484-1.23-.546-1.202-.605-1.171-.663-1.137-.72-1.1-.775-1.06-.828-1.02-.879-.975-.927-.927-.975-.88-1.02q-.426-.52-.827-1.06t-.775-1.1-.72-1.137-.663-1.17-.605-1.203-.546-1.23-.484-1.256-.422-1.277-.36-1.297-.294-1.313-.23-1.326-.165-1.336-.099-1.342T27.583 55t.033-1.345q.033-.673.1-1.342.065-.67.164-1.336t.23-1.326.295-1.313q.163-.653.359-1.297t.422-1.277.484-1.256.546-1.23.605-1.202.663-1.171.72-1.137.775-1.1.828-1.06.879-1.02.927-.975.975-.927 1.02-.88q.52-.426 1.06-.827t1.1-.775 1.137-.72 1.17-.663 1.203-.605 1.23-.546 1.256-.484 1.277-.422 1.297-.36 1.313-.294 1.326-.23 1.336-.165 1.342-.099T55 27.583t1.345.033q.673.033 1.342.1.67.065 1.336.164t1.326.23 1.313.295q.653.163 1.297.359t1.277.422 1.256.484 1.23.546 1.202.605 1.171.663 1.137.72 1.1.775 1.06.828 1.02.879.975.927.927.975.88 1.02q.426.52.827 1.06t.775 1.1.72 1.137.663 1.17.605 1.203.546 1.23.484 1.256.422 1.277.36 1.297.294 1.313.23 1.326.165 1.336.099 1.342.033 1.345"/><clipPath id="b"><path d="M38.667 38.667 55 49.167l16.333-10.5V62H38.667z"/></clipPath><g clip-path="url(#b)"><path fill="#111" d="M52.083 49.167q0 .344-.025.686t-.076.68-.125.666-.173.646-.22.621-.265.59-.307.551-.346.51-.382.46-.414.41-.442.353-.466.294-.485.231-.5.167-.51.101-.514.034-.514-.034-.51-.1q-.253-.068-.5-.168t-.485-.231-.466-.294-.441-.353-.414-.41-.382-.46-.346-.51-.307-.551-.265-.59-.22-.62-.174-.647q-.075-.33-.125-.667t-.075-.68q-.026-.341-.026-.685t.026-.686q.025-.343.075-.68t.125-.666.174-.647.22-.621q.122-.303.265-.59.143-.285.307-.551t.346-.509.382-.461.414-.41.441-.353.466-.293.485-.232.5-.167.51-.1.514-.034.515.033.51.101.5.167.484.232q.239.131.466.293t.442.353.414.41.382.461.346.509.307.552.264.589.22.62q.1.319.174.648.075.329.125.666t.076.68.025.686"/><clipPath id="c"><path d="M52.083 49.167q0 .172-.006.343t-.019.343q-.013.17-.032.34-.018.17-.044.34-.025.168-.056.334-.031.167-.069.332-.037.164-.08.326t-.093.32q-.05.16-.105.315t-.116.306q-.06.152-.127.3-.066.147-.137.29t-.149.28q-.077.139-.158.271-.082.133-.169.26-.086.128-.177.25-.091.12-.187.236t-.195.225-.203.211-.21.198-.219.184-.224.17-.23.154-.236.139-.24.123-.245.108-.248.092-.251.075-.254.059q-.128.025-.256.042t-.257.025-.258.009-.257-.009-.257-.025q-.129-.017-.256-.042-.128-.025-.254-.059t-.251-.075-.249-.092-.244-.108-.24-.123-.236-.14q-.117-.073-.23-.154-.114-.08-.225-.17-.11-.088-.217-.183-.108-.096-.211-.198-.104-.102-.203-.211-.1-.11-.195-.225-.096-.115-.187-.237t-.178-.248q-.086-.128-.168-.26-.082-.133-.158-.271-.077-.139-.149-.281t-.138-.29-.127-.3-.116-.306-.104-.315-.093-.32-.08-.326q-.038-.165-.07-.331-.03-.167-.056-.336-.025-.168-.044-.338t-.031-.341-.02-.343q-.006-.171-.006-.343t.007-.344.019-.343q.012-.17.031-.34.02-.17.044-.339.025-.169.057-.335.031-.167.068-.331.038-.165.081-.327.044-.161.093-.32.05-.159.104-.314.055-.156.116-.307.061-.152.127-.3.067-.146.138-.29.072-.142.148-.28.077-.138.159-.271t.168-.26.178-.25q.091-.12.187-.236.095-.115.195-.224.1-.11.203-.212t.21-.198.218-.183q.11-.089.224-.17.114-.08.23-.154.117-.074.236-.14.12-.065.24-.123.122-.058.245-.108.124-.05.249-.092t.251-.075.254-.059.256-.042.257-.025.257-.008.258.008.257.025.256.042q.127.026.254.06.126.033.251.074.125.042.248.092.124.05.245.108t.24.123.236.14.23.154.224.17.218.183.21.198q.104.103.204.212t.195.224.187.237.177.249.169.26.158.27.149.282.137.29q.067.147.127.299.061.151.116.307.055.155.105.314t.092.32.081.327.069.33.056.336.044.339q.02.17.032.34.013.172.019.343t.006.344"/></clipPath><g clip-path="url(#c)"><path fill="#eee" d="M55.55 53.094q0 .223-.034.446-.032.222-.098.441-.065.22-.163.433-.097.214-.225.42-.128.207-.287.404t-.344.383-.399.36-.45.33-.496.3-.538.266-.574.23-.606.19-.63.15q-.321.066-.65.11-.329.043-.663.065-.333.022-.669.022-.335 0-.669-.022-.333-.022-.662-.066-.329-.043-.65-.108-.32-.065-.63-.15-.31-.086-.606-.192-.296-.105-.574-.23-.28-.123-.538-.265-.26-.142-.497-.3t-.45-.33q-.212-.174-.398-.36-.187-.185-.345-.383-.158-.197-.286-.403t-.226-.42-.163-.434-.098-.441q-.033-.223-.033-.446 0-.224.033-.446.033-.223.098-.442.066-.22.163-.433.098-.214.226-.42.128-.207.286-.404t.345-.383.399-.359.45-.33q.236-.159.496-.3.259-.142.538-.267.278-.124.574-.23.296-.105.606-.19t.63-.15.65-.109.662-.066.67-.021.668.021.663.066.65.108q.32.065.63.15.31.086.606.192.295.105.574.23.279.124.538.265.26.142.496.3.237.158.45.331t.4.359q.185.186.343.383t.287.403.225.42q.098.215.163.434.066.22.098.442.033.222.033.446"/></g><path fill="none" stroke="#111" stroke-linecap="round" stroke-linejoin="round" stroke-width=".5" d="M3 0q0 .147-.014.294t-.044.291-.071.286q-.043.14-.1.277-.056.136-.125.266-.07.13-.152.253-.081.122-.175.236t-.198.218-.218.198-.236.175-.253.152q-.13.07-.266.126t-.277.099-.286.071q-.144.03-.29.044Q.146 3 0 3t-.294-.014q-.147-.015-.291-.044-.145-.028-.286-.071t-.277-.1-.266-.125-.253-.152-.236-.175q-.114-.093-.218-.198-.105-.104-.198-.218t-.175-.236-.152-.253-.126-.266-.098-.277-.071-.286-.044-.29Q-3 .146-3 0t.014-.294q.015-.147.044-.291.028-.145.071-.286t.1-.277.125-.266.152-.253.175-.236q.093-.114.198-.218.104-.105.218-.198t.236-.175.253-.152.266-.126.277-.099.286-.071q.144-.03.29-.044Q-.146-3 0-3t.294.014q.147.015.291.044.145.028.286.071t.277.1.266.125.253.152.236.175q.114.093.218.198.105.104.198.218t.175.236.152.253.126.266.099.277.071.286q.03.144.044.29Q3-.146 3 0" transform="matrix(1.75 0 0 2.33333 46.833 49.167)"/><path fill="#111" d="M68.417 49.167q0 .344-.026.686t-.075.68-.125.666-.174.646-.22.621-.265.59-.307.551-.346.51-.382.46-.414.41-.441.353-.466.294-.485.231-.5.167-.51.101-.514.034-.515-.034-.51-.1q-.252-.068-.5-.168-.246-.1-.484-.231-.239-.132-.466-.294t-.442-.353-.414-.41q-.2-.217-.382-.46t-.346-.51q-.163-.265-.307-.551-.143-.286-.264-.59-.122-.303-.22-.62-.1-.318-.174-.647-.075-.33-.125-.667t-.076-.68q-.025-.341-.025-.685t.025-.686q.025-.343.076-.68t.125-.666.173-.647.22-.621q.122-.303.265-.59.144-.285.307-.551.164-.266.346-.509.183-.243.382-.461.2-.219.414-.41t.442-.353q.227-.162.466-.293.238-.132.485-.232t.5-.167.51-.1.514-.034.514.033.51.101.5.167.485.232.466.293.441.353.414.41.382.461.346.509.307.552.265.589.22.62q.099.319.174.648t.125.666.075.68q.026.342.026.686"/><clipPath id="d"><path d="M68.417 49.167q0 .172-.007.343-.006.172-.019.343-.012.17-.031.34-.02.17-.044.34-.025.168-.057.334-.031.167-.068.332-.038.164-.081.326t-.093.32q-.05.16-.104.315-.055.155-.116.306-.061.152-.127.3-.067.147-.138.29t-.148.28q-.077.139-.159.271-.082.133-.168.26-.087.128-.178.25-.091.12-.187.236-.095.116-.195.225t-.203.211-.21.198-.218.184q-.11.088-.225.17-.113.08-.23.154-.116.073-.235.139-.12.066-.24.123-.122.058-.245.108-.124.05-.249.092t-.251.075-.254.059-.256.042-.257.025-.257.009-.258-.009-.257-.025-.256-.042-.254-.059-.251-.075-.248-.092-.245-.108q-.121-.057-.24-.123-.12-.066-.236-.14-.116-.073-.23-.154-.114-.08-.224-.17-.11-.088-.218-.183-.107-.096-.21-.198-.104-.102-.204-.211-.1-.11-.195-.225-.096-.115-.187-.237-.09-.121-.177-.248-.087-.128-.169-.26-.081-.133-.158-.271-.077-.139-.149-.281-.071-.143-.137-.29-.067-.148-.127-.3-.061-.151-.116-.306-.055-.156-.105-.315-.049-.158-.092-.32-.044-.162-.081-.326-.038-.165-.069-.331-.031-.167-.056-.336-.026-.168-.044-.338-.02-.17-.032-.341t-.019-.343q-.006-.171-.006-.343t.006-.344.019-.343q.013-.17.032-.34.018-.17.044-.339t.056-.335.069-.331q.037-.165.08-.327.044-.161.093-.32.05-.159.105-.314.055-.156.116-.307.06-.152.127-.3.066-.146.137-.29.072-.142.149-.28t.158-.271.169-.26q.086-.128.177-.25.091-.12.187-.236t.195-.224q.1-.11.203-.212t.21-.198.219-.183q.11-.089.224-.17.114-.08.23-.154.117-.074.236-.14.119-.065.24-.123t.245-.108.248-.092q.125-.041.251-.075.127-.033.254-.059.128-.025.256-.042t.257-.025.258-.008.257.008.257.025.256.042.254.06q.126.033.251.074.125.042.249.092.123.05.244.108.122.058.24.123.12.066.236.14.117.073.23.154.114.081.225.17.11.088.217.183.108.096.211.198.104.103.203.212t.195.224.187.237.178.249.168.26.159.27q.076.139.148.282t.138.29.127.299.116.307.104.314q.05.159.093.32.043.162.08.327.038.164.07.33.03.167.056.336.025.169.044.339t.031.34.02.343.006.344"/></clipPath><g clip-path="url(#d)"><path fill="#eee" d="M71.883 53.094q0 .223-.033.446-.033.222-.098.441-.066.22-.163.433-.097.214-.226.42-.128.207-.286.404t-.344.383q-.187.186-.4.36-.212.172-.45.33-.236.158-.496.3-.259.142-.537.266-.28.124-.575.23-.296.105-.605.19-.31.086-.631.15-.32.066-.65.11-.329.043-.662.065-.334.022-.67.022-.335 0-.668-.022-.334-.022-.663-.066-.329-.043-.65-.108-.32-.065-.63-.15-.31-.086-.606-.192-.295-.105-.574-.23-.279-.123-.538-.265-.26-.142-.496-.3-.237-.158-.45-.33-.213-.174-.399-.36-.186-.185-.344-.383-.158-.197-.287-.403t-.225-.42q-.098-.215-.163-.434-.066-.219-.098-.441-.033-.223-.033-.446 0-.224.033-.446.032-.223.098-.442.065-.22.163-.433.097-.214.225-.42.129-.207.287-.404t.344-.383.399-.359.45-.33.496-.3.538-.267.574-.23.606-.19.63-.15.65-.109.663-.066q.333-.021.669-.021.335 0 .669.021.333.022.662.066.33.044.65.108.32.065.63.15.31.086.606.192.296.105.575.23.278.124.537.265.26.142.497.3t.45.331q.212.173.399.359.186.186.344.383t.286.403.226.42.163.434.098.442.033.446"/></g><path fill="none" stroke="#111" stroke-linecap="round" stroke-linejoin="round" stroke-width=".5" d="M3 0q0 .147-.014.294t-.044.291-.071.286q-.043.14-.1.277-.056.136-.125.266-.07.13-.152.253-.081.122-.175.236t-.198.218-.218.198-.236.175-.253.152q-.13.07-.266.126t-.277.099-.286.071q-.144.03-.29.044Q.146 3 0 3t-.294-.014q-.147-.015-.291-.044-.145-.028-.286-.071t-.277-.1-.266-.125-.253-.152-.236-.175q-.114-.093-.218-.198-.105-.104-.198-.218t-.175-.236-.152-.253-.126-.266-.098-.277-.071-.286-.044-.29Q-3 .146-3 0t.014-.294q.015-.147.044-.291.028-.145.071-.286t.1-.277.125-.266.152-.253.175-.236q.093-.114.198-.218.104-.105.218-.198t.236-.175.253-.152.266-.126.277-.099.286-.071q.144-.03.29-.044Q-.146-3 0-3t.294.014q.147.015.291.044.145.028.286.071t.277.1.266.125.253.152.236.175q.114.093.218.198.105.104.198.218t.175.236.152.253.126.266.099.277.071.286q.03.144.044.29Q3-.146 3 0" transform="matrix(1.75 0 0 2.33333 63.167 49.167)"/></g><path fill="none" stroke="#111" stroke-linecap="round" stroke-linejoin="round" stroke-width="1.75" d="M48 66.667q7-5.834 14 0"/></g></svg>