<svg xmlns="http://www.w3.org/2000/svg" viewBox="0 0 110 110"><clipPath id="a"><rect width="91.667" height="91.667" x="9.167" y="9.167" rx="4.167" ry="4.167"/></clipPath><g clip-path="url(#a)"><path fill="#8a826e" d="M113.138 55.566q.235-2.335-1.251-4.153-1.487-1.817-3.821-2.051t-4.152 1.252-2.052 3.82q-.235 2.335 1.252 4.153 1.486 1.817 3.82 2.051 2.335.235 4.153-1.251 1.817-1.487 2.051-3.821m11.518-1.27-.49 4.89q-.027.264-.228.489-.2.224-.469.242l-4.136.208q-.538 1.147-1.06 1.918.66 1.179 2.051 3.276.194.286.165.573-.028.286-.249.486-.676.755-2.419 2.16t-2.227 1.356q-.264-.026-.553-.256l-2.8-2.683q-1.02.41-2.089.636-.653 2.96-1.05 4.032-.216.601-.854.537l-4.89-.49q-.308-.031-.52-.242-.213-.21-.206-.499l-.21-4.114q-1.044-.46-1.901-1.014l-3.342 2.045q-.24.176-.57.143-.309-.03-.527-.297-2.523-2.79-3.263-4.065-.132-.236-.103-.522.027-.264.227-.489.377-.43 1.27-1.352.894-.922 1.345-1.433-.484-1.161-.684-2.271l-3.97-1q-.283-.072-.436-.321-.153-.25-.124-.535l.49-4.89q.027-.264.228-.489.2-.224.447-.244l4.158-.206q.41-.982 1.063-1.94-.755-1.344-2.052-3.276-.194-.286-.167-.55.022-.22.249-.487.652-.736 2.407-2.15 1.755-1.415 2.24-1.366.285.029.55.278l2.803 2.661q1.02-.41 2.088-.636.653-2.96 1.05-4.032.216-.601.854-.537l4.89.49q.308.031.52.242.213.21.207.499l.21 4.114q1.044.46 1.9 1.014l3.364-2.043q.218-.178.549-.145.286.028.528.275 2.578 2.906 3.259 4.11.136.19.105.5-.026.263-.227.488-.377.43-1.27 1.352-.894.922-1.345 1.433.462 1.159.686 2.25l3.969 1.02q.282.073.435.322.153.25.124.535"/><path fill="#706959" fill-rule="evenodd" d="m125.707 59.34.49-4.889q.082-.807-.345-1.501-.48-.782-1.37-1.011l-3.07-.79q-.088-.31-.192-.625.297-.315.68-.71.92-.95 1.313-1.398.536-.6.613-1.366.084-.835-.33-1.473-.784-1.352-3.417-4.32l-.053-.056q-.635-.647-1.48-.732-.897-.09-1.577.405l-2.499 1.517q-.192-.106-.391-.208l-.16-3.147q-.005-.91-.666-1.565-.602-.597-1.456-.683l-4.89-.49q-.848-.085-1.512.332-.667.419-.95 1.21-.364.983-.899 3.298-.207.06-.412.126l-2.115-2.008q-.647-.61-1.458-.692-.76-.076-1.764.536-.646.395-1.603 1.165-1.855 1.496-2.614 2.352-.54.635-.611 1.337-.082.822.422 1.569.9 1.341 1.528 2.383-.135.233-.257.467l-3.23.16-.047.003q-.865.07-1.48.757-.535.6-.612 1.366l-.49 4.89q-.082.807.345 1.501.48.782 1.377 1.013l3.05.768q.09.324.199.652-.295.312-.674.703-.92.95-1.313 1.398-.536.6-.613 1.366-.077.773.305 1.454.818 1.411 3.433 4.304.617.73 1.542.823.88.088 1.576-.39l2.503-1.53q.19.104.388.206l.16 3.147q.005.91.666 1.565.602.597 1.456.683l4.89.49q.848.085 1.512-.332.667-.419.95-1.21.365-.983.899-3.298.205-.06.407-.124l2.108 2.02q.052.049.108.094.645.512 1.362.584.76.076 1.76-.533.644-.392 1.595-1.158 1.787-1.441 2.555-2.283.599-.583.682-1.416.085-.844-.415-1.584-.944-1.421-1.537-2.4.12-.21.238-.435l3.253-.164q.901-.059 1.524-.756.536-.6.613-1.366m-2.656-4.57-3.309-.851-.052-.014-.052-.017-.05-.018q-.026-.009-.05-.02l-.05-.02-.05-.024-.047-.025-.047-.026-.046-.029-.046-.03-.044-.03-.042-.033q-.022-.017-.042-.035l-.04-.035-.04-.038-.038-.038-.037-.04-.035-.04-.033-.043-.033-.044-.03-.044-.03-.046-.027-.046-.026-.047-.024-.049-.023-.049-.02-.05-.02-.05-.017-.052-.015-.051-.014-.053-.012-.052q-.196-.956-.608-1.988-.01-.024-.018-.05l-.018-.05-.015-.051-.014-.052-.012-.052-.01-.053-.008-.052-.006-.053-.005-.054-.003-.053v-.107l.003-.053.004-.053.007-.053.008-.053.01-.053.012-.052q.006-.026.014-.051l.015-.052.017-.05.02-.05.02-.05.022-.048.024-.048.026-.047.027-.046.029-.045.03-.044.032-.043.033-.041.035-.041q.475-.537 1.393-1.485.541-.56.885-.93-.687-1.007-2.394-2.955l-2.882 1.75-.046.027-.048.026q-.024.013-.049.024-.024.012-.05.022-.024.011-.05.02l-.05.02-.052.017-.052.015-.052.013-.053.012-.053.01-.054.007-.054.006-.054.004-.054.002h-.054l-.054-.002q-.027 0-.054-.003-.028-.002-.054-.006l-.054-.007q-.027-.004-.053-.01l-.054-.01-.052-.013-.052-.015-.052-.017-.05-.018-.051-.02-.05-.022-.048-.024-.048-.025-.047-.027-.046-.029q-.754-.486-1.686-.897l-.048-.023-.048-.024q-.024-.012-.047-.026l-.046-.027-.045-.029-.044-.03-.043-.032-.042-.034-.04-.034-.04-.037-.038-.037-.036-.039-.036-.04-.034-.041-.032-.043-.031-.043q-.016-.022-.03-.045l-.028-.045q-.014-.023-.026-.047l-.025-.047-.023-.048-.022-.05-.02-.049-.018-.05-.016-.051-.015-.052-.012-.052-.011-.052-.01-.053-.007-.053-.005-.053-.004-.053-.176-3.456-3.677-.368q-.327 1.082-.817 3.303l-.013.054-.015.053-.016.053-.019.052-.02.052-.023.05q-.011.026-.024.05l-.026.05-.027.048-.03.047-.03.046-.033.045-.034.043-.036.043-.037.04-.039.04-.04.039-.041.037-.043.035-.044.034-.045.032-.046.03-.048.03-.048.027-.05.025-.05.024-.05.022-.052.02-.052.018q-.026.009-.053.016l-.054.015-.054.012q-.937.199-1.832.558l-.052.02-.052.018-.053.016-.053.014-.054.012-.055.01-.054.008-.055.006-.055.005-.056.002h-.055l-.055-.001q-.028-.001-.055-.004l-.055-.005q-.028-.003-.055-.008l-.054-.009-.054-.011-.054-.014-.053-.015-.053-.017-.052-.019-.05-.02-.051-.023-.05-.024-.049-.026-.047-.028-.047-.03-.046-.031-.044-.033-.043-.034-.043-.036-.04-.037-2.444-2.32q-.44.29-1.11.83-1.24.998-1.856 1.594 1.109 1.677 1.798 2.903l.025.047.024.048.022.05.02.05.02.05.016.05.015.052.014.052.011.053.01.052.008.054.006.053.004.053.003.054v.054l-.001.054-.004.053-.005.054-.007.053-.008.053-.011.053-.012.052-.015.052q-.007.026-.016.051l-.017.05-.02.05-.021.05-.023.049-.025.047-.026.047-.028.046q-.014.023-.03.045-.563.828-.913 1.665l-.022.05-.023.05-.026.047-.027.048-.028.046-.03.045-.032.045-.034.043-.035.042-.036.04-.038.04-.039.038-.04.036q-.02.018-.042.035l-.043.034-.044.032q-.022.016-.045.03l-.046.03-.047.027-.049.025q-.024.013-.049.024l-.05.023-.05.02-.051.019-.052.016-.052.015-.053.013-.054.012-.053.009-.054.008-.055.005-.054.004-3.43.17-.365 3.633 3.303.83.054.015.053.017.052.018.052.02q.026.01.05.022l.05.024q.026.012.05.026l.048.027.048.03.046.03.045.032.044.034q.022.017.043.036l.04.037q.021.018.04.038l.04.04.037.041.035.043q.018.021.034.043l.033.045q.016.023.03.047.016.023.03.047l.027.048q.014.024.026.05.013.024.024.05.012.024.022.05l.02.052.02.052.016.053q.008.026.014.053l.013.054.011.055q.17.944.59 1.95l.02.05.018.05.016.052.015.052.012.053.011.053.01.054.007.053.005.054.003.054.002.055v.054l-.003.054-.004.054-.006.054-.008.053-.01.054-.012.053-.013.052-.015.052q-.008.026-.018.051-.008.026-.018.051l-.021.05q-.01.025-.023.05l-.024.048-.026.048-.027.046-.029.046-.03.045-.033.043q-.016.022-.034.043l-.035.041q-.475.537-1.393 1.485-.547.565-.892.937.716 1.045 2.418 2.951l2.86-1.75q.023-.015.047-.028l.048-.026.048-.024.05-.023.05-.02.051-.02.052-.016.052-.016.052-.013.054-.012.053-.01.054-.008.054-.006.054-.004.054-.002h.055l.054.001.054.004.054.005.054.008.054.009.053.011.053.013.052.015.052.016.051.019.05.02.05.022.05.023.047.026.047.027.046.029q.754.486 1.686.897l.049.023.047.024q.024.012.047.026l.046.027.045.029.044.03.043.032.042.034.04.034.04.037.038.037.036.039.036.04.034.041q.017.021.032.043l.032.043.03.045.027.045.027.047.024.047.023.048.022.05.02.049.018.05.016.051.015.052.012.052.011.052.01.053.007.053.005.053q.003.026.004.053l.176 3.456 3.677.368q.327-1.082.817-3.303l.013-.054.015-.053.017-.053.018-.052.02-.052.023-.05q.011-.026.024-.05l.026-.05.027-.048.03-.047.03-.046.033-.045.034-.043.036-.043.037-.04.039-.04.04-.039.041-.037.043-.035.044-.034.045-.032.046-.03.048-.03.048-.027.05-.025.05-.024.05-.022.052-.02.052-.018.053-.016.054-.015.054-.012q.937-.199 1.832-.558l.052-.02q.026-.01.053-.018l.053-.016.053-.014.055-.012.054-.01q.027-.005.055-.008l.055-.007.055-.004.056-.002h.055l.056.001.055.004.055.005.055.008q.028.004.055.01l.054.011.054.014.053.015.053.017.052.02.051.02.05.023.05.025.05.026.047.028.047.03.046.032.044.033.044.034.042.036.04.038 2.426 2.324q.44-.287 1.11-.828 1.238-.998 1.88-1.619-1.194-1.819-1.807-2.913l-.025-.047-.024-.048q-.012-.024-.022-.049l-.02-.05-.02-.05-.016-.05-.015-.052-.014-.052-.011-.052-.01-.053-.008-.053-.006-.053-.004-.053-.002-.054v-.107l.004-.053.005-.054.007-.053.008-.053.01-.052.013-.052.014-.052.016-.051.018-.05.02-.05.02-.05.023-.048.025-.048.026-.047q.013-.023.028-.045l.029-.045q.454-.67.94-1.707.01-.023.023-.047l.024-.046.027-.045.027-.045q.014-.022.03-.043.014-.022.03-.043l.032-.041.033-.04.035-.04.036-.038.038-.037.038-.035.04-.034.04-.033.043-.032.043-.03.044-.028.045-.027.046-.025.046-.024.048-.023.048-.02.049-.02.05-.017.05-.015q.024-.008.05-.014l.05-.012.052-.011.052-.009.051-.007.053-.005.052-.004 3.432-.172zm-15.703-15.848.003-.008zm4.72 21.664q2.314-1.892 2.612-4.866t-1.594-5.287-4.866-2.613-5.287 1.594-2.613 4.866 1.594 5.287 4.866 2.613 5.287-1.594m-1.381-8.192q1.08 1.321.91 3.017t-1.491 2.776-3.017.91-2.776-1.491-.91-3.017 1.491-2.776 3.017-.91 2.776 1.491"/><path fill="#8a826e" d="M76.862 105.496q.234-2.334-1.252-4.152t-3.82-2.052-4.153 1.252-2.052 3.82 1.252 4.153q1.486 1.818 3.82 2.052 2.335.234 4.153-1.252t2.052-3.82m11.517-1.269-.49 4.89q-.027.264-.227.488-.2.225-.47.243l-4.136.207q-.538 1.148-1.06 1.918.66 1.179 2.052 3.276.193.287.165.573-.029.286-.25.487-.676.755-2.418 2.16-1.743 1.404-2.228 1.356-.264-.027-.552-.256l-2.801-2.684q-1.02.41-2.088.636-.653 2.96-1.05 4.033-.216.601-.855.537l-4.89-.49q-.308-.032-.52-.242t-.206-.499l-.21-4.114q-1.044-.461-1.9-1.014l-3.343 2.045q-.24.176-.57.143-.308-.031-.526-.298-2.524-2.789-3.263-4.065-.132-.235-.104-.522.027-.264.227-.488.377-.43 1.27-1.352.894-.923 1.346-1.434-.484-1.16-.684-2.27l-3.971-1q-.282-.073-.435-.322t-.125-.535l.491-4.89q.027-.264.227-.488.2-.225.447-.245l4.159-.205q.41-.983 1.062-1.94-.755-1.344-2.052-3.276-.193-.287-.167-.551.022-.22.25-.487.651-.735 2.406-2.15 1.755-1.414 2.24-1.366.286.03.55.278l2.803 2.662q1.02-.41 2.088-.636.653-2.96 1.05-4.033.216-.601.855-.537l4.89.49q.308.032.52.242t.206.499l.21 4.114q1.044.461 1.9 1.014l3.364-2.043q.219-.178.549-.145.286.029.528.276 2.579 2.906 3.259 4.109.136.191.105.5-.026.264-.227.488-.376.43-1.27 1.352-.893.923-1.345 1.434.462 1.159.687 2.249l3.968 1.021q.282.073.435.322t.124.535"/><path fill="#706959" fill-rule="evenodd" d="m89.43 109.271.491-4.89q.081-.806-.346-1.5-.48-.782-1.369-1.012l-3.07-.79q-.089-.31-.193-.624.298-.315.68-.71.92-.95 1.313-1.399.536-.6.613-1.366.084-.834-.33-1.472-.784-1.352-3.416-4.32-.026-.029-.054-.057-.635-.647-1.48-.732-.897-.09-1.576.405l-2.5 1.518q-.192-.106-.39-.208l-.161-3.148q-.004-.91-.666-1.565-.602-.596-1.456-.682l-4.89-.49q-.848-.086-1.512.331-.666.42-.95 1.21-.364.983-.899 3.299-.206.06-.412.125l-2.114-2.008q-.648-.61-1.459-.691-.76-.077-1.763.536-.647.394-1.603 1.165-1.856 1.496-2.614 2.352-.541.634-.612 1.336-.082.823.423 1.57.9 1.341 1.527 2.382-.134.233-.257.468l-3.23.16q-.023 0-.046.003-.866.069-1.48.757-.536.6-.613 1.366l-.49 4.89q-.081.806.346 1.5.48.782 1.377 1.014l3.05.767q.089.325.198.652-.295.313-.673.704-.92.95-1.313 1.398-.537.6-.613 1.366-.078.772.304 1.454.819 1.41 3.433 4.303.617.73 1.542.824.88.088 1.577-.39l2.502-1.531q.191.105.388.206l.161 3.148q.004.91.665 1.565.603.596 1.457.682l4.89.49q.848.086 1.512-.331.666-.42.95-1.21.364-.983.898-3.299.205-.059.408-.124l2.108 2.02q.051.05.108.094.645.512 1.362.584.759.077 1.76-.533.643-.392 1.594-1.158 1.787-1.44 2.556-2.283.598-.583.681-1.415.085-.845-.415-1.584-.943-1.422-1.536-2.4.119-.21.237-.436l3.253-.163q.902-.06 1.525-.757.536-.6.613-1.366m-2.655-4.57-3.31-.851-.052-.015-.051-.016-.051-.018-.05-.02-.05-.021-.049-.023-.048-.025-.047-.027-.046-.028-.045-.03-.044-.031-.043-.033-.042-.034-.04-.036-.04-.037-.038-.039-.036-.04-.035-.04q-.018-.021-.034-.043t-.032-.043-.03-.045q-.016-.022-.03-.045l-.028-.047-.025-.047-.025-.048-.022-.05-.021-.05-.019-.05-.017-.051-.016-.052-.013-.052q-.007-.026-.012-.053-.197-.956-.608-1.987l-.019-.05q-.01-.025-.017-.05l-.016-.052-.013-.051q-.007-.026-.012-.053l-.01-.052-.009-.053-.006-.053-.005-.053-.002-.053-.001-.054v-.053l.003-.054.005-.053.006-.053.009-.053.01-.052.011-.052.014-.052q.007-.026.016-.051l.017-.05.019-.05.02-.05.023-.049q.011-.024.024-.047l.025-.047.027-.046q.014-.023.03-.045l.03-.044.031-.043.034-.042.034-.04q.475-.538 1.393-1.486.542-.559.886-.929-.687-1.008-2.394-2.955l-2.882 1.75-.047.027-.048.026-.048.024-.05.022-.05.02-.05.02-.052.016-.052.015-.053.014-.053.011-.053.01-.054.007q-.026.004-.053.006-.027.003-.055.004l-.054.002h-.054l-.054-.001-.054-.004-.054-.005-.054-.008-.053-.009-.053-.01-.053-.014-.052-.015q-.026-.007-.051-.016l-.051-.018-.05-.02-.05-.023q-.025-.01-.05-.023l-.047-.025-.047-.027-.046-.029q-.754-.487-1.686-.898l-.048-.022-.048-.024-.047-.026-.046-.028-.045-.028-.044-.03-.042-.033q-.022-.016-.042-.033l-.04-.035-.04-.036-.038-.038-.037-.038-.035-.04q-.018-.02-.034-.042-.017-.02-.033-.042l-.031-.044-.03-.044-.028-.046-.026-.046-.025-.048-.023-.048-.021-.049-.02-.05q-.01-.024-.018-.05l-.017-.05-.014-.052-.013-.052-.01-.052-.01-.053-.007-.053-.006-.053-.003-.054-.177-3.455-3.677-.369q-.327 1.082-.817 3.304l-.012.053-.015.054-.017.053-.019.052-.02.051q-.01.026-.022.051l-.024.05-.026.05-.028.047q-.014.024-.03.047-.014.024-.03.046l-.033.045-.034.044-.036.042-.037.041-.039.04-.04.038-.04.037-.044.035q-.021.018-.044.034t-.045.032l-.046.031-.047.029-.048.027-.05.026-.05.023-.05.022-.052.02q-.026.01-.053.018L69 93.83l-.053.014-.054.013q-.937.198-1.833.558l-.051.02-.053.017q-.026.009-.053.016-.026.008-.053.014l-.054.012-.054.01-.055.009-.055.006q-.027.003-.055.004l-.055.003h-.055l-.056-.002q-.027 0-.055-.003l-.055-.006-.054-.007q-.028-.004-.055-.01l-.054-.01-.054-.014-.053-.015-.052-.017-.052-.02-.051-.02q-.026-.01-.05-.023-.026-.011-.05-.024l-.05-.026-.047-.028q-.024-.014-.047-.03-.023-.014-.045-.03l-.045-.033-.043-.035-.042-.035-.04-.038-2.444-2.32q-.441.29-1.11.83-1.24.999-1.857 1.595 1.11 1.677 1.798 2.903l.025.047.024.048q.012.024.022.049l.02.05.02.05.017.051.015.052.013.052.012.052.01.053.007.053.006.053.005.054.002.054v.107l-.004.054-.005.053-.007.053-.009.053-.01.053-.013.052-.014.052-.016.052-.018.05-.02.05-.02.05-.024.048-.025.048q-.012.024-.026.047l-.028.046-.03.045q-.563.827-.912 1.665l-.022.05-.024.049-.025.048-.027.047-.029.047-.03.045-.032.044-.033.043-.035.042-.037.04-.037.04-.04.038-.04.037q-.02.018-.042.035-.02.017-.042.033l-.045.033-.045.03-.046.029-.047.027-.048.026-.05.024-.049.022-.05.02-.052.02-.052.016-.052.015-.053.013-.053.011-.054.01-.054.007-.054.006-.055.003-3.43.17-.364 3.633 3.303.831.053.015.053.016.053.019.051.02q.026.01.051.022l.05.024.05.025.048.028.047.029.046.03.045.033q.023.016.044.034l.043.035.041.037.04.039.039.04.037.04.036.043.034.044.032.045.031.046.03.047.027.048.026.05.024.05.022.05.02.052.019.052.016.053.015.054.013.054.01.054q.17.944.59 1.95l.02.05q.01.025.018.051l.016.052.015.052.013.053q.006.026.01.053.006.026.01.053l.007.054.005.054.004.054.001.054v.054l-.002.054-.005.054-.006.054-.008.054q-.004.027-.01.053l-.011.053-.014.052-.015.052-.017.052-.019.05-.02.05-.023.05-.024.049-.026.047q-.013.024-.028.047l-.029.046-.03.044-.033.044-.033.042-.035.042q-.475.537-1.393 1.485-.547.565-.893.937.716 1.045 2.418 2.95l2.86-1.75.047-.027.048-.026.049-.025.05-.022.05-.02.05-.02.052-.017.052-.015.053-.014.053-.011.053-.01.054-.008.054-.006.054-.004.055-.002h.054l.054.001q.028.001.055.004l.054.005.054.007.053.01q.027.004.053.01l.053.013.052.015.052.017.051.018.05.02q.026.01.05.022l.05.024.048.025.047.027.046.03q.754.486 1.685.897.025.01.049.022l.048.024.047.026.046.028.044.028.044.03.043.033q.022.016.042.033l.04.035.04.036.038.038.037.038.035.04q.018.02.034.042.017.02.033.042l.031.044.03.044.028.046.026.046.025.048.023.048.021.049.02.05q.01.024.018.05l.016.05.015.052.013.052.01.052.01.053.007.053.006.053.003.054.177 3.455 3.677.369q.326-1.082.816-3.304l.013-.053.015-.054.017-.053.019-.052.02-.051q.01-.026.022-.051l.024-.05.026-.05.028-.047q.014-.024.03-.047.014-.024.03-.046l.033-.045.034-.044.036-.042.037-.041.038-.04.04-.038q.02-.019.042-.037.02-.018.043-.035.021-.018.043-.034l.046-.032.046-.031.047-.029.048-.027.05-.026.05-.023.05-.022.052-.02q.026-.01.053-.018l.053-.017.053-.014.054-.013q.937-.198 1.833-.558l.052-.02.052-.017q.026-.009.053-.016l.054-.014.054-.012.054-.01.055-.009.055-.006.056-.004.055-.003h.056l.055.002.055.003.056.006.055.008.054.01.055.01.053.014.054.015.052.018.052.019.052.02.05.024.05.024.049.027.048.028.046.03.046.031.045.033.043.035.042.036.04.038 2.427 2.324q.44-.288 1.11-.829 1.237-.997 1.88-1.618-1.195-1.82-1.808-2.913l-.025-.047-.024-.048-.022-.05-.02-.049-.019-.05-.017-.05-.015-.052-.013-.052-.012-.052-.01-.053-.007-.053-.006-.053-.005-.054-.002-.053v-.107l.004-.054.005-.053.007-.053.009-.053.01-.053.013-.052q.006-.026.014-.051.007-.026.016-.051l.017-.051.02-.05.02-.05.024-.048.024-.047.026-.047.028-.046q.014-.023.03-.045.453-.67.94-1.706.01-.024.022-.047l.025-.047q.012-.023.026-.045l.028-.044.029-.044.03-.043.032-.041.034-.04.035-.04.036-.038.037-.036.039-.036.04-.034.04-.033.042-.031.043-.03.044-.028.045-.027.046-.026.047-.024.047-.022.048-.02.05-.02.049-.017.05-.016.05-.014.051-.012.051-.01.052-.01.052-.006.052-.006.052-.003 3.432-.172zM71.07 88.853l.003-.008zm4.72 21.664q2.314-1.893 2.613-4.866t-1.595-5.288q-1.892-2.314-4.865-2.613t-5.288 1.594-2.613 4.866 1.594 5.288 4.866 2.613 5.288-1.594m-1.38-8.192q1.08 1.32.91 3.017t-1.492 2.775-3.017.91-2.775-1.49-.91-3.018 1.49-2.775 3.017-.91q1.697.17 2.776 1.49"/><path fill="#8a826e" d="M18.165 86.424q.234-2.334-1.252-4.152-1.486-1.817-3.82-2.052-2.335-.234-4.153 1.252t-2.052 3.821 1.252 4.152 3.82 2.052q2.336.234 4.153-1.252 1.818-1.486 2.052-3.82m11.518-1.269-.491 4.89q-.027.264-.227.489t-.47.242l-4.136.208q-.538 1.147-1.06 1.918.66 1.178 2.052 3.276.194.286.165.572-.029.287-.25.487-.676.755-2.418 2.16-1.743 1.404-2.227 1.356-.265-.027-.553-.256l-2.801-2.683q-1.02.409-2.088.635-.653 2.96-1.05 4.033-.216.601-.855.537l-4.89-.49q-.308-.031-.52-.242-.213-.21-.206-.499l-.21-4.114q-1.044-.46-1.9-1.014l-3.342 2.045q-.24.176-.57.143-.31-.031-.527-.298-2.523-2.789-3.263-4.064-.132-.236-.103-.522.026-.265.227-.49.376-.429 1.27-1.351.893-.923 1.345-1.434Q.1 89.53-.1 88.42l-3.971-1q-.282-.073-.435-.322-.153-.248-.124-.535l.49-4.89q.027-.264.227-.488.2-.225.447-.245l4.159-.205q.41-.982 1.062-1.94Q1 77.451-.296 75.519q-.194-.287-.168-.55.022-.221.25-.488.652-.735 2.406-2.15 1.755-1.414 2.24-1.365.286.028.55.277l2.803 2.662q1.02-.41 2.089-.636.652-2.96 1.05-4.033.215-.6.854-.537l4.89.49q.308.032.52.242t.206.5l.21 4.114q1.044.46 1.9 1.013l3.365-2.042q.218-.179.548-.146.286.03.529.276 2.578 2.906 3.258 4.109.137.191.106.5-.027.264-.227.489-.377.429-1.27 1.352-.894.922-1.346 1.433.462 1.159.687 2.25l3.968 1.02q.282.073.435.322t.125.535"/><path fill="#706959" fill-rule="evenodd" d="m30.734 90.2.49-4.89q.081-.807-.346-1.501-.48-.782-1.368-1.011l-3.072-.79q-.088-.311-.191-.625.297-.315.68-.71.92-.95 1.313-1.398.536-.6.612-1.367.084-.834-.33-1.472-.784-1.352-3.416-4.32-.026-.029-.053-.056-.636-.648-1.48-.732-.898-.09-1.577.404l-2.499 1.518q-.192-.106-.391-.208l-.161-3.147q-.004-.91-.665-1.566-.603-.596-1.457-.682l-4.89-.49q-.848-.086-1.511.332-.667.418-.95 1.209-.365.983-.9 3.299-.206.06-.411.125l-2.115-2.007q-.648-.61-1.459-.692-.76-.076-1.763.536-.647.394-1.603 1.165-1.856 1.496-2.614 2.352-.541.635-.611 1.336-.083.823.422 1.57.9 1.341 1.528 2.382-.135.233-.257.468l-3.23.16-.047.003q-.866.07-1.48.757-.536.6-.612 1.366l-.491 4.89q-.081.806.346 1.5.48.782 1.377 1.014l3.05.767q.09.325.198.652-.295.313-.673.704-.92.95-1.313 1.398-.536.6-.613 1.366-.078.772.304 1.454.819 1.411 3.434 4.304.617.73 1.541.823.88.088 1.577-.39l2.502-1.53q.191.104.389.205l.16 3.148q.004.91.666 1.565.602.597 1.456.682l4.89.49q.848.086 1.512-.331.666-.42.95-1.21.364-.983.899-3.299.204-.058.407-.124l2.108 2.02q.052.05.108.094.645.513 1.362.585.759.076 1.76-.533.643-.392 1.594-1.159 1.787-1.44 2.556-2.283.598-.583.682-1.415.084-.845-.416-1.584-.943-1.422-1.536-2.4.119-.21.238-.435l3.253-.164q.901-.059 1.524-.757.536-.6.613-1.366m-2.656-4.57-3.31-.852-.051-.015-.052-.016q-.026-.008-.051-.018l-.05-.02-.05-.021-.049-.023-.048-.025-.047-.027-.046-.028q-.023-.014-.045-.03l-.044-.03-.043-.034-.042-.034-.04-.036-.04-.037-.037-.038-.037-.04-.035-.041-.034-.042-.032-.044-.03-.044-.03-.046-.027-.046-.026-.048-.024-.048-.023-.05-.02-.05-.02-.05-.017-.05-.015-.053-.014-.052q-.007-.026-.012-.053-.197-.956-.608-1.987l-.019-.05-.017-.05-.016-.052-.013-.051-.012-.052-.01-.053q-.005-.026-.008-.053l-.007-.053q-.003-.026-.004-.053l-.003-.053-.001-.054v-.053l.003-.053.005-.054.006-.053.009-.053.01-.052.012-.052.013-.052.016-.05.017-.052.019-.05.02-.049.023-.048.024-.048.025-.047.028-.046.028-.045.03-.044.033-.043.033-.042.034-.04q.475-.537 1.393-1.485.542-.56.886-.93-.687-1.007-2.394-2.955l-2.882 1.75-.047.027-.048.026-.048.024-.05.022-.05.02-.05.02-.052.016-.052.015q-.026.008-.053.014l-.052.011-.054.01-.053.008-.054.006-.054.004-.054.002h-.055l-.054-.002-.054-.003-.054-.006-.054-.007-.053-.01-.053-.01-.053-.014-.052-.014-.051-.017-.051-.018-.05-.02-.05-.022-.049-.024-.048-.025-.047-.027-.046-.029q-.754-.487-1.685-.898-.025-.01-.049-.022l-.048-.024-.047-.026-.045-.027q-.023-.014-.045-.03-.023-.014-.044-.03-.022-.015-.043-.032l-.042-.033-.04-.035-.04-.036q-.02-.018-.038-.037l-.037-.04q-.018-.019-.035-.04l-.034-.04-.033-.043q-.016-.021-.03-.043l-.03-.045-.028-.046-.027-.046-.025-.047-.023-.049-.021-.049-.02-.05q-.01-.024-.018-.05l-.016-.05-.015-.052-.013-.052-.01-.052q-.006-.026-.01-.053l-.007-.053-.006-.053-.003-.053-.177-3.456-3.677-.369q-.326 1.082-.816 3.304l-.013.054-.015.053-.017.053-.018.052-.02.052-.023.05-.024.05-.026.05-.028.047q-.014.024-.03.047-.014.024-.03.046l-.033.045-.034.044-.035.042-.038.041-.038.04-.04.038q-.02.02-.042.037l-.042.036-.044.033-.045.033-.047.03-.047.03-.048.026-.05.026-.05.024-.05.021-.052.02-.053.019-.053.016q-.026.008-.053.014l-.054.013q-.937.198-1.833.558l-.051.02-.053.017-.052.016-.054.014-.054.012-.054.01-.055.009-.055.006q-.027.003-.055.004l-.055.003H7.77l-.055-.001-.056-.004-.055-.005-.054-.008q-.028-.004-.055-.01l-.054-.01-.053-.014-.054-.015-.052-.017-.052-.019-.051-.02-.05-.023-.05-.025q-.025-.012-.049-.026l-.048-.028-.046-.03q-.024-.014-.046-.03l-.045-.033-.043-.034-.042-.036-.04-.038-2.444-2.32q-.44.29-1.11.83-1.24.999-1.857 1.595 1.11 1.677 1.798 2.903l.026.047.023.048.023.05.02.049.019.05.017.051.015.052.013.052.012.052.01.053.008.053.006.054.004.053.002.054v.107l-.004.054-.005.053-.007.054-.009.053-.01.052-.013.053-.014.051-.016.052-.018.05-.02.05-.02.05-.024.048-.024.048-.027.047-.028.046-.029.045q-.564.828-.913 1.665l-.022.05-.024.049-.025.048-.027.047-.029.047q-.014.023-.03.045l-.032.044-.033.043q-.017.022-.035.042l-.036.04-.038.04-.04.038-.04.037-.041.035-.043.034-.044.032-.045.03-.047.03-.047.027-.048.025q-.024.013-.049.024l-.05.022-.05.02-.052.02-.051.016-.053.015-.053.013-.053.011-.054.01-.054.007-.054.006-.054.003-3.43.17-.365 3.634 3.303.83.053.015.053.017q.027.008.053.018l.051.02q.026.01.051.022.026.011.05.024l.05.025.048.028.047.029.046.03.046.033q.022.016.043.034l.043.035.041.037.04.039.04.04.036.04.036.043.034.044q.017.022.032.045l.031.046.03.047.027.049.026.049.024.05.022.05.02.052.019.053q.009.026.016.053l.015.053.013.054.01.054q.17.945.59 1.95l.02.05.018.051.017.052.014.052.013.053q.006.026.01.053l.01.053.007.054.005.054.004.054.001.054v.054q0 .028-.002.055l-.004.054-.007.053-.007.054-.01.053-.012.053-.013.053-.016.052-.017.051-.019.05-.02.05-.023.05-.024.049-.026.047-.027.047-.03.046-.03.045-.032.043-.034.043-.035.04q-.475.538-1.393 1.486-.547.565-.893.937.716 1.045 2.418 2.95l2.86-1.75.048-.027q.023-.014.047-.026l.05-.024.049-.023.05-.02.05-.02.052-.017.052-.015.053-.014.053-.011.054-.01.053-.008.054-.006.055-.004.054-.002h.054l.055.001.054.004.054.005.054.007.053.01.054.01.052.014.053.014.051.017.052.018.05.02.05.023q.024.01.049.023l.048.026.047.027.046.028q.754.487 1.686.898l.048.023.048.024.047.025.046.028.045.029.044.03.043.032.041.033.04.035.04.036.038.038.037.039.035.04.035.041.032.042.031.044.03.044.028.046.026.046.025.048.023.048.022.049.02.05.017.05.017.05.014.052.013.052q.006.026.01.053l.01.052.007.053.006.053.003.054.177 3.455 3.677.37q.327-1.083.817-3.304l.013-.054.014-.054.017-.053.019-.052.02-.051q.01-.026.022-.051l.025-.05.025-.049.028-.048q.014-.024.03-.047l.03-.046.033-.045.034-.044.036-.042.037-.041.039-.04.04-.038.041-.037.043-.035q.021-.018.044-.034t.045-.032l.046-.03q.023-.016.047-.03l.049-.027.049-.025.05-.024.05-.022.052-.02.053-.018.053-.017.053-.014.054-.012q.937-.199 1.833-.558l.052-.02.052-.018.053-.016.054-.014.054-.012q.027-.006.055-.01l.055-.009.055-.006q.027-.003.055-.004l.055-.003h.056q.028 0 .055.002l.056.004.055.005.055.008.054.01.055.01.054.014.053.016.053.017.052.019.05.021.051.023.05.024.049.027.048.028.047.03.045.031.045.033.043.035.042.036.041.038 2.426 2.324q.44-.288 1.11-.829 1.238-.997 1.88-1.618-1.195-1.82-1.808-2.913l-.025-.047-.024-.048-.022-.049-.02-.05-.019-.05-.017-.05-.015-.052-.013-.052-.012-.052-.01-.053-.007-.053q-.004-.026-.006-.053l-.004-.053-.003-.054v-.053l.001-.054.003-.054.005-.053.007-.053.009-.053.01-.052.013-.052.014-.052q.007-.026.016-.051.008-.026.018-.05l.019-.05.021-.05.023-.048.024-.048.027-.047.027-.046.03-.045q.453-.67.94-1.706.01-.024.022-.047l.025-.046.026-.046.028-.044.029-.044.03-.042.033-.042.033-.04.035-.04.036-.037.037-.037.039-.036.04-.034.04-.032.042-.032.043-.03.044-.028.045-.027.046-.026.047-.024.047-.022.048-.02.05-.02.049-.017.05-.016.05-.014.051-.012.052-.01.051-.01.052-.006.052-.005q.026-.003.053-.004l3.431-.172zM12.375 69.78l.002-.007zm4.719 21.665q2.314-1.893 2.613-4.866t-1.594-5.288q-1.893-2.314-4.866-2.612t-5.288 1.594q-2.314 1.892-2.612 4.865t1.594 5.288 4.865 2.613 5.288-1.594m-1.38-8.192q1.08 1.32.91 3.017t-1.492 2.776-3.016.91-2.776-1.492q-1.08-1.32-.91-3.016t1.49-2.776q1.322-1.08 3.018-.91t2.776 1.491"/><path fill="#8a826e" d="M18.165 24.707q.234-2.335-1.252-4.152t-3.82-2.052-4.153 1.252-2.052 3.82 1.252 4.153 3.82 2.052q2.336.234 4.153-1.252 1.818-1.486 2.052-3.821m11.518-1.27-.491 4.89q-.027.265-.227.49t-.47.241l-4.136.208q-.538 1.148-1.06 1.918.66 1.179 2.052 3.276.194.287.165.573t-.25.487q-.676.755-2.418 2.16-1.743 1.404-2.227 1.355-.265-.026-.553-.255l-2.801-2.684q-1.02.41-2.088.636-.653 2.96-1.05 4.033-.216.6-.855.537l-4.89-.49q-.308-.032-.52-.242t-.206-.5l-.21-4.114q-1.044-.46-1.9-1.013l-3.342 2.045q-.24.176-.57.143-.31-.031-.527-.298-2.523-2.79-3.263-4.065-.132-.235-.103-.522.026-.264.227-.489.376-.429 1.27-1.352.893-.922 1.345-1.433Q.1 27.812-.1 26.7l-3.971-1q-.282-.072-.435-.32-.153-.25-.124-.536l.49-4.89q.027-.264.227-.489t.447-.244l4.159-.206q.41-.982 1.062-1.94Q1 15.732-.296 13.799q-.194-.286-.168-.55.022-.22.25-.487.652-.735 2.406-2.15Q3.948 9.2 4.433 9.247q.286.029.55.278l2.803 2.661q1.02-.409 2.089-.635.652-2.96 1.05-4.033.215-.601.854-.537l4.89.49q.308.031.52.242.213.21.206.499l.21 4.114q1.044.46 1.9 1.014l3.365-2.043q.218-.178.548-.145.286.029.529.276 2.578 2.906 3.258 4.108.137.192.106.5-.027.265-.227.49-.377.429-1.27 1.351-.894.923-1.346 1.434.462 1.158.687 2.249l3.968 1.02q.282.074.435.323.153.248.125.535"/><path fill="#706959" fill-rule="evenodd" d="m30.734 28.482.49-4.89q.081-.806-.346-1.5-.48-.782-1.368-1.012l-3.072-.79q-.088-.31-.191-.625.297-.315.68-.71.92-.95 1.313-1.398.536-.6.612-1.366.084-.834-.33-1.473-.784-1.351-3.416-4.319l-.053-.057q-.636-.647-1.48-.732-.898-.09-1.577.405l-2.499 1.518q-.192-.106-.391-.208l-.161-3.148q-.004-.91-.665-1.565-.603-.597-1.457-.682l-4.89-.49q-.848-.086-1.511.331-.667.42-.95 1.21-.365.983-.9 3.299-.206.06-.411.125L6.046 8.397q-.648-.61-1.459-.692-.76-.076-1.763.536-.647.395-1.603 1.166-1.856 1.496-2.614 2.351-.541.635-.611 1.337-.083.823.422 1.569.9 1.342 1.528 2.383-.135.233-.257.468l-3.23.16q-.024 0-.047.003-.866.069-1.48.757-.536.6-.612 1.366l-.491 4.89q-.081.806.346 1.5.48.782 1.377 1.013l3.05.768q.09.325.198.652-.295.313-.673.703-.92.95-1.313 1.398-.536.6-.613 1.367-.078.772.305 1.454.818 1.41 3.433 4.303.617.73 1.541.823.88.089 1.577-.389l2.502-1.531q.191.105.389.206l.16 3.147q.004.91.666 1.566.602.596 1.456.682l4.89.49q.848.086 1.512-.332.666-.418.95-1.209.364-.984.899-3.299.204-.059.407-.124l2.108 2.02q.052.05.108.094.645.512 1.362.584.759.076 1.76-.533.643-.392 1.594-1.158 1.787-1.44 2.556-2.283.598-.583.682-1.415.084-.845-.416-1.584-.943-1.422-1.536-2.4.119-.21.238-.436l3.253-.163q.901-.06 1.524-.757.536-.6.613-1.366m-2.656-4.57-3.31-.852q-.026-.006-.051-.014l-.052-.016-.05-.018-.051-.02-.05-.021-.049-.024-.048-.025-.047-.026-.046-.028-.045-.03-.044-.031-.043-.033-.042-.034-.04-.036-.04-.037-.037-.039-.037-.04-.035-.04-.034-.043-.032-.043q-.016-.022-.03-.045-.016-.022-.03-.045l-.027-.047q-.014-.023-.026-.047l-.024-.048-.023-.05-.02-.05-.02-.05-.017-.051-.015-.052-.014-.052-.012-.053q-.197-.956-.608-1.987l-.019-.05-.017-.05-.016-.052-.013-.052-.012-.052-.01-.052-.008-.053-.007-.053-.004-.053-.003-.054-.001-.053v-.054l.003-.053.005-.053.006-.053.009-.053.01-.052q.005-.027.012-.053l.013-.051.016-.051.017-.05.019-.05.02-.05.023-.049q.011-.024.024-.047l.025-.047.028-.046.028-.045.03-.044.033-.043q.016-.022.033-.042l.034-.04q.475-.538 1.393-1.486.542-.559.886-.929-.687-1.008-2.394-2.956l-2.882 1.75q-.023.015-.047.028l-.048.025-.048.024-.05.023-.05.02-.05.019-.052.017-.052.015-.053.013-.052.012-.054.01-.053.007-.054.006-.054.004-.054.002h-.055l-.054-.001-.054-.004-.054-.005-.053-.008-.054-.009-.053-.011-.053-.013-.052-.015-.051-.016-.051-.019-.05-.02-.05-.022-.049-.023-.048-.026-.047-.027-.046-.028q-.754-.487-1.685-.898l-.049-.023-.048-.024-.047-.025-.045-.028-.045-.029q-.023-.014-.044-.03l-.043-.032-.042-.033-.04-.035-.04-.036-.038-.038-.037-.039-.035-.04q-.018-.02-.034-.041-.017-.02-.033-.042l-.03-.044-.03-.044-.028-.046-.027-.046-.025-.048-.023-.048-.021-.049-.02-.05-.018-.05-.016-.05-.015-.052-.013-.052q-.006-.026-.01-.053l-.01-.052-.007-.053-.006-.053-.003-.054-.177-3.455-3.677-.37q-.326 1.083-.816 3.304l-.013.054-.015.054-.017.053-.018.052-.02.051-.023.051-.024.05-.026.049-.028.048-.029.047-.031.046-.033.045q-.016.022-.034.043l-.035.043-.038.041-.038.04-.04.038q-.02.019-.042.037-.02.018-.042.035l-.044.034-.045.032q-.023.016-.047.03-.023.016-.047.03l-.048.027-.05.025q-.024.013-.05.024l-.05.022-.052.02q-.026.01-.053.018l-.053.017-.053.014-.054.012q-.937.199-1.833.558l-.051.02q-.026.01-.053.018l-.052.016-.054.014-.054.012-.054.01q-.027.005-.055.008l-.055.007-.055.004q-.027.002-.055.002h-.11l-.056-.004-.055-.006-.054-.007q-.028-.004-.055-.01l-.054-.011-.053-.013-.054-.015-.052-.017-.052-.02-.051-.02-.05-.023q-.026-.011-.05-.024l-.049-.026-.048-.028-.046-.03-.046-.03-.045-.033-.043-.035-.042-.036-.04-.037-2.444-2.32q-.44.29-1.11.83-1.24.998-1.857 1.594 1.11 1.677 1.798 2.903l.026.048.023.048.023.049.02.05.019.05.017.05.015.052.013.052q.007.026.012.053l.01.053.008.053.006.053.004.054.002.053v.108l-.004.053-.005.054-.007.053-.009.053-.01.053-.013.052-.014.052-.016.051-.018.051-.02.05-.02.05-.024.048-.024.048-.027.047q-.013.023-.028.045l-.029.045q-.564.828-.913 1.665l-.022.05-.024.05-.025.048-.027.047-.029.046-.03.046-.032.044-.033.043-.035.042-.036.04-.038.04-.04.038-.04.036-.041.036-.043.033-.044.032-.045.03q-.023.016-.047.03l-.047.027-.048.026-.049.024-.05.022-.05.02-.052.019-.051.017-.053.015-.053.013-.053.011-.054.01-.054.007-.054.005-.054.004-3.43.17-.365 3.633 3.303.831.053.015q.027.007.053.016l.053.018.051.02.051.023.05.023.05.026.048.027q.024.014.047.03.024.014.046.03l.046.032.043.034.043.036.041.037.04.038.04.04.036.041.036.043.034.044q.017.022.032.045l.031.046.03.047.027.048.026.05.024.05.022.05.02.052.019.052.016.053.015.054.013.054.01.054q.17.944.59 1.95l.02.05.018.05.017.053.014.052.013.052.01.053.01.054.007.054.005.054.004.054.001.054v.054l-.002.054-.004.054-.007.054-.007.054-.01.053-.012.053-.013.052-.016.052-.017.052-.019.05-.02.05-.023.05-.024.048-.026.048-.027.047-.03.045q-.014.023-.03.045l-.032.044-.034.042-.035.041q-.475.537-1.393 1.485-.547.565-.893.937.716 1.045 2.418 2.951l2.86-1.75.048-.028.047-.026.05-.024.049-.022.05-.021.05-.019.052-.017.052-.015.053-.014.053-.012.054-.01.053-.007.054-.006.055-.004.054-.003h.054l.055.002.054.003.054.006.054.007q.027.004.053.01l.054.01.052.013.053.015.051.017.052.018.05.02.05.022.049.024.048.025.047.027.046.029q.754.487 1.686.898l.048.022.048.024.047.026.046.027.045.03.044.03.043.032.041.033.04.035.04.036q.02.018.038.037.02.02.037.04l.036.04.034.04.032.043.031.043.03.045.028.046.026.046.025.047.023.049.022.049.02.05.017.05.017.05.014.052.013.052.01.052q.006.026.01.053l.007.053q.004.026.006.053l.003.053.177 3.456 3.677.369q.327-1.082.817-3.304l.013-.054.014-.053.017-.053.019-.052.02-.052.022-.05.025-.05.025-.05.028-.047q.014-.024.03-.047.014-.024.03-.046l.033-.045.034-.044.036-.042.037-.041.039-.04.04-.038q.02-.02.041-.037l.043-.036.044-.033.045-.033.046-.03.047-.03.049-.026q.024-.014.049-.026l.05-.024.05-.021.052-.02.053-.019.053-.016q.026-.008.053-.014l.054-.013q.937-.198 1.833-.558l.052-.02.052-.017.053-.016.054-.015.054-.012.055-.01.055-.008q.027-.004.055-.006l.055-.005.055-.002h.056l.055.001.056.004.055.006.055.007.054.01.055.011.054.014.053.015.053.018.052.019.051.02.05.023.05.025.049.026.048.029q.024.014.047.03l.045.03.045.034.043.035q.022.017.042.036l.041.037 2.426 2.325q.44-.288 1.11-.829 1.238-.997 1.88-1.619-1.195-1.819-1.808-2.912l-.025-.048-.024-.048-.022-.048-.02-.05-.019-.05-.017-.051-.015-.051-.013-.052-.011-.053-.01-.052-.008-.053-.006-.053-.004-.054-.003-.053v-.054l.001-.053.003-.054.005-.053.007-.053.009-.053.01-.053.013-.052.014-.052.016-.05q.008-.026.018-.051l.019-.05.021-.05.023-.048.024-.048.027-.046.027-.046q.014-.023.03-.045.453-.67.94-1.706l.022-.048.025-.046.026-.045.028-.045.029-.043.03-.043.033-.041.033-.04.035-.04.036-.038.037-.036.039-.036.04-.034.04-.033.042-.031.043-.03.044-.029.045-.027.046-.025.047-.024.047-.022.048-.02.05-.02.049-.017.05-.016.05-.014.051-.012.052-.01q.025-.006.051-.01l.052-.007.052-.005.053-.003 3.431-.173zM12.375 8.064l.002-.008zm4.719 21.663q2.314-1.892 2.613-4.865t-1.594-5.288-4.866-2.613-5.288 1.594-2.612 4.866q-.299 2.973 1.594 5.288 1.892 2.314 4.865 2.612t5.288-1.594m-1.38-8.191q1.08 1.32.91 3.016t-1.492 2.776-3.016.91-2.776-1.491q-1.08-1.32-.91-3.017t1.49-2.776q1.322-1.08 3.018-.91t2.776 1.492"/><path fill="#8a826e" d="M76.862 5.635q.234-2.334-1.252-4.152T71.79-.569 67.636.683t-2.052 3.82 1.252 4.153q1.486 1.818 3.82 2.052 2.335.234 4.153-1.252t2.052-3.82m11.517-1.269-.49 4.89q-.027.264-.227.488-.2.225-.47.243l-4.136.207q-.538 1.148-1.06 1.919.66 1.178 2.052 3.275.193.287.165.573-.029.286-.25.487-.676.755-2.418 2.16-1.743 1.404-2.228 1.356-.264-.027-.552-.256l-2.801-2.684q-1.02.41-2.088.636-.653 2.96-1.05 4.033-.216.601-.855.537l-4.89-.49q-.308-.032-.52-.242T66.354 21l-.21-4.114q-1.044-.461-1.9-1.014l-3.343 2.045q-.24.176-.57.143-.308-.031-.526-.298-2.524-2.789-3.263-4.064-.132-.236-.104-.522.027-.265.227-.49.377-.429 1.27-1.351.894-.923 1.346-1.434-.484-1.16-.684-2.27l-3.971-1q-.282-.073-.435-.322t-.125-.535l.491-4.89q.027-.264.227-.488.2-.225.447-.245l4.159-.205q.41-.982 1.062-1.94-.755-1.344-2.052-3.276-.193-.287-.167-.551.022-.22.25-.487.651-.735 2.406-2.15 1.755-1.414 2.24-1.366.286.03.55.278l2.803 2.662q1.02-.41 2.088-.636.653-2.96 1.05-4.033.216-.6.855-.537l4.89.49q.308.032.52.242t.206.5l.21 4.114q1.044.46 1.9 1.013l3.364-2.042q.219-.179.549-.146.286.03.528.276 2.579 2.906 3.259 4.109.136.191.105.5-.026.264-.227.489-.376.429-1.27 1.352-.893.922-1.345 1.433.462 1.159.687 2.249l3.968 1.021q.282.073.435.322t.124.535"/><path fill="#706959" fill-rule="evenodd" d="m89.43 9.41.491-4.89q.081-.806-.346-1.5-.48-.782-1.369-1.012l-3.07-.79q-.089-.31-.193-.624.298-.315.68-.71.92-.95 1.313-1.399.536-.6.613-1.366.084-.834-.33-1.472-.784-1.352-3.416-4.32-.026-.029-.054-.057-.635-.647-1.48-.731-.897-.09-1.576.404l-2.5 1.518q-.192-.106-.39-.208l-.161-3.147q-.004-.911-.666-1.566-.602-.596-1.456-.682l-4.89-.49q-.848-.086-1.512.332-.666.418-.95 1.209-.364.983-.899 3.299-.206.06-.412.125l-2.114-2.008q-.648-.61-1.459-.691-.76-.077-1.763.536-.647.394-1.603 1.165-1.856 1.496-2.614 2.352-.541.635-.612 1.336-.082.823.423 1.57.9 1.341 1.527 2.382-.134.233-.257.468l-3.23.16-.046.003q-.866.07-1.48.757-.536.6-.613 1.366l-.49 4.89q-.081.806.346 1.5.48.782 1.377 1.014l3.05.767q.089.325.198.652-.295.313-.673.704-.92.95-1.313 1.398-.537.6-.613 1.366-.078.772.304 1.454.819 1.41 3.433 4.304.617.73 1.542.823.88.088 1.577-.39l2.502-1.53q.191.104.388.205l.161 3.148q.004.91.665 1.565.603.596 1.457.682l4.89.49q.848.086 1.512-.331.666-.42.95-1.21.364-.983.898-3.299.205-.059.408-.124l2.108 2.02q.051.05.108.094.645.513 1.362.585.759.076 1.76-.533.643-.393 1.594-1.159 1.787-1.44 2.556-2.283.598-.583.681-1.415.085-.845-.415-1.584-.943-1.422-1.536-2.4.119-.21.237-.436l3.253-.163q.902-.059 1.525-.757.536-.6.613-1.366m-2.655-4.57-3.31-.851-.052-.015q-.026-.007-.051-.016-.026-.008-.051-.018l-.05-.02-.05-.021-.049-.023-.048-.025-.047-.027-.046-.028q-.023-.014-.045-.03l-.044-.031-.043-.033-.042-.034-.04-.036-.04-.037-.038-.038-.036-.04-.035-.041q-.018-.021-.034-.043-.017-.02-.032-.043l-.03-.044-.03-.046-.028-.046-.025-.048-.025-.048-.022-.05-.021-.05-.019-.05-.017-.051-.016-.052-.013-.052q-.007-.026-.012-.053-.197-.956-.608-1.987l-.019-.05q-.01-.025-.017-.05L81.674.66l-.013-.05-.012-.052-.01-.053-.009-.053L81.624.4l-.005-.053-.002-.053-.001-.054V.186l.003-.054.005-.053.006-.053.009-.053.01-.052.011-.052.014-.052q.007-.026.016-.051l.017-.05.019-.05.02-.05.023-.048.024-.048.025-.047.027-.046q.014-.023.03-.045l.03-.044.031-.043.034-.042.034-.04q.475-.538 1.393-1.485.542-.56.886-.93-.687-1.008-2.394-2.955l-2.882 1.75-.047.027-.048.026-.048.024-.05.022-.05.02-.05.02-.052.016-.052.015-.053.014-.053.011-.053.01-.054.008-.053.005q-.027.003-.055.004l-.054.002h-.054l-.054-.001-.054-.004-.054-.005-.054-.007-.053-.01-.053-.01-.053-.014-.052-.014-.051-.017-.051-.018-.05-.02-.05-.022-.05-.024-.047-.025-.047-.027-.046-.029q-.754-.487-1.686-.898l-.048-.022-.048-.024-.047-.026-.046-.027-.045-.03-.044-.03-.042-.032q-.022-.016-.042-.033l-.04-.035-.04-.036q-.02-.018-.038-.038l-.037-.038-.035-.04q-.018-.02-.034-.042-.017-.02-.033-.042l-.031-.044-.03-.044-.028-.046-.026-.046-.025-.048-.023-.048-.021-.049-.02-.05q-.01-.024-.018-.05l-.017-.05-.014-.052-.013-.052-.01-.052-.01-.053-.007-.053-.006-.053-.003-.053-.177-3.456-3.677-.369q-.327 1.082-.817 3.304l-.012.054-.015.053-.017.053-.019.052-.02.052-.022.05-.024.05-.026.05-.028.047q-.014.024-.03.047-.014.024-.03.046l-.033.045-.034.044-.036.042-.037.041-.039.04-.04.038q-.02.02-.04.037l-.044.036-.044.033-.045.033-.046.03-.047.03-.048.026-.05.026-.05.023-.05.022-.052.02-.053.019-.053.016q-.026.008-.053.014l-.054.013q-.937.198-1.833.558l-.051.02-.053.017q-.026.009-.053.016-.026.008-.053.014l-.054.012-.054.01-.055.009-.055.006q-.027.003-.055.004l-.055.003h-.055l-.056-.001-.055-.004-.055-.005-.054-.008q-.028-.004-.055-.01l-.054-.01-.054-.014-.053-.015-.052-.017-.052-.02q-.026-.009-.051-.02-.026-.01-.05-.022l-.05-.025-.05-.026-.047-.028q-.024-.014-.047-.03-.023-.014-.045-.03l-.045-.033-.043-.034-.042-.036-.04-.038-2.444-2.32q-.441.29-1.11.83-1.24.999-1.857 1.595 1.11 1.677 1.798 2.903l.025.047.024.048q.012.024.022.049l.02.05.02.05.017.051.015.052.013.052.012.052.01.053.007.053.006.053.005.054.002.054v.107l-.004.054-.005.053-.007.054-.009.053-.01.052-.013.053-.014.051-.016.052-.018.05-.02.05-.02.05-.024.048-.025.048q-.012.024-.026.047l-.028.046q-.014.023-.03.045-.563.828-.912 1.665l-.022.05-.024.049-.025.048-.027.047-.029.047-.03.045-.032.044-.033.043q-.017.022-.035.042l-.037.04-.037.04-.04.038-.04.037q-.02.018-.042.035l-.042.034-.045.032-.045.03-.046.03-.047.026-.048.026-.05.024-.049.022-.05.02-.052.02-.052.016-.052.015-.053.013-.053.011-.054.01-.054.007-.054.006-.055.003-3.43.17-.364 3.634 3.303.83.053.015.053.016.053.019.051.02q.026.01.051.022l.05.024.05.025.048.028.047.029.046.03.045.033q.023.016.044.034l.043.035.041.037.04.039.039.04.037.04.036.043.034.044.032.045.031.046.03.047.027.049.026.049.024.05.022.05.02.052.019.053.016.052.015.054.013.054.01.054q.17.945.59 1.95l.02.05.018.051.016.052.015.052.013.053q.006.026.01.053.006.026.01.053l.007.054.005.054.004.054.001.054v.054l-.002.054-.005.054-.006.054-.008.054q-.004.027-.01.053l-.011.053-.014.053-.015.052-.017.051-.019.05-.02.05-.023.05-.024.049-.026.047q-.013.024-.028.047l-.029.046-.03.044q-.016.023-.033.044-.016.022-.033.042l-.035.042q-.475.537-1.393 1.485-.547.565-.893.937.716 1.045 2.418 2.95l2.86-1.75.047-.027.048-.026q.024-.013.049-.024l.05-.023.05-.02.05-.02.052-.017.052-.015.053-.014.053-.011.053-.01.054-.008.054-.006.054-.004.055-.002h.054l.054.001q.028.001.055.004l.054.005.054.007.053.01.053.01.053.014.052.014.052.017.051.018.05.02.05.022.05.024.048.025.047.027.046.03q.754.486 1.685.897.025.01.049.023l.048.024.047.025.046.028.044.029q.023.014.044.03l.043.032q.022.016.042.033l.04.035.04.036.038.038.037.039.035.04.034.04.033.043.031.044.03.044.028.046.026.046.025.048.023.048.021.049.02.05.018.05.016.05.015.052.013.052.01.052.01.053.007.053.006.053.003.054.177 3.455 3.677.37q.326-1.083.816-3.304l.013-.054.015-.054.017-.053.019-.052.02-.051q.01-.026.022-.051l.024-.05.026-.049.028-.048q.014-.024.03-.047l.03-.046.033-.045.034-.044.036-.042.037-.041.038-.04.04-.038q.02-.019.042-.037.02-.018.043-.035.021-.018.043-.034l.046-.032.046-.031.047-.029.048-.027.05-.026.05-.023.05-.022.052-.02q.026-.01.053-.018l.053-.017.053-.014.054-.012q.937-.2 1.833-.559l.052-.02.052-.017q.026-.009.053-.016l.054-.014.054-.012.054-.01.055-.009.055-.006.056-.004.055-.003h.056l.055.002.055.003.056.006.055.008.054.01.055.01.053.014.054.016.052.017.052.019.052.02.05.024.05.024.049.027.048.028.046.03.046.031.045.033.043.035.042.036.04.038 2.427 2.324q.44-.288 1.11-.829 1.237-.997 1.88-1.618-1.195-1.82-1.808-2.913l-.025-.047-.024-.048-.022-.049-.02-.05-.019-.05-.017-.05-.015-.052-.013-.052-.012-.052-.01-.053-.007-.053q-.004-.026-.006-.053l-.005-.054-.002-.053v-.107l.004-.054.005-.053.007-.053.009-.053.01-.052.013-.053q.006-.026.014-.051.007-.026.016-.051l.017-.05.02-.05.02-.05.024-.049.024-.047.026-.047.028-.046.03-.045q.453-.67.94-1.706.01-.024.022-.047l.025-.046.026-.046.028-.044.029-.044.03-.042.032-.042.034-.04.035-.04q.017-.019.036-.037.018-.02.037-.037l.039-.036.04-.034.04-.033.042-.031.043-.03.044-.028.045-.027.046-.026.047-.024.047-.022.048-.02.05-.02.049-.017.05-.016.05-.014.051-.012.051-.01.052-.01.052-.006.052-.006.052-.003 3.432-.172zM71.07-11.008l.003-.008zm4.72 21.664q2.314-1.893 2.613-4.866T76.809.502q-1.892-2.314-4.865-2.613T66.656-.516t-2.613 4.865 1.594 5.288 4.866 2.613 5.288-1.594m-1.38-8.192q1.08 1.32.91 3.017t-1.492 2.776-3.017.91-2.775-1.492q-1.08-1.32-.91-3.016t1.49-2.776 3.017-.91 2.776 1.49"/><path fill="#7c7c7c" d="m85.625 55-2.331 11.72-6.639 9.935-9.935 6.639L55 85.625l-11.72-2.331-9.935-6.639-6.639-9.935L24.375 55l2.331-11.72 6.639-9.935 9.935-6.639L55 24.375l11.72 2.331 9.935 6.639 6.639 9.935z"/><path fill="#999" d="m84.167 55-2.22 11.162-6.323 9.462-9.462 6.323L55 84.167l-11.162-2.22-9.462-6.323-6.323-9.462L25.833 55l2.22-11.162 6.323-9.462 9.462-6.323L55 25.833l11.162 2.22 9.462 6.323 6.323 9.462z"/><path fill="none" stroke="#7c7c7c" stroke-linecap="round" stroke-linejoin="round" stroke-width="3.5" d="m84.167 55-2.22 11.162-6.323 9.462-9.462 6.323L55 84.167l-11.162-2.22-9.462-6.323-6.323-9.462L25.833 55l2.22-11.162 6.323-9.462 9.462-6.323L55 25.833l11.162 2.22 9.462 6.323 6.323 9.462z"/><clipPath id="b"><path d="M38.667 38.667 55 49.167l16.333-10.5V62H38.667z"/></clipPath><g clip-path="url(#b)"><path fill="#111" d="M50.333 49.167q0 .344-.017.686-.016.342-.05.68-.033.337-.083.666t-.116.646-.147.621-.177.59-.204.551-.23.51-.255.46-.276.41-.295.353q-.151.162-.31.294-.16.131-.324.231t-.333.167-.34.101-.343.034-.343-.034q-.17-.034-.34-.1-.168-.068-.333-.168-.164-.1-.323-.231-.159-.132-.31-.294-.152-.162-.295-.353t-.276-.41q-.133-.217-.255-.46-.121-.244-.23-.51-.11-.265-.205-.551t-.176-.59-.147-.62q-.066-.318-.116-.647-.05-.33-.083-.667-.034-.337-.05-.68-.018-.341-.018-.685t.017-.686q.017-.343.05-.68.034-.337.084-.666.05-.33.116-.647.066-.318.147-.621t.176-.59q.096-.285.205-.551t.23-.509.255-.461.276-.41.294-.353.31-.293q.16-.132.324-.232.165-.1.333-.167.17-.067.34-.1.171-.034.343-.034t.343.033.34.101.333.167.324.232.31.293.295.353.276.41.254.461.23.509q.11.266.205.552.096.286.177.589t.147.62q.066.319.116.648t.083.666.05.68q.017.342.017.686"/><clipPath id="c"><path d="M50.333 49.167q0 .172-.004.343t-.013.343q-.008.17-.02.34t-.03.34-.038.334q-.02.167-.045.332-.025.164-.054.326-.03.162-.062.32-.033.16-.07.315-.036.155-.077.306-.04.152-.085.3-.044.147-.092.29-.047.143-.098.28-.052.139-.106.271-.055.133-.112.26-.058.128-.119.25-.06.12-.124.236t-.13.225-.136.211-.14.198-.145.184q-.074.088-.15.17-.076.08-.153.154-.078.073-.157.139-.08.066-.16.123-.081.058-.164.108-.082.05-.165.092-.084.042-.168.075-.084.034-.17.059-.084.025-.17.042-.085.017-.17.025-.087.009-.173.009t-.171-.009-.172-.025-.17-.042q-.085-.025-.17-.059-.084-.033-.167-.075t-.166-.092-.163-.108-.16-.123-.157-.14q-.078-.073-.154-.154-.075-.08-.149-.17-.074-.088-.145-.183-.072-.096-.14-.198-.07-.102-.136-.211-.066-.11-.13-.225t-.124-.237-.119-.248q-.058-.128-.112-.26-.055-.133-.106-.271-.051-.139-.099-.281-.047-.143-.092-.29-.044-.148-.084-.3-.04-.151-.078-.306-.036-.156-.07-.315-.032-.158-.061-.32t-.054-.326-.046-.331-.037-.336q-.017-.168-.03-.338t-.02-.341q-.01-.171-.013-.343-.005-.171-.005-.343t.005-.344.012-.343q.009-.17.021-.34t.03-.339q.016-.169.037-.335.021-.167.046-.331.025-.165.054-.327.029-.161.062-.32t.07-.314q.036-.156.077-.307.04-.152.084-.3.044-.146.092-.29.048-.142.1-.28.05-.138.105-.271t.112-.26q.058-.128.118-.25.061-.12.125-.236t.13-.224q.066-.11.135-.212.07-.102.14-.198.072-.095.146-.183.074-.089.15-.17.075-.08.153-.154t.157-.14.16-.123.163-.108.166-.092.168-.075.169-.059.17-.042.172-.025.171-.008.172.008.171.025.17.042.17.06q.084.033.168.074.083.042.165.092.083.05.163.108.081.058.16.123.08.066.158.14.077.073.153.154t.15.17.145.183.14.198q.07.103.136.212t.13.224.124.237.119.249.112.26.106.27q.05.139.098.282t.092.29q.045.147.085.299.04.151.077.307.037.155.07.314t.062.32.054.327.045.33.038.336.03.339.02.34.013.343.004.344"/></clipPath><g clip-path="url(#c)"><path fill="#eee" d="M44.594 49.594h7v7h-7z"/></g><path fill="none" stroke="#111" stroke-linecap="round" stroke-linejoin="round" stroke-width=".5" d="M3 0q0 .147-.014.294t-.044.291-.071.286q-.043.14-.1.277-.056.136-.125.266-.07.13-.152.253-.081.122-.175.236t-.198.218-.218.198-.236.175-.253.152q-.13.07-.266.126t-.277.099-.286.071q-.144.03-.29.044Q.146 3 0 3t-.294-.014q-.147-.015-.291-.044-.145-.028-.286-.071t-.277-.1-.266-.125-.253-.152-.236-.175q-.114-.093-.218-.198-.105-.104-.198-.218t-.175-.236-.152-.253-.126-.266-.098-.277-.071-.286-.044-.29Q-3 .146-3 0t.014-.294q.015-.147.044-.291.028-.145.071-.286t.1-.277.125-.266.152-.253.175-.236q.093-.114.198-.218.104-.105.218-.198t.236-.175.253-.152.266-.126.277-.099.286-.071q.144-.03.29-.044Q-.146-3 0-3t.294.014q.147.015.291.044.145.028.286.071t.277.1.266.125.253.152.236.175q.114.093.218.198.105.104.198.218t.175.236.152.253.126.266.099.277.071.286q.03.144.044.29Q3-.146 3 0" transform="matrix(1.16667 0 0 2.33333 46.833 49.167)"/><path fill="#111" d="M66.667 49.167q0 .344-.017.686t-.05.68-.084.666-.116.646-.147.621q-.08.304-.176.59t-.205.551-.23.51-.255.46q-.133.219-.276.41t-.294.353-.31.294-.324.231-.333.167q-.17.067-.34.101-.171.034-.343.034t-.343-.034-.34-.1-.333-.168-.324-.231-.31-.294-.295-.353-.276-.41-.254-.46-.23-.51q-.11-.265-.205-.551-.096-.286-.177-.59-.081-.303-.147-.62-.066-.318-.116-.647-.05-.33-.083-.667-.034-.337-.05-.68-.017-.341-.017-.685t.017-.686q.016-.343.05-.68.033-.337.083-.666.05-.33.116-.647.066-.318.147-.621t.177-.59q.095-.285.204-.551.11-.266.23-.509.122-.243.255-.461t.276-.41.295-.353.31-.293.324-.232.333-.167.34-.1.343-.034.343.033.34.101.333.167q.164.1.323.232.159.131.31.293.152.162.295.353t.276.41.255.461.23.509.205.552.176.589.147.62q.066.319.116.648t.083.666q.034.337.05.68.018.342.018.686"/><clipPath id="d"><path d="M66.667 49.167q0 .172-.005.343-.004.172-.012.343-.009.17-.021.34t-.03.34q-.016.168-.037.334-.021.167-.046.332-.025.164-.054.326t-.062.32q-.033.16-.07.315-.036.155-.077.306-.04.152-.084.3-.044.147-.092.29t-.1.28q-.05.139-.105.271-.054.133-.112.26-.058.128-.119.25-.06.12-.124.236-.063.116-.13.225-.066.109-.135.211-.07.102-.14.198-.072.095-.146.184-.074.088-.15.17-.075.08-.153.154-.078.073-.157.139-.08.066-.16.123-.081.058-.163.108-.083.05-.166.092t-.167.075-.17.059-.17.042-.172.025-.171.009-.172-.009-.171-.025-.17-.042q-.086-.025-.17-.059t-.168-.075-.165-.092q-.083-.05-.164-.108-.08-.057-.16-.123t-.157-.14q-.078-.073-.153-.154-.076-.08-.15-.17-.073-.088-.145-.183-.071-.096-.14-.198t-.136-.211-.13-.225-.124-.237-.119-.248-.112-.26-.106-.271q-.05-.139-.098-.281t-.092-.29q-.045-.148-.085-.3-.04-.151-.077-.306-.037-.156-.07-.315-.033-.158-.062-.32t-.054-.326-.045-.331q-.021-.167-.038-.336-.017-.168-.03-.338t-.02-.341-.013-.343q-.004-.171-.004-.343t.004-.344.013-.343q.008-.17.02-.34t.03-.339.038-.335.045-.331.054-.327q.03-.161.062-.32.033-.159.07-.314.036-.156.077-.307.04-.152.085-.3.044-.146.092-.29.047-.142.098-.28t.106-.271.112-.26q.058-.128.119-.25.06-.12.124-.236t.13-.224q.067-.11.136-.212t.14-.198q.072-.095.145-.183.074-.089.15-.17.075-.08.153-.154t.157-.14.16-.123.164-.108q.082-.05.165-.092.084-.041.168-.075t.17-.059q.084-.025.17-.042.085-.017.17-.025.087-.008.173-.008t.171.008.172.025.17.042q.085.026.17.06.084.033.167.074.083.042.166.092.082.05.163.108.08.058.16.123.08.066.157.14.078.073.154.154.075.081.149.17.074.088.145.183.072.096.14.198.07.103.136.212.067.109.13.224.064.115.124.237.061.121.119.249.058.127.112.26.055.133.106.27.051.139.099.282.047.143.092.29.044.147.084.299.04.151.078.307.036.155.07.314.032.159.061.32.029.162.054.327.025.164.046.33.02.167.037.336t.03.339.02.34q.01.172.013.343.005.172.005.344"/></clipPath><g clip-path="url(#d)"><path fill="#eee" d="M60.928 49.594h7v7h-7z"/></g><path fill="none" stroke="#111" stroke-linecap="round" stroke-linejoin="round" stroke-width=".5" d="M3 0q0 .147-.014.294t-.044.291-.071.286q-.043.14-.1.277-.056.136-.125.266-.07.13-.152.253-.081.122-.175.236t-.198.218-.218.198-.236.175-.253.152q-.13.07-.266.126t-.277.099-.286.071q-.144.03-.29.044Q.146 3 0 3t-.294-.014q-.147-.015-.291-.044-.145-.028-.286-.071t-.277-.1-.266-.125-.253-.152-.236-.175q-.114-.093-.218-.198-.105-.104-.198-.218t-.175-.236-.152-.253-.126-.266-.098-.277-.071-.286-.044-.29Q-3 .146-3 0t.014-.294q.015-.147.044-.291.028-.145.071-.286t.1-.277.125-.266.152-.253.175-.236q.093-.114.198-.218.104-.105.218-.198t.236-.175.253-.152.266-.126.277-.099.286-.071q.144-.03.29-.044Q-.146-3 0-3t.294.014q.147.015.291.044.145.028.286.071t.277.1.266.125.253.152.236.175q.114.093.218.198.105.104.198.218t.175.236.152.253.126.266.099.277.071.286q.03.144.044.29Q3-.146 3 0" transform="matrix(1.16667 0 0 2.33333 63.167 49.167)"/></g><path fill="none" stroke="#111" stroke-linecap="round" stroke-linejoin="round" stroke-width="1.75" d="M48 66.667q7-2.917 14 0"/></g></svg>