<svg xmlns="http://www.w3.org/2000/svg" viewBox="0 0 110 110"><clipPath id="a"><rect width="91.667" height="91.667" x="9.167" y="9.167" rx="4.167" ry="4.167"/></clipPath><g clip-path="url(#a)"><path fill="none" stroke="#4d4d4d" stroke-linecap="round" stroke-linejoin="round" stroke-width="5" d="M53.232 67.374 42.524 83.56l-.623 6.1"/><path fill="none" stroke="#4d4d4d" stroke-linecap="round" stroke-linejoin="round" stroke-width="5" d="M49.697 63.839 38.862 79.982l-.719 6.027"/><path fill="none" stroke="#4d4d4d" stroke-linecap="round" stroke-linejoin="round" stroke-width="5" d="m46.161 60.303-14.99 13.138-4.443 2.59"/><path fill="none" stroke="#4d4d4d" stroke-linecap="round" stroke-linejoin="round" stroke-width="5" d="m42.626 56.768-16.662 7.954-7.43-1.276"/><path fill="none" stroke="#4d4d4d" stroke-linecap="round" stroke-linejoin="round" stroke-width="5" d="M67.374 53.232 83.56 42.524l6.1-.623"/><path fill="none" stroke="#4d4d4d" stroke-linecap="round" stroke-linejoin="round" stroke-width="5" d="m63.839 49.697 13.24-14.917 2.681-4.358"/><path fill="none" stroke="#4d4d4d" stroke-linecap="round" stroke-linejoin="round" stroke-width="5" d="m60.303 46.161 13.138-14.99 2.59-4.443"/><path fill="none" stroke="#4d4d4d" stroke-linecap="round" stroke-linejoin="round" stroke-width="5" d="m56.768 42.626 13.034-15.063 2.498-4.527"/><path fill="#4d4d4d" d="M35.201 60.657q-12.02-3.536-7.778-14.85l1.414 5.658 2.121-4.95q.707 9.192 7.071 11.313z"/><path fill="#4d4d4d" d="M34.919 61.616q-6.417-1.887-8.559-5.975-2.152-4.109.126-10.184.035-.093.087-.176.052-.084.12-.156.066-.072.146-.13.08-.057.17-.098.09-.04.186-.063.095-.022.194-.026.098-.003.196.013.097.016.189.05.114.043.214.112.1.068.181.159.08.09.138.198.056.107.086.225l1.414 5.657-.97.243-.92-.394 2.122-4.95q.039-.09.095-.172.055-.081.126-.15.07-.069.153-.122.083-.054.174-.09.091-.037.188-.055t.196-.017.194.021.187.06q.126.054.233.14.107.085.186.197.08.111.127.24.047.128.057.265.657 8.53 6.39 10.442.094.03.18.08.085.048.16.113.074.065.134.142.06.078.105.166.044.088.07.183t.033.194-.005.196-.044.19q-.075.225-.241.392l-2.829 2.828q-.095.095-.212.162t-.248.1-.265.03-.264-.04m.564-1.918-.282.959-.707-.707 2.828-2.829.707.707-.316.95q-6.994-2.332-7.752-12.187l.997-.076.92.394-2.122 4.95q-.045.106-.114.199t-.157.168-.19.128-.215.08q-.096.025-.194.03-.099.004-.196-.01-.098-.015-.19-.048-.093-.033-.177-.084-.085-.05-.158-.117-.073-.066-.131-.145-.06-.08-.101-.168-.042-.09-.066-.185l-1.414-5.657.97-.242.936.35q-1.964 5.239-.227 8.555 1.748 3.336 7.351 4.985"/><path fill="#4d4d4d" d="M60.657 35.201q-3.536-12.02-14.85-7.778l5.658 1.414-4.95 2.121q9.192.707 11.313 7.071z"/><path fill="#4d4d4d" d="M61.616 34.919q-1.887-6.417-5.975-8.559-4.109-2.152-10.184.126-.093.035-.176.087-.084.052-.156.12-.072.066-.13.146-.057.08-.098.17-.04.09-.063.186-.022.095-.026.194-.003.098.013.196.016.097.05.189.043.114.112.214.068.1.159.181.09.08.198.138.107.056.225.086l5.657 1.414.243-.97-.394-.92-4.95 2.122q-.09.039-.172.095-.081.055-.15.126-.069.07-.122.153-.054.083-.09.174-.037.091-.055.188t-.017.196.021.194.06.187q.054.126.14.233.085.107.197.186.111.08.24.127.128.047.265.057 8.53.657 10.442 6.39.03.094.08.18.048.085.113.16.065.074.142.134.078.06.166.105.088.044.183.07t.194.033.196-.005.19-.044q.225-.075.392-.241l2.828-2.829q.095-.095.162-.212t.1-.248.03-.265-.04-.264m-1.918.564.959-.282-.707-.707-2.829 2.828.707.707.95-.316q-2.332-6.994-12.187-7.752l-.076.997.394.92 4.95-2.122q.106-.045.199-.114t.168-.157.128-.19.08-.215q.025-.096.03-.194.004-.099-.01-.196-.015-.098-.048-.19-.033-.093-.084-.177-.05-.085-.117-.158-.066-.073-.145-.131-.08-.06-.168-.101-.09-.042-.185-.066l-5.657-1.414-.242.97.35.936q5.239-1.964 8.555-.227 3.336 1.748 4.985 7.351"/><path fill="#999" d="M38.737 71.263 35.2 64.9l-.707-7.778 2.828-8.485 4.95-6.364 6.364-4.95 8.485-2.828 7.778.707 6.364 3.536L74.8 45.1l.707 7.778-2.828 8.485-4.95 6.364-6.364 4.95-8.485 2.828-7.78-.705z"/><path fill="#7c7c7c" d="m36.988 72.235-3.535-6.364q-.206-.37-.244-.79l-.707-7.779q-.038-.416.095-.813l2.828-8.485q.108-.325.319-.596l4.95-6.364q.153-.197.35-.35l6.364-4.95q.27-.21.596-.32l8.485-2.827q.397-.133.813-.095l7.779.707q.42.038.79.244l6.364 3.535q.245.136.443.334t.334.443l3.535 6.364q.206.37.244.79l.707 7.779q.038.416-.095.813l-2.828 8.485q-.108.325-.319.596l-4.95 6.364q-.153.197-.35.35l-6.364 4.95q-.27.21-.596.32l-8.485 2.827q-.397.133-.813.095l-7.779-.707q-.42-.038-.79-.244l-6.364-3.535q-.245-.136-.443-.334t-.334-.443m3.497-1.943-1.748.971.97-1.748 6.365 3.536-.971 1.748.18-1.992 7.779.707-.181 1.992-.633-1.897 8.485-2.829.633 1.898-1.228-1.58L66.5 66.15l1.228 1.579-1.579-1.228 4.95-6.364 1.579 1.228-1.898-.633 2.829-8.485 1.897.633-1.992.18-.707-7.777L74.8 45.1l-1.748.97-3.536-6.363 1.748-.971-.97 1.748-6.365-3.536.971-1.748-.18 1.992-7.779-.707.181-1.992.633 1.897-8.485 2.829-.633-1.898 1.228 1.58L43.5 43.85l-1.228-1.579 1.579 1.228-4.95 6.364-1.579-1.228 1.898.633-2.829 8.485-1.897-.633 1.992-.18.707 7.777-1.992.181 1.748-.97z"/><path fill="#7c7c7c" d="M47.929 69.142q.052-.052.109-.099.057-.046.118-.087.062-.041.126-.076.065-.035.134-.063.068-.028.138-.05.07-.021.143-.035t.146-.022.147-.007q.073 0 .147.007.073.007.145.022t.143.035.139.05.133.063.126.076q.061.04.118.087t.11.1.098.108.088.118q.04.062.075.127t.063.133q.029.068.05.138t.036.143q.014.072.021.146.008.073.008.147 0 .073-.008.147-.007.073-.021.145-.015.073-.036.143t-.05.139-.063.133-.075.126-.088.118-.099.11-.109.098-.118.088q-.061.04-.126.076-.065.034-.133.063t-.139.05-.143.035-.145.022q-.074.007-.147.007-.074 0-.147-.007-.074-.008-.146-.022t-.143-.036-.138-.05q-.069-.028-.133-.062-.065-.035-.127-.076-.061-.04-.118-.088-.057-.046-.11-.099-.051-.052-.098-.109t-.088-.118-.075-.126-.063-.133-.05-.139q-.021-.07-.036-.143t-.021-.145-.007-.147.007-.147q.007-.074.021-.146t.036-.143q.022-.07.05-.138t.063-.133q.034-.065.075-.127.041-.06.088-.118t.099-.109"/><path fill="#7c7c7c" d="M38.737 59.95q.052-.052.109-.1.057-.046.118-.087t.126-.075.133-.063.139-.05.143-.036q.072-.014.145-.021.074-.008.147-.008.074 0 .147.008.074.007.146.021t.143.036.138.05.133.063q.065.034.127.075.06.041.118.088t.109.099.099.109q.046.057.087.118t.076.126.063.133.05.139.035.143.022.145.007.147-.007.147-.022.146-.035.143-.05.138-.063.134q-.035.064-.076.126-.04.061-.087.118t-.1.11-.108.098-.118.088q-.062.04-.127.075t-.133.063-.138.05-.143.036-.146.021-.147.007-.147-.007-.145-.021-.143-.036-.139-.05-.133-.063q-.065-.034-.126-.075t-.118-.088-.11-.099-.098-.109-.088-.118-.076-.127-.063-.133-.05-.138-.035-.143-.022-.146-.007-.147.007-.147q.008-.073.022-.145t.036-.143q.021-.07.05-.139.028-.068.062-.133.035-.065.076-.126t.088-.118.099-.11"/><path fill="#7c7c7c" d="M69.142 47.929q.052-.052.11-.099.056-.047.117-.088t.127-.075.133-.063q.068-.028.138-.05.07-.021.143-.036t.146-.021.147-.007.147.007.145.021q.073.015.143.036.07.022.139.05.068.028.133.063.065.034.126.075t.118.088.11.099.098.109.088.118.076.127.063.133.05.138.035.143q.014.072.022.146.007.073.007.147 0 .073-.007.147-.008.073-.022.145t-.036.143-.05.139-.062.133q-.035.065-.076.126t-.088.118-.099.11q-.052.051-.109.098t-.118.088-.126.075-.133.063-.139.05q-.07.021-.143.036t-.145.021q-.074.008-.147.008-.074 0-.147-.008-.074-.007-.146-.021t-.143-.036q-.07-.021-.138-.05-.068-.028-.133-.063-.065-.034-.127-.075-.06-.041-.118-.088t-.109-.099q-.052-.052-.099-.109-.046-.057-.087-.118t-.076-.126-.063-.133-.05-.139-.035-.143-.022-.145-.007-.147.007-.147.022-.146.035-.143.05-.138.063-.134q.035-.064.076-.126.04-.061.087-.118t.1-.11"/><path fill="#7c7c7c" d="M59.95 38.737q.052-.053.109-.1.057-.046.118-.087t.126-.076.133-.063.139-.05.143-.035.145-.022q.074-.007.147-.007.074 0 .147.007.074.008.146.022t.143.036q.07.021.138.05.069.028.133.062.065.035.127.076.061.04.118.088.057.046.11.099.051.052.098.109t.088.118.075.126.063.133.05.139.036.143.021.145.007.147-.007.147q-.007.074-.021.146t-.036.143-.05.138-.063.133q-.034.065-.075.127-.041.06-.088.118t-.099.109-.109.099q-.057.046-.118.087-.062.041-.126.076-.065.035-.134.063-.068.028-.138.05-.07.021-.143.035t-.146.022-.147.007q-.073 0-.147-.007-.073-.007-.145-.022t-.143-.035-.139-.05-.133-.063-.126-.076q-.061-.04-.118-.087t-.11-.1-.098-.108-.088-.118q-.04-.062-.075-.127t-.063-.133q-.029-.068-.05-.138t-.036-.143q-.014-.072-.021-.146-.008-.073-.008-.147 0-.073.008-.147.007-.073.021-.145.015-.073.036-.143t.05-.139.063-.133.075-.126.088-.118.099-.11"/><path fill="none" stroke="#7c7c7c" stroke-linecap="round" stroke-linejoin="round" stroke-width="4" d="M67.728 56.414Q57.12 52.88 53.586 42.272"/><path fill="none" stroke="#7c7c7c" stroke-linecap="round" stroke-linejoin="round" stroke-width="4" d="M56.414 67.728Q52.88 57.12 42.272 53.586"/><path fill="red" fill-opacity=".298" d="m46.213 49.645-285.668-285.668q-.1-.1-.192-.208-.091-.108-.174-.223-.081-.115-.153-.235-.071-.12-.132-.246-.06-.124-.108-.252-.05-.129-.086-.259t-.06-.261-.036-.262-.009-.258q.002-.13.015-.256.015-.125.042-.247.027-.121.067-.238t.091-.225q.051-.11.115-.213.063-.102.137-.195t.158-.178.178-.159.196-.137.212-.114q.11-.053.226-.092.116-.04.238-.067t.247-.041q.127-.014.255-.015.128-.003.259.009.13.011.262.035.13.024.26.06.13.037.26.086.127.049.252.109t.245.131q.121.072.235.154.116.082.223.173.108.092.209.192L49.645 46.213q.1.1.192.208.091.108.173.223t.153.235q.072.12.132.245t.11.253q.048.129.084.259t.06.26q.025.132.036.262t.01.26q-.002.128-.016.254t-.042.248-.066.237-.091.226-.115.212-.137.196q-.074.094-.159.178-.084.085-.178.159t-.196.137-.212.115-.226.09-.237.067-.248.042-.254.016q-.13.001-.26-.01t-.261-.035-.261-.06-.259-.086q-.128-.049-.253-.109-.124-.06-.245-.132-.12-.071-.235-.153t-.223-.173-.208-.192"/><path fill="red" fill-opacity=".698" d="m47.357 48.5-285.668-285.667q-.067-.067-.122-.144t-.095-.16q-.04-.084-.065-.17-.024-.087-.032-.174-.007-.087.002-.172.01-.083.036-.162.027-.077.07-.145.041-.069.098-.125.056-.056.124-.098.069-.043.146-.07.078-.025.162-.035t.171-.002q.088.007.174.032.087.024.17.064t.16.095q.078.055.145.122L48.5 47.357q.067.067.122.144t.095.16.064.17.032.174-.002.172-.036.161-.068.146-.099.125-.125.099-.146.068-.161.036-.172.002-.174-.032-.17-.064-.16-.095-.144-.122"/><path fill="red" d="M44.143 44.143q.082-.081.172-.155.089-.073.185-.137t.198-.119.209-.099.217-.078.224-.056.229-.034.23-.01.231.01.229.034.224.056.217.078.21.099.197.119.186.137.17.155.156.172.138.185.118.198.099.209.078.217.056.224.034.229.011.23-.011.231-.034.229-.056.224-.078.217-.099.21q-.054.101-.119.197-.064.096-.137.186t-.155.17q-.082.083-.171.156t-.186.137-.198.12-.209.098q-.107.044-.217.078-.11.033-.224.056t-.229.034-.23.011-.231-.011-.229-.034-.224-.056q-.11-.034-.217-.078t-.209-.099-.198-.118q-.096-.065-.185-.138-.09-.073-.172-.155t-.155-.171-.137-.186q-.065-.096-.119-.198-.055-.102-.099-.209t-.078-.217q-.033-.11-.056-.224-.022-.114-.034-.229-.011-.115-.01-.23-.001-.116.01-.231.012-.115.034-.229.023-.113.056-.224.034-.11.078-.217t.099-.209.119-.198.137-.185q.074-.09.155-.172"/><path fill="#646464" d="m67.02 61.364-5.656 5.657q-.104.104-.218.198-.114.093-.237.175t-.252.151q-.13.07-.266.126-.136.057-.277.1-.142.042-.286.07-.145.03-.291.044-.147.014-.294.014-.148 0-.294-.014-.147-.014-.292-.043-.144-.029-.285-.072t-.277-.099-.267-.126-.252-.151-.237-.175-.218-.198L42.98 52.879q-.104-.105-.198-.218-.093-.114-.175-.237t-.151-.252q-.07-.13-.126-.267-.057-.136-.1-.277-.042-.14-.07-.285-.03-.145-.044-.292-.014-.146-.014-.294 0-.147.014-.294.014-.146.043-.29.029-.145.072-.287.042-.14.099-.277.056-.136.126-.266t.151-.252.175-.237.198-.218l5.657-5.657q.104-.104.218-.198.114-.093.237-.175t.252-.151q.13-.07.266-.126.136-.057.277-.1.142-.042.286-.07.145-.03.291-.044.147-.014.294-.014.148 0 .294.014.147.014.292.043.144.029.285.072t.277.099.267.126.252.151.237.175.218.198l14.14 14.142q.104.105.198.218.093.114.175.237t.151.252q.07.13.126.267.057.136.1.277.042.14.07.285.03.145.044.292.014.146.014.294 0 .147-.014.294-.014.146-.043.29-.029.145-.072.287-.042.14-.099.277-.056.136-.126.266t-.151.252-.175.237-.198.218m-7.777-.707 1.414-1.414-9.9-9.9-1.414 1.414z"/><path fill="#7c7c7c" d="M59.243 64.9 45.1 50.756l5.656-5.656L64.9 59.243z"/></g></svg>