<svg xmlns="http://www.w3.org/2000/svg" viewBox="0 0 110 110"><clipPath id="a"><rect width="91.667" height="91.667" x="9.167" y="9.167" rx="4.167" ry="4.167"/></clipPath><g clip-path="url(#a)"><path fill="#666" d="m32.608 53.821-6.835-6.835L45.808 26.95l6.835 6.835z"/><path fill="#525252" d="M53.055 34.199 33.021 54.234q-.02.02-.043.038t-.046.034-.049.03-.051.024l-.054.02q-.028.008-.056.013-.028.006-.056.009l-.058.002-.057-.002q-.028-.003-.057-.009-.028-.005-.055-.014-.027-.008-.054-.019l-.052-.024q-.025-.014-.049-.03t-.046-.034-.042-.038l-6.836-6.836q-.02-.02-.038-.042t-.034-.046-.03-.05q-.013-.024-.024-.051l-.02-.054q-.008-.027-.013-.055-.006-.029-.009-.057l-.002-.057q0-.029.002-.057.003-.029.009-.057t.014-.056.019-.054.024-.051.03-.05.034-.045.038-.043L45.395 26.54q.02-.02.043-.04l.046-.033q.023-.016.049-.03.025-.013.051-.024l.054-.02q.028-.008.056-.013.028-.006.056-.008.03-.003.058-.003t.057.003q.028.002.056.008.029.005.056.014.027.008.054.019.026.011.052.025.025.013.049.03.024.015.046.033t.042.039l6.835 6.835.04.042.033.046q.016.024.03.05.013.025.024.051l.02.054q.008.028.013.056.006.028.009.056l.002.057-.002.058q-.003.028-.009.056t-.014.056-.019.054-.024.051q-.014.026-.03.05-.016.023-.034.045-.018.023-.039.043M32.608 52.996l19.21-19.21-6.01-6.01-19.21 19.21z"/><path fill="#8a826e" d="M33.005 41.987q-.762.308-1.083 1.064-.322.756-.015 1.518.308.762 1.064 1.084.757.321 1.518.013.762-.307 1.084-1.063.321-.757.014-1.518-.308-.762-1.064-1.084-.756-.321-1.518-.014m-2.268-3.363 1.595-.644q.086-.035.188-.01t.152.107l.738 1.248q.443-.02.767.016.257-.396.681-1.169.057-.107.15-.144.094-.038.192-.002.344.086 1.063.398.72.312.783.47.035.086.01.213l-.375 1.304q.293.25.537.544 1.024-.28 1.42-.33.223-.032.306.177l.644 1.595q.04.1.01.2-.03.101-.12.146l-1.242.735q.027.398-.005.754l1.178.703q.094.046.137.154.04.1-.006.211-.454 1.236-.729 1.673-.052.08-.145.117-.086.035-.189.01-.194-.048-.626-.174-.43-.127-.663-.184-.28.34-.592.582l.336 1.393q.024.1-.029.188-.052.088-.145.125l-1.596.644q-.086.035-.188.01t-.149-.1l-.74-1.255q-.372.033-.775-.013-.293.452-.681 1.169-.057.107-.144.141-.071.03-.19.002-.335-.082-1.06-.396-.723-.314-.787-.472-.038-.093-.004-.216l.369-1.302q-.293-.249-.537-.543-1.024.279-1.42.33-.222.032-.307-.177l-.643-1.595q-.041-.1-.01-.2.03-.1.121-.146l1.241-.735q-.027-.398.005-.754l-1.18-.71q-.092-.039-.135-.146-.038-.094-.001-.209.481-1.272.743-1.679.037-.073.138-.114.087-.035.189-.01.194.048.625.175.432.126.664.183.284-.332.585-.579l-.33-1.396q-.023-.1.03-.187.052-.088.145-.126"/><path fill="#706959" d="M33.207 42.49q-.553.223-.787.773t-.01 1.104.773.787 1.104.01.787-.773.01-1.104-.773-.787q-.55-.234-1.103-.01-.037.014-.075.024-.039.009-.079.013-.039.003-.079.001t-.078-.01-.076-.021-.072-.033q-.035-.018-.067-.042t-.06-.052l.383-.383zm-.405-1.005q.037-.015.075-.025.039-.009.078-.012.04-.004.08-.002.039.002.078.01t.076.022.072.032.067.042.06.052l-.383.383zq.97-.392 1.933.018t1.354 1.379q.392.97-.018 1.933-.409.963-1.379 1.354t-1.933-.018-1.354-1.38q-.391-.969.018-1.931.409-.964 1.379-1.355m-2.268-3.364 1.595-.644q.25-.1.521-.033.32.081.484.35l.742 1.255-.466.276-.025-.541q.486-.022.852.02l-.06.537-.454-.295q.246-.38.66-1.134.148-.275.423-.387.287-.115.58-.008l-.186.509.132-.526q.387.098 1.146.427.924.4 1.07.764.095.234.041.517l-.012.049-.376 1.304-.52-.15.351-.412q.329.28.603.61l-.417.346-.143-.522q1.06-.29 1.494-.346.636-.088.878.512l.644 1.595q.112.28.025.563-.098.322-.398.471l-.24-.485.275.466-1.24.735-.277-.466.54-.037q.03.441-.005.84l-.54-.049.278-.465 1.178.703-.278.465.237-.487q.282.137.403.439.124.307-.01.625l-.5-.212.51.187q-.474 1.29-.78 1.775-.149.23-.402.33-.247.102-.521.033-.203-.05-.647-.18-.42-.123-.64-.177l.13-.526.416.346q-.318.384-.676.663l-.333-.427.526-.127.337 1.393q.074.315-.09.591-.146.246-.41.352l-1.594.643q-.25.1-.521.033-.316-.079-.478-.337l-.007-.012-.741-1.256.466-.275.048.54q-.426.037-.883-.015l.061-.538.455.295q-.282.434-.66 1.132-.149.278-.417.386-.229.092-.514.027-.388-.095-1.154-.427-.927-.402-1.074-.766-.107-.263-.024-.564l.37-1.304.52.147-.35.413q-.329-.28-.603-.61l.417-.346.142.522q-1.06.29-1.493.346-.635.088-.878-.511l-.644-1.597q-.112-.278-.025-.562.1-.323.399-.471l.24.485-.276-.466 1.24-.735.277.466-.54.037q-.03-.441.005-.84l.54.049-.28.464-1.18-.71.28-.464-.213.498q-.297-.126-.424-.441-.112-.276-.015-.578l.01-.026q.501-1.326.794-1.78l.455.293-.483-.245q.129-.254.418-.371.25-.1.523-.033.203.05.647.18.42.123.64.177l-.13.526-.41-.352q.314-.368.653-.646l.343.419-.527.124-.33-1.396q-.073-.31.09-.586.147-.247.41-.353l.202.502-.383-.383q.079-.078.18-.12m.405 1.005-.202-.502.383.383q-.079.078-.18.12.075-.031.117-.102.059-.1.032-.212l.33 1.396q.008.036.012.074.003.038.001.076-.002.037-.009.075-.007.037-.019.073t-.029.07-.038.064-.047.059-.055.052q-.265.217-.518.512-.024.029-.052.053-.028.025-.06.046-.03.02-.064.037t-.07.028-.072.017-.074.008-.075-.002-.073-.013q-.244-.06-.687-.19-.42-.123-.604-.168.068.017.145-.014.088-.036.142-.143-.012.025-.027.048-.231.359-.692 1.578l-.507-.192.516.166q.023-.072-.013-.16-.04-.1-.156-.15.035.015.067.035l1.18.71q.033.02.063.043.03.024.055.052t.048.059q.021.03.039.065.017.033.03.07.011.035.019.072.007.038.009.075.002.038-.002.076-.028.313-.004.67.003.037 0 .074-.002.037-.01.074t-.02.072-.03.068-.04.064-.047.057-.055.05-.062.043l-1.24.735-.037.02q.119-.059.157-.182.025-.084-.006-.16l.644 1.594q-.075-.183-.267-.156.36-.047 1.349-.317.037-.01.076-.015.038-.004.077-.004.039.001.077.007.038.007.075.018.037.012.072.029t.067.038.061.048.054.056q.214.258.471.477.03.025.055.054.026.03.047.062t.038.067q.016.035.027.072t.017.075.007.077-.005.077-.016.076l-.368 1.3q.016-.056-.016-.133l.005-.064q.167.1.496.242.682.296.963.365-.046-.01-.13.024-.097.039-.132.103.399-.736.704-1.206.02-.032.045-.06t.053-.053.06-.046.065-.036.07-.027q.036-.012.073-.018t.075-.007q.037 0 .075.004.348.04.665.011.038-.003.076-.001t.076.01.073.02.07.03.065.039.06.048.05.056q.025.03.044.063l.74 1.255-.466.276.46-.288q-.07-.112-.181-.14-.068-.016-.144.015l1.596-.645q-.077.031-.119.101-.059.1-.031.216l-.337-1.393q-.009-.038-.012-.077-.004-.038-.002-.077t.01-.077.02-.075.03-.071q.018-.035.04-.066.023-.032.05-.06t.058-.052q.265-.206.508-.5.025-.029.053-.054.028-.026.06-.047.03-.022.064-.039.034-.016.07-.028t.074-.019.075-.008.076.002.074.013q.244.06.687.19.419.123.605.168-.07-.018-.145.013-.065.026-.111.097.244-.388.678-1.57l.01-.026q-.04.096.003.202.034.086.128.132l-.04-.022-1.178-.703q-.033-.02-.063-.043-.03-.024-.055-.052t-.048-.059-.04-.065-.029-.07-.02-.073-.009-.075.002-.076q.028-.313.004-.67-.003-.037 0-.074.002-.038.01-.074.008-.037.02-.072t.03-.068.04-.064.048-.058q.025-.027.055-.05t.061-.042l1.241-.735.035-.02q-.119.06-.156.182-.025.083.006.16l-.644-1.595q.074.184.267.157-.36.047-1.349.317-.037.01-.076.015-.038.005-.077.004t-.077-.007-.075-.018-.072-.029-.068-.038-.06-.048q-.03-.026-.054-.056-.214-.258-.471-.477-.03-.026-.056-.055-.025-.029-.046-.061-.022-.033-.038-.068-.017-.035-.028-.073t-.017-.075q-.005-.039-.006-.078 0-.038.005-.077.006-.038.016-.076l.376-1.304.52.15-.531-.101q-.006.029.02.09l-.005.066q-.165-.1-.492-.241-.679-.294-.98-.37-.027-.007-.053-.016.097.035.197-.005.088-.036.121-.098-.433.791-.702 1.205-.02.031-.045.06t-.053.053-.06.045-.065.036-.07.027-.073.018-.074.007q-.038 0-.075-.003-.282-.032-.682-.014-.037.002-.073-.002-.037-.003-.072-.011-.036-.008-.07-.021t-.067-.03-.062-.04-.056-.047-.05-.054-.04-.06l-.734-1.241q.066.107.18.136.068.017.145-.014z"/><path fill="#8a826e" d="M41.495 33.817q-.762.307-1.083 1.064-.321.756-.014 1.518t1.064 1.083 1.518.014q.762-.307 1.084-1.063.321-.757.014-1.519-.308-.761-1.064-1.083-.757-.322-1.518-.014m-2.268-3.364 1.595-.643q.087-.035.19-.01.101.026.15.106l.738 1.249q.443-.02.767.016.258-.396.682-1.17.057-.106.15-.144.094-.037.192-.001.344.086 1.063.398.72.311.783.47.035.086.01.212l-.375 1.305q.293.25.537.544 1.024-.28 1.42-.331.222-.03.306.178l.644 1.595q.04.1.01.2t-.121.146l-1.241.735q.027.398-.005.754l1.178.703q.093.045.137.153.04.101-.007.212-.453 1.236-.728 1.673-.052.08-.145.117-.087.035-.189.01-.194-.048-.626-.175-.431-.126-.663-.183-.281.339-.592.581l.336 1.394q.023.1-.03.188-.051.087-.145.125l-1.595.644q-.086.035-.189.01-.102-.026-.148-.1l-.74-1.255q-.372.033-.775-.013-.294.452-.682 1.169-.057.106-.143.141-.072.03-.191.002-.335-.082-1.059-.396-.723-.314-.787-.472-.038-.093-.004-.216l.369-1.302q-.293-.25-.537-.543-1.024.279-1.421.33-.221.031-.306-.177l-.644-1.595q-.04-.101-.01-.201.031-.1.122-.145l1.24-.735q-.026-.399.005-.754l-1.18-.71q-.091-.039-.135-.147-.037-.093 0-.208.481-1.273.743-1.68.037-.073.138-.113.086-.035.189-.01.194.048.625.174.432.127.663.184.284-.332.586-.58l-.33-1.395q-.023-.1.03-.188.052-.088.145-.125"/><path fill="#706959" d="M41.698 34.319q-.554.224-.787.773-.234.55-.01 1.104.223.554.773.788t1.103.01q.554-.223.788-.773t.01-1.104-.773-.788q-.55-.233-1.103-.01-.037.015-.076.024-.038.01-.078.013-.04.004-.079.002-.04-.002-.078-.01-.04-.008-.077-.022t-.072-.032-.066-.042-.06-.052l.382-.383zm-.405-1.005q.036-.014.075-.024t.078-.013.08-.001q.039.002.078.01.038.008.076.021.037.014.072.033.035.018.067.042.031.024.06.052l-.383.383zq.97-.392 1.933.017t1.354 1.38-.018 1.932q-.41.964-1.379 1.355t-1.933-.018-1.354-1.38.018-1.932q.408-.963 1.379-1.355m-2.268-3.363 1.595-.644q.25-.1.521-.033.319.081.483.35l.743 1.255-.467.276-.024-.541q.485-.022.852.019l-.06.538-.455-.295q.247-.38.66-1.134.148-.276.423-.387.288-.115.58-.009l-.185.51.132-.526q.387.098 1.146.427.923.4 1.07.764.094.234.04.516l-.01.05-.377 1.304-.52-.15.35-.412q.33.28.604.61l-.417.346-.143-.523q1.06-.289 1.493-.345.637-.088.879.512l.643 1.595q.113.28.026.562-.098.323-.398.472l-.241-.485.276.466-1.241.735-.276-.466.54-.037q.03.44-.005.84l-.54-.05.278-.464 1.178.703-.278.465.237-.487q.281.137.402.438.125.308-.01.626l-.499-.212.509.186q-.473 1.29-.779 1.775-.15.23-.402.332-.247.1-.522.032-.202-.05-.647-.18-.42-.123-.639-.177l.13-.526.416.345q-.319.385-.677.664l-.332-.428.526-.127.336 1.394q.075.315-.09.591-.145.246-.41.352l-1.593.643q-.25.1-.521.033-.316-.079-.478-.337l-.008-.012-.74-1.256.466-.275.048.54q-.426.037-.883-.015l.061-.538.455.294q-.282.435-.66 1.133-.15.278-.417.386-.23.092-.514.027-.388-.095-1.154-.427-.927-.402-1.074-.766-.108-.263-.024-.564l.37-1.304.52.147-.35.413q-.329-.28-.603-.61l.417-.346.142.522q-1.06.289-1.493.346-.635.088-.878-.512l-.644-1.596q-.113-.278-.026-.562.1-.323.4-.471l.24.485-.276-.466 1.24-.735.277.466-.54.037q-.03-.441.005-.84l.54.049-.28.464-1.18-.71.279-.464-.212.498q-.297-.126-.425-.441-.111-.276-.014-.578l.01-.026q.5-1.326.794-1.78l.455.293-.483-.245q.129-.254.417-.371.251-.101.523-.033.204.05.648.18.42.123.64.177l-.13.526-.411-.353q.315-.368.653-.645l.344.419-.527.124-.33-1.396q-.073-.31.09-.587.147-.247.41-.352l.202.502-.383-.383q.078-.079.18-.12m.405 1.005-.203-.503.383.384q-.078.078-.18.119.075-.03.118-.102.059-.1.032-.212l.33 1.396q.008.037.011.075.004.038.002.075-.002.038-.009.075-.007.038-.019.073-.012.036-.03.07-.016.034-.038.065t-.047.059-.055.052q-.264.217-.517.512-.025.028-.053.053t-.059.046-.065.037-.069.027-.072.018-.074.008-.075-.002q-.037-.004-.074-.013-.243-.06-.687-.19-.419-.123-.603-.168.067.017.145-.014.088-.036.142-.143-.013.025-.028.048-.23.359-.692 1.577l-.506-.191.515.165q.023-.071-.012-.16-.04-.1-.156-.149.035.015.067.035l1.18.71q.033.02.063.043.029.024.055.052t.047.058.04.065.029.07.02.073q.006.037.008.075t-.001.076q-.028.313-.004.67.003.037 0 .074t-.01.074-.02.072-.03.068q-.018.033-.04.064-.022.03-.048.057-.025.027-.055.05t-.061.043l-1.241.735-.036.02q.118-.059.156-.182.026-.084-.005-.161l.643 1.595q-.074-.183-.266-.157.36-.047 1.348-.316.038-.01.076-.015.039-.005.077-.004.04 0 .078.007.038.006.075.018t.072.029.067.038.06.048q.03.026.054.056.215.258.472.477.03.025.055.054t.047.061q.02.033.037.068t.028.072.017.075.006.077-.004.077-.016.076l-.368 1.3q.015-.056-.016-.133l.005-.065q.166.1.496.243.682.296.963.365-.046-.01-.131.024-.096.038-.13.103.397-.736.703-1.206.02-.032.045-.06.024-.029.053-.053.028-.025.06-.046.031-.02.065-.036t.07-.028.073-.017.075-.007.075.003q.348.04.665.012.038-.003.076-.001t.075.01.074.019.07.03.065.04.059.048.051.056.044.062l.74 1.256-.466.275.459-.287q-.07-.112-.18-.14-.068-.016-.145.015l1.597-.645q-.077.031-.119.101-.059.1-.032.216l-.336-1.393q-.01-.038-.013-.077t-.001-.077.009-.077q.007-.038.02-.075t.031-.071.04-.066.05-.06.058-.052q.265-.206.508-.5.024-.03.052-.055t.06-.047q.031-.021.065-.038t.07-.029.074-.018.075-.008.076.002q.037.004.074.013.244.06.687.19.418.123.605.168-.07-.018-.145.013-.066.026-.112.097.245-.388.679-1.57l.01-.026q-.04.096.002.202.035.086.13.132-.022-.01-.042-.022l-1.178-.703q-.032-.02-.062-.043-.03-.024-.055-.052t-.048-.06q-.022-.03-.04-.064-.017-.034-.03-.07-.011-.036-.019-.073-.007-.038-.009-.076t.002-.075q.028-.314.003-.67-.002-.037 0-.074.003-.038.01-.074.009-.037.021-.072t.03-.069.04-.063.047-.058q.026-.027.055-.05t.062-.043l1.24-.734.036-.02q-.119.06-.156.182-.025.083.006.16l-.644-1.595q.074.184.267.157-.36.047-1.349.317-.037.01-.076.015-.038.004-.077.004-.04-.001-.077-.007-.039-.007-.076-.018-.037-.012-.072-.03-.035-.016-.067-.038t-.06-.047q-.03-.026-.054-.056-.214-.259-.472-.478-.03-.025-.055-.054-.026-.03-.047-.062t-.037-.067-.028-.073-.017-.075-.006-.078.005-.077.016-.076l.376-1.305.52.15-.532-.1q-.005.029.02.09l-.004.066q-.166-.1-.493-.241-.678-.294-.98-.37l-.052-.016q.096.035.196-.005.089-.036.122-.098-.434.791-.703 1.205-.02.031-.045.06t-.053.052-.06.046q-.03.02-.064.036t-.07.027-.073.018-.075.007-.074-.004q-.282-.031-.682-.013-.037.001-.073-.002-.037-.003-.073-.011t-.07-.021-.066-.03q-.033-.018-.062-.04-.03-.022-.056-.047t-.05-.054q-.022-.03-.041-.06l-.733-1.242q.066.108.18.137.067.017.144-.014z"/><path fill="#8a826e" d="M33.005 41.986q-.762.308-1.083 1.065a1.9 1.9 0 0 0-.015 1.518q.308.762 1.064 1.083a1.9 1.9 0 0 0 1.518.014q.762-.308 1.084-1.064.321-.756.014-1.518a1.9 1.9 0 0 0-1.064-1.083 1.9 1.9 0 0 0-1.518-.014m7.858-7.76a1.9 1.9 0 0 1 1.406-.573 1.9 1.9 0 0 1 1.4.59q.577.585.572 1.406a1.9 1.9 0 0 1-.59 1.4q-.584.576-1.406.572a1.9 1.9 0 0 1-1.4-.59 1.9 1.9 0 0 1-.571-1.406q.005-.822.589-1.4"/><path fill="#706959" d="M33.208 42.489q-.554.224-.788.773-.234.55-.01 1.104.223.554.773.788t1.104.01.788-.774.01-1.103-.774-.788-1.103-.01q-.037.015-.076.024-.038.01-.078.013-.04.004-.079.001-.04-.002-.078-.01-.039-.007-.076-.02-.038-.014-.072-.033-.035-.019-.067-.042t-.06-.052l.383-.384zm-.406-1.005q.037-.014.075-.024.039-.01.078-.013.04-.003.08-.001.039.002.078.01t.076.021.072.032.067.043q.032.023.06.051l-.383.384zq.97-.39 1.933.018.963.41 1.354 1.38t-.018 1.932q-.41.963-1.379 1.354t-1.933-.017q-.963-.41-1.354-1.38t.018-1.932 1.379-1.355m7.68-7.644q.744-.735 1.79-.728 1.047.006 1.782.75t.728 1.79-.75 1.781q-.744.736-1.79.73-1.047-.008-1.782-.751-.734-.744-.728-1.79t.75-1.782m.761.77q-.424.42-.428 1.018-.003.598.416 1.023.42.424 1.017.428.598.003 1.023-.416.424-.42.428-1.017.004-.598-.416-1.023t-1.017-.428-1.023.416"/><path fill="#4d4d4d" d="M42.508 84.934 25.066 67.492a1 1 0 0 1 0-1.414l41.012-41.013a1 1 0 0 1 1.414 0l17.442 17.442a1 1 0 0 1 0 1.415L43.922 84.934a1 1 0 0 1-1.414 0"/><path fill="#3e3e3e" d="M42.095 85.346 24.653 67.904q-.464-.464-.464-1.12 0-.654.464-1.119l41.013-41.012q.464-.465 1.12-.465.654 0 1.119.465l17.442 17.442q.464.465.464 1.12t-.464 1.12l-41.013 41.01q-.464.465-1.12.465-.654 0-1.119-.465m.825-.825q.295.295.59 0l41.012-41.01q.123-.123.123-.295t-.123-.294L67.08 25.478q-.295-.295-.59 0L25.478 66.49q-.294.295 0 .59z"/><path fill="#3e3e3e" d="m45.512 83.344-2.72-2.72.413-.412-.116.572-2.954-.6q-.085-.017-.16-.058-.076-.04-.137-.101l-9.863-9.863q-.061-.061-.102-.137-.04-.075-.057-.16l-.6-2.954.571-.117-.412.413-2.72-2.72q-.02-.02-.038-.042t-.034-.046-.03-.049q-.013-.025-.024-.052l-.02-.053-.013-.056q-.006-.028-.008-.056-.003-.03-.003-.058t.003-.057q.002-.028.008-.056.006-.029.014-.056t.02-.054q.01-.026.024-.052.013-.025.03-.049.015-.024.033-.046t.039-.042.042-.039.046-.034.05-.03q.024-.013.05-.024l.055-.019q.027-.008.055-.014l.057-.008q.029-.003.057-.003.029 0 .057.003.029.003.057.008.028.006.055.014.028.008.054.02.027.01.052.024.025.013.05.03.023.015.045.033l.043.039 2.719 2.719q.06.06.101.136.04.076.058.16l.6 2.955-.572.116.413-.412 9.863 9.863-.412.413.116-.572 2.954.6q.085.017.16.057.076.041.137.102l2.719 2.719q.02.02.038.042l.034.046q.016.024.03.05.013.025.024.051l.02.054q.008.028.013.056.006.028.009.056.003.029.003.057 0 .03-.003.058t-.009.056-.013.056l-.02.054q-.01.026-.024.051-.014.026-.03.05l-.034.046q-.018.022-.038.042t-.043.038-.046.034-.049.03q-.025.013-.051.024l-.054.02-.056.014q-.028.005-.057.008-.028.003-.057.003-.028 0-.057-.003l-.057-.008q-.028-.006-.055-.014l-.054-.02q-.026-.01-.052-.024t-.049-.03-.046-.034-.042-.038m3.535-3.536-2.719-2.719.413-.412-.116.572-2.955-.6q-.084-.017-.16-.058-.075-.04-.136-.102l-9.864-9.863q-.06-.06-.101-.136-.04-.076-.058-.16l-.6-2.955.572-.116-.413.412-2.719-2.719q-.02-.02-.038-.042t-.034-.046-.03-.05q-.013-.024-.024-.051t-.02-.054-.013-.055-.009-.057q-.003-.029-.003-.057 0-.029.003-.057.003-.029.009-.057t.014-.055.019-.055.024-.051.03-.05.034-.045.038-.043.042-.038q.023-.018.047-.034.023-.016.049-.03.025-.013.051-.024l.054-.02q.028-.008.056-.013.028-.006.056-.009l.058-.002.057.002q.028.003.057.009.028.005.055.014.027.008.054.019.026.01.052.024t.049.03q.024.016.046.034t.042.038l2.72 2.72q.06.06.1.136.041.075.058.16l.6 2.954-.571.117.412-.413 9.864 9.864-.413.412.116-.572 2.955.6q.084.017.16.058.075.04.136.101l2.72 2.72q.02.02.038.042t.034.046.03.049.024.052l.019.054q.008.027.014.055t.008.057.003.057-.003.057q-.002.029-.008.057t-.014.055-.02.054q-.01.027-.024.052-.013.025-.03.049-.015.024-.033.046t-.039.042-.042.039q-.022.018-.046.034t-.05.03q-.024.013-.05.024l-.055.02-.055.013q-.028.006-.057.008-.029.003-.057.003-.029 0-.057-.003-.029-.002-.057-.008l-.056-.014q-.027-.008-.053-.02-.027-.01-.052-.024-.025-.013-.05-.029-.023-.016-.045-.034t-.043-.039m30.642-30.64-2.72-2.72.413-.412-.116.571-2.955-.6q-.084-.017-.16-.057-.075-.041-.136-.102l-9.863-9.863q-.061-.061-.102-.137-.04-.075-.057-.16l-.6-2.954.571-.116-.412.412-2.72-2.719q-.02-.02-.038-.042l-.034-.046q-.016-.024-.03-.05-.013-.025-.024-.051l-.02-.054q-.008-.028-.013-.056-.006-.028-.009-.056l-.002-.057.002-.058q.003-.028.009-.056t.014-.056.019-.054l.024-.052q.014-.025.03-.049l.034-.046q.018-.022.038-.042t.043-.039.046-.033q.024-.017.049-.03l.052-.025.054-.019q.027-.008.055-.014.028-.005.057-.008.028-.003.057-.003.028 0 .057.003l.057.008q.028.006.055.014.028.009.054.02.027.01.052.024.025.013.049.03.024.015.046.033t.042.039l2.72 2.72q.06.06.101.136.04.075.058.16l.6 2.954-.572.116.413-.412 9.863 9.863-.412.413.116-.572 2.954.6q.084.017.16.058.076.04.137.101l2.719 2.72q.02.02.038.042t.034.046.03.049.024.051l.02.054q.008.028.013.056.006.028.009.056l.002.058-.002.057q-.003.028-.009.057-.005.028-.014.055-.008.027-.019.054l-.024.052q-.014.025-.03.049t-.034.046-.038.042-.043.039-.046.034-.049.03-.052.024l-.054.019q-.027.008-.055.014-.028.005-.057.008-.028.003-.057.003t-.057-.003-.057-.008-.055-.014-.054-.02q-.027-.01-.052-.024-.025-.013-.049-.03-.024-.015-.046-.033t-.042-.039m3.535-3.536-2.719-2.72.413-.412-.117.572-2.954-.6q-.084-.017-.16-.058-.076-.04-.136-.101l-9.864-9.864q-.06-.06-.101-.136-.04-.076-.058-.16l-.6-2.955.572-.116-.413.413-2.719-2.72q-.02-.02-.039-.042-.018-.022-.033-.046-.017-.024-.03-.049-.014-.025-.025-.052l-.019-.054q-.008-.027-.014-.055-.005-.028-.008-.057-.003-.028-.003-.057t.003-.057q.003-.029.008-.057.006-.028.014-.055.009-.028.02-.054.01-.027.024-.052.013-.025.03-.05.015-.023.033-.045t.039-.042l.042-.04.046-.033q.024-.016.05-.03.025-.013.051-.024l.054-.02q.028-.008.056-.013.028-.006.056-.009l.057-.002.058.002q.028.003.056.009t.056.014.054.019l.052.024q.025.014.049.03l.046.034q.022.018.042.039l2.719 2.719q.06.06.102.136.04.076.057.16l.6 2.955-.571.116.412-.413 9.864 9.864-.413.412.116-.571 2.955.6q.084.017.16.057.075.04.136.102l2.72 2.719q.02.02.038.042t.034.046.03.05q.013.024.024.05l.019.055q.008.027.014.055l.008.057q.003.029.003.057 0 .029-.003.057-.003.029-.008.057-.006.028-.014.055-.009.028-.02.054-.01.027-.024.052-.013.025-.03.05-.015.023-.033.045l-.039.043q-.02.02-.042.038t-.046.034-.05.03-.051.024l-.054.02q-.028.008-.056.013-.028.006-.056.009-.029.003-.057.002l-.058-.002q-.028-.003-.056-.009t-.056-.014-.054-.019-.051-.024-.05-.03l-.046-.034q-.022-.018-.042-.038"/><path fill="#999" d="m50.993 79.277-4.478 4.478 7.306 7.307a1.663 1.663 0 0 0 2.358 0l34.883-34.884a1.663 1.663 0 0 0 0-2.357l-7.306-7.307-4.479 4.479-20.27-20.27 4.478-4.479-7.306-7.307a1.663 1.663 0 0 0-2.358 0L44.63 28.13l4.95 4.95-22.393 22.39z"/><path fill="#7a7a7a" d="m51.406 79.69-4.479 4.478-.412-.413.412-.412 7.307 7.307q.766.766 1.532 0L90.65 55.766q.766-.766 0-1.532l-7.307-7.307.413-.413.412.413-4.478 4.478q-.02.02-.043.039-.022.018-.046.034t-.049.03-.052.024l-.053.019-.056.014-.056.008q-.03.003-.058.003t-.057-.003l-.056-.008q-.029-.006-.056-.014t-.054-.02q-.026-.01-.052-.024-.025-.013-.049-.03-.024-.015-.046-.033t-.042-.039l-20.27-20.27q-.02-.02-.04-.043l-.033-.046q-.016-.023-.03-.049-.013-.025-.024-.051l-.02-.054q-.008-.028-.013-.056-.006-.028-.009-.056l-.002-.058.002-.057q.003-.028.009-.057.005-.028.014-.055.008-.028.019-.054.011-.027.024-.052t.03-.049.034-.046.038-.042l4.479-4.479.412.413-.412.412-7.307-7.306q-.766-.766-1.532 0l-9.192 9.192-.413-.412.413-.413 4.95 4.95q.02.02.038.042t.034.046.03.05q.013.024.024.051l.019.054q.008.027.014.055.006.029.008.057.003.029.003.057 0 .029-.003.058-.002.028-.008.056l-.014.056q-.008.027-.02.054-.01.026-.024.051-.013.026-.03.05-.015.023-.033.045-.018.023-.039.043L27.6 55.883l-.413-.412.413-.412 23.806 23.805q.02.02.038.043t.034.046.03.049.024.052.02.054.013.055.009.057q.002.028.002.057t-.002.057-.009.057-.014.055q-.008.028-.019.054-.011.027-.024.052t-.03.049-.034.046-.038.042m-.825-.826.412.413-.412.412-23.806-23.806q-.02-.02-.039-.042-.018-.022-.034-.046t-.03-.049-.024-.052l-.02-.054-.013-.055q-.006-.028-.008-.057-.003-.028-.003-.057t.003-.057.008-.057.014-.055.02-.054q.01-.027.024-.052.013-.025.03-.049.015-.024.033-.046t.039-.042l22.391-22.392.413.412-.413.413-4.95-4.95q-.02-.02-.038-.042l-.034-.046q-.016-.024-.03-.05-.013-.025-.024-.051l-.019-.054q-.009-.028-.014-.056t-.008-.056-.003-.057.003-.058q.002-.028.008-.056.005-.028.014-.056.008-.027.02-.054.01-.026.024-.051.013-.026.03-.05.015-.023.033-.045.018-.023.039-.043l9.192-9.192q.66-.66 1.591-.66t1.591.66l7.307 7.306q.02.02.038.043t.034.046.03.049q.013.025.024.052t.02.054.013.055.009.057.002.057l-.002.057q-.003.029-.009.057t-.014.055-.019.054-.024.052-.03.049-.034.046-.038.042l-4.479 4.479-.412-.413.412-.412 20.27 20.27-.412.413-.412-.413 4.478-4.478q.02-.02.043-.039.022-.018.045-.034.024-.016.05-.03.025-.013.051-.024l.054-.019.056-.014.056-.008q.03-.003.058-.003t.057.003l.056.008q.029.006.056.014t.054.02q.026.01.052.024.025.013.049.03.024.015.046.033t.042.039l7.307 7.307q.66.66.66 1.59 0 .931-.66 1.592L56.59 91.474q-.66.661-1.591.661t-1.591-.66l-7.307-7.307q-.02-.02-.038-.043t-.034-.046-.03-.049-.024-.052-.02-.053-.013-.056-.009-.057-.003-.057.003-.057.009-.057.014-.055.019-.054q.01-.026.024-.052t.03-.049q.016-.024.034-.046t.038-.042z"/><path fill="#0f0" d="M65.872 42.242q.046-.046.097-.088.05-.041.105-.077.054-.037.112-.068.058-.03.118-.056.06-.025.124-.044.062-.019.126-.032.065-.013.13-.019t.13-.006.131.006.13.02q.064.012.127.03.062.02.123.045.06.025.118.056t.112.068q.055.036.105.077.05.042.097.088.047.047.088.097.042.05.078.105.037.055.068.112.03.058.056.119.024.06.044.123.018.063.031.127t.02.13.006.13-.006.13-.02.13-.031.127-.045.123-.056.119q-.03.057-.067.112-.036.054-.078.105-.041.05-.088.097-.046.046-.097.088-.05.041-.105.078-.054.036-.112.067-.058.03-.118.056-.06.025-.123.044t-.127.032q-.065.013-.13.019t-.13.006-.131-.006-.13-.02-.127-.031q-.062-.02-.123-.044-.06-.025-.118-.056-.058-.03-.112-.067-.055-.037-.105-.078-.05-.042-.097-.088-.047-.047-.088-.097-.042-.05-.078-.105t-.067-.112-.056-.119q-.025-.06-.045-.123-.018-.063-.031-.127t-.02-.13q-.006-.064-.006-.13 0-.065.007-.13.006-.066.019-.13t.031-.127q.02-.063.045-.123t.056-.119q.03-.057.067-.112.036-.054.078-.105.041-.05.088-.097"/><path fill="#0c0" d="M65.636 42.007q.488-.489 1.179-.489.69 0 1.178.489.488.488.488 1.178t-.488 1.179-1.179.488-1.178-.488-.488-1.179.488-1.178m.471.47q-.707.708 0 1.415.708.707 1.415 0t0-1.414-1.415 0"/><path fill="#7a7a7a" d="M35.342 50.427q.028-.028.059-.053t.063-.047.067-.04.071-.033.074-.027l.076-.02q.039-.007.078-.01.039-.004.078-.004.04 0 .078.003.04.004.078.012.039.008.076.02.038.01.074.026.036.014.071.033t.068.04.063.047.058.053.053.058.046.063.04.068q.02.034.034.07t.027.074q.011.038.019.077.007.038.011.077.004.04.004.079t-.004.078-.011.078-.02.076q-.01.037-.026.074-.015.036-.033.07t-.04.068-.048.063-.052.058-.058.053-.063.047-.068.04-.07.034-.075.026-.076.02-.077.01-.079.005-.078-.004-.078-.012q-.039-.007-.076-.019-.038-.011-.074-.026t-.07-.034q-.036-.018-.068-.04t-.063-.047q-.03-.025-.059-.053-.027-.027-.052-.058-.025-.03-.047-.063t-.04-.067-.034-.071-.026-.074-.02-.076-.011-.078-.004-.078q0-.04.004-.079t.011-.078q.008-.038.02-.076.011-.037.026-.073.015-.037.034-.072.018-.034.04-.067.022-.032.047-.063.025-.03.052-.058m23.1 23.099q.027-.028.057-.053t.063-.047.068-.04q.034-.019.07-.034t.075-.026.076-.02q.038-.007.078-.01.039-.005.078-.005.04 0 .078.004.04.004.078.012.039.008.076.019.038.011.074.026t.071.034.067.04.063.047.059.053.052.058.047.063.04.067.034.071.026.074.02.076.011.078q.004.04.004.078 0 .04-.004.079t-.011.078q-.008.038-.02.076-.01.037-.026.074-.015.036-.034.07-.018.035-.04.068t-.047.063-.052.058-.059.053-.063.047q-.032.021-.067.04t-.07.034q-.037.015-.075.026-.037.011-.076.02-.039.007-.078.01-.039.004-.078.004-.04 0-.078-.003-.04-.004-.078-.012-.039-.008-.076-.019-.038-.011-.074-.026-.037-.015-.071-.034-.035-.019-.068-.04-.032-.022-.063-.047-.03-.025-.058-.053t-.052-.058-.047-.063-.04-.067q-.02-.035-.034-.071-.015-.037-.027-.074-.011-.038-.019-.076-.007-.039-.011-.078-.004-.04-.004-.079t.004-.078.011-.078.02-.076q.01-.037.026-.074.015-.036.033-.07t.04-.068q.023-.033.048-.063.024-.03.052-.058m-8.015-38.184q.028-.028.059-.053t.063-.046.067-.041.07-.033.075-.027.076-.019.078-.011.078-.004q.04 0 .078.004.04.004.078.011.039.008.076.02.038.01.074.026.036.015.071.033t.068.04.063.047.058.053.052.058q.026.03.047.063t.04.068.034.07q.015.037.027.074l.019.076q.007.04.011.078.004.04.004.079t-.004.078-.011.078-.02.076q-.01.038-.026.074-.015.036-.033.07-.019.036-.04.068t-.048.063q-.024.03-.052.058t-.058.053-.063.047-.068.04-.07.034q-.037.015-.075.026-.037.012-.076.02-.038.007-.078.01-.039.005-.078.005-.04 0-.078-.004-.04-.004-.078-.012-.039-.007-.076-.019-.038-.011-.074-.026t-.071-.034-.067-.04-.063-.047-.059-.053-.052-.058-.047-.063-.04-.067-.034-.071-.026-.074-.02-.076q-.007-.039-.011-.078-.004-.04-.004-.078 0-.04.004-.079t.011-.078q.008-.038.02-.076.011-.037.026-.073.015-.037.033-.071.019-.035.04-.068.023-.032.048-.063.025-.03.052-.058m23.1 23.099q.027-.028.057-.053t.063-.047.068-.04.07-.033q.037-.016.075-.027.037-.011.076-.019.038-.008.078-.012.039-.004.078-.003.04 0 .078.003.04.004.078.012t.076.019.074.027.071.033.067.04q.033.022.063.047t.059.053q.027.028.052.058t.047.063.04.067.034.071.027.074l.019.076q.007.039.011.078.004.04.004.079t-.004.078-.012.078q-.007.038-.019.076-.011.037-.026.074-.015.036-.034.07-.018.035-.04.068t-.047.063-.052.058-.059.053-.063.047-.067.04-.07.034q-.037.015-.075.026-.037.011-.076.02-.039.007-.078.01-.039.005-.078.005-.04 0-.078-.004-.04-.004-.078-.012-.039-.008-.076-.019-.038-.011-.074-.026-.036-.016-.071-.034t-.068-.04q-.032-.022-.063-.047-.03-.025-.058-.053t-.052-.058q-.026-.03-.047-.063t-.04-.067-.034-.071-.027-.074q-.011-.038-.019-.076-.007-.039-.011-.078-.004-.04-.004-.078 0-.04.004-.079.004-.04.011-.078.008-.038.02-.076.01-.037.026-.074.015-.036.033-.07t.04-.068.048-.063.052-.058M54.433 86.96q.028-.028.058-.053t.064-.047.067-.04.07-.034.075-.026.076-.02.078-.01q.039-.005.078-.005.04 0 .078.004.04.004.078.012.039.008.076.019.038.011.074.026t.071.034.067.04.064.047.058.053.052.058.047.063.04.067q.02.035.034.071.015.037.027.074l.019.076q.007.039.011.078.004.04.004.078 0 .04-.004.079t-.011.078q-.008.038-.02.076-.01.037-.026.074-.015.036-.033.07t-.04.068q-.023.033-.048.063t-.052.058-.058.053-.064.047q-.032.022-.067.04t-.07.034q-.037.015-.075.026-.037.011-.076.02-.038.007-.078.01-.039.004-.078.004-.04 0-.078-.003-.04-.004-.078-.012-.039-.008-.076-.019-.038-.011-.074-.026t-.071-.034-.067-.04-.064-.047-.058-.053-.052-.058-.047-.063-.04-.067q-.02-.035-.034-.071-.015-.037-.027-.074l-.019-.076q-.007-.039-.011-.078-.004-.04-.004-.079t.004-.078.011-.078.02-.076q.01-.037.026-.074.015-.036.033-.07t.04-.068q.023-.033.048-.063t.052-.058M86.96 54.433q.028-.028.058-.053t.063-.047.068-.04.07-.033q.037-.015.075-.027.037-.011.076-.019.038-.008.078-.012.039-.003.078-.003.04 0 .078.004.04.003.078.011t.076.019.074.027q.036.015.071.033t.067.04.063.047.059.053.052.058.047.063.04.067.034.072.027.073q.01.038.018.077.008.038.012.077.004.04.004.079t-.004.078-.012.078q-.007.038-.019.076-.011.038-.026.074t-.034.07-.04.068-.047.063-.052.058-.059.053-.063.047q-.032.022-.067.04t-.07.034q-.037.015-.075.026-.037.011-.076.02-.039.007-.078.01-.039.005-.078.005-.04 0-.078-.004-.04-.004-.078-.012-.039-.007-.076-.019-.038-.011-.074-.026t-.071-.034-.068-.04-.063-.047-.058-.053-.052-.058-.047-.063-.04-.067q-.02-.035-.034-.071-.015-.037-.027-.074-.011-.038-.019-.076-.007-.039-.011-.078-.004-.04-.004-.078 0-.04.004-.079t.011-.078q.008-.038.02-.076.01-.037.026-.074.015-.036.033-.07t.04-.068.048-.063.052-.058M54.434 21.907q.028-.028.059-.053t.062-.046.068-.041.07-.033.075-.027.076-.019.078-.011.078-.004.078.004q.04.004.078.011.039.008.076.02.038.01.074.026.036.015.071.033t.068.04.062.047.059.053.052.058.047.063.04.068q.02.034.034.07t.027.074q.01.038.018.077.008.038.012.077.004.04.004.079t-.004.078-.011.078-.02.076-.026.074-.033.07q-.019.035-.04.068-.023.033-.048.063t-.052.058-.059.053-.062.047-.068.04q-.035.019-.07.034-.037.015-.075.026-.037.012-.076.02-.038.007-.078.01-.039.005-.078.005-.04 0-.078-.004-.04-.004-.078-.012-.039-.007-.076-.019-.038-.011-.074-.026t-.071-.034-.068-.04-.062-.047q-.03-.025-.059-.053-.027-.027-.052-.058-.025-.03-.047-.063t-.04-.067q-.02-.035-.034-.071t-.027-.074l-.019-.076q-.007-.039-.011-.078-.004-.04-.004-.078 0-.04.004-.079t.012-.077q.007-.039.018-.077.012-.037.027-.073.015-.037.033-.071.019-.035.04-.068.023-.032.048-.063.025-.03.052-.058"/><path fill="#999" d="m76.596 72.53-5.892-5.893 7.07-7.07 5.893 5.892z"/><path fill="#7a7a7a" d="m84.08 65.871-7.071 7.071q-.02.02-.043.039-.022.018-.046.034t-.049.03-.052.024l-.053.02q-.028.008-.056.013-.028.006-.057.008-.028.003-.057.003l-.057-.002q-.028-.003-.057-.009-.028-.005-.055-.014-.028-.008-.054-.02-.027-.01-.052-.024-.025-.013-.049-.03-.024-.015-.046-.033t-.042-.039L70.29 67.05q-.02-.02-.038-.042t-.034-.047-.03-.049-.024-.051l-.02-.054q-.008-.028-.013-.056-.006-.028-.009-.056-.003-.029-.003-.058 0-.028.003-.057.003-.028.009-.056t.013-.056l.02-.054q.01-.026.024-.052t.03-.049q.016-.024.034-.046t.038-.042l7.071-7.071q.02-.02.043-.039.022-.018.046-.034t.049-.03.052-.024l.053-.019.056-.014.056-.008q.03-.003.058-.003t.057.003l.057.008q.028.006.055.014t.054.02q.026.01.052.024.025.013.049.03.024.015.046.033t.042.039l5.893 5.892q.02.02.038.043t.034.046.03.049q.013.025.024.052t.02.054.013.055.009.057.002.057l-.002.057q-.003.029-.009.057t-.014.055-.019.054-.024.052l-.03.05q-.016.023-.034.045t-.038.042m-7.484 5.834 6.246-6.246-5.067-5.068-6.246 6.246z"/><path fill="#999" d="m74.003 67.109-1.885-1.886 4.242-4.242 1.886 1.885z"/><path fill="#7a7a7a" d="m78.659 63.279-4.243 4.242q-.02.02-.043.039-.022.018-.045.034-.024.016-.05.03-.025.013-.051.024l-.054.019-.056.014q-.028.006-.056.008-.029.003-.057.003-.03 0-.058-.003l-.056-.008-.056-.014q-.027-.008-.054-.02-.026-.01-.052-.024-.025-.013-.049-.03-.023-.015-.046-.033-.022-.018-.042-.039l-1.886-1.885q-.02-.02-.038-.043t-.034-.046-.03-.049q-.013-.025-.024-.052t-.02-.054-.013-.055-.009-.057-.002-.057l.002-.057q.003-.028.009-.057.005-.028.014-.055.008-.028.019-.054.011-.027.024-.052t.03-.049.034-.046.038-.042l4.243-4.243q.02-.02.043-.039.022-.018.045-.033.024-.016.05-.03.025-.013.051-.024l.054-.02.056-.014.056-.008q.029-.003.057-.003.03 0 .058.003l.056.008.056.014.054.02q.026.01.052.024t.048.03.047.034q.022.018.042.038l1.886 1.886q.02.02.038.042t.034.046.03.05q.013.024.024.05t.02.055.013.055.009.057l.002.057q0 .029-.002.057-.003.029-.009.057t-.014.055-.019.054-.024.052l-.03.05q-.016.023-.034.045t-.038.043m-4.656 3.005 3.418-3.418-1.06-1.06-3.418 3.417z"/><path fill="#333" d="M79.66 65.695q.023-.024.049-.044.025-.021.052-.04.028-.018.057-.033.028-.016.059-.028t.061-.022.064-.016l.064-.01q.033-.003.066-.003t.065.004.065.01q.032.005.063.015.032.01.062.022.03.013.059.028t.056.034.053.039.048.044.044.048l.04.053.033.056q.015.029.028.059.012.03.022.061.01.032.016.064t.01.065q.002.032.002.065t-.003.065q-.003.033-.01.065-.006.032-.015.063-.01.032-.022.062l-.028.06q-.016.028-.034.055-.018.028-.039.053-.02.025-.044.048t-.048.044q-.026.021-.053.04-.027.018-.056.033t-.06.028l-.06.022q-.032.01-.064.016t-.065.01-.065.003q-.033 0-.066-.004-.032-.003-.064-.01-.033-.005-.064-.015t-.061-.022l-.06-.028-.056-.034q-.027-.018-.052-.039-.026-.02-.049-.044t-.044-.048q-.02-.025-.039-.053-.018-.027-.033-.056t-.028-.059-.022-.061-.016-.064-.01-.065-.003-.065.003-.065.01-.065.016-.063.022-.062q.012-.03.028-.06.015-.028.033-.055.019-.028.04-.053.02-.025.043-.048m-1.414 1.414q.023-.023.049-.044.025-.021.052-.04l.056-.033.06-.028q.03-.012.061-.022t.063-.016l.065-.01q.033-.003.065-.002.033 0 .066.003.032.003.065.01.032.006.063.015l.062.022q.03.013.059.028t.056.034.052.039.049.044.044.048l.039.053q.018.027.033.056t.028.059.023.062q.01.03.015.063.007.032.01.065.003.032.003.065t-.003.065q-.003.033-.01.065-.006.032-.015.064-.01.031-.023.061t-.027.06l-.034.056q-.018.027-.04.052-.02.025-.043.049-.023.023-.049.044-.025.02-.052.038-.027.019-.056.034t-.06.028-.061.022q-.031.01-.063.016l-.065.01q-.033.003-.065.003-.033 0-.066-.003l-.065-.01q-.032-.006-.063-.016l-.062-.022q-.03-.013-.059-.028t-.056-.033-.052-.04-.049-.043-.044-.049l-.039-.052q-.018-.028-.033-.057t-.028-.059-.022-.061q-.01-.032-.016-.064-.007-.032-.01-.064-.003-.033-.003-.066 0-.032.003-.065t.01-.065.016-.063.022-.062.027-.059q.016-.029.034-.056t.04-.053q.02-.025.043-.048m-1.414 1.414q.023-.023.048-.044l.053-.039q.027-.018.056-.034.029-.015.06-.027t.06-.023.064-.015.065-.01.065-.003.066.003q.032.003.064.01.033.006.064.015.031.01.061.022l.06.028.056.034q.027.018.052.04.026.02.049.043t.044.049l.039.052q.018.027.033.056t.028.06.022.06.016.064l.01.065q.003.033.003.065 0 .033-.003.066-.003.032-.01.064-.006.033-.016.064l-.022.062q-.012.03-.028.059-.015.028-.033.056-.019.027-.04.052-.02.026-.043.049t-.049.044l-.052.039q-.028.018-.057.033-.028.016-.058.028t-.062.022-.064.016q-.032.007-.064.01-.033.003-.066.003t-.065-.003-.065-.01-.063-.016-.062-.022-.059-.028-.056-.033-.053-.04q-.025-.02-.048-.043t-.044-.049l-.04-.052-.033-.056-.028-.06q-.012-.03-.022-.061t-.016-.064l-.01-.064-.002-.066q0-.032.003-.065t.01-.065.015-.063.022-.062.028-.059q.016-.029.034-.056t.039-.053q.02-.025.044-.048m1.414-4.243q.023-.023.049-.044l.052-.039q.027-.018.056-.033t.06-.028.061-.022q.031-.01.063-.016.033-.007.065-.01.033-.003.065-.003.033 0 .066.003l.065.01q.032.006.063.016l.062.022q.03.012.059.028.029.015.056.033t.052.04.049.043.044.049l.039.052q.018.028.033.056.016.03.028.06t.023.061.015.064q.007.032.01.064.003.033.003.066 0 .032-.003.065t-.01.065-.015.063-.023.062-.027.059q-.016.029-.034.056t-.04.053q-.02.025-.043.048t-.049.044l-.052.039q-.027.018-.056.034l-.06.028q-.03.012-.061.022t-.063.016l-.065.01q-.033.003-.065.002-.033 0-.066-.003-.032-.003-.065-.01-.032-.006-.063-.015l-.062-.022q-.03-.013-.059-.028t-.056-.034-.052-.039-.049-.044-.044-.048l-.039-.053q-.018-.027-.033-.056t-.028-.06-.022-.06-.016-.064-.01-.065-.003-.065.003-.066.01-.064q.006-.033.016-.064t.022-.061.027-.06l.034-.056q.018-.027.04-.052.02-.026.043-.049m-1.414 1.415q.023-.024.048-.044.026-.021.053-.04.027-.018.056-.033t.06-.028l.06-.022q.032-.01.064-.016t.065-.01.065-.003q.033 0 .066.004.032.003.064.01.033.005.064.015t.061.022l.06.028.056.034q.027.018.052.039.026.02.049.044t.044.048q.02.025.039.053.018.027.033.056t.028.059.022.061.016.064.01.065.003.065-.003.065-.01.065-.016.063-.022.062q-.012.03-.028.06-.015.028-.033.055-.019.028-.04.053-.02.025-.043.048t-.049.044-.052.04-.057.033-.058.028-.062.022-.064.016l-.064.01q-.033.003-.066.003t-.065-.004-.065-.01q-.032-.005-.063-.015-.032-.01-.062-.022-.03-.013-.059-.028t-.056-.034-.053-.039-.048-.044-.044-.048l-.04-.053-.033-.056q-.015-.029-.028-.059-.012-.03-.022-.061-.01-.032-.016-.064t-.01-.065q-.002-.032-.002-.065t.003-.065q.003-.033.01-.065.006-.032.015-.063.01-.032.022-.062l.028-.06q.016-.028.034-.055.018-.028.039-.053.02-.025.044-.048m-1.414 1.414q.023-.023.048-.044t.053-.04l.056-.033q.029-.015.059-.028.03-.012.062-.022.03-.01.063-.016.032-.006.065-.01.032-.003.065-.002.033 0 .065.003.033.003.065.01.032.006.064.015l.061.022.06.028.056.034q.027.018.052.039.025.02.048.044.024.023.044.048.021.026.04.053l.033.056q.015.029.028.059.012.03.022.062.01.03.016.063.006.032.01.065.003.032.003.065t-.003.065q-.004.033-.01.065l-.016.064q-.01.031-.022.061t-.028.06-.034.056q-.018.027-.039.052-.02.025-.044.049-.023.023-.048.044t-.052.038-.057.034-.059.028-.061.022-.064.016-.065.01q-.032.003-.065.003t-.065-.003-.065-.01-.063-.016q-.032-.01-.062-.022l-.06-.028q-.028-.015-.055-.033-.028-.019-.053-.04-.025-.02-.048-.043-.023-.024-.044-.049t-.04-.052l-.033-.057q-.015-.029-.028-.059-.012-.03-.022-.061-.01-.032-.016-.064l-.01-.064q-.003-.033-.003-.066 0-.032.004-.065.003-.033.01-.065.006-.032.015-.063.01-.032.022-.062.013-.03.028-.059t.034-.056.039-.053.044-.048"/><path fill="#7a7a7a" d="m64.958 82.282-4.95-4.95q-.02-.02-.038-.042t-.034-.046-.03-.05q-.013-.024-.024-.05l-.02-.055-.013-.055q-.006-.028-.008-.057-.003-.028-.003-.057t.003-.057.008-.057.014-.055q.008-.028.02-.054.01-.027.024-.052.013-.025.03-.05.015-.023.033-.045t.039-.043.042-.038q.022-.018.046-.034t.05-.03q.024-.013.05-.024t.055-.02.055-.013q.028-.006.057-.009l.057-.002q.029 0 .057.002.029.003.057.009t.055.014.054.019q.027.01.052.024l.05.03q.023.016.045.034t.043.038l4.95 4.95q.02.02.038.043t.034.046.03.049.024.051l.02.054.013.056q.006.028.008.056.003.029.003.058 0 .028-.003.057-.002.028-.008.056-.006.029-.014.056t-.02.054q-.01.026-.024.052-.013.025-.03.049-.015.024-.033.046t-.039.042-.042.039q-.022.018-.046.034t-.05.03q-.024.013-.05.024l-.055.019q-.027.008-.055.014-.028.005-.057.008-.028.003-.057.003t-.057-.003-.057-.008-.055-.014q-.028-.008-.054-.02-.027-.01-.052-.024-.025-.013-.05-.03-.023-.015-.045-.033zm3.654-13.553 4.95 4.95q.02.02.038.042l.034.046q.016.024.03.05.013.025.024.051l.02.054q.008.028.013.056.006.028.009.056l.002.057q0 .03-.002.058-.003.028-.009.056t-.014.056-.019.054-.025.051-.029.05l-.034.046q-.018.022-.038.042t-.043.038-.046.034-.049.03-.052.024-.054.02-.055.014-.057.008-.057.003-.057-.003-.057-.008-.055-.014-.054-.02-.052-.024-.049-.03-.046-.034-.042-.038l-4.95-4.95q-.02-.02-.039-.042-.018-.022-.034-.046t-.03-.05-.024-.051l-.019-.054q-.008-.027-.014-.055l-.008-.057q-.003-.029-.003-.057 0-.029.003-.057.003-.029.008-.057l.014-.056q.008-.027.02-.054.01-.026.024-.051.013-.026.03-.05.015-.023.033-.045l.039-.043q.02-.02.042-.038t.046-.034.05-.03.051-.024l.054-.02q.027-.008.055-.013.029-.006.057-.009.029-.003.057-.003.029 0 .057.003.029.003.057.009t.056.014.054.019.051.024.05.03.045.034.043.038"/><path fill="#e5e5e5" d="M63.78 75.918q.032-.032.065-.062t.068-.059l.071-.055q.036-.027.074-.052.037-.025.076-.048.038-.023.078-.044.04-.022.08-.04.041-.02.083-.037l.084-.033q.042-.015.085-.028t.087-.024l.088-.02.088-.015q.045-.007.09-.011l.09-.007q.044-.002.09-.002l.09.002.089.007q.045.004.09.011l.088.015.088.02.086.024q.044.013.086.028l.084.033.082.036.08.04.079.045.076.048q.037.025.073.052.037.027.071.055.035.029.068.06.034.03.066.061l.062.065.058.068q.029.035.056.071l.052.074q.025.037.048.076l.044.078.04.08q.02.041.037.083l.032.084q.016.042.029.085t.024.087l.02.088.015.089q.006.044.01.089.005.045.007.09.003.044.003.09 0 .045-.003.09l-.006.09-.011.089-.016.088q-.008.044-.02.088-.01.044-.023.087t-.029.085-.032.084q-.017.042-.036.082l-.04.08-.045.079q-.023.039-.048.076l-.052.074q-.027.036-.056.07-.028.035-.058.069-.03.033-.062.065t-.066.062-.068.059-.07.055l-.074.052-.076.048q-.039.023-.079.044-.04.022-.08.04-.04.02-.082.037-.042.018-.084.033t-.086.028l-.086.024-.088.02-.089.015q-.044.007-.089.011l-.09.007-.09.002-.09-.002-.09-.007q-.044-.004-.089-.011l-.088-.015-.088-.02q-.044-.011-.087-.024t-.085-.028-.084-.033-.083-.036l-.08-.04-.078-.045q-.039-.023-.076-.048-.038-.025-.074-.052t-.07-.055-.069-.06l-.065-.061q-.032-.032-.062-.065l-.059-.068-.055-.071-.052-.074q-.025-.037-.048-.076l-.045-.078-.04-.08q-.02-.041-.037-.083-.017-.041-.032-.084-.015-.042-.028-.085t-.024-.087l-.02-.088q-.009-.044-.015-.088-.007-.045-.011-.09-.005-.045-.007-.09-.002-.044-.002-.09l.002-.09q.002-.044.007-.09l.01-.088.016-.09.02-.087q.01-.044.024-.087.013-.043.028-.085l.032-.084.037-.082.04-.08.045-.079q.023-.039.048-.076l.052-.074q.027-.036.055-.07l.059-.069q.03-.033.062-.065m3.418-3.418q.031-.031.065-.062.033-.03.068-.058l.07-.056.074-.052.076-.048q.039-.023.079-.044l.08-.04q.04-.02.082-.037l.084-.032.086-.029.086-.024.088-.02.089-.015q.044-.006.09-.01.044-.005.089-.007.045-.003.09-.003t.09.003l.09.006.089.011.089.016q.044.009.087.02.044.01.087.023l.086.029.084.032q.041.017.082.037l.08.04q.04.021.078.044.04.023.076.048.038.025.074.052t.071.056.068.058.065.062.062.066l.06.068.054.07.052.074.048.076q.024.039.045.079l.04.08q.02.04.037.082l.032.084.028.086.024.086.02.088q.009.044.015.089.007.044.011.09.005.044.007.089l.002.09-.002.09q-.002.045-.007.09l-.01.089-.016.089q-.009.044-.02.087-.01.044-.024.087-.013.043-.028.085t-.032.084l-.037.083-.04.08q-.021.04-.045.078-.023.039-.048.076-.025.038-.052.074t-.055.07-.059.069-.062.065-.065.062-.068.059-.07.055-.075.052-.076.048l-.078.045-.08.04q-.04.02-.082.037l-.084.032-.086.028q-.043.013-.087.024-.043.011-.087.02-.045.009-.09.015-.044.007-.088.011-.045.005-.09.007l-.09.002-.09-.002q-.045-.002-.09-.007l-.09-.01-.088-.016-.088-.02q-.043-.01-.086-.024l-.086-.028-.084-.032-.082-.037-.08-.04-.079-.045-.076-.048q-.037-.025-.073-.052t-.071-.055-.068-.059-.065-.062-.062-.065l-.06-.068-.055-.071-.051-.074-.049-.076q-.023-.038-.044-.078l-.04-.08q-.02-.041-.037-.083-.017-.041-.032-.084-.015-.042-.028-.085t-.024-.087-.02-.087l-.016-.09-.01-.088q-.005-.045-.007-.09l-.002-.09.002-.09.006-.09.011-.09.016-.088.02-.088q.01-.043.024-.086l.028-.086.032-.084q.017-.041.037-.082l.04-.08q.021-.04.044-.079l.049-.076.051-.073q.027-.036.056-.071.028-.035.059-.068.03-.034.062-.066"/><path fill="#333" d="M63.544 75.682q.635-.634 1.532-.634.898 0 1.532.634.635.635.635 1.533t-.635 1.532-1.532.634-1.532-.634-.634-1.532.634-1.533m.472.472q-.44.44-.44 1.06 0 .622.44 1.061.439.44 1.06.44.622 0 1.06-.44.44-.44.44-1.06 0-.622-.44-1.061-.438-.44-1.06-.44-.621 0-1.06.44m2.946-3.89q.634-.634 1.532-.634.897 0 1.532.635.635.634.635 1.532 0 .897-.635 1.532t-1.532.635-1.532-.635-.635-1.532.635-1.532m.471.472q-.44.44-.44 1.06 0 .622.44 1.061.44.44 1.06.44.622 0 1.062-.44.439-.439.439-1.06t-.44-1.06q-.439-.44-1.06-.44t-1.06.44"/><path fill="red" d="m65.161 76.893.983.258q.032.008.062.023t.055.034.048.044.038.053.028.06q.01.03.015.063t.002.066-.01.064-.023.061q-.014.03-.034.056t-.044.048-.053.038-.06.028q-.03.01-.063.015t-.066.002-.064-.01l-.983-.259q-.032-.008-.062-.022-.03-.015-.055-.035-.027-.02-.048-.044-.022-.025-.039-.053-.016-.028-.027-.06-.01-.03-.015-.063t-.002-.065q.002-.033.01-.065t.023-.061.034-.056.044-.048.053-.038.06-.027q.03-.01.063-.015t.066-.003.064.01"/><path fill="red" d="m68.801 73.927-.395.936q-.013.03-.031.058-.019.027-.042.05t-.05.041-.059.03-.062.02q-.033.005-.065.005-.033 0-.065-.007-.033-.006-.063-.019t-.057-.031q-.027-.019-.05-.042t-.042-.05-.03-.059-.019-.062-.006-.065.007-.065.02-.063l.395-.936q.013-.03.031-.058.018-.027.042-.05.023-.023.05-.041t.058-.03.063-.02q.032-.005.065-.005t.065.007q.032.006.063.02.03.012.057.03.027.019.05.042t.041.05.03.059.02.062.005.065-.007.065-.019.063"/><path fill="#999" d="M25.066 64.663 14.93 54.528l10.135-10.135L35.2 54.528z"/><path fill="#7a7a7a" d="M35.614 54.94 25.478 65.077q-.02.02-.042.038t-.046.034-.05.03q-.024.013-.05.024t-.055.02-.055.013-.057.009q-.029.003-.057.003-.029 0-.057-.003-.029-.003-.057-.009t-.055-.013-.054-.02-.052-.024l-.05-.03q-.023-.016-.045-.034t-.043-.038L14.518 54.94q-.02-.02-.038-.043t-.034-.046-.03-.049-.024-.052-.02-.053-.013-.056-.009-.057-.003-.057.003-.057.009-.057.014-.055.019-.054.024-.052.03-.049.034-.046.038-.042L24.653 43.98q.02-.02.043-.039.022-.018.046-.034.023-.016.049-.03.025-.013.052-.024l.054-.02q.027-.008.055-.013.028-.006.057-.009.028-.002.057-.002.028 0 .057.003.028.002.057.008.028.005.055.014.028.008.054.019.027.011.052.025.025.013.049.03.024.015.046.033t.042.039l10.136 10.135q.02.02.038.042t.034.046.03.05q.013.024.024.051l.02.054q.008.027.013.055.006.029.009.057l.002.057q0 .029-.002.057-.003.029-.009.057t-.014.055-.019.054-.024.052-.03.05-.034.045-.038.043m-10.548 8.898 9.31-9.31-9.31-9.31-9.31 9.31z"/><path fill="#7a7a7a" d="M58.594 78.747 31.253 51.405q-.02-.02-.039-.042-.018-.022-.033-.046-.017-.024-.03-.05l-.025-.051-.019-.054q-.008-.027-.014-.055l-.008-.057q-.003-.029-.003-.057 0-.029.003-.058l.008-.056.014-.056.02-.054q.01-.026.024-.051.013-.026.03-.05.015-.023.033-.046.019-.022.039-.042l19.328-19.327q.02-.02.042-.039.022-.018.046-.034t.049-.03.052-.024l.054-.019q.027-.009.055-.014.029-.006.057-.008.029-.003.057-.003.029 0 .057.003.029.002.057.008.028.005.055.014.028.008.054.02.027.01.052.024.025.013.05.03.023.015.045.033t.043.039l27.341 27.341q.02.02.039.042.018.023.033.047.017.023.03.048.014.026.024.052l.02.054.014.056.008.056q.003.029.003.058 0 .028-.003.057l-.008.056-.014.056-.02.054q-.01.026-.024.052-.013.025-.03.049-.015.023-.033.045-.019.023-.039.043L59.419 78.747q-.02.02-.042.038t-.046.034-.05.03q-.024.013-.05.024t-.055.02-.055.013q-.028.006-.057.009-.028.002-.057.002t-.057-.002-.057-.009-.055-.014q-.028-.008-.054-.019-.027-.01-.052-.024l-.05-.03q-.023-.016-.045-.034t-.043-.038m.825-.825-.412.412-.413-.412 19.328-19.328.412.413-.412.412-27.341-27.341.412-.413.413.413-19.328 19.327-.412-.412.412-.413zM20.882 50.344q1.733-1.732 4.184-1.732t4.184 1.732 1.732 4.184q0 2.451-1.732 4.184-1.733 1.733-4.184 1.733t-4.184-1.733-1.733-4.184 1.733-4.184m.825.825q-1.391 1.392-1.391 3.36t1.391 3.358 3.359 1.391 3.359-1.391 1.39-3.359-1.39-3.359-3.36-1.39-3.358 1.39"/><path d="M22.709 52.171q.058-.058.118-.113t.124-.107q.063-.051.13-.1.065-.049.133-.094.068-.046.138-.088t.143-.08.146-.074.15-.066.152-.06.155-.05.158-.044.16-.036.16-.028.163-.02q.082-.008.163-.012.082-.004.164-.004t.163.004.164.012.162.02.161.028.16.036.157.043.156.052.152.059.15.066q.074.035.146.073.072.039.142.081t.139.088.134.094.129.1.123.107.119.113.113.119.107.124.1.128.094.134.088.139.08.142.074.146.066.15.06.152.05.156.044.157.036.16.028.161.02.162q.008.082.012.164.004.081.004.163t-.004.164-.012.163-.02.162-.028.162-.036.16-.043.157-.052.155-.059.153-.066.15q-.035.073-.074.145-.038.073-.08.143t-.088.138-.094.134-.1.129-.107.124-.113.118-.119.113-.123.107-.13.1-.133.095-.139.087-.142.08q-.072.04-.146.074-.074.036-.15.067-.075.031-.152.059t-.156.051-.157.044-.16.036-.161.027-.162.02-.163.013q-.082.004-.164.004t-.164-.004-.163-.013-.162-.02-.161-.027-.16-.036-.158-.044-.155-.051-.153-.06q-.075-.03-.15-.065-.073-.035-.145-.074-.073-.039-.143-.08-.07-.043-.138-.088-.068-.046-.134-.095-.066-.048-.129-.1t-.124-.107-.118-.113-.113-.118-.107-.124-.1-.13q-.05-.065-.095-.133t-.087-.138-.08-.143q-.04-.072-.074-.146-.035-.074-.067-.15-.031-.075-.059-.152t-.051-.155-.044-.158-.036-.16-.027-.16-.02-.163q-.009-.082-.013-.163-.003-.082-.003-.164t.003-.163.013-.164.02-.162q.012-.08.027-.161l.036-.16q.02-.079.044-.157.024-.079.051-.156.028-.077.06-.152.03-.076.066-.15.035-.074.073-.146.039-.072.08-.142.043-.07.088-.139.046-.068.094-.134.05-.065.101-.128.052-.064.107-.124.055-.061.113-.119"/><path fill="#7a7a7a" d="M22.296 51.759q1.148-1.147 2.77-1.148t2.77 1.148q1.147 1.147 1.147 2.77t-1.148 2.769-2.769 1.147-2.77-1.147-1.147-2.77 1.147-2.77m.825.825q-.805.805-.805 1.944 0 1.14.805 1.945.806.805 1.945.805t1.944-.805.806-1.945-.806-1.944-1.944-.806-1.945.806"/></g></svg>