<svg xmlns="http://www.w3.org/2000/svg" viewBox="0 0 110 110"><clipPath id="a"><rect width="91.667" height="91.667" x="9.167" y="9.167" rx="4.167" ry="4.167"/></clipPath><g clip-path="url(#a)"><path fill="none" stroke="#333" stroke-linecap="round" stroke-linejoin="round" stroke-width="4.167" d="M55 55q6.514 19.334 3.335 28.975"/><path fill="none" stroke="#333" stroke-linecap="round" stroke-linejoin="round" stroke-width="4.167" d="M55 55q-6.829 13.384-16.115 24.31"/><path fill="none" stroke="#333" stroke-linecap="round" stroke-linejoin="round" stroke-width="4.167" d="M55 55q-19.334-6.514-28.975-3.335"/><path fill="none" stroke="#333" stroke-linecap="round" stroke-linejoin="round" stroke-width="4.167" d="M55 55q19.334 6.514 28.975 3.335"/><path fill="none" stroke="#333" stroke-linecap="round" stroke-linejoin="round" stroke-width="4.167" d="M55 55q6.829-13.384 16.115-24.31"/><path fill="none" stroke="#333" stroke-linecap="round" stroke-linejoin="round" stroke-width="4.167" d="M55 55q-6.514-19.334-3.335-28.975"/><path fill="#333" d="M73.586 74.54c2.15 2.335 5.297 5.173 10.856 9.902-4.73-5.559-7.567-8.706-9.902-10.856S71.417 71.084 71.001 71c.083.415.434 1.204 2.585 3.54"/><path fill="#333" d="M74.642 73.568q2.77 3.008 10.73 9.78l-.93 1.094-1.093.93q-6.772-7.96-9.78-10.73-2.309-2.125-2.85-2.233L71.002 71l1.408-.281q.108.54 2.233 2.848.048.052.09.108.043.056.08.117.036.06.067.123.03.064.055.13.024.066.042.134.017.069.028.138.011.07.015.14t.001.141-.013.14-.026.139-.04.135-.053.13-.065.125-.077.118-.089.11-.099.1-.108.09q-.056.043-.116.08-.06.036-.124.067-.064.03-.13.055-.066.024-.134.042-.069.017-.138.028-.07.011-.14.015t-.141.001-.14-.012-.139-.027-.135-.04-.13-.052-.125-.066-.118-.077-.11-.089-.1-.098q-2.67-2.9-2.936-4.23-.056-.282 0-.563.014-.07.034-.137t.048-.133.06-.127.073-.12q.039-.06.084-.114t.094-.104q.05-.05.105-.094.054-.045.113-.084t.121-.072.127-.06q.066-.028.133-.048.068-.02.137-.034t.14-.02.14-.007.14.007.14.02q1.33.267 4.23 2.937 3.137 2.889 10.023 10.982.082.097.146.206.064.11.108.229.043.119.066.243.022.125.022.252t-.022.252-.067.244-.107.228-.146.206q-.046.054-.097.103-.05.049-.106.093-.055.043-.114.082-.06.038-.123.07-.062.032-.128.058t-.133.045-.138.032q-.069.012-.14.018-.07.006-.14.004-.07 0-.14-.01-.07-.007-.14-.022-.069-.015-.136-.037t-.131-.05-.127-.062-.12-.075-.11-.086q-8.094-6.885-10.983-10.022-.048-.052-.09-.109-.043-.056-.08-.116-.036-.06-.067-.124-.03-.063-.055-.13-.024-.066-.042-.134-.017-.068-.028-.138t-.015-.14-.001-.141.012-.14.027-.139.04-.135.053-.13.065-.125.077-.118.089-.11.099-.1.108-.09.116-.08q.06-.036.124-.067.064-.03.13-.054.066-.025.134-.042t.138-.029q.07-.01.14-.015t.141-.001.14.013.139.026q.068.017.135.04t.13.053.125.065q.06.036.118.078.057.041.11.088.052.047.1.099"/><path d="M72.458 67.632q10.132 2.664 17.716 3.364-10.076 2.529-17.716-3.364m-4.826 4.826q2.664 10.132 3.364 17.716 2.529-10.076-3.364-17.716"/><path fill="#333" d="M72.823 66.244q10.017 2.634 17.483 3.323.07.006.14.02.069.013.137.033.067.02.133.047.065.026.127.06.063.032.122.07.058.04.113.084t.105.094.095.104.085.112q.04.059.073.12.034.063.061.128.028.065.048.132.021.067.035.137.015.069.022.139t.008.14-.006.141q-.01.11-.037.218-.027.107-.07.21-.044.102-.102.196-.059.094-.13.178-.073.084-.157.156t-.178.13q-.095.06-.197.102-.102.043-.21.07-10.75 2.698-18.942-3.62-.055-.042-.107-.09-.051-.05-.098-.102-.046-.053-.087-.11-.04-.058-.076-.12-.035-.06-.064-.125-.029-.064-.051-.131-.023-.067-.039-.136-.016-.068-.025-.138t-.01-.14q-.003-.071.002-.141t.016-.14.03-.138.044-.134.056-.13q.031-.062.069-.122.037-.06.08-.116.043-.055.092-.107.048-.051.101-.098.053-.046.11-.087.058-.04.12-.076.06-.035.125-.064.064-.029.13-.051.068-.023.136-.039.07-.016.139-.025.07-.009.14-.01.071-.003.141.002t.14.016.138.03.134.044.129.056.123.069.116.08q7.089 5.468 16.49 3.109l.35 1.392-.133 1.43q-7.702-.712-17.95-3.406-.067-.018-.133-.042-.067-.025-.13-.056-.063-.03-.123-.068-.06-.036-.117-.08-.056-.042-.107-.09-.052-.048-.099-.1t-.088-.11-.077-.118-.065-.126-.052-.13-.04-.135q-.016-.07-.025-.139-.01-.07-.012-.14-.003-.07.001-.141t.016-.14.029-.138.042-.134.056-.13q.03-.063.067-.123t.08-.116q.043-.057.09-.108.049-.052.101-.099t.11-.088q.057-.041.118-.077t.125-.065.131-.052.135-.04.139-.025.14-.012.141.001.14.016q.07.01.138.029m-3.803 5.849q2.695 10.246 3.406 17.95l-1.43.131-1.392-.35q2.36-9.4-3.108-16.49-.044-.055-.08-.115-.038-.06-.07-.123-.031-.063-.056-.13-.025-.065-.043-.133-.019-.068-.03-.138-.012-.07-.017-.14t-.003-.14q.003-.071.012-.141t.024-.139.039-.135.051-.131.064-.126.076-.118.088-.111.097-.102.108-.09q.055-.044.115-.081t.123-.069.13-.056q.065-.025.133-.044t.138-.03.14-.016.14-.003.141.011q.07.01.139.025.068.016.135.038.067.023.131.052.065.029.126.064t.118.076q.058.04.111.087t.101.098.092.107q6.317 8.191 3.62 18.943-.027.107-.07.21-.044.101-.102.195-.058.095-.13.179t-.157.156-.178.13q-.094.059-.196.102t-.21.07-.218.038q-.07.006-.14.006t-.141-.008-.14-.022q-.068-.014-.136-.035-.067-.02-.132-.048-.065-.027-.127-.061t-.12-.073-.113-.085-.104-.095-.094-.105-.083-.114-.072-.12-.06-.129-.046-.133-.033-.136-.02-.14q-.69-7.466-3.323-17.483-.018-.068-.03-.138-.01-.07-.015-.14t-.001-.14q.002-.071.012-.141t.026-.139.04-.135q.022-.067.052-.13.029-.065.064-.126.036-.06.077-.118.042-.057.088-.11.047-.053.099-.1.052-.049.108-.091.056-.043.116-.08t.123-.068q.064-.03.13-.055t.134-.043.138-.029.14-.015.14-.002.141.012q.07.01.139.026.068.017.135.04t.13.052q.065.03.126.065.06.036.118.077t.11.088.1.098.091.108q.043.056.08.116t.068.124q.03.063.055.13.024.065.042.134"/><path fill="#716a6e" d="M66.547 40.13C56.22 28.218 43.004 27.375 35.19 35.19s-6.971 21.031 4.938 31.356c14.002 12.138 28.835 14.823 35.038 8.62 6.202-6.202 3.517-21.036-8.62-35.037"/><path fill="#5a5558" d="M65.045 41.431q-7.036-8.115-15.374-9.197-7.713-1-13.075 4.362T32.235 49.67q1.081 8.338 9.196 15.374 9.86 8.547 19.581 10.75 8.735 1.98 12.75-2.034 4.014-4.014 2.034-12.75-2.204-9.72-10.751-19.58-.064-.074-.12-.153-.057-.08-.105-.165-.049-.085-.088-.174-.04-.09-.071-.182t-.053-.188-.033-.192q-.013-.097-.015-.194-.003-.098.004-.195.007-.098.024-.194.016-.096.042-.19t.06-.186.08-.178q.043-.087.095-.17t.112-.16.127-.148q.067-.07.14-.135.075-.064.154-.12.08-.056.165-.105t.174-.088.182-.07.187-.053.192-.034.195-.015.195.005.194.023.19.042.185.061.179.079.17.095.16.112.148.127q.07.067.134.141 9.2 10.613 11.625 21.306 2.464 10.874-3.1 16.439-5.566 5.565-16.44 3.1-10.693-2.424-21.306-11.624-9.258-8.027-10.534-17.866-1.252-9.652 5.492-16.397 6.745-6.745 16.397-5.493 9.839 1.276 17.866 10.535.064.074.12.154.057.08.105.164.049.085.089.174.04.09.07.182.031.093.053.188t.034.192.014.194-.004.195-.023.194-.043.19-.06.186-.079.178-.096.17-.111.16-.127.148-.141.135-.154.12-.164.105-.174.088-.182.07-.188.053-.192.034-.195.015-.195-.004-.193-.024-.19-.042-.186-.06-.179-.08-.17-.095-.16-.112q-.076-.06-.147-.127t-.135-.141"/><path d="M41.443 34.528Q33.705 19.858 29.7 8.924q.54 14.4 11.743 25.604m-6.915 6.915Q19.858 33.704 8.924 29.7q14.4.539 25.604 11.743"/><path fill="#333" d="M40.174 35.197Q32.39 20.442 28.352 9.417l1.348-.493 1.434-.054q.519 13.837 11.324 24.643.05.05.095.104.045.055.084.113t.072.121.06.127.048.133q.02.067.034.137.014.069.021.139t.007.14-.007.141-.02.14-.035.136-.047.133-.06.127-.073.121q-.04.059-.084.113t-.095.105-.104.094-.113.084-.12.072q-.063.034-.128.06-.065.028-.133.048-.067.02-.136.034-.07.014-.14.021t-.14.007-.141-.007-.14-.02-.136-.035q-.068-.02-.133-.047t-.127-.06-.121-.073-.113-.084-.104-.094Q28.826 23.94 28.266 8.978q-.004-.113.01-.225.013-.112.044-.221.03-.11.078-.212.047-.102.11-.196t.14-.177.166-.152q.089-.07.188-.125.098-.055.205-.094.065-.024.134-.042.069-.017.138-.028.07-.01.14-.015t.141 0q.07.002.14.012t.138.026.136.04.13.053.125.065.118.078q.056.041.11.088.052.047.1.1.047.05.09.107t.079.117.067.124.055.13q3.971 10.842 11.665 25.427.033.062.06.127.026.066.046.133.02.068.034.137.013.07.02.14.006.07.006.14t-.008.141-.021.14q-.014.068-.035.136-.021.067-.048.132-.028.065-.061.127-.034.062-.073.12-.04.059-.085.113t-.095.104-.105.094-.114.083q-.058.04-.12.072-.063.033-.128.06-.066.026-.133.046-.068.02-.137.034-.07.013-.14.02-.07.006-.14.006t-.14-.008q-.071-.007-.14-.021t-.137-.035-.132-.048-.127-.061q-.062-.034-.12-.073-.059-.04-.113-.085t-.104-.095-.094-.105-.083-.113-.072-.122m-6.316 7.516Q19.274 35.019 8.431 31.048q-.067-.025-.13-.055t-.124-.067-.117-.08-.107-.09-.1-.1-.088-.11-.078-.118q-.035-.06-.065-.124t-.053-.13-.04-.136q-.016-.068-.026-.138t-.013-.14.001-.141.015-.14.029-.138.042-.135q.038-.106.093-.205t.125-.187q.07-.09.153-.166t.177-.14q.093-.063.196-.11.102-.048.211-.079.109-.03.221-.044t.225-.01q14.962.56 26.565 12.163.05.05.094.105.045.054.084.113.04.058.073.12.033.063.06.128t.047.133q.02.067.035.136.013.07.02.14t.007.14-.007.141-.02.14-.035.136-.047.133-.06.127-.073.12q-.039.06-.084.114-.044.054-.094.104t-.105.095-.113.084-.12.072q-.063.033-.128.06t-.133.048q-.067.02-.136.034-.07.014-.14.02-.07.008-.14.008t-.14-.007-.14-.02q-.07-.015-.137-.035t-.132-.048q-.066-.027-.128-.06t-.12-.072-.114-.084-.104-.095Q22.707 31.652 8.87 31.134l.053-1.434.494-1.348q11.024 4.038 25.78 11.822.062.033.12.071.06.04.114.084t.105.094q.05.05.095.104t.085.112.073.12q.034.063.061.128t.048.132.035.137.022.139.007.14-.006.141-.02.14-.033.137-.047.132-.06.128-.071.121q-.04.06-.084.114t-.094.105q-.05.05-.104.095t-.112.084-.12.074q-.063.033-.128.06-.065.028-.132.049-.067.02-.136.035-.07.014-.14.021t-.14.008q-.07 0-.141-.006-.07-.007-.14-.02-.069-.014-.136-.034-.068-.02-.133-.047-.066-.026-.128-.06"/><path fill="#5a5558" d="M70.984 61.335q-1.606.41-2.314.796-.835.457-3.458 3.08t-3.08 3.46q-.388.708-.796 2.312-.024.095-.057.187t-.075.18-.093.171-.109.162-.124.15q-.066.073-.138.138t-.152.123-.162.108-.172.091-.18.074q-.093.033-.188.056-.094.024-.191.038t-.194.018-.195 0-.194-.02-.192-.039q-.094-.024-.186-.057t-.18-.075-.172-.093q-.083-.05-.161-.109-.079-.058-.15-.124-.073-.066-.138-.138t-.124-.151q-.057-.08-.107-.163-.05-.084-.092-.172-.041-.089-.074-.18-.032-.093-.056-.188-.023-.094-.037-.191t-.019-.194q-.004-.098.001-.195.005-.098.02-.194.014-.097.038-.191.532-2.094 1.161-3.242.73-1.336 3.757-4.362 3.026-3.026 4.363-3.758 1.147-.627 3.239-1.16.095-.024.191-.039.097-.015.194-.02.098-.005.195 0 .098.004.194.018.097.014.192.037t.187.056.18.074.173.091q.083.05.162.108t.151.123q.073.065.139.137t.124.15q.059.079.11.162.05.084.092.172t.075.18.058.186.038.192q.015.096.02.194.005.097.001.195-.004.097-.018.194-.014.096-.038.191-.023.095-.056.187-.032.092-.073.18-.042.089-.092.173t-.107.163q-.058.078-.124.15-.065.073-.137.14-.072.065-.15.124t-.162.109-.172.092-.18.076-.186.057M52.841 37.239q-.557 1.946-1.46 3.53-1.315 2.303-4.812 5.8-3.493 3.493-5.8 4.81-1.583.905-3.53 1.462-.093.026-.19.044-.095.018-.193.026-.097.008-.195.006-.097-.001-.194-.013-.097-.01-.193-.031-.095-.02-.188-.05t-.183-.07-.175-.085-.165-.103-.155-.119-.143-.133-.128-.147-.114-.158-.098-.169q-.044-.087-.08-.178-.036-.09-.063-.184t-.044-.19-.026-.193-.006-.195q0-.098.012-.195.011-.097.032-.193.02-.095.05-.188t.069-.183.086-.174.103-.166.118-.155.134-.142.146-.13q.077-.06.159-.113t.169-.098q.086-.044.177-.08.09-.036.185-.063 1.485-.425 2.652-1.09 1.844-1.054 4.96-4.17 3.12-3.12 4.17-4.96.666-1.168 1.091-2.653.027-.094.063-.185.036-.09.08-.178.045-.087.098-.169t.114-.158.129-.147.142-.133.155-.118.166-.103.175-.086q.09-.04.182-.07.093-.029.189-.05.095-.02.192-.031t.195-.013.195.007.193.025.19.045.185.063.177.08q.087.045.17.098.081.053.158.113.076.061.146.13.07.067.133.142.064.074.119.154.056.08.103.166.047.085.086.175t.069.183.05.188.032.193.012.194-.006.195-.026.194-.044.19M44.015 59.9q1.63-.726 2.712-1.525 1.594-1.176 6.033-5.615t5.614-6.032q.8-1.083 1.527-2.713.04-.09.088-.174.048-.085.104-.165.057-.08.12-.154.064-.073.135-.14t.148-.128.16-.112.17-.095.178-.079.186-.06q.094-.027.19-.043.096-.017.194-.024.097-.007.195-.004.097.002.194.015t.192.033q.095.022.188.053.093.03.182.07.09.04.174.088.085.049.165.105t.153.12.141.135.127.148.112.16.096.17.079.178.06.185.043.19q.016.097.023.194.007.098.005.195-.003.098-.015.195t-.034.192-.052.188-.07.182q-.903 2.025-1.959 3.454-1.352 1.834-6.002 6.484t-6.483 6.002q-1.43 1.055-3.455 1.958-.09.04-.182.07-.093.031-.188.053t-.192.034-.194.014-.195-.004-.194-.023-.19-.043-.186-.06q-.09-.036-.178-.08-.087-.043-.17-.095t-.16-.112-.148-.127q-.07-.067-.134-.141t-.12-.154q-.057-.08-.105-.164-.049-.085-.088-.174-.04-.09-.071-.182-.03-.093-.052-.188t-.034-.192-.015-.195.005-.195q.006-.097.023-.193.016-.096.042-.19.026-.095.061-.186t.079-.178.096-.17.112-.16.127-.148q.067-.07.14-.135.075-.064.154-.12.08-.056.165-.105t.174-.088"/></g></svg>