<svg xmlns="http://www.w3.org/2000/svg" viewBox="0 0 110 110"><clipPath id="a"><rect width="91.667" height="91.667" x="9.167" y="9.167" rx="4.167" ry="4.167"/></clipPath><g clip-path="url(#a)"><path fill="#333" d="m21.49 47.327 3.145 21.851 17.508 20.888 18.647-.14 15.618-13.518 13.52-15.62.14-18.646-20.89-17.506-21.851-3.147-18.019 7.82z"/><path fill="#292929" d="m23.27 47.07 3.147 21.852-1.782.256 1.38-1.156L43.523 88.91l-1.38 1.156-.013-1.8 18.646-.14.014 1.8-1.178-1.36 15.618-13.52 1.178 1.362-1.361-1.178 13.52-15.62 1.36 1.179-1.8-.014.14-18.646 1.8.013-1.156 1.38-20.888-17.506 1.156-1.38-.257 1.782L47.07 23.27l.257-1.782.716 1.651-18.018 7.82-.717-1.652 1.652.717-7.82 18.018-1.65-.716zm-3.563.513q-.035-.247-.002-.495t.133-.478l7.82-18.018q.067-.156.162-.296.096-.14.215-.26.12-.12.26-.216.141-.095.297-.163l18.018-7.819q.23-.1.478-.133t.495.003l21.853 3.147q.248.035.477.138.23.102.422.264l20.888 17.506q.153.127.274.286.12.158.204.338t.126.375.04.394l-.14 18.646q-.002.321-.116.622-.113.3-.323.543l-13.52 15.619q-.084.098-.182.183L61.968 91.287q-.243.21-.544.324-.3.113-.621.115l-18.646.14q-.2.002-.394-.04t-.375-.126q-.18-.083-.339-.204-.158-.12-.285-.273L23.256 70.334q-.161-.192-.264-.422-.102-.229-.138-.477z"/><path fill="#292929" d="M34.626 34.192q3.444-1.22 7.045 1.26.073.05.14.107t.13.12.117.133.103.143.089.153.073.16.057.168q.025.084.04.171.017.087.024.175.008.089.006.177 0 .088-.01.176t-.03.175-.044.17q-.027.085-.062.166t-.078.158-.093.15q-.05.074-.107.141-.057.068-.12.13-.064.061-.133.116-.07.055-.143.103-.074.049-.153.09t-.16.072q-.083.033-.168.058-.085.024-.172.04t-.175.024-.176.006-.177-.011-.174-.029-.17-.045-.166-.062-.159-.077-.15-.093q-2.089-1.438-3.803-.832-.083.03-.169.051t-.173.034-.176.017-.177 0-.175-.019-.173-.035-.17-.052q-.082-.03-.162-.068t-.156-.084-.146-.098q-.071-.053-.136-.113t-.125-.125-.112-.137-.097-.147-.083-.156-.067-.164-.05-.169-.035-.173q-.012-.088-.016-.176t0-.177q.005-.088.018-.175.013-.088.035-.174t.052-.168.068-.163.084-.156.099-.146.112-.137q.06-.065.125-.124.066-.06.137-.112t.148-.097.156-.083q.08-.038.163-.067m-1.123 1.028q2.14-5.842 9.582-4.284.086.019.17.045.085.027.166.061.082.035.16.077.077.043.15.093t.14.106q.069.057.13.12.062.063.118.132.055.07.104.143.048.074.089.153.04.078.074.16t.058.167.04.172.025.175.007.176q-.001.089-.01.177-.01.087-.028.174t-.045.17q-.027.085-.061.167-.035.081-.077.159-.043.077-.093.15t-.106.141-.12.13-.132.117-.143.104q-.074.048-.153.09-.078.04-.16.073t-.167.058-.172.041-.175.024-.176.007q-.089 0-.177-.01-.087-.01-.174-.028-4.395-.92-5.464 1.998-.03.084-.069.163-.038.08-.084.155-.046.076-.1.146-.053.071-.113.136t-.125.124-.138.111-.147.097q-.077.045-.157.082t-.163.067-.17.05-.173.033-.176.016q-.089.004-.177-.001t-.176-.02q-.087-.013-.173-.035t-.168-.052-.163-.07q-.08-.038-.155-.084-.076-.046-.146-.099t-.136-.113-.124-.126-.111-.137-.097-.148-.082-.156-.066-.164q-.03-.083-.05-.17-.021-.085-.034-.173-.012-.087-.016-.176-.003-.088.002-.176.005-.089.018-.176.014-.087.036-.173t.053-.169m1.963 3.465q-3.13 3.246-2.277 5.073.037.08.067.164.029.083.05.17.021.085.034.173.012.087.016.176.004.088 0 .176-.006.089-.02.176-.012.087-.034.173t-.052.169-.069.163q-.038.08-.084.155-.046.076-.099.146-.053.071-.113.136t-.125.125-.137.11-.148.098-.156.083-.163.067-.17.05-.173.034-.176.016-.177 0q-.088-.006-.175-.019-.088-.013-.173-.035-.086-.022-.17-.052-.082-.03-.162-.069-.08-.038-.155-.084-.076-.046-.147-.099t-.136-.113-.124-.125q-.06-.066-.111-.137-.053-.071-.098-.147-.045-.077-.082-.157-1.9-4.07 2.948-9.095.061-.064.129-.121.067-.057.14-.108.072-.05.15-.093.077-.043.158-.079.08-.035.165-.062.084-.027.17-.046.087-.02.175-.03.087-.01.176-.011.088-.002.177.005.088.007.175.023t.172.04.167.056.161.073.153.088.144.103.133.116.121.129.108.14.093.15.079.158.062.165.046.17.03.175.011.176-.005.177-.023.175-.04.172-.056.167q-.033.083-.073.161-.04.079-.088.153-.048.075-.103.144-.055.07-.116.133"/><path fill="#333" d="m18.567 32.593 4.11-.241-1.48-3.334 2.387-2.293s3.174.34 5.667-.35c-.319-2.65 2.067-6.005 2.067-6.005 2.601 7.048 3.462 10.35 5.296 13.422 1.042 1.745.694 2.753-.581 4.028s-2.603 1.7-3.953.93c-2.281-1.3-6.202-2.563-13.512-6.156z"/><path fill="#292929" d="m18.461 30.796 4.11-.24.106 1.796-1.645.73-1.48-3.333q-.057-.126-.093-.26-.036-.133-.051-.27-.016-.137-.01-.274.006-.138.032-.274.027-.135.074-.265.046-.13.113-.25.066-.122.15-.231t.183-.205l2.387-2.293q.142-.136.31-.239.169-.102.355-.166t.382-.085.392-.001q2.832.303 4.995-.295l.48 1.735-1.788.214q-.4-3.342 2.388-7.263.05-.072.109-.139t.122-.127q.065-.061.135-.115t.145-.101.154-.087.161-.07q.083-.032.168-.055t.173-.038.175-.02q.089-.007.177-.004.088.002.176.013.088.012.174.031.086.02.17.048.084.029.164.065.081.036.158.08t.149.095q.221.157.386.373t.26.47q.748 2.028 1.876 5.234 2.06 5.85 3.277 7.89 2.007 3.36-.854 6.223-3 3-6.118 1.221-.939-.535-4.066-1.863-5.295-2.25-9.349-4.242-.264-.13-.473-.338h-.001q-.063-.063-.12-.13-.056-.069-.105-.142-.05-.074-.091-.151-.042-.078-.077-.16-.034-.081-.06-.166-.026-.084-.043-.171-.018-.087-.027-.175t-.01-.176.009-.177.025-.174.042-.172.06-.167.074-.16.09-.151q.05-.074.105-.143.056-.068.118-.131.234-.236.537-.373.304-.136.635-.156m.211 3.594-.105-1.797 1.268-1.278v.001l-1.267 1.278.794-1.616q3.964 1.95 9.167 4.16 3.32 1.41 4.442 2.05.732.416 1.79-.64.877-.88.307-1.834-1.401-2.349-3.58-8.539-1.12-3.18-1.859-5.182l1.689-.623 1.467 1.043q-1.983 2.787-1.747 4.748.019.16.01.32-.01.16-.047.315-.038.156-.102.303-.064.146-.154.28-.089.133-.2.248t-.242.209-.274.163-.299.112q-2.823.78-6.337.404l.191-1.79 1.247 1.299-2.388 2.293-1.247-1.299 1.645-.73 1.481 3.333q.133.3.152.626.005.088.002.176-.004.089-.016.176-.012.088-.033.174-.02.086-.05.17-.029.083-.066.163t-.081.157-.097.148q-.052.071-.11.137-.06.066-.125.126-.064.06-.135.114-.07.053-.146.1-.075.045-.155.084-.08.038-.163.069-.083.03-.168.053-.086.022-.173.036t-.176.019z"/></g></svg>