<svg xmlns="http://www.w3.org/2000/svg" viewBox="0 0 110 110"><clipPath id="a"><rect width="91.667" height="91.667" x="9.167" y="9.167" rx="4.167" ry="4.167"/></clipPath><g clip-path="url(#a)"><path fill="#454545" d="M51.76 51.76q.194-.196.399-.382.205-.185.418-.36.214-.176.435-.34.222-.165.452-.318t.466-.295.48-.273.494-.248.505-.224.515-.198.524-.174.533-.147q.267-.067.538-.12.271-.055.544-.095.274-.04.548-.068.275-.027.551-.04t.552-.014.552.014.55.04.549.068.544.094q.27.054.539.121.267.067.532.147.264.08.524.174t.515.198.505.224.493.248.48.273.467.295.452.318q.221.164.435.34.213.175.418.36.205.186.4.381t.38.4.361.418.34.435q.165.222.318.452.154.23.295.466.142.237.273.48.13.244.248.494t.224.505.198.515.174.524.147.533.12.538q.055.271.095.544t.068.548q.027.275.04.551t.014.552-.014.552-.04.55q-.027.276-.068.549-.04.273-.094.544-.054.27-.121.539-.067.267-.147.532-.08.264-.174.524t-.198.515-.224.505-.248.493-.273.48-.295.467-.318.452q-.164.221-.34.435-.175.213-.36.418-.186.205-.381.4t-.4.38-.418.361q-.214.176-.435.34-.222.165-.452.318t-.466.295-.48.273-.494.248-.505.224-.515.198-.524.174-.532.147-.54.12q-.27.055-.543.095t-.548.068q-.275.027-.551.04t-.552.014-.552-.014-.55-.04-.549-.068-.544-.094-.538-.121-.533-.147-.524-.174-.515-.198-.505-.224-.493-.248-.48-.273-.467-.295-.452-.318-.435-.34-.418-.36-.4-.381-.38-.4-.361-.418-.34-.435-.318-.452-.295-.466-.273-.48-.248-.494-.224-.505-.198-.515-.174-.524-.147-.532-.12-.54-.095-.543-.068-.548-.04-.551-.014-.552.014-.552.04-.55.068-.549.094-.544.121-.538.147-.533.174-.524.198-.515.224-.505.248-.493.273-.48.295-.467.318-.452.34-.435.36-.418.381-.4"/><path fill="#555" d="M55.884 55.884q.094-.094.192-.183.099-.09.202-.174t.21-.164q.106-.079.217-.153.11-.074.224-.142t.232-.131.237-.12.243-.107.248-.096.253-.083.256-.071.26-.059q.13-.025.261-.045.132-.02.264-.033t.265-.02q.133-.006.266-.006t.266.007.265.02q.132.012.264.032.131.02.262.045.13.026.26.059.128.032.255.07.128.04.253.084t.248.096q.123.05.243.107t.237.12q.118.063.232.131t.224.142.218.153q.107.08.21.164.102.084.2.174.1.089.193.183.094.094.184.192.089.099.173.202.085.103.164.21.079.106.153.217.074.11.142.224t.131.232.12.237.107.243.096.248.083.253q.04.127.071.256.033.129.059.26.026.13.045.261.02.132.033.264t.02.265.006.266-.007.266-.02.265q-.012.132-.032.264-.02.131-.045.262-.026.13-.059.26-.032.128-.07.255-.04.128-.084.253t-.096.248q-.05.123-.107.243t-.12.237q-.063.118-.13.232-.07.114-.143.224-.074.11-.153.218-.08.107-.164.21-.084.102-.173.2-.09.1-.184.193-.094.094-.192.184-.099.089-.202.173-.102.085-.21.164-.106.079-.217.153-.11.074-.224.142t-.232.131-.237.12-.243.107-.248.096-.253.083q-.127.04-.256.071-.129.033-.26.059-.13.026-.261.045-.132.02-.264.033t-.265.02-.266.006-.266-.007-.265-.02q-.132-.012-.264-.032-.131-.02-.262-.045-.13-.026-.26-.059-.128-.032-.255-.07-.128-.04-.253-.084t-.248-.096q-.123-.05-.243-.107t-.237-.12q-.118-.063-.232-.13-.114-.07-.224-.143-.11-.074-.218-.153-.106-.08-.21-.164-.102-.084-.2-.173-.1-.09-.193-.184-.094-.094-.183-.192-.09-.099-.174-.202-.084-.102-.164-.21-.079-.106-.153-.217-.074-.11-.142-.224t-.131-.232-.12-.237-.107-.243-.096-.248-.083-.253-.071-.256-.059-.26q-.025-.13-.045-.261-.02-.132-.033-.264t-.02-.265q-.006-.133-.006-.266t.007-.266.02-.265q.012-.132.032-.264.02-.131.045-.262.026-.13.059-.26.032-.128.07-.255.04-.128.084-.253t.096-.248q.05-.123.107-.243t.12-.237q.063-.118.131-.232t.142-.224.153-.218q.08-.106.164-.21.084-.102.174-.2.089-.1.183-.193"/><path fill="#eee" fill-opacity=".498" d="M48.736 52.701q.127-.065.262-.116.134-.052.275-.09.14-.038.287-.062t.299-.034.31-.007q.157.003.32.02t.33.048.338.076.346.102.353.13.36.156.364.183q.183.098.369.208.185.111.372.234t.375.259.377.283.378.306.377.33.377.35q.188.18.375.372.186.191.371.392.185.202.368.412t.364.43.358.447.352.463.344.479q.17.242.337.492.166.25.327.505.162.255.318.516.157.26.308.527.151.265.297.535.145.27.284.544.14.273.272.55.133.276.26.554.126.278.245.558t.23.561.216.562.2.562.185.56.168.556.152.553.134.547.116.54q.054.267.1.53.044.264.08.522.036.259.063.511.026.253.044.5.017.245.026.485.008.239.007.47-.001.233-.011.456-.01.224-.03.44-.02.214-.048.42-.029.206-.067.402-.037.197-.084.383t-.103.362-.12.34q-.065.165-.138.318t-.155.295-.172.271-.187.247-.204.221-.22.196-.233.17-.248.143-.262.117-.275.09q-.14.037-.287.061-.147.025-.3.035-.152.01-.31.007-.157-.003-.32-.02-.162-.018-.33-.048-.166-.031-.337-.076-.172-.044-.346-.103-.175-.058-.354-.13-.178-.07-.359-.156-.18-.084-.364-.182t-.37-.209-.372-.234-.375-.258-.377-.283-.377-.306q-.19-.16-.378-.33-.189-.17-.376-.35-.188-.181-.375-.373-.187-.19-.372-.392-.185-.2-.368-.411t-.363-.43-.359-.447q-.177-.228-.351-.464-.174-.235-.345-.478t-.336-.492-.328-.505q-.161-.255-.318-.516-.156-.261-.308-.527-.15-.266-.296-.536-.145-.27-.285-.543t-.272-.55-.259-.554-.245-.559q-.12-.28-.231-.56-.112-.281-.216-.562t-.2-.562-.185-.56-.168-.557-.151-.552-.134-.547-.117-.54-.099-.53-.08-.523-.063-.51-.044-.5-.026-.485-.008-.471.012-.456.03-.438.048-.421.066-.403.085-.382.102-.362.12-.34.139-.319.154-.294.172-.271.188-.247.204-.222q.105-.104.219-.196.113-.091.234-.17.12-.078.248-.143"/><path fill="#eee" fill-opacity=".498" d="M52.701 48.736q.065-.128.144-.248t.17-.234.195-.22.222-.203.247-.188.27-.172.295-.154.319-.138q.164-.065.34-.12.176-.056.362-.103t.382-.085.403-.066.42-.049.44-.03.455-.01.471.007q.24.008.486.026t.498.044.511.062.522.081q.264.045.531.1.268.053.54.116t.547.134.552.151.557.168.56.185q.28.096.562.2.28.104.561.216t.561.23q.28.12.559.246.278.126.554.259.277.133.55.272.274.14.543.285.27.145.536.296.266.152.527.308.26.157.516.318.256.162.505.328.25.166.492.336.243.17.478.345.236.174.464.351.227.178.447.359.22.18.43.363t.411.368.392.372.373.375q.18.187.35.376t.33.378.306.377q.147.189.283.377t.258.375q.124.187.234.373.11.185.209.369.098.183.182.364.085.181.157.36.071.178.13.353.058.174.102.346.045.17.076.338.03.167.048.33.017.162.02.32.003.157-.007.31-.01.152-.035.299-.024.146-.062.287t-.09.275q-.05.134-.116.262-.065.127-.143.248-.078.12-.17.234-.091.113-.196.219-.104.106-.221.204t-.247.187-.27.172q-.143.082-.296.155t-.318.138-.34.12-.362.103-.383.084-.402.067-.42.048-.44.03-.455.011-.471-.007q-.24-.009-.486-.026t-.499-.044-.51-.063q-.259-.036-.522-.08-.264-.046-.532-.1t-.54-.116q-.271-.063-.546-.134t-.553-.152-.556-.168-.56-.184-.562-.2q-.28-.105-.562-.216-.28-.112-.56-.231t-.559-.246-.555-.259-.55-.272-.543-.284q-.27-.146-.535-.297-.266-.151-.527-.308-.26-.156-.516-.318-.256-.161-.505-.327-.25-.167-.492-.337-.243-.17-.479-.344-.235-.175-.463-.352-.228-.178-.447-.358-.22-.18-.43-.364-.21-.183-.412-.368-.2-.185-.392-.371-.191-.187-.372-.375-.18-.188-.35-.377-.171-.188-.33-.377-.159-.19-.306-.378-.148-.189-.283-.377t-.259-.375-.234-.372-.208-.37-.183-.364-.156-.359-.13-.353-.102-.346-.076-.338-.048-.33-.02-.32q-.004-.158.007-.31t.034-.3q.024-.146.062-.286.038-.141.09-.275.051-.135.116-.262"/><path fill="#454545" d="M39.974 39.974q.253-.253.518-.494.266-.24.542-.467.277-.227.565-.44.287-.214.585-.413t.605-.383.622-.352q.316-.17.64-.322.323-.153.654-.29.33-.137.668-.258.337-.12.68-.224.342-.104.69-.191t.698-.157.705-.122.71-.088q.357-.035.714-.053.358-.017.716-.017t.716.017.713.053q.357.035.71.088.355.052.706.122t.698.157.69.19q.343.105.68.225t.668.258q.33.137.654.29t.64.322.622.352.605.383.585.413q.288.213.565.44t.542.467.518.494.494.518q.24.266.467.542.227.277.44.565.214.287.413.585t.383.605.352.622q.17.316.322.64.153.323.29.654.137.33.258.668.12.337.224.68.104.342.191.69t.157.698.122.705.088.71q.035.357.053.714.017.358.017.716t-.017.716-.053.713q-.035.357-.088.71-.052.355-.122.706t-.157.698-.19.69q-.105.343-.225.68t-.258.668q-.137.33-.29.654t-.322.64-.352.622-.383.605-.413.585q-.213.288-.44.565t-.467.542-.494.518-.518.494q-.266.24-.542.467-.277.227-.565.44-.287.214-.585.413t-.605.383-.622.352q-.316.17-.64.322-.323.153-.654.29-.33.137-.668.258-.337.12-.68.224-.342.104-.69.191t-.698.157-.705.122-.71.088q-.357.035-.714.053-.358.017-.716.017t-.716-.017-.713-.053q-.357-.035-.71-.088-.355-.052-.706-.122t-.698-.157-.69-.19q-.343-.105-.68-.225t-.668-.258q-.33-.137-.654-.29t-.64-.322-.622-.352-.605-.383-.585-.413q-.288-.213-.565-.44t-.542-.467-.518-.494-.494-.518q-.24-.266-.467-.542-.227-.277-.44-.565-.214-.287-.413-.585t-.383-.605-.352-.622q-.17-.316-.322-.64-.153-.323-.29-.654-.137-.33-.258-.668-.12-.337-.224-.68-.104-.342-.191-.69t-.157-.698-.122-.705-.088-.71q-.035-.357-.053-.714-.017-.358-.017-.716t.017-.716.053-.713q.035-.357.088-.71.052-.355.122-.706t.157-.698.19-.69q.105-.343.225-.68t.258-.668q.137-.33.29-.654t.322-.64.352-.622.383-.605.413-.585q.213-.288.44-.565t.467-.542.494-.518"/><path fill="#555" d="M44.099 44.099q.152-.152.31-.296.16-.145.326-.28.166-.137.339-.265.172-.128.35-.247.18-.12.364-.23t.373-.212.384-.193q.194-.092.393-.174.198-.082.4-.155.202-.072.408-.134t.414-.115.419-.094.423-.073.426-.053.429-.031q.214-.011.429-.011t.43.01.428.032.426.053.423.073.42.094q.207.052.413.115.206.062.408.134t.4.155.393.174.384.193.373.212q.185.11.363.23.179.119.351.247.173.128.339.264t.325.28.311.297.296.31.28.326q.137.166.265.339.128.172.247.35.12.18.23.364t.212.373.193.384q.092.194.174.393.082.198.155.4.072.202.134.408t.115.414.094.419.073.423.053.426.031.429q.011.214.011.429t-.01.43-.032.428-.053.426-.073.423-.094.42q-.052.207-.115.413-.062.206-.134.408t-.155.4-.174.393-.193.384-.212.373q-.11.185-.23.363-.119.179-.247.351-.128.173-.264.339t-.28.325-.297.311-.31.296-.326.28q-.166.137-.339.265-.172.128-.35.247-.18.12-.364.23t-.373.212-.384.193q-.194.092-.393.174-.198.082-.4.155-.202.072-.408.134t-.414.115-.419.094-.423.073-.426.053-.429.031q-.214.011-.429.011t-.43-.01-.428-.032-.426-.053-.423-.073-.42-.094q-.207-.052-.413-.115-.206-.062-.408-.134t-.4-.155-.393-.174-.384-.193-.373-.212q-.185-.11-.363-.23-.179-.119-.351-.247-.173-.128-.339-.264t-.325-.28-.311-.297-.296-.31-.28-.326q-.137-.166-.265-.339-.128-.172-.247-.35-.12-.18-.23-.364t-.212-.373-.193-.384q-.092-.194-.174-.393-.082-.198-.155-.4-.072-.202-.134-.408t-.115-.414-.094-.419-.073-.423-.053-.426-.031-.429q-.011-.214-.011-.429t.01-.43.032-.428.053-.426.073-.423.094-.42q.052-.207.115-.413.062-.206.134-.408t.155-.4.174-.393.193-.384.212-.373q.11-.185.23-.363.119-.179.247-.351.128-.173.264-.339t.28-.325.297-.311"/><path fill="#192049" d="M38.403 46.38q-1.135 2.885-.735 5.295.26 1.567 1.411 3.938.494 1.015.823 1.403-.034-.04-.262-.112-.95-.298-1.432.537 2.331-4.038 8.763-10.47 6.435-6.436 10.47-8.762-.834.482-.536 1.431.072.228.112.262-.388-.33-1.404-.823-2.37-1.151-3.938-1.412-2.409-.399-5.295.735l-.549-1.396 1.385.575q-.057.14-.182.459-1.206 3.092-3.554 5.44-2.347 2.347-5.44 3.554-.319.124-.458.182l-.576-1.385zm-2.793-1.098q.056-.14.138-.267t.188-.235.23-.192q.126-.085.265-.143.17-.07.519-.206 2.506-.978 4.409-2.88 1.902-1.903 2.88-4.41.137-.349.207-.518.058-.14.142-.265.085-.125.193-.23.108-.107.234-.189.127-.082.268-.137 3.657-1.437 6.884-.903 1.996.332 4.757 1.674 1.358.66 2.036 1.235.62.527.807 1.124.424 1.346-.827 2.068-3.692 2.129-9.848 8.284-6.152 6.152-8.284 9.846-.72 1.252-2.068.828-.597-.188-1.124-.807-.576-.678-1.235-2.036-1.342-2.762-1.672-4.756-.536-3.228.901-6.885"/><path fill="#fff" fill-opacity=".498" d="M39.302 55.994c-.087-.16-.135-.2-.222-.38-.647-1.333-1.293-3.224-1.411-3.94-.205-1.237.057-3.139.597-4.762 1.18-.467 2.975-1.194 5.214-3.432 2.239-2.24 2.966-4.034 3.432-5.214 1.624-.54 3.527-.803 4.763-.597.715.118 2.608.764 3.939 1.41.18.088.22.135.38.223-1.014.72-1.986 1.392-3.348 2.532-1.95 1.634-4.059 3.522-5.674 5.137-1.616 1.616-3.503 3.724-5.137 5.675-1.141 1.362-1.811 2.334-2.533 3.348"/><path fill="#313f8f" d="m32.188 57.413 2.634-1.44-2.127-3.888c-.49-.896-.33-2.87.329-3.897l3.74-5.826-2.525-1.621-3.74 5.825c-1.286 2.003-1.658 4.724-.436 6.958z"/><path fill="#273272" d="m31.628 56.39 2.634-1.44.56 1.023-1.024.56-2.127-3.888q-1.332-2.435.371-5.087l3.74-5.826.982.63-.63.982-2.526-1.621.63-.982.983.63-3.74 5.825q-1.916 2.985-.394 5.768l2.125 3.89-1.024.56zm1.12 2.047q-.05.028-.103.05t-.108.04-.11.029-.114.017-.114.007-.114-.004q-.057-.006-.114-.016-.056-.01-.111-.027-.055-.016-.108-.038t-.104-.048-.1-.058-.092-.067-.085-.076-.078-.084-.069-.092-.06-.097l-2.125-3.89q-2.186-3.997.479-8.147l3.739-5.826q.03-.048.066-.093t.076-.086.083-.079q.044-.037.091-.07.047-.032.097-.06t.103-.05q.052-.024.107-.042.054-.017.11-.03t.113-.018.115-.008q.057 0 .114.004t.114.014q.056.01.111.026t.109.037.104.047.1.057l2.524 1.621q.049.031.094.067.045.035.086.075t.078.084.07.09.06.098.052.102.04.107q.018.055.03.11.012.057.019.114t.008.114q0 .057-.004.114-.004.058-.015.114t-.025.112-.037.108q-.02.053-.047.105-.026.05-.057.099l-3.74 5.826q-.954 1.486-.287 2.706l2.126 3.889q.028.05.05.103t.04.107.029.111.018.113.007.114-.005.115-.016.113q-.01.057-.027.112-.016.055-.037.108-.022.053-.048.104t-.058.099-.067.092-.077.086-.084.077-.091.07-.098.06z"/><path fill="#ebeb34" d="m32.122 57.291 1.616 2.958 2.633-1.44-1.617-2.957z"/><path fill="#bcbc2a" d="m33.146 56.732 1.616 2.957-1.024.56-.56-1.024 2.633-1.44.56 1.025-1.024.56-1.617-2.958 1.024-.56.56 1.024-2.632 1.44-.56-1.025zm-2.048 1.12q-.028-.051-.05-.104t-.04-.107-.029-.111-.018-.113-.006-.114.004-.115q.005-.057.016-.113.01-.057.027-.112.016-.055.037-.108.022-.053.048-.104t.058-.099.068-.092.076-.086.084-.077.091-.07.098-.06l2.632-1.44q.05-.027.103-.05.053-.021.107-.039.055-.017.111-.029.056-.011.113-.017t.115-.007.114.004.113.016q.057.01.112.027.055.016.108.037.053.022.104.048t.099.058.092.068.086.076.078.084.069.091.06.098l1.617 2.958q.027.05.05.103.022.053.04.107.016.055.028.111t.018.113.007.115-.005.114-.016.114q-.01.056-.026.11-.017.056-.038.11-.021.052-.048.103-.026.05-.058.099-.031.048-.067.093-.036.044-.076.085t-.084.078-.092.069-.097.06l-2.633 1.439q-.05.027-.103.05-.053.022-.108.04-.054.016-.11.028t-.114.018-.114.007q-.057 0-.114-.005t-.114-.016q-.056-.01-.111-.027-.055-.016-.108-.037-.053-.022-.104-.048t-.099-.058-.093-.067-.085-.076-.078-.085-.069-.09-.06-.099z"/><path fill="#313f8f" d="m39.491 34.96 2.477 2.477L46 33.405l-2.477-2.477z"/><path fill="#273272" d="m42.852 38.32 4.031-4.03q.044-.044.083-.092.039-.047.073-.098t.063-.105q.029-.055.052-.111.024-.057.042-.116.017-.058.03-.119.011-.06.017-.121t.006-.123-.006-.122-.018-.121-.03-.12-.04-.115q-.024-.057-.053-.11-.03-.055-.063-.106-.034-.051-.073-.099-.04-.047-.083-.09l-2.477-2.477q-.043-.044-.09-.083-.048-.039-.1-.073-.05-.034-.104-.063T44 29.774t-.116-.042-.119-.03-.121-.018-.123-.006q-.06 0-.122.006-.061.006-.121.018t-.12.03-.115.042-.11.052-.106.063-.099.073q-.047.04-.09.083l-4.032 4.03q-.043.044-.082.092-.039.047-.073.098t-.063.105-.053.111-.041.116-.03.119-.018.121-.006.123.006.122.018.121.03.12.041.115.053.11q.029.055.063.106t.073.099.082.09l2.477 2.478q.044.043.091.082.048.039.099.073.05.034.105.063t.11.053q.058.023.116.04.06.019.12.03.06.013.12.019.062.006.123.006.062 0 .123-.006.06-.006.121-.018.06-.012.119-.03t.116-.041.11-.053.106-.063.098-.073q.048-.04.091-.082m-.884-2.651-.709-.71 2.263-2.263.71.71z"/><path fill="#313f8f" d="m37.127 44.58-.927-2.375-2.974-3.152 5.827-5.827 3.152 2.974 2.375.927c-.213 1.457-.295 2.587-2.58 4.872s-3.415 2.368-4.873 2.58"/><path fill="#273272" d="m36.04 45.004-.927-2.375 1.087-.424-.848.8-2.975-3.15q-.039-.042-.073-.086-.035-.045-.065-.092-.03-.048-.055-.098t-.046-.103-.036-.106q-.015-.055-.025-.11t-.015-.111-.003-.113.007-.112.018-.111.028-.109q.017-.053.039-.105t.048-.102.059-.096q.031-.046.067-.09.036-.043.075-.083l5.828-5.827q.04-.04.083-.076t.09-.067.096-.058.101-.05.106-.038.109-.028.11-.018q.057-.006.113-.007.056 0 .112.004t.112.014.11.025q.053.016.106.036.052.02.102.046t.098.055.092.065q.045.034.086.073l3.152 2.974-.8.849.423-1.087 2.376.927q.091.036.175.086.085.05.16.114.074.064.137.14.063.075.112.16.05.085.084.177t.053.188.021.195-.012.196l-.024.167q-.416 2.89-2.886 5.361t-5.362 2.886l-.167.025q-.097.014-.195.011-.099-.002-.195-.02-.097-.02-.189-.053-.091-.035-.176-.084-.085-.05-.16-.113-.076-.063-.14-.137t-.115-.16q-.05-.083-.086-.175m2.174-.848-1.087.424-.168-1.155.172-.025q2.122-.305 4.043-2.226t2.227-4.044l.025-.172 1.154.169-.424 1.087-2.375-.927q-.212-.083-.377-.238l-3.152-2.974.8-.85.826.826-5.827 5.827-.825-.825.848-.8 2.975 3.15q.156.166.238.377z"/><path fill="#ebeb34" d="m44.562 28.202-2.735 2.735 3.988 3.988 2.735-2.735z"/><path fill="#bcbc2a" d="m46.64 35.75 2.735-2.735q.04-.04.077-.085.036-.044.068-.092.032-.047.06-.098.026-.05.048-.104t.039-.107.028-.111.016-.114.006-.114-.006-.115q-.005-.057-.016-.113-.012-.056-.028-.11-.017-.056-.039-.109t-.049-.103-.059-.098-.068-.092q-.036-.045-.077-.085l-3.988-3.988q-.04-.04-.085-.077-.044-.037-.092-.069-.047-.031-.098-.058-.05-.027-.103-.05-.054-.021-.108-.038-.055-.017-.111-.028-.057-.011-.114-.017-.057-.005-.114-.005t-.115.005-.113.017-.11.028q-.056.017-.109.039t-.103.049-.098.058-.092.069q-.045.036-.085.077l-2.735 2.735q-.04.04-.077.085-.037.044-.069.092-.031.047-.058.098-.027.05-.05.103-.021.053-.038.108t-.028.111-.017.113q-.005.058-.005.115t.005.114.017.114.028.11q.017.055.039.109.022.052.049.103t.058.098q.032.048.069.092.036.045.077.085l3.988 3.988q.04.04.085.077.044.036.092.068.047.032.098.06.05.026.103.048t.108.039.111.028.113.016q.058.006.115.006t.114-.006.114-.016.11-.028.109-.039.103-.049q.05-.027.098-.059t.092-.068q.045-.036.085-.077m-.825-2.475-2.338-2.338 1.085-1.085L46.9 32.19z"/></g></svg>