<svg xmlns="http://www.w3.org/2000/svg" viewBox="0 0 110 110"><clipPath id="a"><rect width="91.667" height="91.667" x="9.167" y="9.167" rx="4.167" ry="4.167"/></clipPath><g clip-path="url(#a)"><path fill="#cfcfcf" d="M120.917 55q0 .33-.017.658-.016.33-.048.657-.032.328-.08.654-.049.325-.113.648t-.144.643-.176.635-.207.625-.237.614q-.126.305-.266.602-.141.298-.297.589-.155.29-.324.573-.17.282-.352.556-.183.274-.38.538-.196.265-.405.52-.209.254-.43.498t-.454.477-.477.454-.499.43-.519.405q-.264.197-.538.38t-.556.352q-.283.17-.573.324-.29.156-.589.297-.297.14-.602.266-.304.126-.614.237t-.625.207q-.316.096-.635.176-.32.08-.643.144t-.648.112-.654.081-.657.048-.658.017q-.33 0-.658-.017-.33-.016-.657-.048-.328-.032-.654-.08-.325-.049-.648-.113t-.643-.144-.635-.176-.625-.207-.614-.237q-.305-.126-.602-.266-.298-.141-.589-.297-.29-.155-.573-.324-.282-.17-.556-.352-.274-.183-.538-.38-.265-.196-.52-.405-.254-.209-.498-.43t-.477-.454-.454-.477-.43-.499-.405-.519q-.197-.264-.38-.538t-.352-.556-.324-.573q-.156-.29-.297-.589-.14-.297-.266-.602-.126-.304-.237-.614t-.207-.625-.176-.635-.144-.643-.112-.648-.081-.654-.048-.657-.017-.658q0-.33.017-.658.016-.33.048-.657.032-.328.08-.654.049-.325.113-.648t.144-.643.176-.635.207-.625.237-.614q.126-.305.266-.602.141-.298.297-.589.155-.29.324-.573.17-.282.352-.556.183-.274.38-.538.196-.265.405-.52.209-.254.43-.498t.454-.477.477-.454.499-.43q.254-.21.519-.405.264-.197.538-.38t.556-.352q.283-.17.573-.324.29-.156.589-.297.297-.14.602-.266.304-.126.614-.237t.625-.207q.316-.096.635-.176.32-.08.643-.144t.648-.112.654-.081.657-.048.658-.017q.33 0 .658.017.33.016.657.048.328.032.654.08.325.049.648.113t.643.144.635.176.625.207.614.237q.305.126.602.266.298.141.589.297.29.155.573.324.282.17.556.352.274.183.538.38.265.196.52.405.254.209.498.43t.477.454.454.477.43.499q.21.254.405.519.197.264.38.538t.352.556.324.573q.156.29.297.589.14.297.266.602.126.304.237.614t.207.625.176.635.144.643.112.648.081.654.048.657.017.658"/><path fill="#fff" d="M117.417 55q0 .243-.012.487-.012.243-.036.485t-.06.483-.083.48-.106.475-.13.469-.153.462-.175.454-.197.445-.22.435-.24.423-.26.411-.28.398-.3.384q-.154.188-.317.369-.164.18-.336.352t-.352.336-.369.318-.384.3q-.195.144-.398.28-.202.135-.41.26-.21.125-.424.24-.215.114-.435.219-.22.104-.445.197t-.454.175-.462.153-.47.13-.474.106q-.24.048-.48.083t-.483.06q-.242.024-.485.036-.244.012-.487.012t-.487-.012q-.243-.012-.485-.036t-.483-.06-.48-.083-.475-.106-.469-.13-.462-.153-.454-.175-.445-.197-.435-.22-.423-.24q-.209-.124-.411-.26-.203-.135-.398-.28-.196-.145-.384-.3-.188-.154-.369-.317-.18-.164-.352-.336t-.336-.352-.318-.369-.3-.384q-.144-.195-.28-.398-.135-.202-.26-.41-.125-.21-.24-.424-.114-.215-.219-.435-.104-.22-.197-.445t-.175-.454-.153-.462-.13-.47-.106-.474q-.048-.24-.083-.48t-.06-.483q-.024-.242-.036-.485-.012-.244-.012-.487t.012-.487.036-.485.06-.483q.035-.24.083-.48.047-.238.106-.475.06-.236.13-.469t.153-.462.175-.454.197-.445.22-.435.24-.423q.124-.209.26-.411.135-.203.28-.398.145-.196.3-.384.154-.188.317-.369.164-.18.336-.352t.352-.336.369-.318.384-.3q.195-.144.398-.28.202-.135.41-.26.21-.125.424-.24.215-.114.435-.219.22-.104.445-.197t.454-.175.462-.153.47-.13.474-.106q.24-.048.48-.083t.483-.06q.242-.024.485-.036.244-.012.487-.012t.487.012q.243.012.485.036t.483.06.48.083.475.106.469.13.462.153.454.175.445.197.435.22.423.24q.209.124.411.26.203.135.398.28.196.145.384.3.188.154.369.317.18.164.352.336t.336.352.318.369.3.384q.144.195.28.398.135.202.26.41.125.21.24.424.114.215.219.435.104.22.197.445t.175.454.153.462.13.47.106.474q.048.24.083.48t.06.483q.024.242.036.485.012.244.012.487"/><path fill="#cfcfcf" d="M84.64 104.93q0 .33-.016.658-.016.33-.049.657-.032.328-.08.654-.048.325-.113.648-.064.323-.144.643t-.176.635-.206.625-.237.614-.267.602-.296.589-.325.573-.352.556-.38.538q-.195.265-.404.52-.21.254-.43.498-.222.244-.455.477-.232.233-.476.454-.245.221-.5.43-.254.21-.518.405-.265.197-.539.38t-.556.352-.573.324q-.29.156-.588.297t-.602.266-.615.237-.625.207-.635.176-.642.144q-.323.064-.649.112-.326.049-.654.081-.327.032-.656.048-.33.017-.659.017t-.658-.017-.657-.048q-.327-.032-.653-.08-.326-.049-.65-.113-.322-.064-.642-.144t-.634-.176-.626-.207q-.31-.11-.614-.237-.304-.126-.602-.266t-.588-.297-.573-.324-.557-.352-.538-.38-.52-.405-.498-.43-.477-.454-.454-.477q-.22-.244-.43-.499-.209-.254-.405-.519-.196-.264-.38-.538-.182-.274-.351-.556-.17-.283-.325-.573t-.296-.589q-.141-.297-.267-.602-.126-.304-.237-.614t-.207-.625q-.095-.316-.175-.635-.08-.32-.144-.643-.065-.323-.113-.648-.048-.326-.08-.654-.033-.328-.05-.657-.015-.329-.015-.658 0-.33.016-.658.016-.33.048-.657.033-.328.08-.654.05-.325.114-.648t.144-.643.175-.635.207-.625.237-.614.267-.602.296-.589.325-.573.352-.556.379-.538.405-.52.43-.498.454-.477.477-.454.499-.43q.255-.21.52-.405.264-.197.537-.38.274-.183.557-.352.282-.17.573-.324.29-.156.588-.297t.602-.266.614-.237.626-.207.634-.176.643-.144.649-.112q.326-.049.653-.081.328-.032.657-.048.329-.017.658-.017.33 0 .659.017.329.016.656.048.328.032.654.08.326.049.649.113t.642.144.635.176.625.207q.31.11.615.237.304.126.602.266t.588.297.573.324.556.352.539.38.519.405.499.43.476.454.455.477q.22.244.43.499.209.254.405.519.196.264.379.538t.352.556q.17.283.325.573t.296.589q.14.297.267.602.126.304.237.614t.206.625q.096.316.176.635.08.32.144.643.065.323.113.648.048.326.08.654.033.328.049.657t.016.658"/><path fill="#fff" d="M81.14 104.93q0 .243-.012.487-.012.243-.036.485t-.06.483-.082.48-.107.475-.13.469-.153.462-.175.454-.197.445-.219.435-.24.423-.26.411-.28.398-.3.384-.318.369-.335.352-.353.336-.369.318-.383.3-.398.28-.411.26-.424.24q-.215.114-.435.219-.22.104-.445.197t-.454.175-.462.153-.469.13-.475.106-.48.083-.483.06-.485.036-.487.012-.486-.012-.486-.036-.483-.06-.48-.083-.474-.106-.47-.13q-.232-.071-.461-.153-.23-.082-.455-.175-.224-.093-.445-.197-.22-.105-.434-.22-.215-.114-.424-.24-.209-.124-.411-.26-.202-.135-.398-.28-.195-.145-.384-.3-.188-.154-.368-.317-.18-.164-.353-.336-.172-.172-.335-.352t-.318-.369-.3-.384-.28-.398-.26-.41q-.126-.21-.24-.424-.115-.215-.22-.435-.103-.22-.196-.445t-.176-.454q-.082-.23-.152-.462-.07-.233-.13-.47t-.107-.474q-.047-.24-.083-.48t-.06-.483-.035-.485q-.012-.244-.012-.487t.012-.487q.012-.243.035-.485t.06-.483.083-.48.107-.475.13-.469.152-.462.176-.454.197-.445.219-.435.24-.423.26-.411.28-.398.3-.384.318-.369.335-.352.353-.336.368-.318.384-.3.398-.28.411-.26.424-.24.434-.219.445-.197.455-.175.462-.153.469-.13.475-.106.48-.083.482-.06.486-.036.486-.012.487.012.485.036.483.06.48.083.475.106.47.13.461.153.454.175.445.197.435.22.424.24q.208.124.41.26.203.135.399.28.195.145.383.3.189.154.369.317.18.164.353.336.172.172.335.352t.318.369.3.384.28.398.26.41q.125.21.24.424.115.215.219.435t.197.445.175.454q.082.23.153.462.07.233.13.47t.107.474q.047.24.083.48.035.24.06.483.023.242.035.485.012.244.012.487"/><path fill="#cfcfcf" d="M25.943 85.859q0 .33-.016.658-.016.329-.048.657-.033.328-.08.653-.05.326-.114.65-.064.322-.144.642t-.175.634q-.096.316-.207.626t-.237.614-.267.602q-.14.298-.296.588t-.325.573-.352.557-.379.538-.405.52-.43.498-.454.477-.477.454-.499.43-.52.405-.537.38-.557.352-.573.324q-.29.155-.588.296t-.602.267-.614.237-.626.207-.634.175-.643.145-.649.112-.653.08-.657.05q-.329.015-.658.015-.33 0-.659-.016t-.656-.048-.654-.08q-.326-.05-.649-.113-.323-.065-.642-.145-.32-.08-.635-.175-.315-.096-.625-.207t-.615-.237-.602-.267-.588-.296-.573-.324q-.282-.17-.556-.353t-.539-.379-.519-.405-.499-.43-.476-.454q-.233-.233-.455-.477-.22-.244-.43-.499-.209-.254-.405-.519t-.379-.538-.352-.557q-.17-.282-.325-.573-.155-.29-.296-.588t-.267-.602-.237-.614-.206-.626q-.096-.315-.176-.634-.08-.32-.144-.643-.065-.323-.113-.649-.048-.325-.08-.653-.033-.328-.049-.657t-.016-.658.016-.659q.016-.329.049-.656.032-.328.08-.654t.113-.649.144-.642.176-.635.206-.625.237-.615.267-.602.296-.588.325-.573.352-.556.38-.539q.195-.264.404-.519.21-.254.43-.498.222-.244.455-.477.232-.233.476-.454.245-.222.5-.43.254-.21.518-.406.265-.196.539-.379t.556-.352.573-.325.588-.296.602-.267.615-.237.625-.206.635-.176.642-.144.649-.113.654-.08q.327-.033.656-.049.33-.016.659-.016t.658.016.657.049.653.08.65.113.642.144.634.176.626.206q.31.111.614.237t.602.267.588.296.573.325.557.352.538.38.52.404.498.43.477.455.454.477q.22.244.43.498.209.255.405.52.196.264.38.538.182.274.351.556.17.283.325.573t.296.588.267.602q.126.305.237.615t.207.625.175.635q.08.32.144.642.065.323.113.65.048.325.08.653.033.327.05.656.015.33.015.659"/><path fill="#fff" d="M22.443 85.859q0 .243-.012.486t-.035.486-.06.483-.083.48q-.048.238-.107.474-.06.236-.13.47-.07.232-.152.462-.082.229-.176.454t-.197.445-.219.434-.24.424-.26.411-.28.398-.3.384-.318.368-.335.353-.353.335-.368.318-.384.3-.398.28-.411.26q-.209.126-.424.24-.214.115-.434.22-.22.103-.445.197-.225.093-.455.175-.229.082-.462.152-.233.071-.469.13t-.475.107-.48.083-.482.06-.486.035-.486.012-.487-.012q-.243-.011-.485-.035-.243-.024-.483-.06-.241-.036-.48-.083t-.475-.107-.47-.13-.461-.152-.454-.175q-.225-.094-.445-.198t-.435-.219-.424-.24q-.208-.125-.41-.26-.203-.135-.399-.28-.195-.145-.383-.3-.189-.154-.369-.318-.18-.163-.353-.335-.172-.172-.335-.353-.164-.18-.318-.368-.155-.188-.3-.384-.145-.195-.28-.398-.135-.202-.26-.411t-.24-.424-.219-.434-.197-.445-.175-.454-.153-.463-.13-.469-.107-.475-.083-.48-.06-.482q-.023-.243-.035-.486t-.012-.486.012-.487.036-.485.06-.483.082-.48.107-.475q.06-.236.13-.469t.153-.462.175-.454.197-.445.219-.435q.115-.215.24-.423.125-.21.26-.412t.28-.398.3-.383q.154-.189.318-.369.163-.18.335-.352.173-.173.353-.336t.369-.318q.188-.154.383-.3.196-.144.398-.28.203-.135.411-.26.21-.125.424-.24.215-.115.435-.219t.445-.197.454-.175.462-.153.469-.13.475-.106.48-.084.483-.06.485-.035.487-.012.486.012.486.036.483.06q.24.035.48.083.238.047.474.106.236.06.47.13.232.07.461.153.23.082.455.175.224.093.445.197.22.104.434.219.215.115.424.24t.411.26.398.28q.195.146.384.3.188.154.368.318.18.163.353.336.172.172.335.352t.318.369.3.383.28.398.26.412.24.423.22.435q.103.22.196.445t.176.454q.082.23.152.462.07.233.13.47.06.235.107.474t.083.48.06.483q.023.242.035.485t.012.487"/><path fill="#cfcfcf" d="M25.943 24.141q0 .33-.016.659t-.048.656-.08.654q-.05.326-.114.649t-.144.642q-.08.32-.175.635-.096.315-.207.625t-.237.615-.267.602-.296.588-.325.573-.352.556-.379.539-.405.519-.43.498-.454.477-.477.454-.499.43q-.255.21-.52.406-.264.196-.537.379-.274.183-.557.352-.282.17-.573.325-.29.155-.588.296t-.602.267-.614.237-.626.206-.634.176q-.32.08-.643.144t-.649.113-.653.08-.657.049-.658.016q-.33 0-.659-.016t-.656-.049-.654-.08-.649-.113-.642-.144q-.32-.08-.635-.176t-.625-.206-.615-.237-.602-.267-.588-.296-.573-.325-.556-.352-.539-.38q-.264-.196-.519-.404-.254-.21-.499-.43-.244-.222-.476-.455-.233-.233-.455-.477-.22-.244-.43-.498-.209-.255-.405-.52-.196-.264-.379-.538t-.352-.556q-.17-.283-.325-.573t-.296-.588q-.14-.298-.267-.602-.126-.305-.237-.615t-.206-.625-.176-.635-.144-.642q-.065-.323-.113-.65-.048-.325-.08-.653-.033-.327-.049-.656-.016-.33-.016-.659 0-.33.016-.658.016-.329.049-.657.032-.328.08-.653.048-.326.113-.65.064-.322.144-.642t.176-.634q.095-.316.206-.626t.237-.614.267-.602q.14-.298.296-.588t.325-.573.352-.557.38-.538.404-.52.43-.498q.222-.244.455-.477.232-.233.476-.454.245-.221.5-.43.254-.209.518-.405.265-.196.539-.38.274-.182.556-.352t.573-.324.588-.296.602-.267.615-.237.625-.207.635-.175.642-.145.649-.112q.326-.049.654-.08.327-.033.656-.05.33-.015.659-.015t.658.016.657.048q.327.032.653.08.326.05.65.113.322.065.642.145t.634.175.626.207q.31.11.614.237.304.126.602.267.298.14.588.296t.573.324q.283.17.557.353.273.183.538.379.264.196.52.405.254.209.498.43t.477.454.454.477q.22.244.43.499.209.254.405.519t.38.538q.182.274.351.557.17.282.325.573.155.29.296.588t.267.602.237.614.207.626.175.634.144.643q.065.323.113.649.048.325.08.653.033.328.05.657.015.329.015.658"/><path fill="#fff" d="M22.443 24.141q0 .244-.012.487t-.035.485-.06.483-.083.48-.107.475-.13.469-.152.462q-.082.23-.176.454-.093.225-.197.445t-.219.435-.24.423q-.125.21-.26.412t-.28.398q-.145.195-.3.383-.154.189-.318.369-.163.18-.335.352-.172.173-.353.336-.18.164-.368.318-.189.154-.384.3-.196.144-.398.28-.202.135-.411.26t-.424.24-.434.219-.445.197-.455.175-.462.153-.469.13-.475.106-.48.084q-.24.035-.482.06-.243.023-.486.035t-.486.012-.487-.012-.485-.036-.483-.06-.48-.083q-.239-.047-.475-.106-.236-.06-.47-.13-.232-.07-.461-.153-.23-.082-.454-.175-.225-.093-.445-.197t-.435-.219-.424-.24-.41-.26-.399-.28-.383-.3-.369-.318-.353-.336-.335-.352-.318-.369-.3-.383-.28-.398-.26-.412q-.125-.208-.24-.423t-.219-.435-.197-.445-.175-.454q-.082-.23-.153-.462-.07-.233-.13-.47-.06-.235-.107-.474t-.083-.48q-.035-.24-.06-.483-.023-.242-.035-.485t-.012-.487.012-.486.036-.486.06-.483.082-.48q.048-.238.107-.474.06-.236.13-.47.07-.232.153-.462.082-.229.175-.454t.197-.445.219-.434.24-.424.26-.411.28-.398.3-.384.318-.368.335-.353.353-.335.369-.318.383-.3.398-.28.411-.26q.21-.126.424-.24.215-.115.435-.22.22-.103.445-.197.225-.093.454-.175t.462-.152.469-.13.475-.107.48-.083.483-.06.485-.035.487-.012.486.012.486.035.483.06.48.083.474.107.47.13q.232.07.461.152.23.082.455.175.224.094.445.198.22.104.434.219.215.114.424.24.209.125.411.26t.398.28.384.3.368.318.353.335.335.353.318.368.3.384.28.398.26.411.24.424.22.434.196.445.176.454q.082.23.152.463t.13.469.107.475.083.48q.036.24.06.482.023.243.035.486t.012.486"/><path fill="#cfcfcf" d="M84.64 5.07q0 .329-.016.658t-.049.657-.08.653-.113.649-.144.643-.176.634-.206.625-.237.615-.267.602-.296.588-.325.573-.352.556-.38.539-.404.519-.43.499q-.222.244-.455.477-.232.232-.476.454-.245.22-.5.43-.254.209-.518.405-.265.196-.539.38-.274.182-.556.351-.283.17-.573.325t-.588.296q-.298.14-.602.267-.305.126-.615.237t-.625.207-.635.175q-.32.08-.642.144-.323.065-.649.113t-.654.08-.656.049-.659.016-.658-.016q-.329-.016-.657-.048-.327-.033-.653-.081t-.65-.113-.642-.144-.634-.175-.626-.207-.614-.237-.602-.267-.588-.296-.573-.325-.557-.352-.538-.38-.52-.404-.498-.43q-.244-.222-.477-.454-.233-.233-.454-.477-.22-.244-.43-.499-.209-.255-.405-.52-.196-.264-.38-.538-.182-.273-.351-.556-.17-.282-.325-.573-.155-.29-.296-.588t-.267-.602-.237-.615-.207-.625-.175-.634-.144-.643-.113-.649-.08-.653-.05-.657-.015-.658.016-.659q.016-.329.048-.657.033-.327.08-.653.05-.326.114-.649t.144-.642q.08-.32.175-.635.096-.315.207-.625t.237-.615.267-.602.296-.588.325-.573.352-.556.379-.539.405-.519.43-.499.454-.477.477-.454q.244-.22.499-.43.255-.209.52-.405.264-.196.537-.38.274-.182.557-.351.282-.17.573-.325.29-.155.588-.296t.602-.267.614-.237.626-.206q.315-.096.634-.176.32-.08.643-.144.323-.065.649-.113t.653-.08.657-.049.658-.016.659.016q.329.016.656.048.328.033.654.081t.649.113.642.144.635.176q.315.095.625.206t.615.237.602.267q.298.14.588.296t.573.325.556.352.539.38.519.404.499.43q.244.222.476.454.233.233.455.477.22.244.43.5.209.254.405.518.196.265.379.539.183.273.352.556.17.282.325.573.155.29.296.588t.267.602.237.615q.11.31.206.625t.176.635.144.642.113.649.08.653.049.657q.016.33.016.659"/><path fill="#fff" d="M81.14 5.07q0 .243-.012.486t-.036.486-.06.483q-.035.24-.082.48-.048.238-.107.474-.06.236-.13.47-.07.232-.153.461-.082.23-.175.454-.093.225-.197.445t-.219.435-.24.424-.26.411-.28.398-.3.384-.318.368-.335.353q-.173.172-.353.335t-.369.318q-.188.155-.383.3-.196.145-.398.28-.203.135-.411.26-.21.126-.424.24-.215.115-.435.22-.22.103-.445.196t-.454.176-.462.152-.469.13-.475.107-.48.083-.483.06-.485.035-.487.012-.486-.012-.486-.036-.483-.06-.48-.082-.474-.107-.47-.13q-.232-.07-.461-.152-.23-.082-.455-.176-.224-.093-.445-.197-.22-.104-.434-.219-.215-.114-.424-.24-.209-.125-.411-.26t-.398-.28-.384-.3-.368-.318-.353-.335-.335-.353-.318-.368-.3-.384-.28-.398-.26-.411q-.126-.21-.24-.424-.115-.214-.22-.435-.103-.22-.196-.445-.094-.224-.176-.454-.082-.229-.152-.462t-.13-.469-.107-.475-.083-.48-.06-.482-.035-.486-.012-.486.012-.487.035-.485.06-.484.083-.48.107-.474.13-.47q.07-.232.152-.461.082-.23.176-.454.093-.225.197-.445t.219-.435.24-.424.26-.41.28-.399.3-.384.318-.368.335-.353.353-.335.368-.318q.189-.155.384-.3.196-.145.398-.28t.411-.26.424-.24.434-.22q.22-.103.445-.196t.455-.175q.229-.082.462-.153t.469-.13.475-.107.48-.083.482-.06.486-.035.486-.012.487.012.485.036.483.06.48.082.475.107.47.13q.232.07.461.153.23.082.454.175.225.093.445.197t.435.219.424.24.41.26.399.28.383.3.369.318.353.335q.172.173.335.353t.318.368.3.384.28.398.26.411q.125.21.24.424.115.215.219.435t.197.445.175.454.153.462.13.469.107.475.083.48.06.483.035.485.012.487"/><path fill="#fff7d0" fill-opacity=".298" d="M88.019 55 82.27 69.312l-9.616 11.264-14.225 2.667-15.135 2.622-12.015-9.85-5.164-13.895-1.523-14.615 7.82-12.515 11.467-9.314 14.82-1.142 12.8 6.564 13.035 8.401z"/><path fill="#fff7d0" fill-opacity=".298" d="m91.757 55-6.4 15.933L74.652 83.47l-15.834 2.97-16.849 2.919-13.375-10.966-5.75-15.468-1.695-16.27 8.707-13.932L42.62 22.356l16.498-1.27 14.248 7.306 14.512 9.352z"/><path fill="#111" d="M50.333 49.167q0 .344-.017.686-.016.342-.05.68-.033.337-.083.666t-.116.646-.147.621-.177.59-.204.551-.23.51-.255.46-.276.41-.295.353q-.151.162-.31.294-.16.131-.324.231t-.333.167-.34.101-.343.034-.343-.034q-.17-.034-.34-.1-.168-.068-.333-.168-.164-.1-.323-.231-.159-.132-.31-.294-.152-.162-.295-.353t-.276-.41q-.133-.217-.255-.46-.121-.244-.23-.51-.11-.265-.205-.551t-.176-.59-.147-.62q-.066-.318-.116-.647-.05-.33-.083-.667-.034-.337-.05-.68-.018-.341-.018-.685t.017-.686q.017-.343.05-.68.034-.337.084-.666.05-.33.116-.647.066-.318.147-.621t.176-.59q.096-.285.205-.551t.23-.509.255-.461.276-.41.294-.353.31-.293q.16-.132.324-.232.165-.1.333-.167.17-.067.34-.1.171-.034.343-.034t.343.033.34.101.333.167.324.232.31.293.295.353.276.41.254.461.23.509q.11.266.205.552.096.286.177.589t.147.62q.066.319.116.648t.083.666.05.68q.017.342.017.686"/><clipPath id="b"><path d="M50.333 49.167q0 .172-.004.343t-.013.343q-.008.17-.02.34t-.03.34-.038.334q-.02.167-.045.332-.025.164-.054.326-.03.162-.062.32-.033.16-.07.315-.036.155-.077.306-.04.152-.085.3-.044.147-.092.29-.047.143-.098.28-.052.139-.106.271-.055.133-.112.26-.058.128-.119.25-.06.12-.124.236t-.13.225-.136.211-.14.198-.145.184q-.074.088-.15.17-.076.08-.153.154-.078.073-.157.139-.08.066-.16.123-.081.058-.164.108-.082.05-.165.092-.084.042-.168.075-.084.034-.17.059-.084.025-.17.042-.085.017-.17.025-.087.009-.173.009t-.171-.009-.172-.025-.17-.042q-.085-.025-.17-.059-.084-.033-.167-.075t-.166-.092-.163-.108-.16-.123-.157-.14q-.078-.073-.154-.154-.075-.08-.149-.17-.074-.088-.145-.183-.072-.096-.14-.198-.07-.102-.136-.211-.066-.11-.13-.225t-.124-.237-.119-.248q-.058-.128-.112-.26-.055-.133-.106-.271-.051-.139-.099-.281-.047-.143-.092-.29-.044-.148-.084-.3-.04-.151-.078-.306-.036-.156-.07-.315-.032-.158-.061-.32t-.054-.326-.046-.331-.037-.336q-.017-.168-.03-.338t-.02-.341q-.01-.171-.013-.343-.005-.171-.005-.343t.005-.344.012-.343q.009-.17.021-.34t.03-.339q.016-.169.037-.335.021-.167.046-.331.025-.165.054-.327.029-.161.062-.32t.07-.314q.036-.156.077-.307.04-.152.084-.3.044-.146.092-.29.048-.142.1-.28.05-.138.105-.271t.112-.26q.058-.128.118-.25.061-.12.125-.236t.13-.224q.066-.11.135-.212.07-.102.14-.198.072-.095.146-.183.074-.089.15-.17.075-.08.153-.154t.157-.14.16-.123.163-.108.166-.092.168-.075.169-.059.17-.042.172-.025.171-.008.172.008.171.025.17.042.17.06q.084.033.168.074.083.042.165.092.083.05.163.108.081.058.16.123.08.066.158.14.077.073.153.154t.15.17.145.183.14.198q.07.103.136.212t.13.224.124.237.119.249.112.26.106.27q.05.139.098.282t.092.29q.045.147.085.299.04.151.077.307.037.155.07.314t.062.32.054.327.045.33.038.336.03.339.02.34.013.343.004.344"/></clipPath><g clip-path="url(#b)"><path fill="#eee" d="M51.594 53.094q0 .172-.017.343-.017.17-.05.34-.034.168-.084.333-.05.164-.115.323-.066.159-.147.31-.081.152-.177.295t-.204.276-.231.254-.255.231-.275.205-.295.176-.31.147q-.16.066-.324.116-.165.05-.333.083-.169.034-.34.05-.171.018-.343.018t-.343-.017-.34-.05q-.168-.034-.333-.084t-.323-.116q-.16-.066-.31-.147-.153-.08-.295-.176-.143-.096-.276-.205t-.255-.23-.23-.255-.205-.276-.177-.295q-.08-.151-.147-.31-.065-.159-.115-.323-.05-.165-.084-.334-.033-.168-.05-.34-.017-.17-.017-.342t.017-.343.05-.34q.034-.169.084-.333.05-.165.115-.324.066-.159.147-.31.081-.152.177-.295t.204-.276.231-.254.255-.231.276-.205q.142-.095.294-.176t.31-.147q.16-.066.324-.116.165-.05.333-.083.169-.034.34-.05.171-.017.343-.017t.343.016.34.05.333.084.323.116.31.147q.153.08.296.176.142.096.275.205.133.11.255.23.121.122.23.255t.205.276.177.295.147.31q.065.159.115.324.05.164.084.333.033.168.05.34.017.17.017.343"/></g><path fill="none" stroke="#111" stroke-linecap="round" stroke-linejoin="round" stroke-width=".5" d="M3 0q0 .147-.014.294t-.044.291-.071.286q-.043.14-.1.277-.056.136-.125.266-.07.13-.152.253-.081.122-.175.236t-.198.218-.218.198-.236.175-.253.152q-.13.07-.266.126t-.277.099-.286.071q-.144.03-.29.044Q.146 3 0 3t-.294-.014q-.147-.015-.291-.044-.145-.028-.286-.071t-.277-.1-.266-.125-.253-.152-.236-.175q-.114-.093-.218-.198-.105-.104-.198-.218t-.175-.236-.152-.253-.126-.266-.098-.277-.071-.286-.044-.29Q-3 .146-3 0t.014-.294q.015-.147.044-.291.028-.145.071-.286t.1-.277.125-.266.152-.253.175-.236q.093-.114.198-.218.104-.105.218-.198t.236-.175.253-.152.266-.126.277-.099.286-.071q.144-.03.29-.044Q-.146-3 0-3t.294.014q.147.015.291.044.145.028.286.071t.277.1.266.125.253.152.236.175q.114.093.218.198.105.104.198.218t.175.236.152.253.126.266.099.277.071.286q.03.144.044.29Q3-.146 3 0" transform="matrix(1.16667 0 0 2.33333 46.833 49.167)"/><path fill="#111" d="M66.667 49.167q0 .344-.017.686t-.05.68-.084.666-.116.646-.147.621q-.08.304-.176.59t-.205.551-.23.51-.255.46q-.133.219-.276.41t-.294.353-.31.294-.324.231-.333.167q-.17.067-.34.101-.171.034-.343.034t-.343-.034-.34-.1-.333-.168-.324-.231-.31-.294-.295-.353-.276-.41-.254-.46-.23-.51q-.11-.265-.205-.551-.096-.286-.177-.59-.081-.303-.147-.62-.066-.318-.116-.647-.05-.33-.083-.667-.034-.337-.05-.68-.017-.341-.017-.685t.017-.686q.016-.343.05-.68.033-.337.083-.666.05-.33.116-.647.066-.318.147-.621t.177-.59q.095-.285.204-.551.11-.266.23-.509.122-.243.255-.461t.276-.41.295-.353.31-.293.324-.232.333-.167.34-.1.343-.034.343.033.34.101.333.167q.164.1.323.232.159.131.31.293.152.162.295.353t.276.41.255.461.23.509.205.552.176.589.147.62q.066.319.116.648t.083.666q.034.337.05.68.018.342.018.686"/><clipPath id="c"><path d="M66.667 49.167q0 .172-.005.343-.004.172-.012.343-.009.17-.021.34t-.03.34q-.016.168-.037.334-.021.167-.046.332-.025.164-.054.326t-.062.32q-.033.16-.07.315-.036.155-.077.306-.04.152-.084.3-.044.147-.092.29t-.1.28q-.05.139-.105.271-.054.133-.112.26-.058.128-.119.25-.06.12-.124.236-.063.116-.13.225-.066.109-.135.211-.07.102-.14.198-.072.095-.146.184-.074.088-.15.17-.075.08-.153.154-.078.073-.157.139-.08.066-.16.123-.081.058-.163.108-.083.05-.166.092t-.167.075-.17.059-.17.042-.172.025-.171.009-.172-.009-.171-.025-.17-.042q-.086-.025-.17-.059t-.168-.075-.165-.092q-.083-.05-.164-.108-.08-.057-.16-.123t-.157-.14q-.078-.073-.153-.154-.076-.08-.15-.17-.073-.088-.145-.183-.071-.096-.14-.198t-.136-.211-.13-.225-.124-.237-.119-.248-.112-.26-.106-.271q-.05-.139-.098-.281t-.092-.29q-.045-.148-.085-.3-.04-.151-.077-.306-.037-.156-.07-.315-.033-.158-.062-.32t-.054-.326-.045-.331q-.021-.167-.038-.336-.017-.168-.03-.338t-.02-.341-.013-.343q-.004-.171-.004-.343t.004-.344.013-.343q.008-.17.02-.34t.03-.339.038-.335.045-.331.054-.327q.03-.161.062-.32.033-.159.07-.314.036-.156.077-.307.04-.152.085-.3.044-.146.092-.29.047-.142.098-.28t.106-.271.112-.26q.058-.128.119-.25.06-.12.124-.236t.13-.224q.067-.11.136-.212t.14-.198q.072-.095.145-.183.074-.089.15-.17.075-.08.153-.154t.157-.14.16-.123.164-.108q.082-.05.165-.092.084-.041.168-.075t.17-.059q.084-.025.17-.042.085-.017.17-.025.087-.008.173-.008t.171.008.172.025.17.042q.085.026.17.06.084.033.167.074.083.042.166.092.082.05.163.108.08.058.16.123.08.066.157.14.078.073.154.154.075.081.149.17.074.088.145.183.072.096.14.198.07.103.136.212.067.109.13.224.064.115.124.237.061.121.119.249.058.127.112.26.055.133.106.27.051.139.099.282.047.143.092.29.044.147.084.299.04.151.078.307.036.155.07.314.032.159.061.32.029.162.054.327.025.164.046.33.02.167.037.336t.03.339.02.34q.01.172.013.343.005.172.005.344"/></clipPath><g clip-path="url(#c)"><path fill="#eee" d="M67.927 53.094q0 .172-.016.343-.017.17-.05.34-.034.168-.084.333-.05.164-.116.323t-.147.31q-.08.152-.176.295t-.205.276q-.11.133-.23.254-.122.122-.255.231t-.276.205-.295.176-.31.147-.324.116-.333.083q-.168.034-.34.05-.17.018-.343.018-.172 0-.343-.017-.17-.017-.34-.05-.168-.034-.333-.084-.164-.05-.323-.116t-.31-.147-.295-.176-.276-.205-.254-.23-.231-.255q-.11-.133-.205-.276t-.176-.295-.147-.31-.116-.323-.083-.334q-.034-.168-.05-.34-.018-.17-.018-.342t.017-.343.05-.34q.034-.169.084-.333.05-.165.116-.324t.147-.31.176-.295.205-.276.23-.254.255-.231q.133-.109.276-.205t.295-.176.31-.147.323-.116.334-.083.34-.05.342-.017.343.016.34.05.333.084q.165.05.324.116t.31.147.295.176.276.205.254.23q.122.122.231.255t.205.276.176.295.147.31.116.324.083.333.05.34q.017.17.017.343"/></g><path fill="none" stroke="#111" stroke-linecap="round" stroke-linejoin="round" stroke-width=".5" d="M3 0q0 .147-.014.294t-.044.291-.071.286q-.043.14-.1.277-.056.136-.125.266-.07.13-.152.253-.081.122-.175.236t-.198.218-.218.198-.236.175-.253.152q-.13.07-.266.126t-.277.099-.286.071q-.144.03-.29.044Q.146 3 0 3t-.294-.014q-.147-.015-.291-.044-.145-.028-.286-.071t-.277-.1-.266-.125-.253-.152-.236-.175q-.114-.093-.218-.198-.105-.104-.198-.218t-.175-.236-.152-.253-.126-.266-.098-.277-.071-.286-.044-.29Q-3 .146-3 0t.014-.294q.015-.147.044-.291.028-.145.071-.286t.1-.277.125-.266.152-.253.175-.236q.093-.114.198-.218.104-.105.218-.198t.236-.175.253-.152.266-.126.277-.099.286-.071q.144-.03.29-.044Q-.146-3 0-3t.294.014q.147.015.291.044.145.028.286.071t.277.1.266.125.253.152.236.175q.114.093.218.198.105.104.198.218t.175.236.152.253.126.266.099.277.071.286q.03.144.044.29Q3-.146 3 0" transform="matrix(1.16667 0 0 2.33333 63.167 49.167)"/><path fill="none" stroke="#111" stroke-linecap="round" stroke-linejoin="round" stroke-width="1.75" d="M48 66.667q7-3.5 14 0"/></g></svg>