<svg xmlns="http://www.w3.org/2000/svg" width="110" height="110"><clipPath id="a"><path d="M13.333 9.167h83.334q4.166 0 4.166 4.166v83.334q0 4.166-4.166 4.166H13.333q-4.166 0-4.166-4.166V13.333q0-4.166 4.166-4.166"/></clipPath><g clip-path="url(#a)"><path fill="#d5c7a6" d="m31.901 31.901 31.554-8.455 23.099 23.1-8.455 31.553-31.554 8.455-23.099-23.1z"/><path fill="none" stroke="#d5c7a6" stroke-linejoin="round" stroke-width="7" d="m31.901 31.901 31.554-8.455 23.099 23.1-8.455 31.553-31.554 8.455-23.099-23.1z"/><path fill="#bfb295" d="m40.15 40.15 20.285-5.434 14.85 14.849-5.436 20.284-20.284 5.435-14.85-14.849z"/><path fill="none" stroke="#bfb295" stroke-linejoin="round" stroke-width="7" d="m40.15 40.15 20.285-5.434 14.85 14.849-5.436 20.284-20.284 5.435-14.85-14.849z"/><path fill="#a99e84" d="m48.4 48.4 9.016-2.415 6.6 6.6L61.6 61.6l-9.016 2.415-6.6-6.6z"/><path fill="none" stroke="#a99e84" stroke-linejoin="round" stroke-width="7" d="m48.4 48.4 9.016-2.415 6.6 6.6L61.6 61.6l-9.016 2.415-6.6-6.6z"/></g></svg>