<svg xmlns="http://www.w3.org/2000/svg" width="110" height="110"><path fill="#111" fill-rule="evenodd" d="M45.824 62.82q.053.16.13.308.077.15.177.284.099.135.218.253.12.118.255.216.136.098.286.174t.309.127.325.078.333.026q.105 0 .21-.01t.208-.031.204-.052q.1-.03.198-.07.097-.04.19-.09t.18-.108.17-.126q.08-.066.155-.14t.142-.157.125-.169q.058-.087.108-.18t.09-.19.07-.198q.031-.1.052-.204t.03-.208.011-.21q0-22.316-14.913-37.23-.119-.118-.254-.217-.136-.098-.285-.175-.15-.076-.309-.128t-.324-.08-.333-.027q-.168 0-.334.024-.165.026-.325.076t-.31.126q-.094.047-.183.103-.09.056-.172.12-.084.065-.16.138-.076.072-.145.152-.07.08-.13.165-.061.086-.113.178-.052.09-.095.187-.043.096-.076.196-.034.1-.057.203-.023.102-.037.207-.013.104-.016.21-.002.105.005.21t.025.208.046.206.065.2.085.192q7.075 14.15 14.17 35.434M64.176 62.82q-.053.16-.13.308-.077.15-.177.284-.099.135-.218.253-.12.118-.255.216-.136.098-.286.174t-.309.127-.325.078-.333.026q-.105 0-.21-.01t-.208-.031-.204-.052q-.1-.03-.198-.07-.097-.04-.19-.09t-.18-.108-.17-.126q-.08-.066-.155-.14t-.142-.157-.125-.169q-.058-.087-.108-.18t-.09-.19-.07-.198q-.031-.1-.052-.204t-.03-.208-.011-.21q0-22.316 14.913-37.23.119-.118.254-.217.136-.098.285-.175.15-.076.309-.128t.324-.08.333-.027q.168 0 .334.024.165.026.325.076t.31.126q.094.047.183.103.09.056.172.12.084.065.16.138.076.072.145.152.07.08.13.165.061.086.113.178.052.09.095.187.043.096.076.196.034.1.057.203.023.102.037.207.013.104.016.21.002.105-.005.21t-.025.208-.046.206-.065.2-.085.192q-7.075 14.15-14.17 35.434"/></svg>