<svg xmlns="http://www.w3.org/2000/svg" width="110" height="110"><path fill="#fff0b8" d="M72.607 47.857q0 .585-.021 1.169t-.064 1.166-.105 1.16-.148 1.152-.19 1.141-.23 1.127-.271 1.11-.311 1.091-.35 1.07-.389 1.043-.426 1.018-.462.988-.498.955-.532.922-.564.886-.596.846-.626.807-.654.763-.681.72-.707.673-.73.625q-.37.301-.752.577-.381.275-.772.525-.39.25-.79.474t-.806.42q-.407.198-.82.368-.415.17-.834.312-.42.142-.843.256-.424.114-.852.2-.427.086-.857.143t-.862.086-.864.029-.864-.03-.862-.085-.857-.143-.852-.2-.843-.256q-.42-.142-.833-.312-.414-.17-.82-.367-.408-.197-.807-.42-.4-.225-.79-.475t-.772-.525-.752-.577-.73-.625-.707-.673q-.347-.349-.68-.72-.335-.37-.655-.763t-.626-.807-.596-.846-.564-.886-.532-.922q-.258-.47-.498-.955-.24-.487-.462-.988-.222-.502-.426-1.018-.204-.515-.389-1.044-.184-.529-.35-1.069t-.31-1.09q-.147-.551-.272-1.11-.125-.56-.23-1.128t-.19-1.14-.148-1.153-.105-1.16-.064-1.166-.021-1.169.021-1.169.064-1.166.105-1.16.148-1.152.19-1.141.23-1.127.271-1.11.311-1.091.35-1.069.389-1.044.426-1.018.462-.987.498-.956.532-.922.564-.885q.29-.434.596-.847.306-.414.626-.806t.654-.764.681-.72q.348-.348.707-.673.36-.325.73-.625t.752-.576.772-.526.79-.474.806-.42q.407-.198.82-.368.415-.17.834-.311.42-.142.843-.257.424-.114.852-.2.427-.085.857-.143t.862-.086.864-.028.864.028.862.086q.43.058.857.144.428.085.852.2.424.114.843.256.42.142.833.311.414.17.82.367.408.197.807.421t.79.474q.39.25.772.526.381.275.752.576.37.3.73.625t.707.674.68.719q.335.37.655.764.32.392.626.806.306.413.596.847.29.433.564.885.275.452.532.922.258.47.498.956t.462.987.426 1.018.389 1.044q.184.529.35 1.069t.31 1.09q.147.552.272 1.111.125.56.23 1.127t.19 1.14.148 1.153.105 1.16.064 1.166.021 1.17"/><path fill="none" stroke="#cfc295" stroke-linejoin="round" stroke-width="4.28571" d="M72.607 47.857q0 .585-.021 1.169t-.064 1.166-.105 1.16-.148 1.152-.19 1.141-.23 1.127-.271 1.11-.311 1.091-.35 1.07-.389 1.043-.426 1.018-.462.988-.498.955-.532.922-.564.886-.596.846-.626.807-.654.763-.681.72-.707.673-.73.625q-.37.301-.752.577-.381.275-.772.525-.39.25-.79.474t-.806.42q-.407.198-.82.368-.415.17-.834.312-.42.142-.843.256-.424.114-.852.2-.427.086-.857.143t-.862.086-.864.029-.864-.03-.862-.085-.857-.143-.852-.2-.843-.256q-.42-.142-.833-.312-.414-.17-.82-.367-.408-.197-.807-.42-.4-.225-.79-.475t-.772-.525-.752-.577-.73-.625-.707-.673q-.347-.349-.68-.72-.335-.37-.655-.763t-.626-.807-.596-.846-.564-.886-.532-.922q-.258-.47-.498-.955-.24-.487-.462-.988-.222-.502-.426-1.018-.204-.515-.389-1.044-.184-.529-.35-1.069t-.31-1.09q-.147-.551-.272-1.11-.125-.56-.23-1.128t-.19-1.14-.148-1.153-.105-1.16-.064-1.166-.021-1.169.021-1.169.064-1.166.105-1.16.148-1.152.19-1.141.23-1.127.271-1.11.311-1.091.35-1.069.389-1.044.426-1.018.462-.987.498-.956.532-.922.564-.885q.29-.434.596-.847.306-.414.626-.806t.654-.764.681-.72q.348-.348.707-.673.36-.325.73-.625t.752-.576.772-.526.79-.474.806-.42q.407-.198.82-.368.415-.17.834-.311.42-.142.843-.257.424-.114.852-.2.427-.085.857-.143t.862-.086.864-.028.864.028.862.086q.43.058.857.144.428.085.852.2.424.114.843.256.42.142.833.311.414.17.82.367.408.197.807.421t.79.474q.39.25.772.526.381.275.752.576.37.3.73.625t.707.674.68.719q.335.37.655.764.32.392.626.806.306.413.596.847.29.433.564.885.275.452.532.922.258.47.498.956t.462.987.426 1.018.389 1.044q.184.529.35 1.069t.31 1.09q.147.552.272 1.111.125.56.23 1.127t.19 1.14.148 1.153.105 1.16.064 1.166.021 1.17"/></svg>