<svg xmlns="http://www.w3.org/2000/svg" width="110" height="110"><path fill="#fff0b8" d="M75.036 47.857q0 .666-.024 1.33-.025.665-.073 1.327t-.12 1.32q-.072.659-.168 1.311-.096.653-.216 1.299t-.262 1.282-.308 1.263-.354 1.242q-.189.614-.399 1.216-.21.601-.442 1.188t-.485 1.158-.526 1.124-.566 1.088-.605 1.049-.643 1.007-.678.964q-.347.47-.712.917-.364.447-.744.87-.38.421-.776.818-.395.396-.804.766t-.83.712-.856.656-.879.598-.899.539-.917.479-.934.417-.948.355-.96.291-.968.228-.976.163-.98.098-.984.032-.983-.032-.98-.098-.977-.163-.969-.228-.96-.291q-.476-.162-.947-.355-.47-.193-.934-.417-.463-.224-.917-.48-.455-.254-.9-.538-.444-.285-.878-.598-.434-.314-.855-.656-.422-.342-.831-.712-.41-.37-.804-.766-.395-.397-.776-.819-.38-.422-.744-.869-.365-.447-.712-.917-.348-.47-.678-.964-.33-.493-.643-1.007-.312-.515-.605-1.05-.293-.534-.566-1.087t-.526-1.124-.485-1.158-.442-1.188q-.21-.602-.399-1.216-.188-.615-.354-1.242-.165-.626-.308-1.263t-.262-1.282q-.12-.646-.216-1.299t-.168-1.31-.12-1.32q-.048-.663-.073-1.328-.024-.664-.024-1.33 0-.665.024-1.33.025-.665.073-1.327t.12-1.32q.072-.659.168-1.311.096-.653.216-1.298.12-.646.262-1.283t.308-1.263.354-1.241q.189-.615.399-1.217.21-.601.442-1.188t.485-1.158.526-1.124.566-1.088.605-1.048.643-1.008.678-.964q.347-.47.712-.917.364-.447.744-.869t.776-.819.804-.766.83-.711.856-.656.879-.598.899-.54.917-.478.934-.418q.47-.193.948-.355.477-.161.96-.291.482-.13.968-.228.487-.097.976-.162.49-.066.98-.098.492-.033.984-.033t.983.033.98.098q.49.065.977.162.486.098.969.228.482.13.96.291.476.162.947.355.47.193.934.418.463.224.917.478.455.255.9.54.444.284.878.598.434.313.855.656.422.342.831.711.41.37.804.766.395.397.776.819.38.422.744.87.365.446.712.916.348.471.678.964t.643 1.008.605 1.048.566 1.088.526 1.124.485 1.158.442 1.188.399 1.217q.188.614.354 1.241t.308 1.263q.143.637.262 1.283t.216 1.298.168 1.31.12 1.321.073 1.327.024 1.33"/><path fill="none" stroke="#cfc295" stroke-linejoin="round" stroke-width="4.28571" d="M75.036 47.857q0 .666-.024 1.33-.025.665-.073 1.327t-.12 1.32q-.072.659-.168 1.311-.096.653-.216 1.299t-.262 1.282-.308 1.263-.354 1.242q-.189.614-.399 1.216-.21.601-.442 1.188t-.485 1.158-.526 1.124-.566 1.088-.605 1.049-.643 1.007-.678.964q-.347.47-.712.917-.364.447-.744.87-.38.421-.776.818-.395.396-.804.766t-.83.712-.856.656-.879.598-.899.539-.917.479-.934.417-.948.355-.96.291-.968.228-.976.163-.98.098-.984.032-.983-.032-.98-.098-.977-.163-.969-.228-.96-.291q-.476-.162-.947-.355-.47-.193-.934-.417-.463-.224-.917-.48-.455-.254-.9-.538-.444-.285-.878-.598-.434-.314-.855-.656-.422-.342-.831-.712-.41-.37-.804-.766-.395-.397-.776-.819-.38-.422-.744-.869-.365-.447-.712-.917-.348-.47-.678-.964-.33-.493-.643-1.007-.312-.515-.605-1.05-.293-.534-.566-1.087t-.526-1.124-.485-1.158-.442-1.188q-.21-.602-.399-1.216-.188-.615-.354-1.242-.165-.626-.308-1.263t-.262-1.282q-.12-.646-.216-1.299t-.168-1.31-.12-1.32q-.048-.663-.073-1.328-.024-.664-.024-1.33 0-.665.024-1.33.025-.665.073-1.327t.12-1.32q.072-.659.168-1.311.096-.653.216-1.298.12-.646.262-1.283t.308-1.263.354-1.241q.189-.615.399-1.217.21-.601.442-1.188t.485-1.158.526-1.124.566-1.088.605-1.048.643-1.008.678-.964q.347-.47.712-.917.364-.447.744-.869t.776-.819.804-.766.83-.711.856-.656.879-.598.899-.54.917-.478.934-.418q.47-.193.948-.355.477-.161.96-.291.482-.13.968-.228.487-.097.976-.162.49-.066.98-.098.492-.033.984-.033t.983.033.98.098q.49.065.977.162.486.098.969.228.482.13.96.291.476.162.947.355.47.193.934.418.463.224.917.478.455.255.9.54.444.284.878.598.434.313.855.656.422.342.831.711.41.37.804.766.395.397.776.819.38.422.744.87.365.446.712.916.348.471.678.964t.643 1.008.605 1.048.566 1.088.526 1.124.485 1.158.442 1.188.399 1.217q.188.614.354 1.241t.308 1.263q.143.637.262 1.283t.216 1.298.168 1.31.12 1.321.073 1.327.024 1.33"/></svg>