<svg xmlns="http://www.w3.org/2000/svg" width="110" height="110"><path fill="#fff0b8" d="M71.393 47.857q0 .545-.02 1.088-.02.544-.06 1.086t-.098 1.08-.137 1.073-.176 1.062-.215 1.05-.252 1.033-.29 1.015-.326.996-.362.972-.396.947-.43.92-.464.89-.495.858-.526.824-.555.789-.582.75-.61.711q-.31.346-.634.67-.323.324-.658.627-.334.302-.68.582-.345.28-.7.537-.354.257-.718.49t-.736.44q-.372.209-.75.392-.38.184-.764.342-.386.158-.776.29t-.785.239-.793.186-.798.133q-.4.053-.803.08-.402.027-.804.027t-.804-.027-.803-.08-.798-.133-.793-.186-.785-.24-.776-.29q-.385-.157-.764-.34-.378-.184-.75-.393-.372-.208-.736-.44-.364-.233-.719-.49-.354-.257-.7-.537-.345-.28-.68-.582-.334-.303-.657-.627t-.635-.67-.609-.71-.582-.751q-.285-.385-.555-.789-.27-.403-.526-.824-.255-.42-.495-.858-.24-.437-.463-.89t-.43-.92-.397-.947-.362-.972q-.172-.493-.326-.996t-.29-1.015-.252-1.034-.215-1.049-.176-1.062-.137-1.073q-.06-.538-.099-1.08t-.06-1.086q-.019-.543-.019-1.088 0-.544.02-1.088t.06-1.086.098-1.08.137-1.073.176-1.062.215-1.049.252-1.034q.136-.512.29-1.015t.326-.995q.172-.493.362-.973t.396-.947.43-.92.464-.89q.24-.437.495-.858.255-.42.526-.824.27-.403.555-.788.284-.385.582-.751t.61-.711.634-.67.658-.627.68-.582.7-.537.718-.489.736-.441.75-.392.764-.341q.386-.158.776-.29.39-.133.785-.24.395-.105.793-.185t.798-.134.803-.08q.402-.026.804-.026t.804.026.803.08q.4.054.798.134t.793.186.785.238q.39.133.776.29.385.159.764.342.378.183.75.392.372.208.736.441t.719.49q.354.256.7.536.345.28.68.582.334.303.657.627t.635.67.609.71q.298.367.582.752.285.385.555.788t.526.824.495.858.463.89.43.92q.208.467.397.947t.362.973q.172.492.326.995t.29 1.015.252 1.034.215 1.05.176 1.061.137 1.073.099 1.08.06 1.086.019 1.088"/><path fill="none" stroke="#cfc295" stroke-linejoin="round" stroke-width="4.28571" d="M71.393 47.857q0 .545-.02 1.088-.02.544-.06 1.086t-.098 1.08-.137 1.073-.176 1.062-.215 1.05-.252 1.033-.29 1.015-.326.996-.362.972-.396.947-.43.92-.464.89-.495.858-.526.824-.555.789-.582.75-.61.711q-.31.346-.634.67-.323.324-.658.627-.334.302-.68.582-.345.28-.7.537-.354.257-.718.49t-.736.44q-.372.209-.75.392-.38.184-.764.342-.386.158-.776.29t-.785.239-.793.186-.798.133q-.4.053-.803.08-.402.027-.804.027t-.804-.027-.803-.08-.798-.133-.793-.186-.785-.24-.776-.29q-.385-.157-.764-.34-.378-.184-.75-.393-.372-.208-.736-.44-.364-.233-.719-.49-.354-.257-.7-.537-.345-.28-.68-.582-.334-.303-.657-.627t-.635-.67-.609-.71-.582-.751q-.285-.385-.555-.789-.27-.403-.526-.824-.255-.42-.495-.858-.24-.437-.463-.89t-.43-.92-.397-.947-.362-.972q-.172-.493-.326-.996t-.29-1.015-.252-1.034-.215-1.049-.176-1.062-.137-1.073q-.06-.538-.099-1.08t-.06-1.086q-.019-.543-.019-1.088 0-.544.02-1.088t.06-1.086.098-1.08.137-1.073.176-1.062.215-1.049.252-1.034q.136-.512.29-1.015t.326-.995q.172-.493.362-.973t.396-.947.43-.92.464-.89q.24-.437.495-.858.255-.42.526-.824.27-.403.555-.788.284-.385.582-.751t.61-.711.634-.67.658-.627.68-.582.7-.537.718-.489.736-.441.75-.392.764-.341q.386-.158.776-.29.39-.133.785-.24.395-.105.793-.185t.798-.134.803-.08q.402-.026.804-.026t.804.026.803.08q.4.054.798.134t.793.186.785.238q.39.133.776.29.385.159.764.342.378.183.75.392.372.208.736.441t.719.49q.354.256.7.536.345.28.68.582.334.303.657.627t.635.67.609.71q.298.367.582.752.285.385.555.788t.526.824.495.858.463.89.43.92q.208.467.397.947t.362.973q.172.492.326.995t.29 1.015.252 1.034.215 1.05.176 1.061.137 1.073.099 1.08.06 1.086.019 1.088"/></svg>