<svg xmlns="http://www.w3.org/2000/svg" width="110" height="110"><path fill="#fff0b8" d="M72 47.857q0 .565-.02 1.129-.021.564-.062 1.125-.04.562-.102 1.12-.061.56-.143 1.113-.081.554-.182 1.102-.102.547-.223 1.088-.121.54-.262 1.072-.14.531-.3 1.053t-.338 1.032q-.179.51-.375 1.008-.197.498-.412.982-.214.485-.446.954-.232.47-.48.923-.25.454-.514.89-.265.437-.545.855t-.575.818-.605.778q-.309.38-.631.737-.323.359-.658.695t-.682.65-.705.604-.726.556q-.368.266-.746.508-.377.241-.762.457-.386.216-.779.407t-.792.354-.804.3-.814.248-.823.193-.828.138-.832.083-.834.028-.834-.028-.832-.083-.828-.138-.823-.193-.814-.247-.804-.301-.792-.354-.779-.407q-.385-.216-.762-.457-.378-.242-.746-.508t-.726-.556-.705-.604q-.347-.314-.682-.65t-.658-.695-.631-.737-.605-.778-.575-.818-.545-.855-.514-.89-.48-.923-.446-.954-.412-.982-.375-1.008-.338-1.032-.3-1.053-.262-1.072-.223-1.088-.182-1.102-.143-1.112-.102-1.12-.062-1.126-.02-1.129.02-1.128.062-1.126q.04-.562.102-1.12.061-.56.143-1.113.081-.554.182-1.101.102-.548.223-1.088t.262-1.072q.14-.532.3-1.054.16-.521.338-1.032.179-.51.375-1.008.197-.498.412-.982.214-.485.446-.954.232-.47.48-.923.25-.453.514-.89.265-.436.545-.855.28-.418.575-.817.295-.4.605-.779.309-.379.631-.737.323-.358.658-.695t.682-.65.705-.604.726-.556.746-.508.762-.457.779-.406.792-.354.804-.302.814-.247.823-.193.828-.138.832-.083.834-.028.834.028.832.083.828.138.823.193.814.247.804.302.792.354.779.406.762.457q.378.242.746.508t.726.556.705.604q.347.314.682.65.335.337.658.695.322.358.631.737.31.38.605.779t.575.817q.28.419.545.855.265.437.514.89.248.454.48.923t.446.954q.215.484.412.982t.375 1.008.338 1.032.3 1.054q.14.531.262 1.072.121.54.223 1.088.101.547.182 1.101.082.554.143 1.112.061.559.102 1.12.041.563.062 1.127.02.563.02 1.128"/><path fill="none" stroke="#cfc295" stroke-linejoin="round" stroke-width="4.28571" d="M72 47.857q0 .565-.02 1.129-.021.564-.062 1.125-.04.562-.102 1.12-.061.56-.143 1.113-.081.554-.182 1.102-.102.547-.223 1.088-.121.54-.262 1.072-.14.531-.3 1.053t-.338 1.032q-.179.51-.375 1.008-.197.498-.412.982-.214.485-.446.954-.232.47-.48.923-.25.454-.514.89-.265.437-.545.855t-.575.818-.605.778q-.309.38-.631.737-.323.359-.658.695t-.682.65-.705.604-.726.556q-.368.266-.746.508-.377.241-.762.457-.386.216-.779.407t-.792.354-.804.3-.814.248-.823.193-.828.138-.832.083-.834.028-.834-.028-.832-.083-.828-.138-.823-.193-.814-.247-.804-.301-.792-.354-.779-.407q-.385-.216-.762-.457-.378-.242-.746-.508t-.726-.556-.705-.604q-.347-.314-.682-.65t-.658-.695-.631-.737-.605-.778-.575-.818-.545-.855-.514-.89-.48-.923-.446-.954-.412-.982-.375-1.008-.338-1.032-.3-1.053-.262-1.072-.223-1.088-.182-1.102-.143-1.112-.102-1.12-.062-1.126-.02-1.129.02-1.128.062-1.126q.04-.562.102-1.12.061-.56.143-1.113.081-.554.182-1.101.102-.548.223-1.088t.262-1.072q.14-.532.3-1.054.16-.521.338-1.032.179-.51.375-1.008.197-.498.412-.982.214-.485.446-.954.232-.47.48-.923.25-.453.514-.89.265-.436.545-.855.28-.418.575-.817.295-.4.605-.779.309-.379.631-.737.323-.358.658-.695t.682-.65.705-.604.726-.556.746-.508.762-.457.779-.406.792-.354.804-.302.814-.247.823-.193.828-.138.832-.083.834-.028.834.028.832.083.828.138.823.193.814.247.804.302.792.354.779.406.762.457q.378.242.746.508t.726.556.705.604q.347.314.682.65.335.337.658.695.322.358.631.737.31.38.605.779t.575.817q.28.419.545.855.265.437.514.89.248.454.48.923t.446.954q.215.484.412.982t.375 1.008.338 1.032.3 1.054q.14.531.262 1.072.121.54.223 1.088.101.547.182 1.101.082.554.143 1.112.061.559.102 1.12.041.563.062 1.127.02.563.02 1.128"/></svg>