<svg xmlns="http://www.w3.org/2000/svg" width="110" height="110"><path fill="#fff0b8" d="M73.214 47.857q0 .605-.022 1.21-.022.603-.065 1.206-.044.602-.11 1.2-.065.598-.153 1.192-.087.593-.196 1.18-.108.587-.238 1.166-.13.578-.28 1.148t-.322 1.129-.362 1.105q-.192.547-.402 1.08-.211.534-.441 1.053t-.478 1.022-.515.989-.55.953-.584.916q-.3.449-.617.876-.316.428-.647.834-.331.407-.677.79t-.705.744q-.359.36-.73.697-.372.336-.756.647-.384.31-.778.596-.394.285-.798.544-.405.259-.818.49-.413.232-.834.435-.42.204-.849.38-.428.175-.861.322-.434.147-.873.265-.438.119-.88.207-.443.089-.888.148-.445.06-.891.09-.447.029-.894.029t-.894-.03q-.446-.03-.891-.089-.445-.06-.888-.148-.442-.088-.88-.207-.439-.118-.873-.265-.433-.147-.861-.322t-.85-.38-.833-.435-.818-.49-.798-.544q-.394-.285-.778-.596t-.755-.647-.731-.697-.705-.744-.677-.79-.647-.834q-.317-.427-.617-.876-.3-.448-.584-.916-.283-.467-.55-.953-.266-.486-.515-.99-.248-.502-.478-1.021t-.44-1.052q-.211-.534-.403-1.08-.19-.548-.362-1.106-.17-.56-.322-1.129-.15-.57-.28-1.148-.13-.58-.238-1.166-.11-.587-.196-1.18-.088-.594-.153-1.192-.066-.598-.11-1.2-.043-.603-.065-1.207t-.022-1.209.022-1.21.065-1.205q.044-.602.11-1.2.065-.6.153-1.192.087-.594.196-1.18.108-.587.238-1.166.13-.58.28-1.149t.322-1.128.362-1.106q.192-.547.402-1.08.211-.534.441-1.053t.478-1.022.515-.989.55-.953.584-.916.617-.876.647-.834.677-.79.705-.744.73-.697.756-.647.778-.596.798-.544q.405-.258.818-.49t.834-.435q.42-.204.849-.38.428-.175.861-.322.434-.147.873-.265.438-.118.88-.207.443-.089.888-.148.445-.06.891-.089.447-.03.894-.03t.894.03q.446.03.891.089.445.06.888.148.442.089.88.207.439.118.873.265.433.147.861.322t.85.38.833.435.818.49.798.544q.394.285.778.596t.755.647.731.697.705.744.677.79.647.834q.317.428.617.876t.584.916q.283.468.55.953.266.486.515.99.248.502.478 1.021t.44 1.053.403 1.08q.19.547.362 1.106.17.559.322 1.128.15.57.28 1.149t.238 1.165q.11.587.196 1.18.088.594.153 1.192.066.599.11 1.2.043.603.065 1.207t.022 1.21"/><path fill="none" stroke="#cfc295" stroke-linejoin="round" stroke-width="4.28571" d="M73.214 47.857q0 .605-.022 1.21-.022.603-.065 1.206-.044.602-.11 1.2-.065.598-.153 1.192-.087.593-.196 1.18-.108.587-.238 1.166-.13.578-.28 1.148t-.322 1.129-.362 1.105q-.192.547-.402 1.08-.211.534-.441 1.053t-.478 1.022-.515.989-.55.953-.584.916q-.3.449-.617.876-.316.428-.647.834-.331.407-.677.79t-.705.744q-.359.36-.73.697-.372.336-.756.647-.384.31-.778.596-.394.285-.798.544-.405.259-.818.49-.413.232-.834.435-.42.204-.849.38-.428.175-.861.322-.434.147-.873.265-.438.119-.88.207-.443.089-.888.148-.445.06-.891.09-.447.029-.894.029t-.894-.03q-.446-.03-.891-.089-.445-.06-.888-.148-.442-.088-.88-.207-.439-.118-.873-.265-.433-.147-.861-.322t-.85-.38-.833-.435-.818-.49-.798-.544q-.394-.285-.778-.596t-.755-.647-.731-.697-.705-.744-.677-.79-.647-.834q-.317-.427-.617-.876-.3-.448-.584-.916-.283-.467-.55-.953-.266-.486-.515-.99-.248-.502-.478-1.021t-.44-1.052q-.211-.534-.403-1.08-.19-.548-.362-1.106-.17-.56-.322-1.129-.15-.57-.28-1.148-.13-.58-.238-1.166-.11-.587-.196-1.18-.088-.594-.153-1.192-.066-.598-.11-1.2-.043-.603-.065-1.207t-.022-1.209.022-1.21.065-1.205q.044-.602.11-1.2.065-.6.153-1.192.087-.594.196-1.18.108-.587.238-1.166.13-.58.28-1.149t.322-1.128.362-1.106q.192-.547.402-1.08.211-.534.441-1.053t.478-1.022.515-.989.55-.953.584-.916.617-.876.647-.834.677-.79.705-.744.73-.697.756-.647.778-.596.798-.544q.405-.258.818-.49t.834-.435q.42-.204.849-.38.428-.175.861-.322.434-.147.873-.265.438-.118.88-.207.443-.089.888-.148.445-.06.891-.089.447-.03.894-.03t.894.03q.446.03.891.089.445.06.888.148.442.089.88.207.439.118.873.265.433.147.861.322t.85.38.833.435.818.49.798.544q.394.285.778.596t.755.647.731.697.705.744.677.79.647.834q.317.428.617.876t.584.916q.283.468.55.953.266.486.515.99.248.502.478 1.021t.44 1.053.403 1.08q.19.547.362 1.106.17.559.322 1.128.15.57.28 1.149t.238 1.165q.11.587.196 1.18.088.594.153 1.192.066.599.11 1.2.043.603.065 1.207t.022 1.21"/></svg>