<svg xmlns="http://www.w3.org/2000/svg" width="110" height="110"><path fill="#fff0b8" d="M70.786 47.857q0 .524-.02 1.048-.018.524-.056 1.045-.038.522-.095 1.04-.057.52-.133 1.034-.075.514-.17 1.022-.094.509-.206 1.01-.113.502-.243.996t-.279.978-.314.958-.348.937-.382.912q-.2.45-.415.885-.215.436-.446.858-.23.42-.476.826t-.507.794-.534.759q-.274.37-.561.723-.287.352-.587.684t-.61.645-.634.604-.655.56-.674.517-.692.472-.708.425q-.358.2-.723.377-.365.176-.736.329-.37.152-.746.28-.376.127-.756.229t-.764.18-.769.127-.772.078-.775.025-.775-.025-.772-.078-.77-.128-.763-.18q-.38-.101-.756-.229-.376-.127-.746-.28-.371-.152-.736-.328t-.723-.377-.708-.425-.692-.472-.674-.516-.655-.561-.634-.604q-.31-.312-.61-.645-.3-.332-.587-.684t-.561-.723-.534-.76-.507-.793q-.245-.405-.476-.826-.231-.422-.446-.858-.216-.435-.415-.885-.2-.45-.382-.912-.182-.463-.348-.937t-.314-.958-.279-.978q-.13-.494-.243-.995-.112-.502-.207-1.01-.094-.51-.17-1.023-.075-.515-.132-1.033-.057-.519-.095-1.04-.038-.522-.057-1.046t-.019-1.048.02-1.048q.018-.523.056-1.045t.095-1.04q.057-.52.133-1.033.075-.515.17-1.023.094-.509.206-1.01.113-.502.243-.996t.279-.978.314-.958.348-.937.382-.912q.2-.45.415-.885.215-.436.446-.857.23-.421.476-.827t.507-.793.534-.76.561-.722.587-.685.61-.645q.312-.312.634-.604.322-.291.655-.56.332-.27.674-.517.341-.247.692-.471.35-.225.708-.425t.723-.378q.365-.176.736-.328.37-.153.746-.28t.756-.23q.38-.102.764-.179.383-.077.769-.128.385-.052.772-.077T55 26.5q.388 0 .775.026t.772.077.77.128.763.18.756.229.746.28.736.328.723.378.708.425.692.47.674.518q.333.269.655.56t.634.604q.31.312.61.645.3.332.587.685.287.352.561.722.274.371.534.76.26.388.507.793.245.406.476.827t.446.857q.216.436.415.885.2.45.382.912.182.463.348.937t.314.958.279.978q.13.494.243.995.112.502.207 1.01.094.51.17 1.024.075.514.132 1.032.057.519.095 1.04.038.523.057 1.046.019.524.019 1.048"/><path fill="none" stroke="#cfc295" stroke-linejoin="round" stroke-width="4.28571" d="M70.786 47.857q0 .524-.02 1.048-.018.524-.056 1.045-.038.522-.095 1.04-.057.52-.133 1.034-.075.514-.17 1.022-.094.509-.206 1.01-.113.502-.243.996t-.279.978-.314.958-.348.937-.382.912q-.2.45-.415.885-.215.436-.446.858-.23.42-.476.826t-.507.794-.534.759q-.274.37-.561.723-.287.352-.587.684t-.61.645-.634.604-.655.56-.674.517-.692.472-.708.425q-.358.2-.723.377-.365.176-.736.329-.37.152-.746.28-.376.127-.756.229t-.764.18-.769.127-.772.078-.775.025-.775-.025-.772-.078-.77-.128-.763-.18q-.38-.101-.756-.229-.376-.127-.746-.28-.371-.152-.736-.328t-.723-.377-.708-.425-.692-.472-.674-.516-.655-.561-.634-.604q-.31-.312-.61-.645-.3-.332-.587-.684t-.561-.723-.534-.76-.507-.793q-.245-.405-.476-.826-.231-.422-.446-.858-.216-.435-.415-.885-.2-.45-.382-.912-.182-.463-.348-.937t-.314-.958-.279-.978q-.13-.494-.243-.995-.112-.502-.207-1.01-.094-.51-.17-1.023-.075-.515-.132-1.033-.057-.519-.095-1.04-.038-.522-.057-1.046t-.019-1.048.02-1.048q.018-.523.056-1.045t.095-1.04q.057-.52.133-1.033.075-.515.17-1.023.094-.509.206-1.01.113-.502.243-.996t.279-.978.314-.958.348-.937.382-.912q.2-.45.415-.885.215-.436.446-.857.23-.421.476-.827t.507-.793.534-.76.561-.722.587-.685.61-.645q.312-.312.634-.604.322-.291.655-.56.332-.27.674-.517.341-.247.692-.471.35-.225.708-.425t.723-.378q.365-.176.736-.328.37-.153.746-.28t.756-.23q.38-.102.764-.179.383-.077.769-.128.385-.052.772-.077T55 26.5q.388 0 .775.026t.772.077.77.128.763.18.756.229.746.28.736.328.723.378.708.425.692.47.674.518q.333.269.655.56t.634.604q.31.312.61.645.3.332.587.685.287.352.561.722.274.371.534.76.26.388.507.793.245.406.476.827t.446.857q.216.436.415.885.2.45.382.912.182.463.348.937t.314.958.279.978q.13.494.243.995.112.502.207 1.01.094.51.17 1.024.075.514.132 1.032.057.519.095 1.04.038.523.057 1.046.019.524.019 1.048"/></svg>