<svg xmlns="http://www.w3.org/2000/svg" width="110" height="110"><path fill="#fff0b8" d="M73.821 47.857q0 .625-.022 1.25-.023.624-.068 1.246t-.113 1.24q-.068.619-.158 1.232t-.203 1.22q-.112.606-.246 1.204t-.29 1.187-.332 1.166-.375 1.142q-.197.566-.415 1.117t-.455 1.087q-.238.537-.495 1.056-.256.52-.531 1.022-.276.502-.569.986-.293.483-.603.946t-.637.905-.67.862-.699.816-.728.77-.755.719-.78.669q-.397.32-.805.616-.407.294-.825.562-.417.267-.844.506-.427.24-.862.45t-.877.392q-.443.181-.89.333-.449.152-.902.274t-.91.214-.917.153q-.46.061-.921.092-.462.03-.924.03t-.924-.03q-.461-.03-.92-.092-.46-.061-.918-.153-.457-.092-.91-.214t-.901-.274-.89-.333-.878-.392-.862-.45q-.427-.24-.844-.506-.418-.268-.825-.562-.408-.295-.804-.616-.396-.322-.78-.67-.385-.346-.756-.719-.371-.372-.728-.769-.357-.396-.7-.816t-.669-.862-.637-.905-.603-.946q-.293-.484-.569-.986t-.531-1.022-.495-1.056-.455-1.087-.415-1.117-.375-1.142-.332-1.166q-.156-.589-.29-1.187t-.246-1.205-.203-1.22-.158-1.23-.113-1.241-.068-1.246q-.022-.625-.022-1.25t.022-1.25.068-1.246.113-1.24.158-1.232.203-1.22q.112-.606.246-1.204t.29-1.187.332-1.166.375-1.142.415-1.117.455-1.087.495-1.056q.256-.52.531-1.022.276-.502.569-.985t.603-.947.637-.905.67-.862q.342-.42.699-.816.357-.397.728-.769t.755-.72.78-.668.805-.616.825-.562.844-.507.862-.45.877-.392q.443-.181.89-.333.449-.152.902-.274t.91-.214.917-.153q.46-.06.921-.091.462-.031.924-.031t.924.03q.461.031.92.092.46.062.918.153.457.092.91.214t.901.274.89.333.878.392.862.45q.427.24.844.507.418.267.825.562.408.294.804.616.396.321.78.668.385.348.756.72t.728.769.7.816q.342.42.669.862.326.442.637.905.31.464.603.947t.569.985q.275.502.531 1.022.257.52.495 1.056.237.536.455 1.087.218.552.415 1.117.198.565.375 1.142.177.578.332 1.166.156.589.29 1.187t.246 1.205.203 1.22.158 1.23q.068.62.113 1.241t.068 1.247q.022.624.022 1.25"/><path fill="none" stroke="#cfc295" stroke-linejoin="round" stroke-width="4.28571" d="M73.821 47.857q0 .625-.022 1.25-.023.624-.068 1.246t-.113 1.24q-.068.619-.158 1.232t-.203 1.22q-.112.606-.246 1.204t-.29 1.187-.332 1.166-.375 1.142q-.197.566-.415 1.117t-.455 1.087q-.238.537-.495 1.056-.256.52-.531 1.022-.276.502-.569.986-.293.483-.603.946t-.637.905-.67.862-.699.816-.728.77-.755.719-.78.669q-.397.32-.805.616-.407.294-.825.562-.417.267-.844.506-.427.24-.862.45t-.877.392q-.443.181-.89.333-.449.152-.902.274t-.91.214-.917.153q-.46.061-.921.092-.462.03-.924.03t-.924-.03q-.461-.03-.92-.092-.46-.061-.918-.153-.457-.092-.91-.214t-.901-.274-.89-.333-.878-.392-.862-.45q-.427-.24-.844-.506-.418-.268-.825-.562-.408-.295-.804-.616-.396-.322-.78-.67-.385-.346-.756-.719-.371-.372-.728-.769-.357-.396-.7-.816t-.669-.862-.637-.905-.603-.946q-.293-.484-.569-.986t-.531-1.022-.495-1.056-.455-1.087-.415-1.117-.375-1.142-.332-1.166q-.156-.589-.29-1.187t-.246-1.205-.203-1.22-.158-1.23-.113-1.241-.068-1.246q-.022-.625-.022-1.25t.022-1.25.068-1.246.113-1.24.158-1.232.203-1.22q.112-.606.246-1.204t.29-1.187.332-1.166.375-1.142.415-1.117.455-1.087.495-1.056q.256-.52.531-1.022.276-.502.569-.985t.603-.947.637-.905.67-.862q.342-.42.699-.816.357-.397.728-.769t.755-.72.78-.668.805-.616.825-.562.844-.507.862-.45.877-.392q.443-.181.89-.333.449-.152.902-.274t.91-.214.917-.153q.46-.06.921-.091.462-.031.924-.031t.924.03q.461.031.92.092.46.062.918.153.457.092.91.214t.901.274.89.333.878.392.862.45q.427.24.844.507.418.267.825.562.408.294.804.616.396.321.78.668.385.348.756.72t.728.769.7.816q.342.42.669.862.326.442.637.905.31.464.603.947t.569.985q.275.502.531 1.022.257.52.495 1.056.237.536.455 1.087.218.552.415 1.117.198.565.375 1.142.177.578.332 1.166.156.589.29 1.187t.246 1.205.203 1.22.158 1.23q.068.62.113 1.241t.068 1.247q.022.624.022 1.25"/></svg>