<svg xmlns="http://www.w3.org/2000/svg" width="110" height="110"><path fill="#9c1010" d="M65 47.857q-8 3.464-15 8.66 1-8.66 0-17.32 7 5.196 15 8.66"/><path fill="#7e0d0d" d="M65.851 49.824q-7.772 3.365-14.574 8.414-.084.063-.175.117t-.185.1q-.095.044-.194.08-.1.035-.201.06-.103.026-.207.042-.104.015-.209.02t-.21 0q-.105-.004-.21-.02-.104-.015-.206-.04t-.201-.062-.194-.08-.186-.1-.175-.116-.162-.133-.15-.149-.133-.162q-.12-.163-.208-.345-.088-.183-.14-.378-.053-.196-.068-.397-.015-.202.008-.403.972-8.415 0-16.83-.012-.104-.014-.21-.001-.104.007-.21.009-.104.028-.208.018-.103.047-.205.03-.1.068-.199.038-.098.086-.191.049-.094.106-.183.057-.088.122-.17t.139-.159.153-.144.167-.128.178-.11.189-.094.197-.074.203-.055.207-.034q.201-.023.403-.008t.398.067.377.14q.183.089.345.21 6.802 5.048 14.574 8.414.097.042.19.093.091.05.178.11.086.06.167.129.08.068.153.143.073.076.139.158.065.083.122.171.058.089.106.182.048.094.087.192t.067.199q.03.101.048.205t.028.208q.008.105.007.21-.002.106-.014.21-.012.105-.034.208t-.055.203-.074.197q-.08.185-.194.353t-.257.31-.31.257-.354.195M64.15 45.89 65 47.857l-.851 1.967q-8.228-3.563-15.426-8.907L50 39.197l2.129-.246q1.028 8.906 0 17.812L50 56.517l-1.277-1.72q7.198-5.344 15.426-8.906"/></svg>