<svg xmlns="http://www.w3.org/2000/svg" width="110" height="110"><path fill="#9c1010" d="M59.286 47.857q8-3.464 15-8.66-1 8.66 0 17.32-7-5.196-15-8.66"/><path fill="#7e0d0d" d="M58.434 45.89q7.773-3.365 14.574-8.414.085-.063.175-.117t.186-.099.194-.08.201-.062.206-.04.21-.021.21 0 .21.02q.103.015.205.041.103.026.202.061t.194.08q.095.045.186.1.09.053.174.116.085.063.163.133t.149.15q.07.077.133.162.121.162.21.344.087.183.14.378.052.196.067.398t-.009.403q-.971 8.414 0 16.829.012.104.014.21.002.105-.007.21-.008.104-.027.208t-.048.205-.067.199-.087.192-.105.182q-.057.088-.122.17-.066.083-.139.159t-.153.144-.167.128q-.087.06-.179.11-.092.052-.188.094-.097.042-.197.074t-.203.055-.208.034q-.2.023-.402.008t-.398-.067-.378-.14q-.182-.088-.345-.209-6.8-5.049-14.574-8.414-.096-.042-.188-.093-.092-.052-.179-.111t-.167-.128-.153-.144q-.074-.076-.14-.158-.065-.082-.122-.17-.057-.09-.105-.183-.048-.094-.087-.192-.039-.097-.068-.199-.028-.1-.047-.204-.02-.104-.028-.209t-.007-.21q.002-.105.014-.21.012-.104.034-.207t.054-.204.074-.196q.08-.186.195-.354.113-.167.256-.31t.311-.257.353-.194m1.703 3.934-.851-1.967.851-1.966q8.227 3.562 15.426 8.906l-1.277 1.72-2.129.246q-1.028-8.906 0-17.812l2.129.246 1.277 1.72q-7.199 5.344-15.426 8.907"/><path fill="#9c1010" d="M56.324 51.933q5.767 6.538 12.872 11.59-8.545 1.725-16.473 5.352 2.779-8.263 3.601-16.942"/><path fill="#7e0d0d" d="M57.931 50.516q5.603 6.352 12.507 11.26.085.061.165.13.08.07.152.146.072.077.136.16t.12.173.103.183.085.193.065.2.045.205.025.209.004.21-.016.21-.037.207q-.024.102-.057.202-.034.1-.077.196t-.095.187-.114.178q-.117.165-.263.305t-.316.25-.357.187-.386.116q-8.303 1.676-16.005 5.2-.096.045-.195.079-.1.034-.202.058T53.01 71t-.21.018q-.105.003-.21-.003-.105-.007-.209-.023-.104-.017-.206-.044t-.2-.064-.193-.083-.185-.101-.173-.119-.16-.135-.148-.151-.131-.164-.115-.177-.096-.186q-.085-.184-.133-.381t-.059-.399q-.01-.202.017-.402.028-.201.092-.393 2.7-8.028 3.499-16.461.01-.105.03-.208t.05-.204.07-.199.09-.19.107-.18q.058-.089.125-.17.066-.082.14-.156.075-.075.156-.142.08-.067.168-.126t.18-.109q.093-.05.19-.09.097-.041.198-.072.1-.031.204-.052t.207-.032.21-.01.21.009q.202.019.396.075.195.057.375.149t.34.216.294.276m-3.214 2.835 1.607-1.418 2.134.202q-.846 8.926-3.704 17.423l-2.03-.683-.892-1.948q8.152-3.73 16.94-5.505l.424 2.1-1.242 1.747q-7.306-5.195-13.237-11.918"/><path fill="#9c1010" d="M51.533 50.376q-4.436 7.505-7.045 15.823-4.281-7.594-10.18-14.012 8.716.089 17.225-1.81"/><path fill="#7e0d0d" d="M53.377 51.467q-4.31 7.291-6.844 15.374-.032.1-.073.197t-.092.19-.11.179q-.059.086-.127.167-.067.081-.142.155-.075.073-.157.14-.082.065-.17.123t-.182.107-.19.088q-.098.039-.2.069-.1.03-.204.049t-.208.029q-.105.01-.21.008-.106 0-.21-.012-.105-.011-.208-.033t-.203-.053q-.194-.06-.372-.156t-.336-.223q-.157-.128-.288-.282-.13-.155-.23-.331-4.16-7.379-9.892-13.615-.07-.078-.134-.162-.063-.084-.118-.174t-.1-.185-.082-.193q-.037-.1-.063-.201t-.042-.206q-.016-.104-.022-.21-.006-.104-.002-.21.005-.105.02-.209t.039-.206.06-.202.079-.195.098-.186.115-.176.132-.163.148-.15q.15-.137.321-.244t.361-.179.388-.108q.2-.036.402-.034 8.47.087 16.737-1.76.103-.022.207-.035.105-.013.21-.015t.21.005.209.026.205.047.2.066.192.085.182.104q.09.057.172.122.083.064.16.137.075.073.144.153t.13.165.112.178q.051.092.094.188.042.097.075.197t.056.202q.044.198.05.4.007.203-.025.402-.031.2-.1.39-.069.191-.172.366m-3.689-2.181 1.845 1.09.467 2.092q-8.75 1.953-17.715 1.861l.022-2.142 1.578-1.45q6.067 6.6 10.47 14.41l-1.867 1.052-2.045-.64q2.683-8.555 7.245-16.273"/><path fill="#9c1010" d="M51.533 45.338q-8.509-1.9-17.226-1.81 5.9-6.419 10.18-14.013 2.61 8.318 7.046 15.823"/><path fill="#7e0d0d" d="M51.066 47.43q-8.267-1.846-16.737-1.76-.105.001-.21-.008t-.208-.029-.205-.049q-.1-.03-.199-.068-.097-.04-.19-.088-.094-.049-.182-.107t-.17-.123-.157-.14q-.076-.073-.143-.154-.068-.08-.127-.168-.06-.087-.11-.179t-.092-.19-.073-.196q-.032-.1-.053-.204-.022-.103-.033-.208-.012-.104-.013-.21-.002-.202.034-.401.036-.2.109-.388.072-.19.179-.361.106-.172.243-.322 5.732-6.236 9.892-13.614.052-.092.112-.178t.13-.166.144-.153.159-.138.172-.121.182-.104.193-.086.2-.066q.1-.028.204-.047.104-.018.209-.026t.21-.005.21.015.207.035.203.056.196.075.188.094q.177.1.331.23.155.131.282.288.128.158.223.336.096.179.157.372 2.534 8.082 6.844 15.374.054.09.098.186.045.095.08.195.035.099.06.201t.04.207.019.209-.002.21-.022.21q-.016.103-.042.205t-.062.201q-.036.1-.082.194-.045.095-.1.185t-.118.174-.134.162-.15.148-.163.132-.176.116q-.174.103-.365.171-.19.069-.39.1-.2.032-.402.026-.203-.006-.4-.05M52 43.246l-.467 2.091-1.845 1.09q-4.562-7.717-7.245-16.272l2.045-.641 1.867 1.052q-4.403 7.81-10.47 14.41l-1.578-1.45-.022-2.142Q43.25 41.293 52 43.247"/><path fill="#9c1010" d="M56.324 43.781q-.822-8.679-3.6-16.942 7.927 3.627 16.472 5.352-7.105 5.052-12.872 11.59"/><path fill="#7e0d0d" d="M54.191 43.983q-.799-8.432-3.499-16.46-.033-.1-.057-.203t-.037-.207q-.014-.105-.017-.21t.004-.21q.008-.105.025-.209t.045-.205q.027-.102.065-.2.037-.099.084-.193t.103-.184.12-.172q.064-.084.136-.16.073-.077.152-.146.08-.07.165-.13.086-.061.177-.114.091-.052.187-.095t.196-.077q.192-.064.393-.092.2-.027.402-.017.203.01.4.06.196.047.38.132 7.702 3.524 16.005 5.2.103.02.204.052.1.03.198.071.097.04.19.09.092.05.18.11.087.058.168.125t.156.142.14.156q.067.081.125.17.058.087.108.18t.089.19.07.198.05.204q.021.104.031.209.01.104.01.21 0 .105-.011.21-.01.104-.032.208-.04.198-.116.385-.077.188-.187.358t-.25.315-.305.264q-6.904 4.908-12.507 11.26-.07.08-.146.151-.077.072-.161.136t-.173.12q-.09.054-.184.1-.095.047-.194.084-.098.037-.2.064t-.206.043-.209.024-.21.003-.21-.018-.206-.038q-.103-.025-.202-.059t-.196-.078q-.095-.043-.186-.096t-.177-.115-.164-.13q-.152-.135-.276-.295t-.216-.34q-.092-.18-.148-.375-.057-.194-.076-.396m4.267-.404-2.134.202-1.607-1.417q5.93-6.724 13.237-11.919l1.242 1.746-.424 2.101q-8.788-1.774-16.94-5.504l.891-1.949 2.031-.683q2.858 8.498 3.704 17.423"/></svg>