<svg xmlns="http://www.w3.org/2000/svg" width="110" height="110"><path fill="#9c1010" d="M79.286 47.857q-8 3.464-15 8.66 1-8.66 0-17.32 7 5.196 15 8.66"/><path fill="#7e0d0d" d="M80.137 49.824q-7.773 3.365-14.574 8.414-.085.063-.175.117t-.185.1q-.095.044-.195.08-.099.035-.2.06-.103.026-.207.042-.104.015-.21.02-.104.006-.21 0-.105-.004-.209-.02-.104-.015-.206-.04t-.201-.062-.195-.08-.185-.1-.175-.116-.163-.133-.148-.149-.134-.162q-.12-.163-.209-.345-.088-.183-.14-.378-.053-.196-.067-.397-.015-.202.008-.403.972-8.415 0-16.83-.012-.104-.014-.21-.002-.104.007-.21.009-.104.027-.208.02-.103.048-.205.029-.1.067-.199.04-.098.087-.191.048-.094.105-.183.057-.088.123-.17.065-.083.138-.159.073-.075.154-.144.08-.068.166-.128t.179-.11.189-.094.196-.074.203-.055.208-.034q.201-.023.403-.008t.397.067.378.14q.182.089.345.21 6.801 5.048 14.574 8.414.097.042.189.093t.178.11.167.129.154.143.139.158.122.171.105.182q.049.094.087.192.039.098.068.199t.048.205.027.208.007.21-.013.21-.035.208-.054.203-.074.197q-.08.185-.194.353t-.257.31-.31.257-.354.195m-1.703-3.933.852 1.966-.852 1.967q-8.227-3.563-15.426-8.907l1.278-1.72 2.128-.246q1.029 8.906 0 17.812l-2.128-.246-1.278-1.72q7.2-5.344 15.426-8.906"/><path fill="#9c1010" d="M42.857 68.89q1-8.661 0-17.321 7 5.196 15 8.66-8 3.464-15 8.66"/><path fill="#7e0d0d" d="M40.728 68.643q.972-8.414 0-16.829-.012-.104-.013-.21-.002-.105.006-.21.009-.104.028-.208.018-.104.047-.205t.068-.2q.039-.097.087-.19.048-.094.105-.183.057-.088.122-.17t.139-.159.153-.144.167-.128.178-.111.189-.093.197-.074.203-.055.207-.034q.201-.023.403-.008t.398.067.378.14.344.209q6.802 5.049 14.575 8.414.096.042.188.093.092.052.179.111.086.06.167.128.08.068.153.144.074.076.139.158t.123.17q.057.09.105.183.048.094.087.192.038.097.067.199.03.1.048.204.02.104.028.209t.007.21q-.002.105-.014.21-.012.104-.034.207t-.054.204-.074.196q-.08.186-.195.354-.114.167-.257.31t-.31.257-.353.194q-7.773 3.366-14.575 8.415-.084.063-.174.117t-.186.099-.194.08-.201.062-.207.04-.209.021-.21 0-.21-.02-.206-.041-.201-.06q-.1-.036-.194-.081-.095-.045-.186-.1-.09-.053-.175-.116t-.162-.133q-.078-.071-.149-.15-.07-.077-.134-.162-.12-.162-.208-.344-.088-.183-.14-.378-.053-.196-.068-.398t.008-.403m4.258.492-2.129-.246-1.277-1.72q7.199-5.344 15.426-8.907l.851 1.967-.851 1.966q-8.227-3.562-15.426-8.906l1.277-1.72 2.129-.246q1.028 8.906 0 17.812"/><path fill="#9c1010" d="M42.857 26.825q7 5.196 15 8.66-8 3.465-15 8.66 1-8.66 0-17.32"/><path fill="#7e0d0d" d="M44.134 25.105q6.802 5.048 14.575 8.414.096.042.188.093t.179.11.167.129.153.144q.074.075.139.158.065.082.123.17t.105.183.087.191q.038.098.067.2.03.1.048.204.02.103.028.208t.007.21q-.002.106-.014.21-.012.105-.034.208t-.054.203-.074.197q-.08.186-.195.353-.114.167-.257.31-.143.144-.31.258-.168.113-.353.194-7.773 3.366-14.575 8.414-.084.063-.174.117t-.186.1q-.095.044-.194.08-.1.035-.201.061t-.207.041q-.104.016-.209.02-.105.006-.21.001t-.21-.02q-.104-.016-.206-.041t-.201-.061q-.1-.036-.194-.08-.095-.046-.186-.1-.09-.054-.175-.117-.084-.062-.162-.133-.078-.07-.15-.149-.07-.078-.133-.162-.12-.163-.208-.345t-.14-.378q-.053-.195-.068-.397t.008-.403q.972-8.415 0-16.83-.012-.104-.013-.209-.002-.105.006-.21t.028-.209.047-.204.068-.2.087-.191.105-.182.122-.171.139-.158.153-.144.167-.128.178-.111.189-.094.197-.074.203-.054.207-.035q.201-.023.403-.008t.398.067.378.14q.182.089.344.21m-2.554 3.44 1.277-1.72 2.129-.246q1.028 8.906 0 17.812l-2.129-.245-1.277-1.721q7.199-5.344 15.426-8.906l.851 1.966-.851 1.967q-8.227-3.563-15.426-8.906"/></svg>