<svg xmlns="http://www.w3.org/2000/svg" width="110" height="110"><path fill="#cfcfcf" d="M55.597 32.073q2.64 13.706 14.004 21.81l-2.074 2.908.061-3.571q5.346.092 7.888 3.568 2.356 3.223 1.098 7.216-1.24 3.934-4.886 5.23-4.115 1.463-8.123-1.766l2.241-2.782 3.461-.88q1.269 4.989-1.773 8.121-2.696 2.776-6.79 2.267-4.154-.518-6.104-4.002-2.103-3.758.038-8.657l3.272 1.43-3.507.676q-2.64-13.706-14.004-21.81l2.074-2.907-.061 3.57q-5.346-.092-7.888-3.568-2.356-3.223-1.098-7.216 1.24-3.934 4.886-5.23 4.115-1.463 8.123 1.767l-2.241 2.78-3.461.88q-1.269-4.988 1.773-8.12 2.696-2.776 6.79-2.266 4.154.517 6.104 4 2.103 3.759-.038 8.658l-3.272-1.43zm-7.014 1.351q-.103-.532-.043-1.07.06-.539.277-1.035.72-1.647.35-2.309-.185-.33-.755-.401-.563-.07-.782.154-.259.267.025 1.384.103.403.11.82.007.415-.082.821-.088.407-.268.782t-.44.699q-.11.136-.233.261t-.258.238-.28.211q-.144.1-.298.183-.154.084-.316.153-.161.069-.329.12-.167.053-.339.09-.172.035-.346.054-.175.018-.35.02t-.35-.014-.347-.048q-.173-.033-.341-.083-.168-.049-.331-.115-.163-.065-.318-.147-.156-.08-.303-.177-.146-.096-.283-.206-.898-.724-1.248-.599-.295.105-.466.647-.172.547.051.853.448.612 2.244.643.542.009 1.057.179t.956.484q13.69 9.763 16.87 26.274.103.532.043 1.07-.06.54-.277 1.036-.72 1.647-.35 2.308.185.33.755.401.563.07.782-.154.259-.267-.025-1.384-.103-.403-.11-.819t.082-.822.268-.781q.18-.376.44-.7.11-.136.233-.261t.258-.238.28-.211q.144-.099.298-.183t.316-.153.329-.12q.167-.053.339-.089t.346-.054.35-.02q.175-.002.35.013.175.016.347.049.173.032.341.082t.331.115.318.147q.156.081.303.177.146.096.283.206.898.724 1.248.6.295-.106.466-.648.172-.547-.051-.853-.448-.612-2.244-.642-.542-.01-1.057-.18t-.956-.484q-13.69-9.763-16.87-26.274"/><path fill="#fff" d="M52.09 32.749Q55 47.857 67.527 56.79c10.3.177 5.314 13.564-1.721 7.895 2.227 8.757-12.021 7.72-7.896-1.72Q55 47.857 42.473 38.924c-10.3-.178-5.314-13.565 1.721-7.896-2.227-8.757 12.021-7.719 7.896 1.72"/></svg>