<svg xmlns="http://www.w3.org/2000/svg" width="110" height="110"><path fill="#fff" d="m42.782 26.53 28.429 2.853-3.993 39.8-28.429-2.852z"/><path fill="#cfcfcf" d="m36.657 66.117 3.993-39.8q.01-.105.031-.208t.052-.204.071-.198.09-.19q.05-.092.109-.18.059-.087.125-.169.067-.08.142-.155.074-.074.156-.141.081-.067.17-.125.087-.058.18-.108t.19-.09.198-.07q.1-.03.204-.05t.208-.031.21-.01.21.01l28.429 2.853q.105.01.208.031t.204.052.198.071.19.09q.092.05.18.109.087.058.168.125t.156.142.141.156q.067.081.125.169t.108.18.09.19.07.199.05.204.03.208.01.21-.01.21l-3.993 39.8q-.01.105-.031.208t-.052.204-.071.198-.09.19-.109.18-.125.169-.142.155q-.074.075-.156.141-.081.067-.17.125-.087.059-.18.108-.093.05-.19.09t-.198.07-.204.05q-.103.021-.208.031t-.21.01q-.106 0-.21-.01l-28.429-2.853q-.105-.01-.208-.031t-.204-.052-.198-.07-.19-.091q-.092-.05-.18-.109-.087-.058-.168-.125t-.156-.142-.141-.156q-.067-.081-.125-.169t-.108-.18-.09-.19-.07-.199-.05-.204-.03-.208-.01-.21.01-.21m8.044-37.24-3.566 35.536L65.3 66.837l3.566-35.536z"/><path d="M62.136 50.458c-.227 2.26-2.28 3.1-3.627 2.966-1.503-.151-2.57-.946-3.19-1.57-.096 1.849.208 3.206 2.057 4.436l-6.38-.64c2.057-.838 2.624-2.108 2.897-3.938-.731.487-1.935 1.055-3.438.904-1.346-.135-3.192-1.367-2.966-3.628.415-4.13 3.212-2.715 8.325-9.244 3.714 7.415 6.737 6.583 6.322 10.714M50.046 35.49l-.967-.097q-.07-.301-.148-.596t-.148-.604l-2.075-.208q-.13.289-.262.566l-.26.552-.93-.094q.356-.76.672-1.404.315-.643.613-1.216t.587-1.09q.289-.516.59-1.017l.846.085q.196.55.376 1.114t.359 1.185.363 1.314q.186.693.384 1.51m-3.038-2.207 1.62.162q-.164-.655-.322-1.224-.154-.554-.272-.928l-.006-.018q-.081.145-.16.292-.14.263-.305.587-.264.52-.555 1.129M59.954 60.224l.967.097q.07.302.148.597t.148.603l2.075.208q.13-.288.262-.566t.26-.552l.93.094q-.356.761-.672 1.404-.315.643-.613 1.216t-.587 1.09q-.289.517-.59 1.018l-.846-.085q-.196-.551-.376-1.115-.18-.563-.359-1.184-.178-.621-.363-1.315-.186-.693-.384-1.51m3.038 2.207-1.62-.162q.164.655.322 1.224.154.555.272.928l.006.019q.081-.146.16-.293.14-.262.305-.587.264-.519.555-1.129"/></svg>