<svg xmlns="http://www.w3.org/2000/svg" width="110" height="110"><path fill="#4d2621" d="M35.67 40.175q32.983-13.92 44.06 18.778l-13.359-9.955 4.26 14.785Q52.442 44.729 34.53 51.546q3.413-5.4 1.14-11.371"/><path fill="#3e1f1b" d="M34.56 37.542q17.607-7.43 29.737-2.26 12.19 5.195 18.14 22.754.044.133.076.27.032.136.05.276.018.139.023.28.004.14-.005.28t-.032.278-.06.274-.086.267-.111.257-.137.245q-.074.12-.16.23-.085.112-.18.214-.097.103-.202.195t-.22.174q-.114.082-.236.152t-.25.128-.26.103q-.329.111-.675.14t-.688-.024-.663-.19-.598-.341l-13.359-9.955 1.707-2.29 2.746-.792 4.26 14.785q.038.135.064.273.025.138.037.278t.01.28-.018.28-.045.276-.072.272-.098.262q-.055.129-.123.252t-.148.238-.17.223q-.09.107-.191.205-.1.098-.21.186-.11.087-.228.163t-.243.141q-.124.065-.255.117-.13.051-.265.09-.187.054-.38.082t-.388.03-.387-.023-.382-.076-.367-.127-.347-.175-.32-.221-.287-.262q-16.878-17.682-33.018-11.54-.132.05-.267.087t-.274.06q-.138.024-.278.033t-.28.006-.28-.022-.276-.049-.27-.076-.261-.102q-.128-.058-.25-.127-.122-.07-.236-.151-.115-.082-.22-.174-.106-.092-.203-.194-.096-.102-.182-.213t-.16-.23q-.075-.12-.137-.245t-.113-.257q-.118-.31-.162-.64t-.01-.661.141-.646q.109-.314.286-.595 2.65-4.193.886-8.829-.049-.128-.085-.26-.036-.133-.06-.268-.023-.135-.034-.272-.01-.137-.007-.274t.019-.273q.015-.136.044-.27.03-.135.07-.265.042-.131.096-.257t.12-.247.143-.234.164-.219.185-.202.203-.184.22-.163.234-.142.248-.119m2.221 5.265-1.11-2.632 2.67-1.017q2.78 7.307-1.396 13.915l-2.415-1.527-1.017-2.67Q53.2 41.384 72.698 61.81l-2.067 1.973-2.746.79-4.259-14.784q-.091-.317-.108-.647t.042-.655.191-.628.33-.568q.083-.113.178-.217.094-.103.199-.197.104-.094.217-.178t.233-.155.248-.132.259-.106.269-.081.275-.054.279-.027.28 0 .28.029q.138.02.274.055t.268.082q.132.048.259.108t.247.133.233.156l13.358 9.955-1.707 2.29-2.706.918Q71.896 44.73 62.057 40.538q-9.9-4.22-25.276 2.269"/></svg>