<svg xmlns="http://www.w3.org/2000/svg" width="110" height="110"><path fill="#39b54a" d="M55 47.857c19.296 30.053-30.053 19.297 0 0m0 0c-35.674 1.685-1.685-35.674 0 0m0 0c16.378-31.737 31.737 16.378 0 0"/><path fill="#2e933c" d="M56.202 47.085q6.95 10.824 3.993 16.798-2.66 5.374-9.533 3.876t-7.055-7.492q-.202-6.662 10.621-13.612.119-.076.25-.127.13-.052.269-.077.138-.025.28-.022.14.002.277.032.138.03.267.086.129.057.244.137.116.08.213.182.098.1.174.22m-2.404 1.544L55 47.857l.772 1.202q-9.462 6.076-9.309 11.122.114 3.763 4.808 4.786 4.693 1.023 6.363-2.352 2.24-4.524-3.836-13.986m1.27.655q-12.849.607-16.544-4.94-3.324-4.991 1.41-10.194 4.733-5.203 10.015-2.364 5.871 3.156 6.478 16.004.007.14-.014.28-.021.139-.069.27-.048.133-.12.254-.073.12-.167.224t-.208.188-.24.144q-.128.06-.265.094-.136.033-.277.04m-.135-2.854L55 47.857l-1.427.068q-.53-11.233-4.977-13.623-3.317-1.783-6.55 1.77t-1.144 6.687q2.798 4.202 14.03 3.671m-1.203.772q5.899-11.43 12.551-11.857 5.984-.383 8.123 6.318 2.14 6.7-2.96 9.855-5.669 3.507-17.1-2.391-.124-.065-.234-.153-.11-.087-.201-.195-.09-.107-.159-.23-.068-.123-.11-.257-.044-.135-.06-.274-.015-.14-.004-.28.012-.14.051-.276.039-.135.103-.26m2.54 1.31L55 47.857l.655-1.27q9.993 5.157 14.286 2.502 3.202-1.981 1.741-6.557t-5.218-4.335q-5.038.323-10.194 10.315"/></svg>