<svg xmlns="http://www.w3.org/2000/svg" width="110" height="110"><path fill="#8b75b1" d="M32.49 53.187q11.561-11.17 23.31-16.793.205-.098.415-.187.21-.088.424-.166.215-.077.433-.145.217-.067.438-.123.221-.057.444-.102.224-.046.45-.08.224-.035.451-.058t.455-.036.455-.013q.228-.001.456.01t.455.03q.226.022.452.054.226.033.45.076.223.043.445.098.221.054.44.12.218.064.433.14t.426.162q.21.087.417.183.207.097.408.203.202.107.398.223t.386.242.374.26q.184.136.36.28.178.143.347.295.17.153.332.313t.316.329q.153.168.299.344.145.175.282.357.137.183.264.372.128.189.246.384t.226.395.207.406.187.416.166.425.145.432.123.439q.057.22.102.444.046.223.08.448.035.226.058.452.023.227.036.455.012.227.013.455t-.01.456-.03.455-.054.452q-.033.226-.076.45t-.098.445-.12.44-.14.433-.162.426q-.087.211-.183.418-.097.206-.203.408t-.223.397-.242.387-.26.373-.28.361-.295.346-.313.332-.329.316-.343.3q-.176.145-.358.281-.183.137-.372.264-.189.128-.384.246t-.395.226-.406.207q-9.03 4.322-18.423 13.398-.164.159-.336.309-.171.15-.35.291-.179.142-.364.275-.186.132-.377.256-.192.123-.39.237-.197.114-.4.218t-.41.197-.42.178-.428.157-.435.135-.442.114-.446.092-.45.07-.454.049-.455.025-.455.004-.456-.02-.454-.04-.45-.064q-.226-.038-.449-.086-.222-.048-.442-.107-.22-.06-.438-.13-.216-.07-.43-.15-.213-.08-.422-.171-.21-.091-.413-.192-.205-.101-.404-.212t-.393-.231-.38-.25q-.188-.13-.368-.27-.181-.139-.355-.286-.174-.148-.34-.304t-.325-.32-.308-.335-.292-.35q-.141-.179-.274-.364-.133-.186-.256-.377-.123-.192-.237-.39-.114-.197-.218-.4t-.198-.41-.177-.42-.157-.428-.135-.436-.114-.44q-.052-.223-.093-.447-.04-.224-.07-.45t-.048-.454-.025-.455-.004-.456.02-.455.04-.454.064-.451.086-.448.107-.443q.06-.22.13-.437t.15-.43q.08-.213.17-.422.092-.21.193-.414.1-.204.212-.403.11-.2.231-.393.12-.193.25-.38.13-.188.27-.369.138-.18.286-.354t.303-.34q.157-.166.32-.325m38.727-20.165q-4.676 4.362-3.433 7.711 1.347 3.628 9.861 3.774.228.004.456.02.227.015.453.04.227.027.452.064t.447.086q.223.048.443.108.22.059.437.129t.43.15.423.171.413.192q.205.101.404.212t.393.232q.193.12.38.25.188.13.368.269.181.139.355.286.174.148.34.304t.324.32.309.335.292.35q.141.18.274.365.132.185.256.377.123.191.237.389.114.197.218.4t.198.41.177.42.157.428.135.436.114.44q.052.223.093.447.04.225.07.45.03.227.048.454t.025.455.004.456-.02.455q-.014.227-.04.454-.027.226-.064.451t-.086.448-.107.443q-.06.22-.13.437t-.15.43q-.08.213-.171.422-.09.21-.192.414-.101.204-.212.403t-.231.393-.25.38-.27.369-.286.354-.304.34-.32.325q-.163.158-.335.308-.171.15-.35.292t-.364.274q-.186.133-.377.256-.192.124-.39.237-.197.114-.4.218t-.41.198-.42.178-.428.156-.435.136-.442.114-.446.092-.45.07-.454.048-.455.026-.455.003q-21.193-.364-26.952-15.88-2.662-7.17-.195-14.926 2.27-7.138 8.37-12.828.166-.155.34-.303.175-.147.356-.285.18-.138.369-.268.187-.13.381-.25t.393-.23q.2-.11.405-.21.204-.1.414-.19.209-.091.422-.171.214-.08.431-.15.217-.068.438-.127.22-.059.443-.106.223-.048.448-.085.225-.036.451-.062.227-.025.454-.04.228-.014.456-.018.227-.003.455.005t.455.027q.227.02.453.05t.45.07.446.094q.222.053.441.116.22.063.435.136.216.074.428.158t.419.179.41.199.4.219.388.238.377.257.363.276.35.292q.17.15.334.31.163.159.319.325.155.167.302.341.148.174.286.355t.268.37q.129.187.249.38.12.194.23.394t.211.404.19.414.17.423.15.43.128.438.106.443.084.448.063.452.04.454.017.455-.004.456-.027.455q-.02.227-.05.453t-.071.45q-.041.224-.093.446-.053.222-.116.441t-.137.435q-.073.215-.157.427-.085.212-.18.42-.094.207-.198.41t-.22.4-.237.388-.257.376q-.134.185-.276.363-.142.179-.292.35-.151.17-.31.334t-.325.32"/><path fill="#ab91da" d="M35.468 56.27Q46.53 45.582 57.65 40.26q.221-.106.452-.19.23-.084.469-.145t.48-.098q.244-.037.489-.05t.49-.002q.246.01.489.045t.482.094q.238.058.47.14t.454.186q.223.104.434.23.211.124.41.27.197.145.38.31.183.163.348.345.166.18.314.378.147.196.274.406t.233.432.19.452.145.47.098.48.05.488.002.49-.045.49-.094.481-.14.47-.186.454-.229.434-.27.41q-.146.197-.31.38t-.346.349q-.18.166-.377.313t-.407.274q-.21.128-.432.234-9.657 4.622-19.55 14.181-.177.17-.37.323-.192.153-.399.286-.206.133-.425.245-.218.112-.447.202-.228.09-.465.157-.236.067-.478.111-.241.044-.486.064t-.49.015q-.246-.004-.49-.032t-.484-.08-.474-.128-.46-.173q-.224-.098-.439-.217-.215-.12-.417-.26t-.388-.299-.358-.336-.324-.369q-.152-.192-.285-.399-.133-.206-.245-.425t-.202-.447q-.09-.229-.158-.465-.067-.236-.11-.478-.044-.242-.064-.486-.02-.245-.016-.49.004-.246.033-.49.028-.244.08-.484t.127-.474.174-.46.217-.44.26-.416.299-.389.335-.358m32.825-26.382q-6.764 6.31-4.526 12.337 2.365 6.37 13.805 6.568.245.004.489.032t.484.08.474.128.459.173.44.217.416.26.39.299.357.336.323.369.286.399.245.425.202.447.157.465.111.478.064.487q.02.244.016.49-.005.245-.033.49-.028.244-.08.484t-.128.473-.173.46-.217.44-.26.416-.299.389-.335.358-.37.323-.399.285-.425.245-.447.202-.465.158-.478.11q-.241.045-.486.064t-.49.016q-18.267-.314-23.008-13.086-4.556-12.274 7.08-23.129.18-.168.375-.317t.404-.278.43-.238.45-.194.467-.15.48-.102.488-.055.49-.007.49.041.482.09q.239.055.471.135.233.08.456.181.224.102.436.225.213.123.412.267.2.143.384.306.184.162.352.342t.317.374q.149.196.278.404.13.21.237.43.109.22.195.45t.149.468.102.48q.04.242.056.487.015.245.007.49-.009.246-.042.49-.032.243-.088.482-.057.24-.136.472t-.181.456q-.102.223-.225.436-.124.212-.267.412t-.306.383q-.162.185-.342.352"/></svg>