<svg xmlns="http://www.w3.org/2000/svg" width="110" height="110"><path fill="#ffe419" d="M33.196 54.894q6.458-45.365 34.32-21.897T51.771 70.54q.1-18.968-18.575-15.646"/><path fill="#cfb914" d="M30.792 54.552Q34.178 30.765 43.7 24.69q10.085-6.434 25.382 6.45 15.296 12.884 10.67 23.916-4.368 10.415-27.234 17.795-.228.073-.465.1t-.476.01-.469-.085q-.23-.066-.443-.175t-.4-.257-.343-.33q-.155-.183-.271-.392t-.19-.437q-.12-.37-.117-.758.044-8.347-3.73-11.525t-11.991-1.717q-.236.042-.475.037t-.473-.056q-.233-.051-.452-.147-.22-.096-.416-.233t-.361-.31-.295-.374q-.129-.201-.216-.424t-.129-.458q-.068-.383-.013-.768m4.809.684-2.405-.342-.425-2.39q10.457-1.861 15.97 2.783 5.515 4.644 5.459 15.265l-2.429-.012-.746-2.312q20.742-6.694 24.246-15.05 3.246-7.74-9.32-18.323-12.565-10.584-19.64-6.07-7.639 4.874-10.71 26.451"/></svg>