<?xml version="1.0" encoding="utf-8" ?>
<svg xmlns="http://www.w3.org/2000/svg" xmlns:xlink="http://www.w3.org/1999/xlink" width="110" height="110">
	<path fill-opacity="0.2" transform="matrix(0.167411 0 0 0.167411 12.1429 21.7411)" d="M257.617 20.717C250.534 20.706 243.375 21.165 236.148 22.064C204.948 25.934 177.071 38.41 153.582 61.574C134.992 79.897 122.652 102.357 119.782 129.848C116.373 162.838 126.767 191.008 147.9 214.039C154.692 221.425 157.695 228.621 157.508 239.069C157.211 255.497 158.482 271.951 159.158 289.377C180.185 276.956 200.372 264.993 220.832 252.897C233.008 274.275 244.887 295.167 257.311 316.873C269.459 295.356 281.205 274.573 293.137 253.629C312.89 265.429 332.377 277.089 352.51 289.186C353.024 272.246 354.243 256.387 353.756 240.586C353.403 229.516 355.569 220.91 364.012 214.363C366.689 212.28 368.719 209.007 370.857 206.055C391.425 177.449 398.569 145.707 388.017 110.557C378.247 78.055 357.246 55.862 330.318 40.195C307.252 26.79 282.915 20.755 257.618 20.717L257.617 20.717ZM340.416 125.924C358.358 125.79 366.58 136.994 362.82 156.398C358.467 178.777 339.9 195.121 320.146 194.066C298.766 192.927 281.451 175.311 279.121 152.174C278.935 150.363 279.556 147.576 280.721 146.627C291.379 138.022 326.425 126.034 340.416 125.924ZM175.262 125.954C188.979 126.819 204.756 133.502 220.346 140.864C222.643 141.971 224.754 143.649 227.109 144.328C232.956 145.979 233.197 150.441 232.359 155.638C228.599 177.855 209.355 195.122 189.574 194.039C167.141 192.821 149.982 174.77 148.412 150.688C147.329 134.098 155.178 125.736 175.262 125.953L175.262 125.954ZM255.877 182.51C263.317 200.724 270.297 217.745 277.523 235.44L234.336 235.44C241.48 217.852 248.488 200.803 255.876 182.51L255.877 182.51Z"/>
	
	
</svg>
