<svg xmlns="http://www.w3.org/2000/svg" width="110" height="110"><path fill="#b41919" d="M55.27 25.21a29 29 0 0 0-3.593.225c-5.224.648-9.89 2.736-13.823 6.614-3.112 3.068-5.178 6.828-5.658 11.43-.571 5.523 1.17 10.239 4.707 14.095 1.137 1.236 1.64 2.44 1.608 4.19-.05 2.75.164 5.505.277 8.422 3.52-2.08 6.9-4.082 10.325-6.107 2.038 3.579 4.027 7.076 6.107 10.71 2.033-3.602 4-7.081 5.997-10.588 3.307 1.976 6.57 3.928 9.94 5.953.086-2.836.29-5.49.209-8.136-.06-1.853.303-3.294 1.717-4.39.448-.349.788-.897 1.145-1.391 3.444-4.789 4.64-10.103 2.873-15.987-1.635-5.442-5.151-9.157-9.66-11.78-3.86-2.244-7.935-3.254-12.17-3.26m13.862 17.612c3.004-.022 4.38 1.853 3.751 5.102-.729 3.746-3.837 6.483-7.144 6.306-3.58-.19-6.478-3.14-6.868-7.013-.031-.303.073-.77.268-.929 1.784-1.44 7.651-3.447 9.993-3.466m-27.648.005c2.296.145 4.937 1.264 7.547 2.496.385.186.738.467 1.132.58.98.277 1.02 1.024.88 1.894-.63 3.719-3.852 6.61-7.163 6.428-3.756-.204-6.628-3.225-6.891-7.257-.182-2.777 1.132-4.177 4.495-4.141m13.496 9.468c1.245 3.05 2.414 5.899 3.623 8.861h-7.23c1.196-2.944 2.37-5.798 3.606-8.86"/></svg>