<svg xmlns="http://www.w3.org/2000/svg" width="110" height="110"><path fill="#eee" d="M60.58 26.594q14.33-5.454 12.846 9.329 8.641 5.461 3.18 14.102 3.293 12.965-9.215 11.71 1.247 10.462-12.056 5.682-12.285 7.956-15.578-5.009-12.28-3.53-5.454-14.33-7.39-6.485 1.255-12.509.118-12.623 11.261-9.207 5.462-8.641 13.76.232"/><path fill="#c1c1c1" d="M59.97 24.991q8.031-3.056 11.994-.18 4.008 2.912 3.168 11.283l-1.706-.171.916-1.45q4.92 3.11 5.872 7.329.951 4.218-2.16 9.139l-1.448-.916 1.661-.422q1.855 7.3-.971 10.892-2.886 3.667-10.076 2.946l.17-1.706 1.703-.203q.77 6.458-3.362 8.405-3.656 1.724-10.976-.907l.58-1.613.932 1.439q-6.825 4.42-11.494 2.919-4.797-1.543-6.678-8.945l1.662-.422-.474 1.648q-6.964-2.002-8.632-6.385-1.668-4.384 2.203-10.51l1.45.917-1.132 1.288q-4.357-3.824-3.956-7.829.393-3.912 5.362-7.374l.98 1.406-1.714-.016q.066-7.114 3.503-9.924 3.526-2.883 9.975-.907l-.503 1.64-1.449-.916q3.246-5.135 7.649-5.06 4.167.07 8.812 5.037.058.061.109.128t.096.138q.044.072.081.147.037.076.067.155t.051.16.036.165.019.167.003.168-.014.167-.03.166q-.02.082-.047.162t-.062.156-.077.15-.091.141-.105.132-.117.12q-.061.058-.128.11-.067.05-.139.095-.071.044-.147.082-.075.037-.154.066t-.16.052q-.082.021-.165.035t-.167.02-.168.002-.168-.014q-.083-.011-.165-.03-.082-.02-.162-.047t-.156-.062q-.077-.034-.15-.076-.073-.043-.141-.092-.069-.049-.132-.104-.063-.056-.12-.117-3.654-3.906-6.367-3.952-2.477-.042-4.693 3.464-.074.119-.167.224-.094.104-.202.192-.11.089-.23.158-.123.07-.254.118-.131.049-.269.075-.137.027-.277.031t-.28-.015-.272-.06q-4.694-1.438-6.8.283-2.193 1.794-2.245 7.302-.002.205-.052.404t-.146.38-.231.336-.305.27q-3.675 2.562-3.91 4.904-.226 2.25 2.806 4.91.114.1.209.22.095.118.167.251.072.134.12.278t.07.295.016.302-.036.3-.09.29-.138.269q-2.955 4.676-1.897 7.457 1.059 2.782 6.375 4.31.216.062.409.177.192.116.349.277t.266.357q.11.196.164.414 1.414 5.563 4.405 6.525 3.12 1.003 8.58-2.533.166-.108.352-.175.187-.066.383-.09.197-.022.393 0 .197.024.383.09 5.984 2.15 8.356 1.033 1.896-.894 1.418-4.898-.022-.187-.003-.374.008-.084.025-.167.017-.082.041-.163.025-.08.057-.158.033-.078.072-.152.04-.074.087-.144t.1-.135.114-.125.125-.112.135-.1.144-.086.153-.072.158-.056.163-.041.167-.024q.084-.009.168-.008t.168.008q5.318.534 7.04-1.654 1.781-2.264.342-7.928-.043-.17-.05-.344-.009-.174.019-.347.027-.172.089-.336.061-.163.155-.311 2.351-3.72 1.712-6.553-.638-2.833-4.358-5.184-.1-.064-.192-.14-.09-.077-.17-.166-.079-.088-.145-.187-.066-.098-.119-.205t-.088-.22-.058-.23-.026-.236.008-.236q.643-6.412-1.772-8.166-2.461-1.787-8.76.61-.079.03-.16.052t-.164.036-.167.02-.169.003-.167-.013-.166-.03-.162-.045-.156-.061-.15-.077q-.074-.042-.142-.09-.069-.05-.132-.104-.064-.056-.122-.117t-.109-.128q-.051-.066-.096-.138-.045-.071-.082-.147-.038-.075-.068-.154-.03-.078-.052-.16-.022-.08-.036-.164-.014-.083-.02-.167t-.003-.168.013-.168.03-.166.045-.162.061-.156.076-.15.091-.142.104-.132.117-.121.128-.11.138-.096.146-.082.155-.068"/></svg>