<svg xmlns="http://www.w3.org/2000/svg" width="110" height="110"><clipPath id="a"><path d="M26.429 19.286H83.57v57.143H26.43zm0 0 46.428 28.571q0-.438-.021-.876t-.065-.874-.107-.87-.15-.864-.192-.855-.234-.845-.275-.832-.315-.818-.355-.8-.394-.784-.432-.762-.47-.74-.504-.717-.54-.691q-.277-.34-.572-.664-.294-.325-.604-.635t-.635-.604-.664-.573q-.338-.278-.69-.539-.353-.261-.717-.505-.365-.243-.74-.468-.377-.226-.763-.432-.387-.207-.783-.395-.396-.187-.801-.355t-.818-.315-.832-.275-.845-.234-.855-.192q-.43-.085-.864-.15-.433-.064-.87-.107-.436-.043-.874-.064T55 30t-.876.021-.874.065-.87.107-.864.15-.855.192-.845.234-.832.275-.818.315-.8.355-.784.395-.762.432-.74.469-.718.504-.69.54q-.34.277-.664.572-.325.294-.635.604t-.604.635-.573.664-.539.69q-.261.353-.505.717-.243.365-.469.74-.225.377-.432.763-.206.387-.394.783-.187.396-.355.801t-.315.818-.275.832-.234.845-.192.855-.15.864-.107.87-.065.874-.021.876.021.876.065.875.107.87.15.863.192.855.234.845.275.832q.147.413.315.818t.355.801q.188.396.394.783.207.386.432.763.226.376.47.74t.504.717.54.69q.277.34.572.664.294.325.604.635t.635.604.663.573.691.54q.353.26.717.504.365.243.74.469.377.225.763.432.387.206.783.394.396.187.801.355t.818.315.832.275.845.234q.425.107.855.192t.864.15.87.107.874.065.876.021.876-.021.874-.065.87-.107.864-.15.855-.192.845-.234.832-.275.818-.315.8-.355.784-.394.762-.432.74-.47.718-.504.69-.54q.34-.277.664-.572.325-.294.635-.604t.604-.635.573-.663.539-.691.505-.717.469-.74q.225-.377.432-.763.206-.387.394-.783.187-.396.355-.801t.315-.818.275-.832.234-.845.192-.855.15-.864.107-.87.065-.874.021-.876"/></clipPath><g clip-path="url(#a)"><path fill="#111" d="M72.678 65.535Q62.07 64.928 55 72.857q-7.071-7.929-17.678-7.322Q37.93 54.928 30 47.857q7.929-7.071 7.322-17.678Q47.93 30.786 55 22.857q7.071 7.929 17.678 7.322Q72.07 40.786 80 47.857q-7.929 7.071-7.322 17.678"/></g></svg>