<svg xmlns="http://www.w3.org/2000/svg" width="110" height="110"><path fill="#9c1010" d="M65.034 63.484 52.87 57.628q-.24-.053-.476-.117-.237-.064-.471-.14-.234-.075-.463-.162-.23-.086-.455-.184-.225-.099-.445-.208t-.434-.228-.423-.25-.41-.27q-.201-.14-.396-.29-.194-.15-.381-.309t-.366-.327-.349-.345-.332-.362-.314-.377-.294-.392-.276-.407q-.132-.206-.255-.42-.122-.212-.234-.43-.112-.22-.212-.443-.101-.224-.191-.452-.09-.229-.168-.461-.079-.233-.146-.47-.067-.235-.122-.475-.055-.239-.099-.48-.043-.242-.075-.485-.031-.244-.051-.489-.02-.244-.027-.49-.008-.245-.003-.49.004-.246.02-.49.017-.246.046-.49.028-.243.069-.485.04-.243.092-.482l-.263-13.498 12.164 5.856q.24.053.476.117.237.064.471.14.234.075.463.162.23.087.455.185t.445.207.434.228.423.25.41.27.396.29.381.31q.187.158.366.326.179.169.349.345.17.177.332.362.161.185.314.377.152.193.294.393.143.2.276.406.132.207.255.42.122.212.234.43.112.22.212.443.101.224.191.453.09.228.168.46.079.233.146.47t.122.475.099.48.075.486q.031.243.051.488.02.244.027.49.008.245.003.49-.004.246-.02.491-.017.245-.046.489t-.069.486-.092.482z"/><path fill="#7e0d0d" d="M64.105 65.415 51.94 59.558l.93-1.93-.457 2.093q-4.914-1.07-7.632-5.303t-1.646-9.147l2.093.457-2.142.041-.264-13.497q-.002-.106.007-.21.008-.106.026-.21.019-.103.048-.204.028-.101.066-.2.039-.097.087-.191t.104-.183.122-.171.138-.159.153-.144q.08-.068.167-.128.086-.06.178-.112.092-.051.188-.094.097-.042.197-.074.1-.033.203-.055.103-.023.207-.035.105-.013.21-.015.511-.01.971.212l12.164 5.857-.93 1.93.457-2.093q4.914 1.07 7.632 5.303t1.646 9.147l-2.093-.456 2.142-.042.264 13.498q.002.105-.007.21-.008.105-.026.208-.019.104-.048.205-.028.102-.066.2t-.087.191-.104.183q-.057.089-.122.171t-.138.159-.153.144-.167.129-.178.111-.188.094-.197.074-.203.056-.207.034-.21.015q-.511.01-.971-.212m1.859-3.861-.93 1.93-2.142.042-.264-13.497q-.005-.252.049-.499.693-3.18-1.065-5.918t-4.939-3.432q-.246-.053-.473-.163l-12.164-5.856.93-1.931 2.142-.042.264 13.498q.005.252-.049.498-.693 3.18 1.065 5.918t4.939 3.432q.246.054.473.163z"/></svg>