<svg xmlns="http://www.w3.org/2000/svg" width="110" height="110"><path fill="#888" d="m61.023 57.237-17.817-8.59 17.34-11.98z"/><path fill="#6e6e6e" d="m60.092 59.167-17.817-8.59q-.094-.046-.184-.1-.09-.056-.174-.12-.084-.062-.162-.134-.077-.071-.147-.15-.07-.078-.133-.163-.062-.085-.115-.176t-.098-.186-.079-.195-.06-.202-.039-.206-.019-.21.002-.21.022-.209.042-.206.063-.2q.036-.1.082-.194.246-.51.712-.833l17.34-11.98q.086-.06.178-.11t.189-.093.196-.074.204-.054.207-.034.21-.014.21.007.209.028.204.048.2.068.19.086.183.106.17.122.159.14q.075.072.143.153.068.08.128.167.179.258.275.556t.105.612l.477 20.57q.003.106-.005.21-.008.106-.026.21-.018.103-.047.204-.028.102-.066.2t-.085.192-.104.183-.122.172-.137.159-.153.145q-.08.068-.166.129-.086.06-.177.112-.092.052-.188.094-.097.043-.197.076t-.202.056q-.103.022-.208.035-.104.013-.21.015-.515.012-.98-.212m1.862-3.86-.931 1.93-2.142.05-.478-20.57 2.142-.05 1.218 1.763-17.339 11.98-1.218-1.764.93-1.93z"/></svg>