<svg xmlns="http://www.w3.org/2000/svg" width="110" height="110"><path fill="red" fill-opacity=".298" d="M68.816 59.69 418.82 500.75q.107.136.201.28.094.146.174.3.079.153.143.313t.113.326.079.334q.032.17.048.342.015.171.013.343-.001.172-.02.343-.018.17-.053.338-.035.167-.086.331-.051.163-.118.32-.067.158-.15.308-.081.15-.178.29t-.206.27q-.11.13-.233.25-.122.118-.255.224-.134.106-.277.198t-.295.17-.311.138q-.158.063-.323.109-.164.046-.333.075-.168.03-.338.043-.172.012-.342.009-.172-.005-.342-.026t-.338-.058-.331-.091q-.164-.054-.322-.124-.157-.07-.307-.154-.151-.085-.292-.183-.142-.1-.273-.211-.132-.113-.252-.237t-.227-.26L63.385 64q-.108-.135-.202-.28t-.173-.3-.144-.313-.112-.326-.08-.335-.047-.34-.014-.344.02-.342.053-.339q.035-.167.087-.33.05-.164.118-.321t.149-.307q.082-.15.179-.29t.206-.271.232-.249.256-.225q.133-.105.276-.197t.296-.17.31-.14q.159-.061.323-.107.165-.046.333-.076t.34-.042q.17-.013.341-.009t.342.025.338.058q.167.038.33.092.164.054.322.123.158.07.308.154.15.085.292.184.141.099.273.21.131.113.251.237.12.125.228.26"/><path fill="red" fill-opacity=".698" d="m67.005 61.127 350.004 441.06q.072.09.126.193.052.102.085.213.032.111.042.225.01.115-.002.229t-.047.223q-.034.109-.089.21-.055.099-.128.186t-.163.158q-.09.07-.19.122-.102.052-.211.083-.11.03-.224.04-.115.007-.229-.006-.113-.014-.222-.05-.11-.036-.21-.092-.1-.057-.188-.132t-.16-.166L65.195 62.563q-.072-.09-.125-.193-.053-.102-.085-.213-.032-.11-.043-.225t.003-.229.046-.223.09-.209q.054-.1.127-.187t.163-.158q.09-.07.19-.122.102-.052.212-.083.11-.03.224-.039t.228.005.223.05.21.093q.1.056.188.131t.16.166"/><path fill="red" d="M70.854 67.836q-.13.103-.268.192-.139.09-.286.165t-.3.136q-.154.06-.313.106t-.321.075q-.163.03-.327.043-.165.014-.33.011t-.33-.022q-.163-.018-.325-.053-.161-.035-.318-.086-.158-.05-.31-.116-.15-.066-.295-.146t-.28-.174q-.136-.094-.262-.201t-.241-.226-.217-.248-.193-.268-.165-.286-.136-.3-.106-.313-.075-.321-.043-.327-.01-.33.021-.33q.019-.163.054-.325.035-.161.085-.318.05-.158.117-.31.065-.15.145-.295t.175-.28q.094-.136.2-.262t.226-.24.248-.219.268-.192q.14-.09.286-.165.147-.075.3-.136.154-.06.313-.106.159-.045.322-.075.162-.03.327-.043.164-.013.33-.01.165.002.329.021t.325.054.319.085q.157.05.309.116.151.066.296.146.144.08.28.175t.262.2.24.226.218.248.192.268.165.286.136.3q.06.154.106.313t.075.322q.03.162.043.327.014.164.011.33-.003.165-.022.329-.018.164-.053.325-.035.162-.086.319t-.116.309q-.066.151-.146.296-.08.144-.174.28t-.201.262-.226.24-.248.218"/><path fill="#646464" d="m37.32 33.62 7.832-6.216q.165-.13.342-.245t.365-.21.383-.174q.196-.077.398-.135t.41-.096.417-.054.42-.014.42.027q.209.025.414.069.206.044.407.109.2.064.393.148.194.084.378.186t.357.222.333.256.307.288.278.316l22.2 27.976q.13.165.245.342t.21.364.174.383q.077.196.135.398.058.203.095.41.038.207.055.417t.014.42-.028.42-.068.415-.109.406-.148.394-.186.377-.222.357-.256.334-.288.307-.316.277l-7.833 6.216q-.165.131-.342.245t-.365.21-.383.174-.398.135-.41.096-.417.055-.42.013-.42-.027-.414-.069-.407-.109-.393-.148q-.194-.084-.378-.186t-.357-.222-.333-.256-.307-.288q-.147-.15-.278-.316l-22.2-27.976q-.13-.165-.245-.342t-.21-.364-.174-.383q-.077-.196-.135-.398-.058-.203-.095-.41-.038-.207-.055-.417t-.014-.42.028-.42.068-.415.109-.406.148-.394.186-.377.222-.357.256-.334.288-.307.316-.277m9.803 3.162-1.119.888 16.873 21.262 1.119-.888z"/><path fill="#7c7c7c" d="m47.816 30.761 22.2 27.976-7.832 6.216-22.2-27.976z"/></svg>