<svg xmlns="http://www.w3.org/2000/svg" width="110" height="110"><path fill="#29f2e5" d="m62.143 47.857 6.444 4.415-7.808-.216 2.618 7.358-6.19-4.764L55 62.143l-2.207-7.493-6.19 4.764 2.618-7.358-7.808.216 6.444-4.415-6.444-4.414 7.808.216-2.618-7.36 6.19 4.765L55 33.57l2.207 7.493 6.19-4.764-2.618 7.359 7.808-.216z"/><path fill="#21c4b9" d="m62.547 47.268 8.443 5.785-10.231-.283.02-.714.673-.24 3.43 9.643-8.11-6.243.435-.566.685.202L55 64.67l-2.892-9.818.685-.202.435.566-8.11 6.243 3.43-9.643.673.24.02.714-10.231.283 8.443-5.785.404.59-.404.588-8.443-5.785 10.231.284-.02.714-.673.24-3.43-9.644 8.11 6.243-.435.566-.685-.202L55 31.044l2.892 9.818-.685.202-.435-.566 8.11-6.243-3.43 9.643-.673-.24-.02-.713 10.231-.284-8.443 5.785-.404-.589zm-1.668.59 7.304-5.005.404.59.02.714-8.85.244 2.967-8.34.673.239.436.566-7.016 5.4-2.502-8.493.685-.202.685.202-2.502 8.493-7.016-5.4.436-.566.673-.24 2.968 8.341-8.85-.244.02-.714.403-.59 7.304 5.004-7.304 5.004-.404-.59-.02-.713 8.85-.245-2.967 8.34-.673-.239-.436-.566 7.016-5.4 2.502 8.493-.685.202-.685-.202 2.502-8.493 7.016 5.4-.436.566-.673.24-2.968-8.341 8.85.245-.02.714-.403.589-6.444-4.415z"/></svg>
