<svg xmlns="http://www.w3.org/2000/svg" width="110" height="110"><path fill="#eb4c34" d="M53.704 31.033 34.623 16.122l5.618 23.556z"/><path fill="#ebe834" d="m48.992 34.059-5.724-4.474 1.685 7.067z"/><path fill="#7c7c7c" d="m58.965 58.846-3.968-27.332 2.827-.41 1.544 2.404-19.233 12.35-1.544-2.405 1.55-2.4 23.201 14.982-1.55 2.4zm5.655-.82q.037.253.028.51-.01.257-.064.508-.055.251-.153.488-.099.238-.238.453-.077.118-.164.228t-.185.211-.205.191-.222.171-.238.148q-.123.068-.252.124t-.262.098-.271.073q-.138.03-.277.045-.14.016-.28.018-.14.003-.28-.009t-.278-.037-.273-.064q-.135-.038-.266-.09-.13-.052-.255-.116t-.243-.14L37.041 45.854q-.52-.336-.854-.857-.076-.118-.14-.243t-.115-.255-.09-.266-.063-.273-.036-.278-.009-.28.019-.28.046-.277.073-.27.1-.263.124-.251.149-.238.17-.222.193-.204.21-.185.23-.163L56.28 28.7q.52-.334 1.133-.423.139-.02.279-.026.14-.007.28 0 .14.008.28.029.138.02.274.055t.268.083.259.108q.127.06.247.133.12.072.233.156.112.084.216.179.103.094.197.199.094.104.178.217t.155.233.131.248.107.26q.046.132.08.268t.054.275z"/><path fill="#999" d="m61.792 58.436-3.968-27.332-19.233 12.35z"/><path fill="#cf0000" d="M56.235 49.78q-.095.061-.194.112-.1.051-.205.092-.104.042-.213.072-.108.03-.218.05t-.223.03-.224.006-.224-.015-.22-.037-.217-.058-.21-.08-.201-.1q-.098-.054-.19-.118-.093-.064-.178-.137-.086-.073-.163-.153-.078-.081-.148-.17-.07-.087-.13-.182-.061-.094-.112-.194t-.092-.205-.072-.212-.05-.219-.03-.222-.006-.225.015-.223.037-.222.058-.216.08-.21.1-.201q.054-.098.118-.19t.137-.178.154-.163q.08-.078.168-.148t.183-.13q.095-.06.194-.112.1-.051.205-.092t.213-.072.218-.05.223-.03.224-.006.224.015.22.037.217.058.21.08.201.1.19.118.178.137.163.154.148.169.13.182.112.195.092.204.072.213.05.218.03.223.006.224-.015.224-.037.22-.058.217-.08.21-.1.201-.118.19-.137.178-.154.164-.168.147-.183.13"/><path fill="red" d="M55.823 49.14q-.063.04-.13.074-.066.034-.136.061-.07.028-.141.048-.072.02-.146.034-.074.013-.148.019-.075.006-.15.005-.075-.002-.149-.01-.074-.01-.148-.025-.073-.016-.144-.039t-.14-.053-.134-.066-.127-.08-.118-.09q-.057-.05-.109-.103-.052-.054-.098-.113t-.087-.122-.075-.13-.061-.136-.048-.141-.034-.146-.019-.148-.005-.15.01-.149q.01-.074.025-.147.016-.074.04-.145.022-.071.052-.14.03-.068.066-.134.037-.065.08-.126.042-.062.09-.119.05-.057.103-.109.054-.052.113-.098t.122-.087.13-.075.136-.061.141-.048.146-.034.148-.019.15-.004q.075 0 .149.01.074.008.148.024.073.016.144.04.071.022.14.052.068.03.134.067.065.036.127.079.061.042.118.091t.109.102.098.113.087.122.075.13q.034.066.061.136.028.07.048.141.02.072.034.146.013.074.019.148.006.075.005.15-.002.075-.01.15-.01.073-.025.147-.016.073-.04.144-.022.071-.052.14-.03.068-.066.134-.037.065-.08.127-.042.061-.09.118-.05.057-.103.11-.054.051-.113.097t-.122.087"/></svg>