<?xml version="1.0" encoding="utf-8" ?>
<svg xmlns="http://www.w3.org/2000/svg" xmlns:xlink="http://www.w3.org/1999/xlink" width="110" height="110">
	<path fill-opacity="0.2" transform="matrix(1.42857 0 0 1.42857 55 47.8571)" d="M-1.06288 -8.42125Q-2.49843 -8.42125 -3.77773 -8.05992Q-5.05702 -7.69859 -6.61952 -6.89781L-8.29921 -11.4193Q-6.73671 -12.4154 -4.61757 -12.9525Q-2.49843 -13.4994 -0.457413 -13.4994Q2.10118 -13.4994 3.76134 -12.8158Q5.42149 -12.142 6.37852 -11.097Q7.33556 -10.0619 7.71642 -8.82164Q8.09727 -7.58141 8.09727 -6.45836Q8.09727 -5.33531 7.75548 -4.39781Q7.42345 -3.46031 6.8961 -2.65953Q6.37852 -1.85875 5.69493 -1.13609Q5.0211 -0.423203 4.37657 0.221328Q3.89806 0.699843 3.38048 1.24672Q2.8629 1.78383 2.44298 2.37953Q2.02306 2.97523 1.73985 3.6393Q1.45665 4.30336 1.45665 4.97719Q1.45665 5.1432 1.45665 5.46547Q1.45665 5.77797 1.49571 6.02211L-3.77773 6.02211Q-3.85585 5.62172 -3.88515 5.12367Q-3.90468 4.61586 -3.90468 4.2643Q-3.90468 3.14125 -3.62148 2.24281Q-3.33827 1.34437 -2.87929 0.563125Q-2.4203 -0.218125 -1.8246 -0.891953Q-1.21913 -1.57555 -0.584366 -2.22008Q0.343369 -3.13805 1.09532 -4.03648Q1.85704 -4.94469 1.85704 -6.09703Q1.85704 -7.06383 1.11485 -7.73766Q0.382431 -8.42125 -1.06288 -8.42125ZM2.65782 11.6959Q2.65782 13.4635 1.51524 14.4205Q0.382431 15.3776 -1.06288 15.3776Q-2.49843 15.3776 -3.64101 14.4205Q-4.78358 13.4635 -4.78358 11.6959Q-4.78358 9.93812 -3.64101 8.98109Q-2.49843 8.02406 -1.06288 8.02406Q0.382431 8.02406 1.51524 8.98109Q2.65782 9.93812 2.65782 11.6959Z"/>
	
	
</svg>
