<svg xmlns="http://www.w3.org/2000/svg" width="110" height="110"><path fill="#cf235f" d="M53.482 35.827q-2.051 0-3.879.516t-4.06 1.66l-2.399-6.46q2.232-1.422 5.26-2.19 3.027-.78 5.943-.78 3.655 0 6.026.976 2.372.962 3.74 2.455 1.366 1.479 1.91 3.25.545 1.773.545 3.377t-.489 2.944q-.474 1.339-1.227 2.483-.74 1.144-1.716 2.176-.963 1.019-1.884 1.94-.683.683-1.423 1.464-.74.767-1.339 1.618-.6.851-1.005 1.8t-.404 1.911v.698q0 .446.056.795h-7.534q-.111-.572-.153-1.283-.028-.726-.028-1.228 0-1.604.404-2.888.405-1.283 1.06-2.4.656-1.116 1.507-2.078.865-.977 1.772-1.897 1.326-1.312 2.4-2.595 1.088-1.298 1.088-2.944 0-1.381-1.06-2.344-1.047-.976-3.111-.976m5.315 28.739q0 2.525-1.632 3.892-1.619 1.367-3.683 1.367-2.051 0-3.683-1.367-1.633-1.367-1.633-3.892 0-2.512 1.633-3.879 1.632-1.367 3.683-1.367 2.064 0 3.683 1.367 1.632 1.367 1.632 3.879"/></svg>