<svg xmlns="http://www.w3.org/2000/svg" width="110" height="110"><path fill="#7d5b1f" d="M47.857 36.429h14.286l-1.429 54.285H49.286z"/><path fill="#654a19" d="M47.857 34.286h14.286q.105 0 .21.01t.208.03.204.052q.1.03.198.07.097.041.19.09.093.05.18.109.088.058.17.125.08.067.155.141.075.075.141.156.067.082.126.169t.108.18.09.19q.04.098.07.199.031.1.052.204t.03.208.01.21v.056l-1.429 54.286q-.002.103-.015.206t-.035.204q-.023.1-.055.199-.032.098-.074.193t-.091.185-.11.176-.126.164q-.066.08-.14.151-.075.073-.155.137-.081.065-.168.122-.086.056-.178.104t-.188.087q-.096.04-.195.069t-.2.05q-.102.02-.205.03t-.207.01H49.286q-.104 0-.207-.01t-.204-.03-.201-.05q-.1-.03-.195-.069-.096-.039-.188-.087t-.178-.104-.168-.122-.154-.137-.141-.151q-.067-.08-.126-.164-.06-.085-.11-.176t-.091-.185-.074-.193-.055-.2q-.022-.1-.035-.203t-.015-.206l-1.429-54.286q-.003-.105.005-.21.007-.105.025-.209t.046-.205.066-.2q.037-.098.084-.193.048-.094.104-.183t.12-.172.138-.16.152-.145.165-.13.178-.112q.091-.052.187-.095t.196-.076.203-.056.207-.037q.105-.013.21-.016zm0 4.285V36.43L50 36.372l1.429 54.286-2.142.056v-2.143h11.428v2.143l-2.142-.056 1.429-54.286 2.142.057v2.142z"/><path fill="#888" d="M27.857 49.286Q25 33.57 26.43 22.143q28.571-1.429 57.142 0Q85 33.57 82.143 49.286z"/><path fill="#6e6e6e" d="M25.749 49.669q-2.916-16.037-1.447-27.792.024-.186.079-.365.055-.18.14-.346.086-.167.2-.317.112-.15.25-.277.137-.127.295-.229t.33-.175.355-.114.37-.051q28.679-1.434 57.357 0 .188.009.37.05.183.043.356.115t.33.175.295.23.25.276.2.317q.085.167.14.346t.079.365q1.469 11.755-1.447 27.792-.033.184-.098.359t-.159.337q-.094.16-.214.304-.12.142-.264.262-.143.12-.305.213t-.338.156-.36.096q-.183.033-.37.033H27.857q-.187 0-.37-.033-.185-.032-.36-.096-.176-.063-.338-.156t-.305-.213-.264-.262-.214-.304q-.094-.162-.159-.337t-.098-.359m4.216-.767-2.108.384v-2.143h54.286v2.143l-2.108-.384q2.798-15.39 1.41-26.493l2.126-.266-.107 2.14q-28.464-1.423-56.928 0l-.107-2.14 2.126.266q-1.388 11.102 1.41 26.493"/><path fill="#6e6e6e" d="M69.286 35q0 .35-.017.701-.018.35-.052.7-.034.348-.086.695t-.12.691q-.068.344-.153.684-.086.34-.187.676t-.22.666-.253.654-.284.64q-.15.318-.315.627-.165.31-.346.61-.18.301-.375.593-.195.291-.404.573t-.431.553-.458.53-.483.509-.508.483-.531.458-.553.431-.573.404-.593.375-.61.346-.626.315-.641.284-.654.253-.666.22-.676.187-.684.153q-.344.069-.69.12-.348.052-.697.086t-.699.052q-.35.017-.701.017-.35 0-.701-.018-.35-.017-.7-.051-.348-.034-.695-.086t-.691-.12q-.344-.068-.684-.153-.34-.086-.676-.187t-.666-.22-.654-.253-.64-.284q-.318-.15-.627-.315-.31-.165-.61-.346-.301-.18-.593-.375-.291-.195-.573-.404t-.553-.431-.53-.458-.509-.483-.483-.508-.458-.531-.431-.553-.404-.573-.375-.593-.346-.61-.315-.626-.284-.641-.253-.654-.22-.666-.187-.676-.153-.684q-.069-.344-.12-.69-.052-.348-.086-.697t-.052-.699q-.017-.35-.017-.701 0-.35.017-.701.018-.35.052-.7.034-.348.086-.695t.12-.691q.068-.344.153-.684.086-.34.187-.676t.22-.666.253-.654.284-.64q.15-.318.315-.627.165-.31.346-.61.18-.301.375-.593.195-.291.404-.573t.431-.553.458-.53.483-.509.508-.483.531-.458.553-.431.573-.404.593-.375.61-.346.626-.315.641-.284.654-.253.666-.22.676-.187.684-.153q.344-.069.69-.12.348-.052.697-.086t.699-.052q.35-.017.701-.017.35 0 .701.018.35.017.7.051.348.034.695.086t.691.12q.344.068.684.153.34.086.676.187t.666.22.654.253.64.284q.318.15.627.315.31.165.61.346.301.18.593.375.291.195.573.404t.553.431.53.458.509.483.483.508.458.531.431.553.404.573.375.593.346.61.315.626.284.641.253.654.22.666.187.676.153.684q.069.344.12.69.052.348.086.697t.052.699q.017.35.017.701"/><path fill="#29f2e5" d="m60 35 4.51 3.09-5.465-.151 1.833 5.151-4.333-3.335L55 45l-1.545-5.245-4.333 3.335 1.833-5.151-5.466.151L50 35l-4.51-3.09 5.465.151-1.833-5.151 4.333 3.335L55 25l1.545 5.245 4.333-3.335-1.833 5.151 5.466-.151z"/><path fill="#21c4b9" d="m60.283 34.588 5.91 4.049-7.162-.198.014-.5.471-.168 2.402 6.75-5.678-4.37.305-.396.48.142L55 46.769l-2.025-6.872.48-.142.305.397-5.678 4.37 2.402-6.75.47.167.015.5-7.162.198 5.91-4.05L50 35l-.283.412-5.91-4.049 7.162.198-.014.5-.471.168-2.402-6.75 5.678 4.37-.305.396-.48-.142L55 23.231l2.025 6.872-.48.142-.305-.397 5.678-4.37-2.402 6.75-.47-.167-.015-.5 7.162-.198-5.91 4.05L60 35zM59.115 35l5.113-3.503.283.413.013.5-6.195.171 2.078-5.839.47.168.306.396-4.911 3.78-1.752-5.945L55 25l.48.141-1.752 5.945-4.91-3.78.304-.396.471-.168 2.078 5.84-6.195-.172.013-.5.283-.413L50.885 35l-5.113 3.503-.283-.413-.013-.5 6.195-.171-2.078 5.839-.47-.168-.306-.396 4.911-3.78 1.752 5.945L55 45l-.48-.141 1.752-5.945 4.91 3.78-.304.396-.471.168-2.078-5.84 6.195.172-.013.5-.283.413-4.51-3.09z"/></svg>