<svg xmlns="http://www.w3.org/2000/svg" width="110" height="110"><path fill="#f0bd48" d="M78.548 62.282q-.354.228-.719.437-.365.21-.74.402-.374.191-.758.364-.383.173-.775.327t-.79.289q-.4.134-.804.249-.405.115-.815.21t-.824.169-.832.129-.837.087-.84.047-.841.005-.84-.036-.839-.077-.833-.118-.826-.16-.817-.199-.807-.239q-.4-.13-.794-.278-.394-.15-.78-.317-.385-.168-.762-.355-.378-.187-.745-.392t-.724-.428-.703-.463q-.346-.24-.679-.497t-.654-.53-.627-.561-.598-.591-.57-.62-.537-.647-.506-.673-.471-.697-.438-.719q-.21-.364-.4-.74-.192-.374-.365-.757-.173-.384-.327-.776-.154-.391-.289-.79t-.25-.804-.209-.815-.169-.824-.129-.831-.087-.837q-.034-.42-.047-.84-.013-.421-.005-.842.007-.42.036-.84t.077-.838.118-.833.16-.827.198-.817q.11-.406.24-.807.13-.4.278-.794.149-.393.317-.78.168-.385.355-.762t.392-.745.428-.724.463-.703.497-.678.53-.654.56-.627q.29-.307.592-.599.303-.292.62-.569t.647-.538.673-.505.696-.472.72-.437.739-.401.758-.365.776-.327.79-.288.804-.25.815-.21.824-.169.831-.128.837-.088.84-.047.842-.005.84.036.838.077q.418.05.833.119t.826.158.818.2q.406.11.807.239.4.13.794.278.393.15.779.318t.763.355q.377.186.744.391.368.206.725.428.357.223.702.464.346.24.68.497.333.256.653.53.32.272.627.56t.599.592.569.62q.277.316.538.646.26.33.505.673t.472.697.437.719.401.74q.192.374.365.758.173.383.327.775t.288.79q.135.4.25.804.114.405.209.815t.17.824.128.832.088.836.046.84.006.842-.036.84q-.029.42-.078.838-.048.418-.118.834-.07.415-.159.826-.09.411-.199.817-.11.407-.24.807-.129.4-.278.794t-.317.78-.355.762-.392.745-.428.724-.463.703-.497.679-.53.653-.56.627-.592.6-.62.568-.647.538-.672.505-.697.472"/><path fill="none" stroke="#c2993a" stroke-linecap="round" stroke-linejoin="round" stroke-width="5.71428" d="M78.548 62.282q-.354.228-.719.437-.365.21-.74.402-.374.191-.758.364-.383.173-.775.327t-.79.289q-.4.134-.804.249-.405.115-.815.21t-.824.169-.832.129-.837.087-.84.047-.841.005-.84-.036-.839-.077-.833-.118-.826-.16-.817-.199-.807-.239q-.4-.13-.794-.278-.394-.15-.78-.317-.385-.168-.762-.355-.378-.187-.745-.392t-.724-.428-.703-.463q-.346-.24-.679-.497t-.654-.53-.627-.561-.598-.591-.57-.62-.537-.647-.506-.673-.471-.697-.438-.719q-.21-.364-.4-.74-.192-.374-.365-.757-.173-.384-.327-.776-.154-.391-.289-.79t-.25-.804-.209-.815-.169-.824-.129-.831-.087-.837q-.034-.42-.047-.84-.013-.421-.005-.842.007-.42.036-.84t.077-.838.118-.833.16-.827.198-.817q.11-.406.24-.807.13-.4.278-.794.149-.393.317-.78.168-.385.355-.762t.392-.745.428-.724.463-.703.497-.678.53-.654.56-.627q.29-.307.592-.599.303-.292.62-.569t.647-.538.673-.505.696-.472.72-.437.739-.401.758-.365.776-.327.79-.288.804-.25.815-.21.824-.169.831-.128.837-.088.84-.047.842-.005.84.036.838.077q.418.05.833.119t.826.158.818.2q.406.11.807.239.4.13.794.278.393.15.779.318t.763.355q.377.186.744.391.368.206.725.428.357.223.702.464.346.24.68.497.333.256.653.53.32.272.627.56t.599.592.569.62q.277.316.538.646.26.33.505.673t.472.697.437.719.401.74q.192.374.365.758.173.383.327.775t.288.79q.135.4.25.804.114.405.209.815t.17.824.128.832.088.836.046.84.006.842-.036.84q-.029.42-.078.838-.048.418-.118.834-.07.415-.159.826-.09.411-.199.817-.11.407-.24.807-.129.4-.278.794t-.317.78-.355.762-.392.745-.428.724-.463.703-.497.679-.53.653-.56.627-.592.6-.62.568-.647.538-.672.505-.697.472"/><path fill="#39b54a" d="M81.13 50.439c6.995 9.177-2.756 14.108-5.739 19.384-1.72-6.195-3.094-19.156 5.738-19.384"/><path fill="#2e933c" d="M82.834 49.14q4.142 5.433 2.393 10.692-.965 2.906-5.026 7.375-2.3 2.53-2.944 3.67-.052.092-.113.178-.06.086-.129.166t-.145.153-.159.137-.172.121-.183.104-.192.085-.2.067q-.1.028-.205.046-.103.018-.208.026t-.21.005q-.106-.002-.21-.015-.105-.013-.207-.036-.103-.023-.203-.056t-.196-.076-.188-.094q-.184-.104-.344-.241-.16-.138-.29-.305t-.225-.354-.151-.392q-1.933-6.962-1.147-12.79 1.23-9.112 8.894-9.31.254-.006.503.047t.478.163.427.27.352.364m-3.409 2.598 1.704-1.3.056 2.143q-4.017.103-4.758 5.599-.668 4.955 1.03 11.07l-2.066.573-1.865-1.055q.881-1.558 3.503-4.444 3.452-3.798 4.132-5.844 1.033-3.11-1.736-6.742"/><path fill="#f0bd48" d="M30.733 61.038q-.02-.42-.019-.842.001-.42.023-.84t.063-.84.105-.835.145-.828q.083-.413.186-.82.103-.409.226-.811t.265-.799.305-.784q.161-.389.342-.769.18-.38.38-.75.199-.371.416-.732.217-.36.451-.71t.486-.687q.251-.338.52-.662.267-.325.55-.637.283-.31.581-.608.298-.297.61-.579.313-.282.639-.548t.664-.517.689-.483.712-.449q.361-.215.733-.413.371-.198.752-.377.38-.18.77-.34.389-.16.785-.3.397-.142.8-.263t.811-.223.821-.183.83-.142.835-.101q.419-.041.84-.06.42-.02.84-.02.421 0 .842.022.42.022.839.064.418.042.835.104.416.063.828.146.413.083.82.186.409.103.811.226t.799.265.784.304q.389.162.769.343.38.18.75.38.371.199.732.416.36.217.71.451t.687.486q.338.251.662.519.325.267.637.55.31.284.608.582.297.298.579.61.282.313.548.639.267.325.517.664.25.338.483.689t.449.712.413.732.377.753.34.77.3.785q.142.397.263.8t.223.811.183.821.142.83.101.835q.041.419.06.84.02.42.02.84 0 .421-.022.841t-.064.84-.104.834-.146.83-.186.82-.226.81-.265.799-.304.784-.343.769q-.18.38-.38.75-.199.371-.416.732-.217.36-.451.71t-.486.687-.519.662-.55.636q-.284.312-.582.609t-.61.579-.639.548-.664.516q-.338.25-.689.484t-.712.449-.732.413-.753.377-.77.34-.785.3q-.397.142-.8.263t-.811.223q-.408.101-.821.183-.413.08-.83.142-.416.06-.835.101-.419.04-.84.06-.42.02-.84.02-.421-.001-.841-.023t-.84-.063-.834-.105-.83-.145-.82-.186-.81-.226-.799-.265-.784-.305q-.389-.161-.769-.342-.38-.18-.75-.38-.371-.199-.732-.416-.36-.217-.71-.451t-.687-.486-.662-.52-.636-.55q-.312-.283-.609-.581t-.579-.61-.548-.639-.516-.664-.484-.689-.449-.712q-.215-.361-.413-.733-.197-.371-.377-.752-.179-.38-.34-.77-.16-.389-.3-.785-.142-.397-.263-.8t-.223-.811q-.101-.409-.183-.821-.08-.413-.142-.83-.06-.416-.101-.835-.04-.419-.06-.84"/><path fill="none" stroke="#c2993a" stroke-linecap="round" stroke-linejoin="round" stroke-width="5.71428" d="M30.733 61.038q-.02-.42-.019-.842.001-.42.023-.84t.063-.84.105-.835.145-.828q.083-.413.186-.82.103-.409.226-.811t.265-.799.305-.784q.161-.389.342-.769.18-.38.38-.75.199-.371.416-.732.217-.36.451-.71t.486-.687q.251-.338.52-.662.267-.325.55-.637.283-.31.581-.608.298-.297.61-.579.313-.282.639-.548t.664-.517.689-.483.712-.449q.361-.215.733-.413.371-.198.752-.377.38-.18.77-.34.389-.16.785-.3.397-.142.8-.263t.811-.223.821-.183.83-.142.835-.101q.419-.041.84-.06.42-.02.84-.02.421 0 .842.022.42.022.839.064.418.042.835.104.416.063.828.146.413.083.82.186.409.103.811.226t.799.265.784.304q.389.162.769.343.38.18.75.38.371.199.732.416.36.217.71.451t.687.486q.338.251.662.519.325.267.637.55.31.284.608.582.297.298.579.61.282.313.548.639.267.325.517.664.25.338.483.689t.449.712.413.732.377.753.34.77.3.785q.142.397.263.8t.223.811.183.821.142.83.101.835q.041.419.06.84.02.42.02.84 0 .421-.022.841t-.064.84-.104.834-.146.83-.186.82-.226.81-.265.799-.304.784-.343.769q-.18.38-.38.75-.199.371-.416.732-.217.36-.451.71t-.486.687-.519.662-.55.636q-.284.312-.582.609t-.61.579-.639.548-.664.516q-.338.25-.689.484t-.712.449-.732.413-.753.377-.77.34-.785.3q-.397.142-.8.263t-.811.223q-.408.101-.821.183-.413.08-.83.142-.416.06-.835.101-.419.04-.84.06-.42.02-.84.02-.421-.001-.841-.023t-.84-.063-.834-.105-.83-.145-.82-.186-.81-.226-.799-.265-.784-.305q-.389-.161-.769-.342-.38-.18-.75-.38-.371-.199-.732-.416-.36-.217-.71-.451t-.687-.486-.662-.52-.636-.55q-.312-.283-.609-.581t-.579-.61-.548-.639-.516-.664-.484-.689-.449-.712q-.215-.361-.413-.733-.197-.371-.377-.752-.179-.38-.34-.77-.16-.389-.3-.785-.142-.397-.263-.8t-.223-.811q-.101-.409-.183-.821-.08-.413-.142-.83-.06-.416-.101-.835-.04-.419-.06-.84"/><path fill="#39b54a" d="M39.7 69.195c-11.446 1.47-10.84-9.44-13.918-14.661 6.224 1.608 18.136 6.898 13.918 14.661"/><path fill="#2e933c" d="M39.973 71.32q-6.777.87-10.457-3.273-2.034-2.289-3.873-8.04-1.042-3.256-1.707-4.385-.054-.09-.098-.186t-.08-.195q-.034-.1-.059-.202t-.04-.206-.018-.21.001-.21.022-.21q.017-.103.043-.205t.062-.201q.037-.099.082-.194t.1-.184.119-.174.134-.162.15-.148q.079-.07.164-.132t.175-.115q.182-.107.382-.177.199-.07.408-.1t.42-.017.415.065q6.995 1.807 11.649 5.401 7.277 5.621 3.615 12.358-.121.224-.291.413t-.38.332-.448.235-.49.123m-.546-4.25.273 2.125-1.883-1.023q1.918-3.53-2.47-6.92-3.957-3.056-10.101-4.644l.536-2.074 1.846-1.088q.909 1.542 2.096 5.255 1.564 4.888 2.996 6.5 2.176 2.45 6.707 1.869"/><path fill="#f0bd48" d="M55.719 20.251q.374.193.738.405.364.21.717.44.353.228.695.474t.67.508q.33.262.646.54.315.278.617.571.302.294.59.601.286.308.558.63.272.32.527.655.256.335.495.681.238.347.46.704.221.358.425.726.204.369.39.746.185.378.351.765.167.386.315.78.147.394.275.795t.236.808.196.818.156.827.115.833.074.839.033.84-.008.842-.05.84-.091.836-.132.831-.172.824-.213.814-.252.802q-.136.399-.292.79-.155.39-.33.774-.174.383-.367.757t-.404.738-.44.717-.474.695-.508.67-.54.646q-.279.316-.572.618-.293.301-.6.588-.309.288-.63.56-.321.27-.656.526-.334.256-.68.495t-.705.46-.726.425-.746.39-.764.352-.78.314q-.395.147-.796.275-.4.128-.807.236-.407.109-.819.197-.411.088-.826.156-.416.067-.834.115-.418.047-.838.074t-.84.033q-.422.006-.842-.009t-.84-.05-.837-.09q-.417-.056-.83-.132-.415-.077-.824-.173-.41-.096-.814-.213-.405-.116-.803-.252t-.79-.291q-.39-.156-.773-.33t-.757-.368q-.374-.193-.738-.404-.364-.21-.718-.44-.353-.228-.695-.474t-.67-.508q-.33-.262-.645-.54-.316-.278-.618-.572t-.589-.6-.559-.63-.527-.655-.494-.681q-.24-.347-.46-.705-.222-.357-.426-.726-.204-.368-.39-.746-.185-.377-.351-.764-.167-.386-.314-.78-.148-.395-.276-.795-.128-.401-.236-.808t-.196-.818-.156-.827-.115-.834-.074-.838-.033-.84.008-.842.05-.84.091-.836.132-.831.172-.824.213-.814.252-.803.292-.789.33-.774.367-.757.404-.738.44-.717.475-.695q.245-.342.508-.671.262-.33.54-.645.278-.316.571-.618t.601-.589.63-.558q.32-.272.655-.528.334-.255.68-.494t.705-.46q.358-.222.726-.426t.746-.389.764-.352.78-.314.796-.276.808-.236.818-.196.827-.156q.415-.067.833-.115.418-.047.838-.074t.841-.033.841.009.84.05.837.09.83.132q.415.076.824.173.41.096.814.212.405.117.803.253t.79.291q.39.156.774.33.383.174.757.367"/><path fill="none" stroke="#c2993a" stroke-linecap="round" stroke-linejoin="round" stroke-width="5.71428" d="M55.719 20.251q.374.193.738.405.364.21.717.44.353.228.695.474t.67.508q.33.262.646.54.315.278.617.571.302.294.59.601.286.308.558.63.272.32.527.655.256.335.495.681.238.347.46.704.221.358.425.726.204.369.39.746.185.378.351.765.167.386.315.78.147.394.275.795t.236.808.196.818.156.827.115.833.074.839.033.84-.008.842-.05.84-.091.836-.132.831-.172.824-.213.814-.252.802q-.136.399-.292.79-.155.39-.33.774-.174.383-.367.757t-.404.738-.44.717-.474.695-.508.67-.54.646q-.279.316-.572.618-.293.301-.6.588-.309.288-.63.56-.321.27-.656.526-.334.256-.68.495t-.705.46-.726.425-.746.39-.764.352-.78.314q-.395.147-.796.275-.4.128-.807.236-.407.109-.819.197-.411.088-.826.156-.416.067-.834.115-.418.047-.838.074t-.84.033q-.422.006-.842-.009t-.84-.05-.837-.09q-.417-.056-.83-.132-.415-.077-.824-.173-.41-.096-.814-.213-.405-.116-.803-.252t-.79-.291q-.39-.156-.773-.33t-.757-.368q-.374-.193-.738-.404-.364-.21-.718-.44-.353-.228-.695-.474t-.67-.508q-.33-.262-.645-.54-.316-.278-.618-.572t-.589-.6-.559-.63-.527-.655-.494-.681q-.24-.347-.46-.705-.222-.357-.426-.726-.204-.368-.39-.746-.185-.377-.351-.764-.167-.386-.314-.78-.148-.395-.276-.795-.128-.401-.236-.808t-.196-.818-.156-.827-.115-.834-.074-.838-.033-.84.008-.842.05-.84.091-.836.132-.831.172-.824.213-.814.252-.803.292-.789.33-.774.367-.757.404-.738.44-.717.475-.695q.245-.342.508-.671.262-.33.54-.645.278-.316.571-.618t.601-.589.63-.558q.32-.272.655-.528.334-.255.68-.494t.705-.46q.358-.222.726-.426t.746-.389.764-.352.78-.314.796-.276.808-.236.818-.196.827-.156q.415-.067.833-.115.418-.047.838-.074t.841-.033.841.009.84.05.837.09.83.132q.415.076.824.173.41.096.814.212.405.117.803.253t.79.291q.39.156.774.33.383.174.757.367"/><path fill="#39b54a" d="M44.17 23.938c4.45-10.647 13.596-4.669 19.657-4.723-4.504 4.586-15.042 12.258-19.656 4.723"/><path fill="#2e933c" d="M42.194 23.111q2.635-6.304 8.063-7.42 3-.615 8.9.667 3.34.726 4.65.714.106 0 .211.009t.208.028.205.05q.1.03.198.069t.191.088q.094.049.182.106.088.058.17.124t.157.14.142.155.127.167.11.18.091.189.073.197.053.204.033.208.012.21q.002.21-.037.418-.04.207-.119.403t-.195.372q-.115.177-.263.327-5.063 5.155-10.502 7.388-8.507 3.492-12.51-3.047-.133-.217-.212-.46-.078-.241-.098-.495t.021-.505.139-.486m3.954 1.653-1.977-.826 1.827-1.12q2.098 3.427 7.228 1.321 4.626-1.898 9.072-6.426l1.53 1.502.018 2.143q-1.79.016-5.6-.812-5.015-1.09-7.126-.656-3.21.66-4.972 4.874"/></svg>