<svg xmlns="http://www.w3.org/2000/svg" width="110" height="110"><path fill="#777" d="M72.34 47.857 60.488 65.54 38.84 59.167l-.214-22.505 22.856-8.65z"/><path fill="#606060" d="M74.12 49.05 62.268 66.732q-.095.142-.21.266-.116.125-.25.23-.134.104-.283.186-.149.083-.309.14t-.326.09-.337.037-.339-.016q-.168-.022-.331-.07l-21.647-6.372q-.165-.049-.319-.122-.154-.074-.295-.172t-.264-.215-.227-.255-.183-.288-.136-.313-.084-.33q-.028-.17-.03-.34l-.214-22.506q-.001-.164.022-.325.023-.162.07-.319.048-.156.119-.303.07-.148.163-.283.092-.135.204-.254.112-.12.24-.22.129-.102.271-.182t.295-.138l22.857-8.65q.18-.068.369-.103t.381-.036.382.033.37.1.345.165.312.223.266.275.213.319L74.22 46.829q.07.128.122.265.053.137.086.28.033.142.046.287.013.146.007.292-.007.147-.033.29-.027.145-.072.284-.046.139-.11.27-.064.132-.146.253m-3.56-2.386 1.78 1.193-1.88 1.029L59.603 29.04l1.88-1.028.759 2.004-22.857 8.65-.758-2.004 2.143-.02.213 22.505-2.142.02.605-2.056 21.647 6.373-.605 2.055-1.78-1.193z"/></svg>