<svg xmlns="http://www.w3.org/2000/svg" width="110" height="110"><path fill="#fff" d="m66.368 57.432-12.136 6.069-12.504-5.8-3.245-14.495 9.124-11.722 15.222 1.54 9.513 11.538z"/><path fill="#cfcfcf" d="m67.326 59.349-12.135 6.068q-.216.108-.451.165t-.476.061-.478-.047-.455-.151l-12.505-5.8q-.224-.104-.418-.256-.194-.151-.349-.343t-.262-.414-.16-.463l-3.245-14.495q-.052-.231-.052-.468t.052-.469.153-.445.247-.402l9.124-11.722q.167-.215.383-.381.215-.166.465-.273t.52-.148.539-.014l15.222 1.54q.209.021.41.082t.385.16q.185.1.347.232.162.133.296.295l9.512 11.538q.096.116.175.244.078.13.138.268t.1.283.059.295q.02.15.017.3-.002.151-.025.3-.023.15-.067.294-.043.144-.107.28l-5.974 12.871q-.153.33-.406.591t-.579.424m-1.917-3.833.959 1.916-1.944-.902 5.974-12.87 1.944.902-1.654 1.363-9.512-11.538 1.653-1.363-.215 2.132-15.223-1.54.216-2.132 1.691 1.316-9.124 11.722-1.691-1.316 2.09-.468 3.246 14.495-2.091.468.901-1.944 12.505 5.8-.902 1.944-.958-1.917z"/></svg>