<svg xmlns="http://www.w3.org/2000/svg" width="110" height="110"><path fill="#e0c85c" d="m76.934 54.3-9.403 3.402-7.649-6.442 1.755-9.845 9.404-3.403 7.648 6.442z"/><path fill="none" stroke="#b5a24b" stroke-linejoin="round" stroke-width="4.28571" d="m76.934 54.3-9.403 3.402-7.649-6.442 1.755-9.845 9.404-3.403 7.648 6.442z"/><path fill="#e0c85c" d="m48.558 69.791-3.403-9.403 6.442-7.648 9.845 1.754 3.403 9.404-6.442 7.648z"/><path fill="none" stroke="#b5a24b" stroke-linejoin="round" stroke-width="4.28571" d="m48.558 69.791-3.403-9.403 6.442-7.648 9.845 1.754 3.403 9.404-6.442 7.648z"/><path fill="#e0c85c" d="m33.066 41.415 9.403-3.403 7.649 6.442-1.755 9.845-9.404 3.403-7.648-6.442z"/><path fill="none" stroke="#b5a24b" stroke-linejoin="round" stroke-width="4.28571" d="m33.066 41.415 9.403-3.403 7.649 6.442-1.755 9.845-9.404 3.403-7.648-6.442z"/><path fill="#e0c85c" d="m61.442 25.923 3.403 9.403-6.442 7.649-9.845-1.755-3.403-9.403 6.442-7.649z"/><path fill="none" stroke="#b5a24b" stroke-linejoin="round" stroke-width="4.28571" d="m61.442 25.923 3.403 9.403-6.442 7.649-9.845-1.755-3.403-9.403 6.442-7.649z"/></svg>