<svg xmlns="http://www.w3.org/2000/svg" width="110" height="110"><path fill="#7d5b1f" d="m42.131 59.967 14.666-22.84 7.212 4.631-14.665 22.84z"/><path fill="#654a19" d="m48.572 65.8-7.212-4.631q-.119-.076-.22-.174t-.182-.213-.136-.245-.086-.266-.033-.278.022-.28.077-.269.127-.25l14.666-22.839q.076-.118.173-.22.098-.101.213-.181.116-.08.245-.137.129-.056.266-.086.138-.03.279-.033.14-.002.279.023.138.025.27.076.13.052.249.128l7.212 4.63q.119.077.22.175t.181.213q.08.115.137.244.056.13.086.267t.033.278q.002.14-.023.28-.025.138-.076.268-.052.131-.128.25L50.546 65.37q-.076.118-.174.22-.097.1-.213.181t-.244.137q-.13.056-.267.086t-.278.032q-.14.003-.28-.022-.138-.025-.269-.077-.13-.051-.249-.127m-4.467-6.264 4.809 3.088 13.121-20.436-4.808-3.087z"/><path fill="#555" d="M53.443 26.485q.162-.25.335-.493t.358-.477q.185-.234.38-.458.197-.225.404-.44.207-.214.424-.418t.444-.397q.227-.194.463-.376.236-.181.48-.352.246-.17.499-.328.252-.157.513-.303.26-.145.527-.277t.54-.252q.274-.119.552-.224.28-.106.563-.198.283-.091.571-.17.288-.077.58-.14.29-.064.585-.113.294-.049.59-.084.296-.034.593-.054.298-.02.596-.026t.596.004.595.033.592.062.59.091.583.12q.29.067.577.149.287.08.57.176.282.095.56.204.277.11.549.232t.537.258.524.284q.258.15.51.31.25.161.493.334.242.174.476.358.234.185.458.381.225.196.44.403.214.207.418.424.204.218.398.445.193.227.375.463t.352.48.328.498.303.513.278.528.251.54q.12.273.225.552t.197.563.17.571.14.58q.064.29.113.584.05.294.084.59.034.297.055.594t.025.595q.006.298-.004.596-.009.298-.033.595-.023.298-.062.593-.038.296-.091.59-.053.293-.12.583t-.148.577-.177.57-.204.56-.232.549q-.122.271-.258.537-.136.265-.284.523-.149.259-.31.51l-3.86 6.01-20.435-13.121z"/><path fill="#454545" d="M52.241 25.713q3.038-4.73 8.53-5.927 5.493-1.197 10.223 1.84t5.927 8.53-1.84 10.223l-3.86 6.01q-.075.119-.173.22t-.213.181q-.116.08-.244.137-.13.056-.267.086t-.278.033q-.14.002-.28-.023-.138-.025-.269-.076-.13-.052-.249-.128L48.812 33.698q-.118-.076-.22-.174-.1-.098-.181-.213-.08-.116-.137-.245-.056-.129-.086-.266-.03-.138-.032-.278t.022-.28q.025-.138.077-.269.051-.13.127-.25zm2.405 1.544-3.86 6.01-1.202-.771.772-1.202 20.436 13.121-.772 1.202-1.202-.772 3.859-6.01q2.398-3.735 1.453-8.07-.945-4.337-4.68-6.735t-8.07-1.453q-4.337.946-6.734 4.68"/><path fill="#555" d="m40.93 59.195 9.616 6.175-2.315 3.606-9.617-6.175z"/><path fill="#454545" d="m47.459 70.178-9.617-6.175q-.119-.076-.22-.173-.101-.098-.181-.214t-.137-.244-.086-.267-.033-.278.023-.279.076-.27q.052-.13.128-.249l2.315-3.606q.076-.118.174-.22.098-.101.213-.181.116-.08.245-.137.129-.056.266-.086.138-.03.278-.033.14-.002.28.023.138.025.269.076.13.052.25.128l9.616 6.175q.118.076.22.173.1.098.181.213.08.116.137.245.056.129.086.267.03.137.032.278.003.14-.022.279-.025.138-.076.27-.052.13-.128.249l-2.315 3.606q-.076.118-.174.22-.098.1-.213.181-.116.08-.245.137-.129.056-.266.086-.138.03-.278.032t-.28-.022-.269-.076-.25-.128m-6.871-7.807 7.212 4.631.772-1.202-7.212-4.631z"/></svg>