<svg xmlns="http://www.w3.org/2000/svg" width="110" height="110"><path fill="#695118" d="m45 37.857 12.857-5.714 10 5.714 1.429 15.714L55 62.143l-10-2.857-4.286-11.429z"/><path fill="#554213" d="m44.13 35.899 12.857-5.714q.23-.103.478-.149t.5-.033.494.083.461.196l10 5.715q.225.128.412.306.188.178.328.396.14.217.224.462t.107.502l1.429 15.714q.013.15.006.3t-.036.298q-.028.148-.077.29t-.117.277-.154.257-.189.233-.219.205-.246.172L56.102 63.98q-.188.114-.396.186-.208.073-.426.101-.218.03-.438.013-.22-.016-.43-.077l-10-2.857q-.242-.069-.461-.192t-.404-.293-.325-.38-.228-.443L38.708 48.61q-.072-.193-.106-.395-.035-.202-.03-.407t.048-.406q.044-.2.125-.389l4.285-10q.16-.373.445-.661.284-.288.655-.453m1.74 3.916L45 37.857l1.97.844-4.286 10-1.97-.844 2.007-.752 4.285 11.428-2.006.753.589-2.06 10 2.856-.589 2.06-1.102-1.837 14.285-8.571 1.103 1.837-2.134.194-1.429-15.714 2.134-.194-1.063 1.86-10-5.714 1.063-1.86.87 1.958z"/></svg>