<svg xmlns="http://www.w3.org/2000/svg" width="110" height="110"><path fill="#333" d="m59.286 47.857 15-8.66v17.32z"/><path fill="none" stroke="#292929" stroke-linejoin="round" stroke-width="4.28571" d="m59.286 47.857 15-8.66v17.32z"/><path fill="#333" d="m56.324 51.933 12.872 11.59-16.473 5.352z"/><path fill="none" stroke="#292929" stroke-linejoin="round" stroke-width="4.28571" d="m56.324 51.933 12.872 11.59-16.473 5.352z"/><path fill="#333" d="M51.533 50.376 44.488 66.2l-10.18-14.012z"/><path fill="none" stroke="#292929" stroke-linejoin="round" stroke-width="4.28571" d="M51.533 50.376 44.488 66.2l-10.18-14.012z"/><path fill="#333" d="m51.533 45.338-17.226-1.81 10.18-14.013z"/><path fill="none" stroke="#292929" stroke-linejoin="round" stroke-width="4.28571" d="m51.533 45.338-17.226-1.81 10.18-14.013z"/><path fill="#333" d="m56.324 43.781-3.6-16.942 16.472 5.352z"/><path fill="none" stroke="#292929" stroke-linejoin="round" stroke-width="4.28571" d="m56.324 43.781-3.6-16.942 16.472 5.352z"/></svg>