<svg xmlns="http://www.w3.org/2000/svg" width="110" height="110"><path fill="#fff824" d="M59.168 54.348c1.311 7.602-9.607 7.27-22.148-5.642l10.274-.485c-7.239-2.665-1.492-11.955 15.96-16.36l-4.716 9.14c5.928-4.936 11.1 4.686 6.187 22.003z"/><path fill="#cfc91d" d="M61.28 53.984q.7 4.064-1.91 6.173-2.367 1.912-6.462 1.172-8.024-1.45-17.425-11.13-.074-.075-.14-.158-.065-.082-.122-.17t-.105-.182q-.049-.094-.087-.192-.04-.097-.068-.199-.03-.1-.048-.204-.02-.104-.028-.209-.01-.105-.008-.21t.014-.21q.012-.104.034-.207t.054-.204.074-.197q.041-.096.092-.188t.11-.179q.06-.087.129-.167.068-.08.143-.154.281-.273.64-.429.36-.156.752-.174l10.274-.485.101 2.14-.74 2.01q-3.87-1.424-4.391-4.739-.473-3.006 2.216-6.183 5.267-6.223 18.351-9.525.102-.026.206-.042.104-.015.21-.02.105-.006.21-.001t.21.02.206.04.2.062q.1.035.195.08.096.044.186.098t.175.117q.085.063.163.133t.149.149q.07.077.133.162.063.084.118.175t.099.185.08.194.062.201q.096.38.051.77-.045.389-.224.737l-4.717 9.14-1.904-.982-1.372-1.647q3.17-2.639 6.3-1.433 2.84 1.094 4.247 5.011 2.757 7.673-.926 20.655-.029.102-.067.2t-.087.191-.105.183-.122.17-.138.16-.153.143-.167.128-.178.112-.189.093-.196.075-.203.054q-.103.023-.208.035-.104.012-.21.014-.105.002-.21-.006t-.208-.028-.205-.047q-.377-.107-.692-.34t-.527-.564l-5.557-8.655 1.803-1.158zm-4.224.729q-.026-.155-.03-.312t.015-.313.06-.308q.042-.151.106-.295.063-.144.147-.277t.185-.252.22-.223q.12-.103.251-.188.089-.057.183-.105.093-.047.191-.086t.2-.067q.1-.029.204-.048.104-.018.209-.027.105-.008.21-.006t.21.014.207.035.203.055.197.074.188.093.179.112.166.128.154.144.138.158.122.172l5.558 8.655-1.804 1.158-2.061-.585Q65.97 50.76 63.68 44.382q-.744-2.072-1.754-2.46-.782-.302-2.017.726-.12.101-.255.183-.134.082-.279.143-.144.062-.296.101t-.308.057-.313.011-.312-.034q-.154-.03-.303-.08-.148-.05-.288-.123-.094-.048-.182-.105-.088-.058-.17-.123-.083-.066-.159-.14-.075-.073-.143-.153t-.128-.167-.11-.179-.093-.189-.074-.197-.054-.203-.034-.207q-.011-.105-.013-.21t.007-.21.028-.209q.02-.103.048-.204.03-.102.068-.2.04-.097.087-.19l4.717-9.141 1.904.982.525 2.078q-11.75 2.965-16.128 8.139-1.422 1.68-1.254 2.75.13.827 1.638 1.382.147.054.285.13.138.075.263.17.126.094.236.206t.204.238q.092.127.166.266.073.139.126.287.052.148.082.302t.038.311q.005.105 0 .21-.006.105-.022.21-.015.104-.041.206t-.061.2q-.036.1-.081.195t-.1.185q-.054.09-.117.175t-.134.162-.149.149-.162.133-.176.116-.185.099-.195.08-.2.06q-.103.026-.207.041t-.21.02l-10.274.486-.1-2.14 1.536-1.494Q47 55.907 53.67 57.112q2.167.39 3.009-.29.651-.526.378-2.11"/><path fill="#37cf37" d="M57.702 52.064q-.207.133-.426.245t-.447.202-.465.156-.478.111-.487.063-.49.015-.49-.033-.484-.08-.474-.128-.458-.174-.44-.218-.416-.26-.389-.3-.357-.335-.323-.37-.285-.4-.245-.425-.202-.447-.156-.465-.11-.478-.064-.487-.015-.49.033-.49.08-.484.129-.473.173-.46.218-.439.26-.416.3-.389.336-.357.37-.323.398-.285.426-.245.447-.201.465-.157.478-.11.487-.064.49-.015.49.033.484.08.474.129.458.173q.226.099.44.218.215.12.416.26.202.14.389.3t.357.336.323.37.285.399.245.425.202.447.156.465.11.478.064.487.015.49-.033.49-.08.484-.129.474-.173.458q-.098.226-.218.44-.12.215-.26.416-.14.202-.3.39-.159.186-.336.357-.176.17-.37.322-.192.153-.398.285"/></svg>