<svg xmlns="http://www.w3.org/2000/svg" width="110" height="110"><path fill="#111" d="M55 33.571q11.429 14.286 0 28.572-11.429-14.286 0-28.572"/><path fill="#111" d="M56.673 32.233q12.5 15.624 0 31.248-.065.083-.139.158-.073.075-.154.143-.08.068-.167.128t-.18.11q-.092.05-.188.092-.097.042-.197.074t-.204.053-.207.034-.21.013q-.106 0-.21-.008-.105-.01-.209-.028-.103-.02-.204-.05-.102-.028-.2-.067-.097-.04-.19-.088-.094-.048-.182-.106t-.17-.123q-.187-.149-.335-.335-12.5-15.624 0-31.248.065-.082.139-.158.073-.075.154-.143.08-.068.167-.127.087-.06.18-.11.092-.051.188-.093.097-.041.197-.073t.204-.054.207-.033.21-.013q.106-.002.21.007.105.01.209.029.103.019.204.048.102.03.2.069.097.039.19.087.094.049.182.106t.17.123q.187.149.335.335m-3.346 2.677L55 33.571l1.673 1.339q-10.357 12.947 0 25.894L55 62.143l-1.673-1.339q10.357-12.947 0-25.894"/><clipPath id="a"><path d="M55 33.571q11.429 14.286 0 28.572-11.429-14.286 0-28.572"/></clipPath><g clip-path="url(#a)"><path fill="#eee" d="M62.143 47.857q0 .175-.009.35-.008.176-.026.35-.017.175-.042.348-.026.174-.06.346-.035.172-.077.342-.043.17-.094.338-.05.167-.11.332-.059.166-.126.328t-.142.32-.158.313q-.082.155-.172.305t-.188.296-.202.287q-.104.14-.216.276-.11.136-.228.266t-.242.254q-.124.124-.254.242t-.266.229q-.135.11-.276.215-.14.105-.287.202-.145.098-.296.188-.15.09-.305.173t-.313.157-.32.142-.328.126q-.165.06-.333.11-.167.051-.337.094-.17.042-.342.077t-.346.06-.348.043-.35.025T55 55t-.35-.009q-.176-.008-.35-.025-.175-.018-.348-.043-.174-.026-.346-.06-.171-.035-.342-.077-.17-.043-.337-.094-.168-.05-.333-.11-.165-.059-.327-.126t-.321-.142-.313-.157-.305-.173-.296-.188-.287-.202-.276-.215-.266-.23-.254-.241-.242-.254-.228-.266-.216-.276-.202-.287-.188-.296-.172-.305-.158-.313-.142-.32-.126-.328q-.06-.165-.11-.332-.051-.168-.094-.338-.042-.17-.077-.342t-.06-.346-.042-.348-.026-.35-.009-.35.009-.35q.008-.176.026-.35.017-.175.042-.348t.06-.345.077-.342.094-.338.11-.333.126-.327.142-.32q.075-.16.158-.314.082-.155.172-.305t.188-.296.202-.287q.104-.14.216-.276.11-.136.228-.266t.242-.254q.124-.124.254-.241.13-.118.266-.23.135-.11.276-.215.14-.105.287-.202.145-.097.296-.188.15-.09.305-.172.155-.083.313-.158.159-.075.32-.142.163-.067.328-.126.165-.06.333-.11.167-.051.337-.094.17-.042.342-.077t.346-.06.348-.042.35-.026.35-.009.35.009q.176.008.35.026.175.017.348.043.174.025.346.06t.342.076q.17.043.337.094.168.05.333.11.165.059.327.126t.321.142.313.158.305.172.296.188.287.202.276.216q.136.11.266.229.13.117.254.241t.242.254.228.266q.112.135.216.276.105.14.202.287t.188.296.172.305.158.313q.075.159.142.32.067.163.126.328.06.165.11.333.051.167.094.338.042.17.077.342t.06.345.042.348.026.35.009.35"/></g></svg>