<?xml version="1.0" encoding="utf-8" ?>
<svg xmlns="http://www.w3.org/2000/svg" xmlns:xlink="http://www.w3.org/1999/xlink" width="110" height="110">
	<path fill="white" transform="matrix(0.77186 1.2021 -1.2021 0.77186 55 47.8571)" d="M10 0L-5 8.66025L-5 -8.66025L10 0Z"/>
	<path fill="#CFCFCF" transform="matrix(0.77186 1.2021 -1.2021 0.77186 55 47.8571)" d="M10.75 1.29904L-4.25 9.95929Q-4.31382 9.99614 -4.38094 10.0265Q-4.44806 10.057 -4.51784 10.0806Q-4.58762 10.1043 -4.65939 10.1211Q-4.73115 10.1378 -4.80421 10.1474Q-4.87727 10.157 -4.95092 10.1595Q-5.02457 10.1619 -5.0981 10.157Q-5.17164 10.1522 -5.24434 10.1402Q-5.31705 10.1282 -5.38823 10.1091Q-5.45941 10.0901 -5.52838 10.0641Q-5.59734 10.0382 -5.66343 10.0056Q-5.72952 9.97297 -5.7921 9.93406Q-5.85468 9.89514 -5.91314 9.85028Q-5.9716 9.80542 -6.02539 9.75505Q-6.07917 9.70468 -6.12776 9.64927Q-6.17635 9.59387 -6.21927 9.53397Q-6.26219 9.47407 -6.29904 9.41025Q-6.5 9.06218 -6.5 8.66025L-6.5 -8.66025Q-6.5 -8.73394 -6.49278 -8.80728Q-6.48555 -8.88062 -6.47118 -8.95289Q-6.4568 -9.02516 -6.43541 -9.09568Q-6.41402 -9.1662 -6.38582 -9.23428Q-6.35762 -9.30236 -6.32288 -9.36735Q-6.28814 -9.43234 -6.2472 -9.49361Q-6.20626 -9.55488 -6.15951 -9.61184Q-6.11277 -9.66881 -6.06066 -9.72091Q-6.00855 -9.77302 -5.95159 -9.81977Q-5.89463 -9.86652 -5.83335 -9.90746Q-5.77208 -9.9484 -5.70709 -9.98314Q-5.6421 -10.0179 -5.57402 -10.0461Q-5.50594 -10.0743 -5.43543 -10.0957Q-5.36491 -10.1171 -5.29263 -10.1314Q-5.22036 -10.1458 -5.14702 -10.153Q-5.07369 -10.1603 -5 -10.1603Q-4.59807 -10.1603 -4.25 -9.95929L10.75 -1.29904Q10.8138 -1.26219 10.8737 -1.21927Q10.9336 -1.17635 10.989 -1.12776Q11.0444 -1.07917 11.0948 -1.02539Q11.1452 -0.971604 11.19 -0.913142Q11.2349 -0.85468 11.2738 -0.792102Q11.3127 -0.729524 11.3453 -0.663433Q11.3779 -0.597342 11.4039 -0.528375Q11.4298 -0.459408 11.4489 -0.388228Q11.468 -0.317049 11.48 -0.244343Q11.492 -0.171637 11.4968 -0.0981045Q11.5016 -0.0245721 11.4992 0.0490788Q11.4968 0.12273 11.4872 0.195789Q11.4775 0.268849 11.4608 0.340615Q11.4441 0.41238 11.4204 0.482159Q11.3967 0.551939 11.3663 0.619061Q11.3359 0.686182 11.299 0.75Q11.0981 1.09808 10.75 1.29904L10.75 1.29904ZM9.25 -1.29904L10 0L9.25 1.29904L-5.75 -7.36122L-5 -8.66025L-3.5 -8.66025L-3.5 8.66025L-5 8.66025L-5.75 7.36122L9.25 -1.29904Z"/>
	
	
</svg>
