<svg xmlns="http://www.w3.org/2000/svg" width="110" height="110"><path fill="#f7cf2f" d="m66.578 65.889-21.405 1.01-11.578-18.03 9.827-19.043 21.405-1.011 11.578 18.031z"/><path fill="#c8a826" d="m66.679 68.03-21.405 1.01q-.14.007-.28-.005t-.277-.042-.27-.077-.256-.112-.24-.145-.22-.174-.194-.202-.167-.226L31.792 50.026q-.076-.118-.136-.245t-.102-.261-.068-.272-.031-.279.005-.28.042-.277.077-.27.112-.257l9.827-19.042q.064-.125.144-.24.08-.116.175-.22.095-.103.202-.194.107-.09.225-.167.118-.075.246-.135.127-.06.26-.103.134-.043.272-.067.139-.025.279-.032l21.405-1.01q.14-.008.28.004t.277.042q.137.03.27.077.132.048.256.112.125.065.24.145.116.08.22.175t.194.201.167.226l11.578 18.031q.076.118.136.246.06.127.102.26.043.134.068.272.025.139.031.279.007.14-.005.28t-.042.277q-.03.138-.077.27-.048.132-.112.257L68.482 66.87q-.064.125-.144.24-.08.116-.175.22t-.202.194q-.107.09-.225.167-.118.076-.246.135-.127.06-.26.103-.134.043-.272.068-.139.024-.279.031m-.202-4.282.1 2.14-1.903-.982L74.5 45.863l1.905.983-1.803 1.158-11.578-18.032 1.803-1.157.1 2.14-21.404 1.011-.1-2.14 1.903.982L35.5 49.851l-1.905-.983 1.803-1.158 11.578 18.032-1.803 1.158-.1-2.14z"/></svg>