<svg xmlns="http://www.w3.org/2000/svg" width="110" height="110"><path fill="#fff" d="M72.143 47.857q0 .42-.02.841-.021.42-.063.84-.041.418-.103.834-.061.417-.144.83-.082.412-.184.82-.102.409-.224.811t-.264.8q-.142.396-.303.784-.161.39-.341.77t-.378.751q-.199.371-.415.732t-.45.711-.485.688-.517.663-.55.638-.58.609-.61.58-.637.55-.663.517-.688.485-.71.45q-.362.216-.733.415t-.751.378q-.38.18-.77.341-.389.161-.785.303t-.799.264-.81.224-.822.185-.829.143-.835.103-.839.062T55 65q-.42 0-.841-.02-.42-.02-.84-.062-.418-.04-.834-.103-.417-.061-.83-.143-.412-.082-.82-.185-.409-.102-.811-.224t-.8-.264q-.395-.142-.784-.303-.39-.161-.77-.34t-.751-.38q-.371-.198-.732-.414t-.711-.45-.688-.485q-.338-.25-.663-.517-.326-.267-.637-.55-.312-.283-.61-.58-.297-.298-.58-.61-.283-.311-.55-.637-.267-.325-.517-.663t-.485-.688-.45-.71-.415-.733-.378-.751-.341-.77-.303-.785-.264-.799-.224-.81-.184-.822-.144-.829-.103-.835-.062-.839-.02-.84q0-.422.02-.842t.062-.84q.041-.418.103-.834.061-.417.144-.83.082-.412.184-.82t.224-.811q.122-.403.264-.8.142-.395.303-.784t.341-.77.378-.751q.199-.371.415-.732t.45-.71.485-.689.517-.663.55-.637.58-.61.61-.58.637-.55.663-.517.688-.485.71-.45q.362-.216.733-.415t.751-.378q.38-.18.77-.34.389-.162.785-.304.396-.141.799-.264.402-.122.81-.224t.822-.184.829-.144.835-.103.839-.062q.42-.02.841-.02.42 0 .841.02.42.02.84.062.418.041.834.103.417.062.83.144.412.082.82.184.409.102.811.224t.8.264q.395.142.784.303.39.161.77.341t.751.378q.371.199.732.415.361.217.711.45.35.234.688.485.338.25.663.518.326.266.637.55.312.282.61.58.297.297.58.609.283.311.55.637.267.325.517.663t.485.688.45.71.415.733.378.752.341.769.303.785.264.799.224.81.184.822.144.829.103.835.062.839.02.841"/><path fill="#333" d="M55 30.714q.42 0 .841.021.42.02.84.062.418.041.834.103.417.062.83.144.412.082.82.184.409.102.811.224t.8.264q.395.142.784.303.39.161.77.341t.751.378q.371.199.732.415.361.217.711.45.35.234.688.485.338.25.663.518.326.266.637.55.312.282.61.58.297.297.58.609.283.311.55.637.267.325.517.663t.485.688.45.71.415.733.378.752.341.769.303.785.264.799.224.81.184.822.144.829.103.835.062.839.02.841-.02.841q-.02.42-.062.84-.041.418-.103.834-.061.417-.144.83-.082.412-.184.82-.102.409-.224.811t-.264.8q-.142.396-.303.784-.161.39-.341.77t-.378.751q-.199.371-.415.732t-.45.711-.485.688-.517.663-.55.638-.58.609-.61.58-.637.55-.663.517-.688.485-.71.45q-.362.216-.733.415t-.751.378q-.38.18-.77.341-.389.161-.785.303t-.799.264-.81.224-.822.185-.829.143-.835.103-.839.062T55 65"/><path fill="#333" d="M63.571 56.429q0 .21-.01.42t-.03.42q-.021.21-.052.417-.031.208-.072.415-.041.206-.092.41-.052.204-.113.406-.06.201-.132.4-.07.197-.151.392-.08.194-.17.384t-.19.376-.207.366-.225.356-.242.344-.26.331-.274.319-.29.304q-.149.15-.305.29-.156.142-.318.275-.163.134-.332.26-.169.125-.344.241-.175.117-.355.226-.18.108-.366.207-.186.1-.376.189-.19.09-.385.17-.194.08-.392.152-.198.07-.4.132-.201.06-.405.112-.204.051-.41.092-.207.041-.415.072t-.418.052-.42.03T55 65q-.21 0-.42-.01t-.42-.03q-.21-.02-.418-.052-.208-.03-.414-.072-.207-.04-.41-.092-.205-.051-.406-.112t-.4-.132q-.198-.071-.392-.151-.195-.081-.385-.171t-.376-.19q-.185-.098-.366-.206-.18-.109-.355-.226-.175-.116-.344-.242-.169-.125-.332-.259-.162-.133-.318-.274t-.305-.29q-.149-.15-.29-.305-.141-.156-.275-.319-.133-.162-.259-.331-.125-.17-.242-.344-.117-.175-.225-.356-.108-.18-.207-.366-.1-.186-.19-.376t-.17-.384q-.08-.195-.151-.393t-.132-.4q-.061-.2-.113-.405-.05-.204-.092-.41-.04-.207-.072-.415-.03-.208-.051-.417-.02-.21-.031-.42t-.01-.42q0-.21.01-.421.01-.21.03-.42.021-.209.052-.417t.072-.415.092-.41q.052-.204.113-.406.06-.201.132-.4.07-.197.151-.392.08-.194.17-.384t.19-.376.207-.366.225-.356.242-.343.26-.332.274-.319.29-.304q.149-.15.305-.29.156-.142.318-.275.163-.134.332-.26.169-.124.344-.241t.355-.225q.18-.109.366-.208t.376-.189.385-.17q.194-.081.392-.152t.4-.132q.201-.06.405-.112.204-.051.41-.092.207-.041.415-.072t.418-.052.42-.03.42-.01q.21 0 .42.01t.42.03q.21.021.418.052t.414.072q.207.04.41.092.205.051.406.112t.4.132q.198.071.392.152.195.08.385.17t.376.19q.185.098.366.207.18.108.355.225t.344.242.332.259q.162.133.318.275.156.14.305.29.149.148.29.304t.275.319q.133.163.259.332.125.169.242.343t.225.356.207.366.19.376.17.384.151.393.132.4q.061.2.113.405.05.204.092.41.04.207.072.415.03.208.051.417.02.21.031.42t.01.42"/><path fill="#fff" d="M63.571 39.286q0 .21-.01.42t-.03.42q-.021.21-.052.417-.031.209-.072.415t-.092.41-.113.406-.132.4q-.07.197-.151.392-.08.194-.17.384t-.19.376-.207.366-.225.356-.242.344-.26.331-.274.319-.29.305-.305.29-.318.274-.332.26-.344.242-.355.225-.366.207q-.186.1-.376.19t-.385.17q-.194.08-.392.151t-.4.132-.405.112-.41.092q-.207.041-.415.072t-.418.052-.42.03-.42.011q-.21 0-.42-.01t-.42-.031q-.21-.02-.418-.052-.208-.03-.414-.072-.207-.04-.41-.092-.205-.05-.406-.112-.202-.061-.4-.132-.198-.07-.392-.151-.195-.08-.385-.17t-.376-.19q-.185-.1-.366-.207-.18-.109-.355-.225-.175-.117-.344-.243-.169-.125-.332-.259-.162-.133-.318-.274t-.305-.29q-.149-.15-.29-.305-.141-.156-.275-.319-.133-.162-.259-.331-.125-.17-.242-.344-.117-.175-.225-.356-.108-.18-.207-.366-.1-.185-.19-.376-.09-.19-.17-.384-.08-.195-.151-.393t-.132-.4q-.061-.2-.113-.405-.05-.204-.092-.41-.04-.206-.072-.415-.03-.208-.051-.417-.02-.21-.031-.42t-.01-.42q0-.21.01-.42.01-.211.03-.42.021-.21.052-.418t.072-.415.092-.41q.052-.204.113-.405.06-.202.132-.4.07-.198.151-.392.08-.195.17-.385t.19-.376q.099-.185.207-.366.108-.18.225-.355t.242-.344q.126-.17.26-.332.133-.163.274-.319.141-.155.29-.304t.305-.29q.156-.142.318-.275.163-.134.332-.259t.344-.242.355-.225.366-.208.376-.189.385-.17q.194-.08.392-.152.198-.07.4-.132.201-.06.405-.112.204-.051.41-.092.207-.041.415-.072t.418-.051.42-.031.42-.01q.21 0 .42.01t.42.03q.21.021.418.052t.414.072.41.092q.205.051.406.112t.4.132q.198.071.392.152.195.08.385.17t.376.19q.185.099.366.207.18.108.355.225t.344.242.332.259q.162.133.318.275.156.141.305.29t.29.304.275.319.259.332.242.344.225.355.207.366.19.376.17.385.151.392.132.4q.061.2.113.405.05.204.092.41.04.207.072.415.03.208.051.418.02.209.031.42.01.21.01.42"/><path fill="none" stroke="#292929" stroke-linecap="round" stroke-linejoin="round" stroke-width="4.28571" d="M55 30.714q.42 0 .841.021.42.02.84.062.418.041.834.103.417.062.83.144.412.082.82.184.409.102.811.224t.8.264q.395.142.784.303.39.161.77.341t.751.378q.371.199.732.415.361.217.711.45.35.234.688.485.338.25.663.518.326.266.637.55.312.282.61.58.297.297.58.609.283.311.55.637.267.325.517.663t.485.688.45.71.415.733.378.752.341.769.303.785.264.799.224.81.184.822.144.829.103.835.062.839.02.841"/><path fill="none" stroke="#cfcfcf" stroke-linecap="round" stroke-linejoin="round" stroke-width="4.28571" d="M55 65q-.42 0-.841-.02-.42-.021-.84-.063-.418-.04-.834-.103-.417-.061-.83-.143-.412-.082-.82-.185-.409-.102-.811-.224t-.8-.264q-.395-.142-.784-.303-.39-.161-.77-.34t-.751-.38q-.371-.198-.732-.414t-.711-.45-.688-.485q-.338-.25-.663-.517-.326-.267-.637-.55-.312-.283-.61-.58-.297-.298-.58-.61-.283-.311-.55-.637-.267-.325-.517-.663t-.485-.688-.45-.71-.415-.733-.378-.751-.341-.77-.303-.785-.264-.799-.224-.81-.184-.822-.144-.829-.103-.835-.062-.839-.02-.84q0-.422.02-.842t.062-.84q.041-.418.103-.834.061-.417.144-.83.082-.412.184-.82t.224-.811q.122-.403.264-.8.142-.395.303-.784t.341-.77.378-.751q.199-.371.415-.732t.45-.71.485-.689.517-.663.55-.637.58-.61.61-.58.637-.55.663-.517.688-.485.71-.45q.362-.216.733-.415t.751-.378q.38-.18.77-.34.389-.162.785-.304.396-.141.799-.264.402-.122.81-.224t.822-.184.829-.144.835-.103.839-.062q.42-.02.841-.02"/><path fill="none" stroke="#292929" stroke-linecap="round" stroke-linejoin="round" stroke-width="4.28571" d="M72.143 47.857q0 .42-.02.841-.021.42-.063.84-.041.418-.103.834-.061.417-.144.83-.082.412-.184.82-.102.409-.224.811t-.264.8q-.142.396-.303.784-.161.39-.341.77t-.378.751q-.199.371-.415.732t-.45.711-.485.688-.517.663-.55.638-.58.609-.61.58-.637.55-.663.517-.688.485-.71.45q-.362.216-.733.415t-.751.378q-.38.18-.77.341-.389.161-.785.303t-.799.264-.81.224-.822.185-.829.143-.835.103-.839.062T55 65M55 65q-.21 0-.42-.01t-.42-.031q-.21-.02-.418-.052-.208-.03-.414-.072-.207-.04-.41-.092-.205-.051-.406-.112t-.4-.132q-.198-.071-.392-.151-.195-.081-.385-.171t-.376-.19q-.185-.098-.366-.206-.18-.109-.355-.226-.175-.116-.344-.242-.169-.125-.332-.259-.162-.133-.318-.274t-.305-.29q-.149-.15-.29-.305-.141-.156-.275-.319-.133-.162-.259-.331-.125-.17-.242-.344-.117-.175-.225-.356-.108-.18-.207-.366-.1-.186-.19-.376t-.17-.384q-.08-.195-.151-.393t-.132-.4q-.061-.2-.113-.405-.05-.204-.092-.41-.04-.207-.072-.415-.03-.208-.051-.417-.02-.21-.031-.42t-.01-.42q0-.21.01-.421.01-.21.03-.42.021-.209.052-.417t.072-.415.092-.41q.052-.204.113-.406.06-.201.132-.4.07-.197.151-.392.08-.194.17-.384t.19-.376.207-.366.225-.356.242-.343.26-.332.274-.319.29-.304q.149-.15.305-.29.156-.142.318-.275.163-.134.332-.26.169-.124.344-.241t.355-.225q.18-.109.366-.208t.376-.189.385-.17q.194-.081.392-.152t.4-.132q.201-.06.405-.112.204-.051.41-.092.207-.041.415-.072t.418-.052.42-.03.42-.01"/><path fill="none" stroke="#cfcfcf" stroke-linecap="round" stroke-linejoin="round" stroke-width="4.28571" d="M55 30.714q.21 0 .42.01t.42.032q.21.02.418.051t.414.072.41.092q.205.051.406.112t.4.132q.198.071.392.152.195.08.385.17t.376.19q.185.099.366.207.18.108.355.225t.344.242.332.259q.162.133.318.275.156.141.305.29t.29.304.275.319.259.332.242.344.225.355.207.366.19.376.17.385.151.392.132.4q.061.2.113.405.05.204.092.41.04.207.072.415.03.208.051.418.02.209.031.42.01.21.01.42t-.01.42-.03.42-.052.417q-.031.209-.072.415t-.092.41-.113.406-.132.4q-.07.197-.151.392-.08.194-.17.384t-.19.376-.207.366-.225.356-.242.344-.26.331-.274.319-.29.305-.305.29-.318.274-.332.26-.344.242-.355.225-.366.207q-.186.1-.376.19t-.385.17q-.194.08-.392.151t-.4.132-.405.112-.41.092q-.207.041-.415.072t-.418.052-.42.03-.42.011"/></svg>